<?xml version="1.0" encoding="utf-8"?>
<!-- Generator: Adobe Illustrator 22.1.0, SVG Export Plug-In . SVG Version: 6.00 Build 0)  -->
<svg version="1.1" id="Layer_1" xmlns="http://www.w3.org/2000/svg" xmlns:xlink="http://www.w3.org/1999/xlink" x="0px" y="0px"
	 viewBox="0 0 540 216" style="enable-background:new 0 0 540 216;" xml:space="preserve">
<style type="text/css">
	.st0{opacity:0.5;clip-path:url(#SVGID_2_);}
	.st1{filter:url(#Adobe_OpacityMaskFilter);}
	.st2{fill:url(#SVGID_4_);}
	.st3{mask:url(#SVGID_3_);}
	.st4{opacity:0.7;fill:#E8E8E8;}
	.st5{opacity:0.22;fill:#E8E8E8;}
	.st6{opacity:0.36;fill:#E8E8E8;}
	.st7{opacity:0.21;fill:#E8E8E8;}
	.st8{opacity:0.54;fill:#E8E8E8;}
	.st9{opacity:0.27;fill:#E8E8E8;}
	.st10{opacity:8.000000e-02;fill:#E8E8E8;}
	.st11{opacity:0.59;fill:#E8E8E8;}
	.st12{opacity:0.14;fill:#E8E8E8;}
	.st13{opacity:0.26;fill:#E8E8E8;}
	.st14{opacity:0.81;fill:#E8E8E8;}
	.st15{opacity:0.16;fill:#E8E8E8;}
	.st16{opacity:0.25;fill:#E8E8E8;}
	.st17{opacity:0.37;fill:#E8E8E8;}
	.st18{opacity:0.79;fill:#E8E8E8;}
	.st19{opacity:0.64;fill:#E8E8E8;}
	.st20{opacity:0.52;fill:#E8E8E8;}
	.st21{opacity:0.1;fill:#E8E8E8;}
	.st22{opacity:0.77;fill:#E8E8E8;}
	.st23{opacity:0.6;fill:#E8E8E8;}
	.st24{opacity:0.47;fill:#E8E8E8;}
	.st25{opacity:0.69;fill:#E8E8E8;}
	.st26{opacity:0.84;fill:#E8E8E8;}
	.st27{opacity:0.71;fill:#E8E8E8;}
	.st28{opacity:0.24;fill:#E8E8E8;}
	.st29{opacity:0.19;fill:#E8E8E8;}
	.st30{opacity:0.96;fill:#E8E8E8;}
	.st31{opacity:0.99;fill:#E8E8E8;}
	.st32{opacity:6.000000e-02;fill:#E8E8E8;}
	.st33{opacity:0.41;fill:#E8E8E8;}
	.st34{opacity:0.68;fill:#E8E8E8;}
	.st35{opacity:0.88;fill:#E8E8E8;}
	.st36{opacity:0.13;fill:#E8E8E8;}
	.st37{opacity:0.78;fill:#E8E8E8;}
	.st38{opacity:0.58;fill:#E8E8E8;}
	.st39{filter:url(#Adobe_OpacityMaskFilter_1_);}
	.st40{fill:url(#SVGID_6_);}
	.st41{mask:url(#SVGID_5_);}
	.st42{clip-path:url(#SVGID_2_);}
	.st43{filter:url(#Adobe_OpacityMaskFilter_2_);}
	.st44{fill:url(#SVGID_8_);}
	.st45{mask:url(#SVGID_7_);}
	.st46{opacity:0.7;fill:#D9D9D9;}
	.st47{opacity:0.22;fill:#D9D9D9;}
	.st48{opacity:0.36;fill:#D9D9D9;}
	.st49{opacity:0.21;fill:#D9D9D9;}
	.st50{opacity:0.54;fill:#D9D9D9;}
	.st51{opacity:0.27;fill:#D9D9D9;}
	.st52{opacity:8.000000e-02;fill:#D9D9D9;}
	.st53{opacity:0.59;fill:#D9D9D9;}
	.st54{opacity:0.14;fill:#D9D9D9;}
	.st55{opacity:0.26;fill:#D9D9D9;}
	.st56{opacity:0.81;fill:#D9D9D9;}
	.st57{opacity:0.16;fill:#D9D9D9;}
	.st58{opacity:0.25;fill:#D9D9D9;}
	.st59{opacity:0.37;fill:#D9D9D9;}
	.st60{opacity:0.79;fill:#D9D9D9;}
	.st61{opacity:0.64;fill:#D9D9D9;}
	.st62{opacity:0.52;fill:#D9D9D9;}
	.st63{opacity:0.1;fill:#D9D9D9;}
	.st64{opacity:0.77;fill:#D9D9D9;}
	.st65{opacity:0.6;fill:#D9D9D9;}
	.st66{opacity:0.47;fill:#D9D9D9;}
	.st67{opacity:0.69;fill:#D9D9D9;}
	.st68{opacity:0.84;fill:#D9D9D9;}
	.st69{opacity:0.71;fill:#D9D9D9;}
	.st70{opacity:0.24;fill:#D9D9D9;}
	.st71{opacity:0.19;fill:#D9D9D9;}
	.st72{opacity:0.96;fill:#D9D9D9;}
	.st73{opacity:0.99;fill:#D9D9D9;}
	.st74{opacity:6.000000e-02;fill:#D9D9D9;}
	.st75{opacity:0.41;fill:#D9D9D9;}
	.st76{opacity:0.68;fill:#D9D9D9;}
	.st77{opacity:0.88;fill:#D9D9D9;}
	.st78{opacity:0.13;fill:#D9D9D9;}
	.st79{opacity:0.78;fill:#D9D9D9;}
	.st80{opacity:0.58;fill:#D9D9D9;}
	.st81{filter:url(#Adobe_OpacityMaskFilter_3_);}
	.st82{fill:url(#SVGID_10_);}
	.st83{mask:url(#SVGID_9_);}
	.st84{display:none;}
	.st85{display:inline;}
	.st86{fill:#4D4D4D;}
</style>
<g>
	<g>
		<defs>
			<rect id="SVGID_1_" width="540" height="216"/>
		</defs>
		<use xlink:href="#SVGID_1_"  style="overflow:visible;fill:transparent;"/>
		<clipPath id="SVGID_2_">
			<use xlink:href="#SVGID_1_"  style="overflow:visible;"/>
		</clipPath>
		<g class="st0">
			<defs>
				<filter id="Adobe_OpacityMaskFilter" filterUnits="userSpaceOnUse" x="24.3" y="-229" width="801.1" height="673">
					<feColorMatrix  type="matrix" values="1 0 0 0 0  0 1 0 0 0  0 0 1 0 0  0 0 0 1 0"/>
				</filter>
			</defs>
			<mask maskUnits="userSpaceOnUse" x="24.3" y="-229" width="801.1" height="673" id="SVGID_3_">
				<g class="st1">
					
						<linearGradient id="SVGID_4_" gradientUnits="userSpaceOnUse" x1="-1376.2603" y1="-2568.3735" x2="-1376.2603" y2="-2387.6707" gradientTransform="matrix(-0.8713 0.4908 -0.4908 -0.8713 -2011.4246 -1482.4366)">
						<stop  offset="0.1087" style="stop-color:#FFFFFF"/>
						<stop  offset="0.201" style="stop-color:#CFCFCF"/>
						<stop  offset="0.3182" style="stop-color:#999999"/>
						<stop  offset="0.4368" style="stop-color:#6A6A6A"/>
						<stop  offset="0.5542" style="stop-color:#444444"/>
						<stop  offset="0.6699" style="stop-color:#262626"/>
						<stop  offset="0.7838" style="stop-color:#111111"/>
						<stop  offset="0.8949" style="stop-color:#040404"/>
						<stop  offset="1" style="stop-color:#000000"/>
					</linearGradient>
					<polygon class="st2" points="-43.9,113.4 731.9,-323.7 959.4,80.1 183.6,517.2 					"/>
				</g>
			</mask>
			<g class="st3">
				<path class="st4" d="M749.4,81.7c-2.7-4.7-1-10.7,3.7-13.3L790,47.6c4.7-2.7,10.7-1,13.3,3.7l20.8,36.9c2.7,4.7,1,10.7-3.7,13.3
					l-36.9,20.8c-4.7,2.7-10.7,1-13.3-3.7L749.4,81.7z"/>
				<path class="st5" d="M678.3,121.8c-2.7-4.7-1-10.7,3.7-13.3l36.9-20.8c4.7-2.7,10.7-1,13.3,3.7l20.8,36.9
					c2.7,4.7,1,10.7-3.7,13.3l-36.9,20.8c-4.7,2.7-10.7,1-13.3-3.7L678.3,121.8z"/>
				<path class="st6" d="M607.2,161.8c-2.7-4.7-1-10.7,3.7-13.3l36.9-20.8c4.7-2.7,10.7-1,13.3,3.7l20.8,36.9
					c2.7,4.7,1,10.7-3.7,13.3l-36.9,20.8c-4.7,2.7-10.7,1-13.3-3.7L607.2,161.8z"/>
				<path class="st7" d="M536.1,201.9c-2.7-4.7-1-10.7,3.7-13.3l36.9-20.8c4.7-2.7,10.7-1,13.3,3.7l20.8,36.9
					c2.7,4.7,1,10.7-3.7,13.3l-36.9,20.8c-4.7,2.7-10.7,1-13.3-3.7L536.1,201.9z"/>
				<path class="st8" d="M465,241.9c-2.7-4.7-1-10.7,3.7-13.3l36.9-20.8c4.7-2.7,10.7-1,13.3,3.7l20.8,36.9c2.7,4.7,1,10.7-3.7,13.3
					l-36.9,20.8c-4.7,2.7-10.7,1-13.3-3.7L465,241.9z"/>
				<path class="st9" d="M393.9,282c-2.7-4.7-1-10.7,3.7-13.3l36.9-20.8c4.7-2.7,10.7-1,13.3,3.7l20.8,36.9c2.7,4.7,1,10.7-3.7,13.3
					L428,322.6c-4.7,2.7-10.7,1-13.3-3.7L393.9,282z"/>
				<path class="st10" d="M322.8,322c-2.7-4.7-1-10.7,3.7-13.3l36.9-20.8c4.7-2.7,10.7-1,13.3,3.7l20.8,36.9
					c2.7,4.7,1,10.7-3.7,13.3l-36.9,20.8c-4.7,2.7-10.7,1-13.3-3.7L322.8,322z"/>
				<path class="st11" d="M251.7,362.1c-2.7-4.7-1-10.7,3.7-13.3l36.9-20.8c4.7-2.7,10.7-1,13.3,3.7l20.8,36.9
					c2.7,4.7,1,10.7-3.7,13.3l-36.9,20.8c-4.7,2.7-10.7,1-13.3-3.7L251.7,362.1z"/>
				<path class="st12" d="M180.6,402.1c-2.7-4.7-1-10.7,3.7-13.3l36.9-20.8c4.7-2.7,10.7-1,13.3,3.7l20.8,36.9
					c2.7,4.7,1,10.7-3.7,13.3l-36.9,20.8c-4.7,2.7-10.7,1-13.3-3.7L180.6,402.1z"/>
				<path class="st13" d="M710.6,12.9c-2.7-4.7-1-10.7,3.7-13.3l36.9-20.8c4.7-2.7,10.7-1,13.3,3.7l20.8,36.9
					c2.7,4.7,1,10.7-3.7,13.3l-36.9,20.8c-4.7,2.7-10.7,1-13.3-3.7L710.6,12.9z"/>
				<path class="st14" d="M639.5,52.9c-2.7-4.7-1-10.7,3.7-13.3l36.9-20.8c4.7-2.7,10.7-1,13.3,3.7l20.8,36.9
					c2.7,4.7,1,10.7-3.7,13.3l-36.9,20.8c-4.7,2.7-10.7,1-13.3-3.7L639.5,52.9z"/>
				<path class="st4" d="M568.4,93c-2.7-4.7-1-10.7,3.7-13.3L609,58.9c4.7-2.7,10.7-1,13.3,3.7l20.8,36.9c2.7,4.7,1,10.7-3.7,13.3
					l-36.9,20.8c-4.7,2.7-10.7,1-13.3-3.7L568.4,93z"/>
				<path class="st15" d="M497.3,133c-2.7-4.7-1-10.7,3.7-13.3l36.9-20.8c4.7-2.7,10.7-1,13.3,3.7l20.8,36.9
					c2.7,4.7,1,10.7-3.7,13.3l-36.9,20.8c-4.7,2.7-10.7,1-13.3-3.7L497.3,133z"/>
				<path class="st16" d="M426.2,173.1c-2.7-4.7-1-10.7,3.7-13.3l36.9-20.8c4.7-2.7,10.7-1,13.3,3.7l20.8,36.9
					c2.7,4.7,1,10.7-3.7,13.3l-36.9,20.8c-4.7,2.7-10.7,1-13.3-3.7L426.2,173.1z"/>
				<path class="st6" d="M355.2,213.1c-2.7-4.7-1-10.7,3.7-13.3l36.9-20.8c4.7-2.7,10.7-1,13.3,3.7l20.8,36.9
					c2.7,4.7,1,10.7-3.7,13.3l-36.9,20.8c-4.7,2.7-10.7,1-13.3-3.7L355.2,213.1z"/>
				<path class="st17" d="M284.1,253.2c-2.7-4.7-1-10.7,3.7-13.3l36.9-20.8c4.7-2.7,10.7-1,13.3,3.7l20.8,36.9
					c2.7,4.7,1,10.7-3.7,13.3l-36.9,20.8c-4.7,2.7-10.7,1-13.3-3.7L284.1,253.2z"/>
				<path class="st18" d="M213,293.2c-2.7-4.7-1-10.7,3.7-13.3l36.9-20.8c4.7-2.7,10.7-1,13.3,3.7l20.8,36.9
					c2.7,4.7,1,10.7-3.7,13.3l-36.9,20.8c-4.7,2.7-10.7,1-13.3-3.7L213,293.2z"/>
				<path class="st19" d="M141.9,333.3c-2.7-4.7-1-10.7,3.7-13.3l36.9-20.8c4.7-2.7,10.7-1,13.3,3.7l20.8,36.9
					c2.7,4.7,1,10.7-3.7,13.3L176,373.9c-4.7,2.7-10.7,1-13.3-3.7L141.9,333.3z"/>
				<path class="st20" d="M671.9-56c-2.7-4.7-1-10.7,3.7-13.3l36.9-20.8c4.7-2.7,10.7-1,13.3,3.7l20.8,36.9c2.7,4.7,1,10.7-3.7,13.3
					L706-15.4c-4.7,2.7-10.7,1-13.3-3.7L671.9-56z"/>
				<path class="st21" d="M600.8-15.9c-2.7-4.7-1-10.7,3.7-13.3L641.4-50c4.7-2.7,10.7-1,13.3,3.7l20.8,36.9
					c2.7,4.7,1,10.7-3.7,13.3l-36.9,20.8c-4.7,2.7-10.7,1-13.3-3.7L600.8-15.9z"/>
				<path class="st22" d="M529.7,24.2c-2.7-4.7-1-10.7,3.7-13.3L570.3-10c4.7-2.7,10.7-1,13.3,3.7l20.8,36.9
					c2.7,4.7,1,10.7-3.7,13.3l-36.9,20.8c-4.7,2.7-10.7,1-13.3-3.7L529.7,24.2z"/>
				<path class="st23" d="M458.6,64.2c-2.7-4.7-1-10.7,3.7-13.3l36.9-20.8c4.7-2.7,10.7-1,13.3,3.7l20.8,36.9
					c2.7,4.7,1,10.7-3.7,13.3l-36.9,20.8c-4.7,2.7-10.7,1-13.3-3.7L458.6,64.2z"/>
				<path class="st24" d="M387.5,104.3c-2.7-4.7-1-10.7,3.7-13.3l36.9-20.8c4.7-2.7,10.7-1,13.3,3.7l20.8,36.9
					c2.7,4.7,1,10.7-3.7,13.3l-36.9,20.8c-4.7,2.7-10.7,1-13.3-3.7L387.5,104.3z"/>
				<path class="st25" d="M316.4,144.3c-2.7-4.7-1-10.7,3.7-13.3l36.9-20.8c4.7-2.7,10.7-1,13.3,3.7l20.8,36.9
					c2.7,4.7,1,10.7-3.7,13.3l-36.9,20.8c-4.7,2.7-10.7,1-13.3-3.7L316.4,144.3z"/>
				<path class="st26" d="M245.3,184.4c-2.7-4.7-1-10.7,3.7-13.3l36.9-20.8c4.7-2.7,10.7-1,13.3,3.7l20.8,36.9
					c2.7,4.7,1,10.7-3.7,13.3L279.4,225c-4.7,2.7-10.7,1-13.3-3.7L245.3,184.4z"/>
				<path class="st27" d="M174.2,224.4c-2.7-4.7-1-10.7,3.7-13.3l36.9-20.8c4.7-2.7,10.7-1,13.3,3.7l20.8,36.9
					c2.7,4.7,1,10.7-3.7,13.3L208.3,265c-4.7,2.7-10.7,1-13.3-3.7L174.2,224.4z"/>
				<path class="st28" d="M103.1,264.5c-2.7-4.7-1-10.7,3.7-13.3l36.9-20.8c4.7-2.7,10.7-1,13.3,3.7l20.8,36.9
					c2.7,4.7,1,10.7-3.7,13.3l-36.9,20.8c-4.7,2.7-10.7,1-13.3-3.7L103.1,264.5z"/>
				<path class="st8" d="M633.1-124.8c-2.7-4.7-1-10.7,3.7-13.3l36.9-20.8c4.7-2.7,10.7-1,13.3,3.7l20.8,36.9
					c2.7,4.7,1,10.7-3.7,13.3l-36.9,20.8c-4.7,2.7-10.7,1-13.3-3.7L633.1-124.8z"/>
				<path class="st29" d="M562-84.7c-2.7-4.7-1-10.7,3.7-13.3l36.9-20.8c4.7-2.7,10.7-1,13.3,3.7l20.8,36.9c2.7,4.7,1,10.7-3.7,13.3
					l-36.9,20.8c-4.7,2.7-10.7,1-13.3-3.7L562-84.7z"/>
				<path class="st30" d="M490.9-44.7c-2.7-4.7-1-10.7,3.7-13.3l36.9-20.8c4.7-2.7,10.7-1,13.3,3.7l20.8,36.9
					c2.7,4.7,1,10.7-3.7,13.3L525-4.1c-4.7,2.7-10.7,1-13.3-3.7L490.9-44.7z"/>
				<path class="st31" d="M419.8-4.6c-2.7-4.7-1-10.7,3.7-13.3l36.9-20.8c4.7-2.7,10.7-1,13.3,3.7l20.8,36.9
					c2.7,4.7,1,10.7-3.7,13.3L453.9,36c-4.7,2.7-10.7,1-13.3-3.7L419.8-4.6z"/>
				<path class="st32" d="M348.7,35.4c-2.7-4.7-1-10.7,3.7-13.3l36.9-20.8c4.7-2.7,10.7-1,13.3,3.7l20.8,36.9
					c2.7,4.7,1,10.7-3.7,13.3L382.8,76c-4.7,2.7-10.7,1-13.3-3.7L348.7,35.4z"/>
				<path class="st33" d="M277.6,75.5c-2.7-4.7-1-10.7,3.7-13.3l36.9-20.8c4.7-2.7,10.7-1,13.3,3.7L352.3,82
					c2.7,4.7,1,10.7-3.7,13.3l-36.9,20.8c-4.7,2.7-10.7,1-13.3-3.7L277.6,75.5z"/>
				<path class="st8" d="M206.5,115.5c-2.7-4.7-1-10.7,3.7-13.3l36.9-20.8c4.7-2.7,10.7-1,13.3,3.7l20.8,36.9
					c2.7,4.7,1,10.7-3.7,13.3l-36.9,20.8c-4.7,2.7-10.7,1-13.3-3.7L206.5,115.5z"/>
				<path class="st34" d="M135.4,155.6c-2.7-4.7-1-10.7,3.7-13.3l36.9-20.8c4.7-2.7,10.7-1,13.3,3.7l20.8,36.9
					c2.7,4.7,1,10.7-3.7,13.3l-36.9,20.8c-4.7,2.7-10.7,1-13.3-3.7L135.4,155.6z"/>
				<path class="st35" d="M64.3,195.6c-2.7-4.7-1-10.7,3.7-13.3l36.9-20.8c4.7-2.7,10.7-1,13.3,3.7l20.8,36.9
					c2.7,4.7,1,10.7-3.7,13.3l-36.9,20.8c-4.7,2.7-10.7,1-13.3-3.7L64.3,195.6z"/>
				<path class="st28" d="M594.3-193.6c-2.7-4.7-1-10.7,3.7-13.3l36.9-20.8c4.7-2.7,10.7-1,13.3,3.7l20.8,36.9
					c2.7,4.7,1,10.7-3.7,13.3L628.4-153c-4.7,2.7-10.7,1-13.3-3.7L594.3-193.6z"/>
				<path class="st27" d="M523.2-153.6c-2.7-4.7-1-10.7,3.7-13.3l36.9-20.8c4.7-2.7,10.7-1,13.3,3.7l20.8,36.9
					c2.7,4.7,1,10.7-3.7,13.3L557.3-113c-4.7,2.7-10.7,1-13.3-3.7L523.2-153.6z"/>
				<path class="st36" d="M452.1-113.5c-2.7-4.7-1-10.7,3.7-13.3l36.9-20.8c4.7-2.7,10.7-1,13.3,3.7l20.8,36.9
					c2.7,4.7,1,10.7-3.7,13.3l-36.9,20.8c-4.7,2.7-10.7,1-13.3-3.7L452.1-113.5z"/>
				<path class="st5" d="M381-73.5c-2.7-4.7-1-10.7,3.7-13.3l36.9-20.8c4.7-2.7,10.7-1,13.3,3.7L455.7-67c2.7,4.7,1,10.7-3.7,13.3
					l-36.9,20.8c-4.7,2.7-10.7,1-13.3-3.7L381-73.5z"/>
				<path class="st14" d="M309.9-33.4c-2.7-4.7-1-10.7,3.7-13.3l36.9-20.8c4.7-2.7,10.7-1,13.3,3.7l20.8,36.9
					c2.7,4.7,1,10.7-3.7,13.3L344,7.2c-4.7,2.7-10.7,1-13.3-3.7L309.9-33.4z"/>
				<path class="st29" d="M238.8,6.7c-2.7-4.7-1-10.7,3.7-13.3l36.9-20.8c4.7-2.7,10.7-1,13.3,3.7l20.8,36.9
					c2.7,4.7,1,10.7-3.7,13.3l-36.9,20.8c-4.7,2.7-10.7,1-13.3-3.7L238.8,6.7z"/>
				<path class="st37" d="M167.7,46.7c-2.7-4.7-1-10.7,3.7-13.3l36.9-20.8c4.7-2.7,10.7-1,13.3,3.7l20.8,36.9
					c2.7,4.7,1,10.7-3.7,13.3l-36.9,20.8c-4.7,2.7-10.7,1-13.3-3.7L167.7,46.7z"/>
				<path class="st38" d="M96.6,86.8c-2.7-4.7-1-10.7,3.7-13.3l36.9-20.8c4.7-2.7,10.7-1,13.3,3.7l20.8,36.9
					c2.7,4.7,1,10.7-3.7,13.3l-36.9,20.8c-4.7,2.7-10.7,1-13.3-3.7L96.6,86.8z"/>
				<path class="st4" d="M25.5,126.8c-2.7-4.7-1-10.7,3.7-13.3l36.9-20.8c4.7-2.7,10.7-1,13.3,3.7l20.8,36.9
					c2.7,4.7,1,10.7-3.7,13.3l-36.9,20.8c-4.7,2.7-10.7,1-13.3-3.7L25.5,126.8z"/>
			</g>
			<defs>
				<filter id="Adobe_OpacityMaskFilter_1_" filterUnits="userSpaceOnUse" x="160.8" y="-26.4" width="524.1" height="440.3">
					<feColorMatrix  type="matrix" values="1 0 0 0 0  0 1 0 0 0  0 0 1 0 0  0 0 0 1 0"/>
				</filter>
			</defs>
			<mask maskUnits="userSpaceOnUse" x="160.8" y="-26.4" width="524.1" height="440.3" id="SVGID_5_">
				<g class="st39">
					
						<linearGradient id="SVGID_6_" gradientUnits="userSpaceOnUse" x1="-1320.5238" y1="-2646.9036" x2="-1320.5238" y2="-2528.6775" gradientTransform="matrix(-0.8713 0.4908 -0.4908 -0.8713 -2011.4246 -1482.4366)">
						<stop  offset="0.1087" style="stop-color:#FFFFFF"/>
						<stop  offset="0.201" style="stop-color:#CFCFCF"/>
						<stop  offset="0.3182" style="stop-color:#999999"/>
						<stop  offset="0.4368" style="stop-color:#6A6A6A"/>
						<stop  offset="0.5542" style="stop-color:#444444"/>
						<stop  offset="0.6699" style="stop-color:#262626"/>
						<stop  offset="0.7838" style="stop-color:#111111"/>
						<stop  offset="0.8949" style="stop-color:#040404"/>
						<stop  offset="1" style="stop-color:#000000"/>
					</linearGradient>
					<polygon class="st40" points="116.2,197.6 623.8,-88.4 772.6,175.8 265.1,461.8 					"/>
				</g>
			</mask>
			<g class="st41">
				<path class="st4" d="M635.3,176.9c-1.7-3.1-0.6-7,2.4-8.7l24.1-13.6c3.1-1.7,7-0.6,8.7,2.4l13.6,24.1c1.7,3.1,0.6,7-2.4,8.7
					l-24.1,13.6c-3.1,1.7-7,0.6-8.7-2.4L635.3,176.9z"/>
				<path class="st5" d="M588.8,203.1c-1.7-3.1-0.6-7,2.4-8.7l24.1-13.6c3.1-1.7,7-0.6,8.7,2.4l13.6,24.1c1.7,3.1,0.6,7-2.4,8.7
					l-24.1,13.6c-3.1,1.7-7,0.6-8.7-2.4L588.8,203.1z"/>
				<path class="st6" d="M542.2,229.3c-1.7-3.1-0.6-7,2.4-8.7l24.1-13.6c3.1-1.7,7-0.6,8.7,2.4l13.6,24.1c1.7,3.1,0.6,7-2.4,8.7
					l-24.1,13.6c-3.1,1.7-7,0.6-8.7-2.4L542.2,229.3z"/>
				<path class="st7" d="M495.7,255.5c-1.7-3.1-0.6-7,2.4-8.7l24.1-13.6c3.1-1.7,7-0.6,8.7,2.4l13.6,24.1c1.7,3.1,0.6,7-2.4,8.7
					L518,282c-3.1,1.7-7,0.6-8.7-2.4L495.7,255.5z"/>
				<path class="st8" d="M449.2,281.7c-1.7-3.1-0.6-7,2.4-8.7l24.1-13.6c3.1-1.7,7-0.6,8.7,2.4l13.6,24.1c1.7,3.1,0.6,7-2.4,8.7
					l-24.1,13.6c-3.1,1.7-7,0.6-8.7-2.4L449.2,281.7z"/>
				<path class="st9" d="M402.7,307.9c-1.7-3.1-0.6-7,2.4-8.7l24.1-13.6c3.1-1.7,7-0.6,8.7,2.4l13.6,24.1c1.7,3.1,0.6,7-2.4,8.7
					L425,334.5c-3.1,1.7-7,0.6-8.7-2.4L402.7,307.9z"/>
				<path class="st10" d="M356.2,334.1c-1.7-3.1-0.6-7,2.4-8.7l24.1-13.6c3.1-1.7,7-0.6,8.7,2.4l13.6,24.1c1.7,3.1,0.6,7-2.4,8.7
					l-24.1,13.6c-3.1,1.7-7,0.6-8.7-2.4L356.2,334.1z"/>
				<path class="st11" d="M309.7,360.3c-1.7-3.1-0.6-7,2.4-8.7l24.1-13.6c3.1-1.7,7-0.6,8.7,2.4l13.6,24.1c1.7,3.1,0.6,7-2.4,8.7
					L332,386.9c-3.1,1.7-7,0.6-8.7-2.4L309.7,360.3z"/>
				<path class="st12" d="M263.1,386.5c-1.7-3.1-0.6-7,2.4-8.7l24.1-13.6c3.1-1.7,7-0.6,8.7,2.4l13.6,24.1c1.7,3.1,0.6,7-2.4,8.7
					l-24.1,13.6c-3.1,1.7-7,0.6-8.7-2.4L263.1,386.5z"/>
				<path class="st13" d="M609.9,131.8c-1.7-3.1-0.6-7,2.4-8.7l24.1-13.6c3.1-1.7,7-0.6,8.7,2.4l13.6,24.1c1.7,3.1,0.6,7-2.4,8.7
					l-24.1,13.6c-3.1,1.7-7,0.6-8.7-2.4L609.9,131.8z"/>
				<path class="st14" d="M563.4,158c-1.7-3.1-0.6-7,2.4-8.7l24.1-13.6c3.1-1.7,7-0.6,8.7,2.4l13.6,24.1c1.7,3.1,0.6,7-2.4,8.7
					l-24.1,13.6c-3.1,1.7-7,0.6-8.7-2.4L563.4,158z"/>
				<path class="st4" d="M516.9,184.2c-1.7-3.1-0.6-7,2.4-8.7l24.1-13.6c3.1-1.7,7-0.6,8.7,2.4l13.6,24.1c1.7,3.1,0.6,7-2.4,8.7
					l-24.1,13.6c-3.1,1.7-7,0.6-8.7-2.4L516.9,184.2z"/>
				<path class="st15" d="M470.4,210.4c-1.7-3.1-0.6-7,2.4-8.7l24.1-13.6c3.1-1.7,7-0.6,8.7,2.4l13.6,24.1c1.7,3.1,0.6,7-2.4,8.7
					L492.7,237c-3.1,1.7-7,0.6-8.7-2.4L470.4,210.4z"/>
				<path class="st16" d="M423.8,236.7c-1.7-3.1-0.6-7,2.4-8.7l24.1-13.6c3.1-1.7,7-0.6,8.7,2.4l13.6,24.1c1.7,3.1,0.6,7-2.4,8.7
					l-24.1,13.6c-3.1,1.7-7,0.6-8.7-2.4L423.8,236.7z"/>
				<path class="st6" d="M377.3,262.9c-1.7-3.1-0.6-7,2.4-8.7l24.1-13.6c3.1-1.7,7-0.6,8.7,2.4l13.6,24.1c1.7,3.1,0.6,7-2.4,8.7
					l-24.1,13.6c-3.1,1.7-7,0.6-8.7-2.4L377.3,262.9z"/>
				<path class="st17" d="M330.8,289.1c-1.7-3.1-0.6-7,2.4-8.7l24.1-13.6c3.1-1.7,7-0.6,8.7,2.4l13.6,24.1c1.7,3.1,0.6,7-2.4,8.7
					l-24.1,13.6c-3.1,1.7-7,0.6-8.7-2.4L330.8,289.1z"/>
				<path class="st18" d="M284.3,315.3c-1.7-3.1-0.6-7,2.4-8.7l24.1-13.6c3.1-1.7,7-0.6,8.7,2.4l13.6,24.1c1.7,3.1,0.6,7-2.4,8.7
					l-24.1,13.6c-3.1,1.7-7,0.6-8.7-2.4L284.3,315.3z"/>
				<path class="st19" d="M237.8,341.5c-1.7-3.1-0.6-7,2.4-8.7l24.1-13.6c3.1-1.7,7-0.6,8.7,2.4l13.6,24.1c1.7,3.1,0.6,7-2.4,8.7
					L260.1,368c-3.1,1.7-7,0.6-8.7-2.4L237.8,341.5z"/>
				<path class="st20" d="M584.5,86.8c-1.7-3.1-0.6-7,2.4-8.7l24.1-13.6c3.1-1.7,7-0.6,8.7,2.4L633.4,91c1.7,3.1,0.6,7-2.4,8.7
					l-24.1,13.6c-3.1,1.7-7,0.6-8.7-2.4L584.5,86.8z"/>
				<path class="st21" d="M538,113c-1.7-3.1-0.6-7,2.4-8.7l24.1-13.6c3.1-1.7,7-0.6,8.7,2.4l13.6,24.1c1.7,3.1,0.6,7-2.4,8.7
					l-24.1,13.6c-3.1,1.7-7,0.6-8.7-2.4L538,113z"/>
				<path class="st22" d="M491.5,139.2c-1.7-3.1-0.6-7,2.4-8.7l24.1-13.6c3.1-1.7,7-0.6,8.7,2.4l13.6,24.1c1.7,3.1,0.6,7-2.4,8.7
					l-24.1,13.6c-3.1,1.7-7,0.6-8.7-2.4L491.5,139.2z"/>
				<path class="st23" d="M445,165.4c-1.7-3.1-0.6-7,2.4-8.7l24.1-13.6c3.1-1.7,7-0.6,8.7,2.4l13.6,24.1c1.7,3.1,0.6,7-2.4,8.7
					L467.3,192c-3.1,1.7-7,0.6-8.7-2.4L445,165.4z"/>
				<path class="st24" d="M398.5,191.6c-1.7-3.1-0.6-7,2.4-8.7l24.1-13.6c3.1-1.7,7-0.6,8.7,2.4l13.6,24.1c1.7,3.1,0.6,7-2.4,8.7
					l-24.1,13.6c-3.1,1.7-7,0.6-8.7-2.4L398.5,191.6z"/>
				<path class="st25" d="M352,217.8c-1.7-3.1-0.6-7,2.4-8.7l24.1-13.6c3.1-1.7,7-0.6,8.7,2.4l13.6,24.1c1.7,3.1,0.6,7-2.4,8.7
					l-24.1,13.6c-3.1,1.7-7,0.6-8.7-2.4L352,217.8z"/>
				<path class="st26" d="M305.4,244c-1.7-3.1-0.6-7,2.4-8.7l24.1-13.6c3.1-1.7,7-0.6,8.7,2.4l13.6,24.1c1.7,3.1,0.6,7-2.4,8.7
					l-24.1,13.6c-3.1,1.7-7,0.6-8.7-2.4L305.4,244z"/>
				<path class="st27" d="M258.9,270.2c-1.7-3.1-0.6-7,2.4-8.7l24.1-13.6c3.1-1.7,7-0.6,8.7,2.4l13.6,24.1c1.7,3.1,0.6,7-2.4,8.7
					l-24.1,13.6c-3.1,1.7-7,0.6-8.7-2.4L258.9,270.2z"/>
				<path class="st28" d="M212.4,296.4c-1.7-3.1-0.6-7,2.4-8.7l24.1-13.6c3.1-1.7,7-0.6,8.7,2.4l13.6,24.1c1.7,3.1,0.6,7-2.4,8.7
					L234.7,323c-3.1,1.7-7,0.6-8.7-2.4L212.4,296.4z"/>
				<path class="st8" d="M559.2,41.8c-1.7-3.1-0.6-7,2.4-8.7l24.1-13.6c3.1-1.7,7-0.6,8.7,2.4L608,46c1.7,3.1,0.6,7-2.4,8.7
					l-24.1,13.6c-3.1,1.7-7,0.6-8.7-2.4L559.2,41.8z"/>
				<path class="st29" d="M512.7,68c-1.7-3.1-0.6-7,2.4-8.7l24.1-13.6c3.1-1.7,7-0.6,8.7,2.4l13.6,24.1c1.7,3.1,0.6,7-2.4,8.7
					L535,94.5c-3.1,1.7-7,0.6-8.7-2.4L512.7,68z"/>
				<path class="st30" d="M466.1,94.2c-1.7-3.1-0.6-7,2.4-8.7l24.1-13.6c3.1-1.7,7-0.6,8.7,2.4L515,98.4c1.7,3.1,0.6,7-2.4,8.7
					l-24.1,13.6c-3.1,1.7-7,0.6-8.7-2.4L466.1,94.2z"/>
				<path class="st31" d="M419.6,120.4c-1.7-3.1-0.6-7,2.4-8.7l24.1-13.6c3.1-1.7,7-0.6,8.7,2.4l13.6,24.1c1.7,3.1,0.6,7-2.4,8.7
					l-24.1,13.6c-3.1,1.7-7,0.6-8.7-2.4L419.6,120.4z"/>
				<path class="st32" d="M373.1,146.6c-1.7-3.1-0.6-7,2.4-8.7l24.1-13.6c3.1-1.7,7-0.6,8.7,2.4l13.6,24.1c1.7,3.1,0.6,7-2.4,8.7
					l-24.1,13.6c-3.1,1.7-7,0.6-8.7-2.4L373.1,146.6z"/>
				<path class="st33" d="M326.6,172.8c-1.7-3.1-0.6-7,2.4-8.7l24.1-13.6c3.1-1.7,7-0.6,8.7,2.4l13.6,24.1c1.7,3.1,0.6,7-2.4,8.7
					l-24.1,13.6c-3.1,1.7-7,0.6-8.7-2.4L326.6,172.8z"/>
				<path class="st8" d="M280.1,199c-1.7-3.1-0.6-7,2.4-8.7l24.1-13.6c3.1-1.7,7-0.6,8.7,2.4l13.6,24.1c1.7,3.1,0.6,7-2.4,8.7
					l-24.1,13.6c-3.1,1.7-7,0.6-8.7-2.4L280.1,199z"/>
				<path class="st34" d="M233.6,225.2c-1.7-3.1-0.6-7,2.4-8.7l24.1-13.6c3.1-1.7,7-0.6,8.7,2.4l13.6,24.1c1.7,3.1,0.6,7-2.4,8.7
					l-24.1,13.6c-3.1,1.7-7,0.6-8.7-2.4L233.6,225.2z"/>
				<path class="st35" d="M187,251.4c-1.7-3.1-0.6-7,2.4-8.7l24.1-13.6c3.1-1.7,7-0.6,8.7,2.4l13.6,24.1c1.7,3.1,0.6,7-2.4,8.7
					L209.4,278c-3.1,1.7-7,0.6-8.7-2.4L187,251.4z"/>
				<path class="st28" d="M533.8-3.3c-1.7-3.1-0.6-7,2.4-8.7l24.1-13.6c3.1-1.7,7-0.6,8.7,2.4L582.7,1c1.7,3.1,0.6,7-2.4,8.7
					l-24.1,13.6c-3.1,1.7-7,0.6-8.7-2.4L533.8-3.3z"/>
				<path class="st27" d="M487.3,22.9c-1.7-3.1-0.6-7,2.4-8.7l24.1-13.6c3.1-1.7,7-0.6,8.7,2.4l13.6,24.1c1.7,3.1,0.6,7-2.4,8.7
					l-24.1,13.6c-3.1,1.7-7,0.6-8.7-2.4L487.3,22.9z"/>
				<path class="st36" d="M440.8,49.1c-1.7-3.1-0.6-7,2.4-8.7l24.1-13.6c3.1-1.7,7-0.6,8.7,2.4l13.6,24.1c1.7,3.1,0.6,7-2.4,8.7
					l-24.1,13.6c-3.1,1.7-7,0.6-8.7-2.4L440.8,49.1z"/>
				<path class="st5" d="M394.3,75.4c-1.7-3.1-0.6-7,2.4-8.7L420.8,53c3.1-1.7,7-0.6,8.7,2.4l13.6,24.1c1.7,3.1,0.6,7-2.4,8.7
					l-24.1,13.6c-3.1,1.7-7,0.6-8.7-2.4L394.3,75.4z"/>
				<path class="st14" d="M347.7,101.6c-1.7-3.1-0.6-7,2.4-8.7l24.1-13.6c3.1-1.7,7-0.6,8.7,2.4l13.6,24.1c1.7,3.1,0.6,7-2.4,8.7
					l-24.1,13.6c-3.1,1.7-7,0.6-8.7-2.4L347.7,101.6z"/>
				<path class="st29" d="M301.2,127.8c-1.7-3.1-0.6-7,2.4-8.7l24.1-13.6c3.1-1.7,7-0.6,8.7,2.4l13.6,24.1c1.7,3.1,0.6,7-2.4,8.7
					l-24.1,13.6c-3.1,1.7-7,0.6-8.7-2.4L301.2,127.8z"/>
				<path class="st37" d="M254.7,154c-1.7-3.1-0.6-7,2.4-8.7l24.1-13.6c3.1-1.7,7-0.6,8.7,2.4l13.6,24.1c1.7,3.1,0.6,7-2.4,8.7
					L277,180.5c-3.1,1.7-7,0.6-8.7-2.4L254.7,154z"/>
				<path class="st38" d="M208.2,180.2c-1.7-3.1-0.6-7,2.4-8.7l24.1-13.6c3.1-1.7,7-0.6,8.7,2.4l13.6,24.1c1.7,3.1,0.6,7-2.4,8.7
					l-24.1,13.6c-3.1,1.7-7,0.6-8.7-2.4L208.2,180.2z"/>
				<path class="st4" d="M161.7,206.4c-1.7-3.1-0.6-7,2.4-8.7l24.1-13.6c3.1-1.7,7-0.6,8.7,2.4l13.6,24.1c1.7,3.1,0.6,7-2.4,8.7
					L184,232.9c-3.1,1.7-7,0.6-8.7-2.4L161.7,206.4z"/>
			</g>
		</g>
		<g class="st42">
			<defs>
				<filter id="Adobe_OpacityMaskFilter_2_" filterUnits="userSpaceOnUse" x="110.1" y="-55.6" width="485.3" height="407.7">
					<feColorMatrix  type="matrix" values="1 0 0 0 0  0 1 0 0 0  0 0 1 0 0  0 0 0 1 0"/>
				</filter>
			</defs>
			<mask maskUnits="userSpaceOnUse" x="110.1" y="-55.6" width="485.3" height="407.7" id="SVGID_7_">
				<g class="st43">
					
						<linearGradient id="SVGID_8_" gradientUnits="userSpaceOnUse" x1="-1280.0919" y1="-2573.4072" x2="-1280.0919" y2="-2463.9407" gradientTransform="matrix(-0.8713 0.4908 -0.4908 -0.8713 -2011.4246 -1482.4366)">
						<stop  offset="0.1087" style="stop-color:#FFFFFF"/>
						<stop  offset="0.201" style="stop-color:#CFCFCF"/>
						<stop  offset="0.3182" style="stop-color:#999999"/>
						<stop  offset="0.4368" style="stop-color:#6A6A6A"/>
						<stop  offset="0.5542" style="stop-color:#444444"/>
						<stop  offset="0.6699" style="stop-color:#262626"/>
						<stop  offset="0.7838" style="stop-color:#111111"/>
						<stop  offset="0.8949" style="stop-color:#040404"/>
						<stop  offset="1" style="stop-color:#000000"/>
					</linearGradient>
					<polygon class="st44" points="68.8,151.8 538.8,-113 676.6,131.6 206.6,396.4 					"/>
				</g>
			</mask>
			<g class="st45">
				<path class="st46" d="M549.4,132.6c-1.6-2.9-0.6-6.5,2.3-8.1l22.3-12.6c2.9-1.6,6.5-0.6,8.1,2.3l12.6,22.3
					c1.6,2.9,0.6,6.5-2.3,8.1L570,157.2c-2.9,1.6-6.5,0.6-8.1-2.3L549.4,132.6z"/>
				<path class="st47" d="M506.3,156.8c-1.6-2.9-0.6-6.5,2.3-8.1l22.3-12.6c2.9-1.6,6.5-0.6,8.1,2.3l12.6,22.3
					c1.6,2.9,0.6,6.5-2.3,8.1L527,181.4c-2.9,1.6-6.5,0.6-8.1-2.3L506.3,156.8z"/>
				<path class="st48" d="M463.2,181.1c-1.6-2.9-0.6-6.5,2.3-8.1l22.3-12.6c2.9-1.6,6.5-0.6,8.1,2.3l12.6,22.3
					c1.6,2.9,0.6,6.5-2.3,8.1l-22.3,12.6c-2.9,1.6-6.5,0.6-8.1-2.3L463.2,181.1z"/>
				<path class="st49" d="M420.2,205.4c-1.6-2.9-0.6-6.5,2.3-8.1l22.3-12.6c2.9-1.6,6.5-0.6,8.1,2.3l12.6,22.3
					c1.6,2.9,0.6,6.5-2.3,8.1L440.8,230c-2.9,1.6-6.5,0.6-8.1-2.3L420.2,205.4z"/>
				<path class="st50" d="M377.1,229.6c-1.6-2.9-0.6-6.5,2.3-8.1l22.3-12.6c2.9-1.6,6.5-0.6,8.1,2.3l12.6,22.3
					c1.6,2.9,0.6,6.5-2.3,8.1l-22.3,12.6c-2.9,1.6-6.5,0.6-8.1-2.3L377.1,229.6z"/>
				<path class="st51" d="M334,253.9c-1.6-2.9-0.6-6.5,2.3-8.1l22.3-12.6c2.9-1.6,6.5-0.6,8.1,2.3l12.6,22.3
					c1.6,2.9,0.6,6.5-2.3,8.1l-22.3,12.6c-2.9,1.6-6.5,0.6-8.1-2.3L334,253.9z"/>
				<path class="st52" d="M291,278.2c-1.6-2.9-0.6-6.5,2.3-8.1l22.3-12.6c2.9-1.6,6.5-0.6,8.1,2.3l12.6,22.3
					c1.6,2.9,0.6,6.5-2.3,8.1l-22.3,12.6c-2.9,1.6-6.5,0.6-8.1-2.3L291,278.2z"/>
				<path class="st53" d="M247.9,302.4c-1.6-2.9-0.6-6.5,2.3-8.1l22.3-12.6c2.9-1.6,6.5-0.6,8.1,2.3l12.6,22.3
					c1.6,2.9,0.6,6.5-2.3,8.1L268.6,327c-2.9,1.6-6.5,0.6-8.1-2.3L247.9,302.4z"/>
				<path class="st54" d="M204.8,326.7c-1.6-2.9-0.6-6.5,2.3-8.1l22.3-12.6c2.9-1.6,6.5-0.6,8.1,2.3l12.6,22.3
					c1.6,2.9,0.6,6.5-2.3,8.1l-22.3,12.6c-2.9,1.6-6.5,0.6-8.1-2.3L204.8,326.7z"/>
				<path class="st55" d="M525.9,90.9c-1.6-2.9-0.6-6.5,2.3-8.1l22.3-12.6c2.9-1.6,6.5-0.6,8.1,2.3l12.6,22.3
					c1.6,2.9,0.6,6.5-2.3,8.1l-22.3,12.6c-2.9,1.6-6.5,0.6-8.1-2.3L525.9,90.9z"/>
				<path class="st56" d="M482.8,115.2c-1.6-2.9-0.6-6.5,2.3-8.1l22.3-12.6c2.9-1.6,6.5-0.6,8.1,2.3l12.6,22.3
					c1.6,2.9,0.6,6.5-2.3,8.1l-22.3,12.6c-2.9,1.6-6.5,0.6-8.1-2.3L482.8,115.2z"/>
				<path class="st46" d="M439.7,139.4c-1.6-2.9-0.6-6.5,2.3-8.1l22.3-12.6c2.9-1.6,6.5-0.6,8.1,2.3l12.6,22.3
					c1.6,2.9,0.6,6.5-2.3,8.1L460.4,164c-2.9,1.6-6.5,0.6-8.1-2.3L439.7,139.4z"/>
				<path class="st57" d="M396.7,163.7c-1.6-2.9-0.6-6.5,2.3-8.1l22.3-12.6c2.9-1.6,6.5-0.6,8.1,2.3l12.6,22.3
					c1.6,2.9,0.6,6.5-2.3,8.1l-22.3,12.6c-2.9,1.6-6.5,0.6-8.1-2.3L396.7,163.7z"/>
				<path class="st58" d="M353.6,187.9c-1.6-2.9-0.6-6.5,2.3-8.1l22.3-12.6c2.9-1.6,6.5-0.6,8.1,2.3l12.6,22.3
					c1.6,2.9,0.6,6.5-2.3,8.1l-22.3,12.6c-2.9,1.6-6.5,0.6-8.1-2.3L353.6,187.9z"/>
				<path class="st48" d="M310.5,212.2c-1.6-2.9-0.6-6.5,2.3-8.1l22.3-12.6c2.9-1.6,6.5-0.6,8.1,2.3l12.6,22.3
					c1.6,2.9,0.6,6.5-2.3,8.1l-22.3,12.6c-2.9,1.6-6.5,0.6-8.1-2.3L310.5,212.2z"/>
				<path class="st59" d="M267.5,236.5c-1.6-2.9-0.6-6.5,2.3-8.1l22.3-12.6c2.9-1.6,6.5-0.6,8.1,2.3l12.6,22.3
					c1.6,2.9,0.6,6.5-2.3,8.1l-22.3,12.6c-2.9,1.6-6.5,0.6-8.1-2.3L267.5,236.5z"/>
				<path class="st60" d="M224.4,260.7c-1.6-2.9-0.6-6.5,2.3-8.1l22.3-12.6c2.9-1.6,6.5-0.6,8.1,2.3l12.6,22.3
					c1.6,2.9,0.6,6.5-2.3,8.1l-22.3,12.6c-2.9,1.6-6.5,0.6-8.1-2.3L224.4,260.7z"/>
				<path class="st61" d="M181.3,285c-1.6-2.9-0.6-6.5,2.3-8.1l22.3-12.6c2.9-1.6,6.5-0.6,8.1,2.3l12.6,22.3
					c1.6,2.9,0.6,6.5-2.3,8.1L202,309.6c-2.9,1.6-6.5,0.6-8.1-2.3L181.3,285z"/>
				<path class="st62" d="M502.4,49.2c-1.6-2.9-0.6-6.5,2.3-8.1L527,28.5c2.9-1.6,6.5-0.6,8.1,2.3l12.6,22.3
					c1.6,2.9,0.6,6.5-2.3,8.1l-22.3,12.6c-2.9,1.6-6.5,0.6-8.1-2.3L502.4,49.2z"/>
				<path class="st63" d="M459.3,73.5c-1.6-2.9-0.6-6.5,2.3-8.1l22.3-12.6c2.9-1.6,6.5-0.6,8.1,2.3l12.6,22.3
					c1.6,2.9,0.6,6.5-2.3,8.1L480,98.1c-2.9,1.6-6.5,0.6-8.1-2.3L459.3,73.5z"/>
				<path class="st64" d="M416.3,97.7c-1.6-2.9-0.6-6.5,2.3-8.1l22.3-12.6c2.9-1.6,6.5-0.6,8.1,2.3l12.6,22.3
					c1.6,2.9,0.6,6.5-2.3,8.1l-22.3,12.6c-2.9,1.6-6.5,0.6-8.1-2.3L416.3,97.7z"/>
				<path class="st65" d="M373.2,122c-1.6-2.9-0.6-6.5,2.3-8.1l22.3-12.6c2.9-1.6,6.5-0.6,8.1,2.3l12.6,22.3
					c1.6,2.9,0.6,6.5-2.3,8.1l-22.3,12.6c-2.9,1.6-6.5,0.6-8.1-2.3L373.2,122z"/>
				<path class="st66" d="M330.1,146.2c-1.6-2.9-0.6-6.5,2.3-8.1l22.3-12.6c2.9-1.6,6.5-0.6,8.1,2.3l12.6,22.3
					c1.6,2.9,0.6,6.5-2.3,8.1l-22.3,12.6c-2.9,1.6-6.5,0.6-8.1-2.3L330.1,146.2z"/>
				<path class="st67" d="M287.1,170.5c-1.6-2.9-0.6-6.5,2.3-8.1l22.3-12.6c2.9-1.6,6.5-0.6,8.1,2.3l12.6,22.3
					c1.6,2.9,0.6,6.5-2.3,8.1l-22.3,12.6c-2.9,1.6-6.5,0.6-8.1-2.3L287.1,170.5z"/>
				<path class="st68" d="M244,194.8c-1.6-2.9-0.6-6.5,2.3-8.1l22.3-12.6c2.9-1.6,6.5-0.6,8.1,2.3l12.6,22.3
					c1.6,2.9,0.6,6.5-2.3,8.1l-22.3,12.6c-2.9,1.6-6.5,0.6-8.1-2.3L244,194.8z"/>
				<path class="st69" d="M200.9,219c-1.6-2.9-0.6-6.5,2.3-8.1l22.3-12.6c2.9-1.6,6.5-0.6,8.1,2.3l12.6,22.3
					c1.6,2.9,0.6,6.5-2.3,8.1l-22.3,12.6c-2.9,1.6-6.5,0.6-8.1-2.3L200.9,219z"/>
				<path class="st70" d="M157.8,243.3c-1.6-2.9-0.6-6.5,2.3-8.1l22.3-12.6c2.9-1.6,6.5-0.6,8.1,2.3l12.6,22.3
					c1.6,2.9,0.6,6.5-2.3,8.1l-22.3,12.6c-2.9,1.6-6.5,0.6-8.1-2.3L157.8,243.3z"/>
				<path class="st50" d="M478.9,7.5c-1.6-2.9-0.6-6.5,2.3-8.1l22.3-12.6c2.9-1.6,6.5-0.6,8.1,2.3l12.6,22.3
					c1.6,2.9,0.6,6.5-2.3,8.1l-22.3,12.6c-2.9,1.6-6.5,0.6-8.1-2.3L478.9,7.5z"/>
				<path class="st71" d="M435.8,31.8c-1.6-2.9-0.6-6.5,2.3-8.1l22.3-12.6c2.9-1.6,6.5-0.6,8.1,2.3l12.6,22.3
					c1.6,2.9,0.6,6.5-2.3,8.1l-22.3,12.6c-2.9,1.6-6.5,0.6-8.1-2.3L435.8,31.8z"/>
				<path class="st72" d="M392.8,56c-1.6-2.9-0.6-6.5,2.3-8.1l22.3-12.6c2.9-1.6,6.5-0.6,8.1,2.3L438,60c1.6,2.9,0.6,6.5-2.3,8.1
					l-22.3,12.6c-2.9,1.6-6.5,0.6-8.1-2.3L392.8,56z"/>
				<path class="st73" d="M349.7,80.3c-1.6-2.9-0.6-6.5,2.3-8.1l22.3-12.6c2.9-1.6,6.5-0.6,8.1,2.3L395,84.2
					c1.6,2.9,0.6,6.5-2.3,8.1l-22.3,12.6c-2.9,1.6-6.5,0.6-8.1-2.3L349.7,80.3z"/>
				<path class="st74" d="M306.6,104.6c-1.6-2.9-0.6-6.5,2.3-8.1l22.3-12.6c2.9-1.6,6.5-0.6,8.1,2.3l12.6,22.3
					c1.6,2.9,0.6,6.5-2.3,8.1l-22.3,12.6c-2.9,1.6-6.5,0.6-8.1-2.3L306.6,104.6z"/>
				<path class="st75" d="M263.6,128.8c-1.6-2.9-0.6-6.5,2.3-8.1l22.3-12.6c2.9-1.6,6.5-0.6,8.1,2.3l12.6,22.3
					c1.6,2.9,0.6,6.5-2.3,8.1l-22.3,12.6c-2.9,1.6-6.5,0.6-8.1-2.3L263.6,128.8z"/>
				<path class="st50" d="M220.5,153.1c-1.6-2.9-0.6-6.5,2.3-8.1l22.3-12.6c2.9-1.6,6.5-0.6,8.1,2.3l12.6,22.3
					c1.6,2.9,0.6,6.5-2.3,8.1l-22.3,12.6c-2.9,1.6-6.5,0.6-8.1-2.3L220.5,153.1z"/>
				<path class="st76" d="M177.4,177.3c-1.6-2.9-0.6-6.5,2.3-8.1l22.3-12.6c2.9-1.6,6.5-0.6,8.1,2.3l12.6,22.3
					c1.6,2.9,0.6,6.5-2.3,8.1l-22.3,12.6c-2.9,1.6-6.5,0.6-8.1-2.3L177.4,177.3z"/>
				<path class="st77" d="M134.4,201.6c-1.6-2.9-0.6-6.5,2.3-8.1l22.3-12.6c2.9-1.6,6.5-0.6,8.1,2.3l12.6,22.3
					c1.6,2.9,0.6,6.5-2.3,8.1L155,226.2c-2.9,1.6-6.5,0.6-8.1-2.3L134.4,201.6z"/>
				<path class="st70" d="M455.4-34.2c-1.6-2.9-0.6-6.5,2.3-8.1L480-54.9c2.9-1.6,6.5-0.6,8.1,2.3l12.6,22.3
					c1.6,2.9,0.6,6.5-2.3,8.1L476.1-9.6c-2.9,1.6-6.5,0.6-8.1-2.3L455.4-34.2z"/>
				<path class="st69" d="M412.4-9.9c-1.6-2.9-0.6-6.5,2.3-8.1l22.3-12.6c2.9-1.6,6.5-0.6,8.1,2.3L457.6-6c1.6,2.9,0.6,6.5-2.3,8.1
					L433,14.7c-2.9,1.6-6.5,0.6-8.1-2.3L412.4-9.9z"/>
				<path class="st78" d="M369.3,14.3c-1.6-2.9-0.6-6.5,2.3-8.1l22.3-12.6c2.9-1.6,6.5-0.6,8.1,2.3l12.6,22.3
					c1.6,2.9,0.6,6.5-2.3,8.1l-22.3,12.6c-2.9,1.6-6.5,0.6-8.1-2.3L369.3,14.3z"/>
				<path class="st47" d="M326.2,38.6c-1.6-2.9-0.6-6.5,2.3-8.1l22.3-12.6c2.9-1.6,6.5-0.6,8.1,2.3l12.6,22.3
					c1.6,2.9,0.6,6.5-2.3,8.1l-22.3,12.6c-2.9,1.6-6.5,0.6-8.1-2.3L326.2,38.6z"/>
				<path class="st56" d="M283.1,62.9c-1.6-2.9-0.6-6.5,2.3-8.1l22.3-12.6c2.9-1.6,6.5-0.6,8.1,2.3l12.6,22.3
					c1.6,2.9,0.6,6.5-2.3,8.1l-22.3,12.6c-2.9,1.6-6.5,0.6-8.1-2.3L283.1,62.9z"/>
				<path class="st71" d="M240.1,87.1c-1.6-2.9-0.6-6.5,2.3-8.1l22.3-12.6c2.9-1.6,6.5-0.6,8.1,2.3l12.6,22.3
					c1.6,2.9,0.6,6.5-2.3,8.1l-22.3,12.6c-2.9,1.6-6.5,0.6-8.1-2.3L240.1,87.1z"/>
				<path class="st79" d="M197,111.4c-1.6-2.9-0.6-6.5,2.3-8.1l22.3-12.6c2.9-1.6,6.5-0.6,8.1,2.3l12.6,22.3
					c1.6,2.9,0.6,6.5-2.3,8.1L217.7,136c-2.9,1.6-6.5,0.6-8.1-2.3L197,111.4z"/>
				<path class="st80" d="M153.9,135.6c-1.6-2.9-0.6-6.5,2.3-8.1l22.3-12.6c2.9-1.6,6.5-0.6,8.1,2.3l12.6,22.3
					c1.6,2.9,0.6,6.5-2.3,8.1l-22.3,12.6c-2.9,1.6-6.5,0.6-8.1-2.3L153.9,135.6z"/>
				<path class="st46" d="M110.9,159.9c-1.6-2.9-0.6-6.5,2.3-8.1l22.3-12.6c2.9-1.6,6.5-0.6,8.1,2.3l12.6,22.3
					c1.6,2.9,0.6,6.5-2.3,8.1l-22.3,12.6c-2.9,1.6-6.5,0.6-8.1-2.3L110.9,159.9z"/>
			</g>
			<defs>
				<filter id="Adobe_OpacityMaskFilter_3_" filterUnits="userSpaceOnUse" x="192.8" y="67.1" width="317.5" height="266.7">
					<feColorMatrix  type="matrix" values="1 0 0 0 0  0 1 0 0 0  0 0 1 0 0  0 0 0 1 0"/>
				</filter>
			</defs>
			<mask maskUnits="userSpaceOnUse" x="192.8" y="67.1" width="317.5" height="266.7" id="SVGID_9_">
				<g class="st81">
					
						<linearGradient id="SVGID_10_" gradientUnits="userSpaceOnUse" x1="-1246.3276" y1="-2620.9795" x2="-1246.3276" y2="-2549.3601" gradientTransform="matrix(-0.8713 0.4908 -0.4908 -0.8713 -2011.4246 -1482.4366)">
						<stop  offset="0.1087" style="stop-color:#FFFFFF"/>
						<stop  offset="0.201" style="stop-color:#CFCFCF"/>
						<stop  offset="0.3182" style="stop-color:#999999"/>
						<stop  offset="0.4368" style="stop-color:#6A6A6A"/>
						<stop  offset="0.5542" style="stop-color:#444444"/>
						<stop  offset="0.6699" style="stop-color:#262626"/>
						<stop  offset="0.7838" style="stop-color:#111111"/>
						<stop  offset="0.8949" style="stop-color:#040404"/>
						<stop  offset="1" style="stop-color:#000000"/>
					</linearGradient>
					<polygon class="st82" points="165.8,202.8 473.3,29.6 563.5,189.6 256,362.8 					"/>
				</g>
			</mask>
			<g class="st83">
				<path class="st46" d="M480.2,190.2c-1.1-1.9-0.4-4.2,1.5-5.3l14.6-8.2c1.9-1.1,4.2-0.4,5.3,1.5l8.2,14.6
					c1.1,1.9,0.4,4.2-1.5,5.3l-14.6,8.2c-1.9,1.1-4.2,0.4-5.3-1.5L480.2,190.2z"/>
				<path class="st47" d="M452.1,206.1c-1.1-1.9-0.4-4.2,1.5-5.3l14.6-8.2c1.9-1.1,4.2-0.4,5.3,1.5l8.2,14.6
					c1.1,1.9,0.4,4.2-1.5,5.3l-14.6,8.2c-1.9,1.1-4.2,0.4-5.3-1.5L452.1,206.1z"/>
				<path class="st48" d="M423.9,222c-1.1-1.9-0.4-4.2,1.5-5.3l14.6-8.2c1.9-1.1,4.2-0.4,5.3,1.5l8.2,14.6c1.1,1.9,0.4,4.2-1.5,5.3
					l-14.6,8.2c-1.9,1.1-4.2,0.4-5.3-1.5L423.9,222z"/>
				<path class="st49" d="M395.7,237.9c-1.1-1.9-0.4-4.2,1.5-5.3l14.6-8.2c1.9-1.1,4.2-0.4,5.3,1.5l8.2,14.6
					c1.1,1.9,0.4,4.2-1.5,5.3l-14.6,8.2c-1.9,1.1-4.2,0.4-5.3-1.5L395.7,237.9z"/>
				<path class="st50" d="M367.5,253.7c-1.1-1.9-0.4-4.2,1.5-5.3l14.6-8.2c1.9-1.1,4.2-0.4,5.3,1.5l8.2,14.6
					c1.1,1.9,0.4,4.2-1.5,5.3l-14.6,8.2c-1.9,1.1-4.2,0.4-5.3-1.5L367.5,253.7z"/>
				<path class="st51" d="M339.3,269.6c-1.1-1.9-0.4-4.2,1.5-5.3l14.6-8.2c1.9-1.1,4.2-0.4,5.3,1.5l8.2,14.6
					c1.1,1.9,0.4,4.2-1.5,5.3l-14.6,8.2c-1.9,1.1-4.2,0.4-5.3-1.5L339.3,269.6z"/>
				<path class="st52" d="M311.2,285.5c-1.1-1.9-0.4-4.2,1.5-5.3l14.6-8.2c1.9-1.1,4.2-0.4,5.3,1.5l8.2,14.6
					c1.1,1.9,0.4,4.2-1.5,5.3l-14.6,8.2c-1.9,1.1-4.2,0.4-5.3-1.5L311.2,285.5z"/>
				<path class="st53" d="M283,301.4c-1.1-1.9-0.4-4.2,1.5-5.3l14.6-8.2c1.9-1.1,4.2-0.4,5.3,1.5l8.2,14.6c1.1,1.9,0.4,4.2-1.5,5.3
					l-14.6,8.2c-1.9,1.1-4.2,0.4-5.3-1.5L283,301.4z"/>
				<path class="st54" d="M254.8,317.2c-1.1-1.9-0.4-4.2,1.5-5.3l14.6-8.2c1.9-1.1,4.2-0.4,5.3,1.5l8.2,14.6
					c1.1,1.9,0.4,4.2-1.5,5.3l-14.6,8.2c-1.9,1.1-4.2,0.4-5.3-1.5L254.8,317.2z"/>
				<path class="st55" d="M464.9,163c-1.1-1.9-0.4-4.2,1.5-5.3l14.6-8.2c1.9-1.1,4.2-0.4,5.3,1.5l8.2,14.6c1.1,1.9,0.4,4.2-1.5,5.3
					l-14.6,8.2c-1.9,1.1-4.2,0.4-5.3-1.5L464.9,163z"/>
				<path class="st56" d="M436.7,178.8c-1.1-1.9-0.4-4.2,1.5-5.3l14.6-8.2c1.9-1.1,4.2-0.4,5.3,1.5l8.2,14.6
					c1.1,1.9,0.4,4.2-1.5,5.3l-14.6,8.2c-1.9,1.1-4.2,0.4-5.3-1.5L436.7,178.8z"/>
				<path class="st46" d="M408.5,194.7c-1.1-1.9-0.4-4.2,1.5-5.3l14.6-8.2c1.9-1.1,4.2-0.4,5.3,1.5l8.2,14.6
					c1.1,1.9,0.4,4.2-1.5,5.3l-14.6,8.2c-1.9,1.1-4.2,0.4-5.3-1.5L408.5,194.7z"/>
				<path class="st57" d="M380.3,210.6c-1.1-1.9-0.4-4.2,1.5-5.3l14.6-8.2c1.9-1.1,4.2-0.4,5.3,1.5l8.2,14.6
					c1.1,1.9,0.4,4.2-1.5,5.3l-14.6,8.2c-1.9,1.1-4.2,0.4-5.3-1.5L380.3,210.6z"/>
				<path class="st58" d="M352.2,226.5c-1.1-1.9-0.4-4.2,1.5-5.3l14.6-8.2c1.9-1.1,4.2-0.4,5.3,1.5l8.2,14.6
					c1.1,1.9,0.4,4.2-1.5,5.3l-14.6,8.2c-1.9,1.1-4.2,0.4-5.3-1.5L352.2,226.5z"/>
				<path class="st48" d="M324,242.3c-1.1-1.9-0.4-4.2,1.5-5.3l14.6-8.2c1.9-1.1,4.2-0.4,5.3,1.5l8.2,14.6c1.1,1.9,0.4,4.2-1.5,5.3
					l-14.6,8.2c-1.9,1.1-4.2,0.4-5.3-1.5L324,242.3z"/>
				<path class="st59" d="M295.8,258.2c-1.1-1.9-0.4-4.2,1.5-5.3l14.6-8.2c1.9-1.1,4.2-0.4,5.3,1.5l8.2,14.6
					c1.1,1.9,0.4,4.2-1.5,5.3l-14.6,8.2c-1.9,1.1-4.2,0.4-5.3-1.5L295.8,258.2z"/>
				<path class="st60" d="M267.6,274.1c-1.1-1.9-0.4-4.2,1.5-5.3l14.6-8.2c1.9-1.1,4.2-0.4,5.3,1.5l8.2,14.6
					c1.1,1.9,0.4,4.2-1.5,5.3l-14.6,8.2c-1.9,1.1-4.2,0.4-5.3-1.5L267.6,274.1z"/>
				<path class="st61" d="M239.4,289.9c-1.1-1.9-0.4-4.2,1.5-5.3l14.6-8.2c1.9-1.1,4.2-0.4,5.3,1.5l8.2,14.6
					c1.1,1.9,0.4,4.2-1.5,5.3L253,306c-1.9,1.1-4.2,0.4-5.3-1.5L239.4,289.9z"/>
				<path class="st62" d="M449.5,135.7c-1.1-1.9-0.4-4.2,1.5-5.3l14.6-8.2c1.9-1.1,4.2-0.4,5.3,1.5l8.2,14.6
					c1.1,1.9,0.4,4.2-1.5,5.3l-14.6,8.2c-1.9,1.1-4.2,0.4-5.3-1.5L449.5,135.7z"/>
				<path class="st63" d="M421.3,151.5c-1.1-1.9-0.4-4.2,1.5-5.3l14.6-8.2c1.9-1.1,4.2-0.4,5.3,1.5l8.2,14.6
					c1.1,1.9,0.4,4.2-1.5,5.3l-14.6,8.2c-1.9,1.1-4.2,0.4-5.3-1.5L421.3,151.5z"/>
				<path class="st64" d="M393.1,167.4c-1.1-1.9-0.4-4.2,1.5-5.3l14.6-8.2c1.9-1.1,4.2-0.4,5.3,1.5l8.2,14.6
					c1.1,1.9,0.4,4.2-1.5,5.3l-14.6,8.2c-1.9,1.1-4.2,0.4-5.3-1.5L393.1,167.4z"/>
				<path class="st65" d="M365,183.3c-1.1-1.9-0.4-4.2,1.5-5.3l14.6-8.2c1.9-1.1,4.2-0.4,5.3,1.5l8.2,14.6c1.1,1.9,0.4,4.2-1.5,5.3
					l-14.6,8.2c-1.9,1.1-4.2,0.4-5.3-1.5L365,183.3z"/>
				<path class="st66" d="M336.8,199.2c-1.1-1.9-0.4-4.2,1.5-5.3l14.6-8.2c1.9-1.1,4.2-0.4,5.3,1.5l8.2,14.6
					c1.1,1.9,0.4,4.2-1.5,5.3l-14.6,8.2c-1.9,1.1-4.2,0.4-5.3-1.5L336.8,199.2z"/>
				<path class="st67" d="M308.6,215c-1.1-1.9-0.4-4.2,1.5-5.3l14.6-8.2c1.9-1.1,4.2-0.4,5.3,1.5l8.2,14.6c1.1,1.9,0.4,4.2-1.5,5.3
					l-14.6,8.2c-1.9,1.1-4.2,0.4-5.3-1.5L308.6,215z"/>
				<path class="st68" d="M280.4,230.9c-1.1-1.9-0.4-4.2,1.5-5.3l14.6-8.2c1.9-1.1,4.2-0.4,5.3,1.5l8.2,14.6
					c1.1,1.9,0.4,4.2-1.5,5.3l-14.6,8.2c-1.9,1.1-4.2,0.4-5.3-1.5L280.4,230.9z"/>
				<path class="st69" d="M252.2,246.8c-1.1-1.9-0.4-4.2,1.5-5.3l14.6-8.2c1.9-1.1,4.2-0.4,5.3,1.5l8.2,14.6
					c1.1,1.9,0.4,4.2-1.5,5.3l-14.6,8.2c-1.9,1.1-4.2,0.4-5.3-1.5L252.2,246.8z"/>
				<path class="st70" d="M224.1,262.7c-1.1-1.9-0.4-4.2,1.5-5.3l14.6-8.2c1.9-1.1,4.2-0.4,5.3,1.5l8.2,14.6
					c1.1,1.9,0.4,4.2-1.5,5.3l-14.6,8.2c-1.9,1.1-4.2,0.4-5.3-1.5L224.1,262.7z"/>
				<path class="st50" d="M434.1,108.4c-1.1-1.9-0.4-4.2,1.5-5.3l14.6-8.2c1.9-1.1,4.2-0.4,5.3,1.5l8.2,14.6
					c1.1,1.9,0.4,4.2-1.5,5.3l-14.6,8.2c-1.9,1.1-4.2,0.4-5.3-1.5L434.1,108.4z"/>
				<path class="st71" d="M406,124.3c-1.1-1.9-0.4-4.2,1.5-5.3l14.6-8.2c1.9-1.1,4.2-0.4,5.3,1.5l8.2,14.6c1.1,1.9,0.4,4.2-1.5,5.3
					l-14.6,8.2c-1.9,1.1-4.2,0.4-5.3-1.5L406,124.3z"/>
				<path class="st72" d="M377.8,140.1c-1.1-1.9-0.4-4.2,1.5-5.3l14.6-8.2c1.9-1.1,4.2-0.4,5.3,1.5l8.2,14.6
					c1.1,1.9,0.4,4.2-1.5,5.3l-14.6,8.2c-1.9,1.1-4.2,0.4-5.3-1.5L377.8,140.1z"/>
				<path class="st73" d="M349.6,156c-1.1-1.9-0.4-4.2,1.5-5.3l14.6-8.2c1.9-1.1,4.2-0.4,5.3,1.5l8.2,14.6c1.1,1.9,0.4,4.2-1.5,5.3
					l-14.6,8.2c-1.9,1.1-4.2,0.4-5.3-1.5L349.6,156z"/>
				<path class="st74" d="M321.4,171.9c-1.1-1.9-0.4-4.2,1.5-5.3l14.6-8.2c1.9-1.1,4.2-0.4,5.3,1.5l8.2,14.6
					c1.1,1.9,0.4,4.2-1.5,5.3l-14.6,8.2c-1.9,1.1-4.2,0.4-5.3-1.5L321.4,171.9z"/>
				<path class="st75" d="M293.2,187.8c-1.1-1.9-0.4-4.2,1.5-5.3l14.6-8.2c1.9-1.1,4.2-0.4,5.3,1.5l8.2,14.6
					c1.1,1.9,0.4,4.2-1.5,5.3l-14.6,8.2c-1.9,1.1-4.2,0.4-5.3-1.5L293.2,187.8z"/>
				<path class="st50" d="M265.1,203.6c-1.1-1.9-0.4-4.2,1.5-5.3l14.6-8.2c1.9-1.1,4.2-0.4,5.3,1.5l8.2,14.6
					c1.1,1.9,0.4,4.2-1.5,5.3l-14.6,8.2c-1.9,1.1-4.2,0.4-5.3-1.5L265.1,203.6z"/>
				<path class="st76" d="M236.9,219.5c-1.1-1.9-0.4-4.2,1.5-5.3L253,206c1.9-1.1,4.2-0.4,5.3,1.5l8.2,14.6c1.1,1.9,0.4,4.2-1.5,5.3
					l-14.6,8.2c-1.9,1.1-4.2,0.4-5.3-1.5L236.9,219.5z"/>
				<path class="st77" d="M208.7,235.4c-1.1-1.9-0.4-4.2,1.5-5.3l14.6-8.2c1.9-1.1,4.2-0.4,5.3,1.5l8.2,14.6
					c1.1,1.9,0.4,4.2-1.5,5.3l-14.6,8.2c-1.9,1.1-4.2,0.4-5.3-1.5L208.7,235.4z"/>
				<path class="st70" d="M418.8,81.1c-1.1-1.9-0.4-4.2,1.5-5.3l14.6-8.2c1.9-1.1,4.2-0.4,5.3,1.5l8.2,14.6c1.1,1.9,0.4,4.2-1.5,5.3
					l-14.6,8.2c-1.9,1.1-4.2,0.4-5.3-1.5L418.8,81.1z"/>
				<path class="st69" d="M390.6,97c-1.1-1.9-0.4-4.2,1.5-5.3l14.6-8.2c1.9-1.1,4.2-0.4,5.3,1.5l8.2,14.6c1.1,1.9,0.4,4.2-1.5,5.3
					l-14.6,8.2c-1.9,1.1-4.2,0.4-5.3-1.5L390.6,97z"/>
				<path class="st78" d="M362.4,112.9c-1.1-1.9-0.4-4.2,1.5-5.3l14.6-8.2c1.9-1.1,4.2-0.4,5.3,1.5l8.2,14.6
					c1.1,1.9,0.4,4.2-1.5,5.3l-14.6,8.2c-1.9,1.1-4.2,0.4-5.3-1.5L362.4,112.9z"/>
				<path class="st47" d="M334.2,128.7c-1.1-1.9-0.4-4.2,1.5-5.3l14.6-8.2c1.9-1.1,4.2-0.4,5.3,1.5l8.2,14.6
					c1.1,1.9,0.4,4.2-1.5,5.3l-14.6,8.2c-1.9,1.1-4.2,0.4-5.3-1.5L334.2,128.7z"/>
				<path class="st56" d="M306,144.6c-1.1-1.9-0.4-4.2,1.5-5.3l14.6-8.2c1.9-1.1,4.2-0.4,5.3,1.5l8.2,14.6c1.1,1.9,0.4,4.2-1.5,5.3
					l-14.6,8.2c-1.9,1.1-4.2,0.4-5.3-1.5L306,144.6z"/>
				<path class="st71" d="M277.9,160.5c-1.1-1.9-0.4-4.2,1.5-5.3L294,147c1.9-1.1,4.2-0.4,5.3,1.5l8.2,14.6c1.1,1.9,0.4,4.2-1.5,5.3
					l-14.6,8.2c-1.9,1.1-4.2,0.4-5.3-1.5L277.9,160.5z"/>
				<path class="st79" d="M249.7,176.4c-1.1-1.9-0.4-4.2,1.5-5.3l14.6-8.2c1.9-1.1,4.2-0.4,5.3,1.5l8.2,14.6
					c1.1,1.9,0.4,4.2-1.5,5.3l-14.6,8.2c-1.9,1.1-4.2,0.4-5.3-1.5L249.7,176.4z"/>
				<path class="st80" d="M221.5,192.2c-1.1-1.9-0.4-4.2,1.5-5.3l14.6-8.2c1.9-1.1,4.2-0.4,5.3,1.5l8.2,14.6
					c1.1,1.9,0.4,4.2-1.5,5.3l-14.6,8.2c-1.9,1.1-4.2,0.4-5.3-1.5L221.5,192.2z"/>
				<path class="st46" d="M193.3,208.1c-1.1-1.9-0.4-4.2,1.5-5.3l14.6-8.2c1.9-1.1,4.2-0.4,5.3,1.5l8.2,14.6
					c1.1,1.9,0.4,4.2-1.5,5.3l-14.6,8.2c-1.9,1.1-4.2,0.4-5.3-1.5L193.3,208.1z"/>
			</g>
		</g>
	</g>
	<g class="st84">
		<g class="st85">
			<path class="st86" d="M68.9,106.4c0.3,0,0.6,0.1,0.8,0.2c0.3,0.1,0.5,0.3,0.7,0.5c0.2,0.2,0.3,0.4,0.5,0.7
				c0.1,0.3,0.2,0.5,0.2,0.8v7.7h-3.4v-1.2h-4.4v1.2H60v-8.8l-1.2-0.9H68.9z M63.3,108.7v4.3h4.4v-4c0-0.2-0.1-0.3-0.2-0.4
				c-0.1-0.1-0.3-0.2-0.4-0.2h-4.2L63.3,108.7z"/>
			<path class="st86" d="M85.9,110c0,0.3-0.1,0.5-0.2,0.8c0.4,0.4,0.6,0.9,0.6,1.5v1.7c0,0.3-0.1,0.6-0.2,0.8
				c-0.1,0.3-0.3,0.5-0.5,0.7c-0.2,0.2-0.4,0.3-0.7,0.5c-0.3,0.1-0.5,0.2-0.8,0.2h-9.4v-8.8l-1.2-0.9h10.2c0.3,0,0.6,0.1,0.8,0.2
				c0.3,0.1,0.5,0.3,0.7,0.5c0.2,0.2,0.3,0.4,0.5,0.7c0.1,0.3,0.2,0.5,0.2,0.8V110z M78.2,108.7v1.5H82c0.2,0,0.3-0.1,0.4-0.2
				c0.1-0.1,0.2-0.3,0.2-0.4v-0.7c0-0.2-0.1-0.3-0.2-0.4c-0.1-0.1-0.3-0.2-0.4-0.2h-4.2L78.2,108.7z M78.2,114.2h4.2
				c0.2,0,0.3-0.1,0.4-0.2c0.1-0.1,0.2-0.2,0.2-0.4v-0.8c0-0.2-0.1-0.3-0.2-0.4c-0.1-0.1-0.2-0.2-0.4-0.2h-4.2V114.2z"/>
			<path class="st86" d="M100.4,110.4c0.3,0,0.5,0.1,0.8,0.2c0.2,0.1,0.4,0.3,0.6,0.5c0.2,0.2,0.3,0.4,0.4,0.7
				c0.1,0.3,0.2,0.5,0.2,0.8v1.5c0,0.3-0.1,0.6-0.2,0.8c-0.1,0.3-0.3,0.5-0.5,0.7c-0.2,0.2-0.4,0.3-0.7,0.5
				c-0.3,0.1-0.5,0.2-0.8,0.2h-6.8c-0.3,0-0.6-0.1-0.8-0.2c-0.3-0.1-0.5-0.3-0.7-0.5c-0.2-0.2-0.3-0.4-0.5-0.7
				c-0.1-0.3-0.2-0.5-0.2-0.8v-0.9l-1.2-0.9h4.6v1.4c0,0.1,0,0.1,0,0.1l0,0.2l-0.4,0.3l4.1,0c0.2,0,0.3-0.1,0.4-0.2
				c0.1-0.1,0.2-0.3,0.2-0.4v-0.8c0-0.2-0.1-0.3-0.2-0.4c-0.1-0.1-0.2-0.2-0.4-0.3l-4.3-0.5l-1-0.1c-0.3,0-0.5-0.1-0.8-0.2
				c-0.2-0.1-0.4-0.3-0.6-0.5c-0.2-0.2-0.3-0.4-0.4-0.7c-0.1-0.2-0.1-0.5-0.1-0.8v-0.8c0-0.3,0.1-0.6,0.2-0.8
				c0.1-0.3,0.3-0.5,0.5-0.7c0.2-0.2,0.4-0.3,0.7-0.5c0.3-0.1,0.5-0.2,0.8-0.2h6.1c0.3,0,0.6,0.1,0.8,0.2c0.3,0.1,0.5,0.3,0.7,0.5
				c0.2,0.2,0.3,0.4,0.5,0.7c0.1,0.3,0.2,0.5,0.2,0.8v1.4h-4.3l1-0.7v-0.2c0-0.2-0.1-0.3-0.2-0.4c-0.1-0.1-0.3-0.2-0.4-0.2h-2.5
				c-0.2,0-0.3,0.1-0.4,0.2c-0.1,0.1-0.2,0.2-0.2,0.4v0.1c0,0.2,0.1,0.3,0.2,0.4c0.1,0.1,0.2,0.2,0.4,0.3l2.1,0.3l1.9,0.2l0.3,0
				L100.4,110.4z"/>
			<path class="st86" d="M105.2,108.3v-2h11.1v2h-4.8l0.9,0.7v7.1h-3.4v-7.8H105.2z"/>
			<path class="st86" d="M132.4,111.6c0,0.3,0,0.5-0.1,0.8c-0.1,0.2-0.2,0.5-0.4,0.7l1.3,3.2h-3.6l-0.8-2.1
				c-0.1-0.3-0.3-0.4-0.6-0.4h-3.4v2.5h-3.4v-8.8l-1.2-0.9h10.2c0.3,0,0.6,0.1,0.8,0.2c0.3,0.1,0.5,0.3,0.7,0.5
				c0.2,0.2,0.3,0.4,0.5,0.7c0.1,0.3,0.2,0.5,0.2,0.8V111.6z M124.7,108.7v3.1h3.8c0.2,0,0.3-0.1,0.4-0.2c0.1-0.1,0.2-0.3,0.2-0.4
				v-2.2c0-0.2-0.1-0.3-0.2-0.4c-0.1-0.1-0.3-0.2-0.4-0.2h-4.2L124.7,108.7z"/>
			<path class="st86" d="M145.8,106.4c0.3,0,0.6,0.1,0.8,0.2c0.3,0.1,0.5,0.3,0.7,0.5c0.2,0.2,0.3,0.4,0.5,0.7
				c0.1,0.3,0.2,0.5,0.2,0.8v7.7h-3.4v-1.2h-4.4v1.2h-3.4v-8.8l-1.2-0.9H145.8z M140.2,108.7v4.3h4.4v-4c0-0.2-0.1-0.3-0.2-0.4
				c-0.1-0.1-0.3-0.2-0.4-0.2h-4.2L140.2,108.7z"/>
			<path class="st86" d="M160.6,106.4c0.3,0,0.6,0.1,0.8,0.2c0.3,0.1,0.5,0.3,0.7,0.5c0.2,0.2,0.3,0.4,0.5,0.7
				c0.1,0.3,0.2,0.5,0.2,0.8v1.6h-3.4v-1.2c0-0.2-0.1-0.3-0.2-0.4c-0.1-0.1-0.3-0.2-0.4-0.2h-4.2l0.4,0.3l0,0.2v4.8
				c0,0.2,0.1,0.3,0.2,0.4c0.1,0.1,0.3,0.2,0.4,0.2h3.2c0.2,0,0.3-0.1,0.4-0.2c0.1-0.1,0.2-0.2,0.2-0.4v-1.2h3.4v1.6
				c0,0.3-0.1,0.6-0.2,0.8c-0.1,0.3-0.3,0.5-0.5,0.7c-0.2,0.2-0.4,0.3-0.7,0.5c-0.3,0.1-0.5,0.2-0.8,0.2h-6.8
				c-0.3,0-0.6-0.1-0.8-0.2c-0.3-0.1-0.5-0.3-0.7-0.5c-0.2-0.2-0.3-0.4-0.5-0.7c-0.1-0.3-0.2-0.5-0.2-0.8v-5.5
				c0-0.3,0.1-0.6,0.2-0.8c0.1-0.3,0.3-0.5,0.5-0.7c0.2-0.2,0.4-0.3,0.7-0.5c0.3-0.1,0.5-0.2,0.8-0.2H160.6z"/>
			<path class="st86" d="M166.3,108.3v-2h11.1v2h-4.7l0.9,0.7v7.1h-3.4v-7.8H166.3z"/>
		</g>
		<g class="st85">
			<path class="st86" d="M81.3,122.6c0,0.1,0,0.3-0.1,0.5c0.2,0.2,0.4,0.5,0.4,0.9v1c0,0.2,0,0.3-0.1,0.5c-0.1,0.1-0.2,0.3-0.3,0.4
				c-0.1,0.1-0.2,0.2-0.4,0.3c-0.2,0.1-0.3,0.1-0.5,0.1h-5.5v-5.1l-0.7-0.5h5.9c0.2,0,0.3,0,0.5,0.1c0.1,0.1,0.3,0.2,0.4,0.3
				c0.1,0.1,0.2,0.2,0.3,0.4c0.1,0.1,0.1,0.3,0.1,0.5V122.6z M76.8,121.9v0.9H79c0.1,0,0.2,0,0.2-0.1c0.1-0.1,0.1-0.1,0.1-0.2V122
				c0-0.1,0-0.2-0.1-0.2c-0.1-0.1-0.1-0.1-0.2-0.1h-2.4L76.8,121.9z M76.8,125.1h2.5c0.1,0,0.2,0,0.2-0.1c0.1-0.1,0.1-0.1,0.1-0.2
				v-0.5c0-0.1,0-0.2-0.1-0.2c-0.1-0.1-0.1-0.1-0.2-0.1h-2.5V125.1z"/>
			<path class="st86" d="M88.9,120.5c0.2,0,0.3,0,0.5,0.1c0.1,0.1,0.3,0.2,0.4,0.3c0.1,0.1,0.2,0.2,0.3,0.4c0.1,0.1,0.1,0.3,0.1,0.5
				v4.5h-2v-0.7h-2.5v0.7h-2v-5.1l-0.7-0.5H88.9z M85.7,121.9v2.5h2.5V122c0-0.1,0-0.2-0.1-0.2c-0.1-0.1-0.1-0.1-0.2-0.1h-2.4
				L85.7,121.9z"/>
			<path class="st86" d="M97.6,120.5c0.2,0,0.3,0,0.5,0.1c0.1,0.1,0.3,0.2,0.4,0.3c0.1,0.1,0.2,0.2,0.3,0.4c0.1,0.1,0.1,0.3,0.1,0.5
				v0.9h-2V122c0-0.1,0-0.2-0.1-0.2c-0.1-0.1-0.1-0.1-0.2-0.1h-2.4l0.2,0.2l0,0.1v2.8c0,0.1,0,0.2,0.1,0.2c0.1,0.1,0.2,0.1,0.2,0.1
				h1.8c0.1,0,0.2,0,0.2-0.1c0.1-0.1,0.1-0.1,0.1-0.2v-0.7h2v0.9c0,0.2,0,0.3-0.1,0.5c-0.1,0.1-0.2,0.3-0.3,0.4
				c-0.1,0.1-0.2,0.2-0.4,0.3c-0.1,0.1-0.3,0.1-0.5,0.1h-4c-0.2,0-0.3,0-0.5-0.1c-0.1-0.1-0.3-0.2-0.4-0.3c-0.1-0.1-0.2-0.2-0.3-0.4
				c-0.1-0.1-0.1-0.3-0.1-0.5v-3.2c0-0.2,0-0.3,0.1-0.5c0.1-0.1,0.2-0.3,0.3-0.4c0.1-0.1,0.2-0.2,0.4-0.3c0.1-0.1,0.3-0.1,0.5-0.1
				H97.6z"/>
			<path class="st86" d="M107.9,126.2h-2.1l-0.1-0.2l-0.6-1.4c-0.1-0.1-0.2-0.2-0.3-0.2h-2.1l0.2,0.2v1.6h-2v-5.1l-0.7-0.5h2.6v2.7
				h1.2c0.1,0,0.1,0,0.2-0.1c0.1,0,0.1-0.1,0.1-0.2l1-2.5h2.1l-1,2.5l0.7,1.7L107.9,126.2z"/>
			<path class="st86" d="M114.9,120.5c0.2,0,0.3,0,0.5,0.1c0.2,0.1,0.3,0.2,0.4,0.3c0.1,0.1,0.2,0.2,0.3,0.4
				c0.1,0.1,0.1,0.3,0.1,0.5v0.8h-2V122c0-0.1,0-0.2-0.1-0.2c-0.1-0.1-0.1-0.1-0.2-0.1h-2.4l0.2,0.2l0,0.1v2.8c0,0.1,0,0.2,0.1,0.2
				c0.1,0.1,0.1,0.1,0.2,0.1h1.8c0.1,0,0.2,0,0.2-0.1c0.1-0.1,0.1-0.1,0.1-0.2V124h-1.6v-1.1h3.6v2.1c0,0.2,0,0.3-0.1,0.5
				c-0.1,0.1-0.2,0.3-0.3,0.4c-0.1,0.1-0.2,0.2-0.4,0.3c-0.1,0.1-0.3,0.1-0.5,0.1h-4c-0.2,0-0.3,0-0.5-0.1c-0.1-0.1-0.3-0.2-0.4-0.3
				c-0.1-0.1-0.2-0.2-0.3-0.4c-0.1-0.1-0.1-0.3-0.1-0.5v-3.2c0-0.2,0-0.3,0.1-0.5c0.1-0.1,0.2-0.3,0.3-0.4c0.1-0.1,0.2-0.2,0.4-0.3
				c0.1-0.1,0.3-0.1,0.5-0.1H114.9z"/>
			<path class="st86" d="M124.8,123.5c0,0.2,0,0.3-0.1,0.4c-0.1,0.1-0.1,0.3-0.2,0.4l0.7,1.8h-2.1l-0.5-1.2
				c-0.1-0.1-0.2-0.2-0.3-0.2h-2v1.4h-2v-5.1l-0.7-0.5h5.9c0.2,0,0.3,0,0.5,0.1c0.1,0.1,0.3,0.2,0.4,0.3c0.1,0.1,0.2,0.2,0.3,0.4
				c0.1,0.1,0.1,0.3,0.1,0.5V123.5z M120.3,121.9v1.8h2.2c0.1,0,0.2,0,0.2-0.1c0.1-0.1,0.1-0.1,0.1-0.2V122c0-0.1,0-0.2-0.1-0.2
				c-0.1-0.1-0.2-0.1-0.2-0.1h-2.4L120.3,121.9z"/>
			<path class="st86" d="M132.2,120.5c0.2,0,0.3,0,0.5,0.1c0.1,0.1,0.3,0.2,0.4,0.3c0.1,0.1,0.2,0.2,0.3,0.4
				c0.1,0.1,0.1,0.3,0.1,0.5v3.2c0,0.2,0,0.3-0.1,0.5c-0.1,0.1-0.2,0.3-0.3,0.4c-0.1,0.1-0.2,0.2-0.4,0.3c-0.1,0.1-0.3,0.1-0.5,0.1
				h-4c-0.2,0-0.3,0-0.5-0.1c-0.1-0.1-0.3-0.2-0.4-0.3c-0.1-0.1-0.2-0.2-0.3-0.4c-0.1-0.1-0.1-0.3-0.1-0.5v-3.2c0-0.2,0-0.3,0.1-0.5
				c0.1-0.1,0.2-0.3,0.3-0.4c0.1-0.1,0.2-0.2,0.4-0.3c0.1-0.1,0.3-0.1,0.5-0.1H132.2z M129,121.9L129,121.9l0,2.9
				c0,0.1,0,0.2,0.1,0.2c0.1,0.1,0.1,0.1,0.2,0.1h1.8c0.1,0,0.2,0,0.2-0.1s0.1-0.1,0.1-0.2V122c0-0.1,0-0.2-0.1-0.2
				c-0.1-0.1-0.1-0.1-0.2-0.1h-2.4L129,121.9z"/>
			<path class="st86" d="M139.8,120.5h2v4.4c0,0.2,0,0.3-0.1,0.5c-0.1,0.1-0.2,0.3-0.3,0.4c-0.1,0.1-0.2,0.2-0.4,0.3
				c-0.1,0.1-0.3,0.1-0.5,0.1h-3.6c-0.2,0-0.3,0-0.5-0.1c-0.2-0.1-0.3-0.2-0.4-0.3c-0.1-0.1-0.2-0.2-0.3-0.4
				c-0.1-0.1-0.1-0.3-0.1-0.5v-3.9l-0.7-0.5h2.6v4.2c0,0,0,0.1,0,0.1l0,0.1l-0.2,0.2h2c0.1,0,0.2,0,0.2-0.1c0.1-0.1,0.1-0.1,0.1-0.2
				V120.5z"/>
			<path class="st86" d="M149.1,124.1v-3.6h2v5.7h-1.7l-0.1,0.1l-0.1-0.1h-0.1v-0.1l-2.5-3.5v3.6h-2v-5.1l-0.7-0.5h2.4l0.1-0.1
				L149.1,124.1z"/>
			<path class="st86" d="M159.2,120.5c0.2,0,0.3,0,0.5,0.1c0.1,0.1,0.3,0.2,0.4,0.3c0.1,0.1,0.2,0.2,0.3,0.4
				c0.1,0.1,0.1,0.3,0.1,0.5v3.2c0,0.2,0,0.3-0.1,0.5c-0.1,0.1-0.2,0.3-0.3,0.4c-0.1,0.1-0.2,0.2-0.4,0.3c-0.1,0.1-0.3,0.1-0.5,0.1
				H154v-5.1l-0.7-0.5H159.2z M156,121.9v3.2h2.2c0.1,0,0.2,0,0.2-0.1c0.1-0.1,0.1-0.1,0.1-0.2V122c0-0.1,0-0.2-0.1-0.2
				c-0.1-0.1-0.1-0.1-0.2-0.1h-2.4L156,121.9z"/>
		</g>
	</g>
</g>
</svg>
