<svg xmlns="http://www.w3.org/2000/svg" width="300" height="300" viewbox="0 0 300 300" preserveAspectRatio="none"><rect x="0" y="0" width="100%" height="100%" fill="rgb(65, 65, 141)" /><rect x="0" y="0" width="50" height="50" fill="#ddd" fill-opacity="0.124" stroke="#000" stroke-opacity="0.02" /><rect x="50" y="0" width="50" height="50" fill="#ddd" fill-opacity="0.02" stroke="#000" stroke-opacity="0.02" /><rect x="100" y="0" width="50" height="50" fill="#222" fill-opacity="0.080666666666667" stroke="#000" stroke-opacity="0.02" /><rect x="150" y="0" width="50" height="50" fill="#222" fill-opacity="0.046" stroke="#000" stroke-opacity="0.02" /><rect x="200" y="0" width="50" height="50" fill="#ddd" fill-opacity="0.089333333333333" stroke="#000" stroke-opacity="0.02" /><rect x="250" y="0" width="50" height="50" fill="#ddd" fill-opacity="0.089333333333333" stroke="#000" stroke-opacity="0.02" /><rect x="0" y="50" width="50" height="50" fill="#ddd" fill-opacity="0.089333333333333" stroke="#000" stroke-opacity="0.02" /><rect x="50" y="50" width="50" height="50" fill="#ddd" fill-opacity="0.10666666666667" stroke="#000" stroke-opacity="0.02" /><rect x="100" y="50" width="50" height="50" fill="#222" fill-opacity="0.046" stroke="#000" stroke-opacity="0.02" /><rect x="150" y="50" width="50" height="50" fill="#222" fill-opacity="0.063333333333333" stroke="#000" stroke-opacity="0.02" /><rect x="200" y="50" width="50" height="50" fill="#222" fill-opacity="0.13266666666667" stroke="#000" stroke-opacity="0.02" /><rect x="250" y="50" width="50" height="50" fill="#ddd" fill-opacity="0.072" stroke="#000" stroke-opacity="0.02" /><rect x="0" y="100" width="50" height="50" fill="#222" fill-opacity="0.13266666666667" stroke="#000" stroke-opacity="0.02" /><rect x="50" y="100" width="50" height="50" fill="#222" fill-opacity="0.028666666666667" stroke="#000" stroke-opacity="0.02" /><rect x="100" y="100" width="50" height="50" fill="#222" fill-opacity="0.063333333333333" stroke="#000" stroke-opacity="0.02" /><rect x="150" y="100" width="50" height="50" fill="#222" fill-opacity="0.063333333333333" stroke="#000" stroke-opacity="0.02" /><rect x="200" y="100" width="50" height="50" fill="#ddd" fill-opacity="0.072" stroke="#000" stroke-opacity="0.02" /><rect x="250" y="100" width="50" height="50" fill="#222" fill-opacity="0.063333333333333" stroke="#000" stroke-opacity="0.02" /><rect x="0" y="150" width="50" height="50" fill="#ddd" fill-opacity="0.02" stroke="#000" stroke-opacity="0.02" /><rect x="50" y="150" width="50" height="50" fill="#ddd" fill-opacity="0.089333333333333" stroke="#000" stroke-opacity="0.02" /><rect x="100" y="150" width="50" height="50" fill="#222" fill-opacity="0.098" stroke="#000" stroke-opacity="0.02" /><rect x="150" y="150" width="50" height="50" fill="#222" fill-opacity="0.13266666666667" stroke="#000" stroke-opacity="0.02" /><rect x="200" y="150" width="50" height="50" fill="#ddd" fill-opacity="0.14133333333333" stroke="#000" stroke-opacity="0.02" /><rect x="250" y="150" width="50" height="50" fill="#222" fill-opacity="0.13266666666667" stroke="#000" stroke-opacity="0.02" /><rect x="0" y="200" width="50" height="50" fill="#ddd" fill-opacity="0.037333333333333" stroke="#000" stroke-opacity="0.02" /><rect x="50" y="200" width="50" height="50" fill="#ddd" fill-opacity="0.054666666666667" stroke="#000" stroke-opacity="0.02" /><rect x="100" y="200" width="50" height="50" fill="#222" fill-opacity="0.028666666666667" stroke="#000" stroke-opacity="0.02" /><rect x="150" y="200" width="50" height="50" fill="#222" fill-opacity="0.080666666666667" stroke="#000" stroke-opacity="0.02" /><rect x="200" y="200" width="50" height="50" fill="#222" fill-opacity="0.13266666666667" stroke="#000" stroke-opacity="0.02" /><rect x="250" y="200" width="50" height="50" fill="#222" fill-opacity="0.028666666666667" stroke="#000" stroke-opacity="0.02" /><rect x="0" y="250" width="50" height="50" fill="#ddd" fill-opacity="0.037333333333333" stroke="#000" stroke-opacity="0.02" /><rect x="50" y="250" width="50" height="50" fill="#ddd" fill-opacity="0.14133333333333" stroke="#000" stroke-opacity="0.02" /><rect x="100" y="250" width="50" height="50" fill="#ddd" fill-opacity="0.072" stroke="#000" stroke-opacity="0.02" /><rect x="150" y="250" width="50" height="50" fill="#ddd" fill-opacity="0.124" stroke="#000" stroke-opacity="0.02" /><rect x="200" y="250" width="50" height="50" fill="#222" fill-opacity="0.15" stroke="#000" stroke-opacity="0.02" /><rect x="250" y="250" width="50" height="50" fill="#222" fill-opacity="0.063333333333333" stroke="#000" stroke-opacity="0.02" /></svg>