<svg id="_x31__x2C_5" enable-background="new 0 0 36 36" height="512" viewBox="0 0 36 36" width="512" xmlns="http://www.w3.org/2000/svg"><path d="m8.377 4.167c6.917 0 11.667-3.583 15-3.583s10.333 1.916 10.333 17.249-9.417 17.583-13.083 17.583c-17.167.001-24.5-31.249-12.25-31.249z" fill="#efefef"/><path d="m24.625 1.25h1v2h-1z" fill="#a4afc1"/><path d="m26.875 4.25h2v1h-2z" fill="#a4afc1"/><path d="m16.75 26.75h2.5v2.5h-2.5z" fill="#2fdf84"/><path d="m11.75 20.5c0 .966 2.798 1.75 6.25 1.75s6.25-.784 6.25-1.75v-4h-12.5z" fill="#2fdf84"/><path d="m11.75 16.5c0 .966 2.798 1.75 6.25 1.75s6.25-.784 6.25-1.75v-4h-12.5z" fill="#f3f3f1"/><path d="m11.75 12.5c0 .966 2.798 1.75 6.25 1.75s6.25-.784 6.25-1.75v-4h-12.5z" fill="#2fdf84"/><ellipse cx="18" cy="8.5" fill="#f3f3f1" rx="6.25" ry="1.75"/><path d="m14 16.5v-2.5l-2.25-1.5v4c0 .966 2.798 1.75 6.25 1.75.385 0 .76-.011 1.125-.03-2.914-.148-5.125-.861-5.125-1.72z" fill="#d5dbe1"/><path d="m14 8.5c0-.859 2.211-1.572 5.125-1.72-.365-.019-.74-.03-1.125-.03-3.452 0-6.25.784-6.25 1.75s2.798 1.75 6.25 1.75c.385 0 .76-.011 1.125-.03-2.914-.148-5.125-.861-5.125-1.72z" fill="#d5dbe1"/><g fill="#00b871"><path d="m16.75 26.75h2.25v2.5h-2.25z"/><path d="m14 20.5v-2.75l-2.25-1.25v4c0 .966 2.798 1.75 6.25 1.75.385 0 .76-.011 1.125-.03-2.914-.148-5.125-.861-5.125-1.72z"/><path d="m14 12.5v-2.75l-2.25-1.25v4c0 .966 2.798 1.75 6.25 1.75.385 0 .76-.011 1.125-.03-2.914-.148-5.125-.861-5.125-1.72z"/></g><path d="m17.25 22.5h1.5v4.25h-1.5z"/><path d="m19.25 30h-2.5c-.414 0-.75-.336-.75-.75v-2.5c0-.414.336-.75.75-.75h2.5c.414 0 .75.336.75.75v2.5c0 .414-.336.75-.75.75zm-1.75-1.5h1v-1h-1z"/><path d="m11 27.25h6.5v1.5h-6.5z"/><path d="m18.5 27.25h6.5v1.5h-6.5z"/><path d="m18 11c-.716 0-7-.07-7-2.5s6.284-2.5 7-2.5 7 .07 7 2.5-6.284 2.5-7 2.5zm-5.436-2.5c.471.401 2.447 1 5.436 1s4.965-.599 5.436-1c-.471-.401-2.447-1-5.436-1s-4.965.599-5.436 1z"/><path d="m18 15c-.716 0-7-.07-7-2.5h1.5c.218.299 2.268 1 5.5 1s5.282-.701 5.521-1.094l1.479.094c0 2.43-6.284 2.5-7 2.5z"/><path d="m18 19c-.716 0-7-.07-7-2.5h1.5c.218.299 2.268 1 5.5 1s5.282-.701 5.521-1.094l1.479.094c0 2.43-6.284 2.5-7 2.5z"/><path d="m18 23c-.716 0-7-.07-7-2.5v-12h1.5v12c.218.299 2.268 1 5.5 1s5.282-.701 5.521-1.094l-.021-11.906h1.5v12c0 2.43-6.284 2.5-7 2.5z"/></svg>