<svg id="_x31__x2C_5" enable-background="new 0 0 36 36" height="512" viewBox="0 0 36 36" width="512" xmlns="http://www.w3.org/2000/svg"><path d="m4.167 27.623c0-6.917-3.583-11.667-3.583-15s1.916-10.333 17.249-10.333 17.583 9.417 17.583 13.083c.001 17.167-31.249 24.5-31.249 12.25z" fill="#efefef"/><path d="m27.5 14c-.827 0-1.5-.673-1.5-1.5s.673-1.5 1.5-1.5 1.5.673 1.5 1.5-.673 1.5-1.5 1.5zm0-2c-.275 0-.5.224-.5.5s.225.5.5.5.5-.224.5-.5-.225-.5-.5-.5z" fill="#a4afc1"/><path d="m19.25 20.5c0 .966-2.798 1.75-6.25 1.75s-6.25-.784-6.25-1.75v-4h12.5z" fill="#2fdf84"/><path d="m19.25 16.5c0 .966-2.798 1.75-6.25 1.75s-6.25-.784-6.25-1.75v-4h12.5z" fill="#f3f3f1"/><path d="m19.25 12.5c0 .966-2.798 1.75-6.25 1.75s-6.25-.784-6.25-1.75v-4h12.5z" fill="#2fdf84"/><ellipse cx="13" cy="8.5" fill="#f3f3f1" rx="6.25" ry="1.75"/><path d="m29.25 28.295c0 .525-.433.955-.962.955h-10.576c-.529 0-.962-.43-.962-.955 0-.181.048-.353.144-.496l5.288-8.591c.163-.277.471-.458.817-.458s.654.181.817.458l5.288 8.591c.098.143.146.315.146.496z" fill="#2fdf84"/><path d="m19 28.295c0-.181.048-.353.144-.496l4.981-8.091-.308-.5c-.163-.277-.471-.458-.817-.458s-.654.181-.817.458l-5.289 8.591c-.096.143-.144.315-.144.496 0 .525.433.955.962.955h2.25c-.529 0-.962-.43-.962-.955z" fill="#00b871"/><path d="m9 16.5v-2.5l-2.25-1.5v4c0 .966 2.798 1.75 6.25 1.75.385 0 .76-.011 1.125-.03-2.914-.148-5.125-.861-5.125-1.72z" fill="#d5dbe1"/><path d="m9 8.5c0-.859 2.211-1.572 5.125-1.72-.365-.019-.74-.03-1.125-.03-3.452 0-6.25.784-6.25 1.75s2.798 1.75 6.25 1.75c.385 0 .76-.011 1.125-.03-2.914-.148-5.125-.861-5.125-1.72z" fill="#d5dbe1"/><path d="m9 20.5v-2.5l-2.25-1.5v4c0 .966 2.798 1.75 6.25 1.75.385 0 .76-.011 1.125-.03-2.914-.148-5.125-.861-5.125-1.72z" fill="#00b871"/><path d="m9 12.5v-2.75l-2.25-1.25v4c0 .966 2.798 1.75 6.25 1.75.385 0 .76-.011 1.125-.03-2.914-.148-5.125-.861-5.125-1.72z" fill="#00b871"/><path d="m28.288 30h-10.576c-.944 0-1.712-.765-1.712-1.705 0-.334.094-.651.272-.916l5.271-8.565c.294-.497.854-.814 1.457-.814s1.163.317 1.464.827l5.28 8.579c.162.239.256.555.256.889 0 .94-.768 1.705-1.712 1.705zm-5.288-10.5c-.088 0-.147.048-.171.089l-5.329 8.706c0 .111.097.205.212.205h10.576c.115 0 .212-.094.212-.205 0-.033-.006-.062-.017-.078l-5.305-8.617c-.031-.052-.09-.1-.178-.1z"/><path d="m22.25 22h1.5v3.5h-1.5z"/><circle cx="23" cy="27.25" r=".75"/><path d="m13 11c-.717 0-7-.07-7-2.5s6.283-2.5 7-2.5 7 .07 7 2.5-6.283 2.5-7 2.5zm-5.436-2.5c.471.401 2.447 1 5.436 1s4.965-.599 5.436-1c-.471-.401-2.447-1-5.436-1s-4.965.599-5.436 1z"/><path d="m13 15c-.717 0-7-.07-7-2.5h1.5c.219.299 2.268 1 5.5 1s5.281-.701 5.521-1.094l1.479.094c0 2.43-6.283 2.5-7 2.5z"/><path d="m13 19c-.717 0-7-.07-7-2.5h1.5c.219.299 2.268 1 5.5 1s5.281-.701 5.521-1.094l1.479.094c0 2.43-6.283 2.5-7 2.5z"/><path d="m18.5 8.5h1.5v9.5h-1.5z"/><path d="m13 23c-.717 0-7-.07-7-2.5v-12h1.5v12c.218.3 2.265 1 5.5 1 1.172 0 2.29-.092 3.233-.267l.273 1.475c-1.031.191-2.244.292-3.506.292z"/></svg>