<svg id="_x31__x2C_5" enable-background="new 0 0 36 36" height="512" viewBox="0 0 36 36" width="512" xmlns="http://www.w3.org/2000/svg"><path d="m4.167 27.623c0-6.917-3.583-11.667-3.583-15s1.916-10.333 17.249-10.333 17.583 9.417 17.583 13.083c.001 17.167-31.249 24.5-31.249 12.25z" fill="#efefef"/><g fill="#a4afc1"><path d="m26.467 4.967h1v2h-1z" transform="matrix(.707 -.707 .707 .707 3.677 20.812)"/><path d="m30.533 9.033h1v2h-1z" transform="matrix(.707 -.707 .707 .707 1.993 24.877)"/><path d="m29.856 5.467h2v1h-2z" transform="matrix(.707 -.707 .707 .707 4.818 23.567)"/></g><path d="m19.25 20.5c0 .966-2.798 1.75-6.25 1.75s-6.25-.784-6.25-1.75v-4h12.5z" fill="#2fdf84"/><path d="m19.25 16.5c0 .966-2.798 1.75-6.25 1.75s-6.25-.784-6.25-1.75v-4h12.5z" fill="#f3f3f1"/><path d="m19.25 12.5c0 .966-2.798 1.75-6.25 1.75s-6.25-.784-6.25-1.75v-4h12.5z" fill="#2fdf84"/><ellipse cx="13" cy="8.5" fill="#f3f3f1" rx="6.25" ry="1.75"/><path d="m9 16.5v-2.5l-2.25-1.5v4c0 .966 2.798 1.75 6.25 1.75.385 0 .76-.011 1.125-.03-2.914-.148-5.125-.861-5.125-1.72z" fill="#d5dbe1"/><path d="m9 8.5c0-.859 2.211-1.572 5.125-1.72-.365-.019-.74-.03-1.125-.03-3.452 0-6.25.784-6.25 1.75s2.798 1.75 6.25 1.75c.385 0 .76-.011 1.125-.03-2.914-.148-5.125-.861-5.125-1.72z" fill="#d5dbe1"/><path d="m9 20.5v-2.5l-2.25-1.5v4c0 .966 2.798 1.75 6.25 1.75.385 0 .76-.011 1.125-.03-2.914-.148-5.125-.861-5.125-1.72z" fill="#00b871"/><path d="m9 12.5v-2.75l-2.25-1.25v4c0 .966 2.798 1.75 6.25 1.75.385 0 .76-.011 1.125-.03-2.914-.148-5.125-.861-5.125-1.72z" fill="#00b871"/><path d="m26.875 25.75h-2.125c-.414 0-.75-.336-.75-.75v-2.75c0-.414.336-.75.75-.75h2.125c1.172 0 2.125.953 2.125 2.125s-.953 2.125-2.125 2.125zm-1.375-1.5h1.375c.345 0 .625-.28.625-.625s-.28-.625-.625-.625h-1.375z"/><path d="m27.875 28.5h-3.125c-.414 0-.75-.336-.75-.75v-2.75c0-.414.336-.75.75-.75h3.125c1.172 0 2.125.953 2.125 2.125s-.953 2.125-2.125 2.125zm-2.375-1.5h2.375c.345 0 .625-.28.625-.625s-.28-.625-.625-.625h-2.375z"/><path d="m25.5 20h1.5v2.75h-1.5z"/><path d="m25.5 27.25h1.5v2.75h-1.5z"/><path d="m13 11c-.717 0-7-.07-7-2.5s6.283-2.5 7-2.5 7 .07 7 2.5-6.283 2.5-7 2.5zm-5.436-2.5c.471.401 2.447 1 5.436 1s4.965-.599 5.436-1c-.471-.401-2.447-1-5.436-1s-4.965.599-5.436 1z"/><path d="m13 15c-.717 0-7-.07-7-2.5h1.5c.219.299 2.268 1 5.5 1s5.281-.701 5.521-1.094l1.479.094c0 2.43-6.283 2.5-7 2.5z"/><path d="m13 19c-.717 0-7-.07-7-2.5h1.5c.219.299 2.268 1 5.5 1s5.281-.701 5.521-1.094l1.479.094c0 2.43-6.283 2.5-7 2.5z"/><path d="m13 23c-.717 0-7-.07-7-2.5v-12h1.5v12c.219.299 2.267 1 5.5 1s5.281-.701 5.521-1.094l-.021-11.906h1.5v12c0 2.43-6.283 2.5-7 2.5z"/></svg>