<svg id="_x31__x2C_5" enable-background="new 0 0 36 36" height="512" viewBox="0 0 36 36" width="512" xmlns="http://www.w3.org/2000/svg"><path d="m27.623 31.833c-6.917 0-11.667 3.583-15 3.583s-10.333-1.916-10.333-17.249 9.417-17.584 13.083-17.584c17.167 0 24.5 31.25 12.25 31.25z" fill="#efefef"/><path d="m28.5 11c-.827 0-1.5-.673-1.5-1.5s.673-1.5 1.5-1.5 1.5.673 1.5 1.5-.673 1.5-1.5 1.5zm0-2c-.276 0-.5.225-.5.5s.224.5.5.5.5-.225.5-.5-.224-.5-.5-.5z" fill="#a4afc1"/><path d="m19.25 20.5c0 .966-2.798 1.75-6.25 1.75s-6.25-.784-6.25-1.75v-4h12.5z" fill="#2fdf84"/><path d="m19.25 16.5c0 .966-2.798 1.75-6.25 1.75s-6.25-.784-6.25-1.75v-4h12.5z" fill="#f3f3f1"/><path d="m19.25 12.5c0 .966-2.798 1.75-6.25 1.75s-6.25-.784-6.25-1.75v-4h12.5z" fill="#2fdf84"/><ellipse cx="13" cy="8.5" fill="#f3f3f1" rx="6.25" ry="1.75"/><ellipse cx="23" cy="24.25" fill="#2fdf84" rx="3.947" ry="5"/><path d="m24.675 19.25c.36-.265.575-.615.575-1 0-.83-1.005-1.5-2.25-1.5s-2.25.67-2.25 1.5c0 .385.215.735.575 1z" fill="#2fdf84"/><path d="m21.303 24.25c0-2.263 1.194-4.152 2.822-4.769-.359-.136-.731-.231-1.125-.231-2.18 0-3.947 2.239-3.947 5s1.767 5 3.947 5c.394 0 .766-.095 1.125-.231-1.628-.617-2.822-2.506-2.822-4.769z" fill="#00b871"/><path d="m23 18.25c0-.555.455-1.033 1.125-1.293-.332-.128-.713-.207-1.125-.207-1.245 0-2.25.67-2.25 1.5 0 .385.215.735.575 1h2.25c-.36-.265-.575-.615-.575-1z" fill="#00b871"/><path d="m9 16.5v-2.5l-2.25-1.5v4c0 .966 2.798 1.75 6.25 1.75.385 0 .76-.011 1.125-.03-2.914-.148-5.125-.861-5.125-1.72z" fill="#d5dbe1"/><path d="m9 8.5c0-.859 2.211-1.572 5.125-1.72-.365-.019-.74-.03-1.125-.03-3.452 0-6.25.784-6.25 1.75s2.798 1.75 6.25 1.75c.385 0 .76-.011 1.125-.03-2.914-.148-5.125-.861-5.125-1.72z" fill="#d5dbe1"/><path d="m9 20.5v-2.5l-2.25-1.5v4c0 .966 2.798 1.75 6.25 1.75.385 0 .76-.011 1.125-.03-2.914-.148-5.125-.861-5.125-1.72z" fill="#00b871"/><path d="m9 12.5v-2.75l-2.25-1.25v4c0 .966 2.798 1.75 6.25 1.75.385 0 .76-.011 1.125-.03-2.914-.148-5.125-.861-5.125-1.72z" fill="#00b871"/><path d="m13 11c-.716 0-7-.07-7-2.5s6.284-2.5 7-2.5 7 .07 7 2.5-6.284 2.5-7 2.5zm-5.436-2.5c.47.4 2.446 1 5.436 1s4.966-.6 5.436-1c-.47-.4-2.446-1-5.436-1s-4.966.6-5.436 1z"/><path d="m13 15c-.716 0-7-.07-7-2.5h1.5c.218.299 2.267 1 5.5 1s5.282-.701 5.52-1.094l1.48.094c0 2.43-6.284 2.5-7 2.5z"/><path d="m13 19c-.716 0-7-.07-7-2.5h1.5c0-.049-.014-.083-.02-.093.238.393 2.285 1.093 5.52 1.093.332 0 .654-.01.967-.02l.046 1.5c-.327.01-.665.02-1.013.02z"/><path d="m18.5 8.5h1.5v5.5h-1.5z"/><path d="m13 23c-.716 0-7-.07-7-2.5v-12h1.5v12c.218.3 2.265 1 5.5 1 .177 0 .364 0 .542-.009l.077 1.498c-.203.011-.416.011-.619.011z"/><path d="m23 30c-2.59 0-4.697-2.579-4.697-5.75s2.107-5.75 4.697-5.75 4.697 2.579 4.697 5.75-2.107 5.75-4.697 5.75zm0-10c-1.763 0-3.197 1.906-3.197 4.25s1.434 4.25 3.197 4.25 3.197-1.906 3.197-4.25-1.434-4.25-3.197-4.25z"/><path d="m26.5 23h3.5v1.5h-3.5z"/><path d="m16 23h3.5v1.5h-3.5z"/><path d="m17.38 27.105h3.291v1.5h-3.291z" transform="matrix(.776 -.631 .631 .776 -13.308 18.242)"/><path d="m25.109 19.49h3.551v1.5h-3.551z" transform="matrix(.765 -.644 .644 .765 -6.718 22.06)"/><path d="m18.365 18.465h1.5v3.551h-1.5z" transform="matrix(.644 -.765 .765 .644 -8.679 21.839)"/><path d="m26.225 26.21h1.5v3.291h-1.5z" transform="matrix(.631 -.776 .776 .631 -11.654 31.226)"/><path d="m25.119 19.854-.888-1.209c.101-.074.269-.224.269-.396 0-.306-.584-.75-1.5-.75s-1.5.444-1.5.75c0 .172.168.321.269.396l-.888 1.209c-.568-.416-.881-.987-.881-1.604 0-1.262 1.318-2.25 3-2.25s3 .988 3 2.25c0 .617-.313 1.188-.881 1.604z"/><path d="m22.25 19.511h1.5v9.489h-1.5z"/></svg>