<svg id="_x31__x2C_5" enable-background="new 0 0 36 36" height="512" viewBox="0 0 36 36" width="512" xmlns="http://www.w3.org/2000/svg"><path d="m27.623 4.167c-6.917 0-11.667-3.583-15-3.583s-10.333 1.916-10.333 17.249 9.417 17.583 13.083 17.583c17.167.001 24.5-31.249 12.25-31.249z" fill="#efefef"/><path d="m27.875 7h1v2h-1z" fill="#a4afc1"/><path d="m30.125 10h2v1h-2z" fill="#a4afc1"/><path d="m19.25 20.5c0 .966-2.798 1.75-6.25 1.75s-6.25-.784-6.25-1.75v-4h12.5z" fill="#2fdf84"/><path d="m19.25 16.5c0 .966-2.798 1.75-6.25 1.75s-6.25-.784-6.25-1.75v-4h12.5z" fill="#f3f3f1"/><path d="m19.25 12.5c0 .966-2.798 1.75-6.25 1.75s-6.25-.784-6.25-1.75v-4h12.5z" fill="#2fdf84"/><ellipse cx="13" cy="8.5" fill="#f3f3f1" rx="6.25" ry="1.75"/><path d="m24 29.25s5.25-2.232 5.25-6.696c0-1.786 0-4.018 0-4.018l-5.25-1.786-5.25 1.786v4.018c0 4.464 5.25 6.696 5.25 6.696z" fill="#2fdf84"/><path d="m21 22.554c0-2.679 0-4.018 0-4.018l4.125-1.403-1.125-.383-5.25 1.786v4.018c0 4.464 5.25 6.696 5.25 6.696s.471-.203 1.125-.599c-1.542-.934-4.125-2.963-4.125-6.097z" fill="#00b871"/><path d="m9 16.5v-2.5l-2.25-1.5v4c0 .966 2.798 1.75 6.25 1.75.385 0 .76-.011 1.125-.03-2.914-.148-5.125-.861-5.125-1.72z" fill="#d5dbe1"/><path d="m9 8.5c0-.859 2.211-1.572 5.125-1.72-.365-.019-.74-.03-1.125-.03-3.452 0-6.25.784-6.25 1.75s2.798 1.75 6.25 1.75c.385 0 .76-.011 1.125-.03-2.914-.148-5.125-.861-5.125-1.72z" fill="#d5dbe1"/><path d="m9 20.5v-2.5l-2.25-1.5v4c0 .966 2.798 1.75 6.25 1.75.385 0 .76-.011 1.125-.03-2.914-.148-5.125-.861-5.125-1.72z" fill="#00b871"/><path d="m9 12.5v-2.75l-2.25-1.25v4c0 .966 2.798 1.75 6.25 1.75.385 0 .76-.011 1.125-.03-2.914-.148-5.125-.861-5.125-1.72z" fill="#00b871"/><path d="m24 30c-.1 0-.199-.02-.293-.06-.233-.099-5.707-2.482-5.707-7.386v-4.018c0-.321.204-.606.509-.71l5.25-1.786c.156-.054.326-.054.482 0l5.25 1.786c.305.103.509.388.509.71v4.018c0 4.904-5.474 7.288-5.707 7.387-.094.039-.193.059-.293.059zm-4.5-10.927v3.481c0 3.348 3.455 5.341 4.499 5.866 1.042-.528 4.501-2.531 4.501-5.866v-3.481l-4.5-1.531z"/><path d="m23.75 25.5c-.198 0-.39-.079-.53-.22l-2-2 1.061-1.061 1.389 1.389 2.48-3.308 1.199.9-3 4c-.13.174-.329.283-.547.298-.017.002-.034.002-.052.002z"/><path d="m13 11c-.717 0-7-.07-7-2.5s6.283-2.5 7-2.5 7 .07 7 2.5-6.283 2.5-7 2.5zm-5.436-2.5c.471.401 2.447 1 5.436 1s4.965-.599 5.436-1c-.471-.401-2.447-1-5.436-1s-4.965.599-5.436 1z"/><path d="m13 15c-.717 0-7-.07-7-2.5h1.5c.219.299 2.268 1 5.5 1s5.281-.701 5.521-1.094l1.479.094c0 2.43-6.283 2.5-7 2.5z"/><path d="m13 19c-.717 0-7-.07-7-2.5h1.5c0-.049-.015-.083-.02-.092.238.392 2.285 1.092 5.52 1.092.781 0 1.517-.039 2.185-.115l.17 1.49c-.724.083-1.516.125-2.355.125z"/><path d="m18.5 8.5h1.5v7.5h-1.5z"/><path d="m13 23c-.717 0-7-.07-7-2.5v-12h1.5v12c.218.3 2.265 1 5.5 1 .737 0 1.469-.036 2.176-.106l.148 1.492c-.756.076-1.537.114-2.324.114z"/></svg>