<svg id="_x31__x2C_5" enable-background="new 0 0 36 36" height="512" viewBox="0 0 36 36" width="512" xmlns="http://www.w3.org/2000/svg"><path d="m31.833 8.377c0 6.917 3.583 11.667 3.583 15s-1.916 10.333-17.249 10.333-17.584-9.417-17.584-13.083c0-17.167 31.25-24.5 31.25-12.25z" fill="#efefef"/><path d="m28.467 1.967h1v2h-1z" fill="#a4afc1" transform="matrix(.707 -.707 .707 .707 6.386 21.352)"/><path d="m32.533 6.033h1v2h-1z" fill="#a4afc1" transform="matrix(.707 -.707 .707 .707 4.702 25.418)"/><path d="m31.856 2.467h2v1h-2z" fill="#a4afc1" transform="matrix(.707 -.707 .707 .707 7.525 24.102)"/><path d="m11.75 23.5c0 .966 2.798 1.75 6.25 1.75s6.25-.784 6.25-1.75v-4h-12.5z" fill="#2fdf84"/><path d="m11.75 19.5c0 .966 2.798 1.75 6.25 1.75s6.25-.784 6.25-1.75v-4h-12.5z" fill="#f3f3f1"/><path d="m11.75 15.5c0 .966 2.798 1.75 6.25 1.75s6.25-.784 6.25-1.75v-4h-12.5z" fill="#2fdf84"/><circle cx="8.5" cy="8.5" fill="#2fdf84" r="1.75"/><circle cx="27.5" cy="8.5" fill="#2fdf84" r="1.75"/><circle cx="8.5" cy="27.5" fill="#2fdf84" r="1.75"/><circle cx="27.5" cy="27.5" fill="#2fdf84" r="1.75"/><ellipse cx="18" cy="11.5" fill="#f3f3f1" rx="6.25" ry="1.75"/><path d="m14 19.5v-2.5l-2.25-1.5v4c0 .966 2.798 1.75 6.25 1.75.385 0 .76-.011 1.125-.03-2.914-.148-5.125-.861-5.125-1.72z" fill="#d5dbe1"/><path d="m14 11.5c0-.859 2.211-1.572 5.125-1.72-.365-.019-.74-.03-1.125-.03-3.452 0-6.25.784-6.25 1.75s2.798 1.75 6.25 1.75c.385 0 .76-.011 1.125-.03-2.914-.148-5.125-.861-5.125-1.72z" fill="#d5dbe1"/><g fill="#00b871"><path d="m14 23.5v-3l-2.25-1v4c0 .966 2.798 1.75 6.25 1.75.385 0 .76-.011 1.125-.03-2.914-.148-5.125-.861-5.125-1.72z"/><path d="m14 15.5v-3l-2.25-1v4c0 .966 2.798 1.75 6.25 1.75.385 0 .76-.011 1.125-.03-2.914-.148-5.125-.861-5.125-1.72z"/><path d="m9 8.5c0-.536.246-1.009.625-1.33-.305-.258-.694-.42-1.125-.42-.966 0-1.75.784-1.75 1.75s.784 1.75 1.75 1.75c.431 0 .82-.162 1.125-.42-.379-.321-.625-.794-.625-1.33z"/><path d="m28 8.5c0-.536.246-1.009.625-1.33-.305-.258-.694-.42-1.125-.42-.966 0-1.75.784-1.75 1.75s.784 1.75 1.75 1.75c.431 0 .82-.162 1.125-.42-.379-.321-.625-.794-.625-1.33z"/><path d="m9 27.5c0-.536.246-1.009.625-1.33-.305-.258-.694-.42-1.125-.42-.966 0-1.75.784-1.75 1.75s.784 1.75 1.75 1.75c.431 0 .82-.162 1.125-.42-.379-.321-.625-.794-.625-1.33z"/><path d="m28 27.5c0-.536.246-1.009.625-1.33-.305-.258-.694-.42-1.125-.42-.966 0-1.75.784-1.75 1.75s.784 1.75 1.75 1.75c.431 0 .82-.162 1.125-.42-.379-.321-.625-.794-.625-1.33z"/></g><path d="m24.026 10.015h2.418v1.5h-2.418z" transform="matrix(.707 -.707 .707 .707 -.221 20.997)"/><path d="m9.556 24.485h2.418v1.5h-2.418z" transform="matrix(.707 -.707 .707 .707 -14.691 15.003)"/><path d="m24.485 24.026h1.5v2.418h-1.5z" transform="matrix(.707 -.707 .707 .707 -10.453 25.235)"/><path d="m10.015 9.556h1.5v2.418h-1.5z" transform="matrix(.707 -.707 .707 .707 -4.459 10.765)"/><path d="m8.5 11c-1.378 0-2.5-1.122-2.5-2.5s1.122-2.5 2.5-2.5 2.5 1.122 2.5 2.5-1.122 2.5-2.5 2.5zm0-3.5c-.551 0-1 .449-1 1s.449 1 1 1 1-.449 1-1-.449-1-1-1z"/><path d="m27.5 11c-1.378 0-2.5-1.122-2.5-2.5s1.122-2.5 2.5-2.5 2.5 1.122 2.5 2.5-1.122 2.5-2.5 2.5zm0-3.5c-.551 0-1 .449-1 1s.449 1 1 1 1-.449 1-1-.449-1-1-1z"/><path d="m8.5 30c-1.378 0-2.5-1.122-2.5-2.5s1.122-2.5 2.5-2.5 2.5 1.122 2.5 2.5-1.122 2.5-2.5 2.5zm0-3.5c-.551 0-1 .449-1 1s.449 1 1 1 1-.449 1-1-.449-1-1-1z"/><path d="m27.5 30c-1.378 0-2.5-1.122-2.5-2.5s1.122-2.5 2.5-2.5 2.5 1.122 2.5 2.5-1.122 2.5-2.5 2.5zm0-3.5c-.551 0-1 .449-1 1s.449 1 1 1 1-.449 1-1-.449-1-1-1z"/><path d="m18 14c-.716 0-7-.07-7-2.5s6.284-2.5 7-2.5 7 .07 7 2.5-6.284 2.5-7 2.5zm-5.436-2.5c.471.401 2.447 1 5.436 1s4.965-.599 5.436-1c-.471-.401-2.447-1-5.436-1s-4.965.599-5.436 1z"/><path d="m18 18c-.716 0-7-.07-7-2.5h1.5c.218.299 2.268 1 5.5 1s5.282-.701 5.521-1.094l1.479.094c0 2.43-6.284 2.5-7 2.5z"/><path d="m18 22c-.716 0-7-.07-7-2.5h1.5c.218.299 2.268 1 5.5 1s5.282-.701 5.521-1.094l1.479.094c0 2.43-6.284 2.5-7 2.5z"/><path d="m18 26c-.716 0-7-.07-7-2.5v-12h1.5v12c.218.299 2.268 1 5.5 1s5.282-.701 5.521-1.094l-.021-11.906h1.5v12c0 2.43-6.284 2.5-7 2.5z"/></svg>