<svg id="_x31__x2C_5" enable-background="new 0 0 36 36" height="512" viewBox="0 0 36 36" width="512" xmlns="http://www.w3.org/2000/svg"><path d="m8.377 4.167c6.917 0 11.667-3.583 15-3.583s10.333 1.916 10.333 17.249-9.417 17.583-13.083 17.583c-17.167.001-24.5-31.249-12.25-31.249z" fill="#efefef"/><g fill="#a4afc1"><path d="m31.533 14.033h1v2h-1z" transform="matrix(.707 -.707 .707 .707 -1.25 27.048)"/><path d="m27.467 9.967h1v2h-1z" transform="matrix(.707 -.707 .707 .707 .434 22.983)"/><path d="m31.033 10.644h2v1h-2z" transform="matrix(.707 -.707 .707 .707 1.503 25.915)"/></g><path d="m19.25 20.5c0 .966-2.798 1.75-6.25 1.75s-6.25-.784-6.25-1.75v-4h12.5z" fill="#2fdf84"/><path d="m19.25 16.5c0 .966-2.798 1.75-6.25 1.75s-6.25-.784-6.25-1.75v-4h12.5z" fill="#f3f3f1"/><path d="m19.25 12.5c0 .966-2.798 1.75-6.25 1.75s-6.25-.784-6.25-1.75v-4h12.5z" fill="#2fdf84"/><ellipse cx="13" cy="8.5" fill="#f3f3f1" rx="6.25" ry="1.75"/><path d="m21.601 28.58-3.351.67.67-3.351 7.372-7.372c.37-.37.97-.37 1.34 0l1.34 1.34c.37.37.37.97 0 1.34z" fill="#2fdf84"/><path d="m21.17 25.899 6.917-6.917-.455-.455c-.37-.37-.97-.37-1.34 0l-7.372 7.372-.67 3.351 2.344-.469z" fill="#00b871"/><path d="m9 16.5v-2.5l-2.25-1.5v4c0 .966 2.798 1.75 6.25 1.75.385 0 .76-.011 1.125-.03-2.914-.148-5.125-.861-5.125-1.72z" fill="#d5dbe1"/><path d="m9 8.5c0-.859 2.211-1.572 5.125-1.72-.365-.019-.74-.03-1.125-.03-3.452 0-6.25.784-6.25 1.75s2.798 1.75 6.25 1.75c.385 0 .76-.011 1.125-.03-2.914-.148-5.125-.861-5.125-1.72z" fill="#d5dbe1"/><path d="m9 20.5v-2.5l-2.25-1.5v4c0 .966 2.798 1.75 6.25 1.75.385 0 .76-.011 1.125-.03-2.914-.148-5.125-.861-5.125-1.72z" fill="#00b871"/><path d="m9 12.5v-2.75l-2.25-1.25v4c0 .966 2.798 1.75 6.25 1.75.385 0 .76-.011 1.125-.03-2.914-.148-5.125-.861-5.125-1.72z" fill="#00b871"/><path d="m18.25 30c-.197 0-.389-.078-.53-.22-.178-.177-.254-.432-.205-.677l.67-3.351c.029-.146.101-.279.205-.383l7.372-7.372c.662-.661 1.738-.661 2.4 0l1.341 1.341c.662.662.662 1.739 0 2.401l-7.372 7.372c-.104.105-.238.176-.383.205l-3.351.67c-.049.009-.098.014-.147.014zm1.36-3.731-.404 2.025 2.024-.405 7.212-7.211c.065-.066.065-.214 0-.28l-1.341-1.34c-.076-.076-.203-.077-.279 0z"/><path d="m13 11c-.717 0-7-.07-7-2.5s6.283-2.5 7-2.5 7 .07 7 2.5-6.283 2.5-7 2.5zm-5.436-2.5c.471.401 2.447 1 5.436 1s4.965-.599 5.436-1c-.471-.401-2.447-1-5.436-1s-4.965.599-5.436 1z"/><path d="m13 15c-.717 0-7-.07-7-2.5h1.5c.219.299 2.268 1 5.5 1s5.281-.701 5.521-1.094l1.479.094c0 2.43-6.283 2.5-7 2.5z"/><path d="m13 19c-.717 0-7-.07-7-2.5h1.5c.219.299 2.268 1 5.5 1s5.281-.701 5.521-1.094l1.479.094c0 2.43-6.283 2.5-7 2.5z"/><path d="m13 23c-.717 0-7-.07-7-2.5v-12h1.5v12c.219.299 2.268 1 5.5 1s5.281-.701 5.521-1.094l-.021-11.906h1.5v12c0 2.43-6.283 2.5-7 2.5z"/></svg>