<svg id="_x31__x2C_5" enable-background="new 0 0 36 36" height="512" viewBox="0 0 36 36" width="512" xmlns="http://www.w3.org/2000/svg"><path d="m4.167 8.377c0 6.917-3.583 11.667-3.583 15s1.916 10.333 17.249 10.333 17.583-9.417 17.583-13.083c.001-17.167-31.249-24.5-31.249-12.25z" fill="#efefef"/><path d="m27.5 13c-.827 0-1.5-.673-1.5-1.5s.673-1.5 1.5-1.5 1.5.673 1.5 1.5-.673 1.5-1.5 1.5zm0-2c-.275 0-.5.224-.5.5s.225.5.5.5.5-.224.5-.5-.225-.5-.5-.5z" fill="#a4afc1"/><path d="m19.25 20.5c0 .966-2.798 1.75-6.25 1.75s-6.25-.784-6.25-1.75v-4h12.5z" fill="#2fdf84"/><path d="m19.25 16.5c0 .966-2.798 1.75-6.25 1.75s-6.25-.784-6.25-1.75v-4h12.5z" fill="#f3f3f1"/><path d="m19.25 12.5c0 .966-2.798 1.75-6.25 1.75s-6.25-.784-6.25-1.75v-4h12.5z" fill="#2fdf84"/><ellipse cx="13" cy="8.5" fill="#f3f3f1" rx="6.25" ry="1.75"/><path d="m23.75 24 2.75-5.25 2.75 5.25-2.75 5.25z" fill="#2fdf84"/><path d="m26 24 1.625-3.102-1.125-2.148-2.75 5.25 2.75 5.25 1.125-2.148z" fill="#00b871"/><path d="m9 16.5v-2.5l-2.25-1.5v4c0 .966 2.798 1.75 6.25 1.75.385 0 .76-.011 1.125-.03-2.914-.148-5.125-.861-5.125-1.72z" fill="#d5dbe1"/><path d="m9 8.5c0-.859 2.211-1.572 5.125-1.72-.365-.019-.74-.03-1.125-.03-3.452 0-6.25.784-6.25 1.75s2.798 1.75 6.25 1.75c.385 0 .76-.011 1.125-.03-2.914-.148-5.125-.861-5.125-1.72z" fill="#d5dbe1"/><path d="m9 20.5v-2.5l-2.25-1.5v4c0 .966 2.798 1.75 6.25 1.75.385 0 .76-.011 1.125-.03-2.914-.148-5.125-.861-5.125-1.72z" fill="#00b871"/><path d="m9 12.5v-2.75l-2.25-1.25v4c0 .966 2.798 1.75 6.25 1.75.385 0 .76-.011 1.125-.03-2.914-.148-5.125-.861-5.125-1.72z" fill="#00b871"/><path d="m26.5 26c-.105 0-.212-.022-.311-.067l-2.75-1.25c-.188-.085-.332-.244-.398-.439-.067-.194-.051-.408.045-.591l2.75-5.25c.258-.494 1.07-.494 1.328 0l2.75 5.25c.096.183.112.396.045.591-.066.195-.211.354-.398.439l-2.75 1.25c-.099.045-.206.067-.311.067zm-1.718-2.354 1.718.78 1.718-.78-1.718-3.28z"/><path d="m26.5 30c-.279 0-.535-.155-.664-.402l-2.75-5.25 1.328-.695 2.086 3.981 2.086-3.981 1.328.695-2.75 5.25c-.129.247-.385.402-.664.402z"/><path d="m13 11c-.717 0-7-.07-7-2.5s6.283-2.5 7-2.5 7 .07 7 2.5-6.283 2.5-7 2.5zm-5.436-2.5c.471.401 2.447 1 5.436 1s4.965-.599 5.436-1c-.471-.401-2.447-1-5.436-1s-4.965.599-5.436 1z"/><path d="m13 15c-.717 0-7-.07-7-2.5h1.5c.219.299 2.268 1 5.5 1s5.281-.701 5.521-1.094l1.479.094c0 2.43-6.283 2.5-7 2.5z"/><path d="m13 19c-.717 0-7-.07-7-2.5h1.5c.219.299 2.268 1 5.5 1s5.281-.701 5.521-1.094l1.479.094c0 2.43-6.283 2.5-7 2.5z"/><path d="m13 23c-.717 0-7-.07-7-2.5v-12h1.5v12c.219.299 2.267 1 5.5 1s5.281-.701 5.521-1.094l-.021-11.906h1.5v12c0 2.43-6.283 2.5-7 2.5z"/></svg>