<svg id="_x31__x2C_5" enable-background="new 0 0 36 36" height="512" viewBox="0 0 36 36" width="512" xmlns="http://www.w3.org/2000/svg"><path d="m4.167 27.623c0-6.917-3.583-11.667-3.583-15s1.916-10.333 17.249-10.333 17.583 9.417 17.583 13.083c.001 17.167-31.249 24.5-31.249 12.25z" fill="#efefef"/><path d="m32.5 16c-.827 0-1.5-.673-1.5-1.5s.673-1.5 1.5-1.5 1.5.673 1.5 1.5-.673 1.5-1.5 1.5zm0-2c-.276 0-.5.225-.5.5s.224.5.5.5.5-.225.5-.5-.224-.5-.5-.5z" fill="#a4afc1"/><path d="m19.25 13v4.5c-1.24.16-2.69.25-4.25.25s-3.01-.09-4.25-.25v-4.5z" fill="#f3f3f1"/><path d="m6.75 8.5v4c0 .966 3.694 1.75 8.25 1.75s8.25-.784 8.25-1.75v-4z" fill="#2fdf84"/><g fill="#f3f3f1"><ellipse cx="15" cy="8.5" rx="8.25" ry="1.75"/><path d="m23.25 16v4c0 .966-3.694 1.75-8.25 1.75s-8.25-.784-8.25-1.75v-4c0 .97 3.69 1.75 8.25 1.75s8.25-.78 8.25-1.75z"/><path d="m19.25 20.5v4.5c-1.24.16-2.69.25-4.25.25s-3.01-.09-4.25-.25v-4.5z"/></g><path d="m23.25 23.5v4c0 .966-3.694 1.75-8.25 1.75s-8.25-.784-8.25-1.75v-4c0 .97 3.69 1.75 8.25 1.75s8.25-.78 8.25-1.75z" fill="#2fdf84"/><path d="m22.25 6.75v15.01c-.92.77-1.5 1.94-1.5 3.24 0 2.35 1.9 4.25 4.25 4.25s4.25-1.9 4.25-4.25c0-1.3-.58-2.47-1.5-3.24v-15.01z" fill="#2fdf84"/><path d="m23 25c0-1.3.58-2.47 1.5-3.24v-15.01h-2.25v15.01c-.92.77-1.5 1.94-1.5 3.24 0 2.35 1.9 4.25 4.25 4.25.392 0 .765-.07 1.125-.169-1.799-.495-3.125-2.123-3.125-4.081z" fill="#00b871"/><path d="m12.75 17.5v-3.5h-2.25v3.5c1.24.16 2.25 0 2.25 0z" fill="#d5dbe1"/><path d="m8.75 8.5c0-.885 3.102-1.615 7.125-1.732-.369-.011-.742-.018-1.125-.018-4.556 0-8.25.784-8.25 1.75s3.694 1.75 8.25 1.75c.383 0 .756-.007 1.125-.018-4.023-.117-7.125-.847-7.125-1.732z" fill="#d5dbe1"/><path d="m8.75 20v-2.8c-1.392-.313-2.25-.734-2.25-1.2v4c0 .966 3.694 1.75 8.25 1.75.383 0 .756-.007 1.125-.018-4.023-.117-7.125-.847-7.125-1.732z" fill="#d5dbe1"/><path d="m8.75 27.5v-2.8c-1.392-.313-2.25-.734-2.25-1.2v4c0 .966 3.694 1.75 8.25 1.75.383 0 .756-.007 1.125-.018-4.023-.117-7.125-.847-7.125-1.732z" fill="#00b871"/><path d="m8.75 12.5v-2.75l-2.25-1.25v4c0 .966 3.694 1.75 8.25 1.75.383 0 .756-.007 1.125-.018-4.023-.117-7.125-.847-7.125-1.732z" fill="#00b871"/><path d="m20 6h10v1.5h-10z"/><path d="m24.25 11h1.5v14h-1.5z"/><path d="m15 11c-1.503 0-9-.12-9-2.5s7.497-2.5 9-2.5c1.326 0 2.614.065 3.829.194l-.158 1.492c-1.163-.123-2.398-.186-3.671-.186-4.01 0-6.512.587-7.306 1 .794.413 3.296 1 7.306 1 1.273 0 2.508-.063 3.671-.187l.158 1.492c-1.215.13-2.503.195-3.829.195z"/><path d="m15 18.5c-1.503 0-9-.12-9-2.5 0-.411 0-1.662 4.657-2.244l.186 1.488c-1.808.226-2.739.546-3.145.758.797.413 3.298.998 7.302.998 1.273 0 2.508-.063 3.671-.187l.158 1.492c-1.215.13-2.503.195-3.829.195z"/><path d="m15 15c-1.503 0-9-.12-9-2.5v-4h1.5v3.876c.476.407 3.066 1.124 7.5 1.124 1.273 0 2.508-.063 3.671-.187l.158 1.492c-1.215.13-2.503.195-3.829.195z"/><path d="m15 22.5c-1.503 0-9-.12-9-2.5v-4h1.5v3.876c.476.407 3.066 1.124 7.5 1.124 1.047 0 2.042-.039 2.957-.117l.127 1.494c-.957.082-1.995.123-3.084.123z"/><path d="m15 26c-1.503 0-9-.12-9-2.5 0-.411 0-1.662 4.657-2.244l.186 1.488c-1.808.226-2.739.546-3.145.758.797.413 3.298.998 7.302.998 1.273 0 2.508-.063 3.671-.187l.158 1.492c-1.215.13-2.503.195-3.829.195z"/><path d="m15 30c-1.503 0-9-.12-9-2.5v-4h1.5v3.876c.476.407 3.066 1.124 7.5 1.124 1.047 0 2.042-.039 2.957-.117l.127 1.494c-.957.082-1.995.123-3.084.123z"/><path d="m10 21.52h1.5v3.25h-1.5z"/><path d="m10 14.02h1.5v3.25h-1.5z"/><path d="m25 30c-2.757 0-5-2.243-5-5 0-1.361.542-2.644 1.5-3.573v-14.677h1.5v15.01c0 .222-.098.433-.269.575-.782.655-1.231 1.627-1.231 2.665 0 1.93 1.57 3.5 3.5 3.5s3.5-1.57 3.5-3.5c0-1.038-.449-2.01-1.231-2.665-.171-.143-.269-.354-.269-.575v-15.01h1.5v14.677c.958.929 1.5 2.212 1.5 3.573 0 2.757-2.243 5-5 5z"/></svg>