<svg id="_x31__x2C_5" enable-background="new 0 0 36 36" height="512" viewBox="0 0 36 36" width="512" xmlns="http://www.w3.org/2000/svg"><path d="m8.377 4.167c6.917 0 11.667-3.583 15-3.583s10.333 1.916 10.333 17.249-9.417 17.583-13.083 17.583c-17.167.001-24.5-31.249-12.25-31.249z" fill="#efefef"/><path d="m25.625 9.25h1v2h-1z" fill="#a4afc1"/><path d="m27.875 12.25h2v1h-2z" fill="#a4afc1"/><path d="m19.25 20.5c0 .966-2.798 1.75-6.25 1.75s-6.25-.784-6.25-1.75v-4h12.5z" fill="#2fdf84"/><path d="m19.25 16.5c0 .966-2.798 1.75-6.25 1.75s-6.25-.784-6.25-1.75v-4h12.5z" fill="#f3f3f1"/><path d="m19.25 12.5c0 .966-2.798 1.75-6.25 1.75s-6.25-.784-6.25-1.75v-4h12.5z" fill="#2fdf84"/><ellipse cx="13" cy="8.5" fill="#f3f3f1" rx="6.25" ry="1.75"/><path d="m27.34 22.75h-2.5s.47-.7.47-1.87c0-1.4-.7-2.11-1.17-2.11-.46 0-.95.48-.95 1.65 0 1.228-1.447 2.401-2.091 2.833-.174-.295-.481-.503-.849-.503h-.5c-.552 0-1 .448-1 1v4.5c0 .552.448 1 1 1h.5c.55 0 1-.45 1-1v-.01c.56.32 2.31 1.01 4.99 1.01h.51c.94 0 1.79-.68 1.94-1.6.01 0 .56-2.72.56-2.99 0-1.03-.84-1.91-1.91-1.91z" fill="#2fdf84"/><path d="m9 16.5v-2.75l-2.25-1.25v4c0 .966 2.798 1.75 6.25 1.75.385 0 .76-.011 1.125-.03-2.914-.148-5.125-.861-5.125-1.72z" fill="#d5dbe1"/><path d="m9 8.5c0-.859 2.211-1.572 5.125-1.72-.365-.019-.74-.03-1.125-.03-3.452 0-6.25.784-6.25 1.75s2.798 1.75 6.25 1.75c.385 0 .76-.011 1.125-.03-2.914-.148-5.125-.861-5.125-1.72z" fill="#d5dbe1"/><g fill="#00b871"><path d="m9 20.5v-2.75l-2.25-1.25v4c0 .966 2.798 1.75 6.25 1.75.385 0 .76-.011 1.125-.03-2.914-.148-5.125-.861-5.125-1.72z"/><path d="m9 12.5v-2.75l-2.25-1.25v4c0 .966 2.798 1.75 6.25 1.75.385 0 .76-.011 1.125-.03-2.914-.148-5.125-.861-5.125-1.72z"/><path d="m22 22.75h.5c.368 0 .675.208.849.503.528-.354 1.585-1.21 1.952-2.182.003-.064.009-.124.009-.191 0-1.4-.7-2.11-1.17-2.11-.46 0-.95.48-.95 1.65 0 .929-.827 1.825-1.51 2.395.102-.035.207-.065.32-.065z"/><path d="m21 28.25v-4.5c0-.216.083-.404.199-.568-.032.023-.071.051-.1.071-.174-.295-.481-.503-.849-.503h-.5c-.552 0-1 .448-1 1v4.5c0 .552.448 1 1 1h.5c.383 0 .707-.225.875-.543-.073-.139-.125-.289-.125-.457z"/></g><path d="m13 11c-.716 0-7-.07-7-2.5s6.284-2.5 7-2.5 7 .07 7 2.5-6.284 2.5-7 2.5zm-5.436-2.5c.471.401 2.447 1 5.436 1s4.965-.599 5.436-1c-.471-.401-2.447-1-5.436-1s-4.965.599-5.436 1z"/><path d="m13 15c-.716 0-7-.07-7-2.5h1.5c.218.299 2.268 1 5.5 1s5.282-.701 5.521-1.094l1.479.094c0 2.43-6.284 2.5-7 2.5z"/><path d="m13 19c-.716 0-7-.07-7-2.5h1.5c.218.299 2.268 1 5.5 1s5.282-.701 5.521-1.094l1.479.094c0 2.43-6.284 2.5-7 2.5z"/><path d="m18.5 8.5h1.5v11.5h-1.5z"/><path d="m13 23c-.716 0-7-.07-7-2.5v-12h1.5v12c.217.3 2.265 1 5.5 1 .886 0 1.742-.05 2.474-.144l.191 1.488c-.806.104-1.703.156-2.665.156z"/><path d="m20.25 30h-.5c-.965 0-1.75-.785-1.75-1.75v-4.5c0-.965.785-1.75 1.75-1.75h.5c.965 0 1.75.785 1.75 1.75v4.5c0 .965-.785 1.75-1.75 1.75zm-.5-6.5c-.138 0-.25.112-.25.25v4.5c0 .138.112.25.25.25h.5c.136 0 .25-.114.25-.25v-4.5c0-.138-.112-.25-.25-.25z"/><path d="m26.75 30h-.51c-2.759 0-4.387-.694-5.112-1.108l.744-1.303c.479.274 1.865.911 4.368.911h.51c.584 0 1.111-.426 1.2-.971.005-.029.011-.058.019-.086.072-.31.509-2.511.532-2.811-.001-.611-.522-1.132-1.161-1.132h-2.5c-.277 0-.532-.153-.662-.397s-.115-.541.039-.771.343-.551.343-1.452c0-.897-.353-1.317-.481-1.368.042.029-.139.259-.139.908 0 1.674-1.624 2.87-2.322 3.306l-.795-1.272c.782-.488 1.617-1.279 1.617-2.034 0-1.658.854-2.4 1.7-2.4.944 0 1.92 1.07 1.92 2.86 0 .427-.053.803-.127 1.12h1.407c1.467 0 2.66 1.193 2.66 2.66 0 .093 0 .248-.29 1.739-.124.638-.208 1.073-.291 1.369l.011.002c-.207 1.272-1.359 2.23-2.68 2.23z"/></svg>