<svg id="_x31__x2C_5" enable-background="new 0 0 36 36" height="512" viewBox="0 0 36 36" width="512" xmlns="http://www.w3.org/2000/svg"><path d="m8.377 4.167c6.917 0 11.667-3.583 15-3.583s10.333 1.916 10.333 17.249-9.417 17.583-13.083 17.583c-17.167.001-24.5-31.249-12.25-31.249z" fill="#efefef"/><path d="m28.5 15c-.827 0-1.5-.673-1.5-1.5s.673-1.5 1.5-1.5 1.5.673 1.5 1.5-.673 1.5-1.5 1.5zm0-2c-.275 0-.5.225-.5.5s.225.5.5.5.5-.225.5-.5-.225-.5-.5-.5z" fill="#a4afc1"/><path d="m19.25 20.5c0 .966-2.798 1.75-6.25 1.75s-6.25-.784-6.25-1.75v-4h12.5z" fill="#2fdf84"/><path d="m19.25 16.5c0 .966-2.798 1.75-6.25 1.75s-6.25-.784-6.25-1.75v-4h12.5z" fill="#f3f3f1"/><path d="m19.25 12.5c0 .966-2.798 1.75-6.25 1.75s-6.25-.784-6.25-1.75v-4h12.5z" fill="#2fdf84"/><ellipse cx="13" cy="8.5" fill="#f3f3f1" rx="6.25" ry="1.75"/><path d="m9 16.5v-2.5l-2.25-1.5v4c0 .966 2.798 1.75 6.25 1.75.385 0 .76-.011 1.125-.03-2.914-.148-5.125-.861-5.125-1.72z" fill="#d5dbe1"/><path d="m9 8.5c0-.859 2.211-1.572 5.125-1.72-.365-.019-.74-.03-1.125-.03-3.452 0-6.25.784-6.25 1.75s2.798 1.75 6.25 1.75c.385 0 .76-.011 1.125-.03-2.914-.148-5.125-.861-5.125-1.72z" fill="#d5dbe1"/><path d="m9 20.5v-2.5l-2.25-1.5v4c0 .966 2.798 1.75 6.25 1.75.385 0 .76-.011 1.125-.03-2.914-.148-5.125-.861-5.125-1.72z" fill="#00b871"/><path d="m9 12.5v-2.75l-2.25-1.25v4c0 .966 2.798 1.75 6.25 1.75.385 0 .76-.011 1.125-.03-2.914-.148-5.125-.861-5.125-1.72z" fill="#00b871"/><path d="m13 11c-.717 0-7-.07-7-2.5s6.283-2.5 7-2.5 7 .07 7 2.5-6.283 2.5-7 2.5zm-5.436-2.5c.47.4 2.446 1 5.436 1s4.966-.6 5.436-1c-.47-.4-2.446-1-5.436-1s-4.966.6-5.436 1z"/><path d="m13 15c-.717 0-7-.07-7-2.5h1.5c.219.299 2.267 1 5.5 1s5.281-.701 5.521-1.094l1.479.094c0 2.43-6.283 2.5-7 2.5z"/><path d="m13 19c-.717 0-7-.07-7-2.5h1.5c0-.049-.015-.083-.02-.093.238.393 2.286 1.093 5.52 1.093.54 0 1.071-.019 1.572-.058l.115 1.496c-.538.041-1.108.062-1.687.062z"/><path d="m18.5 8.5h1.5v6.5h-1.5z"/><path d="m13 23c-.717 0-7-.07-7-2.5v-12h1.5v12c.218.3 2.266 1 5.5 1 .529 0 1.04-.019 1.531-.058l.117 1.496c-.528.041-1.078.062-1.648.062z"/><path d="m23.242 26.4c-.805 0-1.605-.312-2.217-.926l-3.107-3.126c-.591-.585-.918-1.373-.918-2.214s.327-1.629.922-2.219c1.143-1.17 3.237-1.185 4.423.003l.533.535-1.063 1.059-.533-.535c-.613-.615-1.702-.614-2.296-.005-.316.314-.486.725-.486 1.162s.17.848.479 1.154l3.11 3.129c.595.597 1.532.645 2.184.11l.951 1.16c-.581.477-1.283.713-1.982.713z"/><path d="m26.868 30c-.84 0-1.627-.328-2.216-.926l-.512-.514 1.063-1.059.515.517c.615.623 1.688.62 2.298.003.314-.313.484-.723.484-1.16s-.17-.848-.479-1.154l-3.11-3.129c-.574-.576-1.568-.621-2.181-.113l-.957-1.154c1.186-.983 3.098-.896 4.201.21l3.107 3.126c.592.585.919 1.374.919 2.214s-.327 1.629-.922 2.219c-.583.592-1.37.92-2.21.92z"/></svg>