<svg id="_x31__x2C_5" enable-background="new 0 0 36 36" height="512" viewBox="0 0 36 36" width="512" xmlns="http://www.w3.org/2000/svg"><path d="m8.377 31.833c6.917 0 11.667 3.583 15 3.583s10.333-1.916 10.333-17.249-9.417-17.584-13.083-17.584c-17.167 0-24.5 31.25-12.25 31.25z" fill="#efefef"/><g fill="#a4afc1"><path d="m24.467 7.967h1v2h-1z" transform="matrix(.707 -.707 .707 .707 .97 20.276)"/><path d="m28.533 12.033h1v2h-1z" transform="matrix(.707 -.707 .707 .707 -.714 24.342)"/><path d="m27.856 8.467h2v1h-2z" transform="matrix(.707 -.707 .707 .707 2.111 23.031)"/></g><path d="m19.25 20.5c0 .966-2.798 1.75-6.25 1.75s-6.25-.784-6.25-1.75v-4h12.5z" fill="#2fdf84"/><path d="m19.25 16.5c0 .966-2.798 1.75-6.25 1.75s-6.25-.784-6.25-1.75v-4h12.5z" fill="#f3f3f1"/><path d="m19.25 12.5c0 .966-2.798 1.75-6.25 1.75s-6.25-.784-6.25-1.75v-4h12.5z" fill="#2fdf84"/><ellipse cx="13" cy="8.5" fill="#f3f3f1" rx="6.25" ry="1.75"/><path d="m9 16.5v-2.5l-2.25-1.5v4c0 .966 2.798 1.75 6.25 1.75.385 0 .76-.011 1.125-.03-2.914-.148-5.125-.861-5.125-1.72z" fill="#d5dbe1"/><path d="m9 8.5c0-.859 2.211-1.572 5.125-1.72-.365-.019-.74-.03-1.125-.03-3.452 0-6.25.784-6.25 1.75s2.798 1.75 6.25 1.75c.385 0 .76-.011 1.125-.03-2.914-.148-5.125-.861-5.125-1.72z" fill="#d5dbe1"/><path d="m9 20.5v-2.5l-2.25-1.5v4c0 .966 2.798 1.75 6.25 1.75.385 0 .76-.011 1.125-.03-2.914-.148-5.125-.861-5.125-1.72z" fill="#00b871"/><path d="m9 12.5v-2.75l-2.25-1.25v4c0 .966 2.798 1.75 6.25 1.75.385 0 .76-.011 1.125-.03-2.914-.148-5.125-.861-5.125-1.72z" fill="#00b871"/><path d="m13 11c-.717 0-7-.07-7-2.5s6.283-2.5 7-2.5 7 .07 7 2.5-6.283 2.5-7 2.5zm-5.436-2.5c.471.401 2.447 1 5.436 1s4.965-.599 5.436-1c-.471-.401-2.447-1-5.436-1s-4.965.599-5.436 1z"/><path d="m13 15c-.717 0-7-.07-7-2.5h1.5c.219.299 2.268 1 5.5 1s5.281-.701 5.521-1.094l1.479.094c0 2.43-6.283 2.5-7 2.5z"/><path d="m13 19c-.717 0-7-.07-7-2.5h1.5c0-.049-.015-.083-.02-.092.238.392 2.285 1.092 5.52 1.092 1.134 0 2.244-.089 3.21-.259l.26 1.478c-1.051.184-2.25.281-3.47.281z"/><path d="m18.5 8.5h1.5v7.5h-1.5z"/><path d="m13 23c-.717 0-7-.07-7-2.5v-12h1.5v12c.218.3 2.265 1 5.5 1 .944 0 1.89-.063 2.734-.183l.211 1.485c-.913.13-1.931.198-2.945.198z"/><path d="m24 30c-3.309 0-6-2.691-6-6h1.5c0 2.481 2.019 4.5 4.5 4.5s4.5-2.019 4.5-4.5-2.019-4.5-4.5-4.5c-1.385 0-2.615.606-3.466 1.708l-1.188-.916c1.141-1.478 2.794-2.292 4.654-2.292 3.309 0 6 2.691 6 6s-2.691 6-6 6z"/><path d="m22.75 21.75h-3c-.414 0-.75-.336-.75-.75v-3h1.5v2.25h2.25z"/></svg>