<svg id="_x31__x2C_5" enable-background="new 0 0 36 36" height="512" viewBox="0 0 36 36" width="512" xmlns="http://www.w3.org/2000/svg"><path d="m27.623 31.833c-6.917 0-11.667 3.583-15 3.583s-10.333-1.916-10.333-17.249 9.417-17.584 13.083-17.584c17.167 0 24.5 31.25 12.25 31.25z" fill="#efefef"/><path d="m25.625 7.25h1v2h-1z" fill="#a4afc1"/><path d="m27.875 10.25h2v1h-2z" fill="#a4afc1"/><path d="m19.25 20.5c0 .966-2.798 1.75-6.25 1.75s-6.25-.784-6.25-1.75v-4h12.5z" fill="#2fdf84"/><path d="m19.25 16.5c0 .966-2.798 1.75-6.25 1.75s-6.25-.784-6.25-1.75v-4h12.5z" fill="#f3f3f1"/><path d="m19.25 12.5c0 .966-2.798 1.75-6.25 1.75s-6.25-.784-6.25-1.75v-4h12.5z" fill="#2fdf84"/><ellipse cx="13" cy="8.5" fill="#f3f3f1" rx="6.25" ry="1.75"/><path d="m28.25 29.25h-5.5c-.552 0-1-.448-1-1v-3.5c0-.552.448-1 1-1h5.5c.552 0 1 .448 1 1v3.5c0 .552-.448 1-1 1z" fill="#2fdf84"/><path d="m28.25 29.25h-5.5c-.552 0-1-.448-1-1v-3.5c0-.552.448-1 1-1h5.5c.552 0 1 .448 1 1v3.5c0 .552-.448 1-1 1z" fill="#2fdf84"/><path d="m24 28.25v-3.5c0-.552.448-1 1-1h-2.25c-.552 0-1 .448-1 1v3.5c0 .552.448 1 1 1h2.25c-.552 0-1-.448-1-1z" fill="#00b871"/><path d="m9 16.5v-2.5l-2.25-1.5v4c0 .966 2.798 1.75 6.25 1.75.385 0 .76-.011 1.125-.03-2.914-.148-5.125-.861-5.125-1.72z" fill="#d5dbe1"/><path d="m9 8.5c0-.859 2.211-1.572 5.125-1.72-.365-.019-.74-.03-1.125-.03-3.452 0-6.25.784-6.25 1.75s2.798 1.75 6.25 1.75c.385 0 .76-.011 1.125-.03-2.914-.148-5.125-.861-5.125-1.72z" fill="#d5dbe1"/><path d="m9 20.5v-2.5l-2.25-1.5v4c0 .966 2.798 1.75 6.25 1.75.385 0 .76-.011 1.125-.03-2.914-.148-5.125-.861-5.125-1.72z" fill="#00b871"/><path d="m9 12.5v-2.75l-2.25-1.25v4c0 .966 2.798 1.75 6.25 1.75.385 0 .76-.011 1.125-.03-2.914-.148-5.125-.861-5.125-1.72z" fill="#00b871"/><path d="m28.25 30h-5.5c-.965 0-1.75-.785-1.75-1.75v-3.5c0-.965.785-1.75 1.75-1.75h5.5c.965 0 1.75.785 1.75 1.75v3.5c0 .965-.785 1.75-1.75 1.75zm-5.5-5.5c-.138 0-.25.112-.25.25v3.5c0 .138.112.25.25.25h5.5c.138 0 .25-.112.25-.25v-3.5c0-.138-.112-.25-.25-.25z"/><path d="m27.25 24.5h-3.5c-.414 0-.75-.336-.75-.75v-2.25c0-1.378 1.121-2.5 2.5-2.5s2.5 1.122 2.5 2.5v2.25c0 .414-.336.75-.75.75zm-2.75-1.5h2v-1.5c0-.551-.448-1-1-1s-1 .449-1 1z"/><path d="m13 11c-.717 0-7-.07-7-2.5s6.283-2.5 7-2.5 7 .07 7 2.5-6.283 2.5-7 2.5zm-5.436-2.5c.471.401 2.447 1 5.436 1s4.965-.599 5.436-1c-.471-.401-2.447-1-5.436-1s-4.965.599-5.436 1z"/><path d="m13 15c-.717 0-7-.07-7-2.5h1.5c.219.299 2.268 1 5.5 1s5.281-.701 5.521-1.094l1.479.094c0 2.43-6.283 2.5-7 2.5z"/><path d="m13 19c-.717 0-7-.07-7-2.5h1.5c.219.299 2.268 1 5.5 1s5.281-.701 5.521-1.094l1.479.094c0 2.43-6.283 2.5-7 2.5z"/><path d="m13 23c-.717 0-7-.07-7-2.5v-12h1.5v12c.219.299 2.268 1 5.5 1s5.281-.701 5.521-1.094l-.021-11.906h1.5v12c0 2.43-6.283 2.5-7 2.5z"/><path d="m28.25 30h-5.5c-.965 0-1.75-.785-1.75-1.75v-3.5c0-.965.785-1.75 1.75-1.75h5.5c.965 0 1.75.785 1.75 1.75v3.5c0 .965-.785 1.75-1.75 1.75zm-5.5-5.5c-.138 0-.25.112-.25.25v3.5c0 .138.112.25.25.25h5.5c.138 0 .25-.112.25-.25v-3.5c0-.138-.112-.25-.25-.25z"/><path d="m28 23.75h-1.5v-2.25c0-.551-.448-1-1-1s-1 .449-1 1v2.25h-1.5v-2.25c0-1.378 1.121-2.5 2.5-2.5s2.5 1.122 2.5 2.5z"/></svg>