<svg id="_x31__x2C_5" enable-background="new 0 0 36 36" height="512" viewBox="0 0 36 36" width="512" xmlns="http://www.w3.org/2000/svg"><path d="m27.623 31.833c-6.917 0-11.667 3.583-15 3.583s-10.333-1.916-10.333-17.249 9.417-17.584 13.083-17.584c17.167 0 24.5 31.25 12.25 31.25z" fill="#efefef"/><g fill="#a4afc1"><path d="m24.467 8.967h1v2h-1z" transform="matrix(.707 -.707 .707 .707 .265 20.574)"/><path d="m28.533 13.033h1v2h-1z" transform="matrix(.707 -.707 .707 .707 -1.419 24.64)"/><path d="m27.856 9.467h2v1h-2z" transform="matrix(.707 -.707 .707 .707 1.404 23.324)"/></g><path d="m19.25 20.5c0 .966-2.798 1.75-6.25 1.75s-6.25-.784-6.25-1.75v-4h12.5z" fill="#2fdf84"/><path d="m19.25 16.5c0 .966-2.798 1.75-6.25 1.75s-6.25-.784-6.25-1.75v-4h12.5z" fill="#f3f3f1"/><path d="m19.25 12.5c0 .966-2.798 1.75-6.25 1.75s-6.25-.784-6.25-1.75v-4h12.5z" fill="#2fdf84"/><ellipse cx="13" cy="8.5" fill="#f3f3f1" rx="6.25" ry="1.75"/><path d="m28.25 29.25h-9.5c-.552 0-1-.448-1-1v-5.5c0-.552.448-1 1-1h9.5c.552 0 1 .448 1 1v5.5c0 .552-.448 1-1 1z" fill="#2fdf84"/><path d="m9 16.5v-2.75l-2.25-1.25v4c0 .966 2.798 1.75 6.25 1.75.385 0 .76-.011 1.125-.03-2.914-.148-5.125-.861-5.125-1.72z" fill="#d5dbe1"/><path d="m9 8.5c0-.859 2.211-1.572 5.125-1.72-.365-.019-.74-.03-1.125-.03-3.452 0-6.25.784-6.25 1.75s2.798 1.75 6.25 1.75c.385 0 .76-.011 1.125-.03-2.914-.148-5.125-.861-5.125-1.72z" fill="#d5dbe1"/><path d="m9 20.5v-2.5l-2.25-1.5v4c0 .966 2.798 1.75 6.25 1.75.385 0 .76-.011 1.125-.03-2.914-.148-5.125-.861-5.125-1.72z" fill="#00b871"/><path d="m9 12.5v-2.5l-2.25-1.5v4c0 .966 2.798 1.75 6.25 1.75.385 0 .76-.011 1.125-.03-2.914-.148-5.125-.861-5.125-1.72z" fill="#00b871"/><path d="m20 28.25v-5.5c0-.552.448-1 1-1h-2.25c-.552 0-1 .448-1 1v5.5c0 .552.448 1 1 1h2.25c-.552 0-1-.448-1-1z" fill="#00b871"/><path d="m28.25 30h-9.5c-.965 0-1.75-.785-1.75-1.75v-5.5c0-.965.785-1.75 1.75-1.75h9.5c.965 0 1.75.785 1.75 1.75v5.5c0 .965-.785 1.75-1.75 1.75zm-9.5-7.5c-.138 0-.25.112-.25.25v5.5c0 .138.112.25.25.25h9.5c.138 0 .25-.112.25-.25v-5.5c0-.138-.112-.25-.25-.25z"/><path d="m23.5 26c-.139 0-.278-.039-.4-.116l-5.29-3.34.801-1.268 4.89 3.087 4.89-3.087.801 1.268-5.29 3.34c-.124.077-.263.116-.402.116z"/><path d="m13 11c-.716 0-7-.07-7-2.5s6.284-2.5 7-2.5 7 .07 7 2.5-6.284 2.5-7 2.5zm-5.436-2.5c.471.401 2.447 1 5.436 1s4.965-.599 5.436-1c-.471-.401-2.447-1-5.436-1s-4.965.599-5.436 1z"/><path d="m13 15c-.716 0-7-.07-7-2.5h1.5c.218.299 2.268 1 5.5 1s5.282-.701 5.521-1.094l1.479.094c0 2.43-6.284 2.5-7 2.5z"/><path d="m13 19c-.716 0-7-.07-7-2.5h1.5c.218.299 2.268 1 5.5 1s5.282-.701 5.521-1.094l1.479.094c0 2.43-6.284 2.5-7 2.5z"/><path d="m18.5 8.5h1.5v10.5h-1.5z"/><path d="m13 23c-.716 0-7-.07-7-2.5v-12h1.5v12c.218.3 2.265 1 5.5 1 .427 0 .835-.01 1.243-.029l.073 1.498c-.432.021-.863.031-1.316.031z"/></svg>