<svg id="_x31__x2C_5" enable-background="new 0 0 36 36" height="512" viewBox="0 0 36 36" width="512" xmlns="http://www.w3.org/2000/svg"><path d="m27.623 31.833c-6.917 0-11.667 3.583-15 3.583s-10.333-1.916-10.333-17.249 9.417-17.584 13.083-17.584c17.167 0 24.5 31.25 12.25 31.25z" fill="#efefef"/><path d="m27.5 12c-.827 0-1.5-.673-1.5-1.5s.673-1.5 1.5-1.5 1.5.673 1.5 1.5-.673 1.5-1.5 1.5zm0-2c-.275 0-.5.224-.5.5s.225.5.5.5.5-.224.5-.5-.225-.5-.5-.5z" fill="#a4afc1"/><path d="m19.25 20.5c0 .966-2.798 1.75-6.25 1.75s-6.25-.784-6.25-1.75v-4h12.5z" fill="#2fdf84"/><path d="m19.25 16.5c0 .966-2.798 1.75-6.25 1.75s-6.25-.784-6.25-1.75v-4h12.5z" fill="#f3f3f1"/><path d="m19.25 12.5c0 .966-2.798 1.75-6.25 1.75s-6.25-.784-6.25-1.75v-4h12.5z" fill="#2fdf84"/><ellipse cx="13" cy="8.5" fill="#f3f3f1" rx="6.25" ry="1.75"/><path d="m22.21 27.245c.218.78-.484 1.638-1.566 1.917-1.083.279-2.137-.128-2.354-.908-.218-.78.484-1.638 1.566-1.917 1.083-.278 2.137.129 2.354.908z" fill="#2fdf84"/><path d="m29.21 26.245c.218.78-.484 1.638-1.566 1.917-1.083.279-2.137-.128-2.354-.908-.218-.78.484-1.638 1.566-1.917 1.083-.278 2.137.129 2.354.908z" fill="#2fdf84"/><path d="m20.54 28.255c-.182-.653.284-1.356 1.075-1.733-.456-.267-1.1-.353-1.758-.184-1.083.279-1.784 1.137-1.566 1.917s1.272 1.186 2.354.908c.176-.045.338-.111.492-.184-.295-.173-.512-.419-.597-.724z" fill="#00b871"/><path d="m27.54 27.255c-.182-.653.284-1.356 1.075-1.733-.456-.267-1.1-.353-1.758-.184-1.083.279-1.784 1.137-1.566 1.917s1.272 1.186 2.354.908c.176-.045.338-.111.492-.184-.295-.173-.512-.419-.597-.724z" fill="#00b871"/><path d="m9 16.5v-2.5l-2.25-1.5v4c0 .966 2.798 1.75 6.25 1.75.385 0 .76-.011 1.125-.03-2.914-.148-5.125-.861-5.125-1.72z" fill="#d5dbe1"/><path d="m9 8.5c0-.859 2.211-1.572 5.125-1.72-.365-.019-.74-.03-1.125-.03-3.452 0-6.25.784-6.25 1.75s2.798 1.75 6.25 1.75c.385 0 .76-.011 1.125-.03-2.914-.148-5.125-.861-5.125-1.72z" fill="#d5dbe1"/><path d="m9 20.5v-2.5l-2.25-1.5v4c0 .966 2.798 1.75 6.25 1.75.385 0 .76-.011 1.125-.03-2.914-.148-5.125-.861-5.125-1.72z" fill="#00b871"/><path d="m9 12.5v-2.75l-2.25-1.25v4c0 .966 2.798 1.75 6.25 1.75.385 0 .76-.011 1.125-.03-2.914-.148-5.125-.861-5.125-1.72z" fill="#00b871"/><path d="m19.952 30.002c-1.147 0-2.12-.594-2.385-1.546-.137-.491-.061-1.023.214-1.5.37-.642 1.059-1.131 1.889-1.345 1.495-.384 2.933.244 3.263 1.433.137.491.061 1.024-.214 1.5-.37.642-1.059 1.131-1.889 1.345-.298.076-.593.113-.878.113zm.591-3.002c-.157 0-.326.02-.5.064-.429.11-.798.355-.963.642-.073.128-.097.244-.067.348.091.331.725.565 1.444.382.429-.11.798-.355.963-.642.073-.128.097-.244.067-.348-.07-.252-.452-.446-.944-.446z"/><path d="m26.952 29.002c-1.147 0-2.12-.594-2.385-1.546-.137-.491-.061-1.023.214-1.5.37-.642 1.059-1.131 1.889-1.345 1.497-.385 2.932.243 3.263 1.433.137.491.061 1.024-.214 1.5-.37.642-1.059 1.131-1.889 1.345-.298.076-.593.113-.878.113zm.591-3.002c-.157 0-.326.02-.5.064-.429.11-.798.355-.963.642-.073.128-.097.244-.067.348.091.331.725.567 1.444.382.429-.11.798-.355.963-.642.073-.128.097-.244.067-.348-.07-.252-.452-.446-.944-.446z"/><path d="m23 27.245h-1.5v-6.495c0-.373.274-.689.644-.742l7-1c.222-.027.435.033.598.176.163.142.258.348.258.566v6.495h-1.5v-5.63l-5.5.785z"/><path d="m13 11c-.717 0-7-.07-7-2.5s6.283-2.5 7-2.5 7 .07 7 2.5-6.283 2.5-7 2.5zm-5.436-2.5c.471.401 2.447 1 5.436 1s4.965-.599 5.436-1c-.471-.401-2.447-1-5.436-1s-4.965.599-5.436 1z"/><path d="m13 15c-.717 0-7-.07-7-2.5h1.5c.219.299 2.268 1 5.5 1s5.281-.701 5.521-1.094l1.479.094c0 2.43-6.283 2.5-7 2.5z"/><path d="m13 19c-.717 0-7-.07-7-2.5h1.5c.219.299 2.268 1 5.5 1s5.281-.701 5.521-1.094l1.479.094c0 2.43-6.283 2.5-7 2.5z"/><path d="m13 23c-.717 0-7-.07-7-2.5v-12h1.5v12c.219.299 2.267 1 5.5 1s5.281-.701 5.521-1.094l-.021-11.906h1.5v12c0 2.43-6.283 2.5-7 2.5z"/></svg>