<svg id="_x31__x2C_5" enable-background="new 0 0 36 36" height="512" viewBox="0 0 36 36" width="512" xmlns="http://www.w3.org/2000/svg"><path d="m31.833 27.623c0-6.917 3.583-11.667 3.583-15s-1.916-10.333-17.249-10.333-17.584 9.417-17.584 13.083c0 17.167 31.25 24.5 31.25 12.25z" fill="#efefef"/><g fill="#a4afc1"><path d="m30.033 7.556h2v1h-2z" transform="matrix(.707 -.707 .707 .707 3.393 24.303)"/><path d="m25.967 11.621h2v1h-2z" transform="matrix(.707 -.707 .707 .707 -.672 22.619)"/><path d="m26.467 6.879h1v2h-1z" transform="matrix(.707 -.707 .707 .707 2.33 21.381)"/><path d="m30.533 10.944h1v2h-1z" transform="matrix(.707 -.707 .707 .707 .646 25.447)"/></g><path d="m19.25 20.5c0 .966-2.798 1.75-6.25 1.75s-6.25-.784-6.25-1.75v-4h12.5z" fill="#2fdf84"/><path d="m19.25 16.5c0 .966-2.798 1.75-6.25 1.75s-6.25-.784-6.25-1.75v-4h12.5z" fill="#f3f3f1"/><path d="m19.25 12.5c0 .966-2.798 1.75-6.25 1.75s-6.25-.784-6.25-1.75v-4h12.5z" fill="#2fdf84"/><ellipse cx="13" cy="8.5" fill="#f3f3f1" rx="6.25" ry="1.75"/><path d="m28.25 29.25h-8.5c-.552 0-1-.448-1-1v-8.5c0-.552.448-1 1-1h8.5c.552 0 1 .448 1 1v8.5c0 .552-.448 1-1 1z" fill="#f3f3f1"/><path d="m18.75 27.74 2.22-2.22c.53-.54 1.4-.54 1.94 0v.01c.58.57 1.54.52 2.05-.12l.723-.894c.551-.681 1.589-.679 2.137.004l1.43 1.78v1.95c0 .552-.448 1-1 1h-8.5c-.552 0-1-.448-1-1z" fill="#2fdf84"/><path d="m9 16.5v-2.75l-2.25-1.25v4c0 .966 2.798 1.75 6.25 1.75.385 0 .76-.011 1.125-.03-2.914-.148-5.125-.861-5.125-1.72z" fill="#d5dbe1"/><path d="m9 8.5c0-.859 2.211-1.572 5.125-1.72-.365-.019-.74-.03-1.125-.03-3.452 0-6.25.784-6.25 1.75s2.798 1.75 6.25 1.75c.385 0 .76-.011 1.125-.03-2.914-.148-5.125-.861-5.125-1.72z" fill="#d5dbe1"/><path d="m21 28.25v-8.5c0-.552.448-1 1-1h-2.25c-.552 0-1 .448-1 1v8.5c0 .552.448 1 1 1h2.25c-.552 0-1-.448-1-1z" fill="#d5dbe1"/><path d="m9 20.5v-2.75l-2.25-1.25v4c0 .966 2.798 1.75 6.25 1.75.385 0 .76-.011 1.125-.03-2.914-.148-5.125-.861-5.125-1.72z" fill="#00b871"/><path d="m9 12.5v-2.75l-2.25-1.25v4c0 .966 2.798 1.75 6.25 1.75.385 0 .76-.011 1.125-.03-2.914-.148-5.125-.861-5.125-1.72z" fill="#00b871"/><path d="m21 28.25v-.51l2.078-2.078c-.057-.041-.116-.081-.168-.132v-.01c-.54-.54-1.41-.54-1.94 0l-2.22 2.22v.51c0 .552.448 1 1 1h2.25c-.552 0-1-.448-1-1z" fill="#00b871"/><path d="m19.28 28.271-1.06-1.061 2.22-2.221c.391-.398.92-.621 1.486-.624h.01c.567 0 1.101.221 1.503.623.017.017.032.034.047.052.122.096.274.144.435.135.104-.007.302-.045.451-.232l.724-.895c.804-1.008 2.499-1.012 3.309.004l1.428 1.778-1.169.939-1.43-1.78c-.165-.206-.375-.236-.485-.236s-.321.03-.483.234l-.724.895c-.37.464-.928.753-1.529.79-.61.039-1.199-.185-1.629-.606-.02-.02-.039-.04-.056-.062-.112-.091-.273-.169-.395-.139-.163.001-.315.064-.428.18z"/><path d="m28.25 30h-8.5c-.965 0-1.75-.785-1.75-1.75v-8.5c0-.965.785-1.75 1.75-1.75h8.5c.965 0 1.75.785 1.75 1.75v8.5c0 .965-.785 1.75-1.75 1.75zm-8.5-10.5c-.138 0-.25.112-.25.25v8.5c0 .138.112.25.25.25h8.5c.138 0 .25-.112.25-.25v-8.5c0-.138-.112-.25-.25-.25z"/><path d="m13 11c-.716 0-7-.07-7-2.5s6.284-2.5 7-2.5 7 .07 7 2.5-6.284 2.5-7 2.5zm-5.436-2.5c.47.4 2.446 1 5.436 1s4.966-.6 5.436-1c-.47-.4-2.446-1-5.436-1s-4.966.6-5.436 1z"/><path d="m13 15c-.716 0-7-.07-7-2.5h1.5c.218.299 2.267 1 5.5 1s5.282-.701 5.52-1.094l1.48.094c0 2.43-6.284 2.5-7 2.5z"/><path d="m13 19c-.716 0-7-.07-7-2.5h1.5c0-.049-.014-.083-.02-.093.238.393 2.285 1.093 5.52 1.093.887 0 1.742-.05 2.474-.145l.192 1.488c-.806.104-1.703.157-2.666.157z"/><path d="m18.5 8.5h1.5v7.5h-1.5z"/><path d="m13 23c-.716 0-7-.07-7-2.5v-12h1.5v12c.218.3 2.265 1 5.5 1 .739 0 1.471-.036 2.175-.106l.149 1.492c-.753.076-1.535.114-2.324.114z"/></svg>