<svg id="_x31__x2C_5" enable-background="new 0 0 36 36" height="512" viewBox="0 0 36 36" width="512" xmlns="http://www.w3.org/2000/svg"><path d="m4.167 8.377c0 6.917-3.583 11.667-3.583 15s1.916 10.333 17.249 10.333 17.583-9.417 17.583-13.083c.001-17.167-31.249-24.5-31.249-12.25z" fill="#efefef"/><path d="m26.5 14c-.827 0-1.5-.673-1.5-1.5s.673-1.5 1.5-1.5 1.5.673 1.5 1.5-.673 1.5-1.5 1.5zm0-2c-.276 0-.5.225-.5.5s.224.5.5.5.5-.225.5-.5-.224-.5-.5-.5z" fill="#a4afc1"/><path d="m19.25 20.5c0 .966-2.798 1.75-6.25 1.75s-6.25-.784-6.25-1.75v-4h12.5z" fill="#2fdf84"/><path d="m19.25 16.5c0 .966-2.798 1.75-6.25 1.75s-6.25-.784-6.25-1.75v-4h12.5z" fill="#f3f3f1"/><path d="m19.25 12.5c0 .966-2.798 1.75-6.25 1.75s-6.25-.784-6.25-1.75v-4h12.5z" fill="#2fdf84"/><ellipse cx="13" cy="8.5" fill="#f3f3f1" rx="6.25" ry="1.75"/><path d="m28.25 29.25h-6.111c-.25 0-.491-.094-.676-.263l-1.909-1.75c-.432-.396-.432-1.078 0-1.474l1.909-1.75c.184-.169.426-.263.676-.263h6.111c.552 0 1 .448 1 1v3.5c0 .552-.448 1-1 1z" fill="#2fdf84"/><path d="m9 16.5v-2.75l-2.25-1.25v4c0 .966 2.798 1.75 6.25 1.75.385 0 .76-.011 1.125-.03-2.914-.148-5.125-.861-5.125-1.72z" fill="#d5dbe1"/><path d="m9 8.5c0-.859 2.211-1.572 5.125-1.72-.365-.019-.74-.03-1.125-.03-3.452 0-6.25.784-6.25 1.75s2.798 1.75 6.25 1.75c.385 0 .76-.011 1.125-.03-2.914-.148-5.125-.861-5.125-1.72z" fill="#d5dbe1"/><g fill="#00b871"><path d="m9 20.5v-3l-2.25-1v4c0 .966 2.798 1.75 6.25 1.75.385 0 .76-.011 1.125-.03-2.914-.148-5.125-.861-5.125-1.72z"/><path d="m9 12.5v-2.75l-2.25-1.25v4c0 .966 2.798 1.75 6.25 1.75.385 0 .76-.011 1.125-.03-2.914-.148-5.125-.861-5.125-1.72z"/><path d="m21.804 27.237c-.432-.396-.432-1.078 0-1.474l1.909-1.75c.184-.169.426-.263.676-.263h-2.25c-.25 0-.491.094-.676.263l-1.909 1.75c-.432.396-.432 1.078 0 1.474l1.909 1.75c.184.169.426.263.676.263h2.25c-.25 0-.491-.094-.676-.263z"/></g><path d="m28.25 30h-6.111c-.439 0-.859-.163-1.183-.46l-1.909-1.75c-.361-.33-.567-.801-.567-1.29s.207-.96.567-1.29l1.909-1.75c.324-.297.744-.46 1.183-.46h6.111c.965 0 1.75.785 1.75 1.75v3.5c0 .965-.785 1.75-1.75 1.75zm-6.111-5.5c-.063 0-.123.023-.168.065l-1.91 1.75c-.071.065-.081.144-.081.185s.01.12.081.185l1.909 1.75c.046.042.106.065.169.065h6.111c.138 0 .25-.112.25-.25v-3.5c0-.138-.112-.25-.25-.25z"/><path d="m13 11c-.716 0-7-.07-7-2.5s6.284-2.5 7-2.5 7 .07 7 2.5-6.284 2.5-7 2.5zm-5.436-2.5c.47.4 2.446 1 5.436 1s4.966-.6 5.436-1c-.47-.4-2.446-1-5.436-1s-4.966.6-5.436 1z"/><path d="m13 15c-.716 0-7-.07-7-2.5h1.5c.218.299 2.267 1 5.5 1s5.282-.701 5.52-1.094l1.48.094c0 2.43-6.284 2.5-7 2.5z"/><path d="m13 19c-.716 0-7-.07-7-2.5h1.5c.218.299 2.267 1 5.5 1s5.282-.701 5.52-1.094l1.48.094c0 2.43-6.284 2.5-7 2.5z"/><path d="m13 23c-.716 0-7-.07-7-2.5v-12h1.5v12c.218.299 2.267 1 5.5 1s5.282-.701 5.52-1.094l-.02-11.906h1.5v12c0 2.43-6.284 2.5-7 2.5z"/></svg>