<svg id="_x31__x2C_5" enable-background="new 0 0 36 36" height="512" viewBox="0 0 36 36" width="512" xmlns="http://www.w3.org/2000/svg"><path d="m8.377 31.833c6.917 0 11.667 3.583 15 3.583s10.333-1.916 10.333-17.249-9.417-17.584-13.083-17.584c-17.167 0-24.5 31.25-12.25 31.25z" fill="#efefef"/><path d="m28.5 11c-.827 0-1.5-.673-1.5-1.5s.673-1.5 1.5-1.5 1.5.673 1.5 1.5-.673 1.5-1.5 1.5zm0-2c-.276 0-.5.224-.5.5s.224.5.5.5.5-.224.5-.5-.224-.5-.5-.5z" fill="#a4afc1"/><path d="m19.25 20.5c0 .966-2.798 1.75-6.25 1.75s-6.25-.784-6.25-1.75v-4h12.5z" fill="#2fdf84"/><path d="m19.25 16.5c0 .966-2.798 1.75-6.25 1.75s-6.25-.784-6.25-1.75v-4h12.5z" fill="#f3f3f1"/><path d="m19.25 12.5c0 .966-2.798 1.75-6.25 1.75s-6.25-.784-6.25-1.75v-4h12.5z" fill="#2fdf84"/><ellipse cx="13" cy="8.5" fill="#f3f3f1" rx="6.25" ry="1.75"/><path d="m27.25 16.75-4.5 6.5h2.75l-.75 6 4.5-7.5h-2.75z" fill="#2fdf84"/><path d="m9 16.5v-2.75l-2.25-1.25v4c0 .966 2.798 1.75 6.25 1.75.385 0 .76-.011 1.125-.03-2.914-.148-5.125-.861-5.125-1.72z" fill="#d5dbe1"/><path d="m9 8.5c0-.859 2.211-1.572 5.125-1.72-.365-.019-.74-.03-1.125-.03-3.452 0-6.25.784-6.25 1.75s2.798 1.75 6.25 1.75c.385 0 .76-.011 1.125-.03-2.914-.148-5.125-.861-5.125-1.72z" fill="#d5dbe1"/><g fill="#00b871"><path d="m9 20.5v-2.75l-2.25-1.25v4c0 .966 2.798 1.75 6.25 1.75.385 0 .76-.011 1.125-.03-2.914-.148-5.125-.861-5.125-1.72z"/><path d="m9 12.5v-2.75l-2.25-1.25v4c0 .966 2.798 1.75 6.25 1.75.385 0 .76-.011 1.125-.03-2.914-.148-5.125-.861-5.125-1.72z"/><path d="m26.628 20.899.622-4.149-4.5 6.5h2.25z"/></g><path d="m24.75 30c-.082 0-.164-.014-.245-.041-.335-.115-.543-.45-.5-.802l.645-5.157h-1.9c-.279 0-.535-.155-.665-.402-.129-.247-.111-.545.048-.774l4.5-6.5c.2-.287.569-.398.893-.271.324.128.517.463.465.809l-.62 4.138h1.879c.27 0 .52.146.653.381.133.234.129.523-.01.755l-4.5 7.5c-.139.231-.386.364-.643.364zm-.568-7.5h1.318c.215 0 .42.093.563.254.142.161.208.376.182.589l-.309 2.475 1.99-3.317h-1.426c-.218 0-.426-.095-.568-.261-.143-.165-.206-.385-.173-.601l.271-1.809z"/><path d="m13 11c-.716 0-7-.07-7-2.5s6.284-2.5 7-2.5 7 .07 7 2.5-6.284 2.5-7 2.5zm-5.436-2.5c.471.401 2.447 1 5.436 1s4.965-.599 5.436-1c-.471-.401-2.447-1-5.436-1s-4.965.599-5.436 1z"/><path d="m13 15c-.716 0-7-.07-7-2.5h1.5c.218.299 2.268 1 5.5 1s5.282-.701 5.521-1.094l1.479.094c0 2.43-6.284 2.5-7 2.5z"/><path d="m13 19c-.716 0-7-.07-7-2.5h1.5c.218.299 2.268 1 5.5 1s5.282-.701 5.521-1.094l1.479.094c0 2.43-6.284 2.5-7 2.5z"/><path d="m13 23c-.716 0-7-.07-7-2.5v-12h1.5v12c.218.299 2.267 1 5.5 1s5.282-.701 5.52-1.094l-.02-11.906h1.5v12c0 2.43-6.284 2.5-7 2.5z"/></svg>