<svg id="_x31__x2C_5" enable-background="new 0 0 36 36" height="512" viewBox="0 0 36 36" width="512" xmlns="http://www.w3.org/2000/svg"><path d="m31.833 27.623c0-6.917 3.583-11.667 3.583-15s-1.916-10.333-17.249-10.333-17.584 9.417-17.584 13.083c0 17.167 31.25 24.5 31.25 12.25z" fill="#efefef"/><g fill="#a4afc1"><path d="m25.207 5.967h1v2h-1z" transform="matrix(.707 -.707 .707 .707 2.601 20.214)"/><path d="m29.273 10.033h1v2h-1z" transform="matrix(.707 -.707 .707 .707 .917 24.279)"/><path d="m28.596 6.467h2v1h-2z" transform="matrix(.707 -.707 .707 .707 3.742 22.968)"/></g><path d="m19.25 20.5c0 .966-2.798 1.75-6.25 1.75s-6.25-.784-6.25-1.75v-4h12.5z" fill="#2fdf84"/><path d="m19.25 16.5c0 .966-2.798 1.75-6.25 1.75s-6.25-.784-6.25-1.75v-4h12.5z" fill="#f3f3f1"/><path d="m19.25 12.5c0 .966-2.798 1.75-6.25 1.75s-6.25-.784-6.25-1.75v-4h12.5z" fill="#2fdf84"/><ellipse cx="13" cy="8.5" fill="#f3f3f1" rx="6.25" ry="1.75"/><path d="m24 29.25s5.25-2.321 5.25-6.964c0-1.857 0-4.179 0-4.179l-5.25-1.607-5.25 1.607v4.179c0 4.643 5.25 6.964 5.25 6.964z" fill="#2fdf84"/><path d="m9 16.5v-2.75l-2.25-1.25v4c0 .966 2.798 1.75 6.25 1.75.385 0 .76-.011 1.125-.03-2.914-.148-5.125-.861-5.125-1.72z" fill="#d5dbe1"/><path d="m9 8.5c0-.859 2.211-1.572 5.125-1.72-.365-.019-.74-.03-1.125-.03-3.452 0-6.25.784-6.25 1.75s2.798 1.75 6.25 1.75c.385 0 .76-.011 1.125-.03-2.914-.148-5.125-.861-5.125-1.72z" fill="#d5dbe1"/><path d="m9 20.5v-2.75l-2.25-1.25v4c0 .966 2.798 1.75 6.25 1.75.385 0 .76-.011 1.125-.03-2.914-.148-5.125-.861-5.125-1.72z" fill="#00b871"/><path d="m9 12.5v-2.75l-2.25-1.25v4c0 .966 2.798 1.75 6.25 1.75.385 0 .76-.011 1.125-.03-2.914-.148-5.125-.861-5.125-1.72z" fill="#00b871"/><path d="m21 22.286c0-2.786 0-4.179 0-4.179l4.125-1.263-1.125-.344-5.25 1.607v4.179c0 4.643 5.25 6.964 5.25 6.964s.471-.211 1.125-.623c-1.542-.971-4.125-3.082-4.125-6.341z" fill="#00b871"/><path d="m24 30c-.104 0-.207-.021-.303-.064-.233-.103-5.697-2.578-5.697-7.65v-4.179c0-.33.215-.621.53-.717l5.25-1.607c.144-.044.296-.044.439 0l5.25 1.607c.315.097.53.388.53.717v4.179c0 5.072-5.464 7.547-5.697 7.649-.095.044-.198.065-.302.065zm-4.5-11.338v3.625c0 3.494 3.442 5.571 4.499 6.127 1.055-.558 4.501-2.646 4.501-6.127v-3.625l-4.5-1.378z"/><path d="m23.25 16.5h1.5v12.5h-1.5z"/><path d="m18.75 21.536h10.5v1.5h-10.5z"/><path d="m13 11c-.716 0-7-.07-7-2.5s6.284-2.5 7-2.5 7 .07 7 2.5-6.284 2.5-7 2.5zm-5.436-2.5c.471.401 2.447 1 5.436 1s4.965-.599 5.436-1c-.471-.401-2.447-1-5.436-1s-4.965.599-5.436 1z"/><path d="m13 15c-.716 0-7-.07-7-2.5h1.5c.218.299 2.268 1 5.5 1s5.282-.701 5.521-1.094l1.479.094c0 2.43-6.284 2.5-7 2.5z"/><path d="m13 19c-.716 0-7-.07-7-2.5h1.5c0-.049-.014-.083-.02-.092.237.392 2.285 1.092 5.52 1.092.781 0 1.516-.039 2.185-.115l.171 1.49c-.726.083-1.518.125-2.356.125z"/><path d="m18.5 8.5h1.5v7h-1.5z"/><path d="m13 23c-.716 0-7-.07-7-2.5v-12h1.5v12c.218.3 2.265 1 5.5 1 .739 0 1.471-.036 2.175-.106l.149 1.492c-.753.076-1.535.114-2.324.114z"/></svg>