<svg id="_x31__x2C_5" enable-background="new 0 0 36 36" height="512" viewBox="0 0 36 36" width="512" xmlns="http://www.w3.org/2000/svg"><path d="m31.833 8.377c0 6.917 3.583 11.667 3.583 15s-1.916 10.333-17.249 10.333-17.584-9.417-17.584-13.083c0-17.167 31.25-24.5 31.25-12.25z" fill="#efefef"/><path d="m28.5 11c-.827 0-1.5-.673-1.5-1.5s.673-1.5 1.5-1.5 1.5.673 1.5 1.5-.673 1.5-1.5 1.5zm0-2c-.275 0-.5.225-.5.5s.225.5.5.5.5-.225.5-.5-.225-.5-.5-.5z" fill="#a4afc1"/><path d="m19.25 20.5c0 .966-2.798 1.75-6.25 1.75s-6.25-.784-6.25-1.75v-4h12.5z" fill="#2fdf84"/><path d="m19.25 16.5c0 .966-2.798 1.75-6.25 1.75s-6.25-.784-6.25-1.75v-4h12.5z" fill="#f3f3f1"/><path d="m19.25 12.5c0 .966-2.798 1.75-6.25 1.75s-6.25-.784-6.25-1.75v-4h12.5z" fill="#2fdf84"/><ellipse cx="13" cy="8.5" fill="#f3f3f1" rx="6.25" ry="1.75"/><path d="m9 16.5v-2.5l-2.25-1.5v4c0 .966 2.798 1.75 6.25 1.75.385 0 .76-.011 1.125-.03-2.914-.148-5.125-.861-5.125-1.72z" fill="#d5dbe1"/><path d="m9 8.5c0-.859 2.211-1.572 5.125-1.72-.365-.019-.74-.03-1.125-.03-3.452 0-6.25.784-6.25 1.75s2.798 1.75 6.25 1.75c.385 0 .76-.011 1.125-.03-2.914-.148-5.125-.861-5.125-1.72z" fill="#d5dbe1"/><path d="m9 20.5v-2.5l-2.25-1.5v4c0 .966 2.798 1.75 6.25 1.75.385 0 .76-.011 1.125-.03-2.914-.148-5.125-.861-5.125-1.72z" fill="#00b871"/><path d="m9 12.5v-2.75l-2.25-1.25v4c0 .966 2.798 1.75 6.25 1.75.385 0 .76-.011 1.125-.03-2.914-.148-5.125-.861-5.125-1.72z" fill="#00b871"/><path d="m28.25 30h-8.5c-.965 0-1.75-.785-1.75-1.75v-10.25h1.5v10.25c0 .138.112.25.25.25h8.5c.138 0 .25-.112.25-.25v-8.5c0-.138-.112-.25-.25-.25h-3.5c-.138 0-.25.112-.25.25v5h-1.5v-5c0-.965.785-1.75 1.75-1.75h3.5c.965 0 1.75.785 1.75 1.75v8.5c0 .965-.785 1.75-1.75 1.75z"/><path d="m23.75 26c-.192 0-.384-.073-.53-.22l-2.03-2.03 1.061-1.061 1.5 1.5 1.5-1.5 1.061 1.061-2.03 2.03c-.148.147-.34.22-.532.22z"/><path d="m13 11c-.717 0-7-.07-7-2.5s6.283-2.5 7-2.5 7 .07 7 2.5-6.283 2.5-7 2.5zm-5.436-2.5c.47.4 2.446 1 5.436 1s4.966-.6 5.436-1c-.47-.4-2.446-1-5.436-1s-4.966.6-5.436 1z"/><path d="m13 15c-.717 0-7-.07-7-2.5h1.5c.219.299 2.267 1 5.5 1s5.281-.701 5.521-1.094l1.479.094c0 2.43-6.283 2.5-7 2.5z"/><path d="m13 19c-.717 0-7-.07-7-2.5h1.5c0-.049-.015-.083-.02-.093.238.393 2.286 1.093 5.52 1.093.787 0 1.557-.04 2.226-.115l.168 1.49c-.735.083-1.54.125-2.394.125z"/><path d="m18.5 8.5h1.5v7.5h-1.5z"/><path d="m13 23c-.717 0-7-.07-7-2.5v-12h1.5v12c.218.3 2.266 1 5.5 1 .739 0 1.471-.036 2.175-.106l.15 1.492c-.754.076-1.536.114-2.325.114z"/></svg>