<svg id="_x31__x2C_5" enable-background="new 0 0 36 36" height="512" viewBox="0 0 36 36" width="512" xmlns="http://www.w3.org/2000/svg"><path d="m27.623 31.833c-6.917 0-11.667 3.583-15 3.583s-10.333-1.916-10.333-17.249 9.417-17.584 13.083-17.584c17.167 0 24.5 31.25 12.25 31.25z" fill="#efefef"/><path d="m27.5 12c-.827 0-1.5-.673-1.5-1.5s.673-1.5 1.5-1.5 1.5.673 1.5 1.5-.673 1.5-1.5 1.5zm0-2c-.276 0-.5.224-.5.5s.224.5.5.5.5-.224.5-.5-.224-.5-.5-.5z" fill="#a4afc1"/><path d="m19.25 20.5c0 .966-2.798 1.75-6.25 1.75s-6.25-.784-6.25-1.75v-4h12.5z" fill="#2fdf84"/><path d="m19.25 16.5c0 .966-2.798 1.75-6.25 1.75s-6.25-.784-6.25-1.75v-4h12.5z" fill="#f3f3f1"/><path d="m19.25 12.5c0 .966-2.798 1.75-6.25 1.75s-6.25-.784-6.25-1.75v-4h12.5z" fill="#2fdf84"/><ellipse cx="13" cy="8.5" fill="#f3f3f1" rx="6.25" ry="1.75"/><circle cx="23" cy="23" fill="#2fdf84" r="4.25"/><path d="m9 16.5v-2.75l-2.25-1.25v4c0 .966 2.798 1.75 6.25 1.75.385 0 .76-.011 1.125-.03-2.914-.148-5.125-.861-5.125-1.72z" fill="#d5dbe1"/><path d="m9 8.5c0-.859 2.211-1.572 5.125-1.72-.365-.019-.74-.03-1.125-.03-3.452 0-6.25.784-6.25 1.75s2.798 1.75 6.25 1.75c.385 0 .76-.011 1.125-.03-2.914-.148-5.125-.861-5.125-1.72z" fill="#d5dbe1"/><g fill="#00b871"><path d="m9 20.5v-2.5l-2.25-1.5v4c0 .966 2.798 1.75 6.25 1.75.385 0 .76-.011 1.125-.03-2.914-.148-5.125-.861-5.125-1.72z"/><path d="m9 12.5v-2.5l-2.25-1.5v4c0 .966 2.798 1.75 6.25 1.75.385 0 .76-.011 1.125-.03-2.914-.148-5.125-.861-5.125-1.72z"/><path d="m21 23c0-1.955 1.328-3.585 3.125-4.08-.361-.099-.733-.17-1.125-.17-2.347 0-4.25 1.903-4.25 4.25s1.903 4.25 4.25 4.25c.392 0 .764-.07 1.125-.17-1.797-.495-3.125-2.125-3.125-4.08z"/></g><path d="m23 28c-2.757 0-5-2.243-5-5s2.243-5 5-5 5 2.243 5 5-2.243 5-5 5zm0-8.5c-1.93 0-3.5 1.57-3.5 3.5s1.57 3.5 3.5 3.5 3.5-1.57 3.5-3.5-1.57-3.5-3.5-3.5z"/><path d="m27.091 25.495h1.5v4.692h-1.5z" transform="matrix(.707 -.707 .707 .707 -11.532 27.841)"/><path d="m13 11c-.716 0-7-.07-7-2.5s6.284-2.5 7-2.5 7 .07 7 2.5-6.284 2.5-7 2.5zm-5.436-2.5c.471.401 2.447 1 5.436 1s4.965-.599 5.436-1c-.471-.401-2.447-1-5.436-1s-4.965.599-5.436 1z"/><path d="m13 15c-.716 0-7-.07-7-2.5h1.5c.218.299 2.268 1 5.5 1s5.282-.701 5.521-1.094l1.479.094c0 2.43-6.284 2.5-7 2.5z"/><path d="m13 19c-.716 0-7-.07-7-2.5h1.5c0-.049-.014-.083-.02-.092.237.392 2.285 1.092 5.52 1.092 1.568 0 3.016-.158 4.074-.444l.392 1.448c-1.183.32-2.769.496-4.466.496z"/><path d="m18.5 8.5h1.5v8.5h-1.5z"/><path d="m13 23c-.716 0-7-.07-7-2.5v-12h1.5v12c.217.3 2.265 1 5.5 1 .792 0 1.537-.039 2.216-.115l.168 1.49c-.735.083-1.537.125-2.384.125z"/></svg>