<svg id="_x31__x2C_5" enable-background="new 0 0 36 36" height="512" viewBox="0 0 36 36" width="512" xmlns="http://www.w3.org/2000/svg"><path d="m27.623 4.167c-6.917 0-11.667-3.583-15-3.583s-10.333 1.916-10.333 17.249 9.417 17.583 13.083 17.583c17.167.001 24.5-31.249 12.25-31.249z" fill="#efefef"/><path d="m4.5 16c-.827 0-1.5-.673-1.5-1.5s.673-1.5 1.5-1.5 1.5.673 1.5 1.5-.673 1.5-1.5 1.5zm0-2c-.276 0-.5.225-.5.5s.224.5.5.5.5-.225.5-.5-.224-.5-.5-.5z" fill="#a4afc1"/><path d="m9.75 29.25c.253-4.181 3.858-7.5 8.25-7.5s7.997 3.319 8.25 7.5z" fill="#2fdf84"/><path d="m22.25 13v4.5c-1.24.16-2.69.25-4.25.25s-3.01-.09-4.25-.25v-4.5z" fill="#f3f3f1"/><path d="m9.75 8.5v4c0 .966 3.694 1.75 8.25 1.75s8.25-.784 8.25-1.75v-4z" fill="#2fdf84"/><ellipse cx="18" cy="8.5" fill="#f3f3f1" rx="8.25" ry="1.75"/><path d="m26.25 16v4c0 .966-3.694 1.75-8.25 1.75s-8.25-.784-8.25-1.75v-4c0 .97 3.69 1.75 8.25 1.75s8.25-.78 8.25-1.75z" fill="#f3f3f1"/><g fill="#d5dbe1"><path d="m16 17.5v-3.5h-2.25v3.5c1.24.16 2.25 0 2.25 0z"/><path d="m12 8.5c0-.885 3.102-1.615 7.125-1.732-.369-.011-.742-.018-1.125-.018-4.556 0-8.25.784-8.25 1.75s3.694 1.75 8.25 1.75c.383 0 .756-.007 1.125-.018-4.023-.117-7.125-.847-7.125-1.732z"/><path d="m12 20v-2.8c-1.392-.313-2.25-.734-2.25-1.2v4c0 .966 3.694 1.75 8.25 1.75.383 0 .756-.007 1.125-.018-4.023-.117-7.125-.847-7.125-1.732z"/></g><path d="m19.125 21.833c-.369-.049-.742-.083-1.125-.083-4.392 0-7.997 3.319-8.25 7.5h2.25c.231-3.817 3.258-6.907 7.125-7.417z" fill="#00b871"/><path d="m12 12.5v-2.75l-2.25-1.25v4c0 .966 3.694 1.75 8.25 1.75.383 0 .756-.007 1.125-.018-4.023-.117-7.125-.847-7.125-1.732z" fill="#00b871"/><path d="m26.25 30h-16.5c-.207 0-.404-.085-.546-.236-.142-.15-.215-.353-.203-.559.278-4.601 4.231-8.205 8.999-8.205s8.721 3.604 8.999 8.205c.013.206-.061.408-.203.559s-.339.236-.546.236zm-15.657-1.5h14.814c-.605-3.422-3.712-6-7.407-6s-6.802 2.578-7.407 6z"/><path d="m17.198 26.747h4.605v1.499h-4.605z" transform="matrix(.651 -.759 .759 .651 -14.065 24.384)"/><path d="m18 11c-1.503 0-9-.12-9-2.5s7.497-2.5 9-2.5 9 .12 9 2.5-7.497 2.5-9 2.5zm-7.303-2.5c.798.414 3.3 1 7.303 1s6.505-.586 7.303-1c-.798-.414-3.3-1-7.303-1s-6.505.586-7.303 1z"/><path d="m18 18.5c-1.503 0-9-.12-9-2.5 0-.411 0-1.662 4.657-2.244l.186 1.488c-1.808.226-2.739.546-3.145.758.797.413 3.298.998 7.302.998s6.505-.585 7.302-.998c-.406-.212-1.337-.532-3.145-.758l.186-1.488c4.657.582 4.657 1.833 4.657 2.244 0 2.38-7.497 2.5-9 2.5z"/><path d="m18 15c-1.503 0-9-.12-9-2.5v-4h1.5v3.874c.478.408 3.07 1.126 7.5 1.126s7.022-.718 7.5-1.126v-3.874h1.5v4c0 2.38-7.497 2.5-9 2.5z"/><path d="m25.666 21.479-.592-1.379c.241-.103.366-.186.426-.233v-3.867h1.5v4c0 .602-.449 1.1-1.334 1.479z"/><path d="m10.334 21.479c-.885-.379-1.334-.877-1.334-1.479v-4h1.5v3.867c.06.048.185.131.426.233z"/><path d="m13 14.02h1.5v3.25h-1.5z"/><path d="m21.5 14.02h1.5v3.25h-1.5z"/></svg>