<svg id="_x31__x2C_5" enable-background="new 0 0 36 36" height="512" viewBox="0 0 36 36" width="512" xmlns="http://www.w3.org/2000/svg"><path d="m4.167 8.377c0 6.917-3.583 11.667-3.583 15s1.916 10.333 17.249 10.333 17.583-9.417 17.583-13.083c.001-17.167-31.249-24.5-31.249-12.25z" fill="#efefef"/><path d="m27.5 12c-.827 0-1.5-.673-1.5-1.5s.673-1.5 1.5-1.5 1.5.673 1.5 1.5-.673 1.5-1.5 1.5zm0-2c-.276 0-.5.224-.5.5s.224.5.5.5.5-.224.5-.5-.224-.5-.5-.5z" fill="#a4afc1"/><path d="m19.25 20.5c0 .966-2.798 1.75-6.25 1.75s-6.25-.784-6.25-1.75v-4h12.5z" fill="#2fdf84"/><path d="m19.25 16.5c0 .966-2.798 1.75-6.25 1.75s-6.25-.784-6.25-1.75v-4h12.5z" fill="#f3f3f1"/><path d="m19.25 12.5c0 .966-2.798 1.75-6.25 1.75s-6.25-.784-6.25-1.75v-4h12.5z" fill="#2fdf84"/><ellipse cx="13" cy="8.5" fill="#f3f3f1" rx="6.25" ry="1.75"/><path d="m23.5 26.831-3.554 2.419 1.09-4.301-3.286-2.806 4.227-.24 1.523-4.153 1.523 4.153 4.227.24-3.286 2.806 1.09 4.301z" fill="#2fdf84"/><path d="m9 16.5v-2.75l-2.25-1.25v4c0 .966 2.798 1.75 6.25 1.75.385 0 .76-.011 1.125-.03-2.914-.148-5.125-.861-5.125-1.72z" fill="#d5dbe1"/><path d="m9 8.5c0-.859 2.211-1.572 5.125-1.72-.365-.019-.74-.03-1.125-.03-3.452 0-6.25.784-6.25 1.75s2.798 1.75 6.25 1.75c.385 0 .76-.011 1.125-.03-2.914-.148-5.125-.861-5.125-1.72z" fill="#d5dbe1"/><g fill="#00b871"><path d="m9 20.5v-2.5l-2.25-1.5v4c0 .966 2.798 1.75 6.25 1.75.385 0 .76-.011 1.125-.03-2.914-.148-5.125-.861-5.125-1.72z"/><path d="m9 12.5v-2.75l-2.25-1.25v4c0 .966 2.798 1.75 6.25 1.75.385 0 .76-.011 1.125-.03-2.914-.148-5.125-.861-5.125-1.72z"/><path d="m22.665 27.4.621-2.451-3.286-2.806 4.227-.24.398-1.085-1.125-3.068-1.523 4.153-4.227.24 3.286 2.806-1.09 4.301z"/></g><path d="m27.054 30c-.147 0-.294-.043-.422-.13l-3.132-2.131-3.132 2.131c-.258.175-.595.173-.852-.006-.255-.178-.374-.497-.297-.798l.975-3.85-2.932-2.503c-.233-.199-.321-.52-.224-.81.098-.29.363-.492.668-.509l3.735-.211 1.354-3.69c.109-.297.391-.493.705-.493s.596.196.704.492l1.354 3.69 3.735.211c.306.018.57.219.668.509.098.291.009.611-.224.81l-2.932 2.503.975 3.85c.077.302-.042.62-.297.798-.129.092-.279.137-.429.137zm-3.554-3.918c.147 0 .294.043.422.13l1.919 1.306-.604-2.385c-.07-.276.023-.569.24-.754l1.865-1.593-2.362-.134c-.299-.017-.559-.21-.662-.491l-.818-2.233-.819 2.233c-.103.281-.363.474-.662.491l-2.362.134 1.865 1.593c.217.186.31.478.24.754l-.604 2.385 1.919-1.306c.129-.087.276-.13.423-.13z"/><path d="m13 11c-.716 0-7-.07-7-2.5s6.284-2.5 7-2.5 7 .07 7 2.5-6.284 2.5-7 2.5zm-5.436-2.5c.471.401 2.447 1 5.436 1s4.965-.599 5.436-1c-.471-.401-2.447-1-5.436-1s-4.965.599-5.436 1z"/><path d="m13 15c-.716 0-7-.07-7-2.5h1.5c.218.299 2.268 1 5.5 1s5.282-.701 5.521-1.094l1.479.094c0 2.43-6.284 2.5-7 2.5z"/><path d="m13 19c-.716 0-7-.07-7-2.5h1.5c.218.299 2.268 1 5.5 1s5.282-.701 5.521-1.094l1.479.094c0 2.43-6.284 2.5-7 2.5z"/><path d="m18.5 8.5h1.5v10.8h-1.5z"/><path d="m13 23c-.716 0-7-.07-7-2.5v-12h1.5v12c.217.3 2.265 1 5.5 1 .407 0 .814-.009 1.203-.029l.075 1.498c-.413.021-.845.031-1.278.031z"/></svg>