<svg id="_x31__x2C_5" enable-background="new 0 0 36 36" height="512" viewBox="0 0 36 36" width="512" xmlns="http://www.w3.org/2000/svg"><path d="m4.167 8.377c0 6.917-3.583 11.667-3.583 15s1.916 10.333 17.249 10.333 17.583-9.417 17.583-13.083c.001-17.167-31.249-24.5-31.249-12.25z" fill="#efefef"/><path d="m28.5 12c-.827 0-1.5-.673-1.5-1.5s.673-1.5 1.5-1.5 1.5.673 1.5 1.5-.673 1.5-1.5 1.5zm0-2c-.275 0-.5.224-.5.5s.225.5.5.5.5-.224.5-.5-.225-.5-.5-.5z" fill="#a4afc1"/><path d="m19.25 20.5c0 .966-2.798 1.75-6.25 1.75s-6.25-.784-6.25-1.75v-4h12.5z" fill="#2fdf84"/><path d="m19.25 16.5c0 .966-2.798 1.75-6.25 1.75s-6.25-.784-6.25-1.75v-4h12.5z" fill="#f3f3f1"/><path d="m19.25 12.5c0 .966-2.798 1.75-6.25 1.75s-6.25-.784-6.25-1.75v-4h12.5z" fill="#2fdf84"/><ellipse cx="13" cy="8.5" fill="#f3f3f1" rx="6.25" ry="1.75"/><path d="m28.429 22.368.048.01-2.664-2.664c-.369-.369-.964-.368-1.333.001s-.369.964-.001 1.333l-.888-.888c-.368-.369-.964-.368-1.333.001s-.001 1.333-.001 1.333l-.444-.444c-.368-.369-.964-.368-1.333.001s-.369.964-.001 1.333l-2.664-2.664c-.368-.368-.964-.368-1.333.001s-.369.964-.001 1.333l4.542 4.542c-.689-.102-1.839-.141-2.546.565-.667.667-.649 1.129-.445 1.333.559.559.995-.329 3.553.887s4.202 1.108 5.331-.003l.889-.889.004-.004c1.521-1.52 1.98-3.555.62-5.117z" fill="#2fdf84"/><path d="m23.838 28.378c-2.558-1.216-2.994-.327-3.553-.887-.204-.204-.222-.666.445-1.333.707-.707 1.857-.667 2.546-.565l-4.542-4.542c-.19-.19-.278-.44-.272-.689l-.645-.645c-.368-.368-.964-.368-1.333.001s-.369.964-.001 1.333l4.542 4.542c-.689-.102-1.839-.141-2.546.565-.667.667-.649 1.129-.445 1.333.559.559.995-.329 3.553.887 1.796.853 3.134 1.043 4.166.703-.575-.141-1.206-.366-1.915-.703z" fill="#00b871"/><path d="m9 16.5v-2.5l-2.25-1.5v4c0 .966 2.798 1.75 6.25 1.75.385 0 .76-.011 1.125-.03-2.914-.148-5.125-.861-5.125-1.72z" fill="#d5dbe1"/><path d="m9 8.5c0-.859 2.211-1.572 5.125-1.72-.365-.019-.74-.03-1.125-.03-3.452 0-6.25.784-6.25 1.75s2.798 1.75 6.25 1.75c.385 0 .76-.011 1.125-.03-2.914-.148-5.125-.861-5.125-1.72z" fill="#d5dbe1"/><path d="m9 20.5v-2.5l-2.25-1.5v4c0 .966 2.798 1.75 6.25 1.75.385 0 .76-.011 1.125-.03-2.914-.148-5.125-.861-5.125-1.72z" fill="#00b871"/><path d="m9 12.5v-2.75l-2.25-1.25v4c0 .966 2.798 1.75 6.25 1.75.385 0 .76-.011 1.125-.03-2.914-.148-5.125-.861-5.125-1.72z" fill="#00b871"/><path d="m21.061 24.022-1.109-1.11c-.32-.32-.497-.745-.497-1.197s.177-.876.497-1.197c.32-.32.745-.496 1.196-.497h.001c.452 0 .877.176 1.196.497l.444.443-1.061 1.062-.444-.444c-.064-.064-.208-.064-.272 0-.064.063-.064.208 0 .271l1.109 1.11z"/><path d="m22.838 23.133-1.109-1.11c-.32-.319-.496-.744-.496-1.197 0-.451.176-.876.496-1.196.659-.66 1.734-.662 2.394-.001l.888.888-1.061 1.061-.888-.888c-.076-.076-.196-.076-.272.001-.063.064-.064.208-.001.271l1.11 1.111z"/><path d="m27.948 22.909-2.665-2.666c-.076-.075-.196-.076-.272.001s-.077.196-.001.272l.666.666-1.061 1.061-.666-.666c-.66-.661-.659-1.734.001-2.394.659-.658 1.733-.66 2.393-.001l2.664 2.664z"/><path d="m24.736 29.996c-1 0-2.151-.313-3.471-.94-1.371-.651-2.02-.625-2.448-.611-.381.012-.857.032-1.313-.423-.449-.449-.603-1.345.444-2.393.384-.384.846-.608 1.324-.727l-3.32-3.32c-.659-.66-.659-1.734.001-2.394s1.733-.659 2.394-.001l2.664 2.665-1.061 1.061-2.664-2.664c-.076-.075-.196-.076-.272.001-.076.076-.077.196-.001.272l4.542 4.542c.229.229.285.579.14.868-.146.288-.459.452-.78.404-.502-.075-1.423-.127-1.905.354-.101.101-.173.187-.224.256.545-.021 1.449-.04 3.124.756 2.796 1.329 3.896.716 4.482.14l.885-.885c1.091-1.09 1.86-2.857.456-4.261l-2.45-2.451c-.076-.075-.196-.076-.272.001s-.077.196-.001.272l-1.061 1.06c-.66-.66-.659-1.733.001-2.393.659-.658 1.733-.66 2.393-.001l2.442 2.443c1.781 1.782 1.6 4.345-.442 6.387l-.894.894c-.738.725-1.637 1.088-2.713 1.088z"/><path d="m13 11c-.717 0-7-.07-7-2.5s6.283-2.5 7-2.5 7 .07 7 2.5-6.283 2.5-7 2.5zm-5.436-2.5c.471.401 2.447 1 5.436 1s4.965-.599 5.436-1c-.471-.401-2.447-1-5.436-1s-4.965.599-5.436 1z"/><path d="m13 15c-.717 0-7-.07-7-2.5h1.5c.219.299 2.268 1 5.5 1s5.281-.701 5.521-1.094l1.479.094c0 2.43-6.283 2.5-7 2.5z"/><path d="m13 19c-.717 0-7-.07-7-2.5h1.5c0-.049-.015-.083-.02-.092.238.392 2.285 1.092 5.52 1.092.387 0 .754-.009 1.121-.029l.078 1.498c-.392.021-.785.031-1.199.031z"/><path d="m18.5 8.5h1.5v8.5h-1.5z"/><path d="m13 23c-.717 0-7-.07-7-2.5v-12h1.5v12c.218.3 2.265 1 5.5 1 .312 0 .623-.01.926-.02l.049 1.499c-.319.011-.646.021-.975.021z"/></svg>