<svg id="_x31__x2C_5" enable-background="new 0 0 36 36" height="512" viewBox="0 0 36 36" width="512" xmlns="http://www.w3.org/2000/svg"><path d="m8.377 31.833c6.917 0 11.667 3.583 15 3.583s10.333-1.916 10.333-17.249-9.417-17.584-13.083-17.584c-17.167 0-24.5 31.25-12.25 31.25z" fill="#efefef"/><g fill="#a4afc1"><path d="m6.033 2.467h2v1h-2z" transform="matrix(.707 -.707 .707 .707 -.038 5.842)"/><path d="m1.967 6.533h2v1h-2z" transform="matrix(.707 -.707 .707 .707 -4.104 4.158)"/><path d="m2.644 1.967h1v2h-1z" transform="matrix(.707 -.707 .707 .707 -1.177 3.092)"/></g><path d="m29.25 27c0 1.243-5.037 2.25-11.25 2.25s-11.25-1.007-11.25-2.25v-9h22.5z" fill="#f3f3f1"/><path d="m29.25 18c0 1.243-5.037 2.25-11.25 2.25s-11.25-1.007-11.25-2.25v-9h22.5z" fill="#2fdf84"/><ellipse cx="18" cy="9" fill="#f3f3f1" rx="11.25" ry="2.25"/><path d="m9 27v-9h-2.25v9c0 1.243 5.037 2.25 11.25 2.25.38 0 .755-.004 1.125-.011-5.685-.113-10.125-1.072-10.125-2.239z" fill="#d5dbe1"/><path d="m9 9c0-1.167 4.44-2.126 10.125-2.239-.37-.007-.745-.011-1.125-.011-6.213 0-11.25 1.007-11.25 2.25s5.037 2.25 11.25 2.25c.38 0 .755-.004 1.125-.011-5.685-.113-10.125-1.072-10.125-2.239z" fill="#d5dbe1"/><path d="m9 18v-7.75l-2.25-1.25v9c0 1.243 5.037 2.25 11.25 2.25.38 0 .755-.004 1.125-.011-5.685-.113-10.125-1.072-10.125-2.239z" fill="#00b871"/><path d="m18 12c-1.228 0-12-.084-12-3s10.772-3 12-3 12 .084 12 3-10.772 3-12 3zm-10.412-3c.732.568 4.245 1.5 10.412 1.5s9.68-.932 10.412-1.5c-.732-.568-4.245-1.5-10.412-1.5s-9.68.932-10.412 1.5z"/><path d="m18 21c-1.228 0-12-.084-12-3h1.5c0-.062-.019-.104-.027-.116.358.546 3.918 1.616 10.527 1.616s10.169-1.07 10.527-1.616c-.008.012-.027.054-.027.116h1.5c0 2.916-10.772 3-12 3z"/><path d="m18 30c-1.228 0-12-.084-12-3v-18h1.5v17.919c.481.556 4.03 1.581 10.5 1.581s10.019-1.025 10.5-1.581v-17.919h1.5v18c0 2.916-10.772 3-12 3z"/><circle cx="11.5" cy="15.5" r="1.5"/><circle cx="11.5" cy="24.5" r="1.5"/></svg>