<svg id="_x31__x2C_5" enable-background="new 0 0 36 36" height="512" viewBox="0 0 36 36" width="512" xmlns="http://www.w3.org/2000/svg"><path d="m8.377 31.833c6.917 0 11.667 3.583 15 3.583s10.333-1.916 10.333-17.249-9.417-17.584-13.083-17.584c-17.167 0-24.5 31.25-12.25 31.25z" fill="#efefef"/><path d="m28.5 12c-.827 0-1.5-.673-1.5-1.5s.673-1.5 1.5-1.5 1.5.673 1.5 1.5-.673 1.5-1.5 1.5zm0-2c-.276 0-.5.225-.5.5s.224.5.5.5.5-.225.5-.5-.224-.5-.5-.5z" fill="#a4afc1"/><path d="m19.25 20.5c0 .966-2.798 1.75-6.25 1.75s-6.25-.784-6.25-1.75v-4h12.5z" fill="#2fdf84"/><path d="m19.25 16.5c0 .966-2.798 1.75-6.25 1.75s-6.25-.784-6.25-1.75v-4h12.5z" fill="#f3f3f1"/><path d="m19.25 12.5c0 .966-2.798 1.75-6.25 1.75s-6.25-.784-6.25-1.75v-4h12.5z" fill="#2fdf84"/><ellipse cx="13" cy="8.5" fill="#f3f3f1" rx="6.25" ry="1.75"/><path d="m28.25 29.25h-8.5c-.552 0-1-.448-1-1v-8.5c0-.552.448-1 1-1h8.5c.552 0 1 .448 1 1v8.5c0 .552-.448 1-1 1z" fill="#f3f3f1"/><path d="m21.75 21.75v4.5l4.5-2.25z" fill="#2fdf84"/><g fill="#d5dbe1"><path d="m9 16.5v-2.75l-2.25-1.25v4c0 .966 2.798 1.75 6.25 1.75.385 0 .76-.011 1.125-.03-2.914-.148-5.125-.861-5.125-1.72z"/><path d="m9 8.5c0-.859 2.211-1.572 5.125-1.72-.365-.019-.74-.03-1.125-.03-3.452 0-6.25.784-6.25 1.75s2.798 1.75 6.25 1.75c.385 0 .76-.011 1.125-.03-2.914-.148-5.125-.861-5.125-1.72z"/><path d="m21 28.25v-8.5c0-.552.448-1 1-1h-2.25c-.552 0-1 .448-1 1v8.5c0 .552.448 1 1 1h2.25c-.552 0-1-.448-1-1z"/></g><path d="m9 20.5v-2.75l-2.25-1.25v4c0 .966 2.798 1.75 6.25 1.75.385 0 .76-.011 1.125-.03-2.914-.148-5.125-.861-5.125-1.72z" fill="#00b871"/><path d="m9 12.5v-2.75l-2.25-1.25v4c0 .966 2.798 1.75 6.25 1.75.385 0 .76-.011 1.125-.03-2.914-.148-5.125-.861-5.125-1.72z" fill="#00b871"/><path d="m24 22.875-2.25-1.125v4.5l2.25-1.125z" fill="#00b871"/><path d="m28.25 30h-8.5c-.965 0-1.75-.785-1.75-1.75v-8.5c0-.965.785-1.75 1.75-1.75h8.5c.965 0 1.75.785 1.75 1.75v8.5c0 .965-.785 1.75-1.75 1.75zm-8.5-10.5c-.138 0-.25.112-.25.25v8.5c0 .138.112.25.25.25h8.5c.138 0 .25-.112.25-.25v-8.5c0-.138-.112-.25-.25-.25z"/><path d="m21.75 27c-.137 0-.274-.037-.395-.112-.22-.137-.355-.378-.355-.638v-4.5c0-.26.135-.501.355-.638.222-.138.497-.149.73-.033l4.5 2.25c.254.127.415.387.415.671s-.161.544-.415.671l-4.5 2.25c-.106.053-.22.079-.335.079zm.75-4.036v2.072l2.073-1.036z"/><path d="m13 11c-.716 0-7-.07-7-2.5s6.284-2.5 7-2.5 7 .07 7 2.5-6.284 2.5-7 2.5zm-5.436-2.5c.47.4 2.446 1 5.436 1s4.966-.6 5.436-1c-.47-.4-2.446-1-5.436-1s-4.966.6-5.436 1z"/><path d="m13 15c-.716 0-7-.07-7-2.5h1.5c.218.299 2.267 1 5.5 1s5.282-.701 5.52-1.094l1.48.094c0 2.43-6.284 2.5-7 2.5z"/><path d="m13 19c-.716 0-7-.07-7-2.5h1.5c0-.049-.014-.083-.02-.093.238.393 2.285 1.093 5.52 1.093.887 0 1.742-.05 2.474-.145l.192 1.488c-.806.104-1.703.157-2.666.157z"/><path d="m18.5 8.5h1.5v7.5h-1.5z"/><path d="m13 23c-.716 0-7-.07-7-2.5v-12h1.5v12c.218.3 2.265 1 5.5 1 .739 0 1.471-.036 2.175-.106l.149 1.492c-.753.076-1.535.114-2.324.114z"/></svg>