<svg id="_x31__x2C_5" enable-background="new 0 0 36 36" height="512" viewBox="0 0 36 36" width="512" xmlns="http://www.w3.org/2000/svg"><path d="m4.167 27.623c0-6.917-3.583-11.667-3.583-15s1.916-10.333 17.249-10.333 17.583 9.417 17.583 13.083c.001 17.167-31.249 24.5-31.249 12.25z" fill="#efefef"/><path d="m5.5 9c-.827 0-1.5-.673-1.5-1.5s.673-1.5 1.5-1.5 1.5.673 1.5 1.5-.673 1.5-1.5 1.5zm0-2c-.276 0-.5.224-.5.5s.224.5.5.5.5-.224.5-.5-.224-.5-.5-.5z" fill="#a4afc1"/><path d="m15.75 25.75h4.5v3.5h-4.5z" fill="#2fdf84"/><path d="m11.75 20.5c0 .966 2.798 1.75 6.25 1.75s6.25-.784 6.25-1.75v-4h-12.5z" fill="#2fdf84"/><path d="m11.75 16.5c0 .966 2.798 1.75 6.25 1.75s6.25-.784 6.25-1.75v-4h-12.5z" fill="#f3f3f1"/><path d="m11.75 12.5c0 .966 2.798 1.75 6.25 1.75s6.25-.784 6.25-1.75v-4h-12.5z" fill="#2fdf84"/><ellipse cx="18" cy="8.5" fill="#f3f3f1" rx="6.25" ry="1.75"/><path d="m14 16.5v-3l-2.25-1v4c0 .966 2.798 1.75 6.25 1.75.385 0 .76-.011 1.125-.03-2.914-.148-5.125-.861-5.125-1.72z" fill="#d5dbe1"/><path d="m14 8.5c0-.859 2.211-1.572 5.125-1.72-.365-.019-.74-.03-1.125-.03-3.452 0-6.25.784-6.25 1.75s2.798 1.75 6.25 1.75c.385 0 .76-.011 1.125-.03-2.914-.148-5.125-.861-5.125-1.72z" fill="#d5dbe1"/><g fill="#00b871"><path d="m15.75 25.75h2.25v3.5h-2.25z"/><path d="m14 20.5v-2.5l-2.25-1.5v4c0 .966 2.798 1.75 6.25 1.75.385 0 .76-.011 1.125-.03-2.914-.148-5.125-.861-5.125-1.72z"/><path d="m14 12.5v-2.75l-2.25-1.25v4c0 .966 2.798 1.75 6.25 1.75.385 0 .76-.011 1.125-.03-2.914-.148-5.125-.861-5.125-1.72z"/></g><path d="m18 11c-.716 0-7-.07-7-2.5s6.284-2.5 7-2.5 7 .07 7 2.5-6.284 2.5-7 2.5zm-5.436-2.5c.471.401 2.447 1 5.436 1s4.965-.599 5.436-1c-.471-.401-2.447-1-5.436-1s-4.965.599-5.436 1z"/><path d="m18 15c-.716 0-7-.07-7-2.5h1.5c.218.299 2.268 1 5.5 1s5.282-.701 5.521-1.094l1.479.094c0 2.43-6.284 2.5-7 2.5z"/><path d="m18 19c-.716 0-7-.07-7-2.5h1.5c.218.299 2.268 1 5.5 1s5.282-.701 5.521-1.094l1.479.094c0 2.43-6.284 2.5-7 2.5z"/><path d="m18 23c-.716 0-7-.07-7-2.5v-12h1.5v12c.218.299 2.268 1 5.5 1s5.282-.701 5.521-1.094l-.021-11.906h1.5v12c0 2.43-6.284 2.5-7 2.5z"/><path d="m20.25 30h-4.5c-.414 0-.75-.336-.75-.75v-3.5c0-.414.336-.75.75-.75h4.5c.414 0 .75.336.75.75v3.5c0 .414-.336.75-.75.75zm-3.75-1.5h3v-2h-3z"/><path d="m15.75 28.25h-7c-1.517 0-2.75-1.233-2.75-2.75v-8.75c0-1.517 1.233-2.75 2.75-2.75h.25v1.5h-.25c-.689 0-1.25.561-1.25 1.25v8.75c0 .689.561 1.25 1.25 1.25h7z"/><path d="m27.25 28.25h-7v-1.5h7c.689 0 1.25-.561 1.25-1.25v-8.75c0-.689-.561-1.25-1.25-1.25h-.25v-1.5h.25c1.517 0 2.75 1.233 2.75 2.75v8.75c0 1.517-1.233 2.75-2.75 2.75z"/></svg>