<svg id="_x31__x2C_5" enable-background="new 0 0 36 36" height="512" viewBox="0 0 36 36" width="512" xmlns="http://www.w3.org/2000/svg"><path d="m4.167 8.377c0 6.917-3.583 11.667-3.583 15s1.916 10.333 17.249 10.333 17.583-9.417 17.583-13.083c.001-17.167-31.249-24.5-31.249-12.25z" fill="#efefef"/><path d="m3.5 6c-.827 0-1.5-.673-1.5-1.5s.673-1.5 1.5-1.5 1.5.673 1.5 1.5-.673 1.5-1.5 1.5zm0-2c-.276 0-.5.224-.5.5s.224.5.5.5.5-.224.5-.5-.224-.5-.5-.5z" fill="#a4afc1"/><path d="m29.25 20.75v6c0 1.243-5.037 2.25-11.25 2.25s-11.25-1.007-11.25-2.25v-6z" fill="#2fdf84"/><ellipse cx="18" cy="20.75" fill="#f3f3f1" rx="11.25" ry="2.25"/><path d="m26.25 15v7.53c-2.05.44-4.99.72-8.25.72s-6.2-.28-8.25-.72v-7.53z" fill="#f3f3f1"/><path d="m29.25 9v6c0 1.243-5.037 2.25-11.25 2.25s-11.25-1.007-11.25-2.25v-6z" fill="#2fdf84"/><ellipse cx="18" cy="9" fill="#f3f3f1" rx="11.25" ry="2.25"/><g fill="#d5dbe1"><path d="m12 22.53v-5.53l-2.25-.5v6.03c2.05.44 4.99.72 8.25.72.38 0 .755-.005 1.125-.012-2.807-.056-5.314-.319-7.125-.708z"/><path d="m9 20.75c0-.285.268-.556.75-.807v-.719c-1.856.401-3 .936-3 1.526 0 1.243 5.037 2.25 11.25 2.25.38 0 .755-.004 1.125-.011-5.685-.113-10.125-1.072-10.125-2.239z"/><path d="m9 9c0-1.167 4.44-2.126 10.125-2.239-.37-.007-.745-.011-1.125-.011-6.213 0-11.25 1.007-11.25 2.25s5.037 2.25 11.25 2.25c.38 0 .755-.004 1.125-.011-5.685-.113-10.125-1.072-10.125-2.239z"/></g><path d="m9 26.75v-4.25l-2.25-1.75v6c0 1.243 5.037 2.25 11.25 2.25.38 0 .755-.004 1.125-.011-5.685-.113-10.125-1.072-10.125-2.239z" fill="#00b871"/><path d="m9 15v-4.25l-2.25-1.75v6c0 1.243 5.037 2.25 11.25 2.25.38 0 .755-.004 1.125-.011-5.685-.113-10.125-1.072-10.125-2.239z" fill="#00b871"/><path d="m18 12c-1.228 0-12-.084-12-3s10.772-3 12-3 12 .084 12 3-10.772 3-12 3zm-10.412-3c.732.568 4.245 1.5 10.412 1.5s9.68-.932 10.412-1.5c-.732-.568-4.245-1.5-10.412-1.5s-9.68.932-10.412 1.5z"/><path d="m18 24c-1.228 0-12-.084-12-3 0-1.018 1.107-1.715 3.589-2.262l.322 1.465c-1.486.327-2.085.644-2.313.805.758.569 4.268 1.492 10.402 1.492s9.644-.923 10.401-1.493c-.227-.161-.827-.478-2.313-.805l.322-1.465c2.483.548 3.59 1.245 3.59 2.263 0 2.916-10.772 3-12 3z"/><path d="m9 16.16h1.5v6.84h-1.5z"/><path d="m25.5 16.16h1.5v6.84h-1.5z"/><circle cx="11" cy="26" r="1"/><circle cx="11" cy="14" r="1"/><path d="m18 18c-1.228 0-12-.084-12-3v-6h1.5v5.919c.481.556 4.03 1.581 10.5 1.581s10.019-1.025 10.5-1.581v-5.919h1.5v6c0 2.916-10.772 3-12 3z"/><path d="m18 30c-1.228 0-12-.084-12-3v-6h1.5v5.919c.481.556 4.03 1.581 10.5 1.581s10.019-1.025 10.5-1.581v-5.919h1.5v6c0 2.916-10.772 3-12 3z"/></svg>