<svg id="_x31__x2C_5" enable-background="new 0 0 36 36" height="512" viewBox="0 0 36 36" width="512" xmlns="http://www.w3.org/2000/svg"><path d="m8.377 31.833c6.917 0 11.667 3.583 15 3.583s10.333-1.916 10.333-17.249-9.417-17.584-13.083-17.584c-17.167 0-24.5 31.25-12.25 31.25z" fill="#efefef"/><path d="m2.5 16c-.827 0-1.5-.673-1.5-1.5s.673-1.5 1.5-1.5 1.5.673 1.5 1.5-.673 1.5-1.5 1.5zm0-2c-.275 0-.5.224-.5.5s.225.5.5.5.5-.224.5-.5-.225-.5-.5-.5z" fill="#a4afc1"/><path d="m27.25 18h-18.5c-1.105 0-2-.895-2-2v-5.25c0-1.105.895-2 2-2h18.5c1.105 0 2 .895 2 2v5.25c0 1.105-.895 2-2 2z" fill="#f3f3f1"/><path d="m27.25 27.25h-18.5c-1.105 0-2-.895-2-2v-5.25c0-1.105.895-2 2-2h18.5c1.105 0 2 .895 2 2v5.25c0 1.105-.895 2-2 2z" fill="#f3f3f1"/><circle cx="11" cy="13" fill="#2fdf84" r="1.25"/><circle cx="11" cy="23" fill="#2fdf84" r="1.25"/><path d="m9 16v-5.25c0-1.105.895-2 2-2h-2.25c-1.105 0-2 .895-2 2v5.25c0 1.105.895 2 2 2h2.25c-1.105 0-2-.895-2-2z" fill="#d5dbe1"/><path d="m9 25.25v-5.25c0-1.105.895-2 2-2h-2.25c-1.105 0-2 .895-2 2v5.25c0 1.105.895 2 2 2h2.25c-1.105 0-2-.895-2-2z" fill="#d5dbe1"/><path d="m12 13c0-.19.049-.365.125-.526-.2-.425-.625-.724-1.125-.724-.69 0-1.25.56-1.25 1.25s.56 1.25 1.25 1.25c.5 0 .925-.299 1.125-.724-.076-.161-.125-.336-.125-.526z" fill="#00b871"/><path d="m12 23c0-.19.049-.365.125-.526-.2-.425-.625-.724-1.125-.724-.69 0-1.25.56-1.25 1.25s.56 1.25 1.25 1.25c.5 0 .925-.299 1.125-.724-.076-.161-.125-.336-.125-.526z" fill="#00b871"/><path d="m27.25 18.75h-18.5c-1.517 0-2.75-1.233-2.75-2.75v-5.25c0-1.517 1.233-2.75 2.75-2.75h18.5c1.517 0 2.75 1.233 2.75 2.75v5.25c0 1.517-1.233 2.75-2.75 2.75zm-18.5-9.25c-.689 0-1.25.561-1.25 1.25v5.25c0 .689.561 1.25 1.25 1.25h18.5c.689 0 1.25-.561 1.25-1.25v-5.25c0-.689-.561-1.25-1.25-1.25z"/><path d="m27.25 28h-18.5c-1.517 0-2.75-1.233-2.75-2.75v-5.25c0-1.517 1.233-2.75 2.75-2.75h18.5c1.517 0 2.75 1.233 2.75 2.75v5.25c0 1.517-1.233 2.75-2.75 2.75zm-18.5-9.25c-.689 0-1.25.561-1.25 1.25v5.25c0 .689.561 1.25 1.25 1.25h18.5c.689 0 1.25-.561 1.25-1.25v-5.25c0-.689-.561-1.25-1.25-1.25z"/><path d="m11 15c-1.103 0-2-.897-2-2s.897-2 2-2 2 .897 2 2-.897 2-2 2zm0-2.5c-.275 0-.5.224-.5.5s.225.5.5.5.5-.224.5-.5-.225-.5-.5-.5z"/><path d="m11 25c-1.103 0-2-.897-2-2s.897-2 2-2 2 .897 2 2-.897 2-2 2zm0-2.5c-.275 0-.5.224-.5.5s.225.5.5.5.5-.224.5-.5-.225-.5-.5-.5z"/><circle cx="22" cy="23" r="1"/><circle cx="18" cy="23" r="1"/><circle cx="26" cy="23" r="1"/><circle cx="22" cy="13" r="1"/><circle cx="18" cy="13" r="1"/><circle cx="26" cy="13" r="1"/></svg>