<svg id="_x31__x2C_5" enable-background="new 0 0 36 36" height="512" viewBox="0 0 36 36" width="512" xmlns="http://www.w3.org/2000/svg"><path d="m31.833 27.623c0-6.917 3.583-11.667 3.583-15s-1.916-10.333-17.249-10.333-17.584 9.417-17.584 13.083c0 17.167 31.25 24.5 31.25 12.25z" fill="#efefef"/><path d="m13.375 3.25h1v2h-1z" fill="#a4afc1"/><path d="m10.125 6.25h2v1h-2z" fill="#a4afc1"/><path d="m20.25 27.5c0 .966-3.022 1.75-6.75 1.75s-6.75-.784-6.75-1.75v-4h13.5z" fill="#2fdf84"/><path d="m20.25 23.5c0 .966-3.022 1.75-6.75 1.75s-6.75-.784-6.75-1.75v-4h13.5z" fill="#f3f3f1"/><path d="m20.25 19.5c0 .966-3.022 1.75-6.75 1.75s-6.75-.784-6.75-1.75v-4h13.5z" fill="#2fdf84"/><ellipse cx="13.5" cy="15.5" fill="#f3f3f1" rx="6.75" ry="1.75"/><path d="m9 27.5v-2.75l-2.25-1.25v4c0 .966 3.022 1.75 6.75 1.75.384 0 .758-.01 1.125-.026-3.191-.139-5.625-.857-5.625-1.724z" fill="#00b871"/><path d="m9 23.5v-2.5l-2.25-1.5v4c0 .966 3.022 1.75 6.75 1.75.384 0 .758-.01 1.125-.026-3.191-.139-5.625-.857-5.625-1.724z" fill="#d5dbe1"/><path d="m9 19.5v-2.5l-2.25-1.5v4c0 .966 3.022 1.75 6.75 1.75.384 0 .758-.01 1.125-.026-3.191-.139-5.625-.857-5.625-1.724z" fill="#00b871"/><path d="m9 15.5c0-.867 2.434-1.585 5.625-1.724-.367-.016-.741-.026-1.125-.026-3.728 0-6.75.784-6.75 1.75s3.022 1.75 6.75 1.75c.384 0 .758-.01 1.125-.026-3.191-.139-5.625-.857-5.625-1.724z" fill="#d5dbe1"/><path d="m23.434 9.379-.98-1.135.567-.49c1.355-1.17 3.115-1.783 4.862-1.752l.75.017-.034 1.5-.749-.018c-1.419-.045-2.776.46-3.849 1.387z"/><path d="m20.502 14.151-.018-.75c-.041-1.781.581-3.508 1.752-4.864l.49-.567 1.135.98-.49.567c-.927 1.074-1.42 2.44-1.387 3.848l.018.75z"/><path d="m25.745 7.762h1.5v8.5h-1.5z" transform="matrix(.707 -.707 .707 .707 -.734 22.254)"/><ellipse cx="23.136" cy="8.654" rx="1.5" ry="1.5" transform="matrix(.707 -.707 .707 .707 .657 18.894)"/><path d="m13.5 18c-.768 0-7.5-.07-7.5-2.5s6.732-2.5 7.5-2.5c1.814 0 3.513.175 4.782.493l-.365 1.455c-1.152-.289-2.722-.448-4.417-.448-3.347 0-5.374.606-5.909 1 .535.394 2.563 1 5.909 1 2.873 0 4.972-.467 5.776-.93l.748 1.301c-1.211.696-3.711 1.129-6.524 1.129z"/><path d="m13.5 30c-.768 0-7.5-.07-7.5-2.5v-12h1.5v11.92c.346.385 2.416 1.08 6 1.08s5.654-.695 6-1.08v-11.42h1.5v11.5c0 2.43-6.732 2.5-7.5 2.5z"/><path d="m13.5 26c-.768 0-7.5-.07-7.5-2.5h1.5c0-.062-.02-.104-.027-.116.251.377 2.339 1.116 6.027 1.116s5.776-.739 6.027-1.116c-.007.012-.027.054-.027.116h1.5c0 2.43-6.732 2.5-7.5 2.5z"/><path d="m13.5 22c-.768 0-7.5-.07-7.5-2.5h1.5c0-.062-.02-.104-.027-.116.251.377 2.339 1.116 6.027 1.116s5.776-.739 6.027-1.116c-.007.012-.027.054-.027.116h1.5c0 2.43-6.732 2.5-7.5 2.5z"/></svg>