<svg id="_x31__x2C_5" enable-background="new 0 0 36 36" height="512" viewBox="0 0 36 36" width="512" xmlns="http://www.w3.org/2000/svg"><path d="m8.377 4.167c6.917 0 11.667-3.583 15-3.583s10.333 1.916 10.333 17.249-9.417 17.583-13.083 17.583c-17.167.001-24.5-31.249-12.25-31.249z" fill="#efefef"/><g fill="#a4afc1"><path d="m32.533 6.033h1v2h-1z" transform="matrix(.707 -.707 .707 .707 4.699 25.413)"/><path d="m28.467 1.967h1v2h-1z" transform="matrix(.707 -.707 .707 .707 6.383 21.348)"/><path d="m32.033 2.644h2v1h-2z" transform="matrix(.707 -.707 .707 .707 7.452 24.279)"/></g><path d="m29.25 14.25h-22.5v-5.5c0-1.105.895-2 2-2h18.5c1.105 0 2 .895 2 2z" fill="#f3f3f1"/><path d="m6.75 14.25h22.5v7.5h-22.5z" fill="#2fdf84"/><path d="m27.25 29.25h-18.5c-1.105 0-2-.895-2-2v-5.5h22.5v5.5c0 1.105-.895 2-2 2z" fill="#f3f3f1"/><path d="m11 6.75h-2.25c-1.105 0-2 .895-2 2v5.5h2.25v-5.5c0-1.105.895-2 2-2z" fill="#d5dbe1"/><path d="m9 27.25v-5.5h-2.25v5.5c0 1.105.895 2 2 2h2.25c-1.105 0-2-.895-2-2z" fill="#d5dbe1"/><path d="m6.75 14.25h2.25v7.5h-2.25z" fill="#00b871"/><path d="m29.25 15h-22.5c-.414 0-.75-.336-.75-.75v-5.5c0-1.517 1.233-2.75 2.75-2.75h18.5c1.517 0 2.75 1.233 2.75 2.75v5.5c0 .414-.336.75-.75.75zm-21.75-1.5h21v-4.75c0-.689-.561-1.25-1.25-1.25h-18.5c-.689 0-1.25.561-1.25 1.25z"/><path d="m29.25 22.5h-22.5c-.414 0-.75-.336-.75-.75v-7.5c0-.414.336-.75.75-.75h22.5c.414 0 .75.336.75.75v7.5c0 .414-.336.75-.75.75zm-21.75-1.5h21v-6h-21z"/><path d="m27.25 30h-18.5c-1.517 0-2.75-1.233-2.75-2.75v-5.5c0-.414.336-.75.75-.75h22.5c.414 0 .75.336.75.75v5.5c0 1.517-1.233 2.75-2.75 2.75zm-19.75-7.5v4.75c0 .689.561 1.25 1.25 1.25h18.5c.689 0 1.25-.561 1.25-1.25v-4.75z"/><circle cx="26" cy="26" r="1"/><circle cx="22" cy="26" r="1"/><circle cx="18" cy="26" r="1"/><circle cx="26" cy="18" r="1"/><circle cx="22" cy="18" r="1"/><circle cx="18" cy="18" r="1"/><circle cx="26" cy="11" r="1"/><circle cx="22" cy="11" r="1"/><circle cx="18" cy="11" r="1"/></svg>