<svg id="_x31__x2C_5" enable-background="new 0 0 36 36" height="512" viewBox="0 0 36 36" width="512" xmlns="http://www.w3.org/2000/svg"><path d="m27.623 31.833c-6.917 0-11.667 3.583-15 3.583s-10.333-1.916-10.333-17.249 9.417-17.584 13.083-17.584c17.167 0 24.5 31.25 12.25 31.25z" fill="#efefef"/><g fill="#a4afc1"><path d="m27.467 3.967h1v2h-1z" transform="matrix(.707 -.707 .707 .707 4.679 21.23)"/><path d="m31.533 8.033h1v2h-1z" transform="matrix(.707 -.707 .707 .707 2.995 25.297)"/><path d="m30.857 4.467h2v1h-2z" transform="matrix(.707 -.707 .707 .707 5.819 23.981)"/></g><path d="m23.25 8.75c0-1.1-.9-2-2-2h-12.5c-1.1 0-2 .9-2 2v5.25h16.5z" fill="#f3f3f1"/><path d="m6.75 14h16.5v7.75h-16.5z" fill="#2fdf84"/><path d="m23.25 27.25v-5.5h-16.5v5.5c0 1.105.895 2 2 2h12.5c1.105 0 2-.895 2-2z" fill="#f3f3f1"/><path d="m11 6.75h-2.25c-1.1 0-2 .9-2 2v5.25h2.25v-5.25c0-1.1.9-2 2-2z" fill="#d5dbe1"/><path d="m9 27.25v-5.5h-2.25v5.5c0 1.105.895 2 2 2h2.25c-1.105 0-2-.895-2-2z" fill="#d5dbe1"/><path d="m6.75 14h2.25v7.75h-2.25z" fill="#00b871"/><path d="m26.875 25.75h-2.125c-.414 0-.75-.336-.75-.75v-2.75c0-.414.336-.75.75-.75h2.125c1.172 0 2.125.953 2.125 2.125s-.953 2.125-2.125 2.125zm-1.375-1.5h1.375c.345 0 .625-.28.625-.625s-.28-.625-.625-.625h-1.375z"/><path d="m27.875 28.5h-3.125c-.414 0-.75-.336-.75-.75v-2.75c0-.414.336-.75.75-.75h3.125c1.172 0 2.125.953 2.125 2.125s-.953 2.125-2.125 2.125zm-2.375-1.5h2.375c.345 0 .625-.28.625-.625s-.28-.625-.625-.625h-2.375z"/><path d="m25.5 20h1.5v2.75h-1.5z"/><path d="m25.5 27.25h1.5v2.75h-1.5z"/><path d="m22 30h-13.25c-1.517 0-2.75-1.233-2.75-2.75v-18.5c0-1.517 1.233-2.75 2.75-2.75h12.5c1.517 0 2.75 1.233 2.75 2.75v11.25h-1.5v-11.25c0-.689-.561-1.25-1.25-1.25h-12.5c-.689 0-1.25.561-1.25 1.25v18.5c0 .689.561 1.25 1.25 1.25h13.25z"/><path d="m6.75 13.5h16.5v1.5h-16.5z"/><path d="m6.5 21h15.54v1.5h-15.54z"/><circle cx="19" cy="11" r="1"/><circle cx="15" cy="11" r="1"/><circle cx="11" cy="11" r="1"/></svg>