<svg id="_x31__x2C_5" enable-background="new 0 0 36 36" height="512" viewBox="0 0 36 36" width="512" xmlns="http://www.w3.org/2000/svg"><path d="m31.833 8.377c0 6.917 3.583 11.667 3.583 15s-1.916 10.333-17.249 10.333-17.584-9.417-17.584-13.083c0-17.167 31.25-24.5 31.25-12.25z" fill="#efefef"/><g fill="#a4afc1"><path d="m27.467 8.967h1v2h-1z" transform="matrix(.707 -.707 .707 .707 1.144 22.695)"/><path d="m31.533 13.033h1v2h-1z" transform="matrix(.707 -.707 .707 .707 -.541 26.761)"/><path d="m30.857 9.467h2v1h-2z" transform="matrix(.707 -.707 .707 .707 2.283 25.445)"/></g><path d="m23.25 8.75c0-1.1-.9-2-2-2h-12.5c-1.1 0-2 .9-2 2v5.25h16.5z" fill="#f3f3f1"/><path d="m6.75 14h16.5v7.75h-16.5z" fill="#2fdf84"/><path d="m23.25 27.25v-5.5h-16.5v5.5c0 1.105.895 2 2 2h12.5c1.105 0 2-.895 2-2z" fill="#f3f3f1"/><ellipse cx="23" cy="24.25" fill="#2fdf84" rx="3.947" ry="5"/><path d="m24.675 19.25c.36-.265.575-.615.575-1 0-.83-1.005-1.5-2.25-1.5s-2.25.67-2.25 1.5c0 .385.215.735.575 1z" fill="#2fdf84"/><path d="m11 6.75h-2.25c-1.1 0-2 .9-2 2v5.25h2.25v-5.25c0-1.1.9-2 2-2z" fill="#d5dbe1"/><path d="m9 27.25v-5.5h-2.25v5.5c0 1.105.895 2 2 2h2.25c-1.105 0-2-.895-2-2z" fill="#d5dbe1"/><path d="m6.75 14h2.25v7.75h-2.25z" fill="#00b871"/><path d="m21.303 24.25c0-2.263 1.194-4.152 2.822-4.769-.359-.136-.731-.231-1.125-.231-2.18 0-3.947 2.239-3.947 5s1.767 5 3.947 5c.394 0 .766-.095 1.125-.231-1.628-.617-2.822-2.506-2.822-4.769z" fill="#00b871"/><path d="m23 18.25c0-.555.455-1.033 1.125-1.293-.332-.128-.713-.207-1.125-.207-1.245 0-2.25.67-2.25 1.5 0 .385.215.735.575 1h2.25c-.36-.265-.575-.615-.575-1z" fill="#00b871"/><path d="m14 30h-5.25c-1.517 0-2.75-1.233-2.75-2.75v-18.5c0-1.517 1.233-2.75 2.75-2.75h12.5c1.517 0 2.75 1.233 2.75 2.75v4.25h-1.5v-4.25c0-.689-.561-1.25-1.25-1.25h-12.5c-.689 0-1.25.561-1.25 1.25v18.5c0 .689.561 1.25 1.25 1.25h5.25z"/><path d="m6.5 13.5h12.5v1.5h-12.5z"/><path d="m6.5 21h7.5v1.5h-7.5z"/><circle cx="19" cy="11" r="1"/><circle cx="15" cy="11" r="1"/><circle cx="11" cy="11" r="1"/><path d="m23 30c-2.59 0-4.697-2.579-4.697-5.75s2.107-5.75 4.697-5.75 4.697 2.579 4.697 5.75-2.107 5.75-4.697 5.75zm0-10c-1.763 0-3.197 1.906-3.197 4.25s1.434 4.25 3.197 4.25 3.197-1.906 3.197-4.25-1.434-4.25-3.197-4.25z"/><path d="m26.5 23h3.5v1.5h-3.5z"/><path d="m16 23h3.5v1.5h-3.5z"/><path d="m17.38 27.105h3.29v1.499h-3.29z" transform="matrix(.776 -.631 .631 .776 -13.312 18.255)"/><path d="m25.109 19.49h3.552v1.5h-3.552z" transform="matrix(.766 -.643 .643 .766 -6.719 22.037)"/><path d="m18.365 18.464h1.5v3.552h-1.5z" transform="matrix(.643 -.766 .766 .643 -8.678 21.85)"/><path d="m26.225 26.21h1.499v3.29h-1.499z" transform="matrix(.631 -.776 .776 .631 -11.656 31.207)"/><path d="m25.119 19.854-.889-1.209c.101-.074.27-.224.27-.396 0-.306-.584-.75-1.5-.75s-1.5.444-1.5.75c0 .172.169.321.27.396l-.889 1.209c-.568-.416-.881-.987-.881-1.604 0-1.262 1.317-2.25 3-2.25s3 .988 3 2.25c0 .617-.312 1.188-.881 1.604z"/><path d="m22.25 19.511h1.5v9.489h-1.5z"/></svg>