<svg id="_x31__x2C_5" enable-background="new 0 0 36 36" height="512" viewBox="0 0 36 36" width="512" xmlns="http://www.w3.org/2000/svg"><path d="m4.167 8.377c0 6.917-3.583 11.667-3.583 15s1.916 10.333 17.249 10.333 17.583-9.417 17.583-13.083c.001-17.167-31.249-24.5-31.249-12.25z" fill="#efefef"/><g fill="#a4afc1"><path d="m32.857 11.467h2v1h-2z" transform="matrix(.707 -.707 .707 .707 1.455 27.445)"/><path d="m33.533 15.033h1v2h-1z" transform="matrix(.707 -.707 .707 .707 -1.369 28.761)"/><path d="m29.467 10.967h1v2h-1z" transform="matrix(.707 -.707 .707 .707 .315 24.695)"/></g><path d="m23.25 8.75c0-1.1-.9-2-2-2h-12.5c-1.1 0-2 .9-2 2v5.25h16.5z" fill="#f3f3f1"/><path d="m6.75 14h16.5v7.75h-16.5z" fill="#2fdf84"/><path d="m23.25 27.25v-5.5h-16.5v5.5c0 1.105.895 2 2 2h12.5c1.105 0 2-.895 2-2z" fill="#f3f3f1"/><path d="m24 29.25s5.25-2.232 5.25-6.696c0-1.786 0-4.018 0-4.018l-5.25-1.786-5.25 1.786v4.018c0 4.464 5.25 6.696 5.25 6.696z" fill="#2fdf84"/><path d="m11 6.75h-2.25c-1.1 0-2 .9-2 2v5.25h2.25v-5.25c0-1.1.9-2 2-2z" fill="#d5dbe1"/><path d="m9 27.25v-5.5h-2.25v5.5c0 1.105.895 2 2 2h2.25c-1.105 0-2-.895-2-2z" fill="#d5dbe1"/><path d="m6.75 14h2.25v7.75h-2.25z" fill="#00b871"/><path d="m21 22.554c0-2.679 0-4.018 0-4.018l4.125-1.403-1.125-.383-5.25 1.786v4.018c0 4.464 5.25 6.696 5.25 6.696s.471-.203 1.125-.599c-1.542-.934-4.125-2.963-4.125-6.097z" fill="#00b871"/><path d="m24 30c-.1 0-.2-.02-.294-.06-.232-.099-5.706-2.483-5.706-7.386v-4.018c0-.321.204-.606.509-.71l5.25-1.786c.156-.053.326-.053.482 0l5.25 1.786c.305.104.509.389.509.71v4.018c0 4.903-5.474 7.287-5.706 7.387-.094.039-.194.059-.294.059zm-4.5-10.927v3.48c0 3.333 3.456 5.337 4.5 5.865 1.044-.528 4.5-2.532 4.5-5.865v-3.48l-4.5-1.531z"/><path d="m23.75 25.5c-.198 0-.39-.078-.53-.22l-2-2 1.061-1.061 1.389 1.389 2.48-3.308 1.199.9-3 4c-.13.174-.329.282-.547.298-.017.001-.034.002-.052.002z"/><path d="m19 30h-10.25c-1.517 0-2.75-1.233-2.75-2.75v-18.5c0-1.517 1.233-2.75 2.75-2.75h12.5c1.517 0 2.75 1.233 2.75 2.75v5.25h-1.5v-5.25c0-.689-.561-1.25-1.25-1.25h-12.5c-.689 0-1.25.561-1.25 1.25v18.5c0 .689.561 1.25 1.25 1.25h10.25z"/><path d="m6 13.5h15v1.5h-15z"/><path d="m6 21h10v1.5h-10z"/><circle cx="19" cy="11" r="1"/><circle cx="15" cy="11" r="1"/><circle cx="11" cy="11" r="1"/></svg>