<svg id="_x31__x2C_5" enable-background="new 0 0 36 36" height="512" viewBox="0 0 36 36" width="512" xmlns="http://www.w3.org/2000/svg"><path d="m31.833 27.623c0-6.917 3.583-11.667 3.583-15s-1.916-10.333-17.249-10.333-17.584 9.417-17.584 13.083c0 17.167 31.25 24.5 31.25 12.25z" fill="#efefef"/><path d="m30.5 14c-.827 0-1.5-.673-1.5-1.5s.673-1.5 1.5-1.5 1.5.673 1.5 1.5-.673 1.5-1.5 1.5zm0-2c-.276 0-.5.225-.5.5s.224.5.5.5.5-.225.5-.5-.224-.5-.5-.5z" fill="#a4afc1"/><path d="m23.25 8.75c0-1.1-.9-2-2-2h-12.5c-1.1 0-2 .9-2 2v5.25h16.5z" fill="#f3f3f1"/><path d="m6.75 14h16.5v7.75h-16.5z" fill="#2fdf84"/><path d="m23.25 27.25v-5.5h-16.5v5.5c0 1.105.895 2 2 2h12.5c1.105 0 2-.895 2-2z" fill="#f3f3f1"/><path d="m11 6.75h-2.25c-1.1 0-2 .9-2 2v5.25h2.25v-5.25c0-1.1.9-2 2-2z" fill="#d5dbe1"/><path d="m9 27.25v-5.5h-2.25v5.5c0 1.105.895 2 2 2h2.25c-1.105 0-2-.895-2-2z" fill="#d5dbe1"/><path d="m6.75 14h2.25v7.75h-2.25z" fill="#00b871"/><path d="m19.75 19.5h1.5v10.5h-1.5z"/><path d="m26.5 30c-.192 0-.384-.073-.53-.22l-3.28-3.28 1.061-1.061 2.75 2.75 2.75-2.75 1.061 1.061-3.28 3.28c-.148.147-.34.22-.532.22z"/><path d="m25.75 19h1.5v10.5h-1.5z"/><path d="m23.25 23.561-2.75-2.75-2.75 2.75-1.061-1.061 3.28-3.28c.293-.293.768-.293 1.061 0l3.28 3.28z"/><path d="m17 30h-8.25c-1.517 0-2.75-1.233-2.75-2.75v-18.5c0-1.517 1.233-2.75 2.75-2.75h12.5c1.517 0 2.75 1.233 2.75 2.75v9.25h-1.5v-9.25c0-.689-.561-1.25-1.25-1.25h-12.5c-.689 0-1.25.561-1.25 1.25v18.5c0 .689.561 1.25 1.25 1.25h8.25z"/><path d="m6.75 13.5h16.5v1.5h-16.5z"/><path d="m6.5 21h8.5v1.5h-8.5z"/><circle cx="19" cy="11" r="1"/><circle cx="15" cy="11" r="1"/><circle cx="11" cy="11" r="1"/></svg>