<svg id="_x31__x2C_5" enable-background="new 0 0 36 36" height="512" viewBox="0 0 36 36" width="512" xmlns="http://www.w3.org/2000/svg"><path d="m8.377 31.833c6.917 0 11.667 3.583 15 3.583s10.333-1.916 10.333-17.249-9.417-17.584-13.083-17.584c-17.167 0-24.5 31.25-12.25 31.25z" fill="#efefef"/><path d="m3.5 6c-.827 0-1.5-.673-1.5-1.5s.673-1.5 1.5-1.5 1.5.673 1.5 1.5-.673 1.5-1.5 1.5zm0-2c-.275 0-.5.225-.5.5s.225.5.5.5.5-.225.5-.5-.225-.5-.5-.5z" fill="#a4afc1"/><path d="m23.25 8.75c0-1.1-.9-2-2-2h-12.5c-1.1 0-2 .9-2 2v5.25h16.5z" fill="#f3f3f1"/><path d="m6.75 14h16.5v7.75h-16.5z" fill="#2fdf84"/><path d="m23.25 27.25v-5.5h-16.5v5.5c0 1.105.895 2 2 2h12.5c1.105 0 2-.895 2-2z" fill="#f3f3f1"/><path d="m21.601 28.58-3.351.67.67-3.351 7.372-7.372c.37-.37.97-.37 1.34 0l1.34 1.34c.37.37.37.97 0 1.34z" fill="#2fdf84"/><path d="m11 6.75h-2.25c-1.1 0-2 .9-2 2v5.25h2.25v-5.25c0-1.1.9-2 2-2z" fill="#d5dbe1"/><path d="m9 27.25v-5.5h-2.25v5.5c0 1.105.895 2 2 2h2.25c-1.105 0-2-.895-2-2z" fill="#d5dbe1"/><path d="m6.75 14h2.25v7.75h-2.25z" fill="#00b871"/><path d="m21.17 25.899 6.917-6.917-.455-.455c-.37-.37-.97-.37-1.34 0l-7.372 7.372-.67 3.351 2.344-.469z" fill="#00b871"/><path d="m18.25 30c-.197 0-.389-.077-.53-.22-.178-.178-.254-.432-.205-.678l.67-3.351c.029-.145.101-.278.205-.383l7.372-7.372c.662-.662 1.738-.662 2.4 0l1.341 1.341c.662.662.662 1.738 0 2.4l-7.372 7.372c-.104.104-.238.176-.383.205l-3.351.67c-.049.011-.098.016-.147.016zm1.36-3.73-.404 2.024 2.024-.404 7.212-7.212c.077-.077.077-.202 0-.279l-1.341-1.341c-.076-.076-.203-.076-.279 0z"/><path d="m15.5 30h-6.75c-1.517 0-2.75-1.233-2.75-2.75v-18.5c0-1.517 1.233-2.75 2.75-2.75h12.5c1.517 0 2.75 1.233 2.75 2.75v8.25h-1.5v-8.25c0-.689-.561-1.25-1.25-1.25h-12.5c-.689 0-1.25.561-1.25 1.25v18.5c0 .689.561 1.25 1.25 1.25h6.75z"/><path d="m7.25 13.5h15.5v1.5h-15.5z"/><path d="m6.5 21h12.5v1.5h-12.5z"/><circle cx="19" cy="11" r="1"/><circle cx="15" cy="11" r="1"/><circle cx="11" cy="11" r="1"/></svg>