<svg id="_x31__x2C_5" enable-background="new 0 0 36 36" height="512" viewBox="0 0 36 36" width="512" xmlns="http://www.w3.org/2000/svg"><path d="m4.167 27.623c0-6.917-3.583-11.667-3.583-15s1.916-10.333 17.249-10.333 17.583 9.417 17.583 13.083c.001 17.167-31.249 24.5-31.249 12.25z" fill="#efefef"/><path d="m31.5 13c-.827 0-1.5-.673-1.5-1.5s.673-1.5 1.5-1.5 1.5.673 1.5 1.5-.673 1.5-1.5 1.5zm0-2c-.275 0-.5.225-.5.5s.225.5.5.5.5-.225.5-.5-.225-.5-.5-.5z" fill="#a4afc1"/><path d="m23.25 8.75c0-1.1-.9-2-2-2h-12.5c-1.1 0-2 .9-2 2v5.25h16.5z" fill="#f3f3f1"/><path d="m6.75 14h16.5v7.75h-16.5z" fill="#2fdf84"/><path d="m23.25 27.25v-5.5h-16.5v5.5c0 1.105.895 2 2 2h12.5c1.105 0 2-.895 2-2z" fill="#f3f3f1"/><path d="m23.75 24 2.75-5.25 2.75 5.25-2.75 5.25z" fill="#2fdf84"/><path d="m11 6.75h-2.25c-1.1 0-2 .9-2 2v5.25h2.25v-5.25c0-1.1.9-2 2-2z" fill="#d5dbe1"/><path d="m9 27.25v-5.5h-2.25v5.5c0 1.105.895 2 2 2h2.25c-1.105 0-2-.895-2-2z" fill="#d5dbe1"/><path d="m6.75 14h2.25v7.75h-2.25z" fill="#00b871"/><path d="m26 24 1.625-3.102-1.125-2.148-2.75 5.25 2.75 5.25 1.125-2.148z" fill="#00b871"/><path d="m23 30h-14.25c-1.517 0-2.75-1.233-2.75-2.75v-18.5c0-1.517 1.233-2.75 2.75-2.75h12.5c1.517 0 2.75 1.233 2.75 2.75v9.25h-1.5v-9.25c0-.689-.561-1.25-1.25-1.25h-12.5c-.689 0-1.25.561-1.25 1.25v18.5c0 .689.561 1.25 1.25 1.25h14.25z"/><path d="m6.75 13.5h16.5v1.5h-16.5z"/><path d="m6.5 21h15.5v1.5h-15.5z"/><circle cx="19" cy="11" r="1"/><circle cx="15" cy="11" r="1"/><circle cx="11" cy="11" r="1"/><path d="m26.5 26c-.105 0-.212-.022-.311-.067l-2.75-1.25c-.188-.085-.332-.244-.398-.439-.067-.194-.051-.408.045-.591l2.75-5.25c.258-.494 1.07-.494 1.328 0l2.75 5.25c.096.183.112.396.045.591-.066.195-.211.354-.398.439l-2.75 1.25c-.099.045-.206.067-.311.067zm-1.718-2.354 1.718.78 1.718-.78-1.718-3.28z"/><path d="m26.5 30c-.279 0-.535-.155-.664-.402l-2.75-5.25 1.328-.695 2.086 3.981 2.086-3.981 1.328.695-2.75 5.25c-.129.247-.385.402-.664.402z"/></svg>