<svg id="_x31__x2C_5" enable-background="new 0 0 36 36" height="512" viewBox="0 0 36 36" width="512" xmlns="http://www.w3.org/2000/svg"><path d="m4.167 27.623c0-6.917-3.583-11.667-3.583-15s1.916-10.333 17.249-10.333 17.583 9.417 17.583 13.083c.001 17.167-31.249 24.5-31.249 12.25z" fill="#efefef"/><path d="m4.375 3.25h1v2h-1z" fill="#a4afc1"/><path d="m1.125 6.25h2v1h-2z" fill="#a4afc1"/><path d="m26 24.25h-16c-1.795 0-3.25-1.455-3.25-3.25 0-1.795 1.455-3.25 3.25-3.25h16c1.795 0 3.25 1.455 3.25 3.25 0 1.795-1.455 3.25-3.25 3.25z" fill="#2fdf84"/><path d="m26 14.25h-16c-1.795 0-3.25-1.455-3.25-3.25 0-1.795 1.455-3.25 3.25-3.25h16c1.795 0 3.25 1.455 3.25 3.25 0 1.795-1.455 3.25-3.25 3.25z" fill="#f3f3f1"/><path d="m9 11c0-1.795 1.455-3.25 3.25-3.25h-2.25c-1.795 0-3.25 1.455-3.25 3.25s1.455 3.25 3.25 3.25h2.25c-1.795 0-3.25-1.455-3.25-3.25z" fill="#d5dbe1"/><path d="m9 21c0-1.795 1.455-3.25 3.25-3.25h-2.25c-1.795 0-3.25 1.455-3.25 3.25s1.455 3.25 3.25 3.25h2.25c-1.795 0-3.25-1.455-3.25-3.25z" fill="#00b871"/><path d="m26 25h-16c-2.206 0-4-1.794-4-4s1.794-4 4-4h16c2.206 0 4 1.794 4 4s-1.794 4-4 4zm-16-6.5c-1.379 0-2.5 1.122-2.5 2.5s1.121 2.5 2.5 2.5h16c1.379 0 2.5-1.122 2.5-2.5s-1.121-2.5-2.5-2.5z"/><path d="m26 15h-16c-2.206 0-4-1.794-4-4s1.794-4 4-4h16c2.206 0 4 1.794 4 4s-1.794 4-4 4zm-16-6.5c-1.379 0-2.5 1.122-2.5 2.5s1.121 2.5 2.5 2.5h16c1.379 0 2.5-1.122 2.5-2.5s-1.121-2.5-2.5-2.5z"/><path d="m17.25 24.5h1.5v3.75h-1.5z"/><path d="m11 27.5h14v1.5h-14z"/><path d="m17.25 14.5h1.5v3h-1.5z"/><path d="m10 10.25h4v1.5h-4z"/><path d="m10 20.25h4v1.5h-4z"/><circle cx="18" cy="21" r="1"/><circle cx="22" cy="21" r="1"/><circle cx="26" cy="21" r="1"/><circle cx="18" cy="11" r="1"/><circle cx="22" cy="11" r="1"/><circle cx="26" cy="11" r="1"/></svg>