<svg id="_x31__x2C_5" enable-background="new 0 0 36 36" height="512" viewBox="0 0 36 36" width="512" xmlns="http://www.w3.org/2000/svg"><path d="m31.833 27.623c0-6.917 3.583-11.667 3.583-15s-1.916-10.333-17.249-10.333-17.584 9.417-17.584 13.083c0 17.167 31.25 24.5 31.25 12.25z" fill="#efefef"/><g fill="#a4afc1"><path d="m27.467 9.467h1v2h-1z" transform="matrix(.707 -.707 .707 .707 .792 22.846)"/><path d="m31.533 13.533h1v2h-1z" transform="matrix(.707 -.707 .707 .707 -.892 26.913)"/><path d="m30.856 9.967h2v1h-2z" transform="matrix(.707 -.707 .707 .707 1.929 25.591)"/></g><path d="m23.25 8.75c0-1.1-.9-2-2-2h-12.5c-1.1 0-2 .9-2 2v5.25h16.5z" fill="#f3f3f1"/><path d="m6.75 14h16.5v7.75h-16.5z" fill="#2fdf84"/><path d="m23.25 27.25v-5.5h-16.5v5.5c0 1.105.895 2 2 2h12.5c1.105 0 2-.895 2-2z" fill="#f3f3f1"/><path d="m27.34 22.75h-2.5s.47-.7.47-1.87c0-1.4-.7-2.11-1.17-2.11-.46 0-.95.48-.95 1.65 0 1.228-1.447 2.401-2.091 2.833-.174-.295-.481-.503-.849-.503h-.5c-.552 0-1 .448-1 1v4.5c0 .552.448 1 1 1h.5c.55 0 1-.45 1-1v-.01c.56.32 2.31 1.01 4.99 1.01h.51c.94 0 1.79-.68 1.94-1.6.01 0 .56-2.72.56-2.99 0-1.03-.84-1.91-1.91-1.91z" fill="#2fdf84"/><path d="m11 6.75h-2.25c-1.1 0-2 .9-2 2v5.25h2.25v-5.25c0-1.1.9-2 2-2z" fill="#d5dbe1"/><path d="m9 27.25v-5.5h-2.25v5.5c0 1.105.895 2 2 2h2.25c-1.105 0-2-.895-2-2z" fill="#d5dbe1"/><path d="m6.75 14h2.25v7.75h-2.25z" fill="#00b871"/><path d="m22 22.75h.5c.368 0 .675.208.849.503.528-.354 1.585-1.21 1.952-2.182.003-.064.009-.124.009-.191 0-1.4-.7-2.11-1.17-2.11-.46 0-.95.48-.95 1.65 0 .929-.827 1.825-1.51 2.395.102-.035.207-.065.32-.065z" fill="#00b871"/><path d="m21 28.25v-4.5c0-.216.083-.404.199-.568-.032.023-.071.051-.1.071-.174-.295-.481-.503-.849-.503h-.5c-.552 0-1 .448-1 1v4.5c0 .552.448 1 1 1h.5c.383 0 .707-.225.875-.543-.073-.139-.125-.289-.125-.457z" fill="#00b871"/><path d="m20.25 30h-.5c-.965 0-1.75-.785-1.75-1.75v-4.5c0-.965.785-1.75 1.75-1.75h.5c.965 0 1.75.785 1.75 1.75v4.5c0 .965-.785 1.75-1.75 1.75zm-.5-6.5c-.138 0-.25.112-.25.25v4.5c0 .138.112.25.25.25h.5c.136 0 .25-.114.25-.25v-4.5c0-.138-.112-.25-.25-.25z"/><path d="m26.75 30h-.51c-2.756 0-4.386-.694-5.112-1.108l.743-1.303c.48.273 1.868.911 4.369.911h.51c.584 0 1.111-.426 1.2-.971.005-.028.011-.058.019-.085.072-.31.509-2.512.532-2.812-.001-.611-.522-1.132-1.161-1.132h-2.5c-.277 0-.532-.152-.662-.397-.13-.244-.115-.541.039-.771s.343-.551.343-1.452c0-.896-.353-1.317-.481-1.369.042.029-.139.26-.139.909 0 1.674-1.624 2.87-2.322 3.306l-.795-1.271c.782-.488 1.617-1.279 1.617-2.034 0-1.658.854-2.4 1.7-2.4.944 0 1.92 1.07 1.92 2.86 0 .427-.053.803-.127 1.12h1.407c1.467 0 2.66 1.193 2.66 2.66 0 .093 0 .247-.29 1.739-.124.638-.208 1.073-.291 1.37l.011.002c-.207 1.27-1.359 2.228-2.68 2.228z"/><path d="m16 30h-7.25c-1.517 0-2.75-1.233-2.75-2.75v-18.5c0-1.517 1.233-2.75 2.75-2.75h12.5c1.517 0 2.75 1.233 2.75 2.75v7.25h-1.5v-7.25c0-.689-.561-1.25-1.25-1.25h-12.5c-.689 0-1.25.561-1.25 1.25v18.5c0 .689.561 1.25 1.25 1.25h7.25z"/><path d="m6.75 13.5h16.5v1.5h-16.5z"/><path d="m6.5 21h9.5v1.5h-9.5z"/><circle cx="19" cy="11" r="1"/><circle cx="15" cy="11" r="1"/><circle cx="11" cy="11" r="1"/></svg>