<svg id="_x31__x2C_5" enable-background="new 0 0 36 36" height="512" viewBox="0 0 36 36" width="512" xmlns="http://www.w3.org/2000/svg"><path d="m27.623 4.167c-6.917 0-11.667-3.583-15-3.583s-10.333 1.916-10.333 17.249 9.417 17.583 13.083 17.583c17.167.001 24.5-31.249 12.25-31.249z" fill="#efefef"/><path d="m29.5 9c-.827 0-1.5-.673-1.5-1.5s.673-1.5 1.5-1.5 1.5.673 1.5 1.5-.673 1.5-1.5 1.5zm0-2c-.276 0-.5.225-.5.5s.224.5.5.5.5-.225.5-.5-.224-.5-.5-.5z" fill="#a4afc1"/><path d="m23.25 8.75c0-1.1-.9-2-2-2h-12.5c-1.1 0-2 .9-2 2v5.25h16.5z" fill="#f3f3f1"/><path d="m6.75 14h16.5v7.75h-16.5z" fill="#2fdf84"/><path d="m23.25 27.25v-5.5h-16.5v5.5c0 1.105.895 2 2 2h12.5c1.105 0 2-.895 2-2z" fill="#f3f3f1"/><path d="m28.25 29.25h-9.5c-.552 0-1-.448-1-1v-5.5c0-.552.448-1 1-1h9.5c.552 0 1 .448 1 1v5.5c0 .552-.448 1-1 1z" fill="#2fdf84"/><path d="m11 6.75h-2.25c-1.1 0-2 .9-2 2v5.25h2.25v-5.25c0-1.1.9-2 2-2z" fill="#d5dbe1"/><path d="m9 27.25v-5.5h-2.25v5.5c0 1.105.895 2 2 2h2.25c-1.105 0-2-.895-2-2z" fill="#d5dbe1"/><path d="m6.75 14h2.25v7.75h-2.25z" fill="#00b871"/><path d="m20 28.25v-5.5c0-.552.448-1 1-1h-2.25c-.552 0-1 .448-1 1v5.5c0 .552.448 1 1 1h2.25c-.552 0-1-.448-1-1z" fill="#00b871"/><path d="m28.25 30h-9.5c-.965 0-1.75-.785-1.75-1.75v-5.5c0-.965.785-1.75 1.75-1.75h9.5c.965 0 1.75.785 1.75 1.75v5.5c0 .965-.785 1.75-1.75 1.75zm-9.5-7.5c-.138 0-.25.112-.25.25v5.5c0 .138.112.25.25.25h9.5c.138 0 .25-.112.25-.25v-5.5c0-.138-.112-.25-.25-.25z"/><path d="m23.5 26c-.139 0-.278-.039-.4-.116l-5.29-3.34.801-1.268 4.89 3.087 4.89-3.087.801 1.268-5.29 3.34c-.124.077-.263.116-.402.116z"/><path d="m15 30h-6.25c-1.517 0-2.75-1.233-2.75-2.75v-18.5c0-1.517 1.233-2.75 2.75-2.75h12.5c1.517 0 2.75 1.233 2.75 2.75v10.25h-1.5v-10.25c0-.689-.561-1.25-1.25-1.25h-12.5c-.689 0-1.25.561-1.25 1.25v18.5c0 .689.561 1.25 1.25 1.25h6.25z"/><path d="m6.75 13.5h16.5v1.5h-16.5z"/><path d="m6.5 21h8.5v1.5h-8.5z"/><circle cx="19" cy="11" r="1"/><circle cx="15" cy="11" r="1"/><circle cx="11" cy="11" r="1"/></svg>