<svg id="_x31__x2C_5" enable-background="new 0 0 36 36" height="512" viewBox="0 0 36 36" width="512" xmlns="http://www.w3.org/2000/svg"><path d="m31.833 8.377c0 6.917 3.583 11.667 3.583 15s-1.916 10.333-17.249 10.333-17.584-9.417-17.584-13.083c0-17.167 31.25-24.5 31.25-12.25z" fill="#efefef"/><g fill="#a4afc1"><path d="m28.467 17.967h1v2h-1z" transform="matrix(.707 -.707 .707 .707 -4.926 26.044)"/><path d="m32.533 22.033h1v2h-1z" transform="matrix(.707 -.707 .707 .707 -6.611 30.111)"/><path d="m31.856 18.467h2v1h-2z" transform="matrix(.707 -.707 .707 .707 -3.788 28.788)"/></g><path d="m23.25 8.75c0-1.1-.9-2-2-2h-12.5c-1.1 0-2 .9-2 2v5.25h16.5z" fill="#f3f3f1"/><path d="m6.75 14h16.5v7.75h-16.5z" fill="#2fdf84"/><path d="m23.25 27.25v-5.5h-16.5v5.5c0 1.105.895 2 2 2h12.5c1.105 0 2-.895 2-2z" fill="#f3f3f1"/><path d="m28.25 29.25h-6.111c-.25 0-.491-.094-.676-.263l-1.909-1.75c-.432-.396-.432-1.078 0-1.474l1.909-1.75c.184-.169.426-.263.676-.263h6.111c.552 0 1 .448 1 1v3.5c0 .552-.448 1-1 1z" fill="#2fdf84"/><path d="m11 6.75h-2.25c-1.1 0-2 .9-2 2v5.25h2.25v-5.25c0-1.1.9-2 2-2z" fill="#d5dbe1"/><path d="m9 27.25v-5.5h-2.25v5.5c0 1.105.895 2 2 2h2.25c-1.105 0-2-.895-2-2z" fill="#d5dbe1"/><path d="m6.75 14h2.25v7.75h-2.25z" fill="#00b871"/><path d="m21.804 27.237c-.432-.396-.432-1.078 0-1.474l1.909-1.75c.184-.169.426-.263.676-.263h-2.25c-.25 0-.491.094-.676.263l-1.909 1.75c-.432.396-.432 1.078 0 1.474l1.909 1.75c.184.169.426.263.676.263h2.25c-.25 0-.491-.094-.676-.263z" fill="#00b871"/><path d="m28.25 30h-6.111c-.439 0-.859-.163-1.183-.46l-1.909-1.75c-.361-.33-.567-.801-.567-1.29s.207-.96.567-1.29l1.909-1.75c.324-.297.744-.46 1.183-.46h6.111c.965 0 1.75.785 1.75 1.75v3.5c0 .965-.785 1.75-1.75 1.75zm-6.111-5.5c-.063 0-.123.023-.168.065l-1.91 1.75c-.071.065-.081.144-.081.185s.01.12.081.185l1.909 1.75c.046.042.106.065.169.065h6.111c.138 0 .25-.112.25-.25v-3.5c0-.138-.112-.25-.25-.25z"/><path d="m17.5 30h-8.75c-1.517 0-2.75-1.233-2.75-2.75v-18.5c0-1.517 1.233-2.75 2.75-2.75h12.5c1.517 0 2.75 1.233 2.75 2.75v12.25h-1.5v-12.25c0-.689-.561-1.25-1.25-1.25h-12.5c-.689 0-1.25.561-1.25 1.25v18.5c0 .689.561 1.25 1.25 1.25h8.75z"/><path d="m6.75 13.5h16.5v1.5h-16.5z"/><path d="m6.5 21h13v1.5h-13z"/><circle cx="19" cy="11" r="1"/><circle cx="15" cy="11" r="1"/><circle cx="11" cy="11" r="1"/></svg>