<svg id="_x31__x2C_5" enable-background="new 0 0 36 36" height="512" viewBox="0 0 36 36" width="512" xmlns="http://www.w3.org/2000/svg"><path d="m8.377 31.833c6.917 0 11.667 3.583 15 3.583s10.333-1.916 10.333-17.249-9.417-17.584-13.083-17.584c-17.167 0-24.5 31.25-12.25 31.25z" fill="#efefef"/><g fill="#a4afc1"><path d="m30.856 6.467h2v1h-2z" transform="matrix(.707 -.707 .707 .707 4.404 24.566)"/><path d="m31.533 10.033h1v2h-1z" transform="matrix(.707 -.707 .707 .707 1.583 25.888)"/><path d="m27.467 5.967h1v2h-1z" transform="matrix(.707 -.707 .707 .707 3.268 21.821)"/></g><path d="m23.25 8.75c0-1.1-.9-2-2-2h-12.5c-1.1 0-2 .9-2 2v5.25h16.5z" fill="#f3f3f1"/><path d="m6.75 14h16.5v7.75h-16.5z" fill="#2fdf84"/><path d="m23.25 27.25v-5.5h-16.5v5.5c0 1.105.895 2 2 2h12.5c1.105 0 2-.895 2-2z" fill="#f3f3f1"/><path d="m24 29.25s5.25-2.321 5.25-6.964c0-1.857 0-4.179 0-4.179l-5.25-1.607-5.25 1.607v4.179c0 4.643 5.25 6.964 5.25 6.964z" fill="#2fdf84"/><path d="m11 6.75h-2.25c-1.1 0-2 .9-2 2v5.25h2.25v-5.25c0-1.1.9-2 2-2z" fill="#d5dbe1"/><path d="m9 27.25v-5.5h-2.25v5.5c0 1.105.895 2 2 2h2.25c-1.105 0-2-.895-2-2z" fill="#d5dbe1"/><path d="m6.75 14h2.25v7.75h-2.25z" fill="#00b871"/><path d="m21 22.286c0-2.786 0-4.179 0-4.179l4.125-1.263-1.125-.344-5.25 1.607v4.179c0 4.643 5.25 6.964 5.25 6.964s.471-.211 1.125-.623c-1.542-.971-4.125-3.082-4.125-6.341z" fill="#00b871"/><path d="m24 30c-.104 0-.207-.021-.303-.064-.233-.103-5.697-2.578-5.697-7.65v-4.179c0-.33.215-.621.53-.717l5.25-1.607c.144-.045.296-.045.439 0l5.25 1.607c.315.096.53.387.53.717v4.179c0 5.072-5.464 7.547-5.697 7.649-.095.044-.198.065-.302.065zm-4.5-11.338v3.624c0 3.494 3.442 5.571 4.499 6.127 1.055-.558 4.501-2.646 4.501-6.127v-3.624l-4.5-1.378z"/><path d="m23.25 16.5h1.5v12.5h-1.5z"/><path d="m18.75 21.536h10.5v1.5h-10.5z"/><path d="m19 30h-10.25c-1.517 0-2.75-1.233-2.75-2.75v-18.5c0-1.517 1.233-2.75 2.75-2.75h12.5c1.517 0 2.75 1.233 2.75 2.75v5.25h-1.5v-5.25c0-.689-.561-1.25-1.25-1.25h-12.5c-.689 0-1.25.561-1.25 1.25v18.5c0 .689.561 1.25 1.25 1.25h10.25z"/><path d="m7.25 13.5h11.75v1.5h-11.75z"/><path d="m6.5 21h9.5v1.5h-9.5z"/><circle cx="19" cy="11" r="1"/><circle cx="15" cy="11" r="1"/><circle cx="11" cy="11" r="1"/></svg>