<svg id="_x31__x2C_5" enable-background="new 0 0 36 36" height="512" viewBox="0 0 36 36" width="512" xmlns="http://www.w3.org/2000/svg"><path d="m8.377 31.833c6.917 0 11.667 3.583 15 3.583s10.333-1.916 10.333-17.249-9.417-17.584-13.083-17.584c-17.167 0-24.5 31.25-12.25 31.25z" fill="#efefef"/><path d="m30.5 15c-.827 0-1.5-.673-1.5-1.5s.673-1.5 1.5-1.5 1.5.673 1.5 1.5-.673 1.5-1.5 1.5zm0-2c-.275 0-.5.225-.5.5s.225.5.5.5.5-.225.5-.5-.225-.5-.5-.5z" fill="#a4afc1"/><path d="m23.25 8.75c0-1.1-.9-2-2-2h-12.5c-1.1 0-2 .9-2 2v5.25h16.5z" fill="#f3f3f1"/><path d="m6.75 14h16.5v7.75h-16.5z" fill="#2fdf84"/><path d="m23.25 27.25v-5.5h-16.5v5.5c0 1.105.895 2 2 2h12.5c1.105 0 2-.895 2-2z" fill="#f3f3f1"/><path d="m11 6.75h-2.25c-1.1 0-2 .9-2 2v5.25h2.25v-5.25c0-1.1.9-2 2-2z" fill="#d5dbe1"/><path d="m9 27.25v-5.5h-2.25v5.5c0 1.105.895 2 2 2h2.25c-1.105 0-2-.895-2-2z" fill="#d5dbe1"/><path d="m6.75 14h2.25v7.75h-2.25z" fill="#00b871"/><path d="m24 30c-3.309 0-6-2.691-6-6h1.5c0 2.481 2.019 4.5 4.5 4.5s4.5-2.019 4.5-4.5-2.019-4.5-4.5-4.5c-1.385 0-2.616.606-3.466 1.708l-1.188-.916c1.14-1.479 2.794-2.292 4.654-2.292 3.309 0 6 2.691 6 6s-2.691 6-6 6z"/><path d="m22.75 21.75h-3c-.414 0-.75-.336-.75-.75v-3h1.5v2.25h2.25z"/><path d="m18 30h-9.25c-1.517 0-2.75-1.233-2.75-2.75v-18.5c0-1.517 1.233-2.75 2.75-2.75h12.5c1.517 0 2.75 1.233 2.75 2.75v7.25h-1.5v-7.25c0-.689-.561-1.25-1.25-1.25h-12.5c-.689 0-1.25.561-1.25 1.25v18.5c0 .689.561 1.25 1.25 1.25h9.25z"/><path d="m6.75 13.5h16.5v1.5h-16.5z"/><path d="m6.5 21h10.5v1.5h-10.5z"/><circle cx="19" cy="11" r="1"/><circle cx="15" cy="11" r="1"/><circle cx="11" cy="11" r="1"/></svg>