<svg id="_x31__x2C_5" enable-background="new 0 0 36 36" height="512" viewBox="0 0 36 36" width="512" xmlns="http://www.w3.org/2000/svg"><path d="m27.623 31.833c-6.917 0-11.667 3.583-15 3.583s-10.333-1.916-10.333-17.249 9.417-17.584 13.083-17.584c17.167 0 24.5 31.25 12.25 31.25z" fill="#efefef"/><g fill="#a4afc1"><path d="m30.68 11.644h2v1h-2z" transform="matrix(.707 -.707 .707 .707 .692 25.958)"/><path d="m31.533 15.033h1v2h-1z" transform="matrix(.707 -.707 .707 .707 -1.955 27.347)"/><path d="m27.467 10.967h1v2h-1z" transform="matrix(.707 -.707 .707 .707 -.271 23.281)"/></g><path d="m23.25 8.75c0-1.1-.9-2-2-2h-12.5c-1.1 0-2 .9-2 2v5.25h16.5z" fill="#f3f3f1"/><path d="m6.75 14h16.5v7.75h-16.5z" fill="#2fdf84"/><path d="m23.25 27.25v-5.5h-16.5v5.5c0 1.105.895 2 2 2h12.5c1.105 0 2-.895 2-2z" fill="#f3f3f1"/><circle cx="25" cy="24.5" fill="#2fdf84" r="2.75"/><path d="m11 6.75h-2.25c-1.1 0-2 .9-2 2v5.25h2.25v-5.25c0-1.1.9-2 2-2z" fill="#d5dbe1"/><path d="m9 27.25v-5.5h-2.25v5.5c0 1.105.895 2 2 2h2.25c-1.105 0-2-.895-2-2z" fill="#d5dbe1"/><path d="m6.75 14h2.25v7.75h-2.25z" fill="#00b871"/><path d="m24.5 24.5c0-1.117.669-2.074 1.625-2.504-.344-.155-.723-.246-1.125-.246-1.519 0-2.75 1.231-2.75 2.75s1.231 2.75 2.75 2.75c.402 0 .781-.091 1.125-.246-.956-.43-1.625-1.387-1.625-2.504z" fill="#00b871"/><path d="m19 30h-10.25c-1.517 0-2.75-1.233-2.75-2.75v-18.5c0-1.517 1.233-2.75 2.75-2.75h12.5c1.517 0 2.75 1.233 2.75 2.75v8.25h-1.5v-8.25c0-.689-.561-1.25-1.25-1.25h-12.5c-.689 0-1.25.561-1.25 1.25v18.5c0 .689.561 1.25 1.25 1.25h10.25z"/><path d="m6.75 13.5h16.5v1.5h-16.5z"/><path d="m6.5 21h11.5v1.5h-11.5z"/><circle cx="19" cy="11" r="1"/><circle cx="15" cy="11" r="1"/><circle cx="11" cy="11" r="1"/><path d="m25 28c-1.93 0-3.5-1.57-3.5-3.5s1.57-3.5 3.5-3.5 3.5 1.57 3.5 3.5-1.57 3.5-3.5 3.5zm0-5.5c-1.103 0-2 .897-2 2s.897 2 2 2 2-.897 2-2-.897-2-2-2z"/><path d="m24.25 26.5h1.5v3.5h-1.5z"/><path d="m24.25 19h1.5v3.5h-1.5z"/><path d="m26.505 21.88h3.62v1.499h-3.62z" transform="matrix(.882 -.472 .472 .882 -7.325 16.025)"/><path d="m19.875 25.62h3.62v1.499h-3.62z" transform="matrix(.882 -.472 .472 .882 -9.872 13.341)"/><path d="m20.935 20.82h1.499v3.62h-1.499z" transform="matrix(.472 -.882 .882 .472 -8.496 31.082)"/><path d="m27.565 24.56h1.499v3.62h-1.499z" transform="matrix(.472 -.882 .882 .472 -8.291 38.905)"/></svg>