<svg id="_x31__x2C_5" enable-background="new 0 0 36 36" height="512" viewBox="0 0 36 36" width="512" xmlns="http://www.w3.org/2000/svg"><path d="m27.623 31.833c-6.917 0-11.667 3.583-15 3.583s-10.333-1.916-10.333-17.249 9.417-17.584 13.083-17.584c17.167 0 24.5 31.25 12.25 31.25z" fill="#efefef"/><path d="m26.625 1.25h1v2h-1z" fill="#a4afc1"/><path d="m28.875 4.25h2v1h-2z" fill="#a4afc1"/><path d="m26.25 12.25h-16.5l1.073-4.722c.103-.455.508-.778.975-.778h12.404c.467 0 .872.323.975.778z" fill="#2fdf84"/><path d="m9.75 12.25h16.5v5.5h-16.5z" fill="#f3f3f1"/><path d="m9.75 17.75h16.5v6h-16.5z" fill="#2fdf84"/><path d="m25.25 29.25h-14.5c-.552 0-1-.448-1-1v-4.5h16.5v4.5c0 .552-.448 1-1 1z" fill="#f3f3f1"/><path d="m9.75 12.25h2.25v5.5h-2.25z" fill="#d5dbe1"/><path d="m12 28.25v-4.5h-2.25v4.5c0 .552.448 1 1 1h2.25c-.552 0-1-.448-1-1z" fill="#d5dbe1"/><path d="m14.048 6.75h-2.25c-.467 0-.872.323-.975.778l-1.073 4.722h2.25l1.073-4.722c.104-.455.508-.778.975-.778z" fill="#00b871"/><path d="m9.75 17.75h2.25v6h-2.25z" fill="#00b871"/><path d="m9.75 17h16.5v1.5h-16.5z"/><path d="m9.75 11.5h16.5v1.5h-16.5z"/><path d="m9.75 23h16.5v1.5h-16.5z"/><path d="m25.25 30h-14.5c-.965 0-1.75-.785-1.75-1.75v-16c0-.056.006-.112.019-.166l1.073-4.722c.182-.802.884-1.362 1.706-1.362h12.404c.822 0 1.523.56 1.706 1.362l1.073 4.722c.013.054.019.11.019.166v16c0 .965-.785 1.75-1.75 1.75zm-14.75-17.666v15.916c0 .138.112.25.25.25h14.5c.138 0 .25-.112.25-.25v-15.916l-1.055-4.64c-.026-.114-.126-.194-.243-.194h-12.404c-.117 0-.217.08-.243.195z"/><path d="m20.75 14h2.5v1.5h-2.5z"/><path d="m12.027 14h1.5v2h-1.5z"/><path d="m15.027 14h1.5v2h-1.5z"/><path d="m20.75 20h2.5v1.5h-2.5z"/><path d="m12.027 20h1.5v2h-1.5z"/><path d="m15.027 20h1.5v2h-1.5z"/><path d="m20.75 25.5h2.5v1.5h-2.5z"/><path d="m12.027 25.5h1.5v2h-1.5z"/><path d="m15.027 25.5h1.5v2h-1.5z"/></svg>