<svg id="_x31__x2C_5" enable-background="new 0 0 36 36" height="512" viewBox="0 0 36 36" width="512" xmlns="http://www.w3.org/2000/svg"><path d="m31.833 8.377c0 6.917 3.583 11.667 3.583 15s-1.916 10.333-17.249 10.333-17.584-9.417-17.584-13.083c0-17.167 31.25-24.5 31.25-12.25z" fill="#efefef"/><path d="m31.5 5c-.827 0-1.5-.673-1.5-1.5s.673-1.5 1.5-1.5 1.5.673 1.5 1.5-.673 1.5-1.5 1.5zm0-2c-.275 0-.5.224-.5.5s.225.5.5.5.5-.224.5-.5-.225-.5-.5-.5z" fill="#a4afc1"/><path d="m26.25 14h-16.5v-5.25c0-1.105.895-2 2-2h12.5c1.105 0 2 .895 2 2z" fill="#f3f3f1"/><path d="m9.75 14h16.5v7.25h-16.5z" fill="#2fdf84"/><path d="m24.25 29h-12.5c-1.105 0-2-.895-2-2v-5.75h16.5v5.75c0 1.105-.895 2-2 2z" fill="#f3f3f1"/><path d="m14 6.75h-2.25c-1.105 0-2 .895-2 2v5.25h2.25v-5.25c0-1.105.895-2 2-2z" fill="#d5dbe1"/><path d="m12 27v-5.75h-2.25v5.75c0 1.105.895 2 2 2h2.25c-1.105 0-2-.895-2-2z" fill="#d5dbe1"/><path d="m9.75 14h2.25v7.25h-2.25z" fill="#00b871"/><path d="m24.25 30h-12.5c-1.517 0-2.75-1.233-2.75-2.75v-18.5c0-1.517 1.233-2.75 2.75-2.75h12.5c1.517 0 2.75 1.233 2.75 2.75v18.5c0 1.517-1.233 2.75-2.75 2.75zm-12.5-22.5c-.689 0-1.25.561-1.25 1.25v18.5c0 .689.561 1.25 1.25 1.25h12.5c.689 0 1.25-.561 1.25-1.25v-18.5c0-.689-.561-1.25-1.25-1.25z"/><path d="m9.75 13.5h16.5v1.5h-16.5z"/><path d="m9.75 21h16.5v1.5h-16.5z"/><circle cx="22" cy="11" r="1"/><circle cx="18" cy="11" r="1"/><circle cx="14" cy="11" r="1"/></svg>