<svg id="_x31__x2C_5" enable-background="new 0 0 36 36" height="512" viewBox="0 0 36 36" width="512" xmlns="http://www.w3.org/2000/svg"><path d="m27.623 4.167c-6.917 0-11.667-3.583-15-3.583s-10.333 1.916-10.333 17.249 9.417 17.583 13.083 17.583c17.167.001 24.5-31.249 12.25-31.249z" fill="#efefef"/><path d="m23.5 4c-.827 0-1.5-.673-1.5-1.5s.673-1.5 1.5-1.5 1.5.673 1.5 1.5-.673 1.5-1.5 1.5zm0-2c-.276 0-.5.224-.5.5s.224.5.5.5.5-.224.5-.5-.224-.5-.5-.5z" fill="#a4afc1"/><path d="m26.25 23.5v4c0 .966-3.694 1.75-8.25 1.75s-8.25-.784-8.25-1.75v-4c0 .97 3.69 1.75 8.25 1.75s8.25-.78 8.25-1.75z" fill="#2fdf84"/><path d="m23.25 13v4.35c-1.43.25-3.25.4-5.25.4s-3.82-.15-5.25-.4v-4.35z" fill="#f3f3f1"/><path d="m23.25 20.5v4.35c-1.43.25-3.25.4-5.25.4s-3.82-.15-5.25-.4v-4.35z" fill="#f3f3f1"/><path d="m9.75 8.5v4c0 .966 3.694 1.75 8.25 1.75s8.25-.784 8.25-1.75v-4z" fill="#2fdf84"/><ellipse cx="18" cy="8.5" fill="#f3f3f1" rx="8.25" ry="1.75"/><path d="m26.25 16v4c0 .966-3.694 1.75-8.25 1.75s-8.25-.784-8.25-1.75v-4c0 .97 3.69 1.75 8.25 1.75s8.25-.78 8.25-1.75z" fill="#f3f3f1"/><g fill="#d5dbe1"><path d="m15 17.35v-3.35l-2.25-.5v3.85c1.43.25 3.25.4 5.25.4.385 0 .755-.01 1.125-.021-1.553-.045-2.97-.177-4.125-.379z"/><path d="m15 24.85v-3.1l-2.25-.5v3.6c1.43.25 3.25.4 5.25.4.385 0 .755-.01 1.125-.021-1.553-.045-2.97-.177-4.125-.379z"/><path d="m12 8.5c0-.885 3.102-1.615 7.125-1.732-.369-.011-.742-.018-1.125-.018-4.556 0-8.25.784-8.25 1.75s3.694 1.75 8.25 1.75c.383 0 .756-.007 1.125-.018-4.023-.117-7.125-.847-7.125-1.732z"/><path d="m12 20v-2.8c-1.392-.313-2.25-.734-2.25-1.2v4c0 .966 3.694 1.75 8.25 1.75.383 0 .756-.007 1.125-.018-4.023-.117-7.125-.847-7.125-1.732z"/></g><path d="m12 27.5v-2.8c-1.392-.313-2.25-.734-2.25-1.2v4c0 .966 3.694 1.75 8.25 1.75.383 0 .756-.007 1.125-.018-4.023-.117-7.125-.847-7.125-1.732z" fill="#00b871"/><path d="m12 12.5v-2.75l-2.25-1.25v4c0 .966 3.694 1.75 8.25 1.75.383 0 .756-.007 1.125-.018-4.023-.117-7.125-.847-7.125-1.732z" fill="#00b871"/><path d="m18 11c-1.503 0-9-.121-9-2.5s7.497-2.5 9-2.5 9 .121 9 2.5-7.497 2.5-9 2.5zm-7.303-2.5c.798.414 3.301 1 7.303 1s6.504-.586 7.303-1c-.798-.414-3.301-1-7.303-1s-6.504.586-7.303 1z"/><path d="m18 18.5c-1.503 0-9-.121-9-2.5 0-.993 1.15-1.657 3.621-2.089l.259 1.478c-1.258.22-1.881.46-2.178.615.8.413 3.299.996 7.298.996s6.498-.583 7.299-.996c-.297-.155-.92-.395-2.178-.615l.259-1.478c2.47.432 3.62 1.096 3.62 2.089 0 2.379-7.497 2.5-9 2.5z"/><path d="m18 15c-1.503 0-9-.121-9-2.5v-4h1.5v3.874c.479.408 3.071 1.126 7.5 1.126s7.021-.718 7.5-1.126v-3.874h1.5v4c0 2.379-7.497 2.5-9 2.5z"/><path d="m12 21.52h1.5v3h-1.5z"/><path d="m22.5 21.52h1.5v3h-1.5z"/><path d="m12 14.02h1.5v3h-1.5z"/><path d="m22.5 14.02h1.5v2.75h-1.5z"/><path d="m18 22.5c-1.503 0-9-.121-9-2.5v-4h1.5v3.874c.479.408 3.071 1.126 7.5 1.126s7.021-.718 7.5-1.126v-3.874h1.5v4c0 2.379-7.497 2.5-9 2.5z"/><path d="m18 26c-1.503 0-9-.121-9-2.5 0-.993 1.15-1.657 3.621-2.089l.259 1.478c-1.258.22-1.881.46-2.178.615.801.413 3.3.996 7.299.996s6.498-.583 7.299-.996c-.297-.155-.92-.395-2.178-.615l.259-1.478c2.469.432 3.619 1.096 3.619 2.089 0 2.379-7.497 2.5-9 2.5z"/><path d="m18 30c-1.503 0-9-.121-9-2.5v-4h1.5v3.874c.479.408 3.071 1.126 7.5 1.126s7.021-.718 7.5-1.126v-3.874h1.5v4c0 2.379-7.497 2.5-9 2.5z"/></svg>