<svg id="_x31__x2C_5" enable-background="new 0 0 36 36" height="512" viewBox="0 0 36 36" width="512" xmlns="http://www.w3.org/2000/svg"><path d="m27.623 31.833c-6.917 0-11.667 3.583-15 3.583s-10.333-1.916-10.333-17.249 9.417-17.584 13.083-17.584c17.167 0 24.5 31.25 12.25 31.25z" fill="#efefef"/><path d="m2.5 24c-.827 0-1.5-.673-1.5-1.5s.673-1.5 1.5-1.5 1.5.673 1.5 1.5-.673 1.5-1.5 1.5zm0-2c-.276 0-.5.224-.5.5s.224.5.5.5.5-.224.5-.5-.224-.5-.5-.5z" fill="#a4afc1"/><path d="m26.25 24.75v3.5c0 .552-.448 1-1 1h-14.5c-.552 0-1-.448-1-1v-3.5c0-.552.448-1 1-1h14.5c.552 0 1 .448 1 1z" fill="#f3f3f1"/><path d="m26.25 16.25v3.5c0 .552-.448 1-1 1h-14.5c-.552 0-1-.448-1-1v-3.5c0-.552.448-1 1-1h14.5c.552 0 1 .448 1 1z" fill="#2fdf84"/><path d="m26.25 7.75v3.5c0 .552-.448 1-1 1h-14.5c-.552 0-1-.448-1-1v-3.5c0-.552.448-1 1-1h14.5c.552 0 1 .448 1 1z" fill="#f3f3f1"/><path d="m12 28.25v-3.5c0-.552.448-1 1-1h-2.25c-.552 0-1 .448-1 1v3.5c0 .552.448 1 1 1h2.25c-.552 0-1-.448-1-1z" fill="#d5dbe1"/><path d="m12 11.25v-3.5c0-.552.448-1 1-1h-2.25c-.552 0-1 .448-1 1v3.5c0 .552.448 1 1 1h2.25c-.552 0-1-.448-1-1z" fill="#d5dbe1"/><path d="m12 19.75v-3.5c0-.552.448-1 1-1h-2.25c-.552 0-1 .448-1 1v3.5c0 .552.448 1 1 1h2.25c-.552 0-1-.448-1-1z" fill="#00b871"/><path d="m25.25 30h-14.5c-.965 0-1.75-.785-1.75-1.75v-3.5c0-.965.785-1.75 1.75-1.75h14.5c.965 0 1.75.785 1.75 1.75v3.5c0 .965-.785 1.75-1.75 1.75zm-14.5-5.5c-.138 0-.25.112-.25.25v3.5c0 .138.112.25.25.25h14.5c.138 0 .25-.112.25-.25v-3.5c0-.138-.112-.25-.25-.25z"/><path d="m25.25 21.5h-14.5c-.965 0-1.75-.785-1.75-1.75v-3.5c0-.965.785-1.75 1.75-1.75h14.5c.965 0 1.75.785 1.75 1.75v3.5c0 .965-.785 1.75-1.75 1.75zm-14.5-5.5c-.138 0-.25.112-.25.25v3.5c0 .138.112.25.25.25h14.5c.138 0 .25-.112.25-.25v-3.5c0-.138-.112-.25-.25-.25z"/><path d="m25.25 13h-14.5c-.965 0-1.75-.785-1.75-1.75v-3.5c0-.965.785-1.75 1.75-1.75h14.5c.965 0 1.75.785 1.75 1.75v3.5c0 .965-.785 1.75-1.75 1.75zm-14.5-5.5c-.138 0-.25.112-.25.25v3.5c0 .138.112.25.25.25h14.5c.138 0 .25-.112.25-.25v-3.5c0-.138-.112-.25-.25-.25z"/><path d="m23.5 12.25h1.5v3h-1.5z"/><path d="m23.5 20.75h1.5v3h-1.5z"/><path d="m11 12.25h1.5v3h-1.5z"/><path d="m11 20.75h1.5v3h-1.5z"/><path d="m12 8.75h4v1.5h-4z"/><path d="m12 17.25h4v1.5h-4z"/><path d="m12 25.75h4v1.5h-4z"/></svg>