<svg xmlns="http://www.w3.org/2000/svg" viewBox="0 0 66 18"><path fill="#2C2C2C" d="M53.402.989l.435.342c1.85 1.442 3.241 2.368 4.14 2.766.731.324 1.478.608 2.308.885l.393.13.421.133 1.173.362c1.783.555 2.397.846 2.697 1.627.363.946-.126 1.52-1.405 2.358l-.235.151c-.459.288-1.706 1.046-1.712 1.05-.856.528-1.578.998-2.317 1.521l-.214.154c-1.184.87-3.124 2.535-5.8 4.981a.89.89 0 01-1.2-1.312l.988-.897c2.38-2.15 4.108-3.606 5.198-4.377.664-.47 1.311-.897 2.04-1.353l2.11-1.298.281-.183.198-.138.157-.117-.057-.027a9.506 9.506 0 00-.957-.347l-1.243-.385a54.8 54.8 0 01-1.08-.347 26.859 26.859 0 01-2.465-.946c-1.14-.505-2.78-1.614-4.958-3.34A.888.888 0 1153.402.989zM18.689 5.97c5.032 0 9.083.515 14.69 1.662l5.683 1.176c2.228.445 2.774.497 4.335.637 4.429.4 9.46-.246 15.094-1.946a1 1 0 11.577 1.915c-5.638 1.701-10.74 2.393-15.305 2.067l-1.723-.156c-1.399-.148-2.428-.35-6.885-1.28l-1.444-.302C27.836 8.515 23.777 7.97 18.689 7.97c-7.041 0-12.728 1.64-17.09 4.9a1 1 0 01-1.198-1.603C5.135 7.73 11.241 5.97 18.69 5.97z"/></svg>