<svg xmlns="http://www.w3.org/2000/svg" viewBox="0 0 53 19"><path fill="#2C2C2C" d="M47.552 4.455a1 1 0 01.358 1.368c-2.683 4.583-9.088 8.11-19.19 10.692-10.007 2.558-19.05 3.013-27.127 1.352a1 1 0 11.402-1.959c7.76 1.596 16.501 1.156 26.23-1.33 9.632-2.463 15.611-5.756 17.96-9.765a.998.998 0 011.367-.358zM39.206.62l.529.163c2.245.683 3.875 1.049 4.856 1.099.8.04 1.599.037 2.472 0l.414-.021.44-.026 1.225-.083c1.864-.12 2.541-.07 3.101.553.678.753.427 1.463-.466 2.704l-.166.226c-.325.433-1.217 1.588-1.222 1.594a42.639 42.639 0 00-1.618 2.25l-.144.22c-.793 1.237-2.008 3.486-3.63 6.73a.889.889 0 11-1.59-.796l.6-1.192c1.452-2.86 2.544-4.838 3.285-5.949.451-.676.902-1.306 1.42-1.993l1.505-1.968.196-.273c.05-.07.095-.137.135-.199l.105-.166-.063-.004a9.32 9.32 0 00-1.018.018l-1.298.086c-.423.028-.777.049-1.133.064-.926.041-1.78.044-2.64 0-1.246-.063-3.174-.51-5.826-1.34A.889.889 0 1139.206.62z"/></svg>