<svg xmlns="http://www.w3.org/2000/svg" viewBox="0 0 65 17"><path fill="#2C2C2C" d="M58.927 3.357l.142.535c.61 2.266 1.163 3.842 1.641 4.7.39.7.815 1.376 1.31 2.097l.237.34.256.36.719.994c1.09 1.517 1.405 2.119 1.175 2.923-.28.974-1.016 1.138-2.541 1.038l-.28-.021c-.539-.046-1.991-.191-1.999-.192-1-.094-1.86-.152-2.766-.18l-.262-.005c-1.47-.017-4.021.145-7.63.487a.889.889 0 11-.169-1.77l1.329-.122c3.195-.284 5.45-.407 6.786-.367.812.024 1.586.073 2.442.147l2.467.234.335.022c.087.005.167.008.24.01h.197l-.03-.055a9.123 9.123 0 00-.555-.854l-.76-1.055a44.966 44.966 0 01-.655-.927 27.503 27.503 0 01-1.4-2.24c-.606-1.09-1.248-2.961-1.95-5.65a.89.89 0 011.721-.449zM31.226 1.624l.856.134c12.683 2.008 21.534 5.124 26.578 9.407a1 1 0 01-1.295 1.524c-4.703-3.994-13.243-7-25.595-8.956l-1.68-.257C18.428 1.744 8.785 1.538 1.17 2.849A1 1 0 01.83.878c8.034-1.383 18.162-1.13 30.395.746z"/></svg>