<svg enable-background="new 0 0 32 32" height="512" viewBox="0 0 32 32" width="512" xmlns="http://www.w3.org/2000/svg"><path d="m26 32h-20c-3.314 0-6-2.686-6-6v-20c0-3.314 2.686-6 6-6h20c3.314 0 6 2.686 6 6v20c0 3.314-2.686 6-6 6z" fill="#f5e6fe"/><path d="m14.667 24c1.207 0 2.217-.86 2.449-2h-4.899c.233 1.14 1.242 2 2.45 2z" fill="#d9a4fc"/><path d="m19.717 17.664c-.017 0-.034.003-.051.003-2.941 0-5.333-2.393-5.333-5.333 0-1.155.373-2.223 1-3.097v-.57c0-.369-.298-.667-.666-.667s-.667.298-.667.667v.72c-2.258.325-4 2.267-4 4.613v1.859c0 1.319-.578 2.564-1.592 3.422-.259.222-.408.545-.408.886 0 .643.523 1.167 1.167 1.167h11c.643 0 1.167-.523 1.167-1.167 0-.341-.149-.664-.414-.891-.527-.445-.932-.998-1.203-1.612z" fill="#be63f9"/><path d="m19.667 8c-2.389 0-4.333 1.944-4.333 4.333s1.944 4.333 4.333 4.333 4.333-1.943 4.333-4.333-1.944-4.333-4.333-4.333zm2.004 3.603-2.167 2.5c-.121.14-.295.223-.48.23-.008 0-.016 0-.024 0-.176 0-.346-.07-.471-.195l-1.167-1.167c-.26-.26-.26-.682 0-.943.26-.26.682-.26.943 0l.66.66 1.698-1.959c.242-.279.662-.308.94-.067.279.242.308.663.068.941z" fill="#d9a4fc"/></svg>