<svg width="75" height="111" viewBox="0 0 75 111" fill="none" xmlns="http://www.w3.org/2000/svg">
    <g opacity="0.9">
        <path d="M68.1572 25.7241C66.4774 24.915 64.6105 24.5737 62.753 24.7362C60.8955 24.8987 59.1163 25.5591 57.6025 26.6477C56.8502 24.5757 55.5371 22.7535 53.8098 21.384C52.0825 20.0146 50.0088 19.1518 47.8199 18.8919C45.631 18.6319 43.4129 18.9851 41.4129 19.9119C39.4129 20.8387 37.7096 22.3028 36.493 24.1409C34.7163 22.6199 32.5233 21.6682 30.1988 21.4094C27.8743 21.1506 25.5257 21.5966 23.4579 22.6896V12.1349C23.5464 9.59731 22.8099 7.0994 21.3589 5.01569C19.908 2.93198 17.8206 1.37475 15.4099 0.577462C13.8785 0.074926 12.2591 -0.102502 10.6552 0.0565235C9.05132 0.215549 7.49826 0.707528 6.09535 1.501C4.68482 2.26688 3.44797 3.31627 2.46256 4.58322C1.47716 5.85017 0.764513 7.30727 0.369414 8.86293C0.13103 9.89281 0.00714135 10.9459 0 12.003C0 17.597 0 23.1998 0 28.8114C0 42.8756 -8.06049e-07 57.4411 0.184707 71.7428C0.0297912 78.8499 1.85248 85.8603 5.44944 91.9919C9.04641 98.1235 14.2762 103.135 20.5553 106.468C25.5506 109.354 31.2251 110.857 36.9944 110.822C44.0948 110.781 51.0384 108.73 57.0208 104.905C63.0031 101.08 67.7793 95.6387 70.7959 89.2109C73.6803 83.3188 75.1186 76.8241 74.9914 70.2651C74.9914 65.4099 74.9914 60.5812 74.9914 55.726C74.9914 49.3228 74.9914 42.9108 74.9914 36.49C75.0805 34.2137 74.4743 31.9643 73.2534 30.0411C72.0326 28.1179 70.255 26.6121 68.1572 25.7241ZM52.0085 51.1347H41.1635V47.7308C41.1635 42.1367 41.1635 36.5691 41.1635 30.9751C41.1572 30.2524 41.2916 29.5355 41.5593 28.8642C41.8147 27.4645 42.6157 26.2237 43.786 25.4146C44.9563 24.6055 46.4001 24.2945 47.7998 24.5499C49.1994 24.8053 50.4403 25.6063 51.2493 26.7766C52.0584 27.947 52.3694 29.3908 52.114 30.7904C52.114 33.1124 52.114 35.4609 52.114 37.7829L52.0085 51.1347ZM59.0274 47.4933C59.0274 44.0102 59.0274 40.5535 59.0274 37.0705C59.0592 36.1749 59.2101 35.2876 59.4759 34.4318C59.6874 33.8025 60.0328 33.2266 60.4884 32.7437C60.9439 32.2609 61.4987 31.8825 62.1146 31.6348C62.691 31.355 63.3241 31.2119 63.9648 31.2165C64.6055 31.221 65.2365 31.3732 65.8088 31.6612C66.7147 32.1284 67.4659 32.848 67.9716 33.7331C68.4773 34.6181 68.7159 35.6306 68.6586 36.6483C68.6586 41.4771 68.6586 46.3059 68.6586 51.1347V52.3221C67.1818 51.5047 65.5175 51.0863 63.8298 51.1083H59.0538L59.0274 47.4933ZM6.25368 18.4677C6.25368 16.1985 6.25368 13.9292 6.25368 11.6335C6.2504 10.2956 6.75541 9.00638 7.66656 8.02665C8.57771 7.04692 9.82698 6.44983 11.1616 6.35618H11.6366C12.8648 6.37168 14.0522 6.79869 15.009 7.56889C15.9658 8.33908 16.6365 9.40795 16.914 10.6045C17.0521 11.2551 17.1228 11.9183 17.1251 12.5835V27.9142C17.1251 35.7247 17.1251 43.5352 17.1251 51.3457C17.1289 54.1347 18.1274 56.8307 19.9412 58.9493C21.755 61.0678 24.2651 62.4698 27.0201 62.9032C26.9695 64.7338 27.3777 66.548 28.2075 68.1806C29.1238 70.0913 30.5444 71.7155 32.3161 72.8781C34.0879 74.0406 36.1434 74.6973 38.2609 74.7773C36.6421 76.4267 35.404 78.4106 34.6336 80.5896C33.8632 82.7685 33.5792 85.0898 33.8016 87.3902C33.8047 87.822 33.8948 88.2488 34.0663 88.6452C34.2378 89.0415 34.4874 89.3993 34.8001 89.6972C35.1127 89.9951 35.4822 90.2271 35.8863 90.3792C36.2905 90.5314 36.7212 90.6007 37.1527 90.583C37.5892 90.5707 38.0186 90.4683 38.4136 90.2821C38.8087 90.0959 39.161 89.83 39.4483 89.5011C39.7551 89.1403 39.9819 88.7186 40.1138 88.2638C40.2457 87.809 40.2797 87.3314 40.2136 86.8624C40.0915 85.2575 40.3506 83.6465 40.9697 82.1607C41.5887 80.6749 42.5503 79.3566 43.7758 78.3131C45.9712 76.2692 48.4509 74.5539 51.1377 73.2204L53.5653 71.8219L54.6208 71.215C54.9039 71.0494 55.1199 70.7895 55.2308 70.4808C55.3417 70.1721 55.3406 69.8343 55.2277 69.5263V69.2096C55.1259 68.9505 54.9478 68.7284 54.7169 68.5728C54.4859 68.4173 54.2131 68.3357 53.9347 68.3389H38.9997C37.7501 68.3593 36.5338 67.9355 35.5674 67.143C34.601 66.3506 33.9472 65.2408 33.7224 64.0114C33.5643 63.2037 33.5864 62.3711 33.7871 61.5729C33.9878 60.7747 34.3621 60.0306 34.8834 59.3937C35.4185 58.7845 36.0814 58.3007 36.8248 57.9769C37.5682 57.653 38.3739 57.4971 39.1845 57.5203H63.9353C64.4518 57.4924 64.9666 57.5994 65.4293 57.8307C65.8919 58.0621 66.2864 58.4097 66.574 58.8396C67.971 60.5317 68.7276 62.6616 68.7113 64.8558C68.7113 66.1224 68.7113 67.3626 68.7113 68.6291C68.828 71.9183 68.5803 75.2104 67.9725 78.445C66.5557 85.3119 63.0322 91.5658 57.8927 96.3353C54.3383 99.8118 49.9505 102.317 45.1499 103.611C40.3492 104.904 35.2968 104.943 30.4768 103.724C23.5016 102.039 17.3718 97.8868 13.2198 92.0343C8.66101 85.9472 6.23165 78.5293 6.30645 70.9248V20.9481L6.25368 18.4677ZM28.9991 27.7823C30.4108 27.8167 31.753 28.4018 32.7391 29.4125C33.7252 30.4233 34.2769 31.7795 34.2765 33.1916C34.2765 37.9676 34.2765 42.77 34.2765 47.546V51.2666C34.2924 51.4333 34.2924 51.6012 34.2765 51.7679C34.2765 51.9527 34.2765 52.0318 34.2765 52.0054C32.0707 53.011 30.1951 54.6213 28.8672 56.6495C27.4946 56.6501 26.1757 56.1159 25.1904 55.1602C24.2051 54.2045 23.631 52.9025 23.5898 51.5305V49.2348C23.5898 47.8627 23.5898 46.5961 23.5898 45.1448V39.5772C23.5898 38.2051 23.5898 36.9385 23.5898 35.4609C23.5898 34.6957 23.5898 33.9304 23.5898 33.1652C23.5781 32.4428 23.7148 31.7256 23.9916 31.0582C24.2683 30.3907 24.6791 29.7872 25.1986 29.2851C25.7181 28.7829 26.3352 28.3927 27.0116 28.1388C27.6881 27.8848 28.4094 27.7725 29.1311 27.8087L28.9991 27.7823Z" fill="url(#paint0_linear_101_7)"/>
    </g>
    <defs>
        <linearGradient id="paint0_linear_101_7" x1="-0.0791605" y1="55.4621" x2="75.0442" y2="55.4621" gradientUnits="userSpaceOnUse">
            <stop stop-color="#5C2D90"/>
            <stop offset="1" stop-color="#EB008B"/>
        </linearGradient>
    </defs>
</svg>
