<svg xmlns="http://www.w3.org/2000/svg" xmlns:xlink="http://www.w3.org/1999/xlink" viewBox="0 0 1600 1200" xmlns:v="https://vecta.io/nano"><style><![CDATA[.U{clip-path:url(#B)}.V{stroke-miterlimit:10}.W{fill:#6d6d6d}.X{stroke:#fefefe}.Y{stroke-width:1.359}]]></style><defs><path id="A" d="M-82-117h1767v1328H-82z"/></defs><clipPath id="B"><use xlink:href="#A"/></clipPath><path d="M1602.2 80.4H.8V11.9c0-5.1 4.1-9.3 9.2-9.3h1582.9c5.1 0 9.2 4.1 9.2 9.3v68.5z" fill="#3f3f3f" class="U"/><path d="M43.8,41.5c0,4.8-3.9,8.7-8.7,8.7c-4.8,0-8.7-3.9-8.7-8.7c0-4.8,3.9-8.7,8.7-8.7C40,32.8,43.8,36.7,43.8,41.5" fill="#f25f58" class="U"/><path d="M73.1 41.5a8.71 8.71 0 0 1-8.7 8.7 8.71 8.71 0 0 1-8.7-8.7 8.71 8.71 0 0 1 8.7-8.7 8.71 8.71 0 0 1 8.7 8.7" fill="#fbbe3c" class="U"/><path d="M102.4 41.5a8.71 8.71 0 0 1-8.7 8.7 8.71 8.71 0 0 1-8.7-8.7 8.71 8.71 0 0 1 8.7-8.7 8.71 8.71 0 0 1 8.7 8.7" fill="#58cb42" class="U"/><path d="M163.3 61.4h-25.9c-3.8 0-6.9-3.1-6.9-6.9v-26c0-3.8 3.1-6.9 6.9-6.9h25.9c3.8 0 6.9 3.1 6.9 6.9v26c0 3.8-3.1 6.9-6.9 6.9" class="U W"/><path d="M152.3 32.2l-9.8 8.4c-.4.4-.4 1.2 0 1.6l9.8 8.5c1.1.9 2.7-.6 1.6-1.6l-9.8-8.5v1.6l9.8-8.4c1.1-.9-.5-2.5-1.6-1.6" fill="#8a8a8a" class="U"/><path d="M181.4 21.6h25.9c3.8 0 6.9 3.1 6.9 6.9v26c0 3.8-3.1 6.9-6.9 6.9h-25.9c-3.8 0-6.9-3.1-6.9-6.9v-26c0-3.8 3.1-6.9 6.9-6.9" class="U W"/><path d="M191.9 50.8l9.8-8.4c.4-.4.4-1.2 0-1.6l-9.8-8.5c-1.1-.9-2.7.6-1.6 1.6l9.8 8.5v-1.6l-9.8 8.4c-1.1.9.5 2.5 1.6 1.6" fill="#8a8a8a" class="U"/><path d="M239.2 21.6H283c3.8 0 6.9 3.1 6.9 6.9v26c0 3.8-3.1 6.9-6.9 6.9h-43.9c-3.8 0-6.9-3.1-6.9-6.9v-26c.1-3.8 3.2-6.9 7-6.9" class="U W"/><g fill="none" class="X V"><g class="Y"><path d="M273.1 50.3h-23.4c-.2 0-.4-.2-.4-.4V32.2c0-.2.2-.4.4-.4h23.4c.2 0 .4.2.4.4v17.7c0 .2-.2.4-.4.4z" class="U"/><path d="M257.3 32.4v18.5" class="U"/></g><path d="M252.1 38.7h2.4m-2.4-3.5h2.4m-2.4 7h2.4" class="U" stroke-width="1.045"/></g><path d="M1528.4 21.6h43.9c3.8 0 6.9 3.1 6.9 6.9v26c0 3.8-3.1 6.9-6.9 6.9h-43.9c-3.8 0-6.9-3.1-6.9-6.9v-26c0-3.8 3.1-6.9 6.9-6.9" class="U W"/><path d="M1556.2 45.6h2.7c.2 0 .4-.2.4-.4V33.4c0-.2-.2-.4-.4-.4h-11.8c-.2 0-.4.2-.4.4v2.5m7.2 14.5h-11.8c-.2 0-.4-.2-.4-.4V38.2c0-.2.2-.4.4-.4h11.8c.2 0 .4.2.4.4V50c0 .2-.2.4-.4.4z" class="U V X Y" fill="none"/><path d="M1263.5 61.9H429.3c-3.8 0-6.9-3.1-6.9-6.9V28c0-3.8 3.1-6.9 6.9-6.9h834.2c3.8 0 6.9 3.1 6.9 6.9v27c0 3.8-3.1 6.9-6.9 6.9" fill="#707070" class="U"/><path d="M1252.4 33.2c-1.1-.4-2.2-.7-3.4-.7s-2.4.2-3.4.7c-1.1.4-2 1.1-2.8 1.9s-1.4 1.7-1.9 2.8c-.4 1.1-.7 2.2-.7 3.4s.2 2.4.7 3.4c.4 1.1 1.1 2 1.9 2.8s1.7 1.4 2.8 1.9c1.1.4 2.2.7 3.4.7s2.4-.2 3.4-.7c1.1-.4 2-1.1 2.8-1.9s1.4-1.7 1.9-2.8c.4-1.1.7-2.2.7-3.4" fill="none" stroke-linecap="round" class="U V X Y"/><path d="M1249.7 28.8l7.3 4.5-7.6 4.1z" fill="#fefefe" class="U"/><g fill="none" class="V"><path d="M.8 80.4h1601.4" stroke="#1a1a1a" stroke-width=".523" class="U"/><g class="X Y"><path d="M465.1 27.7v26.6m-15-14.4c0-3.8-3.1-6.9-6.9-6.9s-6.9 3.1-6.9 6.9 3.1 6.9 6.9 6.9 6.9-3.1 6.9-6.9z" class="U"/><path d="M447.6 45.5l5.2 5.1" class="U"/></g></g></svg>