<svg enable-background="new 0 0 32 32" height="512" viewBox="0 0 32 32" width="512" xmlns="http://www.w3.org/2000/svg"><path d="m26 32h-20c-3.314 0-6-2.686-6-6v-20c0-3.314 2.686-6 6-6h20c3.314 0 6 2.686 6 6v20c0 3.314-2.686 6-6 6z" fill="#ffe6e2"/><path d="m23.309 17.784c-.001-.001-.002-.002-.003-.003l-1.025-.942c.035-.283.053-.565.053-.839s-.018-.556-.053-.839l1.028-.945c.339-.319.417-.827.186-1.236l-1.131-1.957c-.227-.405-.721-.594-1.171-.454l-1.33.42c-.452-.352-.939-.634-1.45-.842l-.308-1.366c-.1-.453-.509-.781-.971-.781h-2.267c-.463 0-.872.328-.971.78l-.309 1.367c-.511.208-.997.49-1.45.842l-1.331-.42c-.448-.14-.943.051-1.167.451l-1.135 1.963c-.229.407-.151.914.191 1.236l1.025.942c-.036.283-.053.565-.053.839s.018.556.053.839l-1.028.945c-.339.32-.417.827-.186 1.236l1.131 1.957c.227.405.721.595 1.171.455l1.33-.42c.452.352.939.634 1.45.842l.308 1.365c.1.453.509.782.972.782h2.267c.463 0 .872-.329.971-.78l.309-1.367c.511-.208.997-.49 1.45-.842l1.331.42c.447.139.942-.051 1.167-.452l1.135-1.963c.227-.407.15-.913-.189-1.233zm-7.309 1.883c-2.022 0-3.667-1.645-3.667-3.667s1.645-3.667 3.667-3.667 3.667 1.645 3.667 3.667-1.645 3.667-3.667 3.667z" fill="#fc573b"/><path d="m17.167 17.833c-.171 0-.341-.065-.471-.195l-1.167-1.167c-.125-.125-.195-.294-.195-.471v-1.833c0-.368.298-.667.667-.667.368 0 .667.298.667.667v1.557l.971.971c.26.26.26.682 0 .943-.131.13-.302.195-.472.195z" fill="#fd907e"/></svg>