<svg enable-background="new 0 0 32 32" height="512" viewBox="0 0 32 32" width="512" xmlns="http://www.w3.org/2000/svg"><path d="m26 32h-20c-3.314 0-6-2.686-6-6v-20c0-3.314 2.686-6 6-6h20c3.314 0 6 2.686 6 6v20c0 3.314-2.686 6-6 6z" fill="#ffe6e2"/><path d="m19.667 8c-2.389 0-4.333 1.944-4.333 4.333s1.944 4.333 4.333 4.333 4.333-1.943 4.333-4.333-1.944-4.333-4.333-4.333zm1.471 5.805c-.13.13-.301.195-.471.195-.171 0-.341-.065-.471-.195l-1-1c-.126-.125-.196-.295-.196-.472v-1.667c0-.368.299-.666.667-.666s.667.298.667.667v1.391l.805.805c.259.259.259.681-.001.942z" fill="#fd907e"/><g fill="#fc573b"><path d="m8.328 16.001c-.182.004-.328.152-.328.334v5.999c0 .184.149.333.333.333h1.415c.149 0 .28-.099.321-.242l1.475-5.199c.095-.336-.085-.689-.413-.808-.604-.221-1.531-.438-2.803-.417z"/><path d="m22.667 19.667c-1.333 0-4 1.688-5.333 1.688s-2.834-1.022-2.834-1.022 1.796.333 2.833.333 1.333-.354 1.333-.833c0-1.167-1.982-1.348-2.984-1.5-.984-.548-1.495-.981-3.125-1.119-.01.095-.025.189-.051.284l-1.339 4.72c1.517.689 4.129 1.782 5.5 1.782 2 0 7.333-2.667 7.333-3.333 0-.667-.667-1-1.333-1z"/></g></svg>