<svg xmlns="http://www.w3.org/2000/svg" xmlns:xlink="http://www.w3.org/1999/xlink" version="1.1" id="Layer_1" x="0px" y="0px" style="enable-background:new 0 0 1200 1334;" xml:space="preserve" viewBox="129.7 400.4 939.6 533.6">
<style type="text/css">
	.st0{fill:#3DC7C9;}
	.st1{fill:#FFFFFF;}
	.st2{fill:#E4EFFF;}
	.st3{fill:#86C0F0;}
	.st4{fill:#ACD5F4;}
	.st5{fill:#FEC12F;}
	.st6{fill:#3BB6D5;}
	.st7{fill:#88BDDA;}
	.st8{fill:#91E2F6;}
	.st9{fill:#001F46;}
	.st10{fill:#367082;}
	.st11{fill:#3D7AA8;}
	.st12{fill:#74B2E8;}
	.st13{fill:#E6B09C;}
	.st14{fill:#163F59;}
	.st15{fill:#FFC4AD;}
	.st16{fill:#161711;}
	.st17{fill:#316091;}
	.st18{fill:#B6C2C9;}
	.st19{fill:#879BA6;}
	.st20{fill:#E4EEF3;}
	.st21{fill:#33A8B5;}
	.st22{fill:#DCE5EA;}
	.st23{fill:#CFD9E8;}
	.st24{fill:#AEBDDC;}
	.st25{fill:#194866;}
	.st26{fill:#B4C0C7;}
	.st27{fill:#D6E3EB;}
	.st28{fill:#8599A4;}
	.st29{fill:#D7DFE2;}
	.st30{fill:#B0BFDE;}
	.st31{fill:#282723;}
	.st32{fill:#D1DBEA;}
	.st33{fill:#D0DEE6;}
	.st34{fill:#EFFAFF;}
	.st35{fill:#86BBD8;}
	.st36{fill:url(#SVGID_1_);}
</style>
<g>
	<path class="st0" d="M551.4,485.5c0,4.9-3.9,8.8-8.8,8.8h-5.9v20.6l-20.6-20.6h-67.5c-4.9,0-8.8-3.9-8.8-8.8v-73.4   c0-4.9,3.9-8.8,8.8-8.8h94c4.9,0,8.8,3.9,8.8,8.8V485.5z"/>
	<rect x="457.4" y="429.7" class="st1" width="76.3" height="5.9"/>
	<rect x="457.4" y="444.4" class="st1" width="76.3" height="5.9"/>
	<rect x="457.4" y="459.1" class="st1" width="76.3" height="5.9"/>
</g>
<g>
	<g>
		<g>
			<path class="st2" d="M1069.3,523.6c0,4.5-3.6,8.1-8.1,8.1H689.1c-4.5,0-8.1-3.6-8.1-8.1v-71.2c0-4.5,3.6-8.1,8.1-8.1h372.1     c4.5,0,8.1,3.6,8.1,8.1V523.6z"/>
			<path class="st3" d="M772.9,444.3h-83.8c-4.5,0-8.1,3.6-8.1,8.1v71.2c0,4.5,3.6,8.1,8.1,8.1h83.8V444.3z"/>
			<g>
				<g>
					<g>
						<rect x="796.6" y="468.1" class="st4" width="91.8" height="7.4"/>
					</g>
					<g>
						<rect x="898.2" y="468.1" class="st4" width="47" height="7.4"/>
					</g>
					<g>
						<rect x="850" y="485.8" class="st4" width="36.6" height="7.4"/>
					</g>
					<g>
						<rect x="866" y="503.6" class="st4" width="20.6" height="7.4"/>
					</g>
					<g>
						<rect x="831.8" y="485.8" class="st4" width="8.4" height="7.4"/>
					</g>
					<g>
						<rect x="796.8" y="485.8" class="st4" width="26.6" height="7.4"/>
					</g>
					<g>
						<rect x="796.8" y="503.6" class="st4" width="61" height="7.4"/>
					</g>
					<g>
						<rect x="896.1" y="485.8" class="st4" width="45.5" height="7.4"/>
					</g>
					<g>
						<rect x="894.2" y="503.6" class="st4" width="49.2" height="7.4"/>
					</g>
				</g>
			</g>
			<path class="st5" d="M979.9,464.1c-12.3,0-22.4,10-22.4,22.4c0,12.3,10,22.4,22.4,22.4c12.3,0,22.4-10,22.4-22.4     C1002.3,474.1,992.3,464.1,979.9,464.1z"/>
			<polygon class="st1" points="989.5,493.2 981.9,485.6 981.9,472.3 977.9,472.3 977.9,487.3 986.6,496.1    "/>
		</g>
		<path class="st6" d="M1034.5,400.4c-17.6,0-31.9,14.3-31.9,31.9c0,17.6,31.9,65.9,31.9,65.9s31.9-48.3,31.9-65.9    C1066.4,414.7,1052.1,400.4,1034.5,400.4z M1034.5,443.5c-5.2,0-9.4-4.2-9.4-9.4c0-5.2,4.2-9.4,9.4-9.4c5.2,0,9.4,4.2,9.4,9.4    C1043.9,439.3,1039.7,443.5,1034.5,443.5z"/>
	</g>
	<g>
		<g>
			<rect x="725.9" y="478.7" class="st1" width="3.7" height="12.9"/>
		</g>
		<g>
			<rect x="725.9" y="463.9" class="st1" width="3.7" height="9"/>
		</g>
		<g>
			<rect x="722.1" y="463.5" class="st1" width="11.2" height="3.7"/>
		</g>
		<path class="st1" d="M730.4,490.7c0,1.5-1.3,2.8-2.8,2.8c-1.5,0-2.8-1.3-2.8-2.8c0-1.5,1.3-2.8,2.8-2.8    C729.2,487.9,730.4,489.1,730.4,490.7z"/>
		<g>
			
				<rect x="735.9" y="471.9" transform="matrix(0.7072 -0.707 0.707 0.7072 -118.3666 661.7939)" class="st1" width="7.9" height="3.7"/>
		</g>
		<g>
			<rect x="701.6" y="487.8" class="st1" width="16.8" height="3.7"/>
		</g>
		<g>
			<rect x="705.3" y="497.1" class="st1" width="16.8" height="3.7"/>
		</g>
		<g>
			<path class="st1" d="M709,487.8c-0.1,0.7-0.1,1.3-0.1,2c0,1.2,0.1,2.4,0.4,3.6h3.8c-0.3-1.2-0.5-2.4-0.5-3.6c0-0.7,0.1-1.3,0.1-2     H709z"/>
			<path class="st1" d="M727.6,471c-8.3,0-15.4,5.5-17.8,13h4c2.3-5.4,7.6-9.3,13.9-9.3c8.3,0,15,6.7,15,15c0,8.3-6.7,15-15,15     c-5.6,0-10.5-3.1-13.1-7.7h-4.2c2.9,6.7,9.5,11.4,17.2,11.4c10.3,0,18.7-8.4,18.7-18.7C746.4,479.4,738,471,727.6,471z"/>
		</g>
		<g>
			<rect x="701.6" y="478.4" class="st1" width="5.6" height="3.7"/>
		</g>
	</g>
</g>
<g>
	<g>
		<g>
			<g>
				<path class="st7" d="M603.2,800l-7.7,11.7l64.3,20.6c0,0,4.3-4.1-11.5-12.4C630,810.3,603.2,800,603.2,800z"/>
				<path class="st7" d="M591.7,800l7.7,11.7l-64.3,20.6c0,0-4.3-4.1,11.5-12.4C564.9,810.3,591.7,800,591.7,800z"/>
			</g>
			<rect x="590.7" y="765.2" class="st7" width="13.4" height="47.9"/>
			<g>
				<path class="st8" d="M604,802.4l-6.6,11.1l55.1,19.7c0,0,3.7-3.9-9.8-11.8C627,812.3,604,802.4,604,802.4z"/>
				<path class="st8" d="M590.9,802.4l6.6,11.1l-55.1,19.7c0,0-3.7-3.9,9.8-11.8C567.9,812.3,590.9,802.4,590.9,802.4z"/>
			</g>
			<path class="st9" d="M646.3,837.7c0,2.6,2.1,4.7,4.7,4.7c2.6,0,4.7-2.1,4.7-4.7c0-2.6-2.1-4.7-4.7-4.7     C648.4,833,646.3,835.1,646.3,837.7z"/>
			<path class="st9" d="M539.6,837.7c0,2.6,2.1,4.7,4.7,4.7c2.6,0,4.7-2.1,4.7-4.7c0-2.6-2.1-4.7-4.7-4.7     C541.7,833,539.6,835.1,539.6,837.7z"/>
			<path class="st10" d="M657.6,837.7c0,2.6,2.1,4.7,4.7,4.7c2.6,0,4.7-2.1,4.7-4.7c0-2.6-2.1-4.7-4.7-4.7     C659.7,833,657.6,835.1,657.6,837.7z"/>
			<path class="st10" d="M528.3,837.7c0,2.6,2.1,4.7,4.7,4.7c2.6,0,4.7-2.1,4.7-4.7c0-2.6-2.1-4.7-4.7-4.7     C530.4,833,528.3,835.1,528.3,837.7z"/>
		</g>
		<rect x="592.7" y="747.7" class="st10" width="9.8" height="17.2"/>
		<path class="st10" d="M585.3,738.6c0,5.3,4.3,9.6,9.6,9.6h5.4c5.3,0,9.6-4.3,9.6-9.6l0,0c0-5.3-4.3-9.6-9.6-9.6h-5.4    C589.6,729,585.3,733.3,585.3,738.6L585.3,738.6z"/>
		<path class="st0" d="M524.6,729.8c-0.2-1.1-0.4-8.2-0.4-9.4c0-7.7,5-14,11.2-14h124.5c6.2,0,11.2,6.3,11.2,14    c0,1.2-0.1,8.3-0.4,9.4H524.6z"/>
		<path class="st10" d="M672.2,733.6c0,2.4-1.4,4.3-3.1,4.3h-143c-1.7,0-3.1-1.9-3.1-4.3l0,0c0-2.4,1.4-4.3,3.1-4.3h143    C670.8,729.3,672.2,731.3,672.2,733.6L672.2,733.6z"/>
	</g>
	<g>
		<path class="st11" d="M573.6,706c0,0,80.1,0.2,111,0.6c21.4,0.3,23.3-30.2,14.9-34.8C673.9,658,594,650.8,594,650.8l-54.4,49.9    C539.6,700.7,542.7,700.6,573.6,706z"/>
		<path class="st12" d="M649.1,542.6c0,0,20.6-5.8,29.6,21.1c13.8,41.3,12.5,79.1,10.6,87.2c-0.9,3.7-3.5,16.5-26.5,17    c-9.3,0.2-5.6-19.8-5.6-19.8s-6-17-12.4-45.7C638.5,573.7,649.1,542.6,649.1,542.6z"/>
		<path class="st3" d="M665.4,544.9l-52.8-17.1l-40-2.7l-43.8,13.3c0,0-14.3,9.9-1,41.6c13.3,31.8,8.2,81.5,8.2,81.5l113,3.6    c0,0,2.1-46,9.6-92C660.3,562.9,660.5,550.8,665.4,544.9z"/>
		<path class="st12" d="M587.9,662.9h5.8c6-44.4,5.7-90.2-0.9-134.5c-1.7,1-3.5,2.1-5.2,3.1C589,576.8,586.6,622.1,587.9,662.9z"/>
		<g>
			<path class="st13" d="M610.4,540.3c-0.8,6.1-5.8,11.4-11,11.7c-5,0-10,0-14.9,0c-5.3-0.2-10.2-5.5-11-11.7     c-1.2-10.1-2.4-20.1-3.7-30.2c-0.8-6,2.8-18.2,10.7-21.7c7.3-3.2,15.6-3.2,22.9,0c7.9,3.6,11.5,15.7,10.7,21.7     C612.8,520.1,611.6,530.2,610.4,540.3z"/>
		</g>
		<polygon class="st12" points="591.3,552.7 581.8,568.2 564.5,546.5 567.2,535.1 572.8,530.5 572.9,539.1   "/>
		<polygon class="st12" points="592.5,552.7 601.9,568.2 618.1,548 615.4,535.6 611.4,530.4 609.7,540.5   "/>
		<g>
			<path class="st14" d="M589.6,469.2c-4.2,0-7.9,2.2-10,5.4h-4.1c-5.1,0-9.3,4.1-9.3,9.3v22.9h6.5v-9.3c0-3.6,2.9-6.5,6.5-6.5h3.8     h-6h4c6.6,0,12-5.3,12-11.9v-9.8H589.6z"/>
			<path class="st13" d="M578.1,515.2c0,3.1-2.5,5.7-5.7,5.7H572c-3.1,0-5.7-2.5-5.7-5.7v-6.9c0-3.1,2.5-5.7,5.7-5.7h0.5     c2.3,0,4.3,1.4,5.2,3.4L578.1,515.2z"/>
			<path class="st14" d="M584.6,478.2v-9.1h3.8h9.9h6c6.6,0,11.9,5.3,11.9,11.9v9.1h-3.8h-9.9h-6     C589.9,490.2,584.6,484.8,584.6,478.2z"/>
			<path class="st15" d="M614.4,523.9c0,4.7-3.6,12.8-9.7,15.3c-8.2,3.4-17.9,3.4-26,0c-6-2.5-9.6-10.6-9.7-15.3c0-13.5,0-27,0-40.4     c0-4.8,4.7-8.8,10.6-8.9c8,0,16.1,0,24.1,0c5.9,0.1,10.7,4.1,10.6,8.9C614.4,496.9,614.4,510.4,614.4,523.9z"/>
			<path class="st14" d="M596.4,469.2c4.2,0,7.9,2.2,10,5.4h4.1c5.1,0,9.3,4.1,9.3,9.3v22.9h-6.5v-9.3c0-3.6-2.9-6.5-6.5-6.5h-0.1     h2.3h-10.5c-6.6,0-11.9-5.3-11.9-11.9v-9.8H596.4z"/>
			<path class="st15" d="M608,508.3c0-3.1,2.5-5.7,5.7-5.7h0.5c3.1,0,5.7,2.5,5.7,5.7v6.9c0,3.1-2.5,5.7-5.7,5.7h-0.5     c-2.3,0-4.3-1.4-5.2-3.4L608,508.3z"/>
			<path class="st14" d="M586.5,480.6c0.1-0.8,0.2-1.5,0.2-2.3v-9.1h-3.8h-4.7c-6.6,0-11.9,5.3-11.9,11.9v9.1h2.5h1.3h4.7     c0.8,0,1.7-0.1,2.4-0.3C578.1,485.3,581.8,481.6,586.5,480.6z"/>
		</g>
		<path class="st16" d="M481.6,859.2c-1.2,1.5-0.3,5.4-0.3,5.4s21.6,2.4,28.5,0.8c1.8-0.4,4.8-2,7.7-3.6c0.5-0.3,1.3-1.9,1.8-2.2    c0.9-0.5,1.3,0.3,2.1-0.1c1.9-1.2,3.3-2.2,3.3-2.3c1.9-9.9-0.6-13.9-0.6-13.9s-18.4-6.1-21.8-1.8    C494.1,851.4,484.3,855.9,481.6,859.2z"/>
		<path class="st16" d="M683.1,848.4l1.5,16.3l16.3,1.6c0,0,1.1-2.2,2.5-2c1.2,0.1,2.4,2.5,4,2.7c3.4,0.3,7.2,0.7,8.8,0.9    c3.1,0.3,32.7,3.2,32.7,3.2s1.1-3.3,0.3-4.5c-0.4-0.6-3-1.9-4.8-2.6c-8.2-3.2-31.6-12.9-35-21.4    C705.3,832.1,683.1,848.4,683.1,848.4z"/>
		<g>
			<path class="st15" d="M658.4,642.2l-55.1,22.5c0,0,39.1,5.6,63.6,0.6C683.4,662,659.2,641.5,658.4,642.2z"/>
		</g>
		<path class="st11" d="M533.3,676.5c0,0-5.3,50.3-4.5,76.9c0.6,20.1,0.6,58.5-4.2,91.3c-0.3,2-25.9,0.5-25.9,0.5    s-9.2-124.8-11.9-145.3C484,679.4,492,664.6,533.3,676.5z"/>
		<path class="st17" d="M694.6,688.7c0,0-8.3,13-30.9,16.1c-8.2,1.1,13.2,146.1,13.2,146.1l33.5-10.7l-6.5-160.3L694.6,688.7z"/>
		<path class="st17" d="M602.2,704.8c0,0-43.8,6.2-73,9.3c-10.7,1.1-20-28.9-21.2-30.2c-7.8-8.2-15.5-7.2-15.3-7.5    c6.3-6.8,39.1-13.2,73.4-21.2c34.3-8,39.5-3,39.5-3L602.2,704.8z"/>
		<path class="st11" d="M566.1,655.3c-34.3,8-67,14.4-73.4,21.2c-0.3,0.3,7.4-0.7,15.3,7.5c0.3,0.4,2.3,10,3.7,13.4    c-5.6-10.1,74.9-38.4,92.3-45.8C600.8,650.5,591.3,649.3,566.1,655.3z"/>
		<polygon class="st17" points="528.5,704.4 525.1,802.4 521.8,825.1 521.4,802.4 522.1,788.2 514.3,766.2 510.2,715.2 516.2,717.5     515.4,695.1   "/>
		<path class="st11" d="M693.5,676.5l8.2,2.2l3,117.7l-17.1,42.1l8.2-28.7l-3.3-59.2c0,0-11.9,28.7-11.9,27.2    c0-1.5,10.1-62.2,10.1-62.2s-11.2,9.3-10.1,8.9C681.5,724.2,687.1,682.1,693.5,676.5z"/>
		<path class="st3" d="M553.1,538.9c0,0-17.6-13.8-34.8,11.8c-25.2,37.5-36.2,77.4-40.2,88.9c-3.1,8.9-1.4,33.9,8.9,44.2    c2.5,2.5,17.4,0.5,17.4,0.5l9.8-6.8l-4.1-7.9l-0.2-6.2c0,0,12.5-30.2,27.9-58.7C553.1,576.3,553.1,538.9,553.1,538.9z"/>
		<g>
			<path class="st15" d="M510,653.5l57.1,3c0,0-55,25.2-56.8,20.9C500,652.8,510,653.5,510,653.5z"/>
			<g>
				<path class="st15" d="M541.5,651.8c3.3-1.6,3-1.6,3-1.6s3.1,3.6,7.5,4.3c2.2,0.3,9.3,0.4,9.3,0.4l10.5,0.3l4.9-0.3      c0,0,2.8-0.4,3.5,0.1c2.1,1.4,0.3,2.5,0.3,2.5l-18.9,2.7l18.1,2.2c0,0,2.3,0.7,2.4,1.9c0.1,1.2-0.7,1.1-0.7,1.1l-21,2.2l9.2,2.2      c0,0,2.2,0.7,2.4,1.9c0.2,1.3,0.3,1.7,0.3,1.7l-19.4-1.9C552.9,671.5,538.1,653.4,541.5,651.8z"/>
				<path class="st15" d="M562.4,663.4l12.7,2.3c0,0,2.9,0.2,4.2,1.1c1.5,1.1,0.6,2.4,0.6,2.4l-19.4-1.6L562.4,663.4z"/>
			</g>
		</g>
		<g>
			<path class="st18" d="M641.8,673.4c0,0,0-0.1,0.1-0.1l-0.1-3.6H529.2v3.6c0,0,0,0.1,0,0.1l0.4,0.7c1.9,3.1,5.4,3.7,9.3,3.7h93.2     c3.9,0,7.4-0.6,9.3-3.7L641.8,673.4z"/>
			<g>
				<rect x="548.3" y="670.5" class="st19" width="74.5" height="2.5"/>
			</g>
			<g>
				<path class="st20" d="M641.7,670.1l0.3-73.8c0-1.9-1.6-3.5-3.5-3.5H533.2c-1.9,0-3.5,1.6-3.5,3.5l-0.3,73.8H641.7z"/>
				<path class="st18" d="M592.5,631.4c0,3.8-3.1,6.8-6.8,6.8c-3.8,0-6.8-3.1-6.8-6.8c0-3.8,3.1-6.8,6.9-6.8      C589.5,624.6,592.5,627.6,592.5,631.4z"/>
			</g>
		</g>
		<polygon class="st12" points="502.6,682.1 498.7,657 505.2,650.3 519.6,652.6 516.7,680.4   "/>
		<polygon class="st3" points="677.8,664.1 679.3,654.9 661,638.5 651.2,643 664.1,667.7   "/>
	</g>
	<g>
		<g>
			<path class="st10" d="M198.5,794.6c-3.8,0-9.8-0.9-15-5.4c-7.6-6.6-10.8-18.3-9.7-34.7c0.7-11.1,5.1-22.4,9.8-34.3     c7.8-20.1,16.6-42.8,12-72.9l8.6-1.3c5,32.4-4.7,57.3-12.5,77.3c-4.6,11.8-8.5,21.9-9.2,31.7c-0.9,13.4,1.4,22.9,6.7,27.5     c5,4.4,11.2,3.3,11.5,3.2l1.7,8.5C202.2,794.3,200.7,794.6,198.5,794.6z"/>
		</g>
		<g>
			<g>
				<path class="st7" d="M265.2,863.6l8.5,12.9l-71.1,22.8c0,0-4.8-4.5,12.7-13.7C235.6,875,265.2,863.6,265.2,863.6z"/>
				<path class="st7" d="M277.8,863.6l-8.5,12.9l71.1,22.8c0,0,4.7-4.5-12.7-13.7C307.4,875,277.8,863.6,277.8,863.6z"/>
			</g>
			<rect x="264.1" y="825.2" class="st7" width="14.9" height="52.9"/>
			<g>
				<path class="st8" d="M264.2,866.3l7.2,12.3l-60.8,21.7c0,0-4.1-4.3,10.9-13C238.9,877.2,264.2,866.3,264.2,866.3z"/>
				<path class="st8" d="M278.8,866.3l-7.2,12.3l60.9,21.7c0,0,4.1-4.3-10.9-13C304.1,877.2,278.8,866.3,278.8,866.3z"/>
			</g>
			<path class="st9" d="M217.5,905.2c0,2.8-2.3,5.2-5.2,5.2c-2.8,0-5.2-2.3-5.2-5.2c0-2.9,2.3-5.2,5.2-5.2     C215.2,900.1,217.5,902.4,217.5,905.2z"/>
			<path class="st9" d="M335.4,905.2c0,2.8-2.3,5.2-5.2,5.2c-2.9,0-5.2-2.3-5.2-5.2c0-2.9,2.3-5.2,5.2-5.2     C333.1,900.1,335.4,902.4,335.4,905.2z"/>
			<path class="st10" d="M205,905.2c0,2.8-2.3,5.2-5.2,5.2s-5.2-2.3-5.2-5.2c0-2.9,2.3-5.2,5.2-5.2S205,902.4,205,905.2z"/>
			<path class="st10" d="M347.9,905.2c0,2.8-2.3,5.2-5.2,5.2c-2.8,0-5.2-2.3-5.2-5.2c0-2.9,2.3-5.2,5.2-5.2     C345.6,900.1,347.9,902.4,347.9,905.2z"/>
		</g>
		<rect x="265.9" y="805.8" class="st10" width="10.9" height="19"/>
		<path class="st10" d="M284.9,795.8c0,5.9-4.7,10.6-10.6,10.6h-6c-5.8,0-10.6-4.7-10.6-10.6l0,0c0-5.9,4.7-10.6,10.6-10.6h6    C280.1,785.2,284.9,789.9,284.9,795.8L284.9,795.8z"/>
		<path class="st0" d="M352.1,786.1c0.3-1.2,0.4-9.1,0.4-10.4c0-8.6-5.5-15.5-12.4-15.5H202.5c-6.8,0-12.3,6.9-12.3,15.5    c0,1.3,0.1,9.2,0.4,10.4H352.1z"/>
		<path class="st10" d="M188.9,790.3c0,2.6,1.5,4.7,3.4,4.7h158c1.9,0,3.4-2.1,3.4-4.7l0,0c0-2.6-1.5-4.7-3.4-4.7h-158    C190.4,785.5,188.9,787.7,188.9,790.3L188.9,790.3z"/>
		<g>
			<path class="st0" d="M196.6,706.6c3.4,0.3,25,0.6,28.7,0.7c23.6,0.3,44-4.1,45.1-10c4.7-24.2,4.9-49,0.6-73.1     c-1-5.8-21.7-10.2-45.8-10c-3.8,0-25.8,0.4-29.3,0.7C203.3,645.1,203.5,676.5,196.6,706.6z"/>
			<path class="st10" d="M193.3,614.9c-2.6,0-4.5,1.3-4.1,2.8c6.6,28.3,6.8,57.7,0.7,86.1c-0.3,1.5,1.5,2.8,4.1,2.8l0,0     c2.6,0,5-1.2,5.3-2.7c6.2-28.4,6-57.9-0.6-86.3C198.4,616.1,196,614.9,193.3,614.9L193.3,614.9z"/>
			<path class="st21" d="M192.3,706.6c0.7,0.2,5.4,0.4,6.2,0.4c5.1,0.1,10.4-4.5,11.5-10.2c4.3-23.8,4.2-48.2-0.3-72     c-1.1-5.7-6.5-10.3-11.7-10.2c-0.8,0-5.6,0.2-6.3,0.4C199,645.1,199.2,676.5,192.3,706.6z"/>
		</g>
	</g>
	<g>
		<path class="st22" d="M238.3,491.1h-11.7v6C229.3,493.5,233.5,491.1,238.3,491.1z"/>
		<path class="st22" d="M241.7,491.1v16.4c0,7.9-6.4,14.4-14.4,14.4h-0.7v25.4h51.4v-56.2H241.7z"/>
	</g>
	<g>
		<path class="st23" d="M269.9,527c0,0-20.1,7.2-0.8,64.9c19.3,57.7,32.2,50.7,32.2,50.7l16-1.5l30.7-36.3l-16.5-14.4l-3.3,1.3    c0,0-4.3-1.8-4.8-5.7c-0.5-4-8.2-20.6-14.1-54.5C306.6,515.8,273.8,525.6,269.9,527z"/>
		<path class="st15" d="M343.6,605.4c0,0,39.7,20.3,64.8-19c7.4-11.7,4.3,1.8,0.2,14.5c-4.1,12.8-28.8,41.7-56.8,43.7    c-28.1,1.9-38.8,0.4-44-9.3C302.4,625.6,343.6,605.4,343.6,605.4z"/>
		<path class="st24" d="M309.5,596.2l10.1-6.5l4.2-2.4c1.2,3,4.4,4.3,4.4,4.3l-8.4,3.5l-9.2,5.9l-9.5,11.4L309.5,596.2z"/>
		<path class="st23" d="M307.1,692.8l-75.2-1.6l-31.3-104.7c0,0-14.3-63.1,12.4-64.1c38.9-1.5,89.9-0.8,89.9-0.8    S329,544.2,307.1,692.8z"/>
		<path class="st24" d="M280.1,687.1c2.9,0.4,5.9,0.9,8.8,1.3c4.8-55-0.3-110.9-15-164.1c-2.4,0.8-4.8,1.6-7.2,2.4    C280.6,578.9,285.2,633.5,280.1,687.1z"/>
		<path class="st14" d="M430.9,915.2c0,0-7.3,11.3-11.1,4.4c-11.2-20.8-21.3-86.3-22-113.2c-0.9-35.9-2.5-57.7-2.5-57.7l36.1-13.1    L430.9,915.2z"/>
		<path class="st14" d="M304.4,692l127.3,43.6l-33.4,18.6c0,0-131.3,23-133.6-25.7C262.7,687.5,304.4,692,304.4,692z"/>
		<path class="st25" d="M385.7,916.2c0,0-6.6,6-10.3-0.9c-11.2-20.8-29.6-75.9-30.2-102.8c-0.8-35.9,5.1-60.8,5.1-60.8l36.9-12.8    L385.7,916.2z"/>
		<path class="st25" d="M265,693.4l121.4,45.8l-33.2,18.1c0,0-123.2,23-125.5-25.7C225.1,682.9,265,693.4,265,693.4z"/>
		<path class="st25" d="M225.4,734.3c-0.3,3.4,1.6,14.6,5.4,19.1c11.5,13.9,38.7,9.2,60.4,9.2c1.2,0,7.2-16.9,7.2-16.9l9.1-55.4    l-76.1,1.3C231.4,691.6,228,706.4,225.4,734.3z"/>
		<path class="st15" d="M349,658.1l27.9-5c0,0,4.3-0.5,4.5,2.5c0.3,4-0.4,16.9-0.4,16.9l-5-3.1l-7.2,4.4l-8.3-11    c0,0-4.3,0.8-7.9-0.1C351.3,662.4,349,658.1,349,658.1z"/>
		<path class="st15" d="M280.6,650.2l73.8,8.2c0,0-39.6,20.2-57.7,20.3c-18.1,0.1-35.1-4-35.1-4L280.6,650.2z"/>
		<path class="st24" d="M244.2,573.7l36.9,69.7l-2.1,5.7l5.7,1.1l-17.2,27.4l-27-6.2l-48.6-96.2c0,0-10.2-29.1,13-51.2    C216.4,512.8,241,568.1,244.2,573.7z"/>
		<path class="st23" d="M253.6,667.3c0,0,17.4-13.3,26.3-20.6l-0.9,2.5l5.7,1l-6,9.4l-10.5,12.2l-6-2.2l2.3-4.3L253.6,667.3z"/>
		<g>
			<g>
				<path class="st14" d="M276.8,473.6c0,5-4.1,9.1-9.1,9.1h-34.4c-5,0-9.1-4.1-9.1-9.1l0,0c0-5,4.1-9.1,9.1-9.1h34.4      C272.7,464.5,276.8,468.6,276.8,473.6L276.8,473.6z"/>
				<path class="st14" d="M270.5,489.4c0,9.3-7.5,16.8-16.8,16.8h-18c-9.3,0-16.8-7.5-16.8-16.8l0,0c0-9.3,7.5-16.8,16.8-16.8h18      C263,472.5,270.5,480.1,270.5,489.4L270.5,489.4z"/>
				<path class="st15" d="M284,516.4v-52.7c0-8.4-6.8,0-15.2,0h-8.1c-8.4,0-15.2,6.8-15.2,15.2v37.5H284z"/>
				<path class="st15" d="M252.3,490.6c0,3.7-3,6.7-6.7,6.7l0,0c-3.7,0-6.7-3-6.7-6.7l0,0c0-3.7,3-6.7,6.7-6.7l0,0      C249.3,484,252.3,487,252.3,490.6L252.3,490.6z"/>
				<path class="st15" d="M279.6,499.9c0,2.1,1.7,3.9,3.7,3.9h3.1c2.1,0,3.7-1.7,3.7-3.9c0,0-6.8-20-8.9-20c0,0-1.7,1.7-1.7,3.9      V499.9z"/>
				<path class="st14" d="M262.8,513.5c-15.2,0-16.8-4.7-17.2-10c0,0-4.1,13.3-4.1,17.6v4.8c0,9.3,9.5,16.8,21.3,16.8H284v-23.6      v-5.6H262.8z"/>
				<path class="st14" d="M284,503.7h-12.2c-5.6,0-10.1,4.5-10.1,10.1c0,0.9,0.1,1.7,0.4,2.5H284V503.7z"/>
				<path class="st15" d="M268.3,514.3v3.4c0,0.9,0.8,1.7,1.7,1.7h9.8c0.9,0,1.7-0.8,1.7-1.7v-3.4H268.3z"/>
				<path class="st14" d="M278.8,454.3h-31.2c-3.4,0-6.1,2.7-6.1,6.1v12.2h37.2V454.3z"/>
				<path class="st14" d="M298.1,463.4c0,5.1-4.1,9.2-9.2,9.2h-21.1c-5.1,0-9.2-4.1-9.2-9.2l0,0c0-5.1,4.1-9.2,9.2-9.2h21.1      C294,454.2,298.1,458.3,298.1,463.4L298.1,463.4z"/>
			</g>
			<rect x="245.2" y="468.2" class="st14" width="8.4" height="22.2"/>
			<rect x="247.8" y="458.7" class="st14" width="24.8" height="26.1"/>
			<path class="st15" d="M253.6,485.1c0-6.9,5.6-12.5,12.5-12.5h6.5c6.9,0,10.6,5.6,10.6,12.5l0,0c0,6.9-5.6,12.5-12.5,12.5h-4.6     C259.2,497.6,253.6,492,253.6,485.1L253.6,485.1z"/>
		</g>
		<g>
			<path class="st15" d="M405.3,600.1c0,0-6-14.3-3.8-18.2c2.1-3.9,10.9-17.6,10.9-17.6l2.6-3.3c0,0,5.2,0.8-0.8,9.9     c-6,9.1-0.6,6.3-0.6,6.3l8.6-6.2l11.2-6.8l4.6-3.7c0,0,2.4-2.3,3.5-2.3c3-0.1,2,2.2,2,2.2L426.9,576l19.2-10.4     c0,0,2.7-0.9,3.6,0.2c0.9,1.1,0.1,1.5,0.1,1.5l-19,16.8l10.5-4.3c0,0,2.7-0.8,3.7,0.2c1.1,1.2,1.4,1.4,1.4,1.4l-38.7,21.7     L405.3,600.1z"/>
			<path class="st15" d="M430,578.7l14-6.5c0,0,3-1.8,4.9-1.8c2.2,0,2.2,1.9,2.2,1.9l-20.1,11.9L430,578.7z"/>
		</g>
		<path class="st25" d="M397.6,927.3c0.6,1.1,0.1,3.9,0.1,3.9s-11.4,1.9-15,0.8c-0.9-0.3-2.5-1.4-4-2.5c-0.3-0.2-0.7-1.4-0.9-1.6    c-0.5-0.4-0.7,0.3-1.1-0.1c-1-0.9-1.7-1.5-1.7-1.6c-0.9-7.1,0.4-10,0.4-10s9.7-4.5,11.5-1.5C391,921.9,396.2,925,397.6,927.3z"/>
		<path class="st14" d="M418.7,918.4l1.6,10.3h8.6c0,0,0.5-1.5,1.2-1.5c0.6,0,1.4,1.5,2.2,1.5c1.8,0,3.8,0,4.6,0    c1.6,0,17.3,0,17.3,0s0.4-2.2-0.1-2.9c-0.2-0.4-1.7-1.1-2.6-1.4c-4.4-1.5-17.9-4.8-20.9-9.6C428.3,911.1,418.7,918.4,418.7,918.4z    "/>
	</g>
	<g>
		<path class="st26" d="M350,673.2c0,0,0-0.1-0.1-0.1l0.1-3.6h149.5v3.6c0,0,0,0.1,0,0.1l-0.4,0.7c-1.9,3.1-5.4,3.7-9.3,3.7H359.7    c-3.9,0-7.4-0.6-9.3-3.7L350,673.2z"/>
		<path class="st27" d="M386.1,673.8C386.1,673.8,386.1,673.9,386.1,673.8l-0.4,0.6c-0.6,0.8-1.3,1.4-2.2,1.8h-22.7    c-3.8,0-7.1-0.5-9-3l-0.4-0.6c0,0,0-0.1-0.1-0.1l0-1.8h34.6V673.8z"/>
		<g>
			<rect x="406.2" y="670.3" class="st28" width="74.7" height="2.5"/>
		</g>
		<g>
			<path class="st29" d="M386.9,669.4l19.4-73.4c0.5-1.9,2.5-3.5,4.4-3.5h104.9c1.9,0,3.1,1.6,2.6,3.5l-19.4,73.4H386.9z"/>
			<path class="st26" d="M446.2,630.9c-1,3.7,1.3,6.8,5,6.8c3.8,0,7.6-3,8.6-6.8c1-3.8-1.2-6.8-5-6.8     C451,624.1,447.2,627.1,446.2,630.9z"/>
		</g>
	</g>
	<g>
		<g>
			<path class="st10" d="M915.8,798.3c3.4,0,8.9-0.8,13.6-4.9c6.8-5.9,9.8-16.5,8.8-31.4c-0.7-10.1-4.6-20.3-8.8-31     c-7.1-18.2-15.1-38.7-10.9-65.9l-7.8-1.2c-4.5,29.3,4.3,51.8,11.3,70c4.1,10.7,7.7,19.9,8.3,28.7c0.8,12.1-1.3,20.7-6,24.9     c-4.5,4-10.2,3-10.4,2.9l-1.6,7.7C912.5,798,913.8,798.3,915.8,798.3z"/>
		</g>
		<g>
			<g>
				<path class="st7" d="M855.5,860.7l-7.7,11.7l64.3,20.6c0,0,4.3-4.1-11.5-12.4C882.3,871,855.5,860.7,855.5,860.7z"/>
				<path class="st7" d="M844,860.7l7.7,11.7L787.4,893c0,0-4.3-4.1,11.5-12.4C817.2,871,844,860.7,844,860.7z"/>
			</g>
			<rect x="843" y="826" class="st7" width="13.4" height="47.9"/>
			<g>
				<path class="st8" d="M856.3,863.2l-6.6,11.1l55.1,19.7c0,0,3.7-3.9-9.8-11.8C879.3,873,856.3,863.2,856.3,863.2z"/>
				<path class="st8" d="M843.2,863.2l6.6,11.1L794.7,894c0,0-3.7-3.9,9.8-11.8C820.2,873,843.2,863.2,843.2,863.2z"/>
			</g>
			<path class="st9" d="M898.6,898.4c0,2.6,2.1,4.7,4.7,4.7c2.6,0,4.7-2.1,4.7-4.7c0-2.6-2.1-4.7-4.7-4.7     C900.7,893.7,898.6,895.8,898.6,898.4z"/>
			<path class="st9" d="M791.9,898.4c0,2.6,2.1,4.7,4.7,4.7c2.6,0,4.7-2.1,4.7-4.7c0-2.6-2.1-4.7-4.7-4.7     C794,893.7,791.9,895.8,791.9,898.4z"/>
			<path class="st10" d="M909.9,898.4c0,2.6,2.1,4.7,4.7,4.7c2.6,0,4.7-2.1,4.7-4.7c0-2.6-2.1-4.7-4.7-4.7     C912,893.7,909.9,895.8,909.9,898.4z"/>
			<path class="st10" d="M780.6,898.4c0,2.6,2.1,4.7,4.7,4.7c2.6,0,4.7-2.1,4.7-4.7c0-2.6-2.1-4.7-4.7-4.7     C782.7,893.7,780.6,895.8,780.6,898.4z"/>
		</g>
		<rect x="845" y="808.4" class="st10" width="9.8" height="17.2"/>
		<path class="st10" d="M837.6,799.3c0,5.3,4.3,9.6,9.6,9.6h5.4c5.3,0,9.6-4.3,9.6-9.6l0,0c0-5.3-4.3-9.6-9.6-9.6h-5.4    C841.9,789.7,837.6,794,837.6,799.3L837.6,799.3z"/>
		<path class="st0" d="M776.9,790.6c-0.2-1.1-0.4-8.2-0.4-9.4c0-7.7,5-14,11.2-14h124.5c6.2,0,11.2,6.3,11.2,14    c0,1.2-0.1,8.3-0.4,9.4H776.9z"/>
		<path class="st10" d="M924.5,794.4c0,2.4-1.4,4.3-3.1,4.3h-143c-1.7,0-3.1-1.9-3.1-4.3l0,0c0-2.4,1.4-4.3,3.1-4.3h143    C923.1,790.1,924.5,792,924.5,794.4L924.5,794.4z"/>
		<g>
			<path class="st0" d="M917.6,718.6c-3.1,0.2-22.6,0.6-26,0.6c-21.4,0.3-39.8-3.8-40.8-9c-4.2-21.9-4.4-44.3-0.6-66.2     c0.9-5.3,19.6-9.3,41.4-9c3.4,0,23.4,0.4,26.5,0.6C911.4,663,911.3,691.4,917.6,718.6z"/>
			<path class="st10" d="M920.5,635.7c2.4,0,4.1,1.2,3.7,2.5c-6,25.6-6.2,52.3-0.7,77.9c0.3,1.4-1.4,2.5-3.7,2.5l0,0     c-2.3,0-4.5-1.1-4.8-2.4c-5.6-25.7-5.4-52.4,0.5-78.1C915.9,636.7,918.1,635.6,920.5,635.7L920.5,635.7z"/>
			<path class="st21" d="M921.4,718.6c-0.6,0.2-4.9,0.4-5.6,0.4c-4.7,0.1-9.4-4-10.4-9.2c-3.9-21.5-3.8-43.6,0.3-65.2     c1-5.2,5.9-9.3,10.6-9.2c0.8,0,5.1,0.2,5.7,0.4C915.4,663,915.2,691.4,921.4,718.6z"/>
		</g>
	</g>
	<g>
		<g>
			<g>
				<g>
					<path class="st13" d="M791.9,656.3c0,0-0.1,5.4-26.5,5.5c-26.4,0-65.2-6.5-65.2-6.5l60.9-5.7       C761,649.5,784.4,648.4,791.9,656.3z"/>
					<path class="st13" d="M720.9,657.2c-12.5,0.4-17.7,6.9-22.7,9c-4.9,2.1-9.8,5.3-9.8,5.2c2.6-5.5,6.7-5.7,8.6-7.5       c2-1.8,1.5-0.9-3-1.1c-2.5-0.1-6.9,4.5-10,7.1c-2.7,2.2-4.5,2.5-4.5,2.5s3.1-4.6,7.1-8.4c4.9-4.6,10.9-8.4,12.4-9.1       c2.7-1.1,11-1.7,17-1.1C723,654.4,730,656.9,720.9,657.2z"/>
					<path class="st13" d="M699.9,655c0,0-9.5,2.7-11.2,4.1c-1.1,0.9-5.9,6.2-5.9,6.2s3.6-0.7,5.6-2.7       C690.4,660.6,699.9,655,699.9,655z"/>
				</g>
				<path class="st30" d="M779.9,645.2c0,0,24.3,0.7,23.2,15.2c-0.7,8.2-6.1,11.2-13.5,10.9c-13.7-0.6-29.2-2.1-29.2-2.1l-7.7-22.2      L779.9,645.2z"/>
			</g>
			<path class="st30" d="M785.1,647l21.2-75c0,0,3.1-11,9-9.1c8.4,2.7,4.6,11.7,4.1,17c-1.1,10.8,0,15.4-6.8,41.6     c-4.2,16.1-7.6,34.7-11.4,45.3c-2.6,7.3-7.8-2.9-15.2-5.5C772,656.4,785.1,647,785.1,647z"/>
		</g>
		<path class="st31" d="M826.3,547.9c3.7,16.3,20.1,26.5,36.8,22.8c16.7-3.7,27.2-20,23.6-36.3c-3.7-16.3-20.1-26.5-36.8-22.8    C833.2,515.3,822.6,531.6,826.3,547.9z"/>
		<path class="st31" d="M797.8,531.1c2.8,12.5,15.2,20.4,27.8,17.6l3.3-12.1c12.5-2.8,20.4-15.2,17.6-27.8l-1.9-8.5    c-2.8-12.5-15.2-20.4-27.8-17.6l-5.7,1.3c-12.5,2.8-20.4,15.2-17.6,27.8L797.8,531.1z"/>
		<path class="st15" d="M799.4,495.7c0.5,2.1,1.1,4.2,2,6.3c5.6,14.1,16.9,23.1,26.9,22.3c1.8,6.5,4.4,12.2,7.2,16.9    c3.1,5.3,11.2,9.9,11.2,9.9c3.9,9.8-35.3,42.7-37,41.8c-3.6-1.8,2.8-25.4,9.2-32.7c3-3.4,6.1-7.5,6.1-9.8    c0.2-8.1-2.3-9.8-6.2-13.5c-6.8-5.2-14.7-3.3-14.7-3.3c-0.8,0.2-1.5,0-2.1-0.4c-0.8-1.4-1.4-2.9-1.8-4.6l-4.2-18.7    C794.8,504.7,796.2,499.5,799.4,495.7z"/>
		<path class="st5" d="M840.1,704.4c0,0-10.1,9.1-12.9,9.9c-3.8,1.1-14.4-3.5-14.4-3.5s2.9-47.2,1.8-66c-1.1-18.7-5.5-24.1-5-29.9    c0.8-9.2-6.7-14-4.5-21c2.2-7,7.8-32.4,8.2-28.9c3.3,29.9,14.8,6.9,17,3.2C831.7,566.4,840.1,704.4,840.1,704.4z"/>
		<path class="st32" d="M819.1,557.1c0,0-13.3,9.8-13.1,14.3c0.2,4.5-6.9,17.8-4,37.9c3.3,22.9,4.5,38.2,3.8,52.8    c-0.7,14.6-7.4,27.2-7.6,45.2c-0.2,14.1,3,15.3,3,15.3s6.2,2.3,11.4-2.5c5.2-4.8,4.3-53,3.5-65.1c-0.8-12.1-4.6-40.7-5.4-49    c-1.1-10.3,0.6-20.4,1.1-23.4c1.8-10.2,4.1-16.5,5.6-20.3c0.3-0.6,3.7-3.4,3.9-3.9C822.2,556.1,820.2,555.9,819.1,557.1z"/>
		<path class="st30" d="M822.6,552.2c0,0,2.8-0.6,0.4,2.6c-1.3,1.7-1.4,3.3-1.4,3.3s-1.2-1.3-3,0.5c-1.6,1.6-4.2,3.7-4.2,3.7    s1.7-4.7,2-5C817.9,556,822.6,552.2,822.6,552.2z"/>
		<path class="st31" d="M835.1,589c3.8,17,21,27.7,38.4,23.8c17.4-3.9,28.4-20.9,24.6-37.9c-3.8-17-21-27.7-38.4-23.8    C842.3,555,831.3,572,835.1,589z"/>
		<polygon class="st15" points="768.6,866 774.7,912.3 748.6,924.3 734.1,927.4 759.8,908.2 751.4,866.4   "/>
		<path class="st16" d="M776.4,919.3l-5.7,1.5l-3.8-3.4L746,927.5l-18.5,4.2c0,0-0.2-1.5,0.4-2.2c2.3-2.9,15.3-9.5,15.3-9.5    s0.2,4.3,2.1,4.4c1.8,0.1,17.8-8,21.5-10.2c6.4-3.9,7.6-6.3,8-6C776.1,909,776.4,919.3,776.4,919.3z"/>
		<polygon class="st15" points="705.6,801.6 684.9,841.1 656.2,839.7 641.9,835.7 673.6,830.5 690.9,796.8   "/>
		<path class="st16" d="M683.2,848.1l-5.7-1.3l-1.8-4.8l-25.7-0.4l-15.4-3.5c0,0,1.9-2,3-2.5c3.4-1.4,15.6-2.1,15.6-2.1    s-1.3,3.4,0.3,4.3c1.6,1,19.3,1.5,23.6,1.2c7.4-0.5,9.6-2.1,9.9-1.6C687.7,838.8,683.2,848.1,683.2,848.1z"/>
		<path class="st25" d="M857.1,683.6l-15.5,6.7l-6.7,20.2l-99.5-16.4c0,0-10.1-3.1-16.6,12.9c-9.2,22.8-32.6,93.7-32.6,93.7    l14.8,15.5l46.4-80.1c0,0,95.1,44.6,126.5,35c12-3.7,21.2-25,19.5-46.4c-1.3-16.8-4.7-32.3-4.7-32.3L857.1,683.6z"/>
		<path class="st14" d="M843.7,770.5l-76.1-5.5l6.5,117.5l-22.4,0.7l-16.6-137.6c0,0,4.5-20.5,19-17.4    C768.6,731.4,803.8,758.3,843.7,770.5z"/>
		<path class="st32" d="M834.1,713.4c0,0-1.8-47.8-3.2-70.5c-1.4-22.7-1.1-66.4-1.4-71.9c-0.3-5.4,1.2-13.1,1.2-13.1    s6.9-11.7,14.6-10.7c6.8,0.9,17.2,10.3,23.7,14.7c6.4,4.3,5.7,84.2,6,88.2c1.2,14.5,9.8,28.9,16.3,42.8c4.2,8.9,5.1,23.1,5.1,23.1    S857.6,708.5,834.1,713.4z"/>
		<polygon class="st30" points="842.8,543.5 837.3,548.9 829.7,557.1 833.6,566.4 847.1,547.3   "/>
		<g>
			<path class="st15" d="M853.2,668.4c0,0-0.8,5.8-32.1,2.4c-31.3-3.5-76.5-15.6-76.5-15.6l72.9,1.8     C817.5,657,845.4,658.9,853.2,668.4z"/>
			<path class="st15" d="M769,660c-14.9-1.2-21.8,5-27.9,6.7c-6.1,1.6-12.3,4.4-12.2,4.3c3.8-5.5,8.6-5.3,11.2-7     c2.6-1.7,1.9-0.8-3.4-1.6c-3-0.5-8.7,4-12.7,6.3c-3.5,2-5.6,2.1-5.6,2.1s4.2-4.6,9.5-8.1c6.3-4.3,14-7.7,15.7-8.1     c3.3-0.9,13.3-0.4,20.3,1.1C771.8,657.3,779.8,660.9,769,660z"/>
			<path class="st15" d="M744.3,654.9c0,0-11.6,1.7-13.7,2.9c-1.5,0.8-7.7,5.9-7.7,5.9s4.3-0.3,6.9-2.2     C732.4,659.6,744.3,654.9,744.3,654.9z"/>
		</g>
		<path class="st30" d="M840.4,654.9l3.5-74c0,0,4-15.5,9.8-19.1c6.9-4.2,16.4,3.6,16.4,3.6s4.9,11.5,1.6,66.1    c-2.2,36.5-5.5,55.4-22.8,52.7c-16.1-2.5-34.4-6.1-34.4-6.1l-6.5-24.9L840.4,654.9z"/>
	</g>
	<g>
		<path class="st33" d="M778.2,673.2c0,0,0-0.1,0.1-0.1l-0.1-3.7H626.3v3.7c0,0,0,0.1,0,0.1l0.4,0.7c1.9,3.2,5.5,3.8,9.5,3.8h132.2    c4,0,7.5-0.6,9.5-3.8L778.2,673.2z"/>
		<path class="st18" d="M741.6,673.9C741.6,673.9,741.5,673.9,741.6,673.9l0.4,0.7c0.6,0.8,1.4,1.4,2.2,1.9h23.1    c3.9,0,7.2-0.5,9.1-3l0.4-0.6c0,0,0-0.1,0.1-0.1l0-1.8h-35.2V673.9z"/>
		<g>
			<rect x="645.2" y="670.3" class="st18" width="75.9" height="2.6"/>
		</g>
		<g>
			<path class="st34" d="M740.7,669.3L721,594.7c-0.5-2-2.5-3.6-4.5-3.6H610c-2,0-3.1,1.6-2.6,3.6l19.7,74.6H740.7z"/>
			<path class="st18" d="M680.5,630.2c1,3.8-1.3,6.9-5.1,6.9c-3.8,0-7.7-3.1-8.7-6.9c-1-3.8,1.3-6.9,5.1-6.9     C675.6,623.3,679.5,626.4,680.5,630.2z"/>
		</g>
	</g>
	<g>
		<g>
			<polygon class="st4" points="308.5,934 324,934 298.4,685.6 275.9,685.6    "/>
			<polygon class="st35" points="277.4,697.1 307.5,773.7 299,691.2 298.4,685.6 278.7,685.6    "/>
		</g>
		<polygon class="st4" points="145.3,934 129.7,934 155.4,685.6 177.9,685.6   "/>
		<polygon class="st35" points="176.4,697.1 166.5,772.3 154.8,691.2 155.4,685.6 175.1,685.6   "/>
		<polygon class="st4" points="806.9,934 791.4,934 817,685.6 839.6,685.6   "/>
		<polygon class="st35" points="838.1,697.1 828.2,772.3 816.5,691.2 817,685.6 836.7,685.6   "/>
		<polygon class="st4" points="970.1,934 985.7,934 960,685.6 937.5,685.6   "/>
		<polygon class="st35" points="939,697.1 969.2,773.7 960.6,691.2 960,685.6 940.3,685.6   "/>
		<rect x="504.3" y="677.6" class="st10" width="477.5" height="14.5"/>
		<radialGradient id="SVGID_1_" cx="168.3985" cy="475.0976" r="593.7925" gradientUnits="userSpaceOnUse">
			<stop offset="1.574020e-03" style="stop-color:#CDF7F1"/>
			<stop offset="1" style="stop-color:#5DCFCA"/>
		</radialGradient>
		<rect x="136.9" y="677.6" class="st36" width="666.2" height="14.5"/>
	</g>
</g>
</svg>