<svg id="Capa_1" enable-background="new 0 0 512 512" height="512" viewBox="0 0 512 512" width="512" xmlns="http://www.w3.org/2000/svg"><g><path d="m512 256c0 141.385-114.615 256-256 256s-256-114.615-256-256 114.615-256 256-256 256 114.615 256 256z" fill="#07a9f0"/><path d="m462 224c0 113.771-92.229 206-206 206s-206-92.229-206-206 92.229-206 206-206 206 92.229 206 206z" fill="#40c1fa"/><path d="m249.885 421.488c-32.337 26.78-78.047 35.222-119.537 18.036s-67.843-55.477-71.772-97.279c32.337-26.78 78.047-35.222 119.537-18.036 41.489 17.186 67.843 55.477 71.772 97.279zm84.002-97.279c-41.49 17.186-67.843 55.477-71.772 97.279 32.337 26.78 78.047 35.222 119.537 18.036s67.843-55.477 71.772-97.279c-32.336-26.78-78.047-35.222-119.537-18.036z" fill="#0a3575"/><path d="m445.577 336.285c-11.29 28.301-33.551 52.193-63.924 64.775-38.235 15.837-80.055 9.911-111.689-12.077 11.29-28.3 33.551-52.193 63.924-64.774 38.234-15.837 80.055-9.911 111.689 12.076zm-379.154 0c11.29 28.301 33.551 52.193 63.924 64.775 38.235 15.837 80.055 9.911 111.689-12.077-11.29-28.3-33.551-52.193-63.924-64.774-38.234-15.837-80.055-9.911-111.689 12.076z" fill="#0a4499"/><path d="m458.503 340.344c-.559-1.349-1.639-2.323-2.911-2.786-34.872-28.261-82.112-35.161-123.619-17.969-32.094 13.293-56.427 39.198-67.973 70.902v-95.991c0-4.142-3.358-7.5-7.5-7.5-4.142 0-7.5 3.358-7.5 7.5v98.848c-11.1-33.001-35.921-60.068-68.974-73.758-41.506-17.192-88.747-10.292-123.619 17.969-1.271.462-2.352 1.437-2.911 2.786-.626 1.51-.456 3.151.315 4.458 4.923 44.31 33.357 82.249 74.622 99.342 30.414 12.597 63.903 12.26 93.353.062 9.58-3.968 18.734-9.193 27.213-15.634v83.335c2.326.063 4.659.094 7 .094 2.677 0 5.343-.042 8-.123v-82.554c8.198 6.097 17.008 11.069 26.213 14.882 29.45 12.198 62.939 12.536 93.353-.062 41.265-17.093 69.699-55.032 74.622-99.342.772-1.308.941-2.949.316-4.459zm-214.667 73.429-20.058-8.308 9.702-23.424c4.954 9.874 8.477 20.548 10.356 31.732zm-16.645-42.678-12.651 30.543-22.588-9.356 17.482-42.207c6.777 6.261 12.737 13.323 17.757 21.02zm-66.669 71.405c-8.159-1.081-16.265-3.072-24.174-5.995l19.952-48.167 22.588 9.356-18.022 43.508c-.177.426-.29.862-.344 1.298zm-54.512-22.902c.121-.204.229-.418.322-.644l18.142-43.798 22.587 9.356-19.931 48.118c-7.589-3.595-14.658-7.978-21.12-13.032zm40.778-98.512c8.152.995 16.259 2.895 24.175 5.723l-20.074 48.463-22.587-9.356 18.223-43.993c.113-.275.2-.555.263-.837zm13.339 58.013 20.095-48.512c7.627 3.511 14.739 7.813 21.251 12.791-.159.248-.298.513-.415.794l-18.343 44.283zm-23.757-58.792-17.307 41.783-22.588-9.356 12.327-29.761c9.029-2.026 18.289-2.925 27.568-2.666zm-71.671 30.089 18.71 7.75-9.149 22.087c-4.513-9.335-7.759-19.36-9.561-29.837zm3.609-9.329c8.784-6.257 18.292-11.137 28.22-14.593l-9.292 22.433zm12.156 50.32 12.184-29.415 22.588 9.356-17.164 41.438c-6.745-6.378-12.656-13.562-17.608-21.379zm90.323 51.994 17.339-41.861 22.588 9.356-12.508 30.198c-8.993 1.893-18.202 2.672-27.419 2.307zm39.605-5.599 9.559-23.079 19.84 8.218c-9.136 6.455-19.05 11.427-29.399 14.861zm227.347-57.549-9.149-22.087 18.71-7.75c-1.801 10.477-5.047 20.502-9.561 29.837zm-12.975-31.326-9.292-22.433c9.928 3.456 19.436 8.335 28.22 14.593zm-21.566-25.934 12.327 29.761-22.588 9.356-17.307-41.783c9.279-.259 18.539.64 27.568 2.666zm-18.328 109.656-19.931-48.118 22.587-9.356 18.142 43.798c.093.226.201.44.322.644-6.462 5.055-13.531 9.438-21.12 13.032zm-33.736 8.573-18.022-43.508 22.588-9.356 19.952 48.167c-7.909 2.923-16.015 4.914-24.174 5.995-.054-.436-.167-.872-.344-1.298zm-19.355-110.615 20.095 48.512-22.587 9.356-18.343-44.283c-.117-.281-.256-.546-.415-.794 6.511-4.979 13.623-9.28 21.25-12.791zm29.333 44.685-20.074-48.463c7.916-2.829 16.022-4.729 24.175-5.723.062.281.15.562.264.837l18.223 43.993zm-58.547-25.196 17.482 42.207-22.588 9.356-12.651-30.543c5.021-7.698 10.981-14.76 17.757-21.02zm-24.046 31.965 9.702 23.424-20.058 8.308c1.88-11.184 5.403-21.858 10.356-31.732zm-6.311 40.88 19.84-8.218 9.559 23.079c-10.348-3.434-20.262-8.406-29.399-14.861zm41.587 18.154-12.508-30.198 22.588-9.356 17.339 41.861c-9.218.364-18.427-.415-27.419-2.307zm100.133-28.309-17.164-41.438 22.588-9.356 12.184 29.415c-4.952 7.817-10.863 15.001-17.608 21.379z" fill="#0956c6"/><path d="m373.02 152.414c-1.054-.437-2.116-.829-3.183-1.178 1.002-.333 2-.703 2.991-1.114 22.291-9.233 32.876-34.788 23.643-57.079s-34.788-32.875-57.079-23.643c-1.054.437-2.083.91-3.084 1.418.473-.944.917-1.912 1.327-2.903 9.233-22.291-1.352-47.846-23.643-57.079-22.291-9.233-47.846 1.352-57.079 23.643-.437 1.055-.829 2.116-1.178 3.184-.333-1.002-.703-2-1.114-2.991-9.233-22.291-34.788-32.876-57.079-23.643s-32.876 34.789-23.643 57.079c.437 1.054.91 2.083 1.418 3.083-.944-.473-1.912-.917-2.903-1.327-22.291-9.233-47.846 1.352-57.079 23.643s1.352 47.846 23.643 57.079c1.054.437 2.116.829 3.183 1.178-1.002.333-2 .704-2.991 1.114-22.291 9.233-32.876 34.788-23.643 57.079s34.788 32.876 57.079 23.643c1.054-.437 2.083-.91 3.084-1.418-.473.944-.917 1.912-1.327 2.903-9.233 22.291 1.352 47.846 23.643 57.079s47.846-1.352 57.079-23.643c.437-1.055.829-2.116 1.178-3.184.333 1.002.703 2 1.114 2.991 9.233 22.291 34.788 32.876 57.079 23.643s32.876-34.788 23.643-57.079c-.437-1.054-.91-2.083-1.418-3.083.944.473 1.912.917 2.903 1.327 22.291 9.233 47.846-1.352 57.079-23.643s-1.352-47.846-23.643-57.079zm-57.079 23.643c-5.084 12.274-4.158 25.539 1.421 36.522-10.948-5.499-24.135-6.386-36.342-1.33-12.274 5.084-20.999 15.118-24.82 26.831-3.854-11.63-12.55-21.582-24.757-26.638-12.274-5.084-25.538-4.158-36.522 1.421 5.499-10.948 6.386-24.135 1.33-36.342-5.084-12.274-15.118-20.999-26.83-24.82 11.63-3.854 21.582-12.55 26.638-24.757 5.084-12.275 4.158-25.539-1.421-36.522 10.948 5.499 24.135 6.386 36.342 1.33 12.275-5.084 20.999-15.118 24.82-26.83 3.854 11.63 12.55 21.582 24.757 26.638 12.274 5.084 25.538 4.158 36.522-1.421-5.499 10.949-6.386 24.135-1.33 36.342 5.084 12.274 15.118 20.999 26.83 24.82-11.629 3.852-21.581 12.549-26.638 24.756z" fill="#ffcd71"/><path d="m294.609 43.5c0 24.024-17.386 43.5-38.832 43.5s-38.832-19.476-38.832-43.5 17.386-43.5 38.832-43.5 38.832 19.476 38.832 43.5zm-38.386 172.5c-21.446 0-38.832 19.476-38.832 43.5s17.386 43.5 38.832 43.5 38.832-19.476 38.832-43.5-17.386-43.5-38.832-43.5zm-151.723-64.277c0 21.446 19.476 38.832 43.5 38.832s43.5-17.386 43.5-38.832-19.476-38.832-43.5-38.832-43.5 17.386-43.5 38.832zm216-.446c0 21.446 19.476 38.832 43.5 38.832s43.5-17.386 43.5-38.832-19.476-38.832-43.5-38.832-43.5 17.386-43.5 38.832zm-171.784-106.746c-15.165 15.165-13.687 41.23 3.301 58.217s43.053 18.466 58.217 3.301c15.165-15.165 13.687-41.23-3.301-58.217s-43.053-18.466-58.217-3.301zm153.05 152.42c-15.165 15.165-13.687 41.23 3.301 58.217 16.988 16.988 43.053 18.466 58.217 3.301s13.687-41.23-3.301-58.217c-16.987-16.988-43.052-18.466-58.217-3.301zm-152.735 61.833c15.165 15.165 41.23 13.687 58.217-3.301s18.466-43.053 3.301-58.217c-15.165-15.165-41.23-13.687-58.217 3.301s-18.466 43.053-3.301 58.217zm152.42-153.05c15.165 15.165 41.23 13.687 58.217-3.301 16.988-16.988 18.466-43.053 3.301-58.217s-41.23-13.687-58.217 3.301c-16.988 16.987-18.466 43.052-3.301 58.217z" fill="#ffe7c0"/><path d="m376 145.5v12c0 5.523-4.477 10-10 10h-15.328c-1.013 6.038-2.589 11.885-4.674 17.485l13.264 7.658c4.783 2.762 6.422 8.877 3.66 13.66l-6 10.393c-2.761 4.783-8.877 6.421-13.66 3.66l-13.285-7.67c-3.854 4.654-8.138 8.938-12.791 12.792l7.67 13.285c2.761 4.783 1.123 10.899-3.66 13.66l-10.392 6c-4.783 2.762-10.899 1.123-13.66-3.66l-7.658-13.265c-5.6 2.085-11.447 3.661-17.485 4.674v15.328c0 5.523-4.477 10-10 10h-12c-5.523 0-10-4.477-10-10v-15.328c-6.038-1.013-11.885-2.589-17.485-4.674l-7.658 13.265c-2.761 4.783-8.877 6.422-13.66 3.66l-10.392-6c-4.783-2.761-6.422-8.877-3.66-13.66l7.67-13.285c-4.654-3.854-8.938-8.138-12.791-12.792l-13.285 7.67c-4.783 2.761-10.899 1.123-13.66-3.66l-6-10.393c-2.761-4.783-1.123-10.898 3.66-13.66l13.264-7.658c-2.084-5.6-3.661-11.447-4.674-17.485h-15.33c-5.523 0-10-4.477-10-10v-12c0-5.523 4.477-10 10-10h15.328c1.013-6.038 2.589-11.885 4.674-17.485l-13.265-7.658c-4.783-2.762-6.422-8.877-3.66-13.66l6-10.393c2.761-4.783 8.877-6.421 13.66-3.66l13.285 7.67c3.853-4.654 8.138-8.938 12.791-12.792l-7.67-13.285c-2.761-4.783-1.123-10.899 3.66-13.66l10.392-6c4.783-2.762 10.899-1.123 13.66 3.66l7.658 13.265c5.6-2.085 11.447-3.661 17.485-4.674v-15.328c0-5.523 4.477-10 10-10h12c5.523 0 10 4.477 10 10v15.328c6.038 1.013 11.885 2.589 17.485 4.674l7.658-13.265c2.761-4.783 8.877-6.422 13.66-3.66l10.392 6c4.783 2.761 6.422 8.877 3.66 13.66l-7.67 13.285c4.654 3.854 8.938 8.138 12.791 12.792l13.285-7.67c4.783-2.761 10.899-1.123 13.66 3.66l6 10.393c2.761 4.783 1.123 10.898-3.66 13.66l-13.265 7.658c2.084 5.6 3.661 11.447 4.674 17.485h15.332c5.523 0 10 4.477 10 10z" fill="#0956c6"/><path d="m322.342 187.297c-13.404 24.789-40.296 41.216-70.84 39.442-37.865-2.199-68.542-32.876-70.741-70.741-1.774-30.544 14.653-57.436 39.442-70.84 3.781-2.044 8.16 1.284 7.273 5.489-1.353 6.414-1.891 13.128-1.498 20.03 2.156 37.925 32.92 68.688 70.845 70.845 6.902.392 13.616-.146 20.03-1.499 4.205-.886 7.533 3.494 5.489 7.274z" fill="#f29500"/><path d="m331.37 151.5c0 13.061-3.323 25.345-9.168 36.055-10.71 5.845-22.994 9.167-36.054 9.167-41.626 0-75.37-33.745-75.37-75.37 0-13.061 3.323-25.345 9.168-36.054 10.71-5.845 22.994-9.168 36.054-9.168 41.626 0 75.37 33.744 75.37 75.37z" fill="#ffb52d"/><path d="m281.495 183.81c-17.815 0-32.31-14.494-32.31-32.31s14.494-32.31 32.31-32.31c6.473 0 12.721 1.909 18.068 5.521 2.288 1.546 2.89 4.654 1.345 6.942-1.547 2.287-4.654 2.889-6.942 1.345-3.688-2.491-8-3.808-12.47-3.808-12.302 0-22.31 10.008-22.31 22.31s10.008 22.31 22.31 22.31c11.523 0 16.798-8.49 18.188-17.31h-10.954c-2.761 0-5-2.238-5-5s2.239-5 5-5h16.339c2.761 0 5 2.238 5 5 0 19.023-11.75 32.31-28.574 32.31zm-57.872-.173c11.084-.224 20.216-9.065 20.79-20.128.306-5.891-1.758-11.486-5.813-15.756-3.997-4.21-9.615-6.624-15.414-6.624-1.833 0-3.405.097-4.813.281l1.945-11.739h15.73c2.761 0 5-2.238 5-5s-2.239-5-5-5h-19.97c-2.446 0-4.533 1.77-4.933 4.183l-3.956 23.878c-.308 1.859.463 3.73 1.982 4.845 1.519 1.114 3.543 1.277 5.225.425.042-.021.207-.103.466-.22 2.218-.998 3.996-1.652 8.323-1.652 3.115 0 6.014 1.246 8.162 3.51 2.147 2.261 3.24 5.228 3.078 8.353-.304 5.852-5.138 10.529-11.005 10.647-5.695.144-10.596-4.046-11.382-9.678-.072-.517-.109-1.047-.109-1.576 0-2.762-2.239-5-5-5s-5 2.238-5 5c0 .99.069 1.986.205 2.959 1.466 10.502 10.476 18.298 21.054 18.297.145-.001.291-.002.435-.005zm-159.545 117.982c2.026-5.6 6.107-10.073 11.49-12.596 5.384-2.521 11.433-2.794 17.031-.77 2.597.944 5.464-.402 6.403-3 .939-2.597-.403-5.463-3-6.402-8.111-2.936-16.875-2.539-24.678 1.117-7.802 3.655-13.715 10.137-16.65 18.248-.939 2.597.404 5.463 3 6.402.562.204 1.136.3 1.701.3 2.046.001 3.966-1.264 4.703-3.299zm-22.757-12.341c4.003-11.063 12.067-19.902 22.705-24.887 10.637-4.986 22.589-5.523 33.654-1.521 2.596.944 5.463-.402 6.403-3 .939-2.597-.404-5.463-3-6.402-13.576-4.913-28.242-4.249-41.299 1.869-13.057 6.117-22.953 16.963-27.865 30.539-.939 2.597.404 5.463 3 6.402.562.204 1.136.3 1.701.3 2.045 0 3.964-1.265 4.701-3.3zm413.004 15.341c2.597-.939 3.94-3.806 3-6.402-2.936-8.111-8.849-14.593-16.65-18.248-7.802-3.657-16.566-4.056-24.678-1.117-2.597.939-3.939 3.806-3 6.402s3.803 3.943 6.403 3c5.599-2.025 11.647-1.752 17.031.77 5.383 2.522 9.464 6.996 11.49 12.596.736 2.035 2.656 3.301 4.702 3.3.566-.001 1.141-.097 1.702-.301zm22.757-12.341c2.597-.939 3.94-3.806 3-6.402-4.913-13.576-14.809-24.422-27.865-30.539-13.057-6.12-27.725-6.784-41.299-1.869-2.597.939-3.94 3.806-3 6.402s3.805 3.943 6.403 3c11.065-4.004 23.016-3.462 33.654 1.521 10.638 4.984 18.702 13.823 22.705 24.887.736 2.035 2.656 3.301 4.702 3.3.564 0 1.139-.096 1.7-.3z" fill="#fff"/></g></svg>