<svg id="Capa_1" enable-background="new 0 0 512 512" height="512" viewBox="0 0 512 512" width="512" xmlns="http://www.w3.org/2000/svg"><g><path d="m512 256c0 141.385-114.615 256-256 256s-256-114.615-256-256 114.615-256 256-256 256 114.615 256 256z" fill="#ffb52d"/><path d="m480.229 249.553c0 111.397-90.305 201.702-201.702 201.702s-201.702-90.305-201.702-201.702 90.305-201.702 201.702-201.702 201.702 90.305 201.702 201.702z" fill="#ffc14f"/><path d="m288.527 7.489c64.899 0 117.511 52.611 117.511 117.511s-52.611 117.511-117.511 117.511-117.51-52.612-117.51-117.511 52.611-117.511 117.51-117.511z" fill="#07a9f0"/><path d="m406.032 123.84c.13 13.465-2.005 26.413-6.047 38.487-1.503 4.489-5.667 7.545-10.401 7.545h-.362c-7.529 0-12.721-7.402-10.326-14.54 3.146-9.376 4.873-19.403 4.928-29.826.271-52.11-42.032-95.179-94.139-95.798-24.343-.289-46.617 8.551-63.613 23.31-7.068 6.138-18.077 1.087-18.077-8.274v-.451c0-3.156 1.347-6.177 3.735-8.24 20.607-17.808 47.468-28.576 76.844-28.565 64.138.026 116.84 52.218 117.458 116.352z" fill="#40c1fa"/><path d="m288.527 29.702c52.632 0 95.298 42.666 95.298 95.298s-42.666 95.298-95.298 95.298-95.298-42.666-95.298-95.298 42.667-95.298 95.298-95.298z" fill="#d5f1fe"/><path d="m413.527 125c0 29.742-10.624 58.561-29.915 81.145-18.394 21.534-43.571 36.214-71.176 41.569l14.149 7.837c2.415 1.338 3.289 4.381 1.951 6.797-.913 1.647-2.619 2.578-4.379 2.578-.819 0-1.65-.202-2.418-.627l-23.098-12.794c-1.158-.642-2.016-1.718-2.382-2.99l-.105-.366c-.367-1.275-.213-2.646.431-3.807l12.794-23.098c1.338-2.415 4.38-3.289 6.797-1.951 2.415 1.338 3.289 4.381 1.951 6.797l-6.411 11.574c53.443-10.891 91.811-57.635 91.811-112.664 0-63.411-51.589-115-115-115s-115 51.589-115 115c0 2.762-2.238 5-5 5s-5-2.238-5-5c0-68.925 56.075-125 125-125s125 56.075 125 125z" fill="#ea552d"/><path d="m113.527 455h-50c-8.284 0-15-6.716-15-15v-280c0-8.284 6.716-15 15-15h50c8.284 0 15 6.716 15 15v280c0 8.284-6.715 15-15 15z" fill="#0a4499"/><path d="m228.527 135v330c0 8.284-6.716 15-15 15h-100c-8.284 0-15-6.716-15-15v-330c0-8.284 6.716-15 15-15h100c8.284 0 15 6.716 15 15z" fill="#0a3575"/><path d="m263.527 455h-170c-8.284 0-15-6.716-15-15v-280c0-8.284 6.716-15 15-15h170c8.284 0 15 6.716 15 15v280c0 8.284-6.715 15-15 15z" fill="#0956c6"/><path d="m228.527 395v18.207c0 5.523-4.477 10-10 10h-110c-5.523 0-10-4.477-10-10v-18.207c0-5.523 4.477-10 10-10h110c5.523 0 10 4.477 10 10z" fill="#0691ce"/><path d="m218.527 370.707h-110c-5.523 0-10-4.477-10-10v-18.207c0-5.523 4.477-10 10-10h110c5.523 0 10 4.477 10 10v18.207c0 5.523-4.477 10-10 10zm0 34.293h-110c-5.523 0-10-4.477-10-10 0-5.523 4.477-10 10-10h110c5.523 0 10 4.477 10 10 0 5.523-4.477 10-10 10z" fill="#07a9f0"/><path d="m285.527 52.061c.995-.041 1.995-.061 3-.061 40.317 0 73 32.683 73 73 0 20.783-8.685 39.538-22.625 52.833l-53.375-53.375z" fill="#93dcfc"/><path d="m325.726 163.972c-1.953 1.953-5.118 1.953-7.071 0l-34.327-34.327c-1.953-1.953-1.953-5.119 0-7.071.622-.622 1.367-1.045 2.157-1.271-2.007-.65-3.458-2.534-3.458-4.757v-64.546c0-2.761 2.239-5 5-5s5 2.239 5 5v64.545c0 2.283-1.53 4.208-3.62 4.807.729.235 1.414.643 1.992 1.221l34.327 34.327c1.953 1.953 1.953 5.119 0 7.072z" fill="#ea552d"/><path d="m303.527 125c0 8.284-6.716 15-15 15s-15-6.716-15-15 6.716-15 15-15 15 6.716 15 15z" fill="#ff956a"/><path d="m218.527 318.207h-110c-5.523 0-10-4.477-10-10v-18.207c0-5.523 4.477-10 10-10h110c5.523 0 10 4.477 10 10v18.207c0 5.523-4.477 10-10 10zm0 34.293h-110c-5.523 0-10-4.477-10-10 0-5.523 4.477-10 10-10h110c5.523 0 10 4.477 10 10 0 5.523-4.477 10-10 10z" fill="#72d1fb"/><path d="m218.527 265.707h-110c-5.523 0-10-4.477-10-10v-18.207c0-5.523 4.477-10 10-10h110c5.523 0 10 4.477 10 10v18.207c0 5.523-4.477 10-10 10zm0 34.293h-110c-5.523 0-10-4.477-10-10 0-5.523 4.477-10 10-10h110c5.523 0 10 4.477 10 10 0 5.523-4.477 10-10 10z" fill="#93dcfc"/><path d="m218.527 213.207h-110c-5.523 0-10-4.477-10-10v-18.207c0-5.523 4.477-10 10-10h110c5.523 0 10 4.477 10 10v18.207c0 5.523-4.477 10-10 10zm0 34.293h-110c-5.523 0-10-4.477-10-10 0-5.523 4.477-10 10-10h110c5.523 0 10 4.477 10 10 0 5.523-4.477 10-10 10z" fill="#b4e7fd"/><path d="m218.527 195h-110c-5.523 0-10-4.477-10-10 0-5.523 4.477-10 10-10h110c5.523 0 10 4.477 10 10 0 5.523-4.477 10-10 10z" fill="#d5f1fe"/><path d="m478.518 387.5-47.791 82.776c-2.679 4.641-7.631 7.5-12.99 7.5h-95.582c-5.359 0-10.311-2.859-12.99-7.5l-47.791-82.776c-2.68-4.641-2.68-10.359 0-15l47.791-82.776c2.68-4.641 7.631-7.5 12.99-7.5h95.582c5.359 0 10.311 2.859 12.99 7.5l47.791 82.776c2.679 4.641 2.679 10.359 0 15z" fill="#ea552d"/><path d="m478.518 387.5-32.527 56.338c-8.758 2.589-18.03 3.979-27.627 3.979-53.728 0-97.283-43.555-97.283-97.283 0-26.621 10.693-50.745 28.018-68.31h68.637c5.359 0 10.311 2.859 12.99 7.5l47.791 82.776c2.68 4.641 2.68 10.359.001 15z" fill="#f76937"/><path d="m346.895 375.941c4.949 5.213 7.469 12.044 7.096 19.235-.7 13.506-11.849 24.299-25.38 24.571-.176.004-.354.005-.53.005-12.914.001-23.913-9.516-25.702-22.336-.166-1.189-.25-2.405-.25-3.613 0-2.762 2.239-5 5-5s5 2.238 5 5c0 .747.052 1.498.154 2.23 1.099 7.874 7.861 13.719 15.8 13.719.108 0 .217-.001.326-.003 8.314-.168 15.165-6.797 15.595-15.091.229-4.427-1.319-8.629-4.361-11.833-3.044-3.206-7.151-4.972-11.565-4.972-5.85 0-8.381.936-11.318 2.257-.373.168-.601.281-.649.307-1.681.859-3.709.704-5.234-.411-1.525-1.113-2.298-2.987-1.99-4.851l5.098-30.771c.4-2.413 2.487-4.183 4.933-4.183h25.735c2.761 0 5 2.238 5 5s-2.239 5-5 5h-21.495l-3.035 18.32c2.239-.436 4.782-.668 7.956-.668 7.078.001 13.936 2.949 18.816 8.088zm86.705-1.165h-21.056c-2.761 0-5 2.238-5 5s2.239 5 5 5h15.77c-1.451 12.543-8.572 25.194-25.094 25.194-16.649 0-30.194-13.545-30.194-30.194s13.545-30.194 30.194-30.194c6.051 0 11.887 1.782 16.877 5.153 2.289 1.547 5.396.945 6.942-1.344 1.546-2.288.944-5.396-1.344-6.941-6.65-4.493-14.422-6.868-22.476-6.868-22.163 0-40.194 18.031-40.194 40.194s18.031 40.194 40.194 40.194c20.832 0 35.381-16.528 35.381-40.194 0-2.762-2.239-5-5-5z" fill="#fff"/></g></svg>