<svg id="Capa_1" enable-background="new 0 0 512 512" height="512" viewBox="0 0 512 512" width="512" xmlns="http://www.w3.org/2000/svg"><g><path d="m0 256c0-141.384 114.615-256 255.999-256 141.29 0 256.35 115.357 256 256.647-.213 85.948-42.78 161.941-107.933 208.214-5.559 3.948-12.567 5.218-19.184 3.574-40.2-9.987-83.606-15.435-128.882-15.435-45.731 0-89.555 5.559-130.094 15.737-5.815 1.46-11.974.34-16.88-3.106-65.934-46.311-109.026-122.939-109.026-209.631z" fill="#203e76"/><path d="m478 223.073c0 107.92-87.487 195.407-195.407 195.407s-195.406-87.487-195.406-195.407 87.486-195.407 195.406-195.407 195.407 87.487 195.407 195.407z" fill="#274c91"/><path d="m102.426 186.721 170.853 170.853-42.426 42.426-170.853-170.853zm75.951-36.721v60h221.623v-60z" fill="#2476ed"/><path d="m311 395c0 30.376-24.624 55-55 55s-55-24.624-55-55 24.624-55 55-55 55 24.624 55 55z" fill="#07a9f0"/><path d="m291 395c0 19.33-15.67 35-35 35s-35-15.67-35-35 15.67-35 35-35 35 15.67 35 35z" fill="#2476ed"/><path d="m272 395c0 8.837-7.163 16-16 16s-16-7.163-16-16 7.163-16 16-16 16 7.163 16 16z" fill="#0956c6"/><path d="m351.623 180c0 5.523-4.477 10-10 10h-99.094c-5.523 0-10-4.477-10-10 0-5.523 4.477-10 10-10h99.094c5.523 0 10 4.477 10 10zm-136.131 148.071-36.59-36.59c-3.905-3.905-10.237-3.905-14.142 0-3.905 3.905-3.905 10.237 0 14.142l36.59 36.59c3.905 3.905 10.237 3.905 14.142 0 3.906-3.905 3.906-10.237 0-14.142z" fill="#0956c6"/><path d="m340 135v90c0 2.761-2.239 5-5 5h-11.623c-2.761 0-5-2.239-5-5v-90c0-2.761 2.239-5 5-5h11.623c2.761 0 5 2.239 5 5z" fill="#07a9f0"/><path d="m340 135v57.638c0 2.761-2.239 5-5 5h-11.623c-2.761 0-5-2.239-5-5v-57.638c0-2.761 2.239-5 5-5h11.623c2.761 0 5 2.239 5 5z" fill="#40c1fa"/><path d="m474.426 244.601c4.222 4.222 4.222 11.068 0 15.29-4.222 4.222-11.067 4.222-15.29 0l-55.421-55.421c-4.222-4.222-4.222-11.067 0-15.29 4.222-4.222 11.068-4.222 15.29 0zm-55.421-73.781 55.421-55.421c4.222-4.222 4.222-11.067 0-15.289-4.222-4.222-11.067-4.222-15.29 0l-55.421 55.421c-4.222 4.222-4.222 11.067 0 15.29 4.223 4.221 11.068 4.221 15.29-.001z" fill="#72d1fb"/><path d="m512 252.215c0 5.971-4.84 10.812-10.811 10.812h-34.718c-5.971 0-10.811-4.84-10.811-10.811 0-5.971 4.84-10.811 10.811-10.811h34.718c5.971-.001 10.811 4.84 10.811 10.81zm-45.529-133.528h34.718c5.971 0 10.811-4.84 10.811-10.812 0-5.971-4.84-10.811-10.811-10.811h-34.718c-5.971 0-10.811 4.84-10.811 10.811s4.84 10.812 10.811 10.812z" fill="#93dcfc"/><path d="m450 180c0 24.853-20.147 45-45 45s-45-20.147-45-45 20.147-45 45-45 45 20.147 45 45z" fill="#07a9f0"/><path d="m426.273 180c0 11.749-9.524 21.273-21.273 21.273s-21.273-9.524-21.273-21.273 9.524-21.273 21.273-21.273 21.273 9.524 21.273 21.273z" fill="#2476ed"/><path d="m415 180c0 5.523-4.477 10-10 10s-10-4.477-10-10 4.477-10 10-10 10 4.477 10 10z" fill="#0956c6"/><path d="m449.918 177.253c1.054 17.749-8.186 33.44-22.309 41.662-7.838 4.563-17.673-1.277-17.673-10.347v-.012c0-4.168 2.164-8.069 5.765-10.169 7.005-4.085 11.465-12.058 10.421-20.961-1.119-9.542-8.736-17.273-18.264-18.514-8.696-1.132-16.539 2.993-20.79 9.638-2.131 3.332-5.896 5.257-9.851 5.257-9.381 0-15.098-10.404-9.991-18.274 8.54-13.159 23.768-21.575 40.869-20.431 22.405 1.5 40.492 19.735 41.823 42.151z" fill="#40c1fa"/><path d="m226.872 354.264c0-3.876 2.236-7.409 5.743-9.059 7.097-3.339 15.023-5.205 23.385-5.205 23.806 0 44.079 15.124 51.735 36.288 2.35 6.496-2.526 13.35-9.434 13.35-4.181 0-7.951-2.591-9.37-6.523-4.867-13.48-17.773-23.115-32.931-23.115-5.319 0-10.361 1.187-14.876 3.31-6.632 3.119-14.252-1.717-14.252-9.046z" fill="#40c1fa"/><path d="m240 183.213v12c0 5.522-4.477 10-10 10h-15.339c-1.018 6.058-2.592 11.901-4.665 17.484l13.267 7.66c4.783 2.761 6.422 8.877 3.66 13.66l-6 10.392c-2.761 4.783-8.877 6.422-13.66 3.661l-13.279-7.667c-3.862 4.661-8.151 8.94-12.799 12.785l7.672 13.288c2.761 4.783 1.123 10.899-3.66 13.66l-10.392 6c-4.783 2.762-10.899 1.123-13.66-3.66l-7.661-13.269c-5.615 2.094-11.464 3.673-17.483 4.687v15.319c0 5.522-4.477 10-10 10h-12c-5.523 0-10-4.478-10-10v-15.34c-6.058-1.018-11.902-2.592-17.484-4.665l-7.66 13.267c-2.761 4.783-8.877 6.422-13.66 3.66l-10.392-6c-4.783-2.761-6.422-8.877-3.66-13.66l7.667-13.279c-4.661-3.862-8.941-8.15-12.785-12.799l-13.288 7.672c-4.783 2.761-10.899 1.123-13.66-3.661l-6-10.392c-2.761-4.783-1.123-10.899 3.66-13.66l13.268-7.661c-2.094-5.615-3.673-11.464-4.687-17.483h-15.32c-5.523 0-10-4.478-10-10v-12c0-5.523 4.477-10 10-10h15.339c1.018-6.058 2.592-11.902 4.665-17.484l-13.267-7.659c-4.783-2.762-6.422-8.877-3.66-13.661l6-10.392c2.761-4.783 8.877-6.422 13.66-3.66l13.278 7.667c3.862-4.661 8.151-8.941 12.799-12.786l-7.671-13.287c-2.761-4.783-1.123-10.899 3.66-13.661l10.392-6c4.783-2.761 10.899-1.123 13.66 3.661l7.66 13.268c5.615-2.094 11.464-3.673 17.483-4.687v-15.318c0-5.523 4.477-10 10-10h12c5.523 0 10 4.477 10 10v15.339c6.058 1.018 11.902 2.592 17.484 4.665l7.659-13.266c2.761-4.783 8.877-6.422 13.66-3.661l10.392 6c4.783 2.762 6.422 8.877 3.66 13.661l-7.666 13.278c4.661 3.862 8.941 8.151 12.785 12.799l13.287-7.671c4.783-2.762 10.899-1.123 13.66 3.66l6 10.392c2.761 4.783 1.123 10.899-3.66 13.661l-13.268 7.66c2.094 5.615 3.673 11.464 4.687 17.483h15.322c5.523 0 10 4.477 10 10z" fill="#07a9f0"/><path d="m215.661 197.376c-.657 7.671-2.196 15.048-4.507 22.044-1.515 4.584-5.971 7.533-10.776 7.058l-.122-.012c-6.598-.652-10.758-7.268-8.681-13.564 1.649-4.996 2.796-10.24 3.376-15.68 4.343-40.701-25.128-77.851-65.758-82.817-7.603-.929-15.068-.696-22.221.556-6.751 1.182-12.783-4.341-12.108-11.161.458-4.631 3.962-8.363 8.546-9.165 9.426-1.649 19.276-1.909 29.307-.578 50.552 6.707 87.296 52.509 82.944 103.319z" fill="#40c1fa"/><path d="m180.853 217.737c4.205-.887 7.533 3.492 5.489 7.273-13.404 24.789-40.296 41.216-70.84 39.442-37.865-2.199-68.542-32.876-70.741-70.741-1.774-30.544 14.653-57.436 39.442-70.84 3.781-2.044 8.16 1.284 7.273 5.489-1.353 6.414-1.891 13.128-1.498 20.03 2.156 37.926 32.92 68.689 70.845 70.845 6.901.393 13.616-.145 20.03-1.498z" fill="#0a4499"/><path d="m195.37 189.213c0 13.061-3.323 25.345-9.168 36.054-10.71 5.845-22.994 9.168-36.054 9.168-41.626 0-75.37-33.744-75.37-75.37 0-13.06 3.323-25.345 9.168-36.054 10.71-5.845 22.994-9.168 36.054-9.168 41.626 0 75.37 33.744 75.37 75.37z" fill="#0956c6"/><path d="m372 425v30c0 8.284-6.716 15-15 15h-202c-8.284 0-15-6.716-15-15v-30c0-8.284 6.716-15 15-15h5c0-5.523 4.477-10 10-10s10 4.477 10 10h150c0-5.523 4.477-10 10-10s10 4.477 10 10h7c8.284 0 15 6.716 15 15z" fill="#ffb52d"/><path d="m404.436 445v19.598c-41.867 29.845-93.101 47.402-148.436 47.402s-106.569-17.557-148.436-47.402v-19.598c0-8.284 6.716-15 15-15h266.872c8.284 0 15 6.716 15 15z" fill="#ffcd71"/><path d="m147.394 487.887c-14.017-6.576-27.34-14.386-39.83-23.289v-19.598c0-8.284 6.716-15 15-15h39.83c-8.284 0-15 6.716-15 15z" fill="#ffc14f"/><path d="m230.811 490h-24.811c-5.523 0-10-4.477-10-10v-20c0-5.523 4.477-10 10-10h24.811c5.523 0 10 4.477 10 10v20c0 5.523-4.477 10-10 10z" fill="#0a4499"/><path d="m306 490h-77.553c-5.523 0-10-4.477-10-10v-20c0-5.523 4.477-10 10-10h77.553c5.523 0 10 4.477 10 10v20c0 5.523-4.477 10-10 10z" fill="#0956c6"/><path d="m174.069 189.213c0 19.023-11.751 32.31-28.575 32.31-17.815 0-32.31-14.494-32.31-32.31s14.494-32.31 32.31-32.31c6.474 0 12.722 1.909 18.068 5.521 2.288 1.546 2.891 4.654 1.345 6.942-1.548 2.288-4.654 2.888-6.942 1.345-3.688-2.491-7.999-3.808-12.471-3.808-12.302 0-22.31 10.008-22.31 22.31s10.008 22.31 22.31 22.31c11.523 0 16.799-8.49 18.188-17.31h-10.952c-2.762 0-5-2.238-5-5s2.238-5 5-5h16.339c2.762 0 5 2.238 5 5zm-86.882-10.371c-1.833 0-3.405.097-4.813.281l1.945-11.739h15.729c2.762 0 5-2.238 5-5s-2.238-5-5-5h-19.97c-2.446 0-4.533 1.77-4.933 4.183l-3.956 23.878c-.309 1.86.465 3.732 1.986 4.847 1.522 1.115 3.549 1.274 5.229.419.043-.021.203-.101.458-.216 2.219-.998 3.996-1.652 8.323-1.652 3.115 0 6.014 1.246 8.163 3.51 2.146 2.261 3.239 5.228 3.077 8.353-.304 5.852-5.138 10.529-11.005 10.647-.077.002-.153.002-.229.002-5.604 0-10.377-4.124-11.152-9.68-.072-.519-.109-1.049-.109-1.576 0-2.762-2.238-5-5-5s-5 2.238-5 5c0 .988.069 1.983.205 2.959 1.466 10.502 10.476 18.298 21.055 18.297.144 0 .288-.001.433-.004 11.084-.224 20.216-9.065 20.79-20.127.307-5.891-1.758-11.486-5.812-15.757-3.997-4.211-9.615-6.625-15.414-6.625zm110.377-115.467c-2.762 0-5 2.238-5 5s2.238 5 5 5c12.281 0 22.273 9.991 22.273 22.272 0 2.762 2.238 5 5 5s5-2.238 5-5c.001-17.794-14.477-32.272-32.273-32.272zm57.872 28.412c0-29.781-24.229-54.01-54.01-54.01-2.762 0-5 2.238-5 5s2.238 5 5 5c24.267 0 44.01 19.743 44.01 44.01 0 2.762 2.238 5 5 5s5-2.238 5-5zm.564 368.213c-2.761 0-5 2.239-5 5v10c0 2.761 2.239 5 5 5s5-2.239 5-5v-10c0-2.761-2.239-5-5-5zm-20 0c-2.761 0-5 2.239-5 5v10c0 2.761 2.239 5 5 5s5-2.239 5-5v-10c0-2.761-2.239-5-5-5zm40 0c-2.761 0-5 2.239-5 5v10c0 2.761 2.239 5 5 5s5-2.239 5-5v-10c0-2.761-2.239-5-5-5z" fill="#fff"/></g></svg>