<svg id="Capa_1" enable-background="new 0 0 512 512" height="512" viewBox="0 0 512 512" width="512" xmlns="http://www.w3.org/2000/svg"><g><path d="m512 256c0 141.385-114.615 256-256 256s-256-114.615-256-256 114.615-256 256-256 256 114.615 256 256z" fill="#ffb52d"/><path d="m483 244.681c0 109.352-88.648 198-198 198s-198-88.648-198-198 88.648-198 198-198 198 88.648 198 198z" fill="#ffc14f"/><path d="m429.128 170c0 38.66-31.34 70-70 70h-272c-38.66 0-70-31.34-70-70 0-38.66 31.34-70 70-70 11.046 0 20-8.954 20-20v-10c0-38.66 31.34-70 70-70h92c38.66 0 70 31.34 70 70v10c0 11.046 8.954 20 20 20 38.66 0 70 31.34 70 70z" fill="#5596fb"/><path d="m89.66 240h-2.532c-38.66 0-70-31.34-70-70s31.34-70 70-70c11.046 0 20-8.954 20-20v-10c0-38.66 31.34-70 70-70h48.448l-10.352 1.6c-40.546 6.265-68.337 44.213-62.072 84.759l1.621 10.488c1.79 11.584-6.15 22.427-17.735 24.217-40.546 6.265-68.337 44.212-62.072 84.759 1.996 12.916 7.208 24.538 14.694 34.177z" fill="#2476ed"/><path d="m102.268 174.352v13.519c0 3.733-3.026 6.759-6.759 6.759s-6.759-3.026-6.759-6.759v-13.519c0-3.733 3.026-6.759 6.759-6.759s6.759 3.026 6.759 6.759z" fill="#93dcfc"/><path d="m120.519 154.074c-3.733 0-6.759 3.026-6.759 6.759v27.037c0 3.733 3.026 6.759 6.759 6.759 3.733 0 6.759-3.026 6.759-6.759v-27.037c0-3.733-3.026-6.759-6.759-6.759zm25.685-27.037c-3.733 0-6.759 3.026-6.759 6.759v54.074c0 3.733 3.026 6.759 6.759 6.759 3.733 0 6.759-3.026 6.759-6.759v-54.074c0-3.733-3.026-6.759-6.759-6.759z" fill="#b4e7fd"/><path d="m173.241 100c-3.733 0-6.759 3.026-6.759 6.759v81.111c0 3.733 3.026 6.759 6.759 6.759s6.759-3.026 6.759-6.759v-81.111c0-3.733-3.026-6.759-6.759-6.759z" fill="#fff5f5"/><path d="m432.419 253.711c-14.733 27.247-44.29 45.301-77.861 43.352-41.618-2.417-75.336-36.135-77.753-77.753-1.95-33.571 16.105-63.128 43.351-77.861 4.156-2.247 8.969 1.411 7.994 6.033-1.487 7.049-2.078 14.429-1.647 22.015 2.37 41.685 36.182 75.497 77.867 77.867 7.586.431 14.966-.16 22.015-1.647 4.623-.975 8.281 3.839 6.034 7.994z" fill="#ea552d"/><path d="m442.342 214.366c0 14.355-3.652 27.857-10.076 39.628-11.771 6.424-25.273 10.077-39.628 10.077-45.751 0-82.84-37.089-82.84-82.841 0-14.354 3.652-27.856 10.076-39.628 11.771-6.424 25.273-10.076 39.628-10.076 45.751-.001 82.84 37.088 82.84 82.84z" fill="#f76937"/><path d="m362.349 214.366c0 15.104 12.289 27.394 27.395 27.394 14.746 0 21.215-11.168 22.648-22.394h-14.065c-2.762 0-5-2.238-5-5s2.238-5 5-5h19.381c2.762 0 5 2.238 5 5 0 22.017-13.556 37.394-32.964 37.394-20.619 0-37.395-16.774-37.395-37.394s16.775-37.395 37.395-37.395c7.493 0 14.725 2.209 20.91 6.39 2.288 1.546 2.89 4.653 1.344 6.941s-4.655 2.891-6.941 1.344c-4.527-3.059-9.822-4.675-15.313-4.675-15.106.001-27.395 12.29-27.395 27.395zm-41.473 27.191c-7.254.136-13.444-5.134-14.441-12.283-.092-.65-.138-1.322-.138-1.996 0-2.762-2.238-5-5-5s-5 2.238-5 5c0 1.137.079 2.274.233 3.381 1.674 11.997 11.967 20.901 24.05 20.901.165 0 .331-.002.497-.005 12.663-.255 23.096-10.354 23.751-22.993.35-6.729-2.009-13.121-6.64-17.999-4.566-4.81-10.984-7.567-17.609-7.567-2.689 0-4.893.18-6.839.518l2.646-15.971h19.448c2.762 0 5-2.238 5-5s-2.238-5-5-5h-23.688c-2.446 0-4.533 1.77-4.933 4.183l-4.693 28.323c-.309 1.861.464 3.733 1.985 4.848s3.548 1.275 5.229.419c.046-.023.252-.126.588-.277 2.741-1.233 4.936-2.042 10.255-2.042 3.953 0 7.631 1.581 10.357 4.453 2.724 2.869 4.111 6.632 3.905 10.596-.383 7.425-6.517 13.36-13.963 13.511zm150.954-5.006c-2.691-.65-5.388.998-6.038 3.682-11.921 49.163-55.629 83.499-106.29 83.499-57.718 0-105.136-44.941-109.098-101.669l10.06 8.51c2.109 1.785 5.263 1.52 7.047-.588 1.783-2.108 1.521-5.264-.588-7.047l-18.556-15.696c-1.012-.856-2.318-1.274-3.647-1.165l-.349.029c-1.321.11-2.543.741-3.399 1.753l-15.696 18.556c-1.783 2.108-1.52 5.264.588 7.047.939.795 2.085 1.183 3.227 1.183 1.42 0 2.831-.602 3.82-1.771l7.602-8.987c4.866 61.385 56.375 109.846 118.99 109.846 27.31 0 53.012-8.977 74.326-25.959 20.683-16.479 35.485-39.628 41.683-65.185.649-2.685-.998-5.387-3.682-6.038zm21.399-44.138c-2.11-1.786-5.265-1.52-7.047.588l-7.915 9.357c-6.04-60.201-56.999-107.358-118.765-107.358-26.398 0-51.416 8.443-72.349 24.416-20.259 15.46-35.294 37.385-42.334 61.736-.767 2.652.762 5.425 3.415 6.192 2.652.764 5.425-.762 6.192-3.415 13.436-46.472 56.645-78.929 105.076-78.929 56.641 0 103.363 43.283 108.83 98.51l-9.704-8.208c-2.11-1.785-5.264-1.521-7.047.588s-1.521 5.264.588 7.047l18.556 15.696c.906.767 2.052 1.183 3.229 1.183.139 0 .278-.006.418-.018l.35-.029c1.32-.11 2.543-.741 3.399-1.753l15.696-18.556c1.784-2.108 1.521-5.264-.588-7.047z" fill="#fff5f5"/><path d="m430 359v58c0 8.284-6.716 15-15 15h-382c-8.284 0-15-6.716-15-15v-58c0-8.284 6.716-15 15-15h382c8.284 0 15 6.716 15 15z" fill="#b9c3cd"/><path d="m420 347v82c0 8.284-6.716 15-15 15h-362c-8.284 0-15-6.716-15-15v-82c0-8.284 6.716-15 15-15h362c8.284 0 15 6.716 15 15z" fill="#dce6eb"/><path d="m390 325v130c0 8.284-6.716 15-15 15h-124c-6.075 0-11-4.925-11-11 0-8.284-6.716-15-15-15h-2c-8.284 0-15 6.716-15 15 0 6.075-4.925 11-11 11h-124c-8.284 0-15-6.716-15-15v-130c0-8.284 6.716-15 15-15h302c8.284 0 15 6.716 15 15z" fill="#0a4499"/><path d="m390 325v130c0 8.284-6.716 15-15 15h-124c-6.043 0-10.949-4.874-11-10.905-.07-8.27-6.404-15.095-14.673-15.095h-2.327c-8.229 0-14.91 6.626-14.999 14.834-.067 6.141-4.86 11.166-11.001 11.166h-9c-44.183 0-80-35.817-80-80 0-44.183 35.817-80 80-80h187c8.284 0 15 6.716 15 15z" fill="#0956c6"/><path d="m375 350v80c0 13.785-11.215 25-25 25h-78.281c-8.631 0-16.724-4.456-21.121-11.628-5.518-8.999-15.087-14.372-25.598-14.372h-2c-10.511 0-20.08 5.373-25.598 14.372-4.397 7.173-12.49 11.628-21.12 11.628h-78.282c-13.785 0-25-11.215-25-25v-80c0-13.785 11.215-25 25-25 2.761 0 5 2.238 5 5s-2.239 5-5 5c-8.271 0-15 6.729-15 15v80c0 8.271 6.729 15 15 15h78.282c5.177 0 10.003-2.627 12.595-6.854 7.351-11.989 20.107-19.146 34.123-19.146h2c14.016 0 26.772 7.157 34.123 19.146 2.592 4.229 7.418 6.854 12.596 6.854h78.281c8.271 0 15-6.729 15-15v-80c0-8.271-6.729-15-15-15h-152.234c-2.761 0-5-2.238-5-5s2.239-5 5-5h152.234c13.785 0 25 11.215 25 25z" fill="#0a3575"/><path d="m110.5 330.553c0-4.142 3.358-7.5 7.5-7.5s7.5 3.358 7.5 7.5-3.358 7.5-7.5 7.5-7.5-3.358-7.5-7.5zm37.5 7.5c4.142 0 7.5-3.358 7.5-7.5s-3.358-7.5-7.5-7.5-7.5 3.358-7.5 7.5 3.358 7.5 7.5 7.5zm30 0c4.142 0 7.5-3.358 7.5-7.5s-3.358-7.5-7.5-7.5-7.5 3.358-7.5 7.5 3.358 7.5 7.5 7.5zm25 45.947h-90c-2.761 0-5 2.239-5 5s2.239 5 5 5h90c2.761 0 5-2.239 5-5s-2.239-5-5-5zm-90-10h70c2.761 0 5-2.239 5-5s-2.239-5-5-5h-70c-2.761 0-5 2.239-5 5s2.239 5 5 5zm40 30h-40c-2.761 0-5 2.239-5 5s2.239 5 5 5h40c2.761 0 5-2.239 5-5s-2.239-5-5-5z" fill="#5596fb"/></g></svg>