<svg id="Capa_1" enable-background="new 0 0 512 512" height="512" viewBox="0 0 512 512" width="512" xmlns="http://www.w3.org/2000/svg"><g><path d="m512 256c0 87.348-43.747 164.479-110.526 210.678-1.777 1.229-6.494-2.14-8.304-.955-7.244 4.745-14.742 9.133-22.471 13.138-2.259 1.171-1.615 6.886-3.913 7.991-27.839 13.384-58.472 21.881-90.786 24.378-2.344.181-4.697-7.199-7.059-7.081-4.287.213-8.602.321-12.941.321-3.825 0-7.63-.084-11.415-.25-2.874-.126-5.736 7.23-8.585 7.01-32.315-2.497-62.947-10.994-90.786-24.378-3.054-1.468-2.154-9.375-5.139-10.959-5.963-3.165-11.786-6.559-17.457-10.169-2.76-1.757-9.404 2.813-12.091.955-66.78-46.2-110.527-123.331-110.527-210.679 0-141.385 114.615-256 256-256s256 114.615 256 256z" fill="#07a9f0"/><path d="m462.809 229.681c0 114.217-92.591 206.809-206.809 206.809s-206.809-92.592-206.809-206.809 92.592-206.809 206.809-206.809 206.809 92.592 206.809 206.809z" fill="#40c1fa"/><path d="m135.196 276.525h-100c-8.284 0-15-6.716-15-15s6.716-15 15-15h3.475c6.365 0 11.525-5.16 11.525-11.525 0-8.284 6.716-15 15-15h40c8.284 0 15 6.716 15 15 0 6.365 5.16 11.525 11.525 11.525h3.475c8.284 0 15 6.716 15 15s-6.715 15-15 15zm280 93.475h-100.196c-8.284 0-15 6.716-15 15s6.716 15 15 15h100.196c8.284 0 15-6.716 15-15s-6.715-15-15-15zm-240-40h-60.196c-8.284 0-15 6.716-15 15s6.716 15 15 15h60.196c8.284 0 15-6.716 15-15s-6.715-15-15-15zm179.608-110h60.196c8.284 0 15-6.716 15-15s-6.716-15-15-15h-60.196c-8.284 0-15 6.716-15 15s6.715 15 15 15z" fill="#93dcfc"/><path d="m300 300h-90v-10h90zm-100 30v10h110v-10z" fill="#203e76"/><path d="m340.755 409.41-74.755-155.954v176.544h-20v-176.544l-74.755 155.954-18.035-8.645 86.449-180.351h32.681l86.449 180.351z" fill="#0a4499"/><path d="m294.5 244.681h-77c-4.142 0-7.5-3.358-7.5-7.5 0-4.142 3.358-7.5 7.5-7.5h77c4.142 0 7.5 3.358 7.5 7.5 0 4.142-3.358 7.5-7.5 7.5z" fill="#203e76"/><path d="m352 162.5c0 4.142-3.358 7.5-7.5 7.5h-177c-4.142 0-7.5-3.358-7.5-7.5s3.358-7.5 7.5-7.5h177c4.142 0 7.5 3.358 7.5 7.5zm-7.5-52.5h-177c-4.142 0-7.5 3.358-7.5 7.5s3.358 7.5 7.5 7.5h177c4.142 0 7.5-3.358 7.5-7.5s-3.358-7.5-7.5-7.5zm0-45h-177c-4.142 0-7.5 3.358-7.5 7.5s3.358 7.5 7.5 7.5h177c4.142 0 7.5-3.358 7.5-7.5s-3.358-7.5-7.5-7.5zm166.036 182.99-22.468-22.469c-1.952-1.952-5.117-1.953-7.071 0-1.953 1.952-1.953 5.118 0 7.07l13.933 13.934h-96.314c-2.761 0-5 2.238-5 5s2.239 5 5 5h96.314l-13.933 13.933c-1.953 1.952-1.953 5.118 0 7.07.977.977 2.256 1.465 3.536 1.465 1.279 0 2.559-.488 3.536-1.465l22.468-22.468c.938-.938 1.464-2.209 1.464-3.535s-.528-2.597-1.465-3.535z" fill="#203e76"/><path d="m461.594 290.572c0 2.762-2.239 5-5 5h-96.314l13.933 13.933c1.953 1.952 1.953 5.118 0 7.07-.977.977-2.256 1.465-3.536 1.465s-2.559-.488-3.536-1.465l-22.468-22.468c-.938-.938-1.464-2.209-1.464-3.535s.527-2.598 1.464-3.535l22.468-22.469c1.953-1.953 5.118-1.953 7.071 0 1.953 1.952 1.953 5.118 0 7.07l-13.933 13.934h96.314c2.762 0 5.001 2.239 5.001 5zm-372.862-158.047c-1.953-1.953-5.118-1.953-7.071 0-12.583 12.583-12.583 33.057 0 45.64.977.977 2.256 1.465 3.536 1.465s2.559-.488 3.536-1.465c1.953-1.952 1.953-5.118 0-7.07-8.684-8.685-8.684-22.814 0-31.499 1.952-1.952 1.952-5.118-.001-7.071zm-20.83-15.371c-1.953-1.953-5.118-1.953-7.071 0-21.058 21.059-21.058 55.322 0 76.381.977.977 2.256 1.465 3.536 1.465 1.279 0 2.559-.488 3.536-1.465 1.953-1.952 1.953-5.118 0-7.07-17.159-17.16-17.159-45.08 0-62.24 1.951-1.953 1.951-5.119-.001-7.071zm352.362 61.011c.977.977 2.256 1.465 3.536 1.465s2.559-.488 3.536-1.465c12.583-12.583 12.583-33.057 0-45.64-1.953-1.953-5.118-1.953-7.071 0-1.953 1.952-1.953 5.118 0 7.07 8.684 8.685 8.684 22.814 0 31.499-1.954 1.953-1.954 5.119-.001 7.071zm20.83 15.37c.977.977 2.256 1.465 3.536 1.465s2.559-.488 3.536-1.465c10.208-10.208 15.831-23.771 15.831-38.19s-5.622-27.982-15.831-38.19c-1.953-1.953-5.118-1.953-7.071 0-1.953 1.952-1.953 5.118 0 7.07 8.32 8.32 12.902 19.372 12.902 31.12s-4.582 22.8-12.902 31.12c-1.954 1.952-1.954 5.118-.001 7.07z" fill="#fff"/><path d="m298.649 230h-85.298c-8.284 0-15-6.716-15-15v-200c0-8.284 6.716-15 15-15h85.298c8.284 0 15 6.716 15 15v200c0 8.284-6.716 15-15 15zm-124.856-45v-140c0-8.284-6.716-15-15-15h-35.585c-8.284 0-15 6.716-15 15v140c0 8.284 6.716 15 15 15h35.585c8.284 0 15-6.716 15-15zm230 0v-140c0-8.284-6.716-15-15-15h-35.585c-8.284 0-15 6.716-15 15v140c0 8.284 6.716 15 15 15h35.585c8.284 0 15-6.716 15-15zm-203.793 75c-22.091 0-40 17.909-40 40s17.909 40 40 40 40-17.909 40-40-17.909-40-40-40z" fill="#c8d2dc"/><path d="m240 300c0 7.194-1.9 13.943-5.224 19.776-5.832 3.325-12.582 5.224-19.776 5.224-22.091 0-40-17.909-40-40 0-7.194 1.9-13.944 5.224-19.776 5.832-3.325 12.582-5.224 19.776-5.224 22.091 0 40 17.909 40 40zm58.649-70h-63.649c-8.284 0-15-6.716-15-15v-200c0-8.284 6.716-15 15-15h63.649c8.284 0 15 6.716 15 15v200c0 8.284-6.716 15-15 15zm-124.856-45v-140c0-8.284-6.716-15-15-15h-13.793c-8.284 0-15 6.716-15 15v140c0 8.284 6.716 15 15 15h13.793c8.284 0 15-6.716 15-15zm230 0v-140c0-8.284-6.716-15-15-15h-13.793c-8.284 0-15 6.716-15 15v140c0 8.284 6.716 15 15 15h13.793c8.284 0 15-6.716 15-15z" fill="#dce6eb"/><path d="m196.979 304.324h-46.372c-2.761 0-5-2.239-5-5 0-2.761 2.239-5 5-5h46.372c2.761 0 5 2.239 5 5 0 2.762-2.239 5-5 5z" fill="#b9c3cd"/><path d="m276 390v121.23c-6.6.51-13.27.77-20 .77s-13.4-.26-20-.77v-121.23c0-5.523 4.477-10 10-10h20c5.523 0 10 4.477 10 10zm-83.143-25.678-18.035-8.645c-4.98-2.388-10.953-.285-13.34 4.695l-50.956 106.305c10.971 7.59 22.565 14.346 34.688 20.174l52.339-109.189c2.387-4.98.285-10.953-4.696-13.34zm157.661-3.949c-2.387-4.98-8.36-7.083-13.34-4.695l-18.035 8.645c-4.98 2.387-7.083 8.36-4.695 13.34l52.339 109.189c12.123-5.828 23.716-12.583 34.688-20.174z" fill="#ffb52d"/><path d="m276 390v40c0 11.046-8.954 20-20 20s-20-8.954-20-20v-40c0-5.523 4.477-10 10-10h20c5.523 0 10 4.477 10 10zm-83.143-25.678-18.035-8.645c-4.98-2.388-10.953-.285-13.34 4.695l-17.29 36.07c-4.774 9.96-.57 21.906 9.39 26.68 9.961 4.774 21.906.57 26.68-9.39l17.29-36.07c2.388-4.98.286-10.953-4.695-13.34zm174.95 32.121-17.29-36.07c-2.387-4.98-8.36-7.083-13.34-4.695l-18.035 8.645c-4.98 2.387-7.082 8.36-4.695 13.34l17.29 36.07c4.774 9.96 16.719 14.165 26.68 9.39 9.961-4.774 14.165-16.72 9.39-26.68z" fill="#ffc14f"/></g></svg>