<svg id="Capa_1" enable-background="new 0 0 512 512" height="512" viewBox="0 0 512 512" width="512" xmlns="http://www.w3.org/2000/svg"><g><path d="m512 256c0 141.385-114.615 256-256 256s-256-114.615-256-256 114.615-256 256-256 256 114.615 256 256z" fill="#203e76"/><path d="m452 216c0 108.248-87.752 196-196 196s-196-87.752-196-196 87.752-196 196-196 196 87.752 196 196z" fill="#274c91"/><path d="m388.511 294.659v175.341h-10v-172.219l-122.511-59.855-122.511 59.855v172.219h-10v-175.341c0-1.91 1.088-3.654 2.805-4.492l127.511-62.298c1.385-.678 3.005-.678 4.39 0l127.511 62.298c1.716.838 2.805 2.582 2.805 4.492z" fill="#0a66ea"/><path d="m512 172.489c0 5.523-4.477 10-10 10h-492c-5.523 0-10-4.477-10-10 0-5.523 4.477-10 10-10h52.5v-94.989c0-4.142 3.358-7.5 7.5-7.5s7.5 3.358 7.5 7.5v94.989h357v-94.989c0-4.142 3.358-7.5 7.5-7.5s7.5 3.358 7.5 7.5v94.989h52.5c5.523 0 10 4.477 10 10z" fill="#0a66ea"/><path d="m140 85.638c0 5.523-4.477 10-10 10h-120c-5.523 0-10-4.477-10-10s4.477-10 10-10h120c5.523 0 10 4.477 10 10zm-70 104.362c-21.78 0-39.5 17.72-39.5 39.5 0 4.143 3.358 7.5 7.5 7.5s7.5-3.357 7.5-7.5c0-13.51 10.991-24.5 24.5-24.5s24.5 10.99 24.5 24.5c0 4.143 3.358 7.5 7.5 7.5s7.5-3.357 7.5-7.5c0-21.78-17.72-39.5-39.5-39.5zm372 0c-21.78 0-39.5 17.72-39.5 39.5 0 4.143 3.358 7.5 7.5 7.5s7.5-3.357 7.5-7.5c0-13.51 10.991-24.5 24.5-24.5s24.5 10.99 24.5 24.5c0 4.143 3.358 7.5 7.5 7.5s7.5-3.357 7.5-7.5c0-21.78-17.72-39.5-39.5-39.5zm60-114.362h-120c-5.523 0-10 4.477-10 10s4.477 10 10 10h120c5.523 0 10-4.477 10-10s-4.477-10-10-10z" fill="#5596fb"/><path d="m100 169.106v6.766c0 8.285-6.716 15-15 15h-40c-8.284 0-15-6.715-15-15v-6.766c0-8.284 6.716-15 15-15h40c8.284 0 15 6.716 15 15zm182 72.894c0 5.523-4.477 10-10 10h-32c-5.523 0-10-4.477-10-10s4.477-10 10-10h32c5.523 0 10 4.477 10 10z" fill="#b9c3cd"/><path d="m190 331.106v123.894c0 8.284-6.716 15-15 15h-19c-8.284 0-15-6.716-15-15v-123.894c0-8.284 6.716-15 15-15h19c8.284 0 15 6.716 15 15z" fill="#ffb52d"/><path d="m371 331.106v123.894c0 8.284-6.716 15-15 15h-171c-8.284 0-15-6.716-15-15v-123.894c0-8.284 6.716-15 15-15h171c8.284 0 15 6.716 15 15z" fill="#ffc14f"/><path d="m180 297.106v32c0 2.761-2.239 5-5 5h-36.511c-2.761 0-5-2.239-5-5v-32c0-2.762 2.239-5 5-5h36.511c2.761 0 5 2.239 5 5z" fill="#ffcd71"/><path d="m378.511 297.106v32c0 2.761-2.239 5-5 5h-208.511c-2.761 0-5-2.239-5-5v-32c0-2.762 2.239-5 5-5h208.511c2.761 0 5 2.239 5 5z" fill="#ffd993"/><path d="m160 472.5c0 4.142-3.358 7.5-7.5 7.5h-35c-4.142 0-7.5-3.358-7.5-7.5s3.358-7.5 7.5-7.5h35c4.142 0 7.5 3.358 7.5 7.5z" fill="#40c1fa"/><path d="m402 472.5c0 4.142-3.358 7.5-7.5 7.5h-247c-4.142 0-7.5-3.358-7.5-7.5s3.358-7.5 7.5-7.5h247c4.142 0 7.5 3.358 7.5 7.5z" fill="#72d1fb"/><path d="m278.82 54.276c1.953 1.953 1.953 5.119 0 7.071-.976.976-2.256 1.464-3.535 1.464s-2.56-.488-3.535-1.464c-8.685-8.684-22.813-8.685-31.499 0-1.951 1.952-5.119 1.952-7.07 0-1.953-1.953-1.953-5.119 0-7.071 12.581-12.582 33.057-12.584 45.639 0zm15.37-20.83c-10.208-10.209-23.771-15.831-38.19-15.831s-27.981 5.622-38.189 15.831c-1.953 1.953-1.953 5.119 0 7.072 1.951 1.952 5.119 1.952 7.07 0 8.32-8.32 19.371-12.902 31.119-12.902s22.8 4.582 31.12 12.902c.976.976 2.256 1.464 3.535 1.464s2.56-.488 3.535-1.464c1.953-1.954 1.953-5.12 0-7.072zm-37.539 37.031c-5.391 0-9.762 4.37-9.762 9.762 0 5.391 4.371 9.762 9.762 9.762s9.762-4.371 9.762-9.762c0-5.392-4.371-9.762-9.762-9.762z" fill="#fff5f5"/><path d="m482 169.106v6.766c0 8.285-6.716 15-15 15h-77.636c-7.93 26.946-32.85 46.617-62.364 46.617h-142c-29.514 0-54.434-19.671-62.364-46.617h-47.636c-8.284 0-15-6.715-15-15v-6.766c0-8.284 6.716-15 15-15h47.636c7.93-26.946 32.85-46.617 62.364-46.617h142c29.514 0 54.433 19.671 62.364 46.617h77.636c8.284 0 15 6.716 15 15zm-209.999 210.894h-32c-2.761 0-5 2.239-5 5v23.894c0 2.762 2.239 5 5 5h32c2.761 0 5-2.238 5-5v-23.894c0-2.761-2.238-5-5-5z" fill="#dce6eb"/><path d="m277 292v96.053c0 2.762-2.239 5-5 5h-32c-2.761 0-5-2.238-5-5v-96.053c0-2.761 2.239-5 5-5h32c2.761 0 5 2.239 5 5zm115-119.511c0 35.898-29.101 65-65 65h-92c-35.898 0-65-29.102-65-65 0-35.898 29.101-65 65-65h92c35.899 0 65 29.102 65 65z" fill="#fff"/><path d="m350 192.489c0 2.762-2.239 5-5 5h-40c-2.761 0-5-2.238-5-5 0-2.761 2.239-5 5-5h40c2.761 0 5 2.239 5 5zm-5-25h-40c-2.761 0-5 2.239-5 5 0 2.762 2.239 5 5 5h40c2.761 0 5-2.238 5-5 0-2.761-2.239-5-5-5zm0-20h-40c-2.761 0-5 2.239-5 5 0 2.762 2.239 5 5 5h40c2.761 0 5-2.238 5-5 0-2.761-2.239-5-5-5z" fill="#b9c3cd"/><path d="m275 172.295c0 19.95-12.309 33.884-29.933 33.884-18.683 0-33.883-15.2-33.883-33.884 0-18.683 15.2-33.883 33.883-33.883 6.79 0 13.342 2.002 18.948 5.79 2.288 1.546 2.89 4.653 1.344 6.941-1.546 2.289-4.654 2.891-6.942 1.344-3.946-2.666-8.563-4.075-13.349-4.075-13.169 0-23.883 10.714-23.883 23.883 0 13.17 10.714 23.884 23.883 23.884 12.52 0 18.166-9.317 19.571-18.884h-11.919c-2.761 0-5-2.238-5-5s2.239-5 5-5h17.28c2.761 0 5 2.238 5 5zm-91.601-10.68c-2.094 0-3.863.12-5.439.349l2.161-13.043h16.88c2.761 0 5-2.238 5-5s-2.239-5-5-5h-21.12c-2.446 0-4.533 1.77-4.933 4.183l-4.184 25.253c-.308 1.86.463 3.731 1.984 4.846s3.546 1.274 5.227.423c.043-.022.22-.109.502-.237 2.38-1.07 4.288-1.772 8.921-1.772 3.375 0 6.515 1.35 8.842 3.802 2.326 2.449 3.509 5.661 3.334 9.045-.33 6.341-5.566 11.407-11.922 11.535-.083.002-.167.003-.25.003-6.069 0-11.238-4.468-12.078-10.486-.078-.559-.118-1.132-.118-1.706 0-2.762-2.239-5-5-5s-5 2.238-5 5c0 1.035.072 2.074.213 3.089 1.532 10.962 10.938 19.101 21.981 19.101.151 0 .303-.002.455-.005 11.572-.232 21.107-9.463 21.707-21.015.319-6.149-1.836-11.991-6.068-16.449-4.174-4.395-10.04-6.916-16.095-6.916z" fill="#6990d7"/></g></svg>