<svg id="Capa_1" enable-background="new 0 0 512 512" height="512" viewBox="0 0 512 512" width="512" xmlns="http://www.w3.org/2000/svg"><g><path d="m512 256c0 9.857-.557 19.584-1.642 29.151-.368 3.242-1.968 6.222-4.501 8.277-48.178 39.073-81.883 95.295-91.823 159.374-.533 3.438-2.42 6.517-5.209 8.596-16.108 12.005-33.676 22.159-52.389 30.148-2.219.947-4.722.933-6.968.052-28.957-11.36-60.484-17.598-93.468-17.598-32.8 0-64.158 6.169-92.98 17.409-2.651 1.034-5.605.937-8.218-.189-18.401-7.928-35.687-17.952-51.557-29.77-3.371-2.511-5.624-6.239-6.349-10.38-10.602-60.541-42.598-113.878-87.86-151.888-4.183-3.513-6.77-8.548-7.386-13.976-1.09-9.585-1.65-19.33-1.65-29.206 0-9.866.558-19.601 1.645-29.176.438-3.86 2.384-7.389 5.393-9.847 47.544-38.84 80.865-94.434 90.954-157.774.551-3.462 2.451-6.565 5.262-8.659 15.851-11.803 33.114-21.816 51.49-29.738 5.046-2.175 10.731-2.435 15.899-.567 55.945 20.215 117.525 20.315 173.525.299 4.241-1.516 8.902-1.418 13.035.371 90.913 39.352 154.797 129.993 154.797 235.091z" fill="#0956c6"/><path d="m364.572 263.5-47.791 82.776c-2.68 4.641-7.631 7.5-12.99 7.5h-95.582c-5.359 0-10.311-2.859-12.99-7.5l-47.791-82.776c-2.679-4.641-2.679-10.359 0-15l47.791-82.776c2.68-4.641 7.631-7.5 12.99-7.5h95.582c5.359 0 10.311 2.859 12.99 7.5l47.791 82.776c2.679 4.641 2.679 10.359 0 15z" fill="#ffb52d"/><path d="m364.572 248.5c2.679 4.641 2.679 10.359 0 15l-40.682 70.464c-62.107-15.541-108.108-71.72-108.108-138.644 0-12.83 1.691-25.266 4.862-37.096h83.146c5.359 0 10.311 2.859 12.99 7.5z" fill="#ffc14f"/><path d="m177.431 371.314-47.791 82.776c-2.679 4.641-7.632 7.5-12.99 7.5h-13.216c-15.64-11.626-29.908-24.994-42.517-39.817-.603-.708 1.871-.909 1.275-1.625-1.703-2.047-3.375-4.121-5.014-6.221-.427-.546-3.923-1.605-4.345-2.155-.598-.779-1.192-1.561-1.781-2.347-.427-.569.2-2.492-.222-3.065-1.599-2.169-3.164-4.365-4.695-6.586-.249-.361-1.549.629-1.796.267-22.887-33.564-37.998-72.855-42.741-115.28l6.479-11.223c2.679-4.641 7.632-7.5 12.99-7.5h95.582c5.359 0 10.311 2.859 12.99 7.5l47.791 82.776c2.68 4.642 2.68 10.36.001 15zm326.492-97.775c-2.679-4.641-7.632-7.5-12.99-7.5h-95.582c-5.359 0-10.311 2.859-12.99 7.5l-47.791 82.776c-2.679 4.641-2.679 10.359 0 15l47.791 82.776c2.679 4.641 7.632 7.5 12.99 7.5h13.216c21.997-16.35 41.279-36.147 57.048-58.592.447-.636-.926-2.266-.484-2.906 5.197-7.542 10-15.377 14.38-23.475.401-.742 2.616-.495 3.01-1.241 14.577-27.604 24.256-58.194 27.881-90.614zm-308.704-142.954c2.68 4.641 7.631 7.5 12.99 7.5h95.582c5.359 0 10.311-2.859 12.99-7.5l47.791-82.776c2.679-4.641 2.679-10.359 0-15l-6.802-11.782c-31.192-13.528-65.605-21.027-101.77-21.027s-70.578 7.499-101.77 21.027l-6.802 11.782c-2.679 4.641-2.679 10.359 0 15zm-174.151 115.315h95.582c5.359 0 10.311-2.859 12.99-7.5l47.791-82.776c2.679-4.641 2.679-10.359 0-15l-47.791-82.776c-2.679-4.641-7.632-7.5-12.99-7.5h-13.133c-55.553 41.257-93.81 104.49-101.913 176.839l6.473 11.213c2.68 4.641 7.632 7.5 12.991 7.5zm295.713 135.515c-2.68-4.641-7.631-7.5-12.99-7.5h-95.582c-5.359 0-10.311 2.859-12.99 7.5l-47.791 82.776c-2.679 4.641-2.679 10.359 0 15l6.802 11.782c31.192 13.528 65.605 21.027 101.77 21.027s70.578-7.499 101.77-21.027l6.802-11.782c2.679-4.641 2.679-10.359 0-15z" fill="#2476ed"/><path d="m509.99 155.624-47.79 82.776c-2.68 4.641-7.632 7.5-12.99 7.5h-95.582c-5.359 0-10.311-2.859-12.99-7.5l-47.791-82.776c-2.679-4.641-2.679-10.359 0-15l47.791-82.776c2.679-4.641 7.631-7.5 12.99-7.5h95.582c5.359 0 10.311 2.859 12.99 7.5l47.791 82.776c2.679 4.641 2.679 10.359-.001 15z" fill="#40c1fa"/><path d="m509.99 140.624c2.68 4.641 2.68 10.359 0 15l-38.436 66.573c-62.854-3.108-112.86-55.054-112.86-118.679 0-19.114 4.513-37.173 12.531-53.171h77.984c5.359 0 10.311 2.859 12.99 7.5z" fill="#72d1fb"/><path d="m477.521 297.757v85.618c0 .367-.013.73-.039 1.09-2.329 4.006-4.763 7.944-7.299 11.808-2.242 1.335-4.863 2.102-7.662 2.102h-48.261c-8.284 0-15-6.716-15-15v-85.618c0-8.284 6.716-15 15-15h48.261c8.284 0 15 6.716 15 15zm-378.362-205.09h-48.261c-8.284 0-15 6.716-15 15v85.618c0 8.284 6.716 15 15 15h48.261c8.284 0 15-6.716 15-15v-85.618c0-8.285-6.715-15-15-15z" fill="#40c1fa"/><path d="m64.908 107.667v85.618c0 8.284 6.716 15 15 15h-29.01c-8.284 0-15-6.716-15-15v-85.618c0-8.284 6.716-15 15-15h29.01c-8.284 0-15 6.715-15 15zm363.362 275.708v-85.618c0-8.284 6.716-15 15-15h-29.01c-8.284 0-15 6.716-15 15v85.618c0 8.284 6.716 15 15 15h29.01c-8.285 0-15-6.715-15-15z" fill="#07a9f0"/><path d="m462.521 277.62h-48.262c-11.028 0-20 8.972-20 20v85.618c0 11.028 8.972 20 20 20h48.262c1.052 0 2.085-.082 3.094-.239 6.194-8.815 11.845-18.039 16.906-27.623v-77.756c0-11.029-8.972-20-20-20zm10 105.618c0 5.514-4.486 10-10 10h-48.262c-5.514 0-10-4.486-10-10v-85.618c0-5.514 4.486-10 10-10h9.295c-.224.711-.345 1.468-.345 2.253 0 4.142 3.358 7.5 7.5 7.5h15.361c4.142 0 7.5-3.358 7.5-7.5 0-.785-.121-1.542-.344-2.253h9.294c5.514 0 10 4.486 10 10v85.618zm-24.01-5.196c0 2.761-2.239 5-5 5h-10.241c-2.761 0-5-2.239-5-5s2.239-5 5-5h10.241c2.761 0 5 2.239 5 5zm-349.351-290.513h-48.262c-11.028 0-20 8.972-20 20v85.618c0 11.028 8.972 20 20 20h48.262c11.028 0 20-8.972 20-20v-85.618c0-11.028-8.972-20-20-20zm10 105.618c0 5.514-4.486 10-10 10h-48.262c-5.514 0-10-4.486-10-10v-85.618c0-5.514 4.486-10 10-10h9.295c-.224.711-.344 1.468-.344 2.253 0 4.142 3.358 7.5 7.5 7.5h15.361c4.142 0 7.5-3.358 7.5-7.5 0-.785-.121-1.542-.344-2.253h9.295c5.514 0 10 4.486 10 10v85.618zm-24.011-5.195c0 2.761-2.239 5-5 5h-10.241c-2.761 0-5-2.239-5-5s2.239-5 5-5h10.241c2.762 0 5 2.239 5 5z" fill="#dce6eb"/><path d="m300.075 489.599h-11.12c-.043-.117-.091-.233-.143-.348l-28.241-61.933v-46.965c0-2.525-2.047-4.572-4.571-4.572s-4.571 2.047-4.571 4.572v46.966l-28.241 61.933c-.052.115-.1.231-.143.348h-11.12c-2.762 0-5 2.238-5 5s2.238 5 5 5h88.15c2.762 0 5-2.238 5-5s-2.238-5.001-5-5.001zm-44.075-48.203 9.526 20.892h-19.052zm-14.086 30.891h28.172l7.894 17.312h-43.96zm-125.876-60.514h-11.12c-.043-.117-.091-.233-.144-.349l-28.241-61.931v-46.967c0-2.525-2.047-4.571-4.571-4.571-2.525 0-4.572 2.047-4.572 4.571v46.965l-23.052 50.551c2.168 3.18 4.407 6.309 6.712 9.384l6.824-14.965h28.174l7.895 17.312h-41.111c2.612 3.402 5.308 6.736 8.084 10h55.122c2.762 0 5-2.238 5-5s-2.238-5-5-5zm-53.602-27.311 9.526-20.892 9.527 20.892z" fill="#bacbec"/><path d="m270.948 397.423c1.033-.218 1.851.858 1.348 1.786-3.293 6.089-9.898 10.124-17.401 9.689-9.301-.54-16.837-8.076-17.377-17.377-.436-7.503 3.599-14.109 9.689-17.401.929-.502 2.004.315 1.786 1.348-.332 1.576-.464 3.225-.368 4.92.53 9.316 8.086 16.873 17.402 17.402 1.696.098 3.345-.034 4.921-.367zm-184.038-77.825c1.033-.218 1.851.858 1.348 1.786-3.293 6.089-9.898 10.124-17.401 9.689-9.301-.54-16.837-8.076-17.377-17.377-.436-7.503 3.599-14.109 9.689-17.401.929-.502 2.004.315 1.786 1.348-.332 1.576-.464 3.225-.368 4.92.53 9.316 8.086 16.873 17.402 17.402 1.696.098 3.346-.034 4.921-.367z" fill="#dce6eb"/><path d="m285.204 292.283c-20.007 0-36.283-16.276-36.283-36.283s16.276-36.283 36.283-36.283c7.271 0 14.286 2.144 20.29 6.199 2.288 1.546 2.891 4.654 1.345 6.942-1.547 2.288-4.654 2.889-6.942 1.345-4.345-2.936-9.425-4.486-14.692-4.486-14.492 0-26.283 11.791-26.283 26.283s11.791 26.283 26.283 26.283c14.042 0 20.252-10.582 21.677-21.283h-13.388c-2.762 0-5-2.238-5-5s2.238-5 5-5h18.717c2.762 0 5 2.238 5 5-.001 21.363-13.162 36.283-32.007 36.283zm-66.308-.198c12.317-.247 22.467-10.072 23.104-22.367.34-6.546-1.954-12.764-6.459-17.509-4.441-4.678-10.686-7.361-17.13-7.361-2.5 0-4.566.159-6.396.462l2.492-15.042h18.636c2.762 0 5-2.238 5-5s-2.238-5-5-5h-22.876c-2.446 0-4.533 1.77-4.933 4.183l-4.531 27.352c-.309 1.86.463 3.732 1.983 4.847s3.545 1.274 5.228.422c.045-.023.242-.121.564-.266 2.626-1.183 4.729-1.957 9.832-1.957 3.77 0 7.278 1.508 9.878 4.247 2.598 2.736 3.921 6.325 3.725 10.105-.367 7.084-6.218 12.744-13.319 12.887-6.875.154-12.822-4.896-13.773-11.71-.088-.629-.132-1.271-.132-1.908 0-2.762-2.238-5-5-5s-5 2.238-5 5c0 1.098.076 2.203.228 3.289 1.63 11.67 11.642 20.332 23.395 20.332.161-.001.322-.003.484-.006zm59.923-211.215c1.953-1.952 1.953-5.118 0-7.07-12.582-12.584-33.057-12.584-45.639 0-1.953 1.952-1.953 5.118 0 7.07 1.951 1.953 5.119 1.953 7.07 0 4.211-4.211 9.805-6.529 15.749-6.529s11.538 2.318 15.749 6.529c.976.977 2.256 1.465 3.535 1.465s2.561-.488 3.536-1.465zm15.371-20.83c1.953-1.952 1.953-5.118 0-7.07-10.208-10.209-23.771-15.831-38.19-15.831s-27.982 5.622-38.19 15.831c-1.953 1.952-1.953 5.118 0 7.07 1.951 1.953 5.119 1.953 7.07 0 8.32-8.319 19.372-12.901 31.12-12.901s22.8 4.582 31.12 12.901c.976.977 2.256 1.465 3.535 1.465s2.56-.488 3.535-1.465zm-37.539 29.96c-5.391 0-9.762 4.37-9.762 9.762s4.37 9.762 9.762 9.762 9.762-4.371 9.762-9.762-4.371-9.762-9.762-9.762zm138.599 106.179c2.074-.069 4.027-.995 5.395-2.558l70-80c2.728-3.117 2.411-7.855-.706-10.583s-7.855-2.411-10.583.706l-64.721 73.967-34.331-34.332c-2.93-2.928-7.678-2.928-10.607 0-2.929 2.93-2.929 7.678 0 10.607l40 40c1.409 1.408 3.317 2.196 5.304 2.196.082.001.165 0 .249-.003zm-120.736 194.238c0 3.208-.816 6.226-2.252 8.856-2.631 1.436-5.648 2.252-8.856 2.252-10.225 0-18.514-8.289-18.514-18.514 0-3.208.816-6.226 2.252-8.856 2.631-1.436 5.648-2.252 8.856-2.252 10.225 0 18.514 8.289 18.514 18.514zm-184.038-77.826c0 3.208-.816 6.226-2.252 8.856-2.631 1.436-5.648 2.252-8.856 2.252-10.225 0-18.514-8.289-18.514-18.514 0-3.208.816-6.226 2.252-8.856 2.631-1.436 5.648-2.252 8.856-2.252 10.225 0 18.514 8.289 18.514 18.514z" fill="#fff"/></g></svg>