<svg id="Capa_1" enable-background="new 0 0 512 512" height="512" viewBox="0 0 512 512" width="512" xmlns="http://www.w3.org/2000/svg"><g><path d="m512 256c0 141.385-114.615 256-256 256s-256-114.615-256-256 114.615-256 256-256 256 114.615 256 256z" fill="#07a9f0"/><path d="m475.766 290c0 109.564-88.819 198.383-198.383 198.383s-198.383-88.819-198.383-198.383 88.819-198.383 198.383-198.383 198.383 88.819 198.383 198.383z" fill="#40c1fa"/><path d="m512 170c0 38.66-31.34 70-70 70h-272c-38.66 0-70-31.34-70-70 0-38.66 31.34-70 70-70 11.046 0 20-8.954 20-20v-10c0-38.66 31.34-70 70-70h92c38.66 0 70 31.34 70 70v10c0 11.046 8.954 20 20 20 38.66 0 70 31.34 70 70z" fill="#0956c6"/><path d="m172.532 240h-2.532c-38.66 0-70-31.34-70-70s31.34-70 70-70c11.046 0 20-8.954 20-20v-10c0-38.66 31.34-70 70-70h48.448l-10.352 1.6c-40.546 6.265-76.098 44.213-69.833 84.759l1.621 10.488c1.79 11.584-6.15 22.427-17.735 24.217-40.546 6.265-60.575 44.212-54.31 84.759 1.996 12.916 7.207 24.538 14.693 34.177z" fill="#0a4499"/><path d="m373.448 88.72c0 33.689-27.311 61-61 61s-61-27.311-61-61 27.311-61 61-61c33.69 0 61 27.311 61 61z" fill="#2476ed"/><path d="m118.749 30.401v96.096c0 2.97-2.408 5.378-5.378 5.378s-5.379-2.408-5.379-5.378v-96.096c0-2.97 2.408-5.378 5.379-5.378s5.378 2.407 5.378 5.378z" fill="#19305c"/><path d="m118.749 23.229v10.757c0 2.97-2.408 5.378-5.378 5.378s-5.379-2.408-5.379-5.378v-10.757c0-2.97 2.408-5.378 5.379-5.378s5.378 2.408 5.378 5.378z" fill="#0956c6"/><path d="m392.064 249c0 36.145-29.301 65.447-65.447 65.447-36.145 0-65.447-29.301-65.447-65.447s29.302-65.447 65.447-65.447 65.447 29.302 65.447 65.447z" fill="#0a3575"/><path d="m385.652 277.285c-10.552 21.984-33.021 37.162-59.036 37.162-36.145 0-65.447-29.301-65.447-65.447 0-26.015 15.178-48.484 37.162-59.036-4.109 8.561-6.411 18.154-6.411 28.285 0 36.145 29.301 65.447 65.447 65.447 10.131 0 19.725-2.302 28.285-6.411z" fill="#19305c"/><path d="m107.617 211.979v76.042c0 5.523-4.477 10-10 10h-60c-5.523 0-10-4.477-10-10v-76.042c0-5.523 4.477-10 10-10h60c5.523 0 10 4.477 10 10z" fill="#ffb52d"/><path d="m107.617 200v100c0 5.523-4.477 10-10 10h-45c-5.523 0-10-4.477-10-10v-100c0-5.523 4.477-10 10-10h45c5.523 0 10 4.477 10 10z" fill="#ffc14f"/><path d="m166.719 359.123-70.425 70.425c-4.375 4.375-11.468 4.375-15.842 0-4.375-4.375-4.375-11.468 0-15.842l70.425-70.425c4.375-4.375 11.468-4.375 15.842 0 4.375 4.375 4.375 11.468 0 15.842z" fill="#f29500"/><path d="m374.553 177.004-63.004 144.008c-2.389 5.46-7.783 8.988-13.742 8.988h-225.19c-8.284 0-15-6.716-15-15v-130c0-8.284 6.716-15 15-15h26.411v-59.639c0-3.961 3.211-7.171 7.171-7.171h14.343c3.961 0 7.171 3.211 7.171 7.171v59.639h242.259c3.606 0 6.026 3.701 4.581 7.004z" fill="#c8d2dc"/><path d="m113.371 153.389c-7.921 0-14.343-6.421-14.343-14.343v-28.685c0-3.961 3.211-7.171 7.171-7.171h14.343c3.961 0 7.171 3.211 7.171 7.171v28.685c0 7.921-6.421 14.343-14.342 14.343zm256.601 16.611h-209.738c-29.782 0-53.925 24.143-53.925 53.925 0 29.782 24.143 53.925 53.925 53.925h170.198l44.121-100.847c1.445-3.302-.975-7.003-4.581-7.003z" fill="#dce6eb"/><path d="m228.83 321.213-64.246 64.246c-11.716 11.716-30.711 11.716-42.426 0-11.716-11.716-11.716-30.711 0-42.427l64.249-64.249c11.716-11.713 30.709-11.712 42.424.002 11.715 11.717 11.715 30.713-.001 42.428z" fill="#ffb52d"/><path d="m228.83 321.213-64.246 64.246c-11.141 11.141-28.866 11.687-40.653 1.638 1.046-7.544 4.469-14.823 10.27-20.624l77.623-77.623c4.968-4.966 11.018-8.189 17.391-9.67 11.329 11.744 11.201 30.448-.385 42.033z" fill="#ffc14f"/><path d="m214.688 307.071c-3.905 3.905-10.237 3.905-14.142 0s-3.905-10.237 0-14.142 10.237-3.905 14.142 0 3.905 10.237 0 14.142z" fill="#f29500"/><path d="m108 433c0 16.016-12.984 29-29 29s-29-12.984-29-29 12.984-29 29-29 29 12.984 29 29z" fill="#ffc14f"/><path d="m91.567 433c0 6.94-5.626 12.567-12.567 12.567s-12.567-5.627-12.567-12.567 5.627-12.567 12.567-12.567 12.567 5.627 12.567 12.567z" fill="#ffa90b"/><path d="m386.872 401.652-25.683 25.684c-.976.976-2.256 1.464-3.535 1.464s-2.56-.488-3.535-1.464c-1.953-1.953-1.953-5.119 0-7.071l17.147-17.148h-111.823c-2.762 0-5-2.239-5-5s2.238-5 5-5h111.823l-17.147-17.147c-1.953-1.953-1.953-5.119 0-7.071 1.951-1.952 5.119-1.952 7.07 0l25.683 25.683c1.953 1.951 1.953 5.117 0 7.07z" fill="#203e76"/><path d="m299.473 119.259 38.569-27.273c2.254-1.594 2.254-4.938 0-6.532l-38.569-27.272c-2.649-1.874-6.309.021-6.309 3.266v54.545c0 3.245 3.66 5.139 6.309 3.266zm79.008 197.346c-.086.004-.172.006-.257.006-2.646 0-4.854-2.075-4.989-4.747-.141-2.758 1.981-5.107 4.74-5.247 12.136-.616 21.509-10.991 20.894-23.127-.141-2.758 1.982-5.107 4.74-5.247 2.751-.136 5.107 1.983 5.246 4.74.896 17.644-12.73 32.726-30.374 33.622zm-52.762 121.145h-111.823l17.147-17.147c1.953-1.953 1.953-5.119 0-7.071-1.951-1.952-5.119-1.952-7.07 0l-25.684 25.683c-.938.938-1.465 2.209-1.465 3.536s.526 2.598 1.465 3.536l25.684 25.684c.976.976 2.256 1.464 3.535 1.464s2.56-.488 3.535-1.464c1.953-1.953 1.953-5.119 0-7.071l-17.148-17.148h111.822c2.762 0 5-2.239 5-5s-2.237-5.002-4.998-5.002zm108.676-152.23c-.139-2.758-2.456-4.878-5.247-4.74-2.758.14-4.88 2.489-4.739 5.247 1.218 24.004-17.32 44.524-41.325 45.742-2.758.14-4.88 2.489-4.739 5.247.135 2.672 2.344 4.747 4.989 4.747.085 0 .171-.002.258-.006 29.51-1.499 52.301-26.726 50.803-56.237z" fill="#fff"/></g></svg>