<svg id="Capa_1" enable-background="new 0 0 512 512" height="512" viewBox="0 0 512 512" width="512" xmlns="http://www.w3.org/2000/svg"><g><path d="m512 256c0 141.385-114.615 256-256 256s-256-114.615-256-256 114.615-256 256-256 256 114.615 256 256z" fill="#07a9f0"/><path d="m451.49 259.735c0 110.029-89.196 199.225-199.225 199.225s-199.225-89.196-199.225-199.225 89.196-199.225 199.225-199.225 199.225 89.196 199.225 199.225z" fill="#40c1fa"/><path d="m387.961 380.779-127.445-127.445c-.315-.315-.652-.597-1.006-.844-.248-.353-.529-.69-.844-1.006l-127.445-127.444c-2.929-2.929-7.678-2.929-10.607 0-2.929 2.929-2.929 7.677 0 10.607l90.606 90.606-41.438 41.438-90.606-90.606c-2.929-2.929-7.678-2.929-10.607 0-2.929 2.929-2.929 7.678 0 10.607l90.606 90.606-74.122 74.122c-2.929 2.929-2.929 7.678 0 10.607s7.678 2.929 10.606 0l74.122-74.122 21.854 21.854-115.912 115.912c-2.929 2.929-2.929 7.677 0 10.607 2.929 2.929 7.678 2.929 10.607 0l115.914-115.914 21.854 21.854-74.122 74.122c-2.929 2.929-2.929 7.678 0 10.607s7.678 2.929 10.607 0l74.122-74.122 90.606 90.606c2.929 2.929 7.678 2.929 10.607 0s2.929-7.678 0-10.607l-90.606-90.606 41.438-41.438 90.606 90.606c2.929 2.929 7.678 2.929 10.607 0 2.927-2.929 2.927-7.678-.002-10.607zm-153.258-49.168-21.854-21.854.924-.925c2.929-2.929 2.929-7.678 0-10.607-2.929-2.929-7.678-2.929-10.607 0l-.924.925-21.854-21.854 41.438-41.438 26.232 26.232c.315.315.652.597 1.005.844.248.353.529.69.845 1.006l26.232 26.232z" fill="#2476ed"/><path d="m470.653 58.497-20.716 20.716c1.028 1.689 1.39 3.779.838 5.84l-28.258 105.459c-1.072 4.001-5.185 6.375-9.186 5.303-4.001-1.072-6.375-5.185-5.303-9.186l23.977-89.485-88.797 88.797c-2.929 2.929-7.677 2.929-10.606 0s-2.929-7.677 0-10.607l88.797-88.797-89.485 23.977c-4.001 1.072-8.114-1.302-9.186-5.303s1.302-8.114 5.303-9.186l105.459-28.257c2.061-.552 4.151-.19 5.84.838l20.716-20.716c2.929-2.929 7.678-2.929 10.607 0s2.929 7.678 0 10.607z" fill="#2476ed"/><path d="m450.185 100.586c-9.53 3.593-20.814 1.161-27.969-7.297-7.789-9.207-7.789-22.983 0-32.19 7.024-8.304 18.028-10.8 27.445-7.488 1.501.528 1.725 2.527.447 3.474-1.631 1.208-3.149 2.64-4.51 4.297-7.488 9.11-7.488 22.516 0 31.625 1.487 1.809 3.16 3.35 4.963 4.624 1.106.781.891 2.477-.376 2.955z" fill="#b9c3cd"/><path d="m459.027 94.871c-2.737 2.737-5.95 4.706-9.373 5.908-3.423-1.202-6.636-3.172-9.373-5.908-9.763-9.763-9.763-25.592 0-35.355 2.737-2.737 5.95-4.706 9.373-5.908 3.423 1.202 6.636 3.172 9.373 5.908 9.763 9.763 9.763 25.592 0 35.355z" fill="#c8d2dc"/><path d="m93.073 418.927c5.858 5.858 5.858 15.355 0 21.213s-15.355 5.858-21.213 0-5.858-15.355 0-21.213 15.356-5.858 21.213 0zm-11.882-74.252c-5.858 5.858-5.858 15.355 0 21.213s15.355 5.858 21.213 0 5.858-15.355 0-21.213c-5.857-5.858-15.355-5.858-21.213 0zm86.134 64.921c-5.858-5.858-15.355-5.858-21.213 0s-5.858 15.355 0 21.213 15.355 5.858 21.213 0 5.858-15.355 0-21.213z" fill="#b9c3cd"/><path d="m93.073 418.927c5.858 5.858 5.858 15.355 0 21.213-1.642 1.642-3.57 2.824-5.624 3.545-2.054-.721-3.982-1.903-5.624-3.545-5.858-5.858-5.858-15.355 0-21.213 1.642-1.642 3.57-2.823 5.624-3.545 2.054.721 3.982 1.903 5.624 3.545zm3.708-77.797c-2.054.721-3.982 1.903-5.624 3.545-5.858 5.858-5.858 15.355 0 21.213 1.642 1.642 3.57 2.824 5.624 3.545 2.054-.721 3.982-1.903 5.624-3.545 5.858-5.858 5.858-15.355 0-21.213-1.643-1.642-3.571-2.824-5.624-3.545zm70.544 68.466c-1.642-1.642-3.57-2.824-5.624-3.545-2.054.721-3.982 1.903-5.624 3.545-5.858 5.858-5.858 15.355 0 21.213 1.642 1.642 3.57 2.824 5.624 3.545 2.054-.721 3.982-1.903 5.624-3.545 5.858-5.858 5.858-15.355 0-21.213z" fill="#dce6eb"/><path d="m461.494 238.274c-50.354 45.758-128.3 44.324-176.925-4.301s-50.058-126.57-4.301-176.924z" fill="#c8d2dc"/><path d="m293.531 242.137c-3.083-2.555-6.074-5.276-8.962-8.164-48.625-48.625-50.058-126.57-4.301-176.924l47.28 47.28c-33.988 42.502-45.96 94.65-34.017 137.808z" fill="#b9c3cd"/><path d="m472.619 244.176c-2.929 2.929-7.678 2.929-10.607 0l-194.187-194.188c-2.929-2.929-2.929-7.678 0-10.607s7.678-2.929 10.607 0l194.188 194.188c2.928 2.929 2.928 7.678-.001 10.607z" fill="#dce6eb"/><path d="m254.056 369.977c-32.249 9.614-68.825.777-93.118-26.511-30.115-33.829-30.115-85.634 0-119.462 24.292-27.288 60.869-36.124 93.118-26.511 4.918 1.466 5.806 7.974 1.506 10.776-6.558 4.273-12.681 9.489-18.178 15.647-30.202 33.844-30.202 85.794 0 119.638 5.496 6.159 11.62 11.374 18.178 15.647 4.3 2.802 3.412 9.31-1.506 10.776z" fill="#0a4499"/><path d="m291.905 347.375c-11.028 11.028-24.205 18.594-38.184 22.702-13.978-4.108-27.156-11.675-38.184-22.702-35.147-35.147-35.147-92.132 0-127.279 11.028-11.028 24.205-18.595 38.184-22.702 13.978 4.107 27.156 11.674 38.184 22.702 35.147 35.147 35.147 92.132 0 127.279z" fill="#0956c6"/><path d="m29.568 191.104-21.935-21.935c-5.858-5.858-5.858-15.355 0-21.213l84.853-84.853c5.858-5.858 15.355-5.858 21.213 0l21.935 21.935c5.858 5.858 5.858 15.355 0 21.213l-84.853 84.853c-5.858 5.858-15.355 5.858-21.213 0zm291.328 270.115 84.853-84.853c5.858-5.858 5.858-15.355 0-21.213l-21.163-21.163c-5.858-5.858-15.355-5.858-21.213 0l-84.853 84.853c-5.858 5.858-5.858 15.355 0 21.213l21.163 21.163c5.858 5.858 15.355 5.858 21.213 0z" fill="#0a3575"/><path d="m72.717 234.253-41.246-41.246c-5.858-5.858-5.858-15.355 0-21.213l84.853-84.853c5.858-5.858 15.355-5.858 21.213 0l41.246 41.246c5.858 5.858 5.858 15.355 0 21.213l-84.853 84.853c-5.858 5.858-15.355 5.858-21.213 0zm291.945 270.732 84.853-84.853c5.858-5.858 5.858-15.355 0-21.213l-41.246-41.246c-5.858-5.858-15.355-5.858-21.213 0l-84.853 84.853c-5.858 5.858-5.858 15.355 0 21.213l41.246 41.246c5.858 5.858 15.356 5.858 21.213 0z" fill="#0a4499"/><path d="m117.018 61.328c-7.795-7.796-20.484-7.798-28.283 0l-82.877 82.876c-7.799 7.798-7.799 20.486 0 28.284l63.539 63.539c3.777 3.777 8.799 5.858 14.142 5.858s10.364-2.081 14.142-5.858l15.408-15.409c.002-.002.005-.005.008-.007l.007-.007 25.995-25.995c.007-.007.014-.013.021-.02l.02-.02 25.969-25.97c.011-.011.022-.022.033-.033s.021-.022.032-.032l15.383-15.384v.001c3.778-3.777 5.858-8.8 5.858-14.143s-2.08-10.365-5.858-14.142zm-21.213 7.071c1.95-1.95 4.511-2.925 7.071-2.925s5.122.976 7.071 2.924l28.234 28.235-18.952 18.952-35.305-35.305zm-18.951 18.951 35.306 35.305-18.952 18.952-35.306-35.305zm-26.023 26.022 35.306 35.305-18.952 18.953-35.305-35.306zm-37.902 52.046c-3.898-3.899-3.898-10.244 0-14.144l11.88-11.88 35.306 35.306-18.952 18.952zm77.681 63.539c-1.889 1.888-4.4 2.929-7.071 2.929s-5.183-1.041-7.071-2.929l-28.234-28.234 18.952-18.952 35.306 35.306zm18.951-18.951-35.305-35.306 18.952-18.952 35.306 35.305zm26.023-26.023-35.306-35.305 18.952-18.952 35.306 35.305zm37.902-37.904-11.88 11.881-35.306-35.305 18.952-18.952 28.235 28.235c1.889 1.889 2.929 4.399 2.929 7.07s-1.041 5.182-2.93 7.071zm277.186 248.903-63.538-63.539c-3.777-3.778-8.8-5.858-14.143-5.858s-10.365 2.08-14.142 5.858l-15.383 15.382c-.011.011-.022.022-.033.033s-.021.022-.032.032l-25.97 25.97c-.007.007-.014.013-.021.02s-.013.013-.02.02l-25.995 25.995c-.002.002-.005.005-.008.007l-15.416 15.416c-7.798 7.798-7.798 20.485 0 28.283l63.539 63.539c3.898 3.899 9.021 5.849 14.142 5.849 5.122 0 10.244-1.949 14.143-5.849l82.876-82.876h.001c7.798-7.796 7.798-20.485 0-28.282zm-84.751-56.468c1.889-1.889 4.399-2.929 7.07-2.929s5.182 1.04 7.071 2.929l28.234 28.234-18.951 18.952-35.305-35.305zm-18.952 18.951 35.305 35.305-18.952 18.952-35.305-35.306zm-26.022 26.022 35.305 35.306-18.952 18.951-35.306-35.305zm-37.904 52.045c-1.888-1.889-2.929-4.4-2.929-7.071s1.041-5.183 2.929-7.071l11.881-11.881 35.306 35.306-18.952 18.952zm77.683 63.539c-3.9 3.897-10.243 3.899-14.144 0l-28.234-28.234 18.952-18.952 35.306 35.306zm18.95-18.95-35.306-35.306 18.952-18.952 35.306 35.306zm26.022-26.022-35.306-35.306 18.952-18.952 35.306 35.306zm37.904-37.904-11.881 11.881-35.306-35.306 18.952-18.952 28.234 28.234c3.899 3.9 3.899 10.244.001 14.143z" fill="#0956c6"/><path d="m435.872 316.611c-2.646 0-4.854-2.075-4.989-4.746-.141-2.758 1.981-5.107 4.739-5.247 5.886-.299 11.298-2.867 15.241-7.232s5.951-10.01 5.652-15.895c-.141-2.758 1.981-5.107 4.739-5.247 2.792-.167 5.108 1.983 5.247 4.739.435 8.553-2.484 16.759-8.218 23.105-5.734 6.348-13.603 10.082-22.154 10.516-.086.005-.172.007-.257.007zm5.366 25.145c29.511-1.497 52.301-26.725 50.803-56.236-.139-2.757-2.446-4.9-5.247-4.739-2.758.14-4.88 2.488-4.739 5.247 1.218 24.004-17.319 44.523-41.324 45.742-2.758.14-4.88 2.488-4.739 5.247.135 2.671 2.344 4.746 4.989 4.746.084 0 .17-.002.257-.007zm-226.675-249.29c2.758-.14 4.88-2.488 4.74-5.246-.299-5.886 1.708-11.53 5.652-15.896s9.356-6.934 15.241-7.232c2.758-.14 4.88-2.488 4.74-5.246-.14-2.759-2.479-4.895-5.247-4.74-8.552.434-16.42 4.168-22.155 10.515-5.734 6.348-8.653 14.554-8.219 23.105.136 2.672 2.344 4.747 4.989 4.747.086 0 .172-.002.259-.007zm-25.54-2.536c2.758-.14 4.88-2.488 4.74-5.246-1.218-24.005 17.32-44.524 41.324-45.743 2.758-.14 4.88-2.488 4.74-5.247-.14-2.758-2.503-4.894-5.247-4.739-29.511 1.497-52.301 26.725-50.804 56.235.136 2.672 2.344 4.747 4.989 4.747.086 0 .172-.002.258-.007zm107.478 193.805c0-2.762-2.238-5-5-5h-21.056c-2.762 0-5 2.238-5 5s2.238 5 5 5h15.769c-1.45 12.542-8.571 25.193-25.094 25.193-16.649 0-30.194-13.545-30.194-30.193 0-16.649 13.545-30.194 30.194-30.194 6.052 0 11.888 1.782 16.877 5.153 2.289 1.547 5.397.944 6.942-1.343 1.546-2.288.945-5.396-1.343-6.942-6.649-4.493-14.422-6.868-22.477-6.868-22.163 0-40.194 18.031-40.194 40.194s18.031 40.193 40.194 40.193c20.833.001 35.382-16.528 35.382-40.193zm-109.989 39.971c13.531-.271 24.68-11.064 25.38-24.57.373-7.191-2.146-14.023-7.096-19.235-4.879-5.14-11.738-8.087-18.817-8.087-3.175 0-5.718.232-7.956.668l3.035-18.32h21.495c2.762 0 5-2.238 5-5s-2.238-5-5-5h-25.734c-2.446 0-4.533 1.77-4.933 4.183l-5.099 30.771c-.309 1.86.463 3.733 1.984 4.848s3.548 1.277 5.228.42c.047-.023.28-.14.662-.312 2.935-1.321 5.465-2.257 11.317-2.257 4.414 0 8.521 1.766 11.565 4.972 3.042 3.204 4.591 7.406 4.361 11.833-.431 8.295-7.28 14.923-15.595 15.09-.11.002-.219.003-.328.003-7.938 0-14.7-5.844-15.799-13.715-.103-.737-.154-1.488-.154-2.233 0-2.762-2.238-5-5-5s-5 2.238-5 5c0 1.204.084 2.419.25 3.613 1.79 12.82 12.788 22.336 25.7 22.335.178-.002.356-.003.534-.007zm134.62-220.412 103.15 103.15c4.725 4.725 12.803 1.378 12.803-5.303 0-1.989-.79-3.897-2.197-5.303l-103.15-103.15c-4.725-4.725-12.803-1.378-12.803 5.303 0 1.989.79 3.897 2.197 5.303z" fill="#fff"/></g></svg>