<svg id="Capa_1" enable-background="new 0 0 512 512" height="512" viewBox="0 0 512 512" width="512" xmlns="http://www.w3.org/2000/svg"><g><path d="m512 256c0 141.385-114.615 256-256 256s-256-114.615-256-256 114.615-256 256-256 256 114.615 256 256z" fill="#203e76"/><path d="m484.085 256c0 114.875-93.125 208-208 208s-208-93.125-208-208 93.125-208 208-208 208 93.125 208 208z" fill="#0a4499"/><path d="m14.163 212.938c0-2.761 2.238-5 5-5h145.048c2.762 0 5 2.239 5 5s-2.238 5-5 5h-145.048c-2.762 0-5-2.239-5-5zm31.991-86.688h58.19c2.762 0 5-2.239 5-5s-2.238-5-5-5h-58.19c-2.762 0-5 2.239-5 5s2.238 5 5 5zm81.063 177.75c0-2.761-2.238-5-5-5h-103.054c-2.762 0-5 2.239-5 5s2.238 5 5 5h103.054c2.761 0 5-2.239 5-5zm-1.331-177.75h25.035c2.762 0 5-2.239 5-5s-2.238-5-5-5h-25.035c-2.762 0-5 2.239-5 5s2.238 5 5 5zm-21.542 259.75h-58.19c-2.762 0-5 2.239-5 5s2.238 5 5 5h58.19c2.762 0 5-2.239 5-5s-2.239-5-5-5zm106.445-178.062h-25.035c-2.762 0-5 2.239-5 5s2.238 5 5 5h25.035c2.762 0 5-2.239 5-5 0-2.762-2.239-5-5-5zm-41.995 91.062h-25.035c-2.762 0-5 2.239-5 5s2.238 5 5 5h25.035c2.762 0 5-2.239 5-5s-2.238-5-5-5zm-17.873 87h-25.035c-2.762 0-5 2.239-5 5s2.238 5 5 5h25.035c2.762 0 5-2.239 5-5s-2.238-5-5-5z" fill="#0956c6"/><path d="m28.203 311.124c-2.668 4.934-8.02 8.203-14.098 7.85-7.536-.438-13.641-6.543-14.079-14.079-.353-6.079 2.916-11.431 7.85-14.098.752-.407 1.624.255 1.447 1.092-.269 1.277-.376 2.613-.298 3.986.429 7.548 6.552 13.67 14.099 14.1 1.374.078 2.71-.029 3.986-.298.838-.177 1.5.695 1.093 1.447zm-14.098-83.213c6.079.353 11.431-2.916 14.098-7.85.407-.752-.255-1.624-1.092-1.448-1.276.269-2.613.376-3.986.298-7.548-.429-13.67-6.552-14.099-14.1-.078-1.374.029-2.71.298-3.986.177-.837-.695-1.499-1.447-1.092-4.934 2.667-8.203 8.02-7.85 14.098.437 7.537 6.542 13.643 14.078 14.08zm39.997 168.766c-1.276.27-2.613.376-3.986.298-7.548-.429-13.67-6.552-14.099-14.1-.078-1.374.029-2.71.298-3.986.177-.837-.695-1.499-1.447-1.092-4.934 2.667-8.203 8.02-7.85 14.098.438 7.536 6.543 13.641 14.079 14.079 6.079.353 11.431-2.916 14.098-7.85.406-.752-.257-1.624-1.093-1.447zm-13.006-260.453c6.079.353 11.431-2.916 14.098-7.85.407-.752-.255-1.624-1.092-1.447-1.276.269-2.613.376-3.986.298-7.548-.429-13.67-6.552-14.099-14.1-.078-1.374.029-2.71.298-3.986.177-.837-.695-1.499-1.447-1.092-4.934 2.667-8.203 8.02-7.85 14.098.437 7.536 6.542 13.641 14.078 14.079z" fill="#0956c6"/><path d="m30 304c0 2.599-.661 5.044-1.825 7.176-2.131 1.163-4.576 1.824-7.175 1.824-8.284 0-15-6.716-15-15 0-2.599.661-5.044 1.825-7.176 2.131-1.163 4.576-1.824 7.175-1.824 8.284 0 15 6.716 15 15zm-15-106.062c-2.599 0-5.044.661-7.175 1.824-1.164 2.131-1.825 4.576-1.825 7.176 0 8.284 6.716 15 15 15 2.599 0 5.044-.661 7.175-1.825 1.163-2.131 1.825-4.576 1.825-7.175 0-8.285-6.716-15-15-15zm26.991 178.062c-2.599 0-5.044.661-7.175 1.824-1.163 2.132-1.825 4.576-1.825 7.176 0 8.284 6.716 15 15 15 2.599 0 5.044-.661 7.175-1.824 1.163-2.132 1.825-4.576 1.825-7.176 0-8.284-6.716-15-15-15zm6-245.75c2.599 0 5.044-.661 7.175-1.824 1.163-2.132 1.825-4.576 1.825-7.176 0-8.284-6.716-15-15-15-2.599 0-5.044.661-7.175 1.824-1.163 2.131-1.825 4.576-1.825 7.176 0 8.284 6.716 15 15 15z" fill="#2476ed"/><path d="m503.979 287.802c-11.908 22.022-35.798 36.615-62.933 35.04-32.463-1.885-58.978-27.332-62.548-59.342h-225.558c-4.143 0-7.5-3.358-7.5-7.5s3.357-7.5 7.5-7.5h225.561c2.483-22.271 15.889-41.244 34.74-51.436 3.359-1.816 7.249 1.14 6.461 4.876-1.202 5.698-1.68 11.663-1.331 17.794 1.916 33.692 29.245 61.022 62.938 62.938 6.131.349 12.096-.129 17.794-1.331 3.736-.789 6.692 3.102 4.876 6.461z" fill="#07a9f0"/><path d="m177.574 265.743c-3.601 6.66-10.826 11.074-19.033 10.597-10.173-.591-18.416-8.833-19.006-19.006-.477-8.207 3.937-15.432 10.597-19.033 1.016-.549 2.192.345 1.954 1.475-.364 1.723-.508 3.527-.403 5.382.579 10.19 8.845 18.455 19.034 19.034 1.854.105 3.658-.039 5.382-.403 1.13-.239 2.025.938 1.475 1.954zm-65.007-3.941c-1.276.269-2.613.376-3.986.298-7.548-.429-13.67-6.552-14.099-14.099-.078-1.374.029-2.71.298-3.986.177-.837-.695-1.499-1.447-1.093-4.934 2.668-8.203 8.02-7.85 14.098.438 7.536 6.543 13.641 14.079 14.079 6.079.353 11.431-2.916 14.098-7.85.406-.752-.256-1.624-1.093-1.447zm-55.456 0c-1.276.269-2.613.376-3.986.298-7.548-.429-13.67-6.552-14.099-14.099-.078-1.374.029-2.71.298-3.986.177-.837-.695-1.499-1.447-1.093-4.934 2.668-8.203 8.02-7.85 14.098.438 7.536 6.543 13.641 14.079 14.079 6.079.353 11.431-2.916 14.098-7.85.406-.752-.256-1.624-1.093-1.447zm-47.111-15.802c-5.523 0-10 4.477-10 10s4.477 10 10 10 10-4.477 10-10-4.477-10-10-10z" fill="#07a9f0"/><path d="m512 256c0 11.603-2.952 22.516-8.144 32.03-9.514 5.193-20.427 8.144-32.03 8.144-36.98 0-66.957-29.978-66.957-66.957 0-11.603 2.952-22.516 8.144-32.03 9.514-5.193 20.427-8.144 32.03-8.144 36.979 0 66.957 29.977 66.957 66.957zm-332 .125c0 3.509-.893 6.809-2.463 9.687-2.877 1.571-6.178 2.463-9.687 2.463-11.184 0-20.25-9.066-20.25-20.25 0-3.509.893-6.81 2.463-9.687 2.877-1.57 6.178-2.463 9.687-2.463 11.184 0 20.25 9.066 20.25 20.25zm-79.544-15c-2.599 0-5.044.661-7.176 1.824-1.163 2.131-1.824 4.576-1.824 7.176 0 8.284 6.716 15 15 15 2.599 0 5.044-.661 7.175-1.825 1.163-2.131 1.825-4.576 1.825-7.175 0-8.284-6.716-15-15-15zm-55.456 0c-2.599 0-5.044.661-7.175 1.824-1.163 2.131-1.825 4.576-1.825 7.176 0 8.284 6.716 15 15 15 2.599 0 5.044-.661 7.175-1.825 1.163-2.131 1.825-4.576 1.825-7.175 0-8.284-6.716-15-15-15z" fill="#72d1fb"/><path d="m102.62 88.66c-3.601 6.66-10.826 11.073-19.033 10.597-10.173-.591-18.415-8.833-19.006-19.006-.477-8.206 3.937-15.431 10.597-19.033 1.016-.549 2.192.345 1.954 1.475-.364 1.723-.508 3.527-.403 5.382.579 10.189 8.845 18.455 19.034 19.034 1.854.105 3.658-.039 5.382-.403 1.13-.238 2.024.939 1.475 1.954zm-54.683-2.811c-1.276.269-2.613.376-3.986.298-7.548-.429-13.67-6.552-14.099-14.1-.078-1.374.029-2.71.298-3.986.177-.837-.695-1.499-1.447-1.093-4.934 2.668-8.203 8.02-7.85 14.098.438 7.536 6.543 13.641 14.079 14.079 6.079.353 11.431-2.916 14.098-7.85.406-.751-.256-1.622-1.093-1.446z" fill="#0691ce"/><path d="m270.929 99.486c-7.655 14.157-23.012 23.538-40.455 22.524-19.997-1.161-36.483-16.231-39.844-35.593h-104.894c-2.719 0-4.923-3.358-4.923-7.5s2.204-7.5 4.923-7.5h104.937c2.341-13.097 10.607-24.141 21.926-30.261 2.159-1.167 4.66.733 4.153 3.135-.773 3.663-1.08 7.497-.856 11.439 1.231 21.659 18.8 39.227 40.458 40.458 3.941.224 7.776-.083 11.439-.856 2.403-.506 4.304 1.995 3.136 4.154z" fill="#0691ce"/><path d="m50.826 80.172c0 2.599-.661 5.044-1.825 7.175-2.131 1.163-4.576 1.825-7.175 1.825-8.284 0-15-6.716-15-15 0-2.599.661-5.044 1.825-7.175 2.131-1.163 4.576-1.825 7.175-1.825 8.285 0 15 6.716 15 15zm54.22-1.129c0 3.509-.893 6.809-2.463 9.687-2.877 1.57-6.178 2.463-9.687 2.463-11.184 0-20.25-9.066-20.25-20.25 0-3.509.893-6.809 2.463-9.687 2.877-1.57 6.178-2.463 9.687-2.463 11.183 0 20.25 9.066 20.25 20.25zm171.039 0c0 7.459-1.898 14.474-5.236 20.59-6.116 3.338-13.131 5.235-20.59 5.235-23.772 0-43.043-19.271-43.043-43.043 0-7.459 1.897-14.474 5.235-20.59 6.116-3.338 13.131-5.236 20.59-5.236 23.773.001 43.044 19.272 43.044 43.044z" fill="#07a9f0"/><path d="m369.731 365.443c-9.433 17.446-28.358 29.006-49.854 27.758-25.23-1.465-45.924-20.896-49.369-45.575h-174.695c-4.143 0-7.5-3.358-7.5-7.5s3.357-7.5 7.5-7.5h174.731c2.435-16.913 12.85-31.247 27.306-39.064 2.661-1.439 5.743.904 5.118 3.863-.952 4.514-1.331 9.239-1.054 14.096.429 7.552 2.471 14.701 5.783 21.104h52.303c4.143 0 7.5 3.358 7.5 7.5s-3.357 7.5-7.5 7.5h-40.778c8.728 7.949 20.089 13.045 32.55 13.754 4.857.276 9.583-.102 14.096-1.054 2.96-.625 5.302 2.457 3.863 5.118z" fill="#ea552d"/><path d="m376.085 340.25c0 9.191-2.338 17.837-6.452 25.374-7.537 4.114-16.182 6.452-25.374 6.452-29.295 0-53.043-23.748-53.043-53.043 0-9.191 2.338-17.837 6.452-25.374 7.537-4.114 16.182-6.452 25.374-6.452 29.295 0 53.043 23.748 53.043 53.043z" fill="#f76937"/><path d="m56.53 347.249c-2.668 4.934-8.02 8.203-14.098 7.85-7.536-.438-13.641-6.543-14.079-14.079-.353-6.079 2.916-11.431 7.85-14.098.752-.407 1.624.255 1.447 1.092-.269 1.277-.376 2.613-.298 3.986.429 7.548 6.552 13.67 14.099 14.1 1.374.078 2.71-.029 3.986-.298.837-.177 1.499.695 1.093 1.447zm52.115.665c-1.723.364-3.527.508-5.382.403-10.19-.579-18.455-8.845-19.034-19.034-.105-1.854.039-3.658.403-5.382.238-1.13-.938-2.024-1.954-1.475-6.66 3.601-11.074 10.826-10.597 19.033.591 10.173 8.833 18.416 19.006 19.006 8.206.477 15.432-3.937 19.033-10.597.549-1.016-.345-2.193-1.475-1.954z" fill="#f76937"/><path d="m58.326 340.125c0 2.599-.661 5.044-1.825 7.176-2.131 1.163-4.576 1.824-7.175 1.824-8.284 0-15-6.716-15-15 0-2.599.661-5.044 1.825-7.175 2.131-1.163 4.576-1.825 7.175-1.825 8.285 0 15 6.716 15 15zm33.969-20.125c-3.509 0-6.809.893-9.687 2.463-1.57 2.877-2.463 6.178-2.463 9.687 0 11.184 9.066 20.25 20.25 20.25 3.509 0 6.809-.893 9.687-2.463 1.57-2.877 2.463-6.178 2.463-9.687 0-11.184-9.066-20.25-20.25-20.25z" fill="#ff956a"/><path d="m369.731 194.943c-9.433 17.446-28.359 29.006-49.854 27.758-25.23-1.465-45.924-20.896-49.369-45.575h-176.925c-2.911 0-5.27-3.358-5.27-7.5s2.359-7.5 5.27-7.5h176.961c2.435-16.913 12.85-31.247 27.306-39.064 2.661-1.439 5.743.904 5.118 3.863-.952 4.514-1.331 9.239-1.054 14.096 1.518 26.69 23.168 48.341 49.858 49.858 4.857.276 9.583-.102 14.096-1.054 2.96-.625 5.302 2.457 3.863 5.118z" fill="#ffa90b"/><path d="m376.085 169.75c0 9.191-2.338 17.836-6.452 25.374-7.537 4.114-16.182 6.452-25.374 6.452-29.295 0-53.043-23.748-53.043-53.042 0-9.191 2.338-17.837 6.452-25.374 7.537-4.113 16.182-6.452 25.374-6.452 29.295 0 53.043 23.747 53.043 53.042z" fill="#ffc14f"/><path d="m56.53 178.004c-2.668 4.934-8.02 8.203-14.098 7.85-7.536-.438-13.641-6.543-14.079-14.079-.353-6.079 2.916-11.431 7.85-14.098.752-.407 1.624.256 1.447 1.093-.269 1.276-.376 2.613-.298 3.986.429 7.548 6.552 13.67 14.099 14.099 1.374.078 2.71-.029 3.986-.298.837-.177 1.499.694 1.093 1.447zm52.115-.59c-1.723.364-3.527.508-5.382.403-10.19-.579-18.455-8.845-19.034-19.034-.105-1.854.039-3.658.403-5.382.238-1.13-.938-2.024-1.954-1.475-6.66 3.601-11.074 10.826-10.597 19.033.591 10.173 8.833 18.416 19.006 19.006 8.206.477 15.432-3.937 19.033-10.597.549-1.016-.345-2.193-1.475-1.954z" fill="#ffc14f"/><path d="m58.326 170.88c0 2.599-.661 5.044-1.825 7.176-2.131 1.163-4.576 1.824-7.175 1.824-8.284 0-15-6.716-15-15 0-2.599.661-5.044 1.825-7.176 2.131-1.163 4.576-1.824 7.175-1.824 8.285 0 15 6.715 15 15zm33.97-21.38c-3.509 0-6.809.893-9.687 2.463-1.57 2.877-2.463 6.178-2.463 9.687 0 11.184 9.066 20.25 20.25 20.25 3.509 0 6.809-.893 9.687-2.463 1.57-2.877 2.463-6.178 2.463-9.687 0-11.184-9.067-20.25-20.25-20.25z" fill="#ffcd71"/><path d="m47.937 439.764c.837-.177 1.499.695 1.092 1.447-2.668 4.934-8.02 8.203-14.098 7.85-7.536-.438-13.641-6.543-14.079-14.079-.353-6.079 2.916-11.431 7.85-14.098.752-.407 1.624.256 1.447 1.092-.269 1.276-.376 2.613-.298 3.986.429 7.548 6.552 13.67 14.099 14.099 1.374.079 2.711-.028 3.987-.297z" fill="#f29500"/><path d="m270.929 453.401c-7.655 14.157-23.012 23.538-40.455 22.525-19.997-1.161-36.483-16.231-39.844-35.593h-104.901c-2.715 0-4.916-3.358-4.916-7.5s2.201-7.5 4.916-7.5h104.945c2.341-13.097 10.607-24.142 21.926-30.262 2.159-1.167 4.66.733 4.153 3.135-.773 3.663-1.08 7.497-.856 11.439 1.231 21.658 18.8 39.227 40.458 40.458 3.942.224 7.776-.083 11.439-.856 2.402-.506 4.303 1.994 3.135 4.154z" fill="#f29500"/><path d="m50.826 434.087c0 2.599-.661 5.044-1.825 7.176-2.131 1.163-4.576 1.824-7.175 1.824-8.284 0-15-6.716-15-15 0-2.599.661-5.044 1.825-7.176 2.131-1.163 4.576-1.824 7.175-1.824 8.285 0 15 6.716 15 15zm50.319 6.534c-1.723.364-3.527.508-5.382.403-10.19-.58-18.455-8.845-19.034-19.034-.105-1.854.039-3.658.403-5.382.238-1.13-.938-2.024-1.954-1.475-6.66 3.601-11.074 10.826-10.597 19.033.591 10.173 8.833 18.416 19.006 19.006 8.206.477 15.432-3.937 19.033-10.597.549-1.015-.345-2.192-1.475-1.954zm174.94-7.663c0 7.458-1.898 14.474-5.235 20.59-6.116 3.338-13.131 5.236-20.59 5.236-23.772 0-43.043-19.271-43.043-43.042 0-7.459 1.897-14.474 5.235-20.59 6.116-3.338 13.131-5.236 20.59-5.236 23.772-.001 43.043 19.27 43.043 43.042z" fill="#ffa90b"/><path d="m105.045 432.958c0 3.509-.893 6.809-2.463 9.687-2.877 1.571-6.178 2.463-9.687 2.463-11.184 0-20.25-9.066-20.25-20.25 0-3.509.893-6.81 2.463-9.687 2.878-1.57 6.178-2.463 9.687-2.463 11.184 0 20.25 9.066 20.25 20.25z" fill="#ffc14f"/><path d="m433.389 252.222c4.37 4.603 6.595 10.635 6.265 16.984-.619 11.925-10.462 21.454-22.41 21.696-.156.003-.313.005-.468.005-11.402.001-21.114-8.402-22.694-19.724-.146-1.052-.221-2.125-.221-3.189 0-2.762 2.239-5 5-5s5 2.238 5 5c0 .604.042 1.213.125 1.808.901 6.461 6.489 11.229 13.057 11.103 6.731-.136 12.277-5.502 12.625-12.216.186-3.585-1.068-6.987-3.531-9.581-2.465-2.596-5.79-4.025-9.364-4.025-4.871 0-6.876.738-9.38 1.865-.299.135-.484.227-.529.249-1.681.856-3.707.697-5.229-.418-1.522-1.114-2.294-2.986-1.986-4.848l4.359-26.311c.4-2.413 2.487-4.183 4.933-4.183h22.004c2.761 0 5 2.238 5 5s-2.239 5-5 5h-17.765l-2.328 14.049c1.704-.265 3.624-.404 5.92-.404 6.253 0 12.309 2.603 16.617 7.14zm73.611-1.222h-18.004c-2.761 0-5 2.238-5 5s2.239 5 5 5h12.659c-1.416 10.139-7.346 20.093-20.632 20.093-13.836 0-25.092-11.257-25.092-25.093s11.256-25.093 25.092-25.093c5.029 0 9.879 1.48 14.025 4.282 2.289 1.547 5.396.945 6.942-1.344 1.546-2.288.944-5.396-1.344-6.941-5.806-3.924-12.592-5.997-19.624-5.997-19.35 0-35.092 15.742-35.092 35.093s15.742 35.093 35.092 35.093c18.24 0 30.978-14.431 30.978-35.093 0-2.762-2.239-5-5-5zm-155.005 86.696-38.569-27.272c-2.649-1.874-6.309.021-6.309 3.266v54.545c0 3.245 3.66 5.139 6.309 3.266l38.569-27.273c2.254-1.594 2.254-4.938 0-6.532zm-28.952-163.864c9.275 0 16.794-7.519 16.794-16.794v-9.33c0-9.275-7.519-16.794-16.794-16.794s-16.794 7.519-16.794 16.794v9.33c0 9.275 7.519 16.794 16.794 16.794zm28.3-21.31c-2.762 0-5 2.239-5 5 0 12.848-10.452 23.3-23.3 23.3s-23.301-10.452-23.301-23.3c0-2.761-2.238-5-5-5s-5 2.239-5 5c0 16.663 12.302 30.506 28.301 32.925v8.234h-9.043c-2.762 0-5 2.239-5 5s2.238 5 5 5h28.085c2.762 0 5-2.239 5-5s-2.238-5-5-5h-9.042v-8.234c15.998-2.419 28.3-16.262 28.3-32.925 0-2.761-2.239-5-5-5zm-131.126-88.326h26.815c2.761 0 5-2.239 5-5s-2.239-5-5-5h-26.815c-2.761 0-5 2.239-5 5 0 2.762 2.239 5 5 5zm31.815 34.443c0-2.761-2.239-5-5-5h-26.815c-2.761 0-5 2.239-5 5 0 2.761 2.239 5 5 5h26.815c2.761 0 5-2.239 5-5zm3-24.443h-42.815c-2.761 0-5 2.239-5 5s2.239 5 5 5h42.815c2.761 0 5-2.239 5-5-.001-2.761-2.239-5-5-5zm-41.129 339.5c-2.761 0-5 2.239-5 5v26.814c0 2.761 2.239 5 5 5s5-2.239 5-5v-26.814c0-2.762-2.239-5-5-5zm39.443 0c-2.761 0-5 2.239-5 5v26.814c0 2.761 2.239 5 5 5s5-2.239 5-5v-26.814c0-2.762-2.239-5-5-5zm-19.443-8c-2.761 0-5 2.239-5 5v42.814c0 2.761 2.239 5 5 5s5-2.239 5-5v-42.814c0-2.762-2.239-5-5-5z" fill="#f0ecea"/></g></svg>