<svg id="Capa_1" enable-background="new 0 0 512 512" height="512" viewBox="0 0 512 512" width="512" xmlns="http://www.w3.org/2000/svg"><g><path d="m512 256.001c0 141.384-114.616 255.999-256 255.999-3.199 0-6.384-.059-9.554-.175-5.473-.201-10.221-3.941-11.599-9.242-14.719-56.611-66.175-98.405-127.393-98.405-16.473 0-32.239 3.027-46.773 8.553-3.3 1.255-7.04.127-9.166-2.691-32.34-42.861-51.515-96.211-51.515-154.04 0-141.384 114.615-256 255.999-256 141.039 0 256.001 114.962 256.001 256.001z" fill="#40c1fa"/><path d="m472.318 244.341c0 113.03-91.629 204.659-204.659 204.659s-204.659-91.629-204.659-204.659 91.629-204.659 204.659-204.659 204.659 91.629 204.659 204.659z" fill="#72d1fb"/><path d="m368 47h-265c-11.028 0-20 8.972-20 20v343c0 11.028 8.972 20 20 20h265c11.028 0 20-8.972 20-20v-343c0-11.028-8.972-20-20-20zm10 363c0 5.514-4.486 10-10 10h-265c-5.514 0-10-4.486-10-10v-343c0-5.514 4.486-10 10-10h265c5.514 0 10 4.486 10 10z" fill="#2476ed"/><path d="m408 244v80c0 5.523-4.477 10-10 10h-30c-5.523 0-10-4.477-10-10v-80c0-5.523 4.477-10 10-10h30c5.523 0 10 4.477 10 10z" fill="#0956c6"/><path d="m488 119c0 57.99-47.01 105-105 105s-105-47.01-105-105 47.01-105 105-105 105 47.01 105 105z" fill="#f29500"/><path d="m383 224c-1.565 0-6.665-.035-8.213-.102-14.655-28.636-19.895-65.14-19.895-104.898s8.783-76.262 23.438-104.898c1.548-.067 3.105-.102 4.67-.102 57.99 0 105 47.01 105 105s-47.01 105-105 105z" fill="#ffb52d"/><path d="m456 119c0 40.317-32.683 73-73 73s-73-32.683-73-73 32.683-73 73-73 73 32.683 73 73z" fill="#ffc14f"/><path d="m172 114.25v360c0 7.994-51.247.411-70-13.732-13.331-10.054-25.647-21.381-36.768-33.8-4.33-4.835-6.732-11.094-6.732-17.584v-294.884c0-16.569 13.431-30 30-30h53.5c16.569 0 30 13.431 30 30z" fill="#b9d3fd"/><path d="m277.5 114.75v360c0 16.569-13.431 30-30 30h-35.34c-12.814 0-25.578-1.938-37.724-6.018-26.315-8.839-50.721-21.838-72.435-38.214v-345.768c0-16.569 13.431-30 30-30h115.5c16.568 0 29.999 13.431 29.999 30z" fill="#dce6eb"/><path d="m252 112.75v20c0 2.761-2.239 5-5 5s-5-2.239-5-5v-20c0-2.761 2.239-5 5-5s5 2.239 5 5zm-25 5c-2.761 0-5 2.239-5 5v10c0 2.761 2.239 5 5 5s5-2.239 5-5v-10c0-2.761-2.239-5-5-5zm-20 10c-2.761 0-5 2.239-5 5s2.239 5 5 5 5-2.239 5-5-2.239-5-5-5zm-100-20h-20c-2.761 0-5 2.239-5 5s2.239 5 5 5h20c2.761 0 5-2.239 5-5s-2.239-5-5-5zm0 20h-20c-2.761 0-5 2.239-5 5s2.239 5 5 5h20c2.761 0 5-2.239 5-5s-2.239-5-5-5zm77 320h-32c-5.523 0-10 4.477-10 10s4.477 10 10 10h32c5.523 0 10-4.477 10-10s-4.477-10-10-10z" fill="#97bffd"/><path d="m238.417 330.496c-14.227 26.312-42.771 43.748-75.191 41.865-40.191-2.334-72.752-34.896-75.087-75.087-1.883-32.42 15.553-60.964 41.865-75.191 4.013-2.17 8.661 1.363 7.719 5.826-1.436 6.808-2.007 13.935-1.59 21.261 2.289 40.255 34.942 72.908 75.197 75.197 7.326.417 14.453-.154 21.26-1.59 4.464-.942 7.997 3.706 5.827 7.719z" fill="#f29500"/><path d="m248 292.5c0 13.863-3.527 26.901-9.731 38.269-11.368 6.204-24.406 9.731-38.269 9.731-44.183 0-80-35.817-80-80 0-13.863 3.527-26.901 9.731-38.269 11.368-6.204 24.406-9.731 38.269-9.731 44.183 0 80 35.817 80 80z" fill="#ffb52d"/><path d="m229.21 292.5c0 21.363-13.161 36.283-32.006 36.283-20.007 0-36.283-16.276-36.283-36.283s16.276-36.283 36.283-36.283c7.271 0 14.286 2.144 20.29 6.199 2.288 1.546 2.891 4.654 1.345 6.942-1.548 2.288-4.654 2.889-6.942 1.345-4.345-2.936-9.425-4.486-14.692-4.486-14.492 0-26.283 11.791-26.283 26.283s11.791 26.283 26.283 26.283c14.042 0 20.252-10.582 21.677-21.283h-13.388c-2.762 0-5-2.238-5-5s2.238-5 5-5h18.717c2.761 0 4.999 2.238 4.999 5zm-98.798-11.152c-2.5 0-4.566.159-6.396.462l2.492-15.042h18.636c2.762 0 5-2.238 5-5s-2.238-5-5-5h-22.876c-2.446 0-4.533 1.77-4.933 4.183l-4.531 27.352c-.309 1.86.463 3.732 1.983 4.847s3.545 1.274 5.228.422c.045-.023.242-.121.564-.266 2.626-1.183 4.729-1.957 9.832-1.957 3.77 0 7.278 1.508 9.878 4.247 2.598 2.736 3.921 6.325 3.725 10.105-.367 7.084-6.218 12.744-13.319 12.887-6.864.122-12.821-4.896-13.773-11.71-.088-.629-.132-1.271-.132-1.908 0-2.762-2.238-5-5-5s-5 2.238-5 5c0 1.098.076 2.203.228 3.289 1.63 11.67 11.642 20.332 23.395 20.332.161 0 .322-.002.484-.005 12.317-.247 22.467-10.072 23.104-22.367.34-6.546-1.954-12.764-6.459-17.509-4.441-4.679-10.686-7.362-17.13-7.362z" fill="#fff"/><path d="m383 99.469c-12.407 0-22.5 10.094-22.5 22.5v101.063c0 12.406 10.093 22.5 22.5 22.5s22.5-10.094 22.5-22.5v-101.063c0-12.406-10.093-22.5-22.5-22.5zm12.5 123.562c0 6.893-5.607 12.5-12.5 12.5s-12.5-5.607-12.5-12.5v-101.062c0-6.893 5.607-12.5 12.5-12.5s12.5 5.607 12.5 12.5z" fill="#ffe7c0"/><path d="m383 73.723c-2.761 0-5-2.239-5-5v-24.258c0-2.761 2.239-5 5-5 2.761 0 5 2.239 5 5v24.259c0 2.761-2.239 4.999-5 4.999zm-47.743 24.645h-24.259c-2.761 0-5 2.239-5 5 0 2.761 2.239 5 5 5h24.259c2.761 0 5-2.239 5-5 0-2.762-2.239-5-5-5zm119.745 0h-24.259c-2.761 0-5 2.239-5 5 0 2.761 2.239 5 5 5h24.259c2.761 0 5-2.239 5-5 0-2.762-2.239-5-5-5zm-96.559-24.137-17.154-17.153c-1.953-1.953-5.118-1.953-7.071 0-1.953 1.953-1.953 5.118 0 7.071l17.154 17.153c1.953 1.953 5.118 1.953 7.071 0 1.952-1.953 1.952-5.118 0-7.071zm49.114 7.071c1.953 1.953 5.118 1.953 7.071 0l17.154-17.154c1.953-1.953 1.953-5.118 0-7.071-1.953-1.953-5.118-1.953-7.071 0l-17.154 17.153c-1.952 1.954-1.952 5.119 0 7.072z" fill="#ffd993"/><path d="m370.5 220v88c0 3.313-2.686 6-6 6h-20.5c-3.314 0-6-2.687-6-6v-88c0-3.313 2.686-6 6-6h20.5c3.314 0 6 2.687 6 6z" fill="#0a66ea"/><path d="m428 220v88c0 3.313-2.182 6-4.874 6h-63.36c-2.692 0-4.874-2.687-4.874-6v-88c0-3.313 2.182-6 4.874-6h63.36c2.692 0 4.874 2.687 4.874 6z" fill="#2476ed"/><path d="m293 128.5v40c0 4.838-3.436 8.873-8 9.8v296.2c0 19.89-15.565 36.212-35.155 37.427-28.158-.665-55.192-5.875-80.394-14.927h78.049c12.406 0 22.5-10.093 22.5-22.5v-360c0-12.407-10.094-22.5-22.5-22.5h-49.5v6.5c0 5.523-4.477 10-10 10h-40c-5.523 0-10-4.477-10-10v-6.5h-49.5c-12.406 0-22.5 10.093-22.5 22.5v313.072c-5.271-5.834-10.277-11.912-15-18.214v-191.058c-4.564-.927-8-4.962-8-9.8v-26.154c0-4.838 3.436-8.873 8-9.8v-8.093c-4.564-.927-8-4.962-8-9.799v-26.154c0-4.837 3.436-8.873 8-9.8v-4.2c0-20.678 16.822-37.5 37.5-37.5h159c20.678 0 37.5 16.822 37.5 37.5v4.2c4.564.927 8 4.962 8 9.8z" fill="#274c91"/><path d="m188 92c0 2.761-2.239 5-5 5h-30c-2.761 0-5-2.239-5-5s2.239-5 5-5h30c2.761 0 5 2.239 5 5z" fill="#2e5aac"/></g></svg>