<svg id="Capa_1" enable-background="new 0 0 512 512" height="512" viewBox="0 0 512 512" width="512" xmlns="http://www.w3.org/2000/svg"><g><path d="m512 256c0 141.385-114.615 256-256 256s-256-114.615-256-256 114.615-256 256-256 256 114.615 256 256z" fill="#07a9f0"/><path d="m490.989 256c0 109.266-88.578 197.844-197.844 197.844s-197.844-88.578-197.844-197.844 88.578-197.844 197.844-197.844 197.844 88.578 197.844 197.844z" fill="#40c1fa"/><path d="m318.349 237.535-100.409 100.41c-5.858 5.858-15.355 5.858-21.213 0l-192.334-192.333c-5.858-5.858-5.858-15.355 0-21.213l100.41-100.41c5.858-5.858 15.355-5.858 21.213 0l192.333 192.333c5.858 5.858 5.858 15.356 0 21.213z" fill="#ffc14f"/><path d="m232.082 323.802-14.142 14.142c-5.858 5.858-15.355 5.858-21.213 0l-192.334-192.332c-5.858-5.858-5.858-15.355 0-21.213l14.142-14.142c-5.858 5.858-5.858 15.355 0 21.213l192.333 192.333c5.858 5.857 15.356 5.857 21.214-.001z" fill="#ffb52d"/><path d="m394.716 299.761-114.551 114.551c-5.858 5.858-15.355 5.858-21.213 0l-192.333-192.333c-5.858-5.858-5.858-15.355 0-21.213l114.551-114.551c5.858-5.858 15.355-5.858 21.213 0l192.333 192.333c5.858 5.858 5.858 15.355 0 21.213z" fill="#0a3575"/><path d="m429.899 295.691-153.804 153.803c-5.858 5.858-15.355 5.858-21.213 0l-192.333-192.333c-5.858-5.858-5.858-15.355 0-21.213l153.803-153.803c5.858-5.858 15.355-5.858 21.213 0l192.333 192.333c5.859 5.858 5.859 15.355.001 21.213z" fill="#0956c6"/><path d="m75.811 130.762c1.953 1.953 1.953 5.118 0 7.071l-14.142 14.142c-1.953 1.953-5.118 1.953-7.071 0l-38.891-38.891 21.213-21.213zm56.569-56.568-38.891-38.891-21.213 21.213 38.891 38.891c1.953 1.953 5.118 1.953 7.071 0l14.142-14.142c1.952-1.953 1.952-5.119 0-7.071z" fill="#f29500"/><path d="m357.071 289.861-77.21 77.21c-3.905 3.905-10.237 3.905-14.142 0l-144.622-144.622c-3.905-3.905-3.905-10.237 0-14.142l77.21-77.21c3.905-3.905 10.237-3.905 14.142 0l144.622 144.622c3.905 3.905 3.905 10.237 0 14.142z" fill="#0a66ea"/><path d="m169.876 213.411c2.929 2.929 2.929 7.678 0 10.607s-7.678 2.929-10.607 0-2.929-7.678 0-10.607 7.678-2.929 10.607 0zm9.722-20.33c-2.929 2.929-2.929 7.678 0 10.607s7.678 2.929 10.607 0 2.929-7.678 0-10.607-7.678-2.929-10.607 0z" fill="#5596fb"/><path d="m210.534 172.752c2.929 2.929 2.929 7.678 0 10.607s-7.678 2.929-10.607 0-2.929-7.678 0-10.607c2.93-2.929 7.678-2.929 10.607 0z" fill="#d5f1fe"/><path d="m292.9 432.689-16.805 16.805c-5.858 5.858-15.355 5.858-21.213 0l-192.333-192.333c-5.858-5.858-5.858-15.355 0-21.213l16.805-16.805c-5.858 5.858-5.858 15.355 0 21.213l192.333 192.333c5.858 5.858 15.356 5.858 21.213 0z" fill="#0a4499"/><path d="m449.419 326.405c-14.733 27.247-44.29 45.301-77.861 43.352-41.618-2.417-75.336-36.135-77.753-77.753-1.95-33.571 16.105-63.128 43.351-77.861 4.155-2.247 8.969 1.411 7.994 6.033-1.487 7.05-2.078 14.429-1.647 22.015 2.37 41.685 36.182 75.497 77.867 77.867 7.586.431 14.966-.16 22.015-1.647 4.623-.975 8.281 3.839 6.034 7.994z" fill="#f29500"/><path d="m459.342 287.06c0 14.355-3.652 27.857-10.076 39.628-11.771 6.424-25.273 10.076-39.628 10.076-45.751 0-82.84-37.089-82.84-82.84 0-14.355 3.652-27.857 10.076-39.628 11.771-6.425 25.273-10.076 39.628-10.076 45.751-.001 82.84 37.088 82.84 82.84z" fill="#ffb52d"/><path d="m439.707 287.06c0 22.018-13.555 37.395-32.964 37.395-20.62 0-37.395-16.775-37.395-37.395s16.775-37.395 37.395-37.395c7.492 0 14.723 2.21 20.911 6.39 2.288 1.546 2.89 4.654 1.344 6.942-1.546 2.289-4.654 2.889-6.942 1.345-4.528-3.06-9.823-4.677-15.313-4.677-15.105 0-27.395 12.289-27.395 27.395s12.289 27.395 27.395 27.395c14.746 0 21.215-11.169 22.648-22.395h-14.065c-2.761 0-5-2.238-5-5s2.239-5 5-5h19.381c2.761 0 5 2.238 5 5zm-102.128-11.372c-2.689 0-4.892.18-6.838.518l2.646-15.971h19.448c2.761 0 5-2.238 5-5s-2.239-5-5-5h-23.688c-2.446 0-4.533 1.77-4.933 4.183l-4.692 28.324c-.309 1.861.464 3.734 1.987 4.849 1.523 1.116 3.55 1.273 5.23.416.046-.023.251-.125.585-.275 2.741-1.234 4.936-2.043 10.254-2.043 3.953 0 7.631 1.581 10.357 4.452 2.724 2.87 4.111 6.633 3.906 10.598-.386 7.427-6.52 13.362-13.965 13.513-7.242.178-13.444-5.134-14.442-12.28-.092-.657-.138-1.33-.138-1.999 0-2.762-2.239-5-5-5s-5 2.238-5 5c0 1.13.079 2.267.234 3.381 1.674 11.997 11.968 20.901 24.053 20.901.164 0 .33-.002.495-.005 12.662-.255 23.095-10.354 23.75-22.993.35-6.729-2.009-13.122-6.64-18-4.566-4.811-10.984-7.569-17.609-7.569z" fill="#fff"/><path d="m492.511 315.282c-6.197 25.556-21 48.706-41.683 65.185-21.315 16.982-47.017 25.959-74.326 25.959-62.615 0-114.123-48.462-118.99-109.847l-7.602 8.987c-.989 1.169-2.4 1.771-3.82 1.771-1.141 0-2.288-.388-3.227-1.183-2.108-1.783-2.372-4.938-.588-7.047l15.696-18.556c.856-1.012 2.079-1.643 3.399-1.753l.349-.029c1.33-.109 2.635.309 3.647 1.165l18.556 15.697c2.108 1.783 2.371 4.938.588 7.047-1.784 2.108-4.938 2.372-7.047.588l-10.061-8.511c3.962 56.728 51.381 101.67 109.098 101.67 50.662 0 94.37-34.336 106.29-83.499.651-2.684 3.352-4.33 6.038-3.682 2.685.652 4.333 3.355 3.683 6.038zm17.718-50.176c-2.107-1.784-5.263-1.52-7.046.588l-7.915 9.356c-6.041-60.201-57-107.356-118.766-107.356-26.398 0-51.416 8.443-72.348 24.416-20.259 15.46-35.294 37.385-42.335 61.736-.767 2.652.762 5.425 3.415 6.192 2.652.767 5.425-.761 6.192-3.415 13.437-46.473 56.646-78.93 105.077-78.93 56.642 0 103.364 43.282 108.831 98.51l-9.705-8.209c-2.107-1.784-5.263-1.52-7.046.588s-1.52 5.264.588 7.047l18.555 15.696c.906.767 2.051 1.183 3.229 1.183.139 0 .278-.006.417-.018l.35-.029c1.321-.11 2.544-.741 3.4-1.753l15.696-18.556c1.783-2.107 1.519-5.262-.589-7.046z" fill="#d5f1fe"/></g></svg>