<svg id="Capa_1" enable-background="new 0 0 512 512" height="512" viewBox="0 0 512 512" width="512" xmlns="http://www.w3.org/2000/svg"><g><path d="m202.326 505.948c-46.667-9.952-91.091-33.041-127.345-69.268-99.974-99.897-99.974-261.861 0-361.758s262.064-99.897 362.039 0c45.918 45.882 70.745 104.857 74.484 164.899.334 5.36-3.934 9.891-9.309 9.891h-43.435c-141.625 0-256.434 114.721-256.434 256.236z" fill="#2476ed"/><path d="m322.708 322.458c-36.842 36.813-96.574 36.813-133.416 0s-36.842-96.499 0-133.313 96.574-36.813 133.416 0 36.842 96.499 0 133.313z" fill="#5596fb"/><path d="m392.066 80.934c-96.651-75.087-235.92-57.667-311.066 38.91-75.146 96.576-57.712 235.737 38.94 310.824 96.651 75.087 235.92 57.667 311.066-38.91 75.146-96.576 57.712-235.737-38.94-310.824zm-37.853 251.165c-42.171 54.198-120.326 63.974-174.566 21.836s-64.024-120.233-21.853-174.431 120.326-63.974 174.566-21.836 64.024 120.233 21.853 174.431z" fill="#ffb52d"/><path d="m401.882 201.997c-17.428 2.18-34.856-5.04-45.18-19.238-6.727-9.25-14.853-17.72-24.34-25.09-54.351-42.225-132.311-32.473-174.568 21.836-7.376 9.48-13.162 19.69-17.399 30.312-6.503 16.303-21.613 27.593-39.04 29.773-36.731 4.595-64.948-31.911-51.156-66.236 7.531-18.745 17.776-36.766 30.802-53.507 75.21-96.661 214.333-114.063 311.068-38.91 16.754 13.016 31.128 27.958 43.052 44.269 21.832 29.868 3.492 72.196-33.239 76.791z" fill="#ffc14f"/><path d="m448.659 86.27-99.55 92.471c-2.935 2.727-7.717 2.559-10.468-.329-2.063-2.166-4.241-4.27-6.535-6.304-42.382-37.592-109.873-37.485-152.123.233-4.003 3.573-7.65 7.357-10.941 11.313-2.624 3.153-7.663 3.393-10.697.575l-99.579-92.497c-2.688-2.497-2.823-6.513-.293-9.148 3.388-3.529 6.905-6.99 10.55-10.376 103.361-96.012 270.944-96.012 374.305 0l5.332 4.955c2.707 2.515 2.707 6.592-.001 9.107z" fill="#ea552d"/><path d="m448.659 86.27-99.55 92.471c-2.935 2.727-7.717 2.559-10.468-.329-2.063-2.166-4.241-4.27-6.535-6.304-20.541-18.22-46.981-27.584-73.586-28.102-39.082-.761-70.116-33.207-70.116-72.266 0-40.063 32.938-72.228 73.026-71.494 65.974 1.209 131.554 25.196 181.899 71.961l5.332 4.955c2.706 2.516 2.706 6.593-.002 9.108z" fill="#f76937"/><path d="m274.404 255.266c.013 2.76-2.216 5.006-4.978 5.019h-.023c-2.751 0-4.986-2.222-4.999-4.974l-.155-34.589-121.583-130.409c-1.883-2.019-1.771-5.181.25-7.061 2.019-1.88 5.185-1.77 7.066.25l122.916 131.838c.857.919 1.336 2.127 1.342 3.383z" fill="#203e76"/><path d="m161.505 95.389c-3.602 6.655-10.827 11.065-19.033 10.589-10.173-.59-18.416-8.826-19.006-18.992-.477-8.2 3.937-15.419 10.597-19.018 1.016-.549 2.192.345 1.954 1.474-.364 1.722-.508 3.524-.403 5.377.579 10.182 8.845 18.441 19.034 19.02 1.854.105 3.658-.039 5.381-.402 1.131-.239 2.025.937 1.476 1.952z" fill="#dce6eb"/><path d="m510.935 279.287c-.007.081-.014.16-.021.238-11.978 130.153-121.534 232.078-254.914 232.078-22.099 0-43.544-2.798-64-8.059v-224.595c0-16.147 13.1-29.237 29.26-29.237h262.53c15.973 0 28.55 13.676 27.145 29.575z" fill="#dce6eb"/><path d="m512 255.801c0 7.999-.367 15.912-1.086 23.723h-318.914v-34.973c0-2.759 2.239-4.996 5-4.996h314.492c.337 5.373.508 10.79.508 16.246z" fill="#97bffd"/><path d="m512 255.801c0 3.764-.082 7.509-.243 11.233h-212.257c-4.142 0-7.5-3.355-7.5-7.494s3.358-7.494 7.5-7.494h212.473c.018 1.25.027 2.502.027 3.755z" fill="#dce6eb"/><path d="m219.5 259.54c0 4.139-3.358 7.494-7.5 7.494s-7.5-3.355-7.5-7.494 3.358-7.494 7.5-7.494 7.5 3.355 7.5 7.494zm22.5-7.494c-4.142 0-7.5 3.355-7.5 7.494s3.358 7.494 7.5 7.494 7.5-3.355 7.5-7.494-3.358-7.494-7.5-7.494zm30 0c-4.142 0-7.5 3.355-7.5 7.494s3.358 7.494 7.5 7.494 7.5-3.355 7.5-7.494-3.358-7.494-7.5-7.494z" fill="#5596fb"/><path d="m222.993 430.705h219.816c-10.261 10.938-21.472 20.974-33.503 29.977h-186.313c-2.761 0-5-1.678-5-3.747v-22.483c0-2.069 2.238-3.747 5-3.747zm0-119.907c-2.761 0-5 1.678-5 3.747v22.483c0 2.069 2.239 3.747 5 3.747h274.544c3.43-9.736 6.288-19.742 8.532-29.977zm-5 63.701v22.483c0 2.069 2.239 3.747 5 3.747h243.985c6.579-9.544 12.525-19.556 17.78-29.977h-261.765c-2.762 0-5 1.677-5 3.747z" fill="#b9d3fd"/><path d="m393 415.717c0 2.759-2.239 4.996-5 4.996h-151.021c-2.761 0-5-2.237-5-4.996s2.239-4.996 5-4.996h151.021c2.761 0 5 2.237 5 4.996zm-5 54.957h-151.021c-2.761 0-5 2.237-5 4.996s2.239 4.996 5 4.996h141.161c4.691-2.55 9.294-5.242 13.802-8.07-.915-1.169-2.341-1.922-3.942-1.922zm-151.021-109.914h151.021c2.761 0 5-2.237 5-4.996s-2.239-4.996-5-4.996h-151.021c-2.761 0-5 2.237-5 4.996s2.238 4.996 5 4.996z" fill="#bacbec"/><path d="m393 445.694c0 2.759-2.239 4.996-5 4.996h-151.021c-2.761 0-5-2.237-5-4.996s2.239-4.996 5-4.996h151.021c2.761-.001 5 2.236 5 4.996zm-156.021-114.911h151.021c2.761 0 5-2.237 5-4.996s-2.239-4.996-5-4.996h-151.021c-2.761 0-5 2.237-5 4.996s2.238 4.996 5 4.996zm151.021 49.961h-151.021c-2.761 0-5 2.237-5 4.996s2.239 4.996 5 4.996h151.021c2.761 0 5-2.237 5-4.996s-2.239-4.996-5-4.996z" fill="#91aee2"/><path d="m479.042 355.763c0 2.759-2.239 4.996-5 4.996h-6.17c-2.761 0-5-2.237-5-4.996s2.239-4.996 5-4.996h6.17c2.762 0 5 2.237 5 4.996zm-11.17-24.98h6.17c2.761 0 5-2.237 5-4.996s-2.239-4.996-5-4.996h-6.17c-2.761 0-5 2.237-5 4.996s2.239 4.996 5 4.996zm-29.149-9.992h-20.979c-2.761 0-5 2.237-5 4.996s2.239 4.996 5 4.996h20.979c2.761 0 5-2.237 5-4.996 0-2.76-2.238-4.996-5-4.996zm-25.978 124.903c0 2.759 2.239 4.996 5 4.996h4.081c3.791-3.224 7.487-6.556 11.082-9.992h-15.163c-2.762-.001-5 2.236-5 4.996zm61.297-64.95h-6.17c-2.761 0-5 2.237-5 4.996s2.239 4.996 5 4.996h5.655c1.598-2.567 3.152-5.164 4.661-7.791-.899-1.328-2.42-2.201-4.146-2.201zm-35.319 0h-20.979c-2.761 0-5 2.237-5 4.996s2.239 4.996 5 4.996h20.979c2.761 0 5-2.237 5-4.996s-2.238-4.996-5-4.996zm0-29.977h-20.979c-2.761 0-5 2.237-5 4.996s2.239 4.996 5 4.996h20.979c2.761 0 5-2.237 5-4.996s-2.238-4.996-5-4.996zm0 59.954h-20.979c-2.761 0-5 2.237-5 4.996s2.239 4.996 5 4.996h20.979c2.761 0 5-2.237 5-4.996s-2.238-4.996-5-4.996z" fill="#5596fb"/><path d="m327.964 420.928c-6.196 25.536-20.999 48.667-41.683 65.133-21.314 16.969-47.016 25.939-74.326 25.939-62.615 0-114.123-48.424-118.989-109.761l-7.603 8.981c-.989 1.168-2.399 1.769-3.82 1.769-1.141 0-2.287-.387-3.227-1.182-2.108-1.782-2.371-4.935-.588-7.041l15.696-18.541c.856-1.011 2.079-1.641 3.399-1.752l.35-.029c1.329-.111 2.635.307 3.647 1.164l18.556 15.684c2.108 1.782 2.371 4.935.588 7.041-1.784 2.105-4.938 2.37-7.047.587l-10.06-8.503c3.962 56.684 51.38 101.59 109.097 101.59 50.662 0 94.37-34.309 106.29-83.433.65-2.682 3.352-4.329 6.037-3.679 2.686.651 4.333 3.352 3.683 6.033zm17.72-50.137c-2.11-1.784-5.264-1.519-7.047.587l-7.915 9.35c-6.041-60.154-57-107.275-118.767-107.275-26.397 0-51.415 8.437-72.348 24.397-20.26 15.448-35.294 37.356-42.335 61.688-.767 2.65.763 5.421 3.415 6.188 2.657.766 5.426-.763 6.192-3.412 13.436-46.437 56.644-78.868 105.075-78.868 56.642 0 103.364 43.249 108.831 98.434l-9.704-8.202c-2.11-1.785-5.264-1.518-7.047.587-1.783 2.107-1.521 5.26.588 7.041l18.556 15.684c.906.766 2.052 1.182 3.229 1.182.139 0 .768-.047.768-.047 1.32-.11 2.543-.741 3.399-1.752l15.696-18.541c1.785-2.106 1.522-5.259-.586-7.041z" fill="#203e76"/><path d="m284.873 432.042c-14.733 27.225-44.29 45.266-77.861 43.318-41.618-2.415-75.336-36.106-77.753-77.692-1.95-33.546 16.105-63.08 43.352-77.801 4.155-2.245 8.969 1.41 7.994 6.029-1.487 7.044-2.078 14.418-1.647 21.998 2.37 41.652 36.183 75.439 77.867 77.807 7.586.431 14.966-.159 22.015-1.645 4.622-.976 8.28 3.834 6.033 7.986z" fill="#ea552d"/><path d="m294.796 392.727c0 14.344-3.652 27.835-10.076 39.597-11.771 6.419-25.273 10.068-39.628 10.068-45.751 0-82.84-37.06-82.84-82.776 0-14.344 3.652-27.835 10.076-39.597 11.771-6.419 25.273-10.069 39.628-10.069 45.751.001 82.84 37.061 82.84 82.777z" fill="#f76937"/><path d="m163.93 85.778c0 3.506-.893 6.804-2.463 9.679-2.877 1.569-6.178 2.461-9.687 2.461-11.184 0-20.25-9.059-20.25-20.234 0-3.506.893-6.804 2.463-9.679 2.877-1.569 6.178-2.461 9.687-2.461 11.184 0 20.25 9.059 20.25 20.234zm121.64-15.238c0 2.759-2.239 4.996-5 4.996h-90c-2.761 0-5-2.237-5-4.996s2.239-4.996 5-4.996h90c2.761 0 5 2.237 5 4.996zm-95-14.988h70c2.761 0 5-2.237 5-4.996s-2.239-4.996-5-4.996h-70c-2.761 0-5 2.237-5 4.996s2.238 4.996 5 4.996zm45 34.973c0-2.759-2.239-4.996-5-4.996h-40c-2.761 0-5 2.237-5 4.996s2.239 4.996 5 4.996h40c2.761 0 5-2.237 5-4.996zm34.591 297.206h-19.381c-2.762 0-5 2.237-5 4.996 0 2.76 2.238 4.996 5 4.996h14.065c-1.434 11.217-7.902 22.376-22.649 22.376-15.104 0-27.394-12.28-27.394-27.372 0-15.094 12.289-27.373 27.394-27.373 5.49 0 10.785 1.616 15.313 4.672 2.289 1.543 5.396.941 6.942-1.344 1.546-2.286.943-5.392-1.345-6.937-6.188-4.176-13.419-6.384-20.911-6.384-20.619 0-37.394 16.762-37.394 37.366 0 20.603 16.774 37.365 37.394 37.365 19.409 0 32.965-15.365 32.965-37.365.001-2.759-2.237-4.996-4.999-4.996zm-97.128-6.366c-2.689 0-4.893.179-6.839.517l2.646-15.958h19.447c2.762 0 5-2.237 5-4.996 0-2.76-2.238-4.996-5-4.996h-23.688c-2.446 0-4.533 1.768-4.933 4.179l-4.692 28.301c-.309 1.86.464 3.73 1.985 4.844s3.549 1.274 5.229.419c.046-.023.252-.126.589-.277 2.739-1.232 4.933-2.04 10.254-2.04 3.953 0 7.631 1.58 10.357 4.45 2.724 2.867 4.111 6.627 3.905 10.587-.386 7.422-6.521 13.353-13.966 13.503-.099.002-.195.003-.293.003-7.109 0-13.165-5.229-14.148-12.277-.092-.655-.139-1.326-.139-1.995 0-2.76-2.238-4.996-5-4.996s-5 2.237-5 4.996c0 1.131.079 2.268.234 3.378 1.674 11.988 11.967 20.885 24.05 20.885.165 0 .331-.002.497-.005 12.662-.255 23.095-10.346 23.751-22.975.35-6.724-2.009-13.111-6.64-17.985-4.563-4.806-10.981-7.562-17.606-7.562z" fill="#fff"/></g></svg>