<svg id="Capa_1" enable-background="new 0 0 512 512" height="512" viewBox="0 0 512 512" width="512" xmlns="http://www.w3.org/2000/svg"><g><path d="m512 256c0 111.678-71.511 206.654-171.24 241.635-2.257.792-5.9-3.705-8.185-2.975-7.47 2.385-15.088 4.436-22.839 6.137-3.224.707-5.1 6.612-8.369 7.196-14.725 2.633-29.885 4.007-45.367 4.007-11.126 0-22.085-.71-32.837-2.086-2.653-.34-4.224-5.004-6.851-5.424-8.929-1.428-17.703-3.319-26.298-5.645-1.937-.524-4.933 3.214-6.851 2.645-21.979-6.511-42.725-15.894-61.802-27.713-2.256-1.397-.811-5.848-3.02-7.313-7.055-4.68-13.865-9.701-20.405-15.038-1.922-1.568-7.497-.145-9.372-1.768-54.245-46.942-88.564-116.292-88.564-193.658 0-141.385 114.615-256 256-256s256 114.615 256 256z" fill="#07a9f0"/><path d="m470.163 236.671c0 110.681-89.724 200.405-200.405 200.405s-200.405-89.724-200.405-200.405 89.724-200.405 200.405-200.405 200.405 89.724 200.405 200.405z" fill="#40c1fa"/><path d="m364.345 11.829-16.906 23.927c1.299 1.491 2.01 3.489 1.815 5.614l-9.978 108.722c-.378 4.125-4.029 7.162-8.154 6.783-4.125-.378-7.162-4.029-6.783-8.154l8.466-92.254-72.465 102.561c-2.39 3.383-7.07 4.188-10.453 1.798-3.383-2.39-4.188-7.07-1.797-10.453l72.465-102.561-84.128 38.795c-3.761 1.735-8.217.092-9.951-3.67s-.091-8.217 3.67-9.951l99.145-45.72c1.937-.893 4.059-.891 5.897-.164l16.906-23.927c2.39-3.383 7.07-4.188 10.453-1.798 3.384 2.389 4.188 7.069 1.798 10.452z" fill="#2476ed"/><path d="m362.778 41.729c-2.647 9.797-11.168 17.524-22.197 18.419-11.88.964-22.981-6.853-26.073-18.364-2.867-10.671 1.52-21.271 9.816-27.069.956-.668 2.279.03 2.243 1.196-.062 1.967.109 3.976.535 5.994 2.589 12.265 14.173 20.855 26.657 19.719 2.489-.226 4.848-.802 7.039-1.67 1.134-.45 2.298.597 1.98 1.775z" fill="#0a4499"/><path d="m363.272 30.984c.656 3.814.41 7.575-.583 11.065-2.957 2.102-6.42 3.59-10.234 4.245-13.607 2.34-26.535-6.794-28.875-20.402-.656-3.814-.41-7.575.583-11.065 2.957-2.102 6.42-3.59 10.234-4.245 13.608-2.339 26.536 6.795 28.875 20.402z" fill="#0956c6"/><path d="m428.608 219.575c-54.388 69.07-159.06 80.689-237.889 24.992-78.828-55.697-102.839-158.239-55.904-232.574z" fill="#c8d2dc"/><path d="m192.266 245.648c-.517-.358-1.032-.718-1.547-1.081-78.828-55.697-102.839-158.239-55.904-232.574l62.535 44.185c-33.657 62.7-34.409 134.444-5.084 189.47z" fill="#b9c3cd"/><path d="m428.789 225.393-299.717-211.767c-3.383-2.39-4.188-7.07-1.797-10.453 2.39-3.383 7.07-4.188 10.453-1.797l299.717 211.767c3.383 2.39 4.188 7.07 1.797 10.453-2.39 3.382-7.07 4.187-10.453 1.797z" fill="#dce6eb"/><path d="m247.163 347.391h-90v-10h90zm10 30h-110v10h110z" fill="#0956c6"/><path d="m287.918 456.801-74.755-155.954v176.544h-20v-176.544l-74.755 155.954-18.035-8.645 86.449-180.351 16.341 7.833 16.341-7.833 86.449 180.351z" fill="#2476ed"/><path d="m244.615 303.061c0 4.142-3.358 7.5-7.5 7.5h-67.905c-4.142 0-7.5-3.358-7.5-7.5s3.358-7.5 7.5-7.5h67.905c4.143 0 7.5 3.358 7.5 7.5z" fill="#0956c6"/><path d="m236.39 249.199c0 18.351-14.876 33.227-33.227 33.227s-33.227-14.876-33.227-33.227 14.876-33.227 33.227-33.227 33.227 14.877 33.227 33.227z" fill="#0956c6"/><path d="m221.623 249.2c0 10.195-8.265 18.46-18.46 18.46s-18.46-8.265-18.46-18.46 8.265-18.46 18.46-18.46 18.46 8.265 18.46 18.46z" fill="#0a4499"/><path d="m508.035 311.137-25.684 25.684c-.976.977-2.256 1.465-3.535 1.465s-2.56-.488-3.535-1.465c-1.953-1.952-1.953-5.118 0-7.07l17.148-17.148h-111.824c-2.762 0-5-2.238-5-5s2.238-5 5-5h111.823l-17.148-17.148c-1.953-1.952-1.953-5.118 0-7.07 1.951-1.953 5.119-1.953 7.07 0l25.684 25.684c1.954 1.95 1.954 5.116.001 7.068z" fill="#203e76"/><path d="m451.882 352.235c0 2.762-2.238 5-5 5h-111.824l17.148 17.148c1.953 1.952 1.953 5.118 0 7.07-.976.977-2.256 1.465-3.535 1.465s-2.56-.488-3.535-1.465l-25.684-25.684c-1.953-1.952-1.953-5.118 0-7.07l25.684-25.684c1.951-1.953 5.119-1.953 7.07 0 1.953 1.952 1.953 5.118 0 7.07l-17.148 17.148h111.823c2.763.002 5.001 2.241 5.001 5.002zm-55.222-164.026c0-2.436-1.183-4.72-3.172-6.125l-196.956-139.161c-4.968-3.51-11.828.042-11.828 6.125 0 2.436 1.183 4.72 3.172 6.125l196.956 139.16c4.968 3.511 11.828-.041 11.828-6.124z" fill="#fff"/><path d="m223.163 437.391v72.522c-13.702-1.754-27.064-4.592-40-8.424v-64.098c0-5.523 4.477-10 10-10h20c5.523 0 10 4.477 10 10zm-83.142-25.678-18.035-8.645c-4.98-2.387-10.953-.285-13.34 4.695l-20.082 41.894c10.253 8.873 21.218 16.944 32.797 24.118l23.355-48.723c2.387-4.979.285-10.951-4.695-13.339zm182.407 47.678-24.747-51.627c-2.387-4.98-8.36-7.083-13.34-4.695l-18.035 8.645c-4.98 2.387-7.083 8.36-4.695 13.34l26.046 54.338 13.71 28.601c13.529-2.419 26.69-5.902 39.393-10.358z" fill="#b9c3cd"/><path d="m223.163 437.391v26.524c0 11.045-8.954 20-20 20s-20-8.954-20-20v-26.524c0-5.523 4.477-10 10-10h20c5.523 0 10 4.477 10 10zm-83.142-25.678-18.035-8.645c-4.98-2.387-10.953-.285-13.34 4.695l-5.854 12.212c-4.775 9.96-.57 21.906 9.39 26.68 9.96 4.774 21.906.57 26.68-9.39l5.854-12.212c2.387-4.98.285-10.952-4.695-13.34zm174.95 32.121-17.29-36.07c-2.387-4.98-8.36-7.083-13.34-4.695l-18.035 8.645c-4.98 2.387-7.082 8.36-4.695 13.34l17.29 36.07c4.774 9.96 16.719 14.165 26.68 9.39 9.96-4.775 14.164-16.72 9.39-26.68z" fill="#dce6eb"/></g></svg>