<svg id="Capa_1" enable-background="new 0 0 512 512" height="512" viewBox="0 0 512 512" width="512" xmlns="http://www.w3.org/2000/svg"><g><path d="m512 256c0 141.385-114.615 256-256 256s-256-114.615-256-256 114.615-256 256-256 256 114.615 256 256z" fill="#ffb52d"/><path d="m481.635 234.694c0 110.914-89.914 200.828-200.828 200.828s-200.828-89.913-200.828-200.828 89.913-200.828 200.828-200.828 200.828 89.914 200.828 200.828z" fill="#ffc14f"/><path d="m275.635 75.341v161.319c0 2.761-2.239 5-5 5h-131.92c-2.761 0-5-2.239-5-5v-161.319c0-2.761 2.239-5 5-5h131.919c2.762 0 5.001 2.238 5.001 5z" fill="#0a4499"/><path d="m362.354 75.341v161.319c0 2.761-2.239 5-5 5h-90.609c-47.308 0-85.659-38.351-85.659-85.659 0-47.309 38.351-85.659 85.659-85.659h90.609c2.761-.001 5 2.237 5 4.999z" fill="#0956c6"/><path d="m190.067 122.429v67.142c0 3.612-2.928 6.54-6.54 6.54s-6.54-2.928-6.54-6.54v-67.142c0-3.612 2.928-6.54 6.54-6.54 3.612.001 6.54 2.928 6.54 6.54zm45.066-18.747c-3.612 0-6.54 2.928-6.54 6.54v91.557c0 3.612 2.928 6.54 6.54 6.54 3.612 0 6.54-2.928 6.54-6.54v-91.557c0-3.612-2.928-6.54-6.54-6.54zm-25.803 20.927c-3.612 0-6.54 2.928-6.54 6.54v49.702c0 3.612 2.928 6.54 6.54 6.54s6.54-2.928 6.54-6.54v-49.702c0-3.612-2.928-6.54-6.54-6.54zm-51.606 17.44c-3.612 0-6.54 2.928-6.54 6.54v14.823c0 3.612 2.928 6.54 6.54 6.54s6.54-2.928 6.54-6.54v-14.823c-.001-3.612-2.929-6.54-6.54-6.54zm180.621 0c-3.612 0-6.54 2.928-6.54 6.54v14.823c0 3.612 2.928 6.54 6.54 6.54s6.54-2.928 6.54-6.54v-14.823c0-3.612-2.928-6.54-6.54-6.54zm-25.803-12.049c-3.612 0-6.54 2.928-6.54 6.54v38.92c0 3.612 2.928 6.54 6.54 6.54s6.54-2.928 6.54-6.54v-38.92c0-3.612-2.928-6.54-6.54-6.54zm-25.803-14.11c-3.612 0-6.54 2.928-6.54 6.54v67.142c0 3.612 2.928 6.54 6.54 6.54s6.54-2.928 6.54-6.54v-67.142c0-3.613-2.928-6.54-6.54-6.54zm-25.803 17.439c-3.612 0-6.54 2.928-6.54 6.54v32.263c0 3.612 2.928 6.54 6.54 6.54s6.54-2.928 6.54-6.54v-32.263c0-3.612-2.928-6.54-6.54-6.54z" fill="#2476ed"/><path d="m440.061 25v90c0 2.761-2.239 5-5 5h-154.426c-2.761 0-5-2.239-5-5v-90c0-2.761 2.239-5 5-5h154.426c2.762 0 5 2.239 5 5z" fill="#40c1fa"/><path d="m285.807 120h-20.807c-2.761 0-5-2.239-5-5v-90c0-2.761 2.239-5 5-5h20.807c-2.761 0-5 2.239-5 5v90c0 2.761 2.238 5 5 5z" fill="#07a9f0"/><path d="m442.961 44.671-22.468 22.469c-.976.977-2.256 1.465-3.535 1.465s-2.56-.488-3.535-1.465c-1.953-1.952-1.953-5.118 0-7.07l13.932-13.934h-96.314c-2.762 0-5-2.238-5-5s2.238-5 5-5h96.314l-13.932-13.933c-1.953-1.952-1.953-5.118 0-7.07 1.951-1.953 5.119-1.953 7.07 0l22.468 22.468c1.953 1.952 1.953 5.118 0 7.07z" fill="#203e76"/><path d="m434.72 317.724-47.791 82.776c-2.679 4.641-7.631 7.5-12.99 7.5h-95.582c-5.359 0-10.311-2.859-12.99-7.5l-47.791-82.776c-2.68-4.641-2.68-10.359 0-15l47.791-82.776c2.68-4.641 7.631-7.5 12.99-7.5h95.582c5.359 0 10.311 2.859 12.99 7.5l47.791 82.776c2.679 4.641 2.679 10.359 0 15z" fill="#ea552d"/><path d="m434.72 302.724c2.679 4.641 2.679 10.359 0 15l-38.732 67.086c-63.35-8.716-112.143-63.065-112.143-128.81 0-15.276 2.635-29.936 7.474-43.552h82.621c5.359 0 10.311 2.859 12.99 7.5z" fill="#f76937"/><path d="m119.413 251.185 75 129.904c6.893 11.938 22.212 16.043 34.151 9.151l33.775-19.5c2.392-1.381 5.449-.562 6.83 1.83l47.101 81.581c.721 1.249.867 2.748.403 4.113-.393 1.153-1.191 2.115-2.233 2.717-.191.11-.391.209-.598.294-35.472 14.588-74.282 18.918-112.235 12.523-16.156-2.721-30.145-12.462-38.379-26.724l-116.552-201.873c-8.234-14.262-9.676-31.247-3.954-46.599 13.438-36.066 36.593-67.511 66.963-90.937 1.146-.883 2.608-1.226 4.023-.947 1.415.28 2.64 1.156 3.361 2.405l47.101 81.581c1.381 2.392.562 5.449-1.83 6.83l-33.775 19.5c-11.94 6.893-16.045 22.213-9.152 34.151z" fill="#c8d2dc"/><path d="m316.672 458.264c-.393 1.153-1.191 2.115-2.233 2.717-.191.11-.391.209-.598.294-14.369 5.909-29.285 10.135-44.47 12.646l-46.865-81.173c2.075-.553 4.111-1.384 6.058-2.508l33.775-19.5c2.392-1.381 5.449-.562 6.83 1.83l47.101 81.581c.72 1.249.866 2.748.402 4.113zm-199.604-349.14c-.721-1.249-1.946-2.125-3.361-2.405-1.414-.28-2.877.064-4.022.947-12.302 9.489-23.419 20.293-33.187 32.188l46.865 81.173c1.516-1.52 3.254-2.868 5.201-3.992l33.775-19.5c2.392-1.381 3.211-4.438 1.83-6.83zm42.185 301.153c23.094 0 37.528-25 25.981-45l-54.381-94.277c-5.359-9.282-15.263-15-25.981-15-23.094 0-37.528 25-25.981 45l54.381 94.277c5.36 9.282 15.263 15 25.981 15z" fill="#dce6eb"/><path d="m277.1 83.718c-.938-.938-1.465-2.209-1.465-3.535s.526-2.598 1.465-3.535l22.469-22.468c1.951-1.953 5.119-1.953 7.07 0 1.953 1.952 1.953 5.118 0 7.07l-13.933 13.933h96.314c2.762 0 5 2.238 5 5s-2.238 5-5 5h-96.315l13.933 13.934c1.953 1.952 1.953 5.118 0 7.07-.976.977-2.256 1.465-3.535 1.465s-2.56-.488-3.535-1.465zm7.183 266.259c.176 0 .354-.001.529-.005 13.531-.272 24.68-11.065 25.381-24.571.373-7.191-2.146-14.022-7.096-19.235-4.88-5.14-11.738-8.087-18.818-8.087-3.174 0-5.717.232-7.956.668l3.035-18.32h21.495c2.762 0 5-2.238 5-5s-2.238-5-5-5h-25.734c-2.446 0-4.533 1.77-4.933 4.183l-5.099 30.771c-.309 1.862.465 3.736 1.988 4.851s3.551 1.272 5.233.412c.048-.024.277-.14.65-.308 2.938-1.321 5.471-2.257 11.319-2.257 4.414 0 8.521 1.766 11.566 4.973 3.042 3.204 4.591 7.406 4.361 11.831-.431 8.295-7.281 14.924-15.596 15.092-.109.002-.218.003-.326.003-7.939 0-14.701-5.845-15.801-13.721-.102-.729-.153-1.479-.153-2.229 0-2.762-2.238-5-5-5s-5 2.238-5 5c0 1.213.084 2.429.25 3.612 1.792 12.821 12.79 22.338 25.705 22.337zm-177.193 39.406c-5.475-2.343-9.708-6.673-11.918-12.191-2.211-5.519-2.138-11.573.206-17.048 1.086-2.539-.091-5.478-2.629-6.564-2.539-1.085-5.477.091-6.564 2.629-3.395 7.932-3.499 16.704-.295 24.702s9.336 14.272 17.267 17.666c.642.274 1.309.404 1.965.404 1.941 0 3.787-1.137 4.599-3.034 1.085-2.539-.092-5.478-2.631-6.564zm-13.621 22.014c-22.31-9.549-32.692-35.467-23.143-57.776 1.086-2.539-.091-5.478-2.629-6.564-2.54-1.087-5.477.091-6.564 2.629-11.718 27.379 1.023 59.187 28.402 70.905.642.274 1.309.404 1.965.404 1.941 0 3.787-1.137 4.599-3.033 1.086-2.539-.091-5.478-2.63-6.565zm31.802-307.065c-2.761-4.783-8.877-6.422-13.66-3.66-4.783 2.761-6.422 8.877-3.66 13.66l47.5 82.272c2.761 4.783 8.877 6.422 13.66 3.66 4.783-2.761 6.422-8.877 3.66-13.66zm151.75 262.839c-2.761-4.783-8.877-6.422-13.66-3.66s-6.422 8.877-3.66 13.66l47.5 82.272c2.761 4.783 8.877 6.422 13.66 3.66 4.783-2.761 6.422-8.877 3.66-13.66zm157.445-164.071c-2.535-1.085-5.478.09-6.564 2.629s.091 5.478 2.629 6.564c10.817 4.63 19.181 13.186 23.549 24.091s4.225 22.868-.405 33.685c-1.087 2.539.091 5.478 2.629 6.564.642.274 1.309.404 1.966.404 1.94 0 3.787-1.137 4.599-3.033 11.716-27.379-1.024-59.186-28.403-70.904zm-13.621 22.013c-2.535-1.084-5.478.09-6.564 2.629s.091 5.478 2.629 6.564c5.476 2.344 9.708 6.673 11.919 12.192 2.21 5.519 2.138 11.572-.206 17.047-1.087 2.539.091 5.478 2.629 6.564.642.274 1.309.404 1.966.404 1.94 0 3.787-1.137 4.599-3.033 3.395-7.931 3.499-16.703.295-24.701s-9.338-14.271-17.267-17.666zm-31.042 79.887h-21.057c-2.762 0-5 2.238-5 5s2.238 5 5 5h15.77c-1.451 12.543-8.571 25.194-25.095 25.194-16.648 0-30.193-13.545-30.193-30.194s13.545-30.194 30.193-30.194c6.052 0 11.888 1.782 16.879 5.154 2.289 1.544 5.396.944 6.942-1.345 1.546-2.288.943-5.396-1.345-6.942-6.65-4.492-14.423-6.867-22.477-6.867-22.163 0-40.193 18.031-40.193 40.194s18.03 40.194 40.193 40.194c20.832 0 35.382-16.528 35.382-40.194.001-2.762-2.238-5-4.999-5z" fill="#fff"/></g></svg>