<svg id="Capa_1" enable-background="new 0 0 512 512" height="512" viewBox="0 0 512 512" width="512" xmlns="http://www.w3.org/2000/svg"><g><path d="m512 256c0 29.863-5.113 58.532-14.512 85.179-.336.952-3.453 1.855-3.8 2.802-1.174 3.207-2.411 6.384-3.709 9.53-.361.876 2.049 1.797 1.678 2.668-25.892 60.83-74.648 109.586-135.478 135.478-1.489.634-2.985-1.348-4.488-.742-2.482 1.001-4.983 2.054-7.503 2.979-1 .367-2.003 3.239-3.009 3.594-26.647 9.399-55.316 14.512-85.179 14.512s-58.532-5.113-85.179-14.512c-1.341-.473-1.256-4.546-2.587-5.041-2.62-.974-5.22-1.99-7.799-3.046-1.068-.438-3.553 2.707-4.614 2.256-60.83-25.892-109.586-74.648-135.478-135.478-.536-1.258 3.3-2.123 2.784-3.392-1.289-3.169-2.516-6.37-3.68-9.601-.193-.535-4.745-1.47-4.935-2.007-9.399-26.647-14.512-55.316-14.512-85.179s5.113-58.532 14.512-85.179c.479-1.358 5.276-1.652 5.777-3 1.002-2.693 2.047-5.364 3.136-8.013.402-.979-3.496-3.015-3.082-3.987 25.892-60.829 74.649-109.586 135.478-135.477.929-.396 1.571 2.353 2.507 1.968 3.102-1.277 6.234-2.494 9.396-3.652.933-.342 2.159-3.816 3.098-4.147 26.646-9.4 55.315-14.513 85.178-14.513s58.532 5.113 85.179 14.512c1.111.392 1.962 4.457 3.065 4.863 2.627.968 5.234 1.978 7.82 3.028 1.291.525 2.834-2.606 4.115-2.061 60.83 25.892 109.586 74.648 135.478 135.478.447 1.05-1.924 2.139-1.49 3.196 1.196 2.918 2.34 5.863 3.43 8.834.366.999 3.538 1.966 3.892 2.97 9.398 26.648 14.511 55.317 14.511 85.18z" fill="#07a9f0"/><path d="m466.745 256c0 116.391-94.354 210.745-210.745 210.745s-210.745-94.354-210.745-210.745 94.354-210.745 210.745-210.745 210.745 94.354 210.745 210.745z" fill="#40c1fa"/><path d="m356.179 170.821h141.309c-1.79-5.075-3.736-10.077-5.831-15h-135.478v-135.477c-4.923-2.095-9.925-4.041-15-5.831v141.309h-170.358v-141.31c-5.075 1.79-10.077 3.736-15 5.831v135.478h-135.477c-2.095 4.923-4.041 9.925-5.831 15h141.309v170.357h-141.31c1.79 5.075 3.736 10.077 5.831 15h135.478v135.478c4.923 2.095 9.925 4.041 15 5.831v-141.308h170.357v141.309c5.075-1.79 10.077-3.736 15-5.831v-135.478h135.478c2.095-4.923 4.041-9.925 5.831-15h-141.308zm-15 170.358h-170.358v-170.358h170.357v170.358z" fill="#72d1fb"/><path d="m326 400c0 38.66-31.34 70-70 70s-70-31.34-70-70 31.34-70 70-70 70 31.34 70 70zm-261-150c-19.33 0-35 15.67-35 35s15.67 35 35 35 35-15.67 35-35-15.67-35-35-35zm400 30c-8.284 0-15 6.716-15 15s6.716 15 15 15 15-6.716 15-15-6.716-15-15-15z" fill="#ffb52d"/><path d="m302 400c0 25.405-20.595 46-46 46s-46-20.595-46-46 20.595-46 46-46 46 20.595 46 46z" fill="#ffcd71"/><path d="m80 285c0 8.284-6.716 15-15 15s-15-6.716-15-15 6.716-15 15-15 15 6.716 15 15zm-5-175c-8.284 0-15 6.716-15 15s6.716 15 15 15 15-6.716 15-15-6.716-15-15-15zm350 130c-8.284 0-15 6.716-15 15s6.716 15 15 15 15-6.716 15-15-6.716-15-15-15zm-40 130c-8.284 0-15 6.716-15 15s6.716 15 15 15 15-6.716 15-15-6.716-15-15-15z" fill="#ffc14f"/><path d="m416 160c0 50.129-23.054 94.874-59.137 124.21-35.599 28.943-63.632 66.1-81.562 108.331l-10.096 23.78c-3.449 8.122-14.961 8.122-18.409 0l-9.917-23.358c-17.87-42.089-45.415-79.546-81.052-108.196-36.479-29.325-59.826-74.318-59.827-124.763-.002-88.283 72.752-160.559 161.033-160 87.89.555 158.967 71.975 158.967 159.996z" fill="#0a4499"/><path d="m416 160c0 50.129-23.054 94.874-59.137 124.21-35.599 28.943-63.632 66.1-81.562 108.331l-10.096 23.78c-1.33 3.133-3.86 5.057-6.663 5.773-12.548-71.908-19.475-144.85-19.475-211.86 0-90.268 12.57-158.451 34.518-209.278 80.091 8.755 142.415 76.621 142.415 159.044z" fill="#0956c6"/><path d="m382.5 160c0 69.864-56.636 126.5-126.5 126.5s-126.5-56.636-126.5-126.5 56.636-126.5 126.5-126.5 126.5 56.636 126.5 126.5z" fill="#c8d2dc"/><path d="m382.5 160c0 24.937-7.216 48.188-19.673 67.781-19.592 12.457-42.844 19.673-67.781 19.673-69.864 0-126.5-56.636-126.5-126.5 0-24.937 7.216-48.188 19.673-67.781 19.593-12.457 42.844-19.673 67.781-19.673 69.864 0 126.5 56.636 126.5 126.5z" fill="#dce6eb"/><path d="m256 28.5c-72.51 0-131.5 58.991-131.5 131.5s58.99 131.5 131.5 131.5 131.5-58.991 131.5-131.5-58.99-131.5-131.5-131.5zm0 253c-66.995 0-121.5-54.505-121.5-121.5s54.505-121.5 121.5-121.5 121.5 54.505 121.5 121.5-54.505 121.5-121.5 121.5z" fill="#2476ed"/><path d="m348.032 159c0 32.194-19.831 54.679-48.227 54.679-30.15 0-54.679-24.529-54.679-54.679s24.528-54.679 54.679-54.679c10.956 0 21.529 3.231 30.576 9.343 3.433 2.319 4.335 6.981 2.017 10.413s-6.98 4.334-10.413 2.016c-6.559-4.431-14.228-6.772-22.18-6.772-21.879 0-39.679 17.8-39.679 39.679s17.8 39.679 39.679 39.679c21.223 0 30.597-16.007 32.736-32.179h-20.236c-4.143 0-7.5-3.358-7.5-7.5s3.357-7.5 7.5-7.5h28.227c4.143 0 7.5 3.358 7.5 7.5zm-148.481-16.779c-3.792 0-6.923.244-9.693.705l3.772-22.775h28.14c4.143 0 7.5-3.358 7.5-7.5s-3.357-7.5-7.5-7.5h-34.499c-3.669 0-6.8 2.655-7.399 6.274l-6.834 41.25c-.462 2.792.696 5.601 2.979 7.272s5.323 1.91 7.845.626c.068-.035.365-.182.844-.398 3.966-1.785 7.143-2.955 14.846-2.955 5.696 0 10.997 2.279 14.927 6.417 3.926 4.135 5.924 9.558 5.627 15.271-.555 10.703-9.396 19.257-20.126 19.473-10.404.23-19.375-7.399-20.813-17.699-.132-.943-.198-1.912-.198-2.88 0-4.142-3.357-7.5-7.5-7.5s-7.5 3.358-7.5 7.5c0 1.659.115 3.326.343 4.954 2.453 17.581 17.535 30.631 35.243 30.63.241 0 .485-.002.728-.007 18.556-.374 33.843-15.174 34.804-33.693.512-9.861-2.943-19.229-9.729-26.377-6.694-7.046-16.099-11.088-25.807-11.088z" fill="#0956c6"/></g></svg>