<svg id="Capa_1" enable-background="new 0 0 512 512" height="512" viewBox="0 0 512 512" width="512" xmlns="http://www.w3.org/2000/svg"><g><path d="m38.706 391.413c-24.344-38.98-38.49-84.985-38.704-134.278-.617-142.234 113.627-257.061 255.861-257.135 92.448-.048 173.466 48.908 218.503 122.319 9.795 15.966 13.098 35.082 9.34 53.432l-2.125 10.378c-4.556 22.242-18.355 41.663-37.86 53.283-19.505 11.622-43.154 14.508-64.884 7.926-23.312-7.065-48.804-2.476-68.189 12.273l-113.196 86.111c-14.287 10.868-32.04 16.732-49.99 16.511l-47.522-.584c-24.399-.297-46.916 11.281-61.234 29.764z" fill="#2476ed"/><path d="m512 256c0 141.385-114.615 256-256 256-96.419 0-180.388-53.304-224.046-132.051.399-.216.727-.567.907-1.021l21.301-53.754c11.006-27.775 40.386-44.367 69.857-39.46l39.307 6.55c14.847 2.475 30.308-.119 43.535-7.302l104.798-56.912c17.947-9.748 39.658-10.297 58.075-1.467 17.167 8.229 37.134 8.855 54.781 1.714 17.647-7.14 31.562-21.473 38.176-39.323l19.575-52.83c18.981 35.758 29.734 76.551 29.734 119.856z" fill="#07a9f0"/><path d="m488.031 136.415-20.182 54.469c-7.15 19.298-22.193 34.793-41.271 42.512s-40.663 7.044-59.222-1.854c-16.83-8.066-36.67-7.565-53.073 1.341l-104.798 56.912c-14.298 7.766-31.01 10.568-47.063 7.895l-39.307-6.55c-26.932-4.489-53.782 10.678-63.84 36.061l-21.301 53.753c-1.167 2.944-3.989 4.739-6.975 4.739-.919 0-1.854-.17-2.761-.529-3.851-1.526-5.735-5.885-4.209-9.735l21.301-53.753c6.158-15.539 17.563-28.624 32.117-36.845 14.552-8.22 31.646-11.231 48.134-8.487l39.307 6.55c12.766 2.131 26.064-.102 37.439-6.279l104.798-56.912c20.618-11.198 45.558-11.828 66.716-1.685 14.763 7.076 31.935 7.614 47.111 1.474s27.143-18.466 32.831-33.817l20.182-54.469c1.439-3.885 5.754-5.866 9.639-4.428 3.884 1.438 5.867 5.753 4.427 9.637z" fill="#72d1fb"/><path d="m92.122 235c0 2.761-2.239 5-5 5h-34.298c-2.761 0-5-2.239-5-5s2.239-5 5-5h34.298c2.762 0 5 2.239 5 5zm-19.298 15h-20c-2.761 0-5 2.239-5 5 0 2.761 2.239 5 5 5h20c2.761 0 5-2.239 5-5 0-2.761-2.238-5-5-5zm359.921-85.596h-34.298c-2.761 0-5 2.238-5 5 0 2.761 2.239 5 5 5h34.298c2.761 0 5-2.239 5-5s-2.238-5-5-5zm-14.298 20h-20c-2.761 0-5 2.239-5 5s2.239 5 5 5h20c2.761 0 5-2.239 5-5s-2.238-5-5-5z" fill="#97bffd"/><path d="m47.658 389.618c-3.601 6.66-10.826 11.074-19.033 10.597-10.173-.591-18.416-8.833-19.006-19.006-.477-8.207 3.937-15.432 10.597-19.033 1.016-.549 2.192.345 1.954 1.475-.364 1.723-.508 3.527-.403 5.382.579 10.19 8.845 18.455 19.034 19.034 1.854.105 3.658-.039 5.382-.403 1.13-.239 2.024.938 1.475 1.954zm448.292-252.204c-1.723.364-3.527.508-5.382.403-10.19-.579-18.455-8.845-19.034-19.034-.105-1.854.039-3.658.403-5.382.238-1.13-.938-2.024-1.954-1.475-6.66 3.601-11.074 10.826-10.597 19.033.591 10.173 8.833 18.416 19.006 19.006 8.206.477 15.432-3.937 19.033-10.597.549-1.016-.346-2.193-1.475-1.954zm-71.243 98.263c-1.276.27-2.613.376-3.986.298-7.548-.429-13.67-6.552-14.099-14.1-.078-1.374.029-2.71.298-3.986.177-.837-.695-1.499-1.447-1.092-4.934 2.667-8.203 8.02-7.85 14.098.438 7.536 6.543 13.641 14.079 14.079 6.079.353 11.431-2.916 14.098-7.85.406-.752-.256-1.624-1.093-1.447zm-328.51 60c-1.276.27-2.613.376-3.986.298-7.548-.429-13.67-6.552-14.099-14.1-.078-1.374.029-2.71.298-3.986.177-.837-.695-1.499-1.447-1.092-4.934 2.667-8.203 8.02-7.85 14.098.438 7.536 6.543 13.641 14.079 14.079 6.079.353 11.431-2.916 14.098-7.85.407-.752-.256-1.624-1.093-1.447z" fill="#b4e7fd"/><path d="m50.084 380c0 3.509-.893 6.81-2.463 9.687-2.877 1.57-6.178 2.463-9.687 2.463-11.184 0-20.25-9.066-20.25-20.25 0-3.509.893-6.809 2.463-9.687 2.877-1.571 6.178-2.463 9.687-2.463 11.184 0 20.25 9.066 20.25 20.25zm429.516-270.5c-3.509 0-6.809.893-9.687 2.463-1.57 2.877-2.463 6.178-2.463 9.687 0 11.184 9.066 20.25 20.25 20.25 3.509 0 6.809-.893 9.687-2.463 1.57-2.877 2.463-6.178 2.463-9.687 0-11.184-9.066-20.25-20.25-20.25zm-67.004 105.5c-2.599 0-5.044.661-7.175 1.825-1.163 2.131-1.825 4.576-1.825 7.175 0 8.284 6.716 15 15 15 2.599 0 5.044-.661 7.175-1.824 1.163-2.132 1.825-4.576 1.825-7.176 0-8.284-6.715-15-15-15zm-328.509 60c-2.599 0-5.044.661-7.175 1.824-1.163 2.132-1.825 4.576-1.825 7.176 0 8.284 6.716 15 15 15 2.599 0 5.044-.661 7.175-1.824 1.163-2.132 1.825-4.576 1.825-7.176 0-8.284-6.716-15-15-15z" fill="#d5f1fe"/><path d="m260 76.5v360c0 16.569-13.431 30-30 30h-53.5c-16.569 0-30-13.431-30-30v-360c0-16.569 13.431-30 30-30h53.5c16.569 0 30 13.431 30 30z" fill="#ffe1aa"/><path d="m365.5 77v360c0 16.569-13.431 30-30 30h-115.5c-16.569 0-30-13.431-30-30v-360c0-16.569 13.431-30 30-30h115.5c16.569 0 30 13.431 30 30z" fill="#ffe7c0"/><path d="m373 80v-4c0-20.678-16.822-37.5-37.5-37.5h-159c-20.678 0-37.5 16.822-37.5 37.5v4.2c-4.564.927-8 4.962-8 9.8v26.154c0 4.838 3.436 8.873 8 9.8v310.046c0 20.678 16.822 37.5 37.5 37.5h159c20.678 0 37.5-16.822 37.5-37.5v-309.846c5.523 0 10-4.477 10-10v-26.154c0-5.523-4.477-10-10-10zm-15 356c0 12.407-10.094 22.5-22.5 22.5h-159c-12.406 0-22.5-10.093-22.5-22.5v-360c0-12.407 10.094-22.5 22.5-22.5h49.5v6.5c0 5.523 4.477 10 10 10h40c5.523 0 10-4.477 10-10v-6.5h49.5c12.406 0 22.5 10.093 22.5 22.5z" fill="#203e76"/><path d="m276 55c0 2.761-2.239 5-5 5h-30c-2.761 0-5-2.239-5-5s2.239-5 5-5h30c2.761 0 5 2.239 5 5z" fill="#0956c6"/><path d="m340 75v20c0 2.761-2.239 5-5 5s-5-2.239-5-5v-20c0-2.761 2.239-5 5-5s5 2.239 5 5zm-25 5c-2.761 0-5 2.239-5 5v10c0 2.761 2.239 5 5 5s5-2.239 5-5v-10c0-2.761-2.239-5-5-5zm-20 10c-2.761 0-5 2.239-5 5s2.239 5 5 5 5-2.239 5-5-2.239-5-5-5zm-100-20h-20c-2.761 0-5 2.239-5 5s2.239 5 5 5h20c2.761 0 5-2.239 5-5s-2.239-5-5-5zm0 20h-20c-2.761 0-5 2.239-5 5s2.239 5 5 5h20c2.761 0 5-2.239 5-5s-2.239-5-5-5zm77 320h-32c-5.523 0-10 4.477-10 10s4.477 10 10 10h32c5.523 0 10-4.477 10-10s-4.477-10-10-10z" fill="#ffc14f"/><path d="m325.975 218.146c1.024 38.646-29.475 70.806-68.121 71.83s-70.806-29.475-71.83-68.121 29.475-70.806 68.121-71.83c38.647-1.024 70.806 29.474 71.83 68.121z" fill="#ffd993"/><path d="m306 355c0 2.761-2.239 5-5 5h-90c-2.761 0-5-2.239-5-5s2.239-5 5-5h90c2.761 0 5 2.239 5 5zm-85-15h70c2.761 0 5-2.239 5-5s-2.239-5-5-5h-70c-2.761 0-5 2.239-5 5s2.239 5 5 5zm55 30h-40c-2.761 0-5 2.239-5 5s2.239 5 5 5h40c2.761 0 5-2.239 5-5s-2.239-5-5-5z" fill="#ffcd71"/><path d="m193.427 251.416c-4.693-9.331-7.365-19.872-7.427-31.064-.207-37.262 29.421-68.504 66.642-70.272 11.18-.531 21.848 1.579 31.415 5.771 12.047 5.279 15.296 20.843 6.245 30.387-5.528 5.829-14.097 7.443-21.462 4.234-4.973-2.167-10.591-3.111-16.462-2.463-15.449 1.706-27.629 14.548-28.516 30.066-.337 5.899.904 11.459 3.331 16.312 3.594 7.184 2.436 15.827-3.092 21.656-9.05 9.543-24.764 7.123-30.674-4.627z" fill="#ffad8c"/><path d="m331 220c0 20.033-7.801 38.867-21.967 53.032-.977.977-2.256 1.465-3.536 1.465s-2.559-.488-3.536-1.465c-1.953-1.952-1.953-5.118 0-7.07 12.278-12.277 19.039-28.6 19.039-45.962s-6.761-33.685-19.038-45.962c-25.344-25.342-66.58-25.344-91.924 0-12.277 12.277-19.038 28.6-19.038 45.962s6.761 33.685 19.038 45.962c1.953 1.952 1.953 5.118 0 7.07-1.953 1.953-5.118 1.953-7.071 0-14.166-14.165-21.967-32.999-21.967-53.032s7.801-38.867 21.967-53.032c29.242-29.244 76.823-29.243 106.066 0 14.166 14.165 21.967 32.999 21.967 53.032z" fill="#ff956a"/><path d="m300.765 211.827-40.143 73.533c-2.217 4.061-6.962 5.744-10.597 3.76-3.636-1.985-4.786-6.886-2.569-10.947l40.143-73.533c2.217-4.061 6.962-5.744 10.597-3.76 3.636 1.985 4.786 6.886 2.569 10.947z" fill="#ea552d"/><path d="m256 260c-11.046 0-20 8.954-20 20s8.954 20 20 20 20-8.954 20-20-8.954-20-20-20z" fill="#f76937"/></g></svg>