<svg id="Capa_1" enable-background="new 0 0 512 512" height="512" viewBox="0 0 512 512" width="512" xmlns="http://www.w3.org/2000/svg"><g><path d="m0 256c0-141.385 114.615-256 256-256s256 114.615 256 256c0 76.183-33.278 144.594-86.091 191.489-45.2-40.135-104.708-64.51-169.909-64.51s-124.71 24.375-169.909 64.51c-52.813-46.895-86.091-115.306-86.091-191.489z" fill="#ffb52d"/><path d="m465.363 238.472c0 115.628-93.735 209.363-209.363 209.363s-209.363-93.734-209.363-209.363 93.735-209.363 209.363-209.363 209.363 93.735 209.363 209.363z" fill="#ffc14f"/><path d="m157.395 12.55v96.096c0 2.97-2.408 5.378-5.379 5.378s-5.378-2.408-5.378-5.378v-96.096c0-2.97 2.408-5.378 5.378-5.378s5.379 2.407 5.379 5.378z" fill="#7e8b96"/><path d="m157.395 5.378v10.757c0 2.97-2.408 5.378-5.379 5.378s-5.378-2.408-5.378-5.378v-10.757c0-2.97 2.408-5.378 5.378-5.378s5.379 2.408 5.379 5.378zm202.589-5.378c-2.97 0-5.379 2.408-5.379 5.378v10.757c0 2.97 2.408 5.378 5.379 5.378s5.378-2.408 5.378-5.378v-10.757c.001-2.97-2.407-5.378-5.378-5.378z" fill="#a2abb8"/><path d="m210 390.928c-16.569 0-30-13.431-30-30s13.431-30 30-30h92c16.569 0 30 13.431 30 30s-13.431 30-30 30zm202-158.243h-312c-16.569 0-30 13.432-30 30 0 16.569 13.431 30 30 30h312c16.569 0 30-13.431 30-30 0-16.569-13.431-30-30-30zm0 164.115h-312c-16.569 0-30 13.431-30 30 0 16.569 13.431 30 30 30h312c16.569 0 30-13.431 30-30 0-16.568-13.431-30-30-30z" fill="#203e76"/><path d="m415 400v56.649c-43.672 34.654-98.919 55.351-159 55.351s-115.328-20.697-159-55.351v-56.649c0-16.568 13.431-30 30-30h258c16.569 0 30 13.432 30 30zm-40.673-230.54v-76.95c0-3.961-3.211-7.171-7.171-7.171h-14.343c-3.961 0-7.171 3.211-7.171 7.171v66.239c-5.938-1.166-12.075-1.778-18.355-1.778h-142.573c-6.28 0-12.417.612-18.355 1.778v-66.239c0-3.961-3.211-7.171-7.171-7.171h-14.343c-3.961 0-7.171 3.211-7.171 7.171v76.95c-28.485 16.332-47.674 47.038-47.674 82.226v12.143c0 52.309 42.405 94.714 94.714 94.714h142.572c52.309 0 94.714-42.405 94.714-94.714v-12.143c0-35.188-19.189-65.894-47.673-82.226z" fill="#c8d2dc"/><path d="m152.016 135.538c-7.921 0-14.343-6.421-14.343-14.343v-28.685c0-3.961 3.211-7.171 7.171-7.171h14.343c3.961 0 7.171 3.211 7.171 7.171v28.685c.001 7.921-6.421 14.343-14.342 14.343zm175.27 21.433h-74.572c-52.309 0-94.714 42.405-94.714 94.714v12.143c0 52.309 42.405 94.714 94.714 94.714h74.572c52.309 0 94.714-42.405 94.714-94.714v-12.143c0-52.309-42.405-94.714-94.714-94.714zm57.714 213.029h-157.047c-38.634 0-69.953 31.319-69.953 69.953 0 34.407 24.991 63.897 59.003 69.095 12.715 1.944 25.738 2.952 38.997 2.952 60.081 0 115.328-20.697 159-55.351v-56.649c0-16.569-13.431-30-30-30z" fill="#dce6eb"/><path d="m191.981 311.248h-16.981c-24.853 0-45-20.147-45-45v-16.981c0-24.853 20.147-45 45-45h16.981c24.853 0 45 20.147 45 45v16.981c0 24.852-20.147 45-45 45z" fill="#0a66ea"/><path d="m382 249.266v16.981c0 24.853-20.147 45-45 45h-162c-1.49 0-2.964-.073-4.417-.215-8.004-13.896-12.583-30.015-12.583-47.203v-12.143c0-17.188 4.579-33.308 12.583-47.204 1.453-.142 2.927-.215 4.417-.215h162c24.853-.001 45 20.147 45 44.999z" fill="#2476ed"/><path d="m336.018 253.173c-.976.976-2.256 1.464-3.535 1.464s-2.56-.488-3.535-1.464c-4.112-4.112-9.574-6.376-15.38-6.376s-11.267 2.264-15.379 6.376c-1.951 1.952-5.119 1.952-7.07 0-1.953-1.953-1.953-5.119 0-7.071 6-6 13.973-9.305 22.449-9.305s16.449 3.305 22.45 9.305c1.953 1.953 1.953 5.119 0 7.071zm-137.585-16.376c-8.477 0-16.449 3.305-22.45 9.305-1.953 1.953-1.953 5.119 0 7.071 1.951 1.952 5.119 1.952 7.07 0 4.112-4.112 9.574-6.376 15.38-6.376s11.267 2.264 15.379 6.376c.976.976 2.256 1.464 3.535 1.464s2.56-.488 3.535-1.464c1.953-1.953 1.953-5.119 0-7.071-6-6-13.973-9.305-22.449-9.305z" fill="#b4e7fd"/><path d="m208 268.717c0 5.523-4.477 10-10 10s-10-4.477-10-10 4.477-10 10-10 10 4.477 10 10zm106-10c-5.523 0-10 4.477-10 10s4.477 10 10 10 10-4.477 10-10-4.477-10-10-10z" fill="#40c1fa"/><path d="m317.809 438c0 2.978-2.414 5.392-5.392 5.392h-112.834c-2.978 0-5.392-2.414-5.392-5.392s2.414-5.392 5.392-5.392h112.834c2.978 0 5.392 2.414 5.392 5.392zm-118.226-16.175h112.834c2.978 0 5.392-2.414 5.392-5.392s-2.414-5.392-5.392-5.392h-112.834c-2.978 0-5.392 2.414-5.392 5.392s2.414 5.392 5.392 5.392zm112.834 32.35h-112.834c-2.978 0-5.392 2.414-5.392 5.392s2.414 5.392 5.392 5.392h112.834c2.978 0 5.392-2.414 5.392-5.392s-2.414-5.392-5.392-5.392z" fill="#a2abb8"/><path d="m459.641 25.757v100c0 8.284-6.716 15-15 15h-118.586l-25.721 38.497c-2.561 3.833-8.503 2.453-9.113-2.116l-4.862-36.381h-39.717c-8.284 0-15-6.716-15-15v-100c0-8.284 6.716-15 15-15h198c8.284 0 14.999 6.716 14.999 15z" fill="#f76937"/><path d="m274.641 140.757h-28c-8.284 0-15-6.716-15-15v-100c0-8.284 6.716-15 15-15h28c-8.284 0-15 6.716-15 15v100c0 8.284 6.716 15 15 15z" fill="#ea552d"/><path d="m456.265 287.042c-1.279 0-2.56-.488-3.535-1.464-1.953-1.953-1.953-5.119 0-7.071 8.684-8.684 8.684-22.814 0-31.498-1.953-1.953-1.953-5.119 0-7.071 1.951-1.952 5.119-1.952 7.07 0 12.583 12.583 12.583 33.058 0 45.641-.976.974-2.256 1.463-3.535 1.463zm24.365 13.906c21.058-21.059 21.058-55.323 0-76.381-1.951-1.952-5.119-1.952-7.07 0-1.953 1.953-1.953 5.119 0 7.071 17.158 17.159 17.158 45.08 0 62.239-1.953 1.953-1.953 5.119 0 7.071.976.976 2.256 1.464 3.535 1.464s2.559-.488 3.535-1.464zm-421.359-15.371c1.953-1.953 1.953-5.119 0-7.071-8.684-8.684-8.684-22.814 0-31.498 1.953-1.953 1.953-5.119 0-7.071-1.951-1.952-5.119-1.952-7.07 0-12.583 12.583-12.583 33.058 0 45.641.976.976 2.256 1.464 3.535 1.464s2.559-.489 3.535-1.465zm-20.831 15.371c1.953-1.953 1.953-5.119 0-7.071-17.158-17.159-17.158-45.08 0-62.239 1.953-1.953 1.953-5.119 0-7.071-1.951-1.952-5.119-1.952-7.07 0-21.058 21.058-21.058 55.323 0 76.381.976.976 2.256 1.464 3.535 1.464s2.56-.488 3.535-1.464zm356.201-240.191h40c2.761 0 5-2.239 5-5s-2.239-5-5-5h-40c-2.761 0-5 2.239-5 5s2.239 5 5 5zm-105.506 11.042c4.232 4.458 6.388 10.3 6.068 16.449-.6 11.552-10.134 20.782-21.707 21.015-.152.003-.304.005-.455.005-11.043 0-20.449-8.139-21.979-19.104-.142-1.015-.213-2.054-.213-3.089 0-2.762 2.239-5 5-5s5 2.238 5 5c0 .574.04 1.147.118 1.706.84 6.019 6.009 10.486 12.078 10.486.083 0 .167-.001.25-.003 6.356-.128 11.592-5.194 11.922-11.535.175-3.384-1.008-6.596-3.334-9.045-2.327-2.452-5.467-3.802-8.842-3.802-4.634 0-6.541.702-8.921 1.772-.282.128-.459.215-.502.237-1.681.852-3.707.691-5.227-.423s-2.292-2.985-1.984-4.846l4.184-25.253c.4-2.413 2.487-4.183 4.933-4.183h21.12c2.761 0 5 2.238 5 5s-2.239 5-5 5h-16.88l-2.161 13.043c1.576-.229 3.345-.349 5.439-.349 6.053.003 11.92 2.523 16.093 6.919zm150.506 23.958c0 2.761-2.239 5-5 5h-40c-2.761 0-5-2.239-5-5s2.239-5 5-5h40c2.762 0 5 2.239 5 5zm0-20c0 2.761-2.239 5-5 5h-40c-2.761 0-5-2.239-5-5s2.239-5 5-5h40c2.762 0 5 2.239 5 5zm-75-.194c0 19.95-12.309 33.884-29.933 33.884-18.683 0-33.883-15.2-33.883-33.884 0-18.683 15.2-33.883 33.883-33.883 6.79 0 13.342 2.002 18.948 5.79 2.288 1.546 2.89 4.653 1.344 6.941-1.546 2.289-4.654 2.891-6.942 1.344-3.946-2.666-8.563-4.075-13.349-4.075-13.169 0-23.883 10.714-23.883 23.883 0 13.17 10.714 23.884 23.883 23.884 12.52 0 18.166-9.317 19.571-18.884h-11.918c-2.761 0-5-2.238-5-5s2.239-5 5-5h17.28c2.761 0 4.999 2.238 4.999 5z" fill="#fff"/></g></svg>