<svg id="Capa_1" enable-background="new 0 0 512 512" height="512" viewBox="0 0 512 512" width="512" xmlns="http://www.w3.org/2000/svg"><g><path d="m512 256c0 28.308-4.595 55.543-13.08 81h-456.92v-221.238c45.922-69.755 124.984-115.87 214.316-115.762 141.24.171 255.684 114.721 255.684 256z" fill="#203e76"/><path d="m220 38v71c0 2.761-2.239 5-5 5h-32c-2.761 0-5-2.239-5-5v-71c0-2.761 2.239-5 5-5h32c2.761 0 5 2.239 5 5zm178 36h-32c-2.761 0-5 2.239-5 5v71c0 2.761 2.239 5 5 5h32c2.761 0 5-2.239 5-5v-71c0-2.761-2.239-5-5-5zm80 99h-49c-2.761 0-5 2.239-5 5v71c0 2.761 2.239 5 5 5h49c2.761 0 5-2.239 5-5v-71c0-2.761-2.239-5-5-5zm-143-140h-32c-2.761 0-5 2.239-5 5v18h-41c-2.761 0-5 2.239-5 5v71c0 2.761 2.239 5 5 5h41v22c0 2.761 2.239 5 5 5h32c2.761 0 5-2.239 5-5v-121c0-2.761-2.239-5-5-5z" fill="#274c91"/><path d="m487.228 366c-7.603 15.952-16.806 30.994-27.405 44.917-5.297 6.958-13.506 11.083-22.25 11.083h-376.464c-14.417-16.91-26.672-35.719-36.337-56z" fill="#5f6c75"/><path d="m460.517 410c-11.971 15.873-25.747 30.308-41.024 43-1.681 1.397-9.245 2.694-10.962 4.048-5.296 4.177-10.761 8.149-16.384 11.904-2.023 1.351 1.798 2.753-.265 4.048-39.379 24.711-85.962 39-135.883 39s-96.504-14.289-135.883-39c-1.913-1.201 5.515-2.579 3.636-3.828-5.843-3.885-11.517-8.004-17.008-12.343-1.655-1.307-12.617-2.481-14.238-3.828-15.276-12.692-29.052-27.127-41.024-43h409.035z" fill="#7e8b96"/><path d="m419.493 453c-8.732 7.255-17.955 13.941-27.61 20h-107.883c-2.761 0-5-2.239-5-5v-10c0-2.761 2.239-5 5-5zm-196.493 0h-130.493c8.732 7.255 17.955 13.941 27.61 20h102.883c2.761 0 5-2.239 5-5v-10c0-2.761-2.239-5-5-5z" fill="#a2abb8"/><path d="m125.657 114.024c-2.97 0-5.378-2.408-5.378-5.378v-96.096c0-2.97 2.408-5.378 5.378-5.378 2.97 0 5.378 2.408 5.378 5.378v96.096c.001 2.97-2.407 5.378-5.378 5.378z" fill="#7e8b96"/><path d="m131.036 5.378v10.757c0 2.97-2.408 5.378-5.379 5.378s-5.379-2.408-5.379-5.378v-10.757c0-2.97 2.408-5.378 5.379-5.378s5.379 2.408 5.379 5.378z" fill="#a2abb8"/><path d="m512 279.398v58.24c0 22.091-17.909 40-40 40h-432c-22.091 0-40-17.909-40-40v-181.787c0-44.183 35.817-80 80-80h31.315v-24.796c0-3.96 3.211-7.171 7.171-7.171h14.343c3.961 0 7.171 3.211 7.171 7.171v24.796h1.372c9.183 0 16.628 7.444 16.628 16.628 0 93.506 75.802 169.308 169.308 169.308h166.924c9.68 0 17.723 7.747 17.767 17.427.001.061.001.122.001.184z" fill="#ffc14f"/><path d="m38 155.851v181.787c0 22.092 17.909 40 40 40h-38c-22.091 0-40-17.908-40-40v-181.787c0-44.183 35.817-80 80-80h38c-44.183 0-80 35.817-80 80zm154.5 61.787v160h15v-160z" fill="#ffa90b"/><path d="m503.979 155.163c-11.908 22.022-35.798 36.615-62.933 35.04-33.639-1.954-60.892-29.206-62.845-62.845-1.576-27.135 13.017-51.025 35.04-62.933 3.359-1.816 7.249 1.141 6.461 4.876-1.202 5.698-1.68 11.663-1.331 17.794 1.916 33.692 29.245 61.022 62.938 62.938 6.131.348 12.096-.129 17.794-1.331 3.736-.788 6.692 3.103 4.876 6.461z" fill="#07a9f0"/><path d="m512 123.362c0 11.603-2.952 22.516-8.145 32.03-9.514 5.193-20.427 8.144-32.03 8.144-36.98 0-66.958-29.978-66.958-66.958 0-11.603 2.952-22.516 8.144-32.03 9.514-5.193 20.427-8.144 32.03-8.144 36.981 0 66.959 29.978 66.959 66.958z" fill="#72d1fb"/><path d="m467.52 139.274c0 2.761-2.238 5-5 5s-5-2.239-5-5c0-12.281-9.991-22.272-22.272-22.272-2.762 0-5-2.239-5-5s2.238-5 5-5c17.794 0 32.272 14.477 32.272 32.272zm-28.413-57.87c-2.762 0-5 2.239-5 5s2.238 5 5 5c24.267 0 44.01 19.743 44.01 44.01 0 2.761 2.238 5 5 5s5-2.239 5-5c0-29.781-24.228-54.01-54.01-54.01zm-12.524 53.65c-3.812 3.812-3.812 9.993 0 13.805s9.993 3.812 13.805 0 3.812-9.993 0-13.805c-3.812-3.813-9.993-3.813-13.805 0z" fill="#fff5f5"/><path d="m507 279.399v20.601h-7c-23.227 0-46.212-4.718-67.562-13.867l-5.287-2.266c-21.349-9.149-44.334-13.867-67.561-13.867h-159.59c-33.137 0-60-26.863-60-60v-134.149h43.747c24.081 0 48.075 2.899 71.463 8.636 93.723 22.988 176.82 77.212 235.605 153.741l12.907 16.803c3.427 4.462 5.853 9.567 7.159 14.969.739 3.059-3.881 6.212-3.881 9.399z" fill="#2476ed"/><path d="m442 370c0 36.451-29.549 66-66 66s-66-29.549-66-66 29.549-66 66-66 66 29.549 66 66zm-346-66c-36.451 0-66 29.549-66 66s29.549 66 66 66 66-29.549 66-66-29.549-66-66-66z" fill="#0a4499"/><path d="m238 270h-38c-33.137 0-60-26.863-60-60v-134.149h38v134.149c0 33.137 26.863 60 60 60zm264.175 11.464-63.64-63.64c-1.953-1.953-5.118-1.953-7.071 0-1.953 1.953-1.953 5.118 0 7.071l63.64 63.64c1.953 1.953 5.118 1.953 7.071 0 1.953-1.952 1.953-5.118 0-7.071zm-162.175-41.464c-5.523 0-10 4.477-10 10v20h20v-20c0-5.523-4.477-10-10-10z" fill="#0956c6"/><path d="m122 370c0 14.359-11.641 26-26 26s-26-11.641-26-26 11.641-26 26-26 26 11.641 26 26zm254-26c-14.359 0-26 11.641-26 26s11.641 26 26 26 26-11.641 26-26-11.641-26-26-26z" fill="#a2abb8"/><path d="m402 370c0 3.41-.657 6.666-1.85 9.65-2.984 1.193-6.24 1.85-9.65 1.85-14.359 0-26-11.641-26-26 0-3.41.657-6.666 1.85-9.65 2.984-1.193 6.24-1.85 9.65-1.85 14.359 0 26 11.641 26 26zm-306-26c-3.41 0-6.666.657-9.65 1.85-1.193 2.984-1.85 6.24-1.85 9.65 0 14.359 11.641 26 26 26 3.41 0 6.666-.657 9.65-1.85 1.193-2.984 1.85-6.24 1.85-9.65 0-14.359-11.641-26-26-26z" fill="#b9c3cd"/><path d="m512 279.398v21.474h-42c-5.523 0-10-4.477-10-10 0-11.528 9.345-20.872 20.872-20.872h30.008c.739 3.059 1.12 6.212 1.12 9.398z" fill="#ea552d"/><path d="m158.917 397.502c-.753 0-1.518-.114-2.272-.354-3.948-1.254-6.132-5.471-4.878-9.418 1.813-5.709 2.733-11.674 2.733-17.729 0-32.257-26.243-58.5-58.5-58.5s-58.5 26.242-58.5 58.499c0 6.055.92 12.021 2.733 17.729 1.254 3.948-.93 8.165-4.878 9.418-3.949 1.251-8.165-.93-9.419-4.877-2.28-7.18-3.437-14.672-3.437-22.271 0-40.528 32.972-73.5 73.5-73.5s73.5 32.972 73.5 73.5c0 7.598-1.156 15.091-3.437 22.271-1.013 3.193-3.965 5.232-7.145 5.232zm287.146-5.231c2.28-7.18 3.437-14.672 3.437-22.271 0-40.528-32.972-73.5-73.5-73.5s-73.5 32.972-73.5 73.5c0 7.598 1.156 15.091 3.437 22.271 1.254 3.947 5.47 6.129 9.419 4.877 3.948-1.254 6.132-5.471 4.878-9.418-1.813-5.709-2.733-11.674-2.733-17.729 0-32.257 26.243-58.5 58.5-58.5s58.5 26.243 58.5 58.5c0 6.055-.92 12.021-2.733 17.729-1.254 3.948.93 8.165 4.878 9.418.755.24 1.52.354 2.272.354 3.179 0 6.131-2.039 7.145-5.231zm-313.234-353.485h-14.343c-3.961 0-7.171 3.211-7.171 7.171v5.427c0 7.921 6.421 14.343 14.343 14.343 7.921 0 14.343-6.421 14.343-14.343v-5.427c-.001-3.96-3.212-7.171-7.172-7.171z" fill="#ffd993"/><path d="m226.03 129.231-.149-2.905c-.72-14.024 12.583-24.557 26.084-20.695 49.191 14.071 95.286 36.875 136.136 67.165 4.881 3.619 7.859 9.259 8.171 15.327l.001.017c.871 16.972-18.082 27.444-32.092 17.825-37.579-25.801-79.203-45.478-123.322-58.127-8.412-2.41-14.381-9.868-14.829-18.607z" fill="#5596fb"/><path d="m59 219.5c0-4.142 3.358-7.5 7.5-7.5h82c4.142 0 7.5 3.358 7.5 7.5 0 4.142-3.358 7.5-7.5 7.5h-82c-4.142 0-7.5-3.358-7.5-7.5zm-29.5-21.5h70c4.142 0 7.5-3.358 7.5-7.5 0-4.142-3.358-7.5-7.5-7.5h-70c-4.142 0-7.5 3.358-7.5 7.5 0 4.142 3.358 7.5 7.5 7.5z" fill="#ffe7c0"/></g></svg>