<svg id="Capa_1" enable-background="new 0 0 512 512" height="512" viewBox="0 0 512 512" width="512" xmlns="http://www.w3.org/2000/svg"><g><path d="m512 256c0 141.385-114.615 256-256 256s-256-114.615-256-256 114.615-256 256-256 256 114.615 256 256z" fill="#0691ce"/><path d="m487.468 243.266c0 120.803-97.93 218.734-218.734 218.734s-218.734-97.931-218.734-218.734 97.931-218.734 218.734-218.734 218.734 97.931 218.734 218.734z" fill="#07a9f0"/><path d="m380.234 92.535v316.243c0 8.284-6.716 15-15 15h-279.06c-8.284 0-15-6.716-15-15v-393.778c0-8.284 6.716-15 15-15h201.525c3.978 0 7.794 1.58 10.607 4.393l77.535 77.535c2.813 2.813 4.393 6.629 4.393 10.607z" fill="#0a4499"/><path d="m136.208 423.778h-50.034c-8.284 0-15-6.716-15-15v-393.778c0-8.284 6.716-15 15-15h50.034c-8.284 0-15 6.716-15 15v393.778c0 8.284 6.716 15 15 15z" fill="#0a3575"/><path d="m341.557 111.425v259.749c0 6.211-5.035 11.246-11.246 11.246h-209.214c-6.211 0-11.246-5.035-11.246-11.246v-317.878c0-6.211 5.035-11.246 11.246-11.246h151.086c2.982 0 5.843 1.185 7.952 3.294l58.129 58.129c2.108 2.109 3.293 4.97 3.293 7.952z" fill="#0a66ea"/><path d="m341.798 99.938-58.128-58.128c-3.067-3.069-7.147-4.759-11.487-4.759h-151.086c-8.958 0-16.246 7.288-16.246 16.246v317.877c0 8.958 7.288 16.246 16.246 16.246h209.215c8.958 0 16.245-7.288 16.245-16.246v-259.749c0-4.34-1.691-8.42-4.759-11.487zm-5.241 271.236c0 3.444-2.802 6.246-6.245 6.246h-209.215c-3.444 0-6.246-2.802-6.246-6.246v-317.878c0-3.444 2.802-6.246 6.246-6.246h151.086c1.668 0 3.236.649 4.416 1.83l58.129 58.129c1.18 1.179 1.829 2.748 1.829 4.416zm-166.557-296.174c0 2.761-2.239 5-5 5h-30c-2.761 0-5-2.239-5-5s2.239-5 5-5h30c2.761 0 5 2.239 5 5zm0 20c0 2.761-2.239 5-5 5h-30c-2.761 0-5-2.239-5-5s2.239-5 5-5h30c2.761 0 5 2.239 5 5zm0 20c0 2.761-2.239 5-5 5h-30c-2.761 0-5-2.239-5-5s2.239-5 5-5h30c2.761 0 5 2.239 5 5z" fill="#0956c6"/><path d="m150 337.188h-30.573c-11.046 0-20-8.954-20-20v-157.043c0-11.046 8.954-20 20-20h30.573c11.046 0 20 8.954 20 20v157.043c0 11.046-8.954 20-20 20z" fill="#ffb52d"/><path d="m331.981 337.188h-188.087c-11.046 0-20-8.954-20-20v-157.043c0-11.046 8.954-20 20-20h188.087c11.046 0 20 8.954 20 20v157.043c0 11.046-8.955 20-20 20z" fill="#ffc14f"/><path d="m296.066 236.66v1.445c0 33.135-23.05 60.886-53.99 68.094-30.94-7.208-53.99-34.959-53.99-68.094v-1.445c0-33.135 23.05-60.886 53.99-68.094 30.939 7.208 53.99 34.959 53.99 68.094z" fill="#ffcd71"/><path d="m275.738 238.667c0 17.701-10.953 30.064-26.636 30.064-16.577 0-30.064-13.487-30.064-30.064s13.487-30.064 30.064-30.064c6.024 0 11.838 1.776 16.812 5.137 2.288 1.546 2.89 4.654 1.344 6.942-1.546 2.287-4.655 2.889-6.941 1.344-3.315-2.24-7.193-3.423-11.214-3.423-11.063 0-20.064 9-20.064 20.064s9 20.064 20.064 20.064c10.102 0 14.842-7.316 16.206-15.064h-9.565c-2.761 0-5-2.239-5-5s2.239-5 5-5h14.996c2.76 0 4.998 2.239 4.998 5zm-80.149-9.93c-1.468 0-2.756.066-3.922.195l1.638-9.888h14.088c2.761 0 5-2.239 5-5s-2.239-5-5-5h-18.328c-2.446 0-4.533 1.77-4.933 4.183l-3.631 21.915c-.308 1.86.465 3.73 1.985 4.845s3.548 1.276 5.228.422c.04-.021.182-.09.404-.19 1.988-.894 3.582-1.48 7.47-1.48 2.745 0 5.299 1.098 7.193 3.093 1.892 1.993 2.855 4.607 2.712 7.361-.268 5.157-4.528 9.279-9.699 9.383-4.99.122-9.338-3.564-10.03-8.529-.063-.454-.096-.921-.096-1.388 0-2.761-2.239-5-5-5s-5 2.239-5 5c0 .929.065 1.863.192 2.772 1.373 9.842 9.816 17.147 19.728 17.147.136 0 .271-.001.408-.004 10.387-.209 18.945-8.495 19.483-18.862.287-5.52-1.648-10.764-5.447-14.765-3.744-3.947-9.009-6.21-14.443-6.21zm156.391-26.77h-60.738c6.105 10.859 9.589 23.38 9.589 36.7 0 13.016-3.328 25.269-9.176 35.955h60.324v10h-66.879c-3.8 4.9-8.193 9.32-13.069 13.15v39.416h-10v-32.775c-10.773 5.976-23.16 9.381-36.327 9.381s-25.555-3.406-36.327-9.381v32.775h-10v-39.416c-4.901-3.85-9.312-8.294-13.126-13.224-.279.048-.566.074-.859.074h-65.965v-10h60.325c-5.849-10.685-9.176-22.939-9.176-35.955 0-13.32 3.484-25.841 9.589-36.7h-60.738v-10h65.965c.469 0 .923.065 1.354.186 3.699-4.678 7.941-8.907 12.631-12.591v-39.416h10v32.775c10.773-5.976 23.16-9.381 36.327-9.381s25.555 3.405 36.327 9.381v-32.775h10v39.416c4.628 3.635 8.82 7.801 12.484 12.406h67.465zm-126.276 101.827c35.912 0 65.128-29.216 65.128-65.127s-29.216-65.128-65.128-65.128-65.128 29.216-65.128 65.128 29.216 65.127 65.128 65.127z" fill="#f29500"/><path d="m436.744 303.508 30.744 30.744c1.115 1.115 1.742 2.628 1.742 4.206v137.381c0 3.285-2.663 5.948-5.948 5.948h-142.312c-3.285 0-5.948-2.663-5.948-5.948v-168.125c0-3.285 2.663-5.948 5.948-5.948h111.568c1.578 0 3.091.627 4.206 1.742z" fill="#0956c6"/><path d="m340.81 481.787h-19.84c-3.285 0-5.948-2.663-5.948-5.948v-168.125c0-3.285 2.663-5.948 5.948-5.948h19.84c-3.285 0-5.948 2.663-5.948 5.948v168.126c0 3.284 2.663 5.947 5.948 5.947z" fill="#0a3575"/><path d="m390.526 454h-42.007c-8.284 0-15-6.716-15-15v-61.451c0-8.284 6.716-15 15-15h42.007c8.284 0 15 6.716 15 15v61.451c0 8.284-6.715 15-15 15z" fill="#ffb52d"/><path d="m435.734 454h-60.414c-8.284 0-15-6.716-15-15v-61.451c0-8.284 6.716-15 15-15h60.414c8.284 0 15 6.716 15 15v61.451c0 8.284-6.716 15-15 15z" fill="#ffc14f"/><path d="m409.189 428.9h-13.955c-8.284 0-15-6.716-15-15v-11.251c0-8.284 6.716-15 15-15h13.955c8.284 0 15 6.716 15 15v11.251c0 8.285-6.716 15-15 15z" fill="#ffcd71"/><path d="m413.435 383.103v-20.553h-10v20.1h-22.616v-20.1h-10v20.553c-8.996 1.952-15.755 9.975-15.755 19.546v11.251c0 9.572 6.759 17.594 15.755 19.546v20.554h10v-20.1h22.616v20.1h10v-20.553c8.996-1.952 15.755-9.975 15.755-19.546v-11.251c-.001-9.573-6.759-17.596-15.755-19.547zm5.754 30.797c0 5.514-4.486 10-10 10h-34.126c-5.514 0-10-4.486-10-10v-11.251c0-5.514 4.486-10 10-10h34.126c5.514 0 10 4.486 10 10z" fill="#f29500"/><path d="m430.794 284.811c.141 2.758-1.981 5.107-4.739 5.247-.087.004-.173.006-.258.006-2.646 0-4.854-2.075-4.989-4.747-.299-5.885-2.867-11.298-7.232-15.241-4.365-3.944-10.027-5.951-15.895-5.652-2.789.147-5.107-1.983-5.247-4.74-.141-2.758 1.981-5.107 4.739-5.247 8.552-.433 16.759 2.484 23.105 8.219 6.348 5.734 10.082 13.602 10.516 22.155zm25.151-5.109c-1.498-29.51-26.729-52.299-56.235-50.804-2.758.14-4.881 2.489-4.74 5.247.14 2.757 2.479 4.88 5.246 4.74 24.012-1.23 44.524 17.32 45.743 41.324.135 2.672 2.344 4.747 4.989 4.747.085 0 .171-.002.258-.006 2.758-.141 4.88-2.491 4.739-5.248z" fill="#fff"/></g></svg>