<svg id="Capa_1" enable-background="new 0 0 512 512" height="512" viewBox="0 0 512 512" width="512" xmlns="http://www.w3.org/2000/svg"><g><path d="m512 256c0 141.385-114.615 256-256 256s-256-114.615-256-256 114.615-256 256-256 256 114.615 256 256z" fill="#19305c"/><path d="m469.949 256c0 118.161-95.788 213.949-213.949 213.949s-213.949-95.788-213.949-213.949 95.788-213.949 213.949-213.949 213.949 95.788 213.949 213.949z" fill="#203e76"/><path d="m271 239v258c0 8.284-6.716 15-15 15s-15-6.716-15-15v-258c0-8.284 6.716-15 15-15s15 6.716 15 15z" fill="#ffcd71"/><path d="m271 77v228c0 8.284-6.716 15-15 15s-15-6.716-15-15v-228c0-8.284 6.716-15 15-15s15 6.716 15 15z" fill="#ffd993"/><path d="m271 15v140c0 8.284-6.716 15-15 15s-15-6.716-15-15v-140c0-8.284 6.716-15 15-15s15 6.716 15 15z" fill="#ffe7c0"/><path d="m30 201.485v68.585c0 8.284-6.716 15-15 15s-15-6.716-15-15v-68.585c0-8.284 6.716-15 15-15s15 6.716 15 15zm467-12.111c-8.284 0-15 6.716-15 15v68.585c0 8.284 6.716 15 15 15s15-6.716 15-15v-68.585c0-8.284-6.716-15-15-15z" fill="#0956c6"/><path d="m30 201.485v21.5c0 8.284-6.716 15-15 15s-15-6.716-15-15v-21.5c0-8.284 6.716-15 15-15s15 6.716 15 15zm467-12.111c-8.284 0-15 6.716-15 15v21.5c0 8.284 6.716 15 15 15s15-6.716 15-15v-21.5c0-8.284-6.716-15-15-15z" fill="#2476ed"/><path d="m210.75 231.373v222.142c0 8.245-6.684 14.929-14.929 14.929-8.245 0-14.929-6.684-14.929-14.929v-222.142c0-8.245 6.684-14.929 14.929-14.929 8.245 0 14.929 6.684 14.929 14.929zm105.429-29.373c-8.245 0-14.929 6.684-14.929 14.929v222.142c0 8.245 6.684 14.929 14.929 14.929 8.245 0 14.929-6.684 14.929-14.929v-222.142c0-8.245-6.684-14.929-14.929-14.929z" fill="#ffa90b"/><path d="m210.608 171.373v130.142c0 8.245-6.684 14.929-14.929 14.929-8.245 0-14.929-6.684-14.929-14.929v-130.142c0-8.245 6.684-14.929 14.929-14.929 8.245 0 14.929 6.684 14.929 14.929zm105.713-29.373c-8.245 0-14.929 6.684-14.929 14.929v130.142c0 8.245 6.684 14.929 14.929 14.929 8.245 0 14.929-6.684 14.929-14.929v-130.142c0-8.245-6.684-14.929-14.929-14.929z" fill="#ffc14f"/><path d="m210.608 101.373v100.142c0 8.245-6.684 14.929-14.929 14.929-8.245 0-14.929-6.684-14.929-14.929v-100.142c0-8.245 6.684-14.929 14.929-14.929 8.245 0 14.929 6.684 14.929 14.929zm105.713-29.373c-8.245 0-14.929 6.684-14.929 14.929v100.142c0 8.245 6.684 14.929 14.929 14.929 8.245 0 14.929-6.684 14.929-14.929v-100.142c0-8.245-6.684-14.929-14.929-14.929z" fill="#ffcd71"/><path d="m150.358 68.929v300.142c0 8.245-6.684 14.929-14.929 14.929-8.245 0-14.929-6.684-14.929-14.929v-300.142c0-8.245 6.684-14.929 14.929-14.929 8.245 0 14.929 6.684 14.929 14.929zm226.213-47.444c-8.245 0-14.929 6.684-14.929 14.929v300.142c0 8.245 6.684 14.929 14.929 14.929 8.245 0 14.929-6.684 14.929-14.929v-300.142c0-8.245-6.684-14.929-14.929-14.929z" fill="#07a9f0"/><path d="m150.5 68.929v178.142c0 8.245-6.684 14.929-14.929 14.929-8.245 0-14.929-6.684-14.929-14.929v-178.142c0-8.245 6.684-14.929 14.929-14.929 8.245 0 14.929 6.684 14.929 14.929zm225.929-47.444c-8.245 0-14.929 6.684-14.929 14.929v178.142c0 8.245 6.684 14.929 14.929 14.929 8.245 0 14.929-6.684 14.929-14.929v-178.142c0-8.245-6.684-14.929-14.929-14.929z" fill="#40c1fa"/><path d="m90.25 168.556v220c0 8.284-6.716 15-15 15s-15-6.716-15-15v-220c0-8.284 6.716-15 15-15s15 6.715 15 15zm346.5-12.112c-8.284 0-15 6.716-15 15v220c0 8.284 6.716 15 15 15s15-6.716 15-15v-220c0-8.284-6.716-15-15-15z" fill="#2476ed"/><path d="m90.25 168.556v118c0 8.284-6.716 15-15 15s-15-6.716-15-15v-118c0-8.284 6.716-15 15-15s15 6.715 15 15zm346.5-12.112c-8.284 0-15 6.716-15 15v118c0 8.284 6.716 15 15 15s15-6.716 15-15v-118c0-8.284-6.716-15-15-15z" fill="#5596fb"/><path d="m484.286 451.322c-16.006 29.601-48.117 49.216-84.59 47.098-45.215-2.626-81.847-39.258-84.473-84.473-2.118-36.473 17.497-68.585 47.098-84.59 4.515-2.441 9.744 1.533 8.684 6.555-1.616 7.659-2.258 15.677-1.789 23.918 2.575 45.287 39.31 82.022 84.597 84.597 8.241.469 16.259-.174 23.918-1.789 5.022-1.06 8.996 4.17 6.555 8.684z" fill="#ea552d"/><path d="m495.067 408.576c0 15.596-3.968 30.264-10.947 43.053-12.789 6.979-27.457 10.947-43.053 10.947-49.706 0-90-40.294-90-90 0-15.595 3.967-30.264 10.947-43.053 12.789-6.979 27.457-10.947 43.053-10.947 49.705 0 90 40.295 90 90z" fill="#f76937"/><path d="m473.302 408.576c0 23.666-14.549 40.194-35.381 40.194-22.163 0-40.193-18.031-40.193-40.194s18.03-40.194 40.193-40.194c8.054 0 15.826 2.375 22.477 6.868 2.288 1.546 2.891 4.654 1.345 6.942-1.547 2.288-4.654 2.891-6.942 1.344-4.991-3.372-10.827-5.154-16.879-5.154-16.648 0-30.193 13.545-30.193 30.194s13.545 30.194 30.193 30.194c16.522 0 23.644-12.652 25.094-25.194h-15.769c-2.762 0-5-2.239-5-5s2.238-5 5-5h21.056c2.761 0 4.999 2.239 4.999 5zm-110.523-11.921c-3.174 0-5.718.232-7.956.668l3.035-18.321h21.495c2.762 0 5-2.239 5-5s-2.238-5-5-5h-25.734c-2.446 0-4.533 1.77-4.933 4.183l-5.099 30.771c-.309 1.862.464 3.735 1.986 4.849 1.523 1.115 3.55 1.273 5.23.416.048-.024.278-.14.656-.31 2.937-1.321 5.467-2.257 11.318-2.257 4.414 0 8.521 1.766 11.566 4.973 3.042 3.204 4.591 7.406 4.361 11.832-.431 8.294-7.281 14.923-15.596 15.091-.109.002-.218.003-.326.003-7.939 0-14.702-5.845-15.801-13.716-.103-.737-.154-1.489-.154-2.233 0-2.761-2.238-5-5-5s-5 2.239-5 5c0 1.204.084 2.418.25 3.613 1.79 12.82 12.789 22.336 25.703 22.336.176 0 .354-.002.529-.005 13.531-.273 24.68-11.065 25.381-24.57.373-7.192-2.146-14.023-7.096-19.236-4.876-5.139-11.735-8.087-18.815-8.087z" fill="#fff"/></g></svg>