<svg id="Capa_1" enable-background="new 0 0 512 512" height="512" viewBox="0 0 512 512" width="512" xmlns="http://www.w3.org/2000/svg"><g><path d="m1.243 281.384c-.828-8.41-1.249-16.939-1.243-25.568.099-141.066 115.415-256.075 256.481-255.816 141.164.26 255.519 114.776 255.519 256 0 8.297-.395 16.502-1.166 24.596-.732 7.674-7.142 13.553-14.85 13.553h-480.675c-7.275 0-13.354-5.525-14.066-12.765z" fill="#0691ce"/><path d="m200.438 505.953c-107.083-23.697-188.96-114.45-199.328-225.953h509.78c-4.529 48.716-22.709 93.471-50.677 130.403-4.607 6.083-11.848 9.597-19.479 9.597h-225.734c-2.761 0-5 2.239-5 5v73.298c0 5.023-4.657 8.741-9.562 7.655z" fill="#40c1fa"/><path d="m46 357.215v-262.215c0-8.284 6.716-15 15-15h390c8.284 0 15 6.716 15 15v262.215c0 8.284-6.716 15-15 15h-390c-8.284 0-15-6.715-15-15z" fill="#dce6eb"/><path d="m466 94.698v25.302h-420v-25.302c0-8.118 6.58-14.698 14.698-14.698h390.605c8.117 0 14.697 6.58 14.697 14.698z" fill="#40c1fa"/><path d="m466 94.698v25.302h-231.298v-25.302c0-8.117 3.624-14.698 8.094-14.698h215.11c4.47 0 8.094 6.58 8.094 14.698z" fill="#72d1fb"/><path d="m430 102.758c0 3.733-3.026 6.759-6.758 6.759h-267.635c-3.733 0-6.758-3.026-6.758-6.759 0-3.732 3.026-6.758 6.758-6.758h267.635c3.732 0 6.758 3.026 6.758 6.758z" fill="#dce6eb"/><path d="m83.517 102.758c0 3.733-3.026 6.758-6.758 6.758-3.733 0-6.758-3.026-6.758-6.758-.001-3.732 3.025-6.758 6.757-6.758 3.733 0 6.759 3.026 6.759 6.758zm20.275-6.758c-3.733 0-6.758 3.026-6.758 6.758 0 3.733 3.026 6.758 6.758 6.758 3.733 0 6.758-3.026 6.758-6.758.001-3.732-3.025-6.758-6.758-6.758zm27.034 0c-3.733 0-6.758 3.026-6.758 6.758 0 3.733 3.026 6.758 6.758 6.758s6.758-3.026 6.758-6.758-3.025-6.758-6.758-6.758z" fill="#5596fb"/><path d="m451 70h-390c-12.407 0-22.5 10.093-22.5 22.5v264.715c0 12.407 10.093 22.5 22.5 22.5h390c12.407 0 22.5-10.093 22.5-22.5v-264.715c0-12.407-10.093-22.5-22.5-22.5zm7.5 287.215c0 4.135-3.364 7.5-7.5 7.5h-390c-4.136 0-7.5-3.365-7.5-7.5v-264.715c0-4.135 3.364-7.5 7.5-7.5h390c4.136 0 7.5 3.365 7.5 7.5z" fill="#203e76"/><path d="m484 391.101h-456c-15.464 0-28-12.536-28-28 0-5.523 4.477-10 10-10h492c5.523 0 10 4.477 10 10 0 15.464-12.536 28-28 28z" fill="#0956c6"/><path d="m375.67 391.101h-239.34c-15.464 0-28-12.536-28-28 0-5.523 4.477-10 10-10h275.34c5.523 0 10 4.477 10 10 0 15.464-12.536 28-28 28z" fill="#0a66ea"/><path d="m287.607 368.101h-63.214c-4.142 0-7.5-3.358-7.5-7.5 0-4.142 3.358-7.5 7.5-7.5h63.214c4.142 0 7.5 3.358 7.5 7.5 0 4.142-3.358 7.5-7.5 7.5z" fill="#0a4499"/><path d="m251 330h-165c-2.761 0-5-2.239-5-5v-180c0-2.761 2.239-5 5-5h165c2.761 0 5 2.239 5 5v180c0 2.761-2.239 5-5 5z" fill="#ea552d"/><path d="m426 330h-174.255c-52.467 0-95-42.533-95-95 0-52.467 42.533-95 95-95h174.255c2.761 0 5 2.239 5 5v180c0 2.761-2.239 5-5 5z" fill="#f76937"/><path d="m412 304.5c0 2.761-2.239 5-5 5h-302c-2.761 0-5-2.239-5-5 0-2.761 2.239-5 5-5h302c2.761 0 5 2.239 5 5z" fill="#ff956a"/><path d="m341 304.5c0 2.761-2.239 5-5 5h-160c-2.761 0-5-2.239-5-5s2.239-5 5-5h160c2.761 0 5 2.239 5 5z" fill="#ffc5ae"/><path d="m494.664 124.061c5.022-1.059 8.996 4.17 6.555 8.684-16.006 29.601-48.117 49.216-84.59 47.098-45.215-2.626-81.847-39.257-84.473-84.473-2.118-36.473 17.497-68.585 47.098-84.59 4.514-2.441 9.744 1.533 8.684 6.555-1.616 7.659-2.258 15.677-1.789 23.918 2.575 45.287 39.31 82.022 84.597 84.597 8.242.469 16.26-.173 23.918-1.789z" fill="#f29500"/><path d="m512 90c0 15.596-3.968 30.264-10.947 43.053-12.789 6.98-27.457 10.947-43.053 10.947-49.706 0-90-40.294-90-90 0-15.596 3.967-30.264 10.947-43.053 12.789-6.979 27.457-10.947 43.053-10.947 49.706 0 90 40.294 90 90z" fill="#ffb52d"/><path d="m383.134 130.315c-3.733 0-6.759-3.026-6.759-6.759v-13.519c0-3.733 3.026-6.759 6.759-6.759 3.733 0 6.759 3.026 6.759 6.759v13.519c.001 3.733-3.026 6.759-6.759 6.759z" fill="#ffd993"/><path d="m408.144 130.315c-3.733 0-6.759-3.026-6.759-6.759v-27.037c0-3.733 3.026-6.759 6.759-6.759 3.733 0 6.759 3.026 6.759 6.759v27.037c0 3.733-3.026 6.759-6.759 6.759zm32.444-6.759v-54.075c0-3.733-3.026-6.759-6.759-6.759-3.733 0-6.759 3.026-6.759 6.759v54.074c0 3.733 3.026 6.759 6.759 6.759 3.733.001 6.759-3.025 6.759-6.758z" fill="#ffe7c0"/><path d="m460.866 130.315c-3.733 0-6.759-3.026-6.759-6.759v-81.112c0-3.733 3.026-6.759 6.759-6.759 3.733 0 6.759 3.026 6.759 6.759v81.111c0 3.734-3.026 6.76-6.759 6.76z" fill="#fff5f5"/><path d="m271 305c0 8.284-6.716 15-15 15s-15-6.716-15-15 6.716-15 15-15 15 6.716 15 15zm-31.975-55.461 38.569-27.273c2.254-1.594 2.254-4.938 0-6.532l-38.569-27.273c-2.649-1.873-6.309.021-6.309 3.266v54.545c-.001 3.245 3.659 5.14 6.309 3.267z" fill="#fff5f5"/><path d="m460.517 410c-46.723 61.952-120.943 102-204.517 102-19.236 0-37.976-2.122-56-6.144v-90.856c0-2.761 2.239-5 5-5z" fill="#dce6eb"/><path d="m410.684 460h-185.688c-2.761 0-5-1.679-5-3.75v-22.5c0-2.071 2.239-3.75 5-3.75h218.782c-10.133 10.929-21.207 20.972-33.094 30zm-190.688 33.75v15.738c11.763 1.656 23.784 2.512 36.004 2.512 37.022 0 72.209-7.859 103.983-22h-134.987c-2.762 0-5 1.679-5 3.75z" fill="#b9d3fd"/><path d="m304.996 475c0 2.761-2.239 5-5 5h-61.014c-2.761 0-5-2.239-5-5s2.239-5 5-5h61.014c2.761 0 5 2.239 5 5z" fill="#bacbec"/><path d="m256 512c-6.608 0-13.158-.25-19.64-.742-1.427-.88-2.378-2.458-2.378-4.258 0-2.761 2.239-5 5-5h88.108c-22.571 6.511-46.423 10-71.09 10zm134.003-72h-151.021c-2.761 0-5 2.239-5 5s2.239 5 5 5h151.021c2.761 0 5-2.239 5-5s-2.239-5-5-5z" fill="#91aee2"/><path d="m433.989 440c-3.552 3.437-7.204 6.772-10.95 10h-8.043c-2.761 0-5-2.239-5-5s2.239-5 5-5z" fill="#5596fb"/><path d="m148.5 450c-2.761 0-5-2.239-5-5v-30c0-2.761 2.239-5 5-5 2.761 0 5 2.239 5 5v30c0 2.761-2.239 5-5 5z" fill="#203e76"/><path d="m168.5 454.983v41.673c-13.938-5.069-27.312-11.315-40-18.616v-23.056c0-11.046 8.954-20 20-20 11.046-.001 20 8.954 20 19.999z" fill="#0a66ea"/><path d="m148.5 434.983c.106 0 .212.001.318.003-2.292 3.254-3.638 7.221-3.638 11.503v40.346c-5.68-2.732-11.243-5.667-16.681-8.796v-23.056c.001-11.045 8.955-20 20.001-20z" fill="#0956c6"/></g></svg>