<svg id="Capa_1" enable-background="new 0 0 512 512" height="512" viewBox="0 0 512 512" width="512" xmlns="http://www.w3.org/2000/svg"><g><path d="m512 256c0 141.385-114.615 256-256 256s-256-114.615-256-256 114.615-256 256-256 256 114.615 256 256z" fill="#07a9f0"/><path d="m464.953 256c0 115.401-93.552 208.953-208.953 208.953s-208.953-93.552-208.953-208.953 93.552-208.953 208.953-208.953 208.953 93.552 208.953 208.953z" fill="#40c1fa"/><path d="m367.761 316.305c-22.581 41.761-67.883 69.433-119.338 66.445-63.789-3.705-115.467-55.384-119.172-119.172-2.988-51.455 24.684-96.758 66.445-119.338 6.369-3.444 13.746 2.163 12.252 9.247-2.28 10.805-3.185 22.116-2.524 33.743 3.633 63.89 55.457 115.715 119.348 119.348 11.627.661 22.938-.245 33.743-2.524 7.083-1.496 12.69 5.882 9.246 12.251z" fill="#0956c6"/><path d="m382.97 256c0 22.002-5.598 42.696-15.444 60.738-18.042 9.847-38.736 15.444-60.738 15.444-70.124 0-126.97-56.847-126.97-126.97 0-22.002 5.597-42.696 15.444-60.738 18.042-9.847 38.736-15.444 60.738-15.444 70.124 0 126.97 56.846 126.97 126.97z" fill="#2476ed"/><path d="m511.952 251h-47.356c-.623-4.344-2.062-8.593-4.317-12.5l-86.984-150.661c-2.256-3.907-5.216-7.277-8.667-9.989l23.696-41.043c-2.849-1.724-5.735-3.394-8.656-5.008l-23.7 41.051c-4.073-1.632-8.473-2.511-12.984-2.511h-173.968c-4.511 0-8.91.879-12.984 2.511l-23.701-41.051c-2.921 1.615-5.806 3.284-8.656 5.008l23.696 41.043c-3.45 2.712-6.411 6.082-8.667 9.989l-86.983 150.661c-2.255 3.906-3.694 8.156-4.317 12.5h-47.356c-.032 1.663-.048 3.33-.048 5s.016 3.337.048 5h47.356c.623 4.344 2.062 8.593 4.317 12.5l86.984 150.661c2.256 3.907 5.216 7.277 8.667 9.989l-23.696 41.043c2.849 1.724 5.735 3.394 8.656 5.008l23.701-41.051c4.073 1.633 8.473 2.511 12.984 2.511h173.969c4.511 0 8.91-.878 12.984-2.511l23.701 41.051c2.921-1.615 5.806-3.284 8.656-5.008l-23.696-41.043c3.45-2.712 6.411-6.082 8.667-9.989l86.981-150.661c2.255-3.906 3.694-8.156 4.317-12.5h47.356c.032-1.663.048-3.33.048-5s-.016-3.337-.048-5zm-342.936-170.661h173.969c2.726 0 5.394.45 7.913 1.294l-32.322 55.983c-18.687-9.917-39.987-15.539-62.576-15.539s-43.889 5.622-62.576 15.539l-32.322-55.983c2.52-.844 5.188-1.294 7.914-1.294zm109.132 297.601c5.936-6.903 11.29-16.682 15.807-29.064 2.345-6.428 4.418-13.396 6.203-20.8 16.157 2.737 31.716 6.975 46.219 12.628-17.823 19.004-41.553 32.404-68.229 37.236zm-112.524-37.236c14.502-5.653 30.061-9.891 46.219-12.628 1.785 7.404 3.858 14.372 6.203 20.8 4.517 12.382 9.871 22.161 15.807 29.064-26.677-4.832-50.407-18.232-68.229-37.236zm68.228-206.644c-5.936 6.903-11.29 16.682-15.807 29.064-2.345 6.428-4.418 13.396-6.203 20.8-16.157-2.737-31.716-6.975-46.219-12.628 17.823-19.004 41.553-32.404 68.229-37.236zm-19.851 116.94c.277-19.828 2.201-38.825 5.591-55.796 11.935 1.587 24.125 2.396 36.408 2.396s24.473-.809 36.408-2.396c3.39 16.971 5.314 35.968 5.591 55.796zm83.998 10c-.277 19.828-2.201 38.825-5.591 55.796-11.935-1.587-24.125-2.396-36.408-2.396s-24.473.809-36.408 2.396c-3.39-16.971-5.314-35.968-5.591-55.796zm-41.999-73.399c-11.55 0-23.01-.741-34.232-2.195 1.647-6.705 3.542-13.019 5.67-18.855 7.993-21.909 18.403-34.474 28.562-34.474s20.568 12.565 28.562 34.474c2.129 5.836 4.023 12.15 5.67 18.855-11.222 1.453-22.682 2.195-34.232 2.195zm-46.298 6.1c-3.463 17.511-5.425 37.012-5.702 57.299h-71.824c1.077-26.998 10.832-51.802 26.546-71.692 15.917 6.498 33.101 11.332 50.98 14.393zm-5.702 67.299c.277 20.287 2.239 39.788 5.702 57.299-17.879 3.062-35.063 7.896-50.979 14.393-15.714-19.89-25.469-44.693-26.546-71.691h71.823zm23.438 84.449c-2.129-5.836-4.023-12.15-5.67-18.855 11.222-1.454 22.682-2.195 34.232-2.195s23.01.741 34.232 2.195c-1.647 6.705-3.542 13.019-5.67 18.855-7.993 21.909-18.403 34.474-28.562 34.474s-20.568-12.565-28.562-34.474zm74.86-27.15c3.463-17.511 5.425-37.012 5.702-57.299h71.824c-1.077 26.998-10.832 51.802-26.546 71.691-15.917-6.497-33.101-11.331-50.98-14.392zm5.702-67.299c-.277-20.287-2.239-39.788-5.702-57.299 17.879-3.062 35.063-7.895 50.979-14.393 15.714 19.89 25.469 44.693 26.546 71.692zm-7.842-67.076c-1.785-7.404-3.858-14.372-6.203-20.8-4.517-12.382-9.871-22.161-15.807-29.064 26.676 4.832 50.406 18.232 68.228 37.236-14.502 5.653-30.061 9.891-46.218 12.628zm-239.777 59.576 86.984-150.661c1.363-2.361 3.087-4.447 5.077-6.206l32.33 55.997c-36.318 22.9-60.921 62.758-62.604 108.37h-64.623c.528-2.604 1.473-5.14 2.836-7.5zm92.062 181.867c-1.99-1.759-3.714-3.845-5.077-6.206l-86.985-150.661c-1.363-2.361-2.308-4.897-2.836-7.5h64.624c1.682 45.612 26.285 85.47 62.604 108.37zm190.541 6.294h-173.968c-2.726 0-5.394-.45-7.913-1.294l32.322-55.982c18.687 9.917 39.987 15.539 62.576 15.539s43.889-5.622 62.576-15.539l32.322 55.982c-2.521.844-5.189 1.294-7.915 1.294zm108.635-163.161-86.984 150.661c-1.363 2.361-3.087 4.447-5.077 6.206l-32.33-55.997c36.318-22.9 60.921-62.758 62.604-108.37h64.624c-.529 2.604-1.474 5.14-2.837 7.5zm-61.788-17.5c-1.682-45.612-26.285-85.47-62.604-108.37l32.33-55.997c1.99 1.759 3.714 3.845 5.077 6.206l86.984 150.66c1.363 2.361 2.308 4.897 2.836 7.5h-64.623z" fill="#0a4499"/><path d="m322.342 291.797c-13.404 24.789-40.296 41.216-70.84 39.442-37.865-2.199-68.542-32.876-70.741-70.741-1.774-30.544 14.653-57.436 39.442-70.84 3.781-2.044 8.16 1.284 7.273 5.489-1.353 6.414-1.891 13.128-1.498 20.03 2.156 37.926 32.92 68.689 70.845 70.845 6.902.392 13.616-.145 20.03-1.498 4.205-.887 7.533 3.493 5.489 7.273z" fill="#f29500"/><path d="m331.37 256c0 13.061-3.323 25.344-9.168 36.054-10.71 5.845-22.994 9.168-36.054 9.168-41.625 0-75.37-33.744-75.37-75.37 0-13.06 3.323-25.345 9.168-36.054 10.71-5.845 22.994-9.168 36.054-9.168 41.626 0 75.37 33.744 75.37 75.37z" fill="#ffb52d"/><path d="m310.069 256c0 19.023-11.751 32.31-28.575 32.31-17.815 0-32.31-14.494-32.31-32.31s14.494-32.31 32.31-32.31c6.475 0 12.723 1.909 18.068 5.521 2.288 1.546 2.89 4.654 1.344 6.942-1.545 2.287-4.655 2.889-6.941 1.344-3.687-2.491-7.999-3.807-12.471-3.807-12.302 0-22.31 10.008-22.31 22.31s10.008 22.31 22.31 22.31c11.523 0 16.799-8.49 18.188-17.31h-10.952c-2.762 0-5-2.239-5-5s2.238-5 5-5h16.339c2.762 0 5 2.239 5 5zm-86.882-10.371c-1.833 0-3.405.097-4.813.281l1.945-11.739h15.729c2.762 0 5-2.239 5-5s-2.238-5-5-5h-19.97c-2.446 0-4.533 1.77-4.933 4.183l-3.956 23.877c-.309 1.859.464 3.73 1.983 4.845 1.521 1.115 3.546 1.277 5.227.423.042-.021.205-.102.464-.218 2.219-.999 3.996-1.653 8.323-1.653 3.115 0 6.014 1.247 8.163 3.51 2.146 2.261 3.239 5.227 3.077 8.352-.304 5.853-5.138 10.53-11.005 10.648-5.719.098-10.596-4.045-11.382-9.678-.072-.519-.109-1.049-.109-1.576 0-2.761-2.238-5-5-5s-5 2.239-5 5c0 .988.069 1.984.205 2.958 1.466 10.503 10.475 18.299 21.053 18.298.145 0 .29-.001.435-.004 11.084-.224 20.216-9.064 20.79-20.128.307-5.89-1.758-11.485-5.812-15.755-3.997-4.21-9.615-6.624-15.414-6.624z" fill="#fff"/><path d="m407.574 501.368c-3.601 6.66-10.826 11.074-19.033 10.597-10.173-.591-18.416-8.833-19.006-19.006-.477-8.207 3.937-15.432 10.597-19.033 1.016-.549 2.192.345 1.954 1.475-.364 1.723-.508 3.527-.403 5.382.579 10.19 8.845 18.455 19.034 19.034 1.854.105 3.658-.039 5.382-.403 1.13-.239 2.025.938 1.475 1.954zm-253.054-401.797c10.053.584 18.904-4.823 23.316-12.982.673-1.244-.423-2.686-1.807-2.394-2.111.445-4.321.622-6.593.493-12.482-.71-22.608-10.835-23.318-23.318-.129-2.272.048-4.482.493-6.593.292-1.384-1.149-2.48-2.394-1.807-8.159 4.412-13.566 13.263-12.982 23.316.725 12.464 10.822 22.561 23.285 23.285zm200 0c10.053.584 18.904-4.823 23.316-12.982.673-1.244-.423-2.686-1.807-2.394-2.111.445-4.321.622-6.593.493-12.482-.71-22.608-10.835-23.318-23.318-.129-2.272.048-4.482.493-6.593.292-1.384-1.149-2.48-2.394-1.807-8.159 4.412-13.566 13.263-12.982 23.316.725 12.464 10.822 22.561 23.285 23.285zm51.58-71.657c-1.723.364-3.527.508-5.382.403-10.19-.579-18.455-8.845-19.034-19.034-.105-1.854.039-3.658.403-5.381.239-1.13-.938-2.024-1.954-1.475-6.66 3.601-11.074 10.826-10.597 19.033.591 10.173 8.833 18.416 19.006 19.006 8.207.477 15.432-3.937 19.033-10.597.549-1.017-.346-2.194-1.475-1.955zm-230.071 416.281c-2.111.446-4.321.623-6.593.493-12.482-.709-22.608-10.835-23.318-23.318-.129-2.272.048-4.482.493-6.593.292-1.384-1.149-2.479-2.394-1.807-8.159 4.412-13.566 13.263-12.982 23.316.724 12.463 10.821 22.56 23.283 23.283 10.053.584 18.904-4.823 23.316-12.982.674-1.242-.421-2.684-1.805-2.392zm201.806 2.394c.673-1.244-.423-2.686-1.807-2.394-2.111.446-4.321.623-6.593.493-12.482-.709-22.608-10.835-23.318-23.318-.129-2.272.048-4.482.493-6.593.292-1.384-1.149-2.479-2.394-1.807-8.159 4.412-13.566 13.263-12.982 23.316.724 12.463 10.821 22.56 23.283 23.283 10.056.586 18.907-4.821 23.318-12.98zm-301.806-181.201c-2.111.445-4.321.622-6.593.493-12.482-.71-22.608-10.835-23.318-23.318-.129-2.272.048-4.482.493-6.593.292-1.384-1.149-2.479-2.394-1.807-8.159 4.412-13.566 13.263-12.982 23.316.724 12.463 10.821 22.56 23.283 23.283 10.053.584 18.904-4.823 23.316-12.982.674-1.242-.421-2.684-1.805-2.392zm400 0c-2.111.445-4.321.622-6.593.493-12.482-.71-22.608-10.835-23.318-23.318-.129-2.272.048-4.482.493-6.593.292-1.384-1.149-2.479-2.394-1.807-8.159 4.412-13.566 13.263-12.982 23.316.724 12.463 10.821 22.56 23.283 23.283 10.053.584 18.904-4.823 23.316-12.982.674-1.242-.421-2.684-1.805-2.392zm-165.036-70.094c-1.276.269-2.613.376-3.986.298-7.548-.429-13.67-6.552-14.1-14.099-.078-1.374.029-2.71.298-3.986.177-.837-.695-1.499-1.447-1.093-4.934 2.668-8.203 8.02-7.85 14.098.438 7.536 6.543 13.641 14.079 14.079 6.079.353 11.431-2.916 14.098-7.85.407-.752-.255-1.624-1.092-1.447zm-85.765 0c-1.276.269-2.613.376-3.986.298-7.548-.429-13.67-6.552-14.099-14.099-.078-1.374.029-2.71.298-3.986.177-.837-.695-1.499-1.448-1.093-4.933 2.668-8.203 8.02-7.85 14.098.438 7.536 6.543 13.641 14.079 14.079 6.079.353 11.431-2.916 14.098-7.85.408-.752-.255-1.624-1.092-1.447zm85.765 132.766c-1.276.269-2.613.376-3.986.298-7.548-.429-13.67-6.552-14.1-14.099-.078-1.374.029-2.71.298-3.986.177-.837-.695-1.499-1.447-1.093-4.934 2.668-8.203 8.02-7.85 14.098.438 7.536 6.543 13.641 14.079 14.079 6.079.353 11.431-2.916 14.098-7.85.407-.752-.255-1.624-1.092-1.447zm-85.765 0c-1.276.269-2.613.376-3.986.298-7.548-.429-13.67-6.552-14.099-14.099-.078-1.374.029-2.71.298-3.986.177-.837-.695-1.499-1.448-1.093-4.933 2.668-8.203 8.02-7.85 14.098.438 7.536 6.543 13.641 14.079 14.079 6.079.353 11.431-2.916 14.098-7.85.408-.752-.255-1.624-1.092-1.447zm-38.255-66.383c-1.277.269-2.613.376-3.986.298-7.548-.429-13.67-6.552-14.1-14.1-.078-1.374.029-2.71.298-3.986.177-.837-.695-1.499-1.448-1.092-4.934 2.667-8.203 8.02-7.85 14.098.438 7.536 6.543 13.641 14.079 14.079 6.079.353 11.431-2.916 14.098-7.85.408-.752-.254-1.624-1.091-1.447zm163.368 1.447c.407-.752-.255-1.624-1.092-1.447-1.277.269-2.613.376-3.986.298-7.548-.429-13.67-6.552-14.1-14.1-.078-1.374.029-2.71.298-3.986.177-.837-.695-1.499-1.448-1.092-4.934 2.667-8.203 8.02-7.85 14.098.438 7.536 6.543 13.641 14.079 14.079 6.08.353 11.432-2.916 14.099-7.85z" fill="#b9c3cd"/><path d="m410 491.75c0 3.509-.893 6.81-2.463 9.687-2.877 1.57-6.178 2.463-9.687 2.463-11.184 0-20.25-9.066-20.25-20.25 0-3.509.893-6.809 2.463-9.687 2.877-1.571 6.178-2.463 9.687-2.463 11.184 0 20.25 9.066 20.25 20.25zm-244.077-402.059c4.299 0 8.342-1.094 11.867-3.017 1.924-3.525 3.018-7.568 3.018-11.867-.001-13.701-11.107-24.807-24.808-24.807-4.299 0-8.342 1.094-11.867 3.017-1.924 3.525-3.018 7.568-3.018 11.867.001 13.701 11.107 24.807 24.808 24.807zm200 0c4.299 0 8.342-1.094 11.867-3.017 1.924-3.525 3.018-7.568 3.018-11.867-.001-13.701-11.107-24.807-24.808-24.807-4.299 0-8.342 1.094-11.867 3.017-1.924 3.525-3.018 7.568-3.018 11.867.001 13.701 11.107 24.807 24.808 24.807zm23.827-89.691c-3.509 0-6.81.893-9.687 2.463-1.57 2.877-2.463 6.178-2.463 9.687 0 11.184 9.066 20.25 20.25 20.25 3.509 0 6.809-.893 9.687-2.463 1.571-2.877 2.463-6.178 2.463-9.687 0-11.184-9.066-20.25-20.25-20.25zm-233.75 410c-4.299 0-8.342 1.094-11.867 3.017-1.924 3.525-3.018 7.568-3.018 11.867 0 13.7 11.106 24.807 24.807 24.807 4.299 0 8.342-1.094 11.867-3.017 1.924-3.525 3.018-7.568 3.018-11.867 0-13.701-11.106-24.807-24.807-24.807zm224.807 24.807c0-13.701-11.106-24.807-24.807-24.807-4.299 0-8.342 1.094-11.867 3.017-1.924 3.525-3.018 7.568-3.018 11.867 0 13.7 11.106 24.807 24.807 24.807 4.299 0 8.342-1.094 11.867-3.017 1.924-3.525 3.018-7.568 3.018-11.867zm-324.807-203.614c-4.299 0-8.342 1.094-11.867 3.018-1.924 3.525-3.018 7.568-3.018 11.867 0 13.701 11.106 24.807 24.807 24.807 4.299 0 8.342-1.094 11.867-3.017 1.924-3.525 3.018-7.568 3.018-11.867 0-13.702-11.106-24.808-24.807-24.808zm400 0c-4.299 0-8.342 1.094-11.867 3.018-1.924 3.525-3.018 7.568-3.018 11.867 0 13.701 11.106 24.807 24.807 24.807 4.299 0 8.342-1.094 11.867-3.017 1.924-3.525 3.018-7.568 3.018-11.867 0-13.702-11.106-24.808-24.807-24.808zm-157.118-56.576c-2.599 0-5.044.661-7.175 1.825-1.163 2.131-1.825 4.576-1.825 7.175 0 8.284 6.716 15 15 15 2.599 0 5.044-.661 7.176-1.824 1.163-2.131 1.824-4.576 1.824-7.176 0-8.284-6.715-15-15-15zm-85.764 0c-2.599 0-5.044.661-7.176 1.825-1.163 2.131-1.824 4.576-1.824 7.175 0 8.284 6.716 15 15 15 2.599 0 5.044-.661 7.175-1.824 1.163-2.131 1.825-4.576 1.825-7.176 0-8.284-6.716-15-15-15zm85.764 132.766c-2.599 0-5.044.661-7.175 1.825-1.163 2.131-1.825 4.576-1.825 7.175 0 8.284 6.716 15 15 15 2.599 0 5.044-.661 7.176-1.824 1.163-2.132 1.824-4.576 1.824-7.176 0-8.284-6.715-15-15-15zm-85.764 0c-2.599 0-5.044.661-7.176 1.825-1.163 2.131-1.824 4.576-1.824 7.175 0 8.284 6.716 15 15 15 2.599 0 5.044-.661 7.175-1.824 1.163-2.132 1.825-4.576 1.825-7.176 0-8.284-6.716-15-15-15zm-38.256-66.383c-2.599 0-5.044.661-7.176 1.824-1.163 2.131-1.824 4.576-1.824 7.176 0 8.284 6.716 15 15 15 2.599 0 5.044-.661 7.175-1.824 1.163-2.132 1.825-4.576 1.825-7.176 0-8.284-6.716-15-15-15zm175.452 22.176c1.163-2.132 1.824-4.576 1.824-7.176 0-8.284-6.716-15-15-15-2.599 0-5.044.661-7.176 1.824-1.163 2.131-1.824 4.576-1.824 7.176 0 8.284 6.716 15 15 15 2.6 0 5.044-.661 7.176-1.824z" fill="#dce6eb"/></g></svg>