<svg id="Capa_1" enable-background="new 0 0 512 512" height="512" viewBox="0 0 512 512" width="512" xmlns="http://www.w3.org/2000/svg"><g><path d="m65.145 413.642c-5.643 1.384-11.55-.773-15.008-5.442-31.505-42.543-50.137-95.196-50.137-152.2 0-141.385 114.615-256 256-256s256 114.615 256 256c0 57.965-19.265 111.43-51.741 154.342-2.557 3.379-6.898 4.915-11.009 3.891-58.9-14.662-124.333-22.829-193.25-22.829-67.984 0-132.579 7.948-190.855 22.238z" fill="#0956c6"/><path d="m143 85c0 8.284-6.716 15-15 15h-28c-8.284 0-15-6.716-15-15s6.716-15 15-15h28c8.284 0 15 6.716 15 15zm342 165h-50c-8.284 0-15 6.716-15 15s6.716 15 15 15h50c8.284 0 15-6.716 15-15s-6.716-15-15-15zm-227-115h-28c-8.284 0-15 6.716-15 15s6.716 15 15 15h28c8.284 0 15-6.716 15-15s-6.716-15-15-15zm86.576-65h-4.576c-5.523 0-10-4.477-10-10 0-8.284-6.716-15-15-15h-40c-8.284 0-15 6.716-15 15 0 5.523-4.477 10-10 10h-4.576c-8.077 0-15.026 6.207-15.406 14.275-.407 8.614 6.457 15.725 14.982 15.725h100c8.525 0 15.389-7.111 14.983-15.725-.38-8.068-7.33-14.275-15.407-14.275z" fill="#0a66ea"/><path d="m328.585 501.564c-18.142 5.354-37.757.372-51.133-13.002-19.432-19.429-31.452-46.272-31.452-75.923v-153.286c0-1.728.892-3.333 2.359-4.245l204.722-127.354c3.331-2.072 7.641.323 7.641 4.245v277.73c-32.64 43.397-78.758 76.081-132.137 91.835z" fill="#07a9f0"/><path d="m353.361 417c-59.294 0-107.361-48.067-107.361-107.361v-153.286c0-1.728.892-3.333 2.359-4.246l204.722-127.354c3.331-2.072 7.641.323 7.641 4.246v280.64c0 59.294-48.067 107.361-107.361 107.361z" fill="#40c1fa"/><path d="m113.893 150.037v13.519c0 3.733-3.026 6.759-6.759 6.759s-6.759-3.026-6.759-6.759v-13.519c0-3.733 3.026-6.759 6.759-6.759s6.759 3.026 6.759 6.759z" fill="#72d1fb"/><path d="m132.144 129.759c-3.733 0-6.759 3.026-6.759 6.759v27.037c0 3.733 3.026 6.759 6.759 6.759 3.733 0 6.759-3.026 6.759-6.759v-27.037c0-3.733-3.026-6.759-6.759-6.759zm25.685-27.037c-3.733 0-6.759 3.026-6.759 6.759v54.074c0 3.733 3.026 6.759 6.759 6.759 3.733 0 6.759-3.026 6.759-6.759v-54.074c0-3.733-3.026-6.759-6.759-6.759z" fill="#93dcfc"/><path d="m184.866 75.685c-3.733 0-6.759 3.026-6.759 6.759v81.111c0 3.733 3.026 6.759 6.759 6.759s6.759-3.026 6.759-6.759v-81.111c0-3.733-3.026-6.759-6.759-6.759z" fill="#b4e7fd"/><path d="m435.872 193.5v226.074c0 4.142-3.358 7.5-7.5 7.5-4.142 0-7.5-3.358-7.5-7.5v-226.074c0-4.142 3.358-7.5 7.5-7.5 4.142 0 7.5 3.358 7.5 7.5zm-53.25 9.62c-4.142 0-7.5 3.358-7.5 7.5v229.568c0 4.142 3.358 7.5 7.5 7.5s7.5-3.358 7.5-7.5v-229.568c0-4.142-3.358-7.5-7.5-7.5zm-45.25 17.818c-4.142 0-7.5 3.358-7.5 7.5v233.062c0 4.142 3.358 7.5 7.5 7.5s7.5-3.358 7.5-7.5v-233.062c0-4.142-3.358-7.5-7.5-7.5z" fill="#72d1fb"/><path d="m344.872 135.497v233.062c0 4.142-3.358 7.5-7.5 7.5s-7.5-3.358-7.5-7.5v-233.062c0-4.142 3.358-7.5 7.5-7.5s7.5 3.358 7.5 7.5zm-52.5 14.966c-4.142 0-7.5 3.358-7.5 7.5v233.062c0 4.142 3.358 7.5 7.5 7.5s7.5-3.358 7.5-7.5v-233.062c0-4.143-3.358-7.5-7.5-7.5zm90.25-47.184c-4.142 0-7.5 3.358-7.5 7.5v229.568c0 4.142 3.358 7.5 7.5 7.5s7.5-3.358 7.5-7.5v-229.568c0-4.142-3.358-7.5-7.5-7.5zm45.75-28.719c-4.142 0-7.5 3.358-7.5 7.5v226.074c0 4.142 3.358 7.5 7.5 7.5 4.142 0 7.5-3.358 7.5-7.5v-226.074c0-4.142-3.358-7.5-7.5-7.5z" fill="#93dcfc"/><path d="m50 230h280v271.142c-9.767 2.944-19.779 5.321-30 7.091-14.295 2.476-28.997-19.111-44-19.111-84.464 0-159.373-40.905-206-103.986z" fill="#c8d2dc"/><path d="m106 230v202.134c0 12.96-15.47 19.635-24.93 10.777-11.38-10.655-21.786-22.336-31.07-34.897v-178.014z" fill="#b9c3cd"/><path d="m296.234 410s-2.88 99.317-6.234 99.762c-11.124 1.476-22.473 2.238-34 2.238-8.777 0-17.451-.442-26-1.304-.648-.065-.525-2.384-1.171-2.454-2.028-.22-4.049-.464-6.063-.731-.666-.088-2.102 2.071-2.766 1.978-20.918-2.944-41.024-8.416-60-16.097-.612-.248-1.272-2.735-1.881-2.987-2.093-.866-4.172-1.76-6.237-2.679-.645-.287-1.24 1.66-1.882 1.367-21.889-9.97-42.128-22.933-60.193-38.366-6.212-5.307-4.807-40.727-4.807-40.727z" fill="#2476ed"/><path d="m295 445.129c-1.152 28.623-2.991 64.366-5 64.633-11.124 1.476-22.473 2.238-34 2.238-.333 0-.667-.001-1-.002v-101.998h40zm-70-35.129h-40v92.026c11.362 3.273 23.048 5.781 35 7.463.664.094 2.1-2.066 2.766-1.978.744.099 1.489.194 2.234.286zm-70 0h-40v59.703c11.093 7.333 22.789 13.827 35 19.389.642.292 1.237-1.655 1.882-1.367 1.036.461 2.075.916 3.119 1.364v-79.089z" fill="#5596fb"/><path d="m300 410v98.232c-3.312.574-6.646 1.084-10 1.529v-99.761zm-80 99.489c3.313.466 6.647.869 10 1.207v-100.696h-10zm-70-20.397c3.297 1.501 6.63 2.935 10 4.299v-83.391h-10zm-70-47.189c3.254 3.081 6.588 6.079 10 8.988v-40.891h-10z" fill="#a2abb8"/><path d="m158.333 440c-11.046 0-20-8.954-20-20v-10h40v10c0 11.046-8.954 20-20 20zm83.334-20v-10h-40v10c0 11.046 8.954 20 20 20 11.045 0 20-8.954 20-20zm63.333 0v-10h-40v10c0 11.046 8.954 20 20 20 11.046 0 20-8.954 20-20zm-190 0v-10h-40v10c0 11.046 8.954 20 20 20 11.046 0 20-8.954 20-20z" fill="#ffb52d"/><path d="m190 440c-11.046 0-20-8.954-20-20v-10h40v10c0 11.046-8.954 20-20 20zm83.333-20v-10h-40v10c0 11.046 8.954 20 20 20 11.046 0 20-8.954 20-20zm-126.666 0v-10h-40v10c0 11.046 8.954 20 20 20 11.045 0 20-8.954 20-20z" fill="#fff5f5"/><path d="m340 240h-300c-5.523 0-10-4.477-10-10v-10c0-5.523 4.477-10 10-10h300c5.523 0 10 4.477 10 10v10c0 5.523-4.477 10-10 10zm-40 180h-220c-5.523 0-10-4.477-10-10 0-5.523 4.477-10 10-10h220c5.523 0 10 4.477 10 10 0 5.523-4.477 10-10 10z" fill="#b9c3cd"/><path d="m105.375 240h-65.375c-5.523 0-10-4.477-10-10v-10c0-5.523 4.477-10 10-10h65.375c-5.523 0-10 4.477-10 10v10c0 5.523 4.477 10 10 10zm-9.159 170c0-5.523 4.477-10 10-10h-26.216c-5.523 0-10 4.477-10 10s4.477 10 10 10h26.216c-5.523 0-10-4.477-10-10z" fill="#a2abb8"/><path d="m135.774 279.245v81.51c0 2.761-2.239 5-5 5h-42.431c-2.761 0-5-2.239-5-5v-81.51c0-2.761 2.239-5 5-5h42.431c2.762 0 5 2.239 5 5zm75.442-5h-42.431c-2.761 0-5 2.239-5 5v81.51c0 2.761 2.239 5 5 5h42.431c2.761 0 5-2.239 5-5v-81.51c0-2.761-2.239-5-5-5zm80.441 0h-42.431c-2.761 0-5 2.239-5 5v81.51c0 2.761 2.239 5 5 5h42.431c2.761 0 5-2.239 5-5v-81.51c0-2.761-2.238-5-5-5z" fill="#ffb52d"/><path d="m135.774 279.245v81.51c0 2.761-2.239 5-5 5h-19.107c-2.761 0-5-2.239-5-5v-81.51c0-2.761 2.239-5 5-5h19.107c2.762 0 5 2.239 5 5zm75.442-5h-19.108c-2.761 0-5 2.239-5 5v81.51c0 2.761 2.239 5 5 5h19.108c2.761 0 5-2.239 5-5v-81.51c0-2.761-2.239-5-5-5zm80.441 0h-19.107c-2.761 0-5 2.239-5 5v81.51c0 2.761 2.239 5 5 5h19.108c2.761 0 5-2.239 5-5v-81.51c-.001-2.761-2.239-5-5.001-5z" fill="#ffc14f"/><path d="m130.774 370.755h-42.431c-5.514 0-10-4.486-10-10v-81.51c0-5.514 4.486-10 10-10h42.432c5.514 0 10 4.486 10 10v81.51c-.001 5.514-4.486 10-10.001 10zm-42.431-91.51v81.51h42.438l-.006-81.509h-42.432zm122.873 91.51h-42.432c-5.514 0-10-4.486-10-10v-81.51c0-5.514 4.486-10 10-10h42.432c5.514 0 10 4.486 10 10v81.51c0 5.514-4.486 10-10 10zm-42.432-91.51v81.51h42.438l-.006-81.509h-42.432zm122.873 91.51h-42.432c-5.514 0-10-4.486-10-10v-81.51c0-5.514 4.486-10 10-10h42.432c5.514 0 10 4.486 10 10v81.51c0 5.514-4.486 10-10 10zm-42.431-91.51v81.51h42.438l-.007-81.509h-42.431z" fill="#fff"/><path d="m350 220h-320c-5.523 0-10-4.477-10-10 0-5.523 4.477-10 10-10h320c5.523 0 10 4.477 10 10 0 5.523-4.477 10-10 10z" fill="#c8d2dc"/><path d="m350 220h-259.128c-5.523 0-10-4.477-10-10s4.477-10 10-10h259.128c5.523 0 10 4.477 10 10s-4.477 10-10 10z" fill="#dce6eb"/></g></svg>