<svg id="Capa_1" enable-background="new 0 0 512 512" height="512" viewBox="0 0 512 512" width="512" xmlns="http://www.w3.org/2000/svg"><g><path d="m511.998 256.945c-.514 142.461-115.537 256.135-257.994 255.047-2.518-.019-5.028-.075-7.529-.166-2.494-.091-4.475-2.124-4.475-4.619v-226.207h-218.471c-12.927 0-23.443-10.432-23.524-23.358-.004-.685-.006-1.37-.005-2.056.226-142.562 118.125-258.092 260.665-255.545 139.546 2.494 251.84 116.644 251.333 256.904z" fill="#07a9f0"/><path d="m456 273c0 110.457-89.543 200-200 200s-200-89.543-200-200 89.543-200 200-200 200 89.543 200 200z" fill="#40c1fa"/><path d="m404 229.5h-115v-137.5c0-11.028-8.972-20-20-20h-194c-11.028 0-20 8.972-20 20v156c0 11.028 8.972 20 20 20h84.5v137.5c0 11.028 8.972 20 20 20h224.5c11.028 0 20-8.972 20-20v-156c0-11.028-8.972-20-20-20zm-244.5 20v8.5h-84.5c-5.514 0-10-4.486-10-10v-156c0-5.514 4.486-10 10-10h194c5.514 0 10 4.486 10 10v137.5h-99.5c-11.028 0-20 8.972-20 20zm119.5-10v8.5c0 5.514-4.486 10-10 10h-99.5v-8.5c0-5.514 4.486-10 10-10zm135 166c0 5.514-4.486 10-10 10h-224.5c-5.514 0-10-4.486-10-10v-137.5h99.5c11.028 0 20-8.972 20-20v-8.5h115c5.514 0 10 4.486 10 10z" fill="#2476ed"/><path d="m436.148 306.432c1.116-.235 1.999.927 1.457 1.93-3.557 6.578-10.693 10.937-18.798 10.466-10.048-.584-18.188-8.724-18.772-18.772-.471-8.105 3.888-15.241 10.466-18.798 1.003-.542 2.165.341 1.93 1.457-.359 1.702-.502 3.484-.398 5.315.572 10.064 8.735 18.227 18.799 18.799 1.832.104 3.614-.038 5.316-.397zm-360-86.863c1.116-.235 1.999.927 1.457 1.93-3.557 6.578-10.693 10.937-18.798 10.466-10.048-.584-18.188-8.724-18.772-18.772-.471-8.105 3.888-15.241 10.466-18.798 1.003-.542 2.165.341 1.93 1.457-.359 1.702-.502 3.484-.398 5.315.572 10.064 8.735 18.227 18.799 18.799 1.832.105 3.614-.038 5.316-.397z" fill="#f29500"/><path d="m440 298.863c0 3.466-.882 6.725-2.433 9.567-2.842 1.551-6.102 2.433-9.567 2.433-11.046 0-20-8.954-20-20 0-3.466.882-6.725 2.433-9.567 2.842-1.551 6.102-2.433 9.567-2.433 11.046 0 20 8.954 20 20zm-360-86.863c0 3.466-.882 6.725-2.433 9.567-2.842 1.551-6.101 2.433-9.567 2.433-11.046 0-20-8.954-20-20 0-3.466.882-6.725 2.433-9.567 2.842-1.552 6.101-2.433 9.567-2.433 11.046 0 20 8.954 20 20z" fill="#ffb52d"/><path d="m512 221c0 38.66-31.34 70-70 70h-272c-38.66 0-70-31.34-70-70 0-38.66 31.34-70 70-70 11.046 0 20-8.954 20-20v-10c0-38.66 31.34-70 70-70h92c38.66 0 70 31.34 70 70v10c0 11.046 8.954 20 20 20 38.66 0 70 31.34 70 70z" fill="#dce6eb"/><path d="m172.532 291h-2.532c-38.66 0-70-31.34-70-70s31.34-70 70-70c11.046 0 20-8.954 20-20v-10c0-38.66 31.34-70 70-70h48.448l-10.352 1.6c-40.546 6.265-68.337 44.213-62.072 84.759l1.621 10.488c1.79 11.584-6.15 22.427-17.735 24.217-40.546 6.265-68.337 44.212-62.072 84.759 1.997 12.916 7.208 24.538 14.694 34.177z" fill="#c8d2dc"/><path d="m242 231v280.624c-117.782-6.348-214.402-92.31-237-205.024v-75.6c0-5.523 4.477-10 10-10h217c5.523 0 10 4.477 10 10z" fill="#0a4499"/><path d="m239.5 221v55.958h-171.521c-15.453-.001-27.979-12.527-27.979-27.979 0-15.453 12.526-27.979 27.979-27.979zm-199.5 85.841c0 15.452 12.526 27.979 27.979 27.979h171.521v-55.958h-171.521c-15.453.001-27.979 12.527-27.979 27.979zm16 57.081c0 15.452 12.526 27.979 27.979 27.979h155.521v-55.958h-155.521c-15.453 0-27.979 12.527-27.979 27.979zm39.553 57.081c0 15.452 12.526 27.979 27.979 27.979h115.968v-55.958h-115.968c-15.452 0-27.979 12.527-27.979 27.979zm52.197 57.081c0 3.908.802 7.629 2.249 11.008 16.15 7.356 33.198 13.083 50.935 16.971h38.566v-55.957h-63.771c-15.453-.001-27.979 12.526-27.979 27.978z" fill="#0956c6"/><path d="m232 216h-217c-8.271 0-15 6.729-15 15v25c0 24.667 3.489 48.519 10 71.09v-44.09h227v47h-226.142c1.014 3.363 2.095 6.697 3.242 10h222.9v47h-200.989c2.02 3.385 4.116 6.719 6.285 10h194.704v47h-154.76c3.725 3.444 7.552 6.779 11.477 10h143.283v48h-52.09c19.814 5.716 40.616 9.103 62.09 9.845v-280.845c0-8.271-6.729-15-15-15zm5 57h-227v-42c0-2.757 2.243-5 5-5h217c2.757 0 5 2.243 5 5z" fill="#203e76"/><path d="m220 260c0 2.761-2.239 5-5 5h-60c-2.761 0-5-2.239-5-5s2.239-5 5-5h60c2.761 0 5 2.238 5 5zm-5 88h-60c-2.761 0-5 2.239-5 5s2.239 5 5 5h60c2.761 0 5-2.239 5-5s-2.239-5-5-5zm0-35.97h-60c-2.761 0-5 2.239-5 5s2.239 5 5 5h60c2.761 0 5-2.239 5-5s-2.239-5-5-5zm0-20h-60c-2.761 0-5 2.239-5 5s2.239 5 5 5h60c2.761 0 5-2.239 5-5 0-2.762-2.239-5-5-5zm0 190.97h-60c-2.761 0-5 2.239-5 5 0 .397.046.783.134 1.153 2.939 1.337 5.908 2.619 8.905 3.847h55.961c2.761 0 5-2.239 5-5s-2.239-5-5-5zm-60-238h60c2.761 0 5-2.239 5-5s-2.239-5-5-5h-60c-2.761 0-5 2.239-5 5s2.239 5 5 5zm60 218h-60c-2.761 0-5 2.239-5 5s2.239 5 5 5h60c2.761 0 5-2.239 5-5s-2.239-5-5-5zm0-37h-60c-2.761 0-5 2.239-5 5s2.239 5 5 5h60c2.761 0 5-2.239 5-5s-2.239-5-5-5zm0-58h-60c-2.761 0-5 2.239-5 5s2.239 5 5 5h60c2.761 0 5-2.239 5-5s-2.239-5-5-5zm0 38h-60c-2.761 0-5 2.239-5 5s2.239 5 5 5h60c2.761 0 5-2.239 5-5s-2.239-5-5-5z" fill="#5596fb"/><path d="m55 317.03c0 2.761-2.239 5-5 5s-5-2.239-5-5 2.239-5 5-5 5 2.238 5 5zm-5 30.97c-2.761 0-5 2.239-5 5s2.239 5 5 5 5-2.239 5-5-2.239-5-5-5zm20-93c-2.761 0-5 2.239-5 5s2.239 5 5 5 5-2.239 5-5-2.239-5-5-5zm-20 113c-2.761 0-5 2.239-5 5s2.239 5 5 5 5-2.239 5-5-2.239-5-5-5zm20 38c-2.761 0-5 2.239-5 5s2.239 5 5 5 5-2.239 5-5-2.239-5-5-5zm0 20c-1.531 0-2.901.688-3.818 1.772 2.223 2.456 4.493 4.867 6.809 7.235 1.219-.912 2.009-2.367 2.009-4.007 0-2.762-2.239-5-5-5zm0-78c-2.761 0-5 2.239-5 5s2.239 5 5 5 5-2.239 5-5-2.239-5-5-5zm-35 25c0-2.761-2.239-5-5-5-1.384 0-2.636.562-3.542 1.471 1.411 2.85 2.874 5.669 4.387 8.458 2.359-.403 4.155-2.456 4.155-4.929zm-5-50.97c2.761 0 5-2.239 5-5s-2.239-5-5-5-5 2.239-5 5 2.239 5 5 5zm20-30c-2.761 0-5 2.239-5 5s2.239 5 5 5 5-2.239 5-5c0-2.762-2.239-5-5-5zm20-57.03c-2.761 0-5 2.239-5 5s2.239 5 5 5 5-2.239 5-5-2.239-5-5-5zm-40 20c-2.761 0-5 2.239-5 5s2.239 5 5 5 5-2.239 5-5-2.239-5-5-5zm0-20c-2.761 0-5 2.239-5 5s2.239 5 5 5 5-2.239 5-5-2.239-5-5-5zm0 57.03c-2.761 0-5 2.239-5 5s2.239 5 5 5 5-2.239 5-5c0-2.762-2.239-5-5-5z" fill="#2476ed"/><path d="m35 353c0 2.761-2.239 5-5 5s-5-2.239-5-5 2.239-5 5-5 5 2.238 5 5zm15-98c-2.761 0-5 2.239-5 5s2.239 5 5 5 5-2.239 5-5-2.239-5-5-5zm20 47.03c2.761 0 5-2.239 5-5s-2.239-5-5-5-5 2.239-5 5 2.239 5 5 5zm0 65.97c-2.761 0-5 2.239-5 5s2.239 5 5 5 5-2.239 5-5-2.239-5-5-5zm-20-133c-2.761 0-5 2.239-5 5s2.239 5 5 5 5-2.239 5-5-2.239-5-5-5zm20 77.03c-2.761 0-5 2.239-5 5s2.239 5 5 5 5-2.239 5-5-2.239-5-5-5z" fill="#fff"/><path d="m337.076 93.142c-1.276-.269-2.613-.376-3.986-.298-7.548.429-13.67 6.552-14.099 14.099-.078 1.374.029 2.71.298 3.986.177.837-.695 1.499-1.447 1.093-4.934-2.668-8.203-8.02-7.85-14.098.438-7.536 6.543-13.641 14.079-14.079 6.079-.353 11.431 2.916 14.098 7.85.406.751-.256 1.623-1.093 1.447zm-11.985-27.142c5.523 0 10-4.477 10-10s-4.477-10-10-10-10 4.477-10 10 4.477 10 10 10z" fill="#ffb52d"/><path d="m332.591 147.587v41.649c0 4.143-3.357 7.5-7.5 7.5s-7.5-3.357-7.5-7.5v-41.649c0-4.143 3.357-7.5 7.5-7.5s7.5 3.357 7.5 7.5zm24.625-25.851c-4.143 0-7.5 3.357-7.5 7.5v25.287c0 4.143 3.357 7.5 7.5 7.5s7.5-3.357 7.5-7.5v-25.287c0-4.143-3.358-7.5-7.5-7.5zm-64 0c-4.143 0-7.5 3.357-7.5 7.5v25.287c0 4.143 3.357 7.5 7.5 7.5s7.5-3.357 7.5-7.5v-25.287c0-4.143-3.358-7.5-7.5-7.5zm37.749-31.918c-8.284 0-15 6.716-15 15 0 2.599.661 5.044 1.825 7.175 2.131 1.163 4.576 1.825 7.175 1.825 8.284 0 15-6.716 15-15 0-2.599-.661-5.044-1.825-7.175-2.131-1.163-4.575-1.825-7.175-1.825zm33.501 111.418v100.962c0 4.143-3.357 7.5-7.5 7.5s-7.5-3.358-7.5-7.5v-100.962c0-4.143 3.357-7.5 7.5-7.5s7.5 3.357 7.5 7.5zm-13.032 138.068-18.844 18.845v-134.562c0-4.143-3.357-7.5-7.5-7.5s-7.5 3.357-7.5 7.5v134.562l-18.845-18.845c-2.93-2.929-7.678-2.929-10.607 0-1.464 1.465-2.196 3.385-2.196 5.304s.732 3.839 2.196 5.304l31.648 31.648c1.407 1.406 3.314 2.196 5.304 2.196s3.896-.79 5.304-2.196l31.647-31.649c2.928-2.928 2.928-7.677 0-10.606-2.929-2.93-7.677-2.93-10.607-.001zm-58.468-29.606c4.143 0 7.5-3.358 7.5-7.5v-100.962c0-4.143-3.357-7.5-7.5-7.5s-7.5 3.357-7.5 7.5v100.962c0 4.142 3.357 7.5 7.5 7.5z" fill="#ffc14f"/></g></svg>