<svg id="Capa_1" enable-background="new 0 0 512 512" height="512" viewBox="0 0 512 512" width="512" xmlns="http://www.w3.org/2000/svg"><g><path d="m512 256c0 141.385-114.615 256-256 256s-256-114.615-256-256 114.615-256 256-256 256 114.615 256 256z" fill="#203e76"/><path d="m482 256c0 124.816-101.184 226-226 226s-226-101.184-226-226 101.184-226 226-226 226 101.184 226 226z" fill="#0a4499"/><path d="m452 256c0 108.248-87.752 196-196 196s-196-87.752-196-196 87.752-196 196-196 196 87.752 196 196z" fill="#0956c6"/><path d="m143.637 156.391-28.912 50.076c-2.68 4.641-7.631 7.5-12.99 7.5h-57.823c-5.359 0-10.311-2.859-12.99-7.5l-28.912-50.076c-2.68-4.641-2.68-10.359 0-15l28.912-50.077c2.68-4.641 7.631-7.5 12.99-7.5h57.823c5.359 0 10.311 2.859 12.99 7.5l28.912 50.077c2.68 4.641 2.68 10.359 0 15z" fill="#2476ed"/><path d="m143.637 141.391c2.68 4.641 2.68 10.359 0 15l-15.959 27.642c-4.887 1.133-9.978 1.732-15.209 1.732-37.05 0-67.084-30.035-67.084-67.084 0-12.769 3.568-24.705 9.761-34.866h46.59c5.359 0 10.311 2.859 12.99 7.5z" fill="#5596fb"/><path d="m33.893 151.037v13.519c0 3.733-3.026 6.759-6.759 6.759s-6.759-3.026-6.759-6.759v-13.519c0-3.733 3.026-6.759 6.759-6.759s6.759 3.026 6.759 6.759z" fill="#40c1fa"/><path d="m52.144 130.759c-3.733 0-6.759 3.026-6.759 6.759v27.037c0 3.733 3.026 6.759 6.759 6.759 3.733 0 6.759-3.026 6.759-6.759v-27.037c0-3.733-3.026-6.759-6.759-6.759zm25.685-27.037c-3.733 0-6.759 3.026-6.759 6.759v54.074c0 3.733 3.026 6.759 6.759 6.759 3.733 0 6.759-3.026 6.759-6.759v-54.074c0-3.733-3.026-6.759-6.759-6.759z" fill="#72d1fb"/><path d="m104.866 76.685c-3.733 0-6.759 3.026-6.759 6.759v81.111c0 3.733 3.026 6.759 6.759 6.759s6.759-3.026 6.759-6.759v-81.111c0-3.733-3.026-6.759-6.759-6.759z" fill="#93dcfc"/><path d="m466.864 286.659-82.998 143.756c-6.108 10.579-17.396 17.096-29.612 17.096h-165.994c-12.216 0-23.504-6.517-29.612-17.096l-82.998-143.756c-6.108-10.579-6.108-23.613 0-34.192l82.998-143.756c6.108-10.579 17.396-17.096 29.612-17.096h165.995c12.216 0 23.504 6.517 29.612 17.096l82.998 143.756c6.107 10.578 6.107 23.612-.001 34.192z" fill="#ffcd71"/><path d="m391.216 152.254c-2.965-5.136.741-11.556 6.672-11.556 2.752 0 5.296 1.468 6.672 3.852l62.305 107.916c6.108 10.579 6.108 23.613 0 34.192l-62.305 107.916c-1.376 2.384-3.919 3.852-6.672 3.852-5.93 0-9.637-6.42-6.672-11.556l57.857-100.212c6.108-10.579 6.108-23.613 0-34.192z" fill="#ffe7c0"/><path d="m449.073 286.659-74.102 128.348c-6.108 10.579-17.396 17.096-29.612 17.096h-148.204c-12.216 0-23.504-6.517-29.611-17.096l-74.102-128.348c-6.108-10.579-6.108-23.613 0-34.192l74.102-128.349c6.108-10.579 17.396-17.096 29.611-17.096h148.204c12.216 0 23.504 6.517 29.612 17.096l74.102 128.349c6.108 10.578 6.108 23.612 0 34.192z" fill="#f29500"/><path d="m449.073 252.466c6.108 10.579 6.108 23.613 0 34.192l-49.669 86.029c-17.078 5.192-35.201 7.985-53.976 7.985-102.328 0-185.282-82.953-185.282-185.282 0-30.178 7.216-58.67 20.014-83.847 5.089-2.915 10.927-4.523 16.994-4.523h148.204c12.216 0 23.504 6.517 29.612 17.096z" fill="#ffb52d"/><path d="m245.434 25 23.094 40c1.786 3.094 1.786 6.906 0 10l-23.094 40c-1.786 3.094-5.088 5-8.66 5h-46.188c-3.573 0-6.874-1.906-8.66-5l-23.094-40c-1.786-3.094-1.786-6.906 0-10l23.094-40c1.786-3.094 5.088-5 8.66-5h46.188c3.572 0 6.874 1.906 8.66 5z" fill="#40c1fa"/><path d="m268.528 65c1.786 3.094 1.786 6.906 0 10l-19.307 33.44c-32.047-13.886-54.467-45.801-54.467-82.951 0-1.843.056-3.673.164-5.489h41.855c3.573 0 6.874 1.906 8.66 5z" fill="#72d1fb"/><path d="m403.641 269.562c0 21.556-6.311 41.208-17.77 55.336-12.657 15.605-30.555 23.853-51.76 23.853-43.665 0-79.189-35.524-79.189-79.189s35.524-79.189 79.189-79.189c15.867 0 31.179 4.678 44.281 13.529 3.912 2.643 4.941 7.957 2.298 11.868-2.642 3.912-7.957 4.942-11.868 2.298-10.264-6.934-22.267-10.599-34.711-10.599-34.238 0-62.093 27.855-62.093 62.093s27.855 62.093 62.093 62.093c32.873 0 49.266-25.691 52.015-53.545h-33.298c-4.721 0-8.548-3.827-8.548-8.548s3.827-8.548 8.548-8.548h42.264c4.721 0 8.549 3.827 8.549 8.548zm-214.17-23.218c-7.282 0-12.874.619-17.796 1.769l6.657-40.176h44.407c4.721 0 8.548-3.827 8.548-8.548s-3.827-8.548-8.548-8.548h-51.655c-4.182 0-7.75 3.025-8.433 7.151l-10.233 61.764c-.528 3.183.791 6.388 3.395 8.293 2.604 1.906 6.068 2.175 8.941.71.086-.044.576-.289 1.389-.655 6.064-2.729 11.288-4.661 23.329-4.661 9.272 0 17.899 3.709 24.293 10.443 6.39 6.73 9.643 15.556 9.161 24.852-.905 17.423-15.294 31.348-32.759 31.7-16.92.319-31.533-12.043-33.872-28.811-.215-1.539-.324-3.115-.324-4.682 0-4.721-3.827-8.548-8.548-8.548s-8.548 3.827-8.548 8.548c0 2.356.164 4.727.488 7.046 3.488 24.998 24.933 43.553 50.114 43.551.343 0 .691-.004 1.035-.011 26.383-.532 48.12-21.575 49.487-47.907.728-14.024-4.186-27.346-13.836-37.509-9.654-10.171-22.685-15.771-36.692-15.771zm41.67-169.222c1.953-1.953 1.953-5.119 0-7.071-9.628-9.627-25.293-9.627-34.922 0-1.953 1.953-1.953 5.118 0 7.071 1.953 1.952 5.118 1.953 7.071 0 5.729-5.729 15.052-5.728 20.78 0 .977.976 2.256 1.464 3.536 1.464s2.559-.488 3.535-1.464zm11.099-15.042c1.953-1.953 1.953-5.119 0-7.071-15.748-15.747-41.371-15.748-57.12 0-1.953 1.953-1.953 5.119 0 7.071s5.118 1.953 7.071 0c11.849-11.85 31.129-11.85 42.978 0 .977.976 2.256 1.464 3.536 1.464s2.558-.488 3.535-1.464zm-28.09 20.651c-3.893 0-7.049 3.156-7.049 7.049s3.156 7.049 7.049 7.049 7.049-3.156 7.049-7.049-3.156-7.049-7.049-7.049z" fill="#fff"/></g></svg>