<svg id="Capa_1" enable-background="new 0 0 512 512" height="512" viewBox="0 0 512 512" width="512" xmlns="http://www.w3.org/2000/svg"><g><path d="m5.779 310.34c-3.894-18.015-5.892-36.736-5.774-55.944.866-141.354 115.207-254.702 256.563-254.395 141.123.306 255.432 114.803 255.432 255.999 0 18.663-1.997 36.859-5.789 54.386-.879 4.061-4.491 6.949-8.646 6.949h-483.075c-4.184 0-7.827-2.905-8.711-6.995z" fill="#ffb52d"/><path d="m458.021 256c0 111.573-90.448 202.021-202.021 202.021s-202.021-90.448-202.021-202.021 90.448-202.021 202.021-202.021 202.021 90.448 202.021 202.021z" fill="#ffc14f"/><path d="m506.294 310c-24.79 115.453-127.435 202-250.294 202s-225.504-86.547-250.294-202z" fill="#2476ed"/><path d="m179 167.5v122.5c0 4.142-3.358 7.5-7.5 7.5s-7.5-3.358-7.5-7.5v-122.5c0-4.142 3.358-7.5 7.5-7.5s7.5 3.358 7.5 7.5zm161.5-7.5c-4.142 0-7.5 3.358-7.5 7.5v122.5c0 4.142 3.358 7.5 7.5 7.5s7.5-3.358 7.5-7.5v-122.5c0-4.142-3.358-7.5-7.5-7.5zm-229.5-130c-4.142 0-7.5 3.358-7.5 7.5v185c0 4.142 3.358 7.5 7.5 7.5s7.5-3.358 7.5-7.5v-185c0-4.142-3.358-7.5-7.5-7.5zm290 0c-4.142 0-7.5 3.358-7.5 7.5v185c0 4.142 3.358 7.5 7.5 7.5s7.5-3.358 7.5-7.5v-185c0-4.142-3.358-7.5-7.5-7.5z" fill="#19305c"/><path d="m171 406c0 5.523-4.477 10-10 10h-50c-5.523 0-10-4.477-10-10s4.477-10 10-10h50c5.523 0 10 4.477 10 10zm230-10h-50c-5.523 0-10 4.477-10 10s4.477 10 10 10h50c5.523 0 10-4.477 10-10s-4.477-10-10-10z" fill="#19305c"/><path d="m179 157.5v15c0 4.142-3.358 7.5-7.5 7.5s-7.5-3.358-7.5-7.5v-15c0-4.142 3.358-7.5 7.5-7.5s7.5 3.358 7.5 7.5zm161.5-7.5c-4.142 0-7.5 3.358-7.5 7.5v15c0 4.142 3.358 7.5 7.5 7.5s7.5-3.358 7.5-7.5v-15c0-4.142-3.358-7.5-7.5-7.5zm-229.5-130c-4.142 0-7.5 3.358-7.5 7.5v15c0 4.142 3.358 7.5 7.5 7.5s7.5-3.358 7.5-7.5v-15c0-4.142-3.358-7.5-7.5-7.5zm290 0c-4.142 0-7.5 3.358-7.5 7.5v15c0 4.142 3.358 7.5 7.5 7.5s7.5-3.358 7.5-7.5v-15c0-4.142-3.358-7.5-7.5-7.5z" fill="#0956c6"/><path d="m278.819 237.504c1.953 1.953 1.953 5.119 0 7.071-.976.976-2.256 1.464-3.535 1.464s-2.56-.488-3.535-1.464c-4.211-4.211-9.805-6.53-15.749-6.53-5.945 0-11.538 2.319-15.75 6.53-1.951 1.952-5.119 1.952-7.07 0-1.953-1.953-1.953-5.119 0-7.071 6.1-6.1 14.204-9.459 22.82-9.459s16.72 3.36 22.819 9.459zm15.371-20.83c-10.208-10.208-23.771-15.831-38.19-15.831s-27.982 5.622-38.19 15.831c-1.953 1.953-1.953 5.119 0 7.071 1.951 1.952 5.119 1.952 7.07 0 8.32-8.32 19.372-12.902 31.12-12.902s22.8 4.582 31.12 12.902c.976.976 2.256 1.464 3.535 1.464s2.56-.488 3.535-1.464c1.954-1.952 1.954-5.118 0-7.071zm-37.539 37.031c-5.391 0-9.762 4.37-9.762 9.762 0 5.391 4.371 9.762 9.762 9.762s9.762-4.37 9.762-9.762-4.371-9.762-9.762-9.762z" fill="#fff5f5"/><path d="m446 330v30c0 19.299-15.701 35-35 35h-310c-19.299 0-35-15.701-35-35v-30c0-15.825 10.558-29.232 25-33.545v-96.455c0-5.523 4.477-10 10-10h20c5.523 0 10 4.477 10 10v95h20.5v-43.27c0-5.523 4.477-10 10-10h20c5.523 0 10 4.477 10 10v43.27h129v-43.27c0-5.523 4.477-10 10-10h20c5.523 0 10 4.477 10 10v43.27h20.5v-95c0-5.523 4.477-10 10-10h20c5.523 0 10 4.477 10 10v96.455c14.442 4.313 25 17.72 25 33.545z" fill="#c8d2dc"/><path d="m191.5 251.73v7.5c0 11.046-8.954 20-20 20s-20-8.954-20-20v-7.5c0-5.523 4.477-10 10-10h20c5.523 0 10 4.477 10 10zm159-10h-20c-5.523 0-10 4.477-10 10v7.5c0 11.046 8.954 20 20 20s20-8.954 20-20v-7.5c0-5.523-4.477-10-10-10zm-229.5-51.73h-20c-5.523 0-10 4.477-10 10v40c0 11.046 8.954 20 20 20s20-8.954 20-20v-40c0-5.523-4.477-10-10-10zm290 0h-20c-5.523 0-10 4.477-10 10v40c0 11.046 8.954 20 20 20s20-8.954 20-20v-40c0-5.523-4.477-10-10-10zm7.737 205c15.033 0 27.263-15.701 27.263-35v-30c0-19.299-12.23-35-27.263-35h-241.474c-15.033 0-27.263 15.701-27.263 35v30c0 19.299 12.23 35 27.263 35z" fill="#dce6eb"/><path d="m411 300c16.542 0 30 13.458 30 30v30c0 16.542-13.458 30-30 30h-310c-16.542 0-30-13.458-30-30v-30c0-16.542 13.458-30 30-30zm0-10h-310c-22.091 0-40 17.909-40 40v30c0 22.091 17.909 40 40 40h310c22.091 0 40-17.909 40-40v-30c0-22.091-17.909-40-40-40zm-201 35c0-2.761-2.239-5-5-5h-100c-2.761 0-5 2.239-5 5 0 2.761 2.239 5 5 5h100c2.761 0 5-2.239 5-5zm0 20c0-2.761-2.239-5-5-5h-100c-2.761 0-5 2.239-5 5 0 2.761 2.239 5 5 5h100c2.761 0 5-2.239 5-5zm0 20c0-2.761-2.239-5-5-5h-100c-2.761 0-5 2.239-5 5 0 2.761 2.239 5 5 5h100c2.761 0 5-2.239 5-5zm200-40c0-2.761-2.239-5-5-5h-10c-2.761 0-5 2.239-5 5 0 2.761 2.239 5 5 5h10c2.761 0 5-2.239 5-5zm0 20c0-2.761-2.239-5-5-5h-10c-2.761 0-5 2.239-5 5 0 2.761 2.239 5 5 5h10c2.761 0 5-2.239 5-5zm0 20c0-2.761-2.239-5-5-5h-10c-2.761 0-5 2.239-5 5 0 2.761 2.239 5 5 5h10c2.761 0 5-2.239 5-5z" fill="#b9c3cd"/><path d="m335.219 132.746c-16.006 29.601-48.117 49.216-84.59 47.098-45.215-2.626-81.847-39.257-84.473-84.473-2.118-36.473 17.497-68.584 47.098-84.59 4.514-2.441 9.744 1.533 8.684 6.555-1.616 7.659-2.258 15.677-1.789 23.918 2.575 45.287 39.31 82.022 84.597 84.597 8.241.469 16.259-.173 23.918-1.789 5.022-1.06 8.996 4.169 6.555 8.684z" fill="#0956c6"/><path d="m346 90c0 15.596-3.968 30.264-10.947 43.053-12.789 6.979-27.458 10.947-43.053 10.947-49.706 0-90-40.294-90-90 0-15.595 3.968-30.264 10.947-43.053 12.789-6.979 27.457-10.947 43.053-10.947 49.706 0 90 40.294 90 90z" fill="#2476ed"/><path d="m324.235 90c0 23.666-14.549 40.194-35.381 40.194-22.163 0-40.193-18.031-40.193-40.194s18.03-40.194 40.193-40.194c8.054 0 15.826 2.375 22.477 6.868 2.288 1.546 2.891 4.654 1.345 6.942-1.547 2.288-4.654 2.891-6.942 1.344-4.991-3.372-10.827-5.154-16.879-5.154-16.648 0-30.193 13.545-30.193 30.194s13.545 30.194 30.193 30.194c16.522 0 23.644-12.651 25.094-25.194h-15.769c-2.762 0-5-2.239-5-5s2.238-5 5-5h21.056c2.761 0 4.999 2.239 4.999 5zm-110.522-11.922c-3.174 0-5.718.232-7.956.668l3.035-18.321h21.495c2.762 0 5-2.239 5-5s-2.238-5-5-5h-25.734c-2.446 0-4.533 1.77-4.933 4.183l-5.099 30.771c-.309 1.862.464 3.735 1.986 4.849 1.523 1.115 3.549 1.273 5.23.416.048-.024.278-.14.656-.31 2.937-1.321 5.467-2.257 11.318-2.257 4.414 0 8.521 1.766 11.566 4.973 3.042 3.204 4.591 7.406 4.361 11.832-.431 8.294-7.281 14.923-15.596 15.09-8.062.172-15.014-5.733-16.127-13.712-.103-.737-.154-1.489-.154-2.234 0-2.761-2.238-5-5-5s-5 2.239-5 5c0 1.204.084 2.419.25 3.614 1.79 12.82 12.789 22.335 25.701 22.335.177 0 .354-.002.531-.005 13.53-.272 24.68-11.064 25.381-24.57.373-7.192-2.146-14.023-7.096-19.236-4.877-5.138-11.735-8.086-18.815-8.086z" fill="#fff"/></g></svg>