<svg id="Capa_1" enable-background="new 0 0 512 512" height="512" viewBox="0 0 512 512" width="512" xmlns="http://www.w3.org/2000/svg"><g><path d="m512 256c0 141.385-114.615 256-256 256s-256-114.615-256-256 114.615-256 256-256 256 114.615 256 256z" fill="#203e76"/><path d="m448.033 275.361c0 112.39-91.11 203.5-203.5 203.5s-203.5-91.11-203.5-203.5 91.11-203.5 203.5-203.5 203.5 91.11 203.5 203.5z" fill="#274c91"/><path d="m223.681 67.282v220.909c0 2.761-2.239 5-5 5h-183.681c-2.761 0-5-2.239-5-5v-220.909c0-2.761 2.239-5 5-5h183.681c2.761 0 5 2.239 5 5z" fill="#ea552d"/><path d="m417.362 67.282v220.909c0 2.761-2.239 5-5 5h-183.077c-63.764 0-115.454-51.691-115.454-115.454 0-63.764 51.691-115.454 115.454-115.454h183.077c2.761-.001 5 2.238 5 4.999z" fill="#f76937"/><path d="m124.166 244.342c0 3.056-2.478 5.534-5.534 5.534h-62.07c-3.056 0-5.534-2.477-5.534-5.534s2.478-5.534 5.534-5.534h62.07c3.056 0 5.534 2.478 5.534 5.534z" fill="#ff956a"/><path d="m268.147 244.342c0 3.056-2.478 5.534-5.534 5.534h-177.079c-3.056 0-5.534-2.477-5.534-5.534s2.478-5.534 5.534-5.534h177.08c3.056 0 5.533 2.478 5.533 5.534z" fill="#ffc5ae"/><path d="m417.362 32.75v35h-387.362v-35c0-2.761 2.239-5 5-5h377.362c2.761 0 5 2.239 5 5z" fill="#97bffd"/><path d="m417.362 32.75v35h-229.838v-35c0-2.761 2.239-5 5-5h219.837c2.762 0 5.001 2.239 5.001 5z" fill="#b9d3fd"/><path d="m57.5 47.75c0 4.142-3.358 7.5-7.5 7.5s-7.5-3.358-7.5-7.5 3.358-7.5 7.5-7.5 7.5 3.358 7.5 7.5zm22.5-7.5c-4.142 0-7.5 3.358-7.5 7.5s3.358 7.5 7.5 7.5 7.5-3.358 7.5-7.5-3.358-7.5-7.5-7.5zm30 0c-4.142 0-7.5 3.358-7.5 7.5s3.358 7.5 7.5 7.5 7.5-3.358 7.5-7.5-3.358-7.5-7.5-7.5z" fill="#5596fb"/><path d="m397.362 47.75c0 4.142-3.358 7.5-7.5 7.5h-252.362c-4.142 0-7.5-3.358-7.5-7.5s3.358-7.5 7.5-7.5h252.362c4.142 0 7.5 3.358 7.5 7.5zm-149.782 108.223-42.687-30.184c-2.932-2.073-6.983.023-6.983 3.615v60.368c0 3.591 4.051 5.688 6.983 3.615l42.687-30.184c2.495-1.765 2.495-5.466 0-7.23zm-126.181 72.321c-9.169 0-16.601 7.433-16.601 16.601s7.433 16.601 16.601 16.601 16.601-7.432 16.601-16.601-7.433-16.601-16.601-16.601z" fill="#fff5f5"/><path d="m178 358.449v37.416c0 5.523-4.477 10-10 10h-83c-5.523 0-10-4.477-10-10v-37.416c0-5.523 4.477-10 10-10h83c5.523 0 10 4.477 10 10z" fill="#ffb52d"/><path d="m105.545 405.865h-20.545c-5.523 0-10-4.477-10-10v-37.416c0-5.523 4.477-10 10-10h20.545c-5.523 0-10 4.477-10 10v37.416c0 5.523 4.477 10 10 10z" fill="#f29500"/><path d="m512 175.042v78.823c0 5.523-4.477 10-10 10h-120c-5.523 0-10-4.477-10-10v-78.823c0-5.523 4.477-10 10-10h120c5.523 0 10 4.477 10 10z" fill="#b9c3cd"/><path d="m406.511 263.865h-24.511c-5.523 0-10-4.477-10-10v-78.823c0-5.523 4.477-10 10-10h24.511c-5.523 0-10 4.477-10 10v78.823c0 5.523 4.477 10 10 10z" fill="#a2abb8"/><path d="m392 184.454c0-2.761 2.239-5 5-5h90c2.761 0 5 2.239 5 5s-2.239 5-5 5h-90c-2.761 0-5-2.239-5-5zm5 25h70c2.761 0 5-2.239 5-5s-2.239-5-5-5h-70c-2.761 0-5 2.239-5 5s2.239 5 5 5zm90 10h-90c-2.761 0-5 2.239-5 5s2.239 5 5 5h90c2.761 0 5-2.239 5-5 0-2.762-2.239-5-5-5z" fill="#dce6eb"/><path d="m300 218.824v30c0 5.523-4.477 10-10 10h-80c-5.523 0-10-4.477-10-10v-30c0-5.523 4.477-10 10-10h80c5.523 0 10 4.477 10 10z" fill="#f29500"/><path d="m301.39 218.824v30c0 5.523-4.477 10-10 10h-52.22c-5.523 0-10-4.477-10-10v-30c0-5.523 4.477-10 10-10h52.219c5.523 0 10.001 4.477 10.001 10z" fill="#ffa90b"/><path d="m480 248.824v180c0 5.523-4.477 10-10 10h-260c-5.523 0-10-4.477-10-10v-190h270c5.523 0 10 4.477 10 10z" fill="#ffc14f"/><path d="m238.936 438.824h-28.936c-5.523 0-10-4.477-10-10v-190h28.936v190c0 5.523 4.477 10 10 10z" fill="#ffb52d"/><path d="m268 467.866h-120c-5.523 0-10-4.477-10-10v-58.042c0-5.523 4.477-10 10-10h120c5.523 0 10 4.477 10 10v58.042c0 5.522-4.477 10-10 10z" fill="#2476ed"/><path d="m268 467.865h-95.149c-5.523 0-10-4.477-10-10v-58.042c0-5.523 4.477-10 10-10h95.149c5.523 0 10 4.477 10 10v58.042c0 5.523-4.477 10-10 10z" fill="#5596fb"/><path d="m258 428.454c0 2.761-2.239 5-5 5h-90c-2.761 0-5-2.239-5-5s2.239-5 5-5h90c2.761 0 5 2.238 5 5zm-95-15h70c2.761 0 5-2.239 5-5s-2.239-5-5-5h-70c-2.761 0-5 2.239-5 5s2.239 5 5 5zm40 30h-40c-2.761 0-5 2.239-5 5s2.239 5 5 5h40c2.761 0 5-2.239 5-5 0-2.762-2.239-5-5-5z" fill="#0956c6"/><path d="m412.352 352.335c0 4.143-3.357 7.5-7.5 7.5h-100.962c-4.143 0-7.5-3.357-7.5-7.5s3.357-7.5 7.5-7.5h100.962c4.142 0 7.5 3.357 7.5 7.5zm-108.462-56.5h100.962c4.143 0 7.5-3.357 7.5-7.5s-3.357-7.5-7.5-7.5h-100.962c-4.143 0-7.5 3.357-7.5 7.5s3.357 7.5 7.5 7.5zm180.323 19.071-31.649-31.647c-2.928-2.928-7.677-2.928-10.606 0-2.929 2.93-2.929 7.678 0 10.607l18.845 18.844h-134.563c-4.143 0-7.5 3.357-7.5 7.5s3.357 7.5 7.5 7.5h134.562l-18.845 18.845c-2.929 2.93-2.929 7.678 0 10.607 1.465 1.464 3.385 2.196 5.304 2.196s3.839-.732 5.304-2.196l31.648-31.648c1.406-1.407 2.196-3.314 2.196-5.304s-.79-3.897-2.196-5.304z" fill="#fff5f5"/><path d="m154.92 327.459c-2.668 4.933-8.02 8.203-14.098 7.85-7.536-.438-13.641-6.543-14.079-14.079-.353-6.079 2.916-11.431 7.85-14.098.752-.407 1.624.256 1.447 1.093-.269 1.276-.376 2.613-.298 3.986.429 7.548 6.552 13.67 14.099 14.099 1.374.078 2.71-.029 3.986-.298.838-.176 1.5.695 1.093 1.447zm61.104.54c-1.723.364-3.527.508-5.382.403-10.189-.579-18.455-8.845-19.034-19.034-.105-1.854.039-3.658.403-5.382.238-1.13-.938-2.024-1.954-1.475-6.66 3.601-11.074 10.826-10.597 19.033.591 10.173 8.833 18.415 19.006 19.006 8.206.477 15.432-3.937 19.033-10.597.549-1.016-.345-2.192-1.475-1.954z" fill="#c8d2dc"/><path d="m156.717 320.335c0 2.599-.661 5.044-1.825 7.175-2.131 1.163-4.576 1.825-7.175 1.825-8.284 0-15-6.716-15-15 0-2.599.661-5.044 1.825-7.175 2.131-1.163 4.576-1.825 7.175-1.825 8.284 0 15 6.716 15 15zm75.173-24.75h25.287c4.143 0 7.5-3.357 7.5-7.5s-3.357-7.5-7.5-7.5h-25.287c-4.143 0-7.5 3.357-7.5 7.5s3.357 7.5 7.5 7.5zm25.287 49h-25.287c-4.143 0-7.5 3.357-7.5 7.5s3.357 7.5 7.5 7.5h25.287c4.143 0 7.5-3.357 7.5-7.5s-3.358-7.5-7.5-7.5zm34.713-31.875h-41.65c-4.143 0-7.5 3.357-7.5 7.5s3.357 7.5 7.5 7.5h41.649c4.143 0 7.5-3.357 7.5-7.5s-3.357-7.5-7.499-7.5zm-92.215-12.625c-3.509 0-6.81.893-9.687 2.463-1.57 2.877-2.463 6.178-2.463 9.687 0 11.184 9.066 20.25 20.25 20.25 3.509 0 6.81-.893 9.687-2.463 1.57-2.877 2.463-6.178 2.463-9.687 0-11.184-9.067-20.25-20.25-20.25z" fill="#dce6eb"/></g></svg>