<svg id="Capa_1" enable-background="new 0 0 512 512" height="512" viewBox="0 0 512 512" width="512" xmlns="http://www.w3.org/2000/svg"><g><path d="m512 256c0 29.863-5.113 58.532-14.512 85.179-.336.952-3.453 1.855-3.8 2.802-1.174 3.207-2.411 6.384-3.709 9.53-.361.876 2.049 1.797 1.678 2.668-25.892 60.83-74.648 109.586-135.478 135.478-1.489.634-2.985-1.348-4.488-.742-2.482 1.001-4.983 2.054-7.503 2.979-1 .367-2.003 3.239-3.009 3.594-26.647 9.399-55.316 14.512-85.179 14.512s-58.532-5.113-85.179-14.512c-1.341-.473-1.256-4.546-2.587-5.041-2.62-.974-5.22-1.99-7.799-3.046-1.068-.437-3.553 2.707-4.613 2.256-60.83-25.892-109.586-74.648-135.478-135.478-.536-1.258 3.3-2.123 2.784-3.392-1.289-3.169-2.516-6.37-3.68-9.601-.193-.535-4.745-1.47-4.935-2.007-9.4-26.647-14.513-55.316-14.513-85.179s5.113-58.532 14.512-85.179c.479-1.359 5.276-1.652 5.777-3 1.002-2.693 2.047-5.364 3.136-8.013.402-.979-3.496-3.015-3.082-3.987 25.892-60.829 74.649-109.586 135.478-135.477.929-.396 1.571 2.353 2.507 1.968 3.102-1.277 6.234-2.494 9.396-3.652.933-.342 2.159-3.816 3.098-4.147 26.646-9.4 55.315-14.513 85.178-14.513s58.532 5.113 85.179 14.512c1.111.392 1.962 4.457 3.065 4.863 2.627.968 5.234 1.978 7.82 3.028 1.291.525 2.834-2.606 4.115-2.061 60.83 25.892 109.586 74.648 135.478 135.478.447 1.05-1.924 2.139-1.49 3.196 1.196 2.918 2.339 5.863 3.43 8.834.366.999 3.538 1.966 3.892 2.97 9.398 26.648 14.511 55.317 14.511 85.18z" fill="#07a9f0"/><path d="m466.745 256c0 116.391-94.354 210.745-210.745 210.745s-210.745-94.354-210.745-210.745 94.354-210.745 210.745-210.745 210.745 94.354 210.745 210.745z" fill="#40c1fa"/><path d="m356.179 170.821h141.309c-1.79-5.075-3.736-10.077-5.831-15h-135.478v-135.477c-4.923-2.095-9.925-4.041-15-5.831v141.309h-170.358v-141.31c-5.075 1.79-10.077 3.736-15 5.831v135.478h-135.477c-2.095 4.923-4.041 9.925-5.831 15h141.309v170.357h-141.31c1.79 5.075 3.736 10.077 5.831 15h135.478v135.478c4.923 2.095 9.925 4.041 15 5.831v-141.308h170.357v141.309c5.075-1.79 10.077-3.736 15-5.831v-135.478h135.478c2.095-4.923 4.041-9.925 5.831-15h-141.308zm-15 170.358h-170.358v-170.358h170.357v170.358z" fill="#72d1fb"/><path d="m260 76.5v360c0 16.569-13.431 30-30 30h-53.5c-16.569 0-30-13.431-30-30v-360c0-16.569 13.431-30 30-30h53.5c16.569 0 30 13.431 30 30z" fill="#b9d3fd"/><path d="m365.5 77v360c0 16.569-13.431 30-30 30h-115.5c-16.569 0-30-13.431-30-30v-360c0-16.569 13.431-30 30-30h115.5c16.569 0 30 13.431 30 30z" fill="#dce6eb"/><path d="m340 75v20c0 2.761-2.239 5-5 5s-5-2.239-5-5v-20c0-2.761 2.239-5 5-5s5 2.239 5 5zm-25 5c-2.761 0-5 2.239-5 5v10c0 2.761 2.239 5 5 5s5-2.239 5-5v-10c0-2.761-2.239-5-5-5zm-20 10c-2.761 0-5 2.239-5 5s2.239 5 5 5 5-2.239 5-5-2.239-5-5-5zm-100-20h-20c-2.761 0-5 2.239-5 5s2.239 5 5 5h20c2.761 0 5-2.239 5-5s-2.239-5-5-5zm0 20h-20c-2.761 0-5 2.239-5 5s2.239 5 5 5h20c2.761 0 5-2.239 5-5s-2.239-5-5-5zm77 320h-32c-5.523 0-10 4.477-10 10s4.477 10 10 10h32c5.523 0 10-4.477 10-10s-4.477-10-10-10z" fill="#97bffd"/><path d="m373 80.2v-4.2c0-20.678-16.822-37.5-37.5-37.5h-159c-20.678 0-37.5 16.822-37.5 37.5v4.2c-4.564.927-8 4.962-8 9.8v26.154c0 4.838 3.436 8.873 8 9.8v8.093c-4.564.927-8 4.962-8 9.8v26.153c0 4.838 3.436 8.873 8 9.8v256.2c0 20.678 16.822 37.5 37.5 37.5h159c20.678 0 37.5-16.822 37.5-37.5v-296.2c4.564-.927 8-4.962 8-9.8v-40c0-4.838-3.436-8.873-8-9.8zm-15 355.8c0 12.407-10.094 22.5-22.5 22.5h-159c-12.406 0-22.5-10.093-22.5-22.5v-360c0-12.407 10.094-22.5 22.5-22.5h49.5v6.5c0 5.523 4.477 10 10 10h40c5.523 0 10-4.477 10-10v-6.5h49.5c12.406 0 22.5 10.093 22.5 22.5z" fill="#203e76"/><path d="m276 55c0 2.761-2.239 5-5 5h-30c-2.761 0-5-2.239-5-5s2.239-5 5-5h30c2.761 0 5 2.239 5 5z" fill="#2e5aac"/><path d="m485.993 120.48c0 13.085-6.018 24.765-15.436 32.422-9.292 7.555-16.61 17.254-21.29 28.277l-2.635 6.207c-.9 2.12-3.905 2.12-4.805 0l-2.589-6.097c-4.665-10.986-11.854-20.764-21.157-28.242-9.522-7.655-15.616-19.399-15.616-32.567 0-23.044 18.99-41.91 42.034-41.764 22.941.146 41.494 18.788 41.494 41.764zm-402.615 180.544c-23.044-.146-42.035 18.72-42.034 41.764 0 13.168 6.094 24.912 15.616 32.567 9.302 7.478 16.492 17.255 21.157 28.242l2.589 6.097c.9 2.12 3.905 2.12 4.805 0l2.635-6.207c4.68-11.023 11.998-20.722 21.29-28.277 9.419-7.658 15.436-19.337 15.436-32.422 0-22.976-18.553-41.619-41.494-41.764z" fill="#ffb52d"/><path d="m485.993 120.48c0 13.085-6.018 24.765-15.436 32.422-5.563 4.523-10.418 9.814-14.423 15.698-19.552-24.87-23.653-58.675-12.954-89.871.438-.011.878-.016 1.319-.013 22.941.146 41.494 18.788 41.494 41.764zm-402.615 180.544c-.951-.006-1.896.021-2.832.079-11.058 31.716-6.793 66.202 13.482 91.292 4.185-6.481 9.381-12.284 15.409-17.185 9.419-7.658 15.436-19.337 15.436-32.422-.001-22.976-18.554-41.619-41.495-41.764z" fill="#ffc14f"/><path d="m468.017 120.48c0 13.138-10.65 23.788-23.788 23.788s-23.788-10.65-23.788-23.788 10.65-23.788 23.788-23.788 23.788 10.65 23.788 23.788zm-384.909 198.519c-13.138 0-23.788 10.65-23.788 23.788s10.65 23.788 23.788 23.788 23.788-10.65 23.788-23.788-10.65-23.788-23.788-23.788z" fill="#ffcd71"/><path d="m444.229 91.692c-15.874 0-28.789 12.914-28.789 28.788s12.915 28.789 28.789 28.789 28.788-12.915 28.788-28.789-12.914-28.788-28.788-28.788zm0 47.577c-10.36 0-18.789-8.429-18.789-18.789s8.429-18.788 18.789-18.788c10.359 0 18.788 8.428 18.788 18.788s-8.429 18.789-18.788 18.789zm-361.121 174.73c-15.874 0-28.789 12.915-28.789 28.789s12.915 28.789 28.789 28.789 28.788-12.915 28.788-28.789-12.914-28.789-28.788-28.789zm0 47.577c-10.36 0-18.789-8.429-18.789-18.789s8.429-18.789 18.789-18.789c10.359 0 18.788 8.429 18.788 18.789s-8.428 18.789-18.788 18.789z" fill="#f29500"/><path d="m320.591 286.277c4.464-.942 7.996 3.707 5.826 7.72-14.227 26.312-42.771 43.748-75.191 41.865-40.191-2.334-72.753-34.896-75.087-75.087-1.883-32.42 15.553-60.964 41.865-75.191 4.013-2.17 8.661 1.363 7.72 5.826-1.436 6.808-2.007 13.935-1.59 21.26 2.289 40.255 34.942 72.908 75.197 75.197 7.325.417 14.452-.154 21.26-1.59z" fill="#f29500"/><path d="m336 256c0 13.863-3.527 26.901-9.731 38.269-11.368 6.204-24.406 9.731-38.269 9.731-44.183 0-80-35.817-80-80 0-13.863 3.527-26.901 9.731-38.269 11.368-6.204 24.406-9.731 38.269-9.731 44.183 0 80 35.817 80 80z" fill="#ffb52d"/><path d="m317.21 256c0 21.363-13.161 36.284-32.006 36.284-20.007 0-36.283-16.277-36.283-36.284s16.276-36.284 36.283-36.284c7.271 0 14.286 2.144 20.29 6.2 2.288 1.545 2.891 4.654 1.345 6.942-1.547 2.287-4.653 2.89-6.942 1.344-4.345-2.935-9.425-4.486-14.692-4.486-14.492 0-26.283 11.791-26.283 26.284s11.791 26.284 26.283 26.284c14.042 0 20.252-10.582 21.677-21.284h-13.388c-2.762 0-5-2.239-5-5s2.238-5 5-5h18.717c2.761 0 4.999 2.239 4.999 5zm-98.798-11.153c-2.499 0-4.565.16-6.395.462l2.492-15.042h18.636c2.761 0 5-2.239 5-5s-2.239-5-5-5h-22.875c-2.446 0-4.533 1.77-4.933 4.183l-4.532 27.353c-.309 1.861.463 3.733 1.985 4.848 1.522 1.114 3.548 1.273 5.229.419.045-.023.243-.121.562-.264 2.627-1.183 4.73-1.958 9.832-1.958 3.77 0 7.278 1.508 9.878 4.247 2.598 2.737 3.921 6.326 3.725 10.106-.368 7.083-6.218 12.744-13.319 12.887-6.889.158-12.822-4.896-13.773-11.714-.087-.624-.131-1.265-.131-1.905 0-2.761-2.239-5-5-5s-5 2.239-5 5c0 1.102.077 2.208.228 3.288 1.629 11.671 11.641 20.334 23.396 20.333.16 0 .322-.001.482-.005 12.318-.249 22.466-10.073 23.104-22.367.34-6.546-1.954-12.765-6.459-17.51-4.444-4.678-10.688-7.361-17.132-7.361zm180.215 23.662c-1.279 0-2.56-.488-3.536-1.465-1.952-1.953-1.952-5.118.001-7.071 4.004-4.003 6.209-9.321 6.209-14.974 0-5.652-2.205-10.97-6.209-14.974-1.953-1.953-1.953-5.119 0-7.071 1.951-1.952 5.119-1.952 7.07 0 5.894 5.893 9.139 13.722 9.139 22.045 0 8.324-3.245 16.153-9.139 22.045-.975.977-2.256 1.465-3.535 1.465zm23.528 13.288c9.837-9.836 15.253-22.904 15.253-36.797s-5.416-26.961-15.253-36.797c-1.951-1.952-5.119-1.952-7.07 0-1.953 1.953-1.953 5.119 0 7.071 7.947 7.947 12.323 18.504 12.323 29.726s-4.376 21.779-12.323 29.726c-1.953 1.953-1.953 5.119 0 7.071.976.976 2.256 1.464 3.535 1.464s2.56-.488 3.535-1.464zm-305.247-14.752c1.953-1.953 1.953-5.119 0-7.071-8.256-8.256-8.256-21.69 0-29.947 1.953-1.953 1.953-5.119 0-7.071s-5.119-1.952-7.071 0c-12.155 12.156-12.155 31.935 0 44.09.977.976 2.256 1.464 3.536 1.464s2.559-.489 3.535-1.465zm-19.992 14.752c1.953-1.953 1.953-5.119 0-7.071-7.947-7.947-12.324-18.504-12.324-29.726s4.377-21.779 12.324-29.726c1.953-1.953 1.953-5.119 0-7.071s-5.118-1.952-7.071 0c-9.836 9.836-15.253 22.904-15.253 36.797s5.417 26.961 15.253 36.797c.977.976 2.256 1.464 3.536 1.464s2.558-.488 3.535-1.464z" fill="#fff"/></g></svg>