<svg id="Capa_1" enable-background="new 0 0 512 512" height="512" viewBox="0 0 512 512" width="512" xmlns="http://www.w3.org/2000/svg"><g><path d="m512 255.999c0 141.103-115.062 256.09-256.165 256.001-67.742-.043-129.329-26.398-175.094-69.397-3.942-3.703-4.451-9.813-1.142-14.091 33.479-43.274 53.401-97.566 53.401-156.512 0-66.099-25.051-126.347-66.177-171.767-4.279-4.726-4.354-11.935-.059-16.646 46.819-51.359 114.264-83.587 189.236-83.587 141.385 0 256 114.615 256 255.999z" fill="#ffb52d"/><path d="m482 256c0 124.816-101.184 226-226 226s-226-101.184-226-226 101.184-226 226-226 226 101.184 226 226z" fill="#ffc14f"/><path d="m320 110.164v305.591c0 11.046-8.954 20-20 20h-217.178c-5.959 0-11.638-2.515-15.663-6.91-41.709-45.542-67.159-106.221-67.159-172.845 0-46.291 12.286-89.712 33.776-127.18 13.755-23.982 39.408-38.656 67.054-38.656h199.17c11.046 0 20 8.955 20 20z" fill="#c8d2dc"/><path d="m503.935 110.164v305.591c0 11.046-8.954 20-20 20h-373.935c-11.046 0-20-8.954-20-20v-305.591c0-11.046 8.954-20 20-20h373.935c11.046 0 20 8.955 20 20z" fill="#dce6eb"/><path d="m500 108.553v21.447h-415.817c-16.533 0-25.792-19.06-15.575-32.059.101-.128.201-.256.302-.383 3.763-4.77 9.5-7.558 15.575-7.558h396.962c10.246 0 18.553 8.307 18.553 18.553z" fill="#40c1fa"/><path d="m90 90v40h-56.897c6.771-11.951 14.475-23.305 23.013-33.96 3.08-3.843 7.77-6.04 12.694-6.04z" fill="#07a9f0"/><path d="m460 280h-200c-5.523 0-10 4.477-10 10v30c0 5.523 4.477 10 10 10h200c5.523 0 10-4.477 10-10v-30c0-5.523-4.477-10-10-10z" fill="#72d1fb"/><path d="m470 160v90c0 5.523-4.477 10-10 10h-200c-5.523 0-10-4.477-10-10v-90c0-5.523 4.477-10 10-10h200c5.523 0 10 4.477 10 10zm-120 190h-90c-5.523 0-10 4.477-10 10v30c0 5.523 4.477 10 10 10h90c5.523 0 10-4.477 10-10v-30c0-5.523-4.477-10-10-10z" fill="#b9d3fd"/><path d="m460 350h-70c-5.523 0-10 4.477-10 10v30c0 5.523 4.477 10 10 10h70c5.523 0 10-4.477 10-10v-30c0-5.523-4.477-10-10-10z" fill="#93dcfc"/><path d="m512 110.164v305.591c0 15.163-12.336 27.5-27.5 27.5h-200.052-203.01c-5.142-4.795-10.086-9.8-14.819-15h217.829 200.052c6.893 0 12.5-5.607 12.5-12.5v-305.591c0-6.893-5.607-12.5-12.5-12.5h-200.052-229.622c4.07-5.164 8.335-10.168 12.783-15h216.84 200.051c15.164 0 27.5 12.336 27.5 27.5z" fill="#203e76"/><path d="m42.804 319.336v-117.401l78.072-39.596 78.072 39.596v117.401z" fill="#91aee2"/><path d="m218.441 211.821c-1.322 2.606-3.959 4.108-6.695 4.109-1.142 0-2.299-.262-3.387-.813l-87.483-44.37-87.483 44.37c-3.695 1.874-8.208.398-10.082-3.296s-.397-8.208 3.296-10.081l90.876-46.091c2.133-1.082 4.652-1.082 6.785 0l90.876 46.091c3.694 1.873 5.17 6.387 3.297 10.081z" fill="#203e76"/><path d="m40 328v-29.559c0-1.105.895-2 2-2h157.752c1.105 0 2 .895 2 2v29.559c0 1.105-.895 2-2 2h-157.752c-1.105 0-2-.895-2-2z" fill="#6990d7"/><path d="m226.752 385c0 2.762-2.239 5-5 5h-183.923c-2.022-3.285-3.972-6.619-5.847-10h83.018v-60c0-2.762 2.239-5 5-5s5 2.238 5 5v60h96.752c2.761 0 5 2.238 5 5z" fill="#40c1fa"/><path d="m105.902 325.895c-.353-6.079 2.916-11.431 7.85-14.098.752-.407 1.624.255 1.447 1.092-.269 1.277-.376 2.613-.298 3.986.429 7.548 6.552 13.67 14.099 14.1 1.374.078 2.71-.029 3.986-.298.837-.177 1.499.695 1.092 1.447-2.668 4.934-8.02 8.203-14.098 7.85-7.535-.438-13.64-6.543-14.078-14.079zm27.085 64.782c-1.276.269-2.613.376-3.986.298-7.548-.429-13.67-6.552-14.099-14.1-.078-1.374.029-2.71.298-3.986.177-.837-.695-1.499-1.447-1.092-4.933 2.667-8.203 8.02-7.85 14.098.438 7.536 6.543 13.641 14.079 14.079 6.079.353 11.431-2.916 14.098-7.85.406-.752-.256-1.624-1.093-1.447z" fill="#0a4499"/><path d="m111.876 319c0-2.599.661-5.044 1.825-7.176 2.131-1.163 4.576-1.824 7.175-1.824 8.284 0 15 6.716 15 15 0 2.599-.661 5.044-1.825 7.176-2.131 1.163-4.576 1.824-7.175 1.824-8.284 0-15-6.716-15-15zm9 51c-2.599 0-5.044.661-7.175 1.824-1.163 2.131-1.825 4.576-1.825 7.176 0 8.284 6.716 15 15 15 2.599 0 5.044-.661 7.175-1.824 1.163-2.132 1.825-4.576 1.825-7.176 0-8.284-6.716-15-15-15z" fill="#0956c6"/><path d="m278.82 56.464c1.953 1.953 1.953 5.119 0 7.071-.977.976-2.256 1.464-3.536 1.464s-2.559-.488-3.536-1.464c-8.684-8.685-22.814-8.685-31.498 0-1.953 1.952-5.118 1.952-7.071 0-1.953-1.953-1.953-5.119 0-7.071 12.584-12.583 33.058-12.583 45.641 0zm15.371-20.83c-10.209-10.208-23.772-15.83-38.191-15.83s-27.982 5.622-38.191 15.831c-1.953 1.953-1.953 5.119 0 7.071s5.118 1.952 7.071 0c8.32-8.32 19.372-12.902 31.12-12.902s22.8 4.582 31.12 12.902c.977.976 2.256 1.464 3.536 1.464s2.559-.488 3.536-1.464c1.952-1.953 1.952-5.119-.001-7.072z" fill="#fff"/><path d="m152.064 275h-62.376c-2.761 0-5-2.239-5-5v-44.4c0-2.761 2.239-5 5-5h62.376c2.761 0 5 2.239 5 5v44.4c0 2.761-2.239 5-5 5z" fill="#5596fb"/><path d="m152.064 215.6h-62.376c-5.514 0-10 4.486-10 10v44.4c0 5.514 4.486 10 10 10h62.376c5.514 0 10-4.486 10-10v-44.4c0-5.514-4.486-10-10-10zm-62.376 10h26.188v44.4h-26.188zm36.188 44.4v-44.4h26.188l.006 44.4z" fill="#dce6eb"/><path d="m269.902 180.895c-.353-6.079 2.916-11.431 7.85-14.098.752-.407 1.624.255 1.447 1.092-.269 1.277-.376 2.613-.298 3.986.429 7.548 6.552 13.67 14.099 14.1 1.374.078 2.71-.029 3.986-.298.837-.177 1.499.695 1.092 1.447-2.668 4.934-8.02 8.203-14.098 7.85-7.535-.438-13.64-6.543-14.078-14.079zm27.085 54.782c-1.276.269-2.613.376-3.986.298-7.548-.429-13.67-6.552-14.099-14.1-.078-1.374.029-2.71.298-3.986.177-.837-.695-1.499-1.447-1.092-4.933 2.667-8.203 8.02-7.85 14.098.438 7.536 6.543 13.641 14.079 14.079 6.079.353 11.431-2.916 14.098-7.85.406-.752-.256-1.624-1.093-1.447zm-36.085 140.218c-.353-6.079 2.916-11.431 7.85-14.098.752-.407 1.624.255 1.447 1.092-.269 1.277-.376 2.613-.298 3.986.429 7.548 6.552 13.67 14.099 14.1 1.374.078 2.71-.029 3.986-.298.837-.177 1.499.695 1.092 1.447-2.668 4.934-8.02 8.203-14.098 7.85-7.535-.438-13.64-6.543-14.078-14.079z" fill="#6990d7"/><path d="m275.876 174c0-2.599.661-5.044 1.825-7.176 2.131-1.163 4.576-1.824 7.175-1.824 8.284 0 15 6.716 15 15 0 2.599-.661 5.044-1.825 7.176-2.131 1.163-4.576 1.824-7.175 1.824-8.284 0-15-6.716-15-15zm9 41c-2.599 0-5.044.661-7.175 1.824-1.163 2.131-1.825 4.576-1.825 7.176 0 8.284 6.716 15 15 15 2.599 0 5.044-.661 7.175-1.824 1.163-2.132 1.825-4.576 1.825-7.176 0-8.284-6.716-15-15-15zm163.124-44c0-2.761-2.239-5-5-5h-121c-2.761 0-5 2.239-5 5 0 2.761 2.239 5 5 5h121c2.761 0 5-2.239 5-5zm-44 20c0-2.761-2.239-5-5-5h-77c-2.761 0-5 2.239-5 5 0 2.761 2.239 5 5 5h77c2.761 0 5-2.239 5-5zm-137.124 178c0-2.599.661-5.044 1.825-7.176 2.131-1.163 4.576-1.824 7.175-1.824 8.284 0 15 6.716 15 15 0 2.599-.661 5.044-1.825 7.176-2.131 1.163-4.576 1.824-7.175 1.824-8.284 0-15-6.716-15-15zm80.124-3c0-2.761-2.239-5-5-5h-37c-2.761 0-5 2.239-5 5 0 2.761 2.239 5 5 5h37c2.761 0 5-2.239 5-5zm-15.786 20c0-2.761-2.239-5-5-5h-21.214c-2.761 0-5 2.239-5 5 0 2.761 2.239 5 5 5h21.214c2.761 0 5-2.239 5-5zm116.786-165c0-2.761-2.239-5-5-5h-121c-2.761 0-5 2.239-5 5 0 2.761 2.239 5 5 5h121c2.761 0 5-2.239 5-5zm-44 20c0-2.761-2.239-5-5-5h-77c-2.761 0-5 2.239-5 5 0 2.761 2.239 5 5 5h77c2.761 0 5-2.239 5-5z" fill="#91aee2"/><g fill="#07a9f0"><path d="m275 322c-2.761 0-5-2.239-5-5v-24c0-2.761 2.239-5 5-5 2.761 0 5 2.239 5 5v24c0 2.761-2.239 5-5 5zm25-5v-16c0-2.761-2.239-5-5-5-2.761 0-5 2.239-5 5v16c0 2.761 2.239 5 5 5 2.761 0 5-2.239 5-5zm20 0v-16c0-2.761-2.239-5-5-5-2.761 0-5 2.239-5 5v16c0 2.761 2.239 5 5 5 2.761 0 5-2.239 5-5zm20 0v-24c0-2.761-2.239-5-5-5-2.761 0-5 2.239-5 5v24c0 2.761 2.239 5 5 5 2.761 0 5-2.239 5-5zm20 0v-7c0-2.761-2.239-5-5-5-2.761 0-5 2.239-5 5v7c0 2.761 2.239 5 5 5 2.761 0 5-2.239 5-5zm20 0v-24c0-2.761-2.239-5-5-5-2.761 0-5 2.239-5 5v24c0 2.761 2.239 5 5 5 2.761 0 5-2.239 5-5zm20 0v-16c0-2.761-2.239-5-5-5-2.761 0-5 2.239-5 5v16c0 2.761 2.239 5 5 5 2.761 0 5-2.239 5-5zm20 0v-13c0-2.761-2.239-5-5-5-2.761 0-5 2.239-5 5v13c0 2.761 2.239 5 5 5 2.761 0 5-2.239 5-5zm20 0v-24c0-2.761-2.239-5-5-5-2.761 0-5 2.239-5 5v24c0 2.761 2.239 5 5 5 2.761 0 5-2.239 5-5z"/><path d="m400 388v-4c0-2.761-2.239-5-5-5-2.761 0-5 2.239-5 5v4c0 2.761 2.239 5 5 5 2.761 0 5-2.239 5-5zm20 0v-12c0-2.761-2.239-5-5-5-2.761 0-5 2.239-5 5v12c0 2.761 2.239 5 5 5 2.761 0 5-2.239 5-5zm20 0v-18c0-2.761-2.239-5-5-5-2.761 0-5 2.239-5 5v18c0 2.761 2.239 5 5 5 2.761 0 5-2.239 5-5zm20 0v-24c0-2.761-2.239-5-5-5-2.761 0-5 2.239-5 5v24c0 2.761 2.239 5 5 5 2.761 0 5-2.239 5-5z"/></g></g></svg>