<svg id="Capa_1" enable-background="new 0 0 512 512" height="512" viewBox="0 0 512 512" width="512" xmlns="http://www.w3.org/2000/svg"><g><path d="m512 256c0 141.385-114.615 256-256 256s-256-114.615-256-256 114.615-256 256-256 256 114.615 256 256z" fill="#07a9f0"/><path d="m447 291c0 105.486-85.514 191-191 191s-191-85.514-191-191 85.514-191 191-191 191 85.514 191 191z" fill="#40c1fa"/><path d="m440.952 433c-4.993 5.216-10.204 10.221-15.619 15h-338.666c-5.415-4.779-10.626-9.784-15.619-15z" fill="#0956c6"/><path d="m341 440.5c0 4.142-3.358 7.5-7.5 7.5h-155c-4.142 0-7.5-3.358-7.5-7.5s3.358-7.5 7.5-7.5h155c4.142 0 7.5 3.358 7.5 7.5z" fill="#2476ed"/><path d="m277 441c0 11.598-9.402 21-21 21s-21-9.402-21-21 9.402-21 21-21 21 9.402 21 21z" fill="#97bffd"/><path d="m462 200c0 38.66-31.34 70-70 70h-272c-38.66 0-70-31.34-70-70 0-38.66 31.34-70 70-70 11.046 0 20-8.954 20-20v-10c0-38.66 31.34-70 70-70h92c38.66 0 70 31.34 70 70v10c0 11.046 8.954 20 20 20 38.66 0 70 31.34 70 70z" fill="#dce6eb"/><path d="m122.532 270h-2.532c-38.66 0-70-31.34-70-70s31.34-70 70-70c11.046 0 20-8.954 20-20v-10c0-38.66 31.34-70 70-70h48.448l-10.352 1.6c-40.546 6.265-68.337 44.213-62.072 84.759l1.621 10.488c1.79 11.584-6.15 22.427-17.735 24.217-40.546 6.265-68.337 44.212-62.072 84.759 1.997 12.916 7.208 24.538 14.694 34.177z" fill="#b9d3fd"/><path d="m335.219 292.746c-16.006 29.601-48.117 49.216-84.59 47.098-45.215-2.626-81.847-39.257-84.473-84.473-2.118-36.473 17.497-68.584 47.098-84.59 4.514-2.441 9.744 1.533 8.684 6.555-1.616 7.659-2.258 15.677-1.789 23.918 2.575 45.288 39.31 82.022 84.597 84.597 8.242.468 16.259-.174 23.918-1.79 5.022-1.059 8.996 4.17 6.555 8.685z" fill="#f29500"/><path d="m346 250c0 15.596-3.968 30.264-10.947 43.053-12.789 6.979-27.458 10.947-43.053 10.947-49.706 0-90-40.294-90-90 0-15.596 3.968-30.264 10.947-43.053 12.789-6.979 27.457-10.947 43.053-10.947 49.706 0 90 40.294 90 90z" fill="#ffb52d"/><path d="m324.235 250c0 23.666-14.549 40.194-35.381 40.194-22.163 0-40.193-18.031-40.193-40.194s18.03-40.194 40.193-40.194c8.054 0 15.826 2.375 22.477 6.867 2.288 1.546 2.891 4.654 1.345 6.942-1.547 2.289-4.653 2.888-6.942 1.345-4.991-3.372-10.827-5.154-16.879-5.154-16.648 0-30.193 13.545-30.193 30.194s13.545 30.194 30.193 30.194c16.522 0 23.644-12.651 25.094-25.194h-15.769c-2.762 0-5-2.238-5-5s2.238-5 5-5h21.056c2.761 0 4.999 2.238 4.999 5zm-84.609 15.4c.374-7.191-2.146-14.022-7.096-19.235-4.879-5.14-11.738-8.087-18.817-8.087-3.174 0-5.717.232-7.956.668l3.035-18.32h21.495c2.761 0 5-2.238 5-5s-2.239-5-5-5h-25.735c-2.446 0-4.533 1.77-4.933 4.183l-5.098 30.771c-.309 1.863.465 3.737 1.99 4.851 1.524 1.115 3.553 1.27 5.234.411.049-.025.277-.139.649-.307 2.937-1.321 5.468-2.257 11.318-2.257 4.414 0 8.521 1.766 11.565 4.972 3.042 3.204 4.591 7.406 4.361 11.833-.43 8.294-7.281 14.923-15.595 15.091-.109.002-.218.003-.326.003-7.939 0-14.702-5.845-15.8-13.719-.103-.732-.154-1.483-.154-2.23 0-2.762-2.239-5-5-5s-5 2.238-5 5c0 1.208.084 2.424.25 3.613 1.79 12.82 12.788 22.337 25.702 22.336.176 0 .354-.001.53-.005 13.533-.273 24.681-11.066 25.381-24.572zm-6.446 132.105c-1.953 1.952-1.953 5.118 0 7.07 1.953 1.953 5.118 1.953 7.071 0 8.684-8.683 22.812-8.685 31.498 0 .976.977 2.256 1.465 3.535 1.465s2.56-.488 3.535-1.465c1.953-1.952 1.953-5.118 0-7.07-12.582-12.584-33.056-12.584-45.639 0zm22.82-36.661c-14.419 0-27.982 5.622-38.191 15.831-1.953 1.952-1.953 5.118 0 7.07 1.953 1.953 5.118 1.953 7.071 0 8.32-8.319 19.372-12.901 31.12-12.901s22.8 4.582 31.12 12.901c.976.977 2.256 1.465 3.535 1.465s2.56-.488 3.535-1.465c1.953-1.952 1.953-5.118 0-7.07-10.208-10.209-23.771-15.831-38.19-15.831zm.651 52.861c-5.391 0-9.762 4.371-9.762 9.762s4.371 9.762 9.762 9.762 9.762-4.371 9.762-9.762-4.371-9.762-9.762-9.762z" fill="#fff5f5"/></g></svg>