<svg id="Capa_1" enable-background="new 0 0 512 512" height="512" viewBox="0 0 512 512" width="512" xmlns="http://www.w3.org/2000/svg"><g><path d="m61.737 422.734c-38.481-44.794-61.737-103.048-61.737-166.733 0-140.562 112.521-254.414 253.074-255.985 142.726-1.594 258.926 113.625 258.926 255.984 0 63.715-23.277 121.994-61.791 166.797-4.175 4.857-10.768 6.863-16.965 5.242-54.154-14.165-114.133-22.039-177.244-22.039-63.11 0-123.088 7.873-177.241 22.038-6.225 1.628-12.828-.423-17.022-5.304z" fill="#07a9f0"/><path d="m155.466 194.837h-99.577c-8.077 0-15.027-6.207-15.406-14.275-.406-8.614 6.458-15.725 14.983-15.725h5c5.523 0 10-4.477 10-10 0-8.284 6.716-15 15-15h40c8.284 0 15 6.716 15 15 0 5.523 4.477 10 10 10h4.576c8.077 0 15.027 6.207 15.406 14.275.406 8.614-6.458 15.725-14.982 15.725zm60.37 45.163h-71.073c-8.284 0-15 6.716-15 15s6.716 15 15 15h71.073c8.284 0 15-6.716 15-15s-6.715-15-15-15zm203.672-135c0-8.284-6.716-15-15-15h-100c-8.284 0-15 6.716-15 15 0 8.284 6.716 15 15 15h100c8.284 0 15-6.716 15-15zm-74.064 75h-29.979c-8.284 0-15 6.716-15 15 0 8.284 6.716 15 15 15h29.979c8.284 0 15-6.716 15-15 0-8.284-6.716-15-15-15zm109.245-40h-29.979c-8.284 0-15 6.716-15 15s6.716 15 15 15h29.979c8.284 0 15-6.716 15-15s-6.716-15-15-15z" fill="#40c1fa"/><path d="m451 316.767v105.105c-46.956 55.148-116.893 90.128-195 90.128-56.239 0-108.242-18.135-150.481-48.875-28.04-20.407-44.519-53.088-44.519-87.767v-58.591l195-98.9z" fill="#dce6eb"/><path d="m86.19 447.577c-8.983-7.969-17.403-16.559-25.19-25.705v-105.105l34-17.244v144.057c0 4.564-5.397 7.025-8.81 3.997z" fill="#c8d2dc"/><path d="m461 99.5v161c0 2.761-2.238 5-5 5s-5-2.239-5-5v-161c0-13.785-11.215-25-25-25h-340c-13.785 0-25 11.215-25 25v161c0 2.761-2.238 5-5 5s-5-2.239-5-5v-161c0-19.299 15.701-35 35-35h340c19.299 0 35 15.701 35 35zm-86.145 20.06h-237.71c-14.322 0-25.974 11.652-25.974 25.975v76.906c0 2.761 2.238 5 5 5s5-2.239 5-5v-76.906c0-8.809 7.166-15.975 15.974-15.975h237.711c8.808 0 15.974 7.166 15.974 15.975v76.906c0 2.761 2.238 5 5 5s5-2.239 5-5v-76.906c-.001-14.323-11.652-25.975-25.975-25.975z" fill="#2476ed"/><path d="m71.824 269.868c-3.601 6.66-10.826 11.074-19.033 10.597-10.173-.591-18.416-8.833-19.006-19.006-.477-8.206 3.937-15.432 10.597-19.033 1.016-.549 2.192.345 1.954 1.475-.364 1.723-.508 3.527-.403 5.381.579 10.19 8.845 18.455 19.034 19.034 1.854.105 3.658-.039 5.382-.403 1.13-.238 2.025.939 1.475 1.955zm402.525-1.954c-1.723.364-3.527.508-5.382.403-10.19-.579-18.455-8.845-19.034-19.034-.105-1.854.039-3.658.403-5.381.238-1.13-.938-2.024-1.954-1.475-6.66 3.601-11.074 10.826-10.597 19.033.591 10.173 8.833 18.416 19.006 19.006 8.206.477 15.432-3.937 19.033-10.597.55-1.017-.345-2.194-1.475-1.955zm-342.5-31c-1.723.364-3.527.508-5.382.403-10.19-.579-18.455-8.845-19.034-19.034-.105-1.854.039-3.658.403-5.381.238-1.13-.938-2.024-1.954-1.475-6.66 3.601-11.074 10.826-10.597 19.033.591 10.173 8.833 18.416 19.006 19.006 8.206.477 15.432-3.937 19.033-10.597.55-1.017-.345-2.194-1.475-1.955zm281 0c-1.723.364-3.527.508-5.382.403-10.19-.579-18.455-8.845-19.034-19.034-.105-1.854.039-3.658.403-5.381.238-1.13-.938-2.024-1.954-1.475-6.66 3.601-11.074 10.826-10.597 19.033.591 10.173 8.833 18.416 19.006 19.006 8.206.477 15.432-3.937 19.033-10.597.55-1.017-.345-2.194-1.475-1.955z" fill="#c8d2dc"/><path d="m74.25 260.25c0 3.509-.893 6.809-2.463 9.687-2.877 1.57-6.178 2.463-9.687 2.463-11.184 0-20.25-9.066-20.25-20.25 0-3.509.893-6.809 2.463-9.687 2.878-1.57 6.178-2.463 9.687-2.463 11.184 0 20.25 9.066 20.25 20.25zm383.75-20.25c-3.509 0-6.809.893-9.687 2.463-1.57 2.877-2.463 6.178-2.463 9.687 0 11.184 9.066 20.25 20.25 20.25 3.509 0 6.809-.893 9.687-2.463 1.57-2.877 2.463-6.178 2.463-9.687 0-11.184-9.066-20.25-20.25-20.25zm-342.5-31c-3.509 0-6.809.893-9.687 2.463-1.57 2.877-2.463 6.178-2.463 9.687 0 11.184 9.066 20.25 20.25 20.25 3.509 0 6.809-.893 9.687-2.463 1.57-2.877 2.463-6.178 2.463-9.687 0-11.184-9.066-20.25-20.25-20.25zm281 0c-3.509 0-6.809.893-9.687 2.463-1.57 2.877-2.463 6.178-2.463 9.687 0 11.184 9.066 20.25 20.25 20.25 3.509 0 6.809-.893 9.687-2.463 1.57-2.877 2.463-6.178 2.463-9.687 0-11.184-9.066-20.25-20.25-20.25z" fill="#dce6eb"/><path d="m489.67 336.38c-1.321 2.606-3.959 4.109-6.694 4.109-1.142 0-2.299-.261-3.387-.813l-223.589-113.399-223.589 113.4c-3.693 1.872-8.207.397-10.081-3.296-1.874-3.694-.398-8.208 3.296-10.082l226.981-115.12c2.133-1.081 4.652-1.081 6.785 0l226.981 115.12c3.695 1.873 5.171 6.387 3.297 10.081z" fill="#203e76"/><path d="m335.219 132.746c-16.006 29.601-48.117 49.216-84.59 47.098-45.215-2.626-81.847-39.257-84.473-84.473-2.118-36.473 17.497-68.584 47.098-84.59 4.514-2.441 9.744 1.533 8.684 6.555-1.616 7.659-2.258 15.677-1.789 23.918 2.575 45.287 39.31 82.022 84.597 84.597 8.242.469 16.259-.173 23.918-1.789 5.022-1.06 8.996 4.169 6.555 8.684z" fill="#0a4499"/><path d="m346 90c0 15.596-3.968 30.264-10.947 43.053-12.789 6.979-27.457 10.947-43.053 10.947-49.706 0-90-40.294-90-90 0-15.595 3.967-30.264 10.947-43.053 12.789-6.979 27.457-10.947 43.053-10.947 49.706 0 90 40.294 90 90z" fill="#0956c6"/><path d="m324.235 90c0 23.666-14.549 40.194-35.381 40.194-22.163 0-40.193-18.031-40.193-40.194s18.03-40.194 40.193-40.194c8.054 0 15.826 2.375 22.477 6.868 2.288 1.546 2.891 4.654 1.345 6.942-1.547 2.288-4.653 2.891-6.942 1.344-4.991-3.372-10.827-5.154-16.879-5.154-16.648 0-30.193 13.545-30.193 30.194s13.545 30.194 30.193 30.194c16.522 0 23.644-12.651 25.094-25.194h-15.769c-2.762 0-5-2.239-5-5s2.238-5 5-5h21.056c2.761 0 4.999 2.239 4.999 5zm-110.522-11.922c-3.174 0-5.717.232-7.956.668l3.035-18.32h21.495c2.762 0 5-2.239 5-5s-2.238-5-5-5h-25.734c-2.446 0-4.533 1.77-4.933 4.183l-5.099 30.771c-.309 1.861.463 3.733 1.984 4.848s3.547 1.275 5.228.419c.047-.024.28-.14.661-.312 2.937-1.322 5.468-2.257 11.318-2.257 4.414 0 8.521 1.766 11.566 4.973 3.042 3.204 4.591 7.406 4.361 11.832-.431 8.294-7.281 14.923-15.596 15.091-8.058.15-15.014-5.733-16.127-13.713-.102-.732-.153-1.483-.153-2.233 0-2.761-2.238-5-5-5s-5 2.239-5 5c0 1.209.084 2.424.249 3.613 1.79 12.82 12.789 22.336 25.702 22.336.176 0 .354-.002.53-.005 13.531-.273 24.68-11.065 25.381-24.57.373-7.192-2.146-14.023-7.096-19.236-4.878-5.14-11.736-8.088-18.816-8.088z" fill="#fff"/><path d="m306.5 360v147.02c-16.326 3.266-33.213 4.98-50.5 4.98s-34.174-1.714-50.5-4.98v-147.02c0-5.523 4.477-10 10-10h81c5.523 0 10 4.477 10 10z" fill="#bacbec"/><path d="m380 360v90c0 5.523-4.477 10-10 10h-19c-5.523 0-10-4.477-10-10v-90c0-5.523 4.477-10 10-10h19c5.523 0 10 4.477 10 10zm-219-10h-60c-5.523 0-10 4.477-10 10v90c0 .646.062 1.278.179 1.89 3.309 2.787 6.689 5.491 10.138 8.11h59.683c5.523 0 10-4.477 10-10v-90c0-5.523-4.477-10-10-10z" fill="#ffb52d"/><path d="m421 360v90c0 .646-.062 1.278-.179 1.89-3.309 2.787-6.689 5.491-10.138 8.11h-30.683c-5.523 0-10-4.477-10-10v-90c0-5.523 4.477-10 10-10h31c5.523 0 10 4.477 10 10zm-260-10h-31c-5.523 0-10 4.477-10 10v90c0 5.523 4.477 10 10 10h31c5.523 0 10-4.477 10-10v-90c0-5.523-4.477-10-10-10z" fill="#ffc14f"/><path d="m141 360c0 5.523-4.477 10-10 10s-10-4.477-10-10 4.477-10 10-10 10 4.477 10 10zm240-10c-5.523 0-10 4.477-10 10s4.477 10 10 10 10-4.477 10-10-4.477-10-10-10z" fill="#ffe7c0"/><path d="m230 510.645c-8.118-.835-16.124-2.049-24-3.625v-147.02c0-5.523 4.477-10 10-10h14z" fill="#91aee2"/><path d="m311.5 360v145.967c-3.31.732-6.643 1.399-10 2.001v-147.968c0-2.757-2.243-5-5-5h-81c-2.757 0-5 2.243-5 5v147.969c-3.357-.602-6.69-1.27-10-2.001v-145.968c0-8.271 6.729-15 15-15h81c8.271 0 15 6.729 15 15zm-135.5 0v90c0 8.271-6.729 15-15 15h-52.87c-7.703-5.46-15.09-11.334-22.13-17.591v-87.409c0-8.271 6.729-15 15-15h60c8.271 0 15 6.729 15 15zm-10 0c0-2.757-2.243-5-5-5h-60c-2.757 0-5 2.243-5 5v90c0 2.757 2.243 5 5 5h60c2.757 0 5-2.243 5-5zm260 0v87.409c-7.04 6.257-14.428 12.132-22.13 17.591h-52.87c-8.271 0-15-6.729-15-15v-90c0-8.271 6.729-15 15-15h60c8.271 0 15 6.729 15 15zm-10 0c0-2.757-2.243-5-5-5h-60c-2.757 0-5 2.243-5 5v90c0 2.757 2.243 5 5 5h60c2.757 0 5-2.243 5-5zm-191 100h20c2.761 0 5-2.239 5-5 0-2.761-2.239-5-5-5h-20c-2.761 0-5 2.239-5 5 0 2.761 2.239 5 5 5z" fill="#6990d7"/></g></svg>