<svg id="Capa_1" enable-background="new 0 0 512 512" height="512" viewBox="0 0 512 512" width="512" xmlns="http://www.w3.org/2000/svg"><g><path d="m512 256c0 141.385-114.615 256-256 256-89.713 0-168.648-46.148-214.362-116-.825-1.261 3.229-2.513 2.426-3.79-1.54-2.446-3.039-4.92-4.497-7.42-.73-1.251-6.318-2.525-7.027-3.79-9.31-16.608-16.823-34.361-22.274-52.993-1.722-5.885 2.504-12.486 1.202-18.539-3.751-17.438-7.404-34.909-7.404-53.468 0-28.1 6.205-55.771 14.571-81.067 1.417-4.284-2.798-7.891-1.165-12.072 37.252-95.331 130.005-162.861 238.53-162.861 141.385 0 256 114.615 256 256z" fill="#203e76"/><path d="m485.447 256c0 107.943-87.505 195.447-195.447 195.447s-195.447-87.504-195.447-195.447 87.504-195.447 195.447-195.447 195.447 87.504 195.447 195.447z" fill="#274c91"/><path d="m512 161c0 34.777-15.993 65.819-41.026 86.171-24.697 20.079-44.145 45.857-56.584 75.154l-7.004 16.497c-2.393 5.635-10.379 5.635-12.771 0l-6.88-16.204c-12.397-29.199-31.507-55.185-56.23-75.061-25.306-20.344-41.503-51.558-41.504-86.555-.001-61.246 50.472-111.387 111.717-111 60.972.386 110.282 49.933 110.282 110.998z" fill="#ffb52d"/><path d="m512 161c0 34.777-15.993 65.819-41.026 86.171-17.117 13.917-31.713 30.571-43.201 49.237-34.152-35.191-55.178-83.191-55.178-136.102 0-40.865 12.542-78.801 33.986-110.168 58.711 2.907 105.419 51.43 105.419 110.862z" fill="#ffc14f"/><path d="m270 185.601c0 30.077-13.832 56.924-35.482 74.526-21.359 17.366-38.179 39.66-48.937 64.998l-6.058 14.268c-2.069 4.873-8.977 4.873-11.046 0l-5.95-14.015c-10.722-25.253-27.249-47.727-48.631-64.917-21.887-17.594-35.895-44.59-35.896-74.858-.001-52.97 43.651-96.335 96.62-96 52.734.333 95.38 43.186 95.38 95.998z" fill="#07a9f0"/><path d="m270 185.601c0 30.077-13.832 56.924-35.482 74.526-14.307 11.632-26.577 25.475-36.353 40.963-23.974-32.449-38.147-72.58-38.147-116.021 0-34.438 8.907-66.795 24.542-94.894 48.051 5.258 85.44 45.976 85.44 95.426z" fill="#40c1fa"/><path d="m488.759 161c0 48.468-39.291 87.759-87.759 87.759s-87.759-39.291-87.759-87.759 39.291-87.759 87.759-87.759 87.759 39.291 87.759 87.759zm-314.759-51.299c-41.918 0-75.9 33.982-75.9 75.9s33.982 75.9 75.9 75.9 75.9-33.982 75.9-75.9-33.982-75.9-75.9-75.9z" fill="#dce6eb"/><path d="m488.759 161c0 17.968-5.4 34.674-14.665 48.585-13.911 9.265-30.618 14.665-48.585 14.665-48.468 0-87.76-39.291-87.76-87.759 0-17.968 5.4-34.674 14.665-48.585 13.912-9.266 30.618-14.665 48.586-14.665 48.468 0 87.759 39.291 87.759 87.759zm-314.759-51.299c-14.681 0-28.389 4.169-40.004 11.386-7.218 11.615-11.386 25.323-11.386 40.004 0 41.918 33.982 75.9 75.9 75.9 14.681 0 28.389-4.169 40.004-11.386 7.218-11.615 11.386-25.323 11.386-40.004 0-41.918-33.982-75.9-75.9-75.9z" fill="#fff"/><path d="m70 229.883c0 21.618-9.942 40.914-25.503 53.566-14.742 11.986-26.475 27.238-34.231 44.558-3.711-12.686-6.467-25.78-8.183-39.199-.135-1.052.241-2.115 1.016-2.839 2.064-1.931 4.197-3.794 6.399-5.584 15.56-12.651 25.502-31.947 25.502-53.566 0-18.792-7.513-35.829-19.698-48.272-1.567-1.6-2.105-3.931-1.375-6.048 1.118-3.243 2.3-6.456 3.543-9.638 30.155 7.386 52.53 34.591 52.53 67.022z" fill="#2476ed"/><path d="m55.553 229.883c0 28.401-21.704 51.733-49.43 54.315-2.539.236-4.775-1.644-5.011-4.183-.736-7.905-1.112-15.916-1.112-24.015 0-26.367 3.986-51.802 11.389-75.737.668-2.159 2.971-3.334 5.138-2.691 22.565 6.687 39.026 27.577 39.026 52.311z" fill="#dce6eb"/><path d="m60.553 229.883c0 32.45-26.087 58.92-58.39 59.542-.432-3.31-.8-6.64-1.104-9.989 27.296-.032 49.494-22.249 49.494-49.553 0-23.88-16.979-43.869-39.5-48.528.978-3.213 2.018-6.399 3.117-9.558 26.522 6.011 46.383 29.773 46.383 58.086zm-40.662 24.915c13.285 0 22.564-10.422 22.564-25.346 0-2.761-2.238-5-5-5h-12.173c-2.762 0-5 2.239-5 5s2.238 5 5 5h6.608c-1.284 5.469-4.878 10.346-12 10.346-8.462 0-15.346-6.884-15.346-15.346s6.884-15.346 15.346-15.346c3.076 0 6.042.905 8.577 2.618 2.286 1.545 5.396.943 6.941-1.344 1.546-2.288.944-5.396-1.344-6.942-4.194-2.834-9.096-4.332-14.175-4.332-5.919 0-11.37 2.039-15.688 5.452-2.143 11.693-3.491 23.663-3.987 35.854 4.652 5.723 11.744 9.386 19.677 9.386z" fill="#0a66ea"/><path d="m440 388.5c0 4.142-3.358 7.5-7.5 7.5h-390.862c-3.198-4.887-6.233-9.889-9.098-15h399.96c4.142 0 7.5 3.358 7.5 7.5z" fill="#2476ed"/><path d="m490 388.5c0 4.142-3.358 7.5-7.5 7.5h-155c-4.142 0-7.5-3.358-7.5-7.5s3.358-7.5 7.5-7.5h155c4.142 0 7.5 3.358 7.5 7.5z" fill="#07a9f0"/><path d="m189 388.5c0 8.284-6.716 15-15 15s-15-6.716-15-15 6.716-15 15-15 15 6.716 15 15z" fill="#97bffd"/><path d="m189 388.5c0 2.137-.447 4.17-1.252 6.01-1.84.805-3.873 1.252-6.01 1.252-8.284 0-15-6.716-15-15 0-2.137.447-4.17 1.252-6.01 1.84-.805 3.873-1.252 6.01-1.252 8.284 0 15 6.716 15 15zm212-20.5c-11.598 0-21 9.402-21 21s9.402 21 21 21 21-9.402 21-21-9.402-21-21-21z" fill="#b9d3fd"/><path d="m422 389c0 2.838-.563 5.543-1.583 8.013-2.469 1.02-5.175 1.583-8.013 1.583-11.598 0-21-9.402-21-21 0-2.838.563-5.543 1.583-8.013 2.469-1.02 5.175-1.583 8.013-1.583 11.598 0 21 9.402 21 21z" fill="#dce6eb"/><path d="m174 104.701c-44.608 0-80.9 36.292-80.9 80.9s36.292 80.9 80.9 80.9 80.9-36.292 80.9-80.9-36.292-80.9-80.9-80.9zm0 151.8c-39.095 0-70.9-31.806-70.9-70.9s31.806-70.9 70.9-70.9 70.9 31.806 70.9 70.9-31.805 70.9-70.9 70.9zm55.72-71.5c0 19.611-12.104 33.308-29.437 33.308-18.366 0-33.308-14.942-33.308-33.308s14.941-33.307 33.308-33.307c6.673 0 13.114 1.968 18.626 5.691 2.288 1.545 2.891 4.653 1.345 6.942-1.547 2.288-4.653 2.891-6.942 1.344-3.853-2.602-8.357-3.978-13.028-3.978-12.852 0-23.308 10.456-23.308 23.307 0 12.852 10.456 23.308 23.308 23.308 12.155 0 17.666-9.015 19.065-18.308h-11.565c-2.762 0-5-2.239-5-5s2.238-5 5-5h16.937c2.76.001 4.999 2.24 4.999 5.001zm-71.011 6.74h-2.279c.085-14.083.137-29.694-.036-31.766-.33-3.97-2.674-7.195-5.97-8.216-1.561-.483-5.594-1.108-9.353 3.502-3.258 3.998-19.444 33.242-22.656 39.064-.854 1.549-.827 3.434.072 4.957s2.537 2.458 4.306 2.458h23.568c-.029 4.195-.062 8.234-.093 11.838-.023 2.761 2.195 5.019 4.957 5.043h.044c2.741 0 4.976-2.21 4.999-4.957.019-2.156.055-6.542.095-11.924h2.346c2.762 0 5-2.239 5-5s-2.238-4.999-5-4.999zm-12.281 0h-15.143c5.538-9.929 11.784-20.928 15.215-26.578.029 5.673-.01 15.948-.072 26.578z" fill="#0691ce"/><path d="m401 253.759c-51.147 0-92.76-41.612-92.76-92.759s41.613-92.759 92.76-92.759 92.76 41.612 92.76 92.759-41.613 92.759-92.76 92.759zm0-175.518c-45.634 0-82.76 37.125-82.76 82.759s37.126 82.759 82.76 82.759 82.76-37.125 82.76-82.759-37.126-82.759-82.76-82.759zm63.645 82.065c0-2.761-2.238-5-5-5h-19.582c-2.762 0-5 2.239-5 5s2.238 5 5 5h14.27c-1.436 11.383-7.983 22.73-22.942 22.73-15.291 0-27.73-12.44-27.73-27.73s12.439-27.73 27.73-27.73c5.558 0 10.917 1.637 15.501 4.733 2.289 1.545 5.396.943 6.942-1.344 1.546-2.288.943-5.396-1.345-6.942-6.243-4.218-13.539-6.447-21.099-6.447-20.805 0-37.73 16.926-37.73 37.73s16.926 37.73 37.73 37.73c19.58.001 33.255-15.515 33.255-37.73zm-102.304 37.524c12.767-.258 23.285-10.44 23.946-23.182.353-6.786-2.025-13.231-6.694-18.149-4.604-4.849-11.075-7.629-17.755-7.629-2.747 0-4.991.185-6.972.535l2.692-16.252h19.693c2.762 0 5-2.239 5-5s-2.238-5-5-5h-23.933c-2.446 0-4.533 1.77-4.933 4.183l-4.742 28.618c-.309 1.861.463 3.733 1.985 4.848 1.522 1.114 3.548 1.275 5.229.418.046-.023.256-.127.598-.281 2.774-1.249 4.996-2.068 10.381-2.068 4.009 0 7.738 1.604 10.503 4.515 2.762 2.91 4.168 6.726 3.96 10.745-.391 7.531-6.611 13.55-14.161 13.703-7.35.145-13.633-5.206-14.644-12.454-.094-.667-.141-1.349-.141-2.026 0-2.761-2.238-5-5-5s-5 2.239-5 5c0 1.138.079 2.285.236 3.409 1.688 12.097 12.065 21.075 24.249 21.074.169-.003.337-.004.503-.007z" fill="#f29500"/></g></svg>