<svg id="Capa_1" enable-background="new 0 0 512 512" height="512" viewBox="0 0 512 512" width="512" xmlns="http://www.w3.org/2000/svg"><g><path d="m38.544 391.153c-24.9-39.978-39.082-87.323-38.528-138.017 1.54-140.939 115.592-253.435 256.54-253.135 141.129.299 255.444 114.799 255.444 255.999 0 49.589-14.1 95.884-38.508 135.097-2.525 4.056-6.997 6.488-11.775 6.488h-411.518c-4.731 0-9.154-2.415-11.655-6.432z" fill="#07a9f0"/><path d="m458.234 256c0 111.691-90.543 202.234-202.234 202.234s-202.234-90.543-202.234-202.234 90.543-202.234 202.234-202.234 202.234 90.543 202.234 202.234z" fill="#40c1fa"/><path d="m473.602 390.919c-18.599 29.934-43.203 55.748-72.128 75.759-1.366.945-7.855-2.725-9.24-1.806-7.678 5.094-15.647 9.785-23.876 14.043-2.209 1.143.675 6.857-1.571 7.937-27.839 13.384-58.472 21.881-90.786 24.378-3.3.255-8.426-7.276-11.759-7.147-3.334.129-6.684.194-10.049.194-6.73 0-11.592 7.464-18.192 6.954-32.314-2.497-62.947-10.994-90.786-24.378-3.031-1.457-.028-8.323-2.991-9.895-6.57-3.485-12.971-7.247-19.186-11.272-2.193-1.42-10.364 2.477-12.511.992-28.925-20.011-53.529-45.825-72.128-75.759z" fill="#ffb52d"/><path d="m141.016 431.695h-38.244c-4.142 0-7.5-3.358-7.5-7.5 0-4.142 3.358-7.5 7.5-7.5h38.244c4.142 0 7.5 3.358 7.5 7.5 0 4.142-3.358 7.5-7.5 7.5zm114.984 49.351c0-4.142-3.358-7.5-7.5-7.5h-38.244c-4.142 0-7.5 3.358-7.5 7.5 0 4.142 3.358 7.5 7.5 7.5h38.244c4.142 0 7.5-3.358 7.5-7.5zm73.771-27.546c0-4.142-3.358-7.5-7.5-7.5h-17.617c-4.142 0-7.5 3.358-7.5 7.5 0 4.142 3.358 7.5 7.5 7.5h17.617c4.142 0 7.5-3.358 7.5-7.5zm-103.457-23.5c0-4.142-3.358-7.5-7.5-7.5h-17.617c-4.142 0-7.5 3.358-7.5 7.5 0 4.142 3.358 7.5 7.5 7.5h17.617c4.142 0 7.5-3.358 7.5-7.5zm199.995-12.408c0-4.142-3.358-7.5-7.5-7.5h-17.617c-4.142 0-7.5 3.358-7.5 7.5 0 4.142 3.358 7.5 7.5 7.5h17.617c4.142 0 7.5-3.357 7.5-7.5z" fill="#f29500"/><path d="m155 280h-99.576c-8.077 0-15.027-6.207-15.406-14.275-.406-8.614 6.457-15.725 14.982-15.725h5c5.523 0 10-4.477 10-10 0-8.284 6.716-15 15-15h40c8.284 0 15 6.716 15 15 0 5.523 4.477 10 10 10h4.576c8.077 0 15.027 6.207 15.406 14.275.407 8.614-6.457 15.725-14.982 15.725zm242.042-107.696h-100c-8.284 0-15 6.716-15 15 0 8.284 6.716 15 15 15h100c8.284 0 15-6.716 15-15 0-8.284-6.715-15-15-15zm-342.042 30h29.979c8.284 0 15-6.716 15-15 0-8.284-6.716-15-15-15h-29.979c-8.284 0-15 6.716-15 15 0 8.284 6.716 15 15 15zm418.223 8.411h-29.979c-8.284 0-15 6.716-15 15s6.716 15 15 15h29.979c8.284 0 15-6.716 15-15 0-8.285-6.715-15-15-15zm-255.852 94.285h-71.073c-8.284 0-15 6.716-15 15s6.716 15 15 15h71.073c8.284 0 15-6.716 15-15s-6.716-15-15-15z" fill="#93dcfc"/><path d="m300 300h-90v-10h90zm-100 30v10h110v-10z" fill="#0a66ea"/><path d="m340.755 409.41-74.755-155.954v176.544h-20v-176.544l-74.755 155.954-18.035-8.645 86.449-180.351 16.341 7.833 16.341-7.833 86.449 180.351z" fill="#2476ed"/><path d="m460 285c0 2.761-2.239 5-5 5h-90c-2.761 0-5-2.239-5-5s2.239-5 5-5h90c2.761 0 5 2.239 5 5zm-95-15h70c2.761 0 5-2.239 5-5s-2.239-5-5-5h-70c-2.761 0-5 2.239-5 5s2.239 5 5 5zm40 30h-40c-2.761 0-5 2.239-5 5s2.239 5 5 5h40c2.761 0 5-2.239 5-5s-2.239-5-5-5z" fill="#0691ce"/><path d="m276 390v121.23c-6.6.51-13.27.77-20 .77s-13.4-.26-20-.77v-121.23c0-5.523 4.477-10 10-10h20c5.523 0 10 4.477 10 10zm-83.143-25.678-18.035-8.645c-4.98-2.387-10.953-.285-13.34 4.695l-50.956 106.305c10.971 7.59 22.565 14.345 34.688 20.174l52.339-109.189c2.387-4.98.285-10.952-4.696-13.34zm157.661-3.949c-2.387-4.98-8.36-7.082-13.34-4.695l-18.035 8.645c-4.98 2.387-7.083 8.36-4.695 13.34l52.339 109.189c12.123-5.828 23.716-12.584 34.688-20.174z" fill="#c8d2dc"/><path d="m276 390v40c0 11.046-8.954 20-20 20s-20-8.954-20-20v-40c0-5.523 4.477-10 10-10h20c5.523 0 10 4.477 10 10zm-83.143-25.678-18.035-8.645c-4.98-2.387-10.953-.285-13.34 4.695l-17.29 36.07c-4.775 9.961-.57 21.906 9.39 26.68 9.96 4.774 21.906.57 26.68-9.39l17.29-36.07c2.388-4.98.286-10.952-4.695-13.34zm174.951 32.121-17.29-36.07c-2.387-4.98-8.36-7.082-13.34-4.695l-18.035 8.645c-4.98 2.387-7.083 8.36-4.695 13.34l17.29 36.07c4.774 9.961 16.719 14.165 26.68 9.39 9.96-4.775 14.164-16.72 9.39-26.68z" fill="#dce6eb"/><path d="m358.074 171.151c-11.027 20.366-27.97 37.06-48.526 47.776-17.797 9.278-32.298 23.823-41.81 41.496l-4.694 8.721c-3.02 5.612-11.069 5.612-14.089 0l-4.607-8.56c-9.509-17.668-23.904-32.344-41.692-41.627-35.231-18.387-60.036-54.386-62.455-96.035-2.729-46.987 22.527-88.358 60.649-108.998 5.804-3.142 12.611 1.96 11.249 8.417-2.083 9.872-2.91 20.208-2.306 30.832 3.353 58.95 50.086 105.682 109.037 109.033 10.651.605 21.012-.228 30.908-2.323 6.465-1.368 11.483 5.457 8.336 11.268z" fill="#ea552d"/><path d="m372 116c0 20.101-5.114 39.007-14.11 55.49-16.483 8.996-35.389 14.11-55.49 14.11-64.065 0-116-51.935-116-116 0-20.101 5.114-39.007 14.109-55.49 16.484-8.996 35.39-14.11 55.491-14.11 64.065 0 116 51.935 116 116z" fill="#f76937"/><path d="m402.162 94.955c5.894 5.892 9.139 13.721 9.139 22.045s-3.245 16.153-9.139 22.045c-.976.976-2.256 1.464-3.535 1.464s-2.56-.488-3.536-1.465c-1.952-1.953-1.952-5.118.001-7.071 4.004-4.003 6.209-9.321 6.209-14.974s-2.205-10.97-6.209-14.974c-1.953-1.953-1.953-5.118-.001-7.071 1.953-1.952 5.118-1.952 7.071.001zm19.993-14.752c-1.951-1.952-5.119-1.952-7.07 0-1.953 1.953-1.953 5.119 0 7.071 7.947 7.947 12.323 18.504 12.323 29.726s-4.376 21.779-12.323 29.726c-1.953 1.953-1.953 5.119 0 7.071.976.976 2.256 1.464 3.535 1.464s2.56-.488 3.535-1.464c9.837-9.836 15.253-22.904 15.253-36.797s-5.416-26.961-15.253-36.797zm-305.246 14.753c-1.953-1.953-5.12-1.953-7.071 0-5.894 5.892-9.139 13.721-9.139 22.045s3.245 16.153 9.139 22.045c.977.977 2.256 1.464 3.535 1.464s2.56-.488 3.536-1.465c1.952-1.953 1.952-5.118-.001-7.071-4.004-4.003-6.209-9.321-6.209-14.974s2.205-10.97 6.209-14.974c1.953-1.952 1.953-5.118.001-7.07zm-19.994-14.753c-1.951-1.952-5.119-1.952-7.07 0-9.837 9.836-15.253 22.904-15.253 36.797s5.416 26.961 15.253 36.797c.976.976 2.256 1.464 3.535 1.464s2.56-.488 3.535-1.464c1.953-1.953 1.953-5.119 0-7.071-7.947-7.947-12.323-18.504-12.323-29.726s4.376-21.779 12.323-29.726c1.953-1.953 1.953-5.119 0-7.071zm240.589 30.797h-27.139c-2.762 0-5 2.239-5 5s2.238 5 5 5h21.919c-1.625 18.319-12.303 35.361-33.938 35.361-22.255 0-40.36-18.106-40.36-40.361s18.105-40.361 40.36-40.361c8.088 0 15.891 2.382 22.563 6.89 2.289 1.545 5.396.943 6.942-1.345 1.546-2.289.943-5.396-1.345-6.942-8.332-5.628-18.07-8.603-28.161-8.603-27.769 0-50.36 22.592-50.36 50.361s22.592 50.361 50.36 50.361c26 0 44.158-20.709 44.158-50.361.001-2.761-2.237-5-4.999-5zm-136.007-8.921c-5.033 0-8.737.441-12.028 1.284l4.461-26.925h28.93c2.762 0 5-2.239 5-5s-2.238-5-5-5h-33.17c-2.446 0-4.533 1.77-4.933 4.183l-6.571 39.661c-.309 1.863.463 3.738 1.987 4.852 1.523 1.114 3.549 1.272 5.231.413.052-.027.374-.188.911-.43 3.95-1.778 7.351-3.036 15.181-3.036 6.089 0 11.755 2.436 15.954 6.858 4.196 4.42 6.333 10.216 6.017 16.32-.595 11.443-10.044 20.588-21.514 20.819-11.182.222-20.709-7.91-22.245-18.922-.142-1.01-.213-2.044-.213-3.074 0-2.761-2.238-5-5-5s-5 2.239-5 5c0 1.491.104 2.991.309 4.457 2.206 15.811 15.77 27.545 31.696 27.544.217 0 .437-.002.654-.006 16.686-.336 30.434-13.645 31.299-30.299.46-8.87-2.647-17.295-8.751-23.724-6.104-6.433-14.347-9.975-23.205-9.975z" fill="#fff"/></g></svg>