<svg id="Capa_1" enable-background="new 0 0 512 512" height="512" viewBox="0 0 512 512" width="512" xmlns="http://www.w3.org/2000/svg"><g><path d="m512 256c0 108.202-67.128 200.725-162.01 238.195-2.262.893-3.548-10.238-5.841-9.408-19.563 7.083-40.236 11.849-61.687 13.968-4.019.397-9.057 12.695-13.128 12.904-4.417.226-8.862.341-13.334.341-4.36 0-8.694-.109-13-.324-3.987-.199-7.373-10.083-11.309-10.463-16.288-1.571-32.13-4.669-47.381-9.148-3.611-1.061-7.766 7.394-11.309 6.181-9.25-3.169-18.262-6.852-27-11.017-4.448-2.12-6.666-13.013-10.967-15.377-17.344-9.533-33.464-21.017-48.065-34.157-3.001-2.701-8.098 3.177-10.968.339-46.927-46.406-76.001-110.825-76.001-182.034 0-141.385 114.615-256 256-256s256 114.615 256 256z" fill="#19305c"/><path d="m478.574 230.815c0 111.879-90.696 202.574-202.574 202.574s-202.574-90.695-202.574-202.574 90.695-202.574 202.574-202.574 202.574 90.695 202.574 202.574z" fill="#203e76"/><path d="m339.333 280v218.13c-22.119 7.611-45.608 12.277-70 13.528v-231.658c0-11.046 8.954-20 20-20h30c11.046 0 20 8.954 20 20z" fill="#0691ce"/><path d="m319 360h-30c-11.046 0-20-8.954-20-20v-120c0-11.046 8.954-20 20-20h30c11.046 0 20 8.954 20 20v120c0 11.046-8.954 20-20 20z" fill="#07a9f0"/><path d="m319 260h-30c-11.046 0-20-8.954-20-20v-90c0-11.046 8.954-20 20-20h30c11.046 0 20 8.954 20 20v90c0 11.046-8.954 20-20 20z" fill="#72d1fb"/><path d="m243 240v271.675c-24.388-1.22-47.878-5.853-70-13.431v-258.244c0-11.046 8.954-20 20-20h30c11.046 0 20 8.954 20 20z" fill="#0956c6"/><path d="m223 390h-30c-11.046 0-20-8.954-20-20v-168c0-11.046 8.954-20 20-20h30c11.046 0 20 8.954 20 20v168c0 11.046-8.954 20-20 20z" fill="#2476ed"/><path d="m146 300v187.228c-26.067-12.423-49.703-29.124-70-49.195v-138.033c0-11.046 8.954-20 20-20h30c11.046 0 20 8.954 20 20z" fill="#0a4499"/><path d="m126 410h-30c-11.046 0-20-8.954-20-20v-108c0-11.046 8.954-20 20-20h30c11.046 0 20 8.954 20 20v108c0 11.046-8.954 20-20 20z" fill="#0956c6"/><path d="m416 420h-30c-11.046 0-20-8.954-20-20v-156c0-11.046 8.954-20 20-20h30c11.046 0 20 8.954 20 20v156c0 11.046-8.954 20-20 20z" fill="#f29500"/><path d="m416 290h-30c-11.046 0-20-8.954-20-20v-158c0-11.046 8.954-20 20-20h30c11.046 0 20 8.954 20 20v158c0 11.046-8.954 20-20 20z" fill="#ffb52d"/><path d="m416 170h-30c-11.046 0-20-8.954-20-20v-130c0-11.046 8.954-20 20-20h30c11.046 0 20 8.954 20 20v130c0 11.046-8.954 20-20 20z" fill="#ffc14f"/><path d="m452.664 456.061c5.022-1.059 8.996 4.17 6.555 8.684-16.006 29.601-48.117 49.216-84.59 47.098-45.215-2.626-81.847-39.257-84.473-84.473-2.118-36.473 17.497-68.585 47.098-84.59 4.514-2.441 9.744 1.533 8.684 6.555-1.616 7.659-2.258 15.677-1.789 23.918 2.575 45.287 39.31 82.022 84.597 84.597 8.242.469 16.26-.173 23.918-1.789z" fill="#ea552d"/><path d="m470 422c0 15.596-3.968 30.264-10.947 43.053-12.789 6.98-27.457 10.947-43.053 10.947-49.706 0-90-40.294-90-90 0-15.596 3.967-30.264 10.947-43.053 12.789-6.979 27.457-10.947 43.053-10.947 49.706 0 90 40.294 90 90z" fill="#f76937"/><path d="m412.854 462.194c-22.163 0-40.193-18.031-40.193-40.194s18.03-40.194 40.193-40.194c8.054 0 15.826 2.375 22.477 6.868 2.288 1.546 2.891 4.654 1.345 6.942-1.548 2.288-4.653 2.891-6.942 1.344-4.991-3.372-10.827-5.154-16.879-5.154-16.648 0-30.193 13.545-30.193 30.194s13.545 30.194 30.193 30.194c16.522 0 23.644-12.651 25.094-25.194h-15.769c-2.762 0-5-2.239-5-5s2.238-5 5-5h21.056c2.762 0 5 2.239 5 5-.001 23.666-14.549 40.194-35.382 40.194zm-74.608-.223c13.531-.273 24.68-11.065 25.381-24.57.373-7.192-2.146-14.023-7.096-19.236-4.88-5.139-11.738-8.087-18.818-8.087-3.174 0-5.717.232-7.956.668l3.035-18.32h21.495c2.762 0 5-2.239 5-5s-2.238-5-5-5h-25.734c-2.446 0-4.533 1.77-4.933 4.183l-5.099 30.771c-.309 1.861.463 3.733 1.984 4.848s3.548 1.275 5.228.419c.047-.024.28-.14.661-.312 2.937-1.322 5.468-2.257 11.318-2.257 4.414 0 8.521 1.766 11.566 4.973 3.042 3.204 4.591 7.406 4.361 11.832-.431 8.294-7.281 14.923-15.596 15.091-8.054.176-15.014-5.733-16.127-13.713-.102-.732-.153-1.483-.153-2.233 0-2.761-2.238-5-5-5s-5 2.239-5 5c0 1.209.084 2.424.249 3.613 1.79 12.82 12.789 22.336 25.702 22.336.178 0 .355-.002.532-.006z" fill="#fff"/></g></svg>