<svg id="Capa_1" enable-background="new 0 0 512 512" height="512" viewBox="0 0 512 512" width="512" xmlns="http://www.w3.org/2000/svg"><g><path d="m512 256c0 141.385-114.615 256-256 256s-256-114.615-256-256 114.615-256 256-256 256 114.615 256 256z" fill="#07a9f0"/><path d="m478.574 256c0 122.924-99.65 222.574-222.574 222.574s-222.574-99.65-222.574-222.574 99.65-222.574 222.574-222.574 222.574 99.65 222.574 222.574z" fill="#40c1fa"/><path d="m428.522 349.091c-34.857 64.465-104.789 107.182-184.219 102.569-98.469-5.719-178.244-85.494-183.963-183.963-4.613-79.43 38.104-149.362 102.569-184.219 9.832-5.316 21.22 3.339 18.913 14.275-3.519 16.679-4.917 34.14-3.896 52.088 5.607 98.625 85.608 178.626 184.233 184.233 17.948 1.02 35.409-.378 52.088-3.896 10.936-2.307 19.591 9.081 14.275 18.913z" fill="#0a66ea"/><path d="m452 256c0 33.964-8.641 65.909-23.841 93.76-27.851 15.2-59.796 23.84-93.759 23.84-108.248 0-196-87.752-196-196 0-33.964 8.64-65.909 23.84-93.759 27.851-15.2 59.796-23.841 93.76-23.841 108.248 0 196 87.752 196 196z" fill="#2476ed"/><path d="m256 55.065c-110.796 0-200.935 90.139-200.935 200.935 0 10.034.739 19.898 2.166 29.542.107.721-1.962 2.39-1.848 3.108.329 2.068.69 4.126 1.082 6.172.143.746 2.47.541 2.621 1.284 18.637 91.646 99.848 160.829 196.914 160.829 110.796 0 200.935-90.139 200.935-200.935 0-9.002-.595-17.868-1.748-26.56-.104-.782 1.861-1.321 1.748-2.1-.322-2.225-.68-4.439-1.075-6.641-.143-.797-2.363-1.834-2.515-2.628-17.784-92.725-99.512-163.006-197.345-163.006zm148.594 320.707c-.263-.173-.547-.324-.849-.448-25.044-10.308-52.193-17.879-80.459-22.525 5.711-27.853 8.878-59.177 9.172-91.799h114.412c-1.12 43.379-16.78 83.203-42.276 114.772zm-148.594 71.163c-16.593 0-33.304-19.719-45.848-54.102-3.564-9.768-6.698-20.406-9.378-31.741 18.08-2.476 36.577-3.74 55.226-3.74s37.146 1.263 55.226 3.74c-2.68 11.335-5.815 21.973-9.378 31.741-12.544 34.383-29.255 54.102-45.848 54.102zm0-99.582c-19.378 0-38.603 1.333-57.393 3.946-5.64-27.301-8.771-58.126-9.065-90.298h132.916c-.294 32.172-3.425 62.997-9.065 90.298-18.79-2.613-38.015-3.946-57.393-3.946zm-148.594 28.419c-25.496-31.569-41.156-71.393-42.276-114.772h114.412c.294 32.621 3.461 63.946 9.172 91.799-28.267 4.646-55.415 12.217-80.459 22.525-.303.124-.586.275-.849.448zm0-239.544c.263.173.547.324.849.448 25.044 10.308 52.193 17.879 80.459 22.525-5.711 27.853-8.878 59.177-9.172 91.799h-114.412c1.12-43.379 16.78-83.203 42.276-114.772zm148.594-71.163c16.593 0 33.304 19.719 45.848 54.102 3.564 9.768 6.698 20.406 9.378 31.741-18.08 2.476-36.577 3.74-55.226 3.74s-37.146-1.263-55.226-3.74c2.68-11.335 5.815-21.973 9.378-31.741 12.544-34.383 29.255-54.102 45.848-54.102zm0 99.582c19.378 0 38.603-1.333 57.393-3.946 5.64 27.301 8.771 58.126 9.065 90.298h-132.916c.294-32.172 3.425-62.997 9.065-90.298 18.79 2.613 38.015 3.946 57.393 3.946zm76.458 86.353c-.294-32.621-3.461-63.946-9.172-91.799 28.267-4.646 55.415-12.217 80.459-22.525.302-.124.586-.275.849-.448 25.496 31.569 41.156 71.393 42.276 114.772zm65.363-122.708c-23.913 9.645-49.771 16.744-76.678 21.129-2.813-12.033-6.123-23.324-9.901-33.682-8.084-22.159-17.883-38.679-28.739-48.841 45.512 6.348 85.939 28.799 115.318 61.394zm-168.324-61.394c-10.856 10.161-20.655 26.682-28.739 48.841-3.779 10.357-7.089 21.649-9.901 33.682-26.907-4.385-52.765-11.484-76.678-21.129 29.379-32.595 69.806-55.046 115.318-61.394zm-115.318 316.81c23.913-9.645 49.771-16.744 76.678-21.129 2.813 12.033 6.123 23.324 9.901 33.682 8.084 22.159 17.883 38.679 28.739 48.841-45.512-6.348-85.939-28.799-115.318-61.394zm168.324 61.394c10.856-10.161 20.655-26.681 28.739-48.841 3.779-10.357 7.089-21.649 9.901-33.682 26.907 4.385 52.765 11.484 76.678 21.129-29.379 32.595-69.806 55.046-115.318 61.394z" fill="#0956c6"/><path d="m470.974 197.171c-24.697 20.079-44.145 45.857-56.584 75.154l-7.004 16.497c-2.393 5.635-10.379 5.635-12.772 0l-6.88-16.204c-12.397-29.199-31.507-55.185-56.23-75.061-25.306-20.344-41.503-51.558-41.504-86.555-.001-61.246 50.472-111.387 111.717-111 60.973.386 110.283 49.933 110.283 110.998 0 34.777-15.993 65.819-41.026 86.171zm-266.607 57.196c0-28.809-23.263-52.184-52.029-52.366-28.894-.183-52.706 23.473-52.705 52.367 0 16.511 7.642 31.236 19.581 40.834 11.664 9.377 20.679 21.636 26.528 35.412l3.246 7.645c1.129 2.658 4.897 2.658 6.025 0l3.304-7.783c5.868-13.822 15.044-25.983 26.695-35.456 11.81-9.602 19.355-24.246 19.355-40.653z" fill="#ffb52d"/><path d="m512 111c0 34.777-15.993 65.819-41.026 86.171-19.505 15.858-35.735 35.27-47.825 57.164-.081-.08-.161-.16-.241-.241-69.245-69.244-75.847-177.408-19.808-254.074 60.334 1.119 108.9 50.378 108.9 110.98zm-359.662 91.001c-2.624-.017-5.206.164-7.732.526-11.265 38.805-4.574 81.718 20.075 115.641 5.412-8.774 12.28-16.603 20.331-23.149 11.81-9.602 19.355-24.246 19.355-40.653 0-28.808-23.263-52.183-52.029-52.365zm167.246-15.553c-5.316-12.186-12.539-23.739-21.67-34.208 5.101 12.739 12.495 24.311 21.67 34.208z" fill="#ffc14f"/><path d="m488.759 111c0 48.468-39.291 87.759-87.759 87.759s-87.759-39.291-87.759-87.759 39.291-87.759 87.759-87.759 87.759 39.291 87.759 87.759zm-336.759 111c-17.234 0-31.204 13.971-31.204 31.204s13.971 31.204 31.204 31.204 31.204-13.971 31.204-31.204-13.97-31.204-31.204-31.204z" fill="#dce6eb"/><path d="m488.759 111c0 20.428-6.98 39.226-18.685 54.139-14.293 10.094-31.737 16.023-50.565 16.023-48.468 0-87.759-39.291-87.759-87.759 0-20.428 6.98-39.226 18.685-54.139 14.293-10.094 31.736-16.023 50.565-16.023 48.468 0 87.759 39.291 87.759 87.759zm-336.759 111c-3.635 0-7.125.622-10.369 1.764-1.499 3.652-2.326 7.651-2.326 11.843 0 17.234 13.971 31.204 31.204 31.204 3.635 0 7.125-.622 10.369-1.764 1.499-3.652 2.326-7.651 2.326-11.843 0-17.233-13.97-31.204-31.204-31.204z" fill="#fff"/><path d="m401 203.759c-51.147 0-92.759-41.612-92.759-92.759s41.612-92.759 92.759-92.759 92.759 41.612 92.759 92.759-41.612 92.759-92.759 92.759zm0-175.518c-45.634 0-82.759 37.125-82.759 82.759s37.125 82.759 82.759 82.759 82.759-37.125 82.759-82.759-37.125-82.759-82.759-82.759zm63.645 82.065c0-2.761-2.239-5-5-5h-19.583c-2.761 0-5 2.239-5 5s2.239 5 5 5h14.271c-1.436 11.383-7.983 22.73-22.942 22.73-15.291 0-27.73-12.44-27.73-27.73s12.44-27.73 27.73-27.73c5.557 0 10.917 1.637 15.501 4.733 2.288 1.547 5.396.944 6.942-1.344 1.545-2.289.943-5.396-1.345-6.942-6.244-4.217-13.539-6.446-21.099-6.446-20.805 0-37.73 16.926-37.73 37.73s16.926 37.73 37.73 37.73c19.58 0 33.255-15.516 33.255-37.731zm-102.304 37.524c12.766-.258 23.285-10.44 23.946-23.182.353-6.785-2.025-13.23-6.694-18.148-4.604-4.849-11.075-7.63-17.754-7.63-2.747 0-4.991.185-6.972.535l2.692-16.252h19.694c2.761 0 5-2.239 5-5s-2.239-5-5-5h-23.934c-2.446 0-4.533 1.77-4.933 4.183l-4.741 28.618c-.309 1.862.464 3.735 1.987 4.849 1.522 1.114 3.549 1.272 5.23.416.046-.024.255-.128.593-.28 2.776-1.249 4.999-2.068 10.383-2.068 4.008 0 7.738 1.604 10.502 4.515 2.762 2.91 4.168 6.726 3.96 10.745-.391 7.531-6.611 13.55-14.161 13.703-7.331.13-13.632-5.206-14.644-12.454-.093-.665-.14-1.347-.14-2.026 0-2.761-2.239-5-5-5s-5 2.239-5 5c0 1.141.08 2.288.236 3.409 1.688 12.096 12.066 21.075 24.25 21.074.166-.003.334-.004.5-.007zm-210.341 141.578c-19.963 0-36.204-16.241-36.204-36.204s16.241-36.204 36.204-36.204 36.204 16.241 36.204 36.204-16.241 36.204-36.204 36.204zm0-62.408c-14.449 0-26.204 11.755-26.204 26.204s11.755 26.204 26.204 26.204 26.204-11.755 26.204-26.204-11.755-26.204-26.204-26.204z" fill="#f29500"/><path d="m420.254 302.312c-40.774 19.561-96.519 36.805-156.967 48.554-49.029 9.53-96.468 14.535-136.607 14.535-9.349 0-18.296-.271-26.781-.82-33.218-2.149-73.718-9.608-78.019-32.945-2.641-14.323 9.146-29.77 35.03-45.91.106-.066.213-.127.322-.184.526 3.553 1.145 7.075 1.855 10.565-19.252 12.533-29.289 24.715-27.639 33.669 2.378 12.901 28.196 22.182 69.063 24.825 44.128 2.853 101.293-1.962 160.965-13.56 59.672-11.599 114.597-28.57 154.656-47.789 37.099-17.798 57.828-36.126 55.45-49.028-1.232-6.682-8.65-11.507-16.396-14.784-.507-3.824-1.122-7.614-1.842-11.368 16.535 5.71 25.887 13.877 27.806 24.293 4.302 23.336-30.741 45.48-60.896 59.947z" fill="#fff"/><path d="m202 116c-19.33 0-35 15.67-35 35s15.67 35 35 35 35-15.67 35-35-15.67-35-35-35zm45 172c-8.284 0-15 6.716-15 15s6.716 15 15 15 15-6.716 15-15-6.716-15-15-15z" fill="#ffb52d"/><path d="m217 151c0 8.284-6.716 15-15 15s-15-6.716-15-15 6.716-15 15-15 15 6.716 15 15zm68 90c-8.284 0-15 6.716-15 15s6.716 15 15 15 15-6.716 15-15-6.716-15-15-15zm-19 146c-8.284 0-15 6.716-15 15s6.716 15 15 15 15-6.716 15-15-6.716-15-15-15zm100-35c-8.284 0-15 6.716-15 15s6.716 15 15 15 15-6.716 15-15-6.716-15-15-15z" fill="#ffcd71"/></g></svg>