<svg id="Capa_1" enable-background="new 0 0 512 512" height="512" viewBox="0 0 512 512" width="512" xmlns="http://www.w3.org/2000/svg"><g><path d="m512 256c0 141.385-114.615 256-256 256s-256-114.615-256-256 114.615-256 256-256 256 114.615 256 256z" fill="#203e76"/><path d="m490.49 256c0 121.255-98.297 219.552-219.552 219.552s-219.551-98.297-219.551-219.552 98.296-219.552 219.551-219.552 219.552 98.297 219.552 219.552z" fill="#274c91"/><path d="m202.176 361.841c-20.485 20.485-50.365 25.85-75.771 16.095-9.755-25.406-4.39-55.286 16.095-75.771s50.365-25.85 75.771-16.095c9.756 25.406 4.391 55.285-16.095 75.771zm-105.237-208.41c-11.732-4.505-25.529-2.027-34.989 7.432s-11.937 23.257-7.432 34.989c11.732 4.505 25.529 2.027 34.989-7.432 9.459-9.459 11.937-23.257 7.432-34.989zm49.498 49.498c-11.732-4.505-25.529-2.027-34.989 7.432-9.46 9.46-11.937 23.257-7.432 34.989 11.732 4.505 25.529 2.027 34.989-7.432s11.936-23.257 7.432-34.989zm162.634 162.635c-11.732-4.505-25.529-2.027-34.989 7.432s-11.937 23.257-7.432 34.989c11.732 4.505 25.529 2.027 34.989-7.432s11.937-23.258 7.432-34.989zm49.498 49.497c-11.732-4.505-25.529-2.027-34.989 7.432s-11.937 23.257-7.432 34.989c11.732 4.505 25.529 2.027 34.989-7.432 9.459-9.46 11.936-23.257 7.432-34.989z" fill="#ffc14f"/><path d="m210.272 339.643c-15.645 15.645-38.464 19.742-57.866 12.292-7.45-19.403-3.353-42.222 12.292-57.866s38.464-19.742 57.866-12.292c7.45 19.403 3.353 42.222-12.292 57.866z" fill="#f29500"/><path d="m219.199 349.776c3.891 3.92 3.867 10.251-.053 14.142s-10.251 3.867-14.142-.053l-64.281-64.765c-3.891-3.92-3.867-10.251.053-14.142s10.251-3.867 14.142.053zm-69.227-113.613c3.905-3.905 3.905-10.237 0-14.142l-22.627-22.627c-3.905-3.905-10.237-3.905-14.142 0s-3.905 10.237 0 14.142l22.627 22.627c3.905 3.905 10.237 3.905 14.142 0zm-72.125-86.267c-3.905-3.905-10.237-3.905-14.142 0s-3.905 10.237 0 14.142l22.627 22.627c3.905 3.905 10.237 3.905 14.142 0 3.905-3.905 3.905-10.237 0-14.142zm212.132 212.132c-3.905-3.905-10.237-3.905-14.142 0-3.905 3.905-3.905 10.237 0 14.142l22.627 22.627c3.905 3.905 10.237 3.905 14.142 0s3.905-10.237 0-14.142zm72.125 72.125-22.627-22.627c-3.905-3.905-10.237-3.905-14.142 0s-3.905 10.237 0 14.142l22.627 22.627c3.905 3.905 10.237 3.905 14.142 0 3.905-3.905 3.905-10.237 0-14.142z" fill="#07a9f0"/><path d="m389.365 105.536-163.545 163.545c-9.512 9.512-24.933 9.512-34.444 0l-127.12-127.119c-14.329-14.329-5.913-38.869 14.194-41.389l290.665-36.426c7.46-.935 14.934 1.628 20.251 6.945 9.511 9.511 9.511 24.932-.001 34.444z" fill="#2476ed"/><path d="m447.854 142.886-36.427 290.664c-2.52 20.107-27.06 28.523-41.389 14.194l-127.12-127.119c-9.512-9.512-9.512-24.933 0-34.444l163.546-163.545c9.512-9.512 24.933-9.512 34.444 0 5.317 5.315 7.88 12.789 6.946 20.25z" fill="#5596fb"/><path d="m477.716 136.814-230.517 230.517c-3.905 3.905-10.237 3.905-14.142 0l-88.388-88.388c-3.905-3.905-3.905-10.237 0-14.142l230.517-230.517c30.045-30.046 91.883-47.266 124.804-22.274 24.992 32.921 7.772 94.759-22.274 124.804z" fill="#c8d2dc"/><path d="m477.684 136.846-230.517 230.517c-3.905 3.905-10.237 3.905-14.142 0l-51.972-51.972c-3.905-3.905-3.905-10.237 0-14.142l230.517-230.517c23.345-23.345 65.882-38.947 99.137-33.022 5.924 33.254-9.678 75.792-33.023 99.136z" fill="#dce6eb"/><path d="m481.964 89.694c-2.385 7.027-11.308 9.124-16.555 3.877l-46.98-46.98c-5.247-5.247-3.149-14.17 3.877-16.555 19.746-6.703 41.601-7.001 55.845 3.813 10.814 14.244 10.517 36.099 3.813 55.845z" fill="#0956c6"/><path d="m481.923 89.771c-2.377 6.987-11.304 9.009-16.523 3.791l-31.459-31.459c15.971-8.484 35.48-12.89 51.832-9.977 2.093 11.747.409 25.122-3.85 37.645z" fill="#2476ed"/><path d="m50.75 263.482-9.35-9.35c-.781-.781-.781-2.047 0-2.828l9.35-9.35c.781-.781 2.047-.781 2.828 0l9.35 9.35c.781.781.781 2.047 0 2.828l-9.35 9.35c-.78.781-2.047.781-2.828 0zm218.459 225.857 9.35-9.35c.781-.781.781-2.047 0-2.828l-9.35-9.35c-.781-.781-2.047-.781-2.828 0l-9.35 9.35c-.781.781-.781 2.047 0 2.828l9.35 9.35c.781.781 2.047.781 2.828 0zm-204.599-47.388c-1.953-1.953-1.953-5.118 0-7.071l45.131-45.131c1.953-1.953 5.118-1.953 7.071 0 1.953 1.953 1.953 5.118 0 7.071l-45.131 45.131c-1.953 1.953-5.119 1.953-7.071 0zm3.926-39.281 34.135-34.135c1.953-1.953 1.953-5.118 0-7.071-1.953-1.953-5.118-1.953-7.071 0l-34.135 34.135c-1.953 1.953-1.953 5.118 0 7.071 1.952 1.953 5.118 1.953 7.071 0zm42.426 42.427 34.135-34.135c1.953-1.953 1.953-5.118 0-7.071-1.953-1.953-5.118-1.953-7.071 0l-34.135 34.135c-1.953 1.953-1.953 5.118 0 7.071 1.952 1.952 5.118 1.952 7.071 0z" fill="#2476ed"/><path d="m106.333 158.536c-1.953-1.953-1.953-5.118 0-7.071l45.131-45.131c1.953-1.953 5.118-1.953 7.071 0 1.953 1.953 1.953 5.118 0 7.071l-45.131 45.131c-1.952 1.952-5.118 1.952-7.071 0zm3.926-39.282 34.135-34.135c1.953-1.953 1.953-5.118 0-7.071-1.953-1.953-5.118-1.953-7.071 0l-34.135 34.135c-1.953 1.953-1.953 5.118 0 7.071 1.952 1.953 5.118 1.953 7.071 0z" fill="#07a9f0"/><path d="m351.464 403.667c-1.953-1.953-1.953-5.118 0-7.071l45.131-45.131c1.953-1.953 5.118-1.953 7.071 0 1.953 1.953 1.953 5.118 0 7.071l-45.131 45.131c-1.952 1.953-5.118 1.953-7.071 0zm46.361 3.153 34.135-34.135c1.953-1.953 1.953-5.118 0-7.071-1.953-1.953-5.118-1.953-7.071 0l-34.135 34.135c-1.953 1.953-1.953 5.118 0 7.071 1.952 1.953 5.118 1.953 7.071 0z" fill="#40c1fa"/><path d="m166.109 181.464c1.953 1.953 1.953 5.118 0 7.071s-5.118 1.953-7.071 0l-14.142-14.142c-1.953-1.953-1.953-5.118 0-7.071s5.118-1.953 7.071 0zm0-28.284c-1.953-1.953-5.118-1.953-7.071 0-1.953 1.953-1.953 5.118 0 7.071l14.142 14.142c1.953 1.953 5.118 1.953 7.071 0s1.953-5.118 0-7.071zm42.427-14.142-14.142-14.142c-1.953-1.953-5.118-1.953-7.071 0-1.953 1.953-1.953 5.118 0 7.071l14.142 14.142c1.953 1.953 5.118 1.953 7.071 0 1.952-1.952 1.952-5.118 0-7.071zm-28.285 0c-1.953-1.953-5.118-1.953-7.071 0s-1.953 5.118 0 7.071l14.142 14.142c1.953 1.953 5.118 1.953 7.071 0s1.953-5.118 0-7.071z" fill="#0956c6"/><path d="m353.536 340.607c1.953 1.953 1.953 5.118 0 7.071s-5.118 1.953-7.071 0l-14.142-14.142c-1.953-1.953-1.953-5.118 0-7.071s5.118-1.953 7.071 0zm28.284-28.285-14.142-14.142c-1.953-1.953-5.118-1.953-7.071 0s-1.953 5.118 0 7.071l14.142 14.142c1.953 1.953 5.118 1.953 7.071 0 1.952-1.952 1.952-5.118 0-7.071zm-56.569 28.285c-1.953-1.953-5.118-1.953-7.071 0s-1.953 5.118 0 7.071l14.142 14.142c1.953 1.953 5.118 1.953 7.071 0s1.953-5.118 0-7.071zm28.285-28.285c-1.953-1.953-5.118-1.953-7.071 0s-1.953 5.118 0 7.071l14.142 14.142c1.953 1.953 5.118 1.953 7.071 0s1.953-5.118 0-7.071z" fill="#0a66ea"/><path d="m459.281 170.719-133.623 133.623c-1.666 1.666-4.152 2.203-6.357 1.372l-159.112-59.919c-4.08-1.537-5.211-6.775-2.128-9.858l133.623-133.623c1.666-1.666 4.152-2.203 6.357-1.372l159.112 59.919c4.081 1.537 5.211 6.775 2.128 9.858z" fill="#ffc14f"/><path d="m358.467 123.698-142.938 142.938-55.34-20.84c-4.08-1.537-5.211-6.775-2.128-9.858l133.623-133.623c1.666-1.666 4.152-2.203 6.357-1.372z" fill="#ffa90b"/><path d="m212.3 435.258-9.35-9.35c-.781-.781-.781-2.047 0-2.828l9.35-9.35c.781-.781 2.047-.781 2.828 0l9.35 9.35c.781.781.781 2.047 0 2.828l-9.35 9.35c-.781.781-2.047.781-2.828 0zm275.785-148.279 9.35-9.35c.781-.781.781-2.047 0-2.828l-9.35-9.35c-.781-.781-2.047-.781-2.828 0l-9.35 9.35c-.781.781-.781 2.047 0 2.828l9.35 9.35c.781.781 2.047.781 2.828 0zm-253.22-236.624 9.35-9.35c.781-.781.781-2.047 0-2.828l-9.35-9.35c-.781-.781-2.047-.781-2.828 0l-9.35 9.35c-.781.781-.781 2.047 0 2.828l9.35 9.35c.781.781 2.047.781 2.828 0z" fill="#ffc14f"/><path d="m369.736 203.762c0 21.363-13.161 36.283-32.005 36.283-20.007 0-36.284-16.276-36.284-36.283s16.277-36.284 36.284-36.284c7.271 0 14.286 2.144 20.289 6.2 2.288 1.546 2.89 4.654 1.344 6.942-1.545 2.288-4.655 2.89-6.941 1.344-4.344-2.935-9.424-4.486-14.691-4.486-14.493 0-26.284 11.791-26.284 26.284s11.791 26.283 26.284 26.283c14.041 0 20.251-10.582 21.676-21.283h-13.388c-2.762 0-5-2.239-5-5s2.238-5 5-5h18.717c2.761 0 4.999 2.238 4.999 5zm-98.798-11.153c-2.499 0-4.565.16-6.396.462l2.492-15.042h18.636c2.762 0 5-2.239 5-5s-2.238-5-5-5h-22.875c-2.446 0-4.533 1.77-4.933 4.183l-4.532 27.352c-.309 1.86.463 3.732 1.983 4.847s3.545 1.276 5.228.421c.045-.023.244-.121.563-.266 2.628-1.182 4.731-1.957 9.833-1.957 3.77 0 7.278 1.508 9.878 4.247 2.598 2.737 3.921 6.326 3.725 10.106-.367 7.083-6.218 12.744-13.318 12.887-6.85.141-12.822-4.896-13.774-11.717-.087-.62-.131-1.26-.131-1.902 0-2.761-2.238-5-5-5s-5 2.239-5 5c0 1.106.077 2.214.228 3.288 1.628 11.672 11.641 20.335 23.396 20.334.16 0 .322-.001.482-.005 12.317-.249 22.466-10.073 23.104-22.367.34-6.547-1.954-12.765-6.459-17.51-4.441-4.678-10.686-7.361-17.13-7.361z" fill="#fff"/></g></svg>