<svg id="Capa_1" enable-background="new 0 0 512 512" height="512" viewBox="0 0 512 512" width="512" xmlns="http://www.w3.org/2000/svg"><g><path d="m512 255.618c.193 132.528-100.32 241.621-229.263 255.002-5.388.559-10.077-3.678-10.077-9.094 0-47.176-38.244-85.419-85.419-85.419h-131.007c-35.185-43.844-56.234-99.517-56.234-160.107 0-141.226 114.358-255.743 255.524-256 140.969-.256 256.27 114.649 256.476 255.618z" fill="#f76937"/><path d="m495.809 153.571v107.059c0 5.523-4.477 10-10 10h-143.809c-5.523 0-10-4.477-10-10v-107.059c0-5.523 4.477-10 10-10h143.809c5.522 0 10 4.477 10 10z" fill="#ffa90b"/><path d="m512 153.571v107.059c0 5.523-4.477 10-10 10h-32.958c-5.523 0-10-4.477-10-10v-107.059c0-5.523 4.477-10 10-10h32.958c5.523 0 10 4.477 10 10z" fill="#ffc14f"/><path d="m327 38v360c0 16.569-13.431 30-30 30h-53.5c-16.569 0-30-13.431-30-30v-360c0-16.569 13.431-30 30-30h53.5c16.569 0 30 13.431 30 30z" fill="#0a66ea"/><path d="m432.5 38.5v360c0 16.569-13.431 30-30 30h-115.5c-16.569 0-30-13.431-30-30v-360c0-16.569 13.431-30 30-30h115.5c16.569 0 30 13.431 30 30z" fill="#2476ed"/><path d="m440 41.7v-4.2c0-20.678-16.822-37.5-37.5-37.5h-159c-20.678 0-37.5 16.822-37.5 37.5v4.2c-4.564.927-8 4.962-8 9.8v26.154c0 4.838 3.436 8.873 8 9.8v8.093c-4.564.927-8 4.962-8 9.8v26.153c0 4.838 3.436 8.873 8 9.8v256.2c0 20.678 16.822 37.5 37.5 37.5h159c20.678 0 37.5-16.822 37.5-37.5v-296.2c4.564-.927 8-4.962 8-9.8v-40c0-4.838-3.436-8.873-8-9.8zm-15 355.8c0 12.407-10.094 22.5-22.5 22.5h-159c-12.406 0-22.5-10.093-22.5-22.5v-360c0-12.407 10.094-22.5 22.5-22.5h49.5v6.5c0 5.523 4.477 10 10 10h40c5.523 0 10-4.477 10-10v-6.5h49.5c12.406 0 22.5 10.093 22.5 22.5z" fill="#274c91"/><path d="m343 16.5c0 2.761-2.239 5-5 5h-30c-2.761 0-5-2.239-5-5s2.239-5 5-5h30c2.761 0 5 2.239 5 5z" fill="#0956c6"/><path d="m407 36.5v20c0 2.761-2.239 5-5 5s-5-2.239-5-5v-20c0-2.761 2.239-5 5-5s5 2.239 5 5zm-25 5c-2.761 0-5 2.239-5 5v10c0 2.761 2.239 5 5 5s5-2.239 5-5v-10c0-2.761-2.239-5-5-5zm-20 10c-2.761 0-5 2.239-5 5s2.239 5 5 5 5-2.239 5-5-2.239-5-5-5zm-100-20h-20c-2.761 0-5 2.239-5 5s2.239 5 5 5h20c2.761 0 5-2.239 5-5s-2.239-5-5-5zm0 20h-20c-2.761 0-5 2.239-5 5s2.239 5 5 5h20c2.761 0 5-2.239 5-5s-2.239-5-5-5zm77 320h-32c-5.523 0-10 4.477-10 10s4.477 10 10 10h32c5.523 0 10-4.477 10-10s-4.477-10-10-10z" fill="#5596fb"/><path d="m170 148.5v255.131c0 46.388-55.479 70.718-89.282 38.95-8.662-8.14-16.756-16.876-24.218-26.144v-267.937c0-16.569 13.431-30 30-30h53.5c16.569 0 30 13.431 30 30z" fill="#93dcfc"/><path d="m275.5 149v360c0 .765-.029 1.524-.085 2.275-6.409.48-12.883.725-19.415.725-58.714 0-112.811-19.766-156-53.006v-309.994c0-16.569 13.431-30 30-30h115.5c16.569 0 30 13.431 30 30z" fill="#b4e7fd"/><path d="m291 162v40c0 4.838-3.436 8.873-8 9.8v296.2c0 .875-.031 1.742-.09 2.602-5.031.526-10.106.905-15.22 1.135.204-1.216.311-2.465.311-3.738v-359.999c0-12.407-10.094-22.5-22.5-22.5h-49.501v6.5c0 5.523-4.477 10-10 10h-40c-5.523 0-10-4.477-10-10v-6.5h-49.5c-12.406 0-22.5 10.093-22.5 22.5v277.333c-5.282-5.984-10.289-12.218-15-18.68v-154.853c-4.564-.927-8-4.962-8-9.8v-26.154c0-4.838 3.436-8.873 8-9.8v-8.093c-4.564-.927-8-4.962-8-9.8v-26.153c0-4.838 3.436-8.873 8-9.8v-4.2c0-20.678 16.822-37.5 37.5-37.5h159c20.678 0 37.5 16.822 37.5 37.5v4.2c4.564.927 8 4.962 8 9.8z" fill="#0956c6"/><path d="m186 127c0 2.761-2.239 5-5 5h-30c-2.761 0-5-2.239-5-5s2.239-5 5-5h30c2.761 0 5 2.239 5 5z" fill="#2476ed"/><path d="m250 147v20c0 2.761-2.239 5-5 5s-5-2.239-5-5v-20c0-2.761 2.239-5 5-5s5 2.239 5 5zm-25 5c-2.761 0-5 2.239-5 5v10c0 2.761 2.239 5 5 5s5-2.239 5-5v-10c0-2.761-2.239-5-5-5zm-20 10c-2.761 0-5 2.239-5 5s2.239 5 5 5 5-2.239 5-5-2.239-5-5-5zm-100-20h-20c-2.761 0-5 2.239-5 5s2.239 5 5 5h20c2.761 0 5-2.239 5-5s-2.239-5-5-5zm0 20h-20c-2.761 0-5 2.239-5 5s2.239 5 5 5h20c2.761 0 5-2.239 5-5s-2.239-5-5-5z" fill="#72d1fb"/><path d="m180 381.5v98.138c0 5.523-4.477 10-10 10h-160c-5.523 0-10-4.477-10-10v-98.138c0-5.523 4.477-10 10-10h160c5.523 0 10 4.477 10 10z" fill="#ffa90b"/><path d="m180 479.575v1.194c0 5.523-4.477 10-10 10h-160c-5.523 0-10-4.477-10-10v-1.194l90-66.204z" fill="#ffc14f"/><path d="m180 373.71v8.725l-90 66.204-90-66.204v-8.725c0-5.523 4.477-10 10-10h160c5.523 0 10 4.477 10 10z" fill="#ffcd71"/><path d="m413.766 92.588v78.824c0 5.523-4.477 10-10 10h-43.766c-5.523 0-10-4.477-10-10v-78.824c0-5.523 4.477-10 10-10h43.766c5.523 0 10 4.477 10 10z" fill="#72d1fb"/><path d="m490 92.588v78.824c0 5.523-4.477 10-10 10h-93c-5.523 0-10-4.477-10-10v-78.824c0-5.523 4.477-10 10-10h93c5.523 0 10 4.477 10 10z" fill="#93dcfc"/><path d="m370 102c0-2.761 2.239-5 5-5h90c2.761 0 5 2.239 5 5s-2.239 5-5 5h-90c-2.761 0-5-2.239-5-5zm95 35h-90c-2.761 0-5 2.239-5 5s2.239 5 5 5h90c2.761 0 5-2.239 5-5s-2.239-5-5-5zm-90-10h70c2.761 0 5-2.239 5-5s-2.239-5-5-5h-70c-2.761 0-5 2.239-5 5s2.239 5 5 5zm40 30h-40c-2.761 0-5 2.239-5 5s2.239 5 5 5h40c2.761 0 5-2.239 5-5s-2.239-5-5-5z" fill="#fff5f5"/><path d="m416.192 281.07c0 1.989-.79 3.896-2.196 5.304l-31.648 31.648c-1.465 1.464-3.385 2.196-5.304 2.196s-3.839-.732-5.304-2.196c-2.929-2.93-2.929-7.678 0-10.607l18.845-18.845h-134.562c-4.143 0-7.5-3.357-7.5-7.5s3.357-7.5 7.5-7.5h134.562l-18.845-18.844c-2.929-2.93-2.929-7.678 0-10.607 2.93-2.928 7.679-2.928 10.606 0l31.649 31.647c1.407 1.407 2.197 3.314 2.197 5.304zm-182.52-24.375h100.962c4.143 0 7.5-3.357 7.5-7.5s-3.357-7.5-7.5-7.5h-100.962c-4.143 0-7.5 3.357-7.5 7.5s3.358 7.5 7.5 7.5zm100.962 49h-100.962c-4.143 0-7.5 3.357-7.5 7.5s3.357 7.5 7.5 7.5h100.962c4.143 0 7.5-3.357 7.5-7.5s-3.357-7.5-7.5-7.5z" fill="#ffcd71"/><path d="m147.282 290.813c-3.601 6.66-10.826 11.074-19.033 10.597-10.173-.591-18.415-8.833-19.006-19.006-.477-8.206 3.937-15.432 10.597-19.033 1.016-.549 2.192.345 1.954 1.475-.364 1.723-.508 3.527-.403 5.382.579 10.189 8.845 18.455 19.034 19.034 1.854.105 3.658-.039 5.382-.403 1.13-.239 2.024.938 1.475 1.954zm-63.671-3.941c-1.276.269-2.613.376-3.986.298-7.548-.429-13.67-6.552-14.099-14.099-.078-1.374.029-2.71.298-3.986.177-.837-.695-1.499-1.447-1.093-4.934 2.668-8.203 8.02-7.85 14.098.438 7.536 6.543 13.641 14.079 14.079 6.079.353 11.431-2.916 14.098-7.85.406-.752-.256-1.624-1.093-1.447z" fill="#ffa90b"/><path d="m229.172 281.07c0 4.143-3.357 7.5-7.5 7.5h-41.649c-4.143 0-7.5-3.357-7.5-7.5s3.357-7.5 7.5-7.5h41.649c4.143 0 7.5 3.357 7.5 7.5zm-67.5-24.625h25.287c4.143 0 7.5-3.357 7.5-7.5s-3.357-7.5-7.5-7.5h-25.287c-4.143 0-7.5 3.357-7.5 7.5s3.358 7.5 7.5 7.5zm25.288 49h-25.287c-4.143 0-7.5 3.357-7.5 7.5s3.357 7.5 7.5 7.5h25.287c4.143 0 7.5-3.357 7.5-7.5s-3.358-7.5-7.5-7.5zm-57.503-44.5c-3.509 0-6.809.893-9.687 2.463-1.57 2.877-2.463 6.178-2.463 9.687 0 11.184 9.066 20.25 20.25 20.25 3.509 0 6.809-.893 9.687-2.463 1.57-2.877 2.463-6.178 2.463-9.687 0-11.184-9.066-20.25-20.25-20.25zm-57.957 5.25c-2.599 0-5.044.661-7.175 1.825-1.163 2.131-1.825 4.576-1.825 7.175 0 8.284 6.716 15 15 15 2.599 0 5.044-.661 7.175-1.825 1.163-2.131 1.825-4.576 1.825-7.175 0-8.284-6.716-15-15-15z" fill="#ffc14f"/></g></svg>