<svg id="Capa_1" enable-background="new 0 0 512 512" height="512" viewBox="0 0 512 512" width="512" xmlns="http://www.w3.org/2000/svg"><g><path d="m38.085 390.414c-24.256-39.24-38.209-85.522-38.084-135.072.36-143.442 117.319-257.902 260.738-255.298 139.198 2.526 251.261 116.154 251.261 255.956 0 56.127-18.063 108.035-48.692 150.228-2.396 3.301-6.722 4.581-10.533 3.126-62.877-24.007-136.92-37.855-216.18-37.855-64.808 0-126.128 9.259-180.708 25.759-6.79 2.054-14.072-.809-17.802-6.844z" fill="#ffb52d"/><path d="m456.142 170v236.84c0 5.896-2.16 11.571-6.005 16.04-44.107 51.265-108.172 84.865-180.137 88.744-4.635.25-.495-8.431-5.193-8.431-.54 0-1.08-.002-1.62-.005-79.616-.493-152.637-56.531-152.637-136.149v-316.525c0-11.046 8.954-20 20-20h305.591c11.046 0 20 8.954 20 20v119.477c.001.003.001.006.001.009z" fill="#40c1fa"/><path d="m150.572 420c-14.064-6.364-27.451-13.962-40.021-22.657v-346.829c0-11.046 8.954-20 20-20h40.021c-11.046 0-20 8.954-20 20z" fill="#07a9f0"/><path d="m165 60.001h-20c-2.761 0-5 2.239-5 5s2.239 5 5 5h20c2.761 0 5-2.239 5-5 0-2.762-2.239-5-5-5zm0 19.999h-20c-2.761 0-5 2.239-5 5s2.239 5 5 5h20c2.761 0 5-2.239 5-5s-2.239-5-5-5z" fill="#93dcfc"/><path d="m463.642 49.949v355.819c-4.708 6.515-9.714 12.8-15 18.835v-374.654c0-6.893-5.607-12.5-12.5-12.5h-305.592c-6.893 0-12.5 5.607-12.5 12.5v200.051h-15v-200.051c0-15.164 12.336-27.5 27.5-27.5h305.591c15.164 0 27.501 12.336 27.501 27.5z" fill="#274c91"/><path d="m265 470c-2.761 0-5-2.239-5-5v-80c0-2.761 2.239-5 5-5h150c2.761 0 5 2.239 5 5v67.578c-7.468 6.237-15.296 12.056-23.449 17.422zm150-245.106h-150c-2.761 0-5-2.239-5-5v-104.894c0-2.761 2.239-5 5-5h150c2.761 0 5 2.239 5 5v104.893c0 2.762-2.239 5.001-5 5.001zm-95 130.106v-104.893c0-2.761-2.239-5-5-5h-120c-2.761 0-5 2.239-5 5v104.893c0 2.761 2.239 5 5 5h120c2.761 0 5-2.238 5-5z" fill="#07a9f0"/><path d="m415 360h-70c-2.761 0-5-2.239-5-5v-104.893c0-2.761 2.239-5 5-5h70c2.761 0 5 2.239 5 5v104.893c0 2.762-2.239 5-5 5zm-175-185v-60c0-2.761-2.239-5-5-5h-90c-2.761 0-5 2.239-5 5v60c0 2.761 2.239 5 5 5h90c2.761 0 5-2.238 5-5z" fill="#72d1fb"/><path d="m405 267h-50c-2.761 0-5-2.239-5-5 0-2.761 2.239-5 5-5h50c2.761 0 5 2.239 5 5 0 2.762-2.239 5-5 5zm5 75c0-2.761-2.239-5-5-5h-50c-2.761 0-5 2.239-5 5 0 2.761 2.239 5 5 5h50c2.761 0 5-2.238 5-5zm-10-40c0-2.761-2.239-5-5-5h-40c-2.761 0-5 2.239-5 5 0 2.761 2.239 5 5 5h40c2.761 0 5-2.238 5-5zm-10-20c0-2.761-2.239-5-5-5h-30c-2.761 0-5 2.239-5 5 0 2.761 2.239 5 5 5h30c2.761 0 5-2.238 5-5zm0 40c0-2.761-2.239-5-5-5h-30c-2.761 0-5 2.239-5 5 0 2.761 2.239 5 5 5h30c2.761 0 5-2.238 5-5zm-208-187c0 8.284-6.716 15-15 15s-15-6.716-15-15 6.716-15 15-15 15 6.716 15 15zm0 30c0-2.761-2.239-5-5-5h-20c-2.761 0-5 2.239-5 5 0 2.761 2.239 5 5 5h20c2.761 0 5-2.238 5-5zm28-45c-8.284 0-15 6.716-15 15s6.716 15 15 15 15-6.716 15-15-6.716-15-15-15zm15 45c0-2.761-2.239-5-5-5h-20c-2.761 0-5 2.239-5 5 0 2.761 2.239 5 5 5h20c2.761 0 5-2.238 5-5z" fill="#b4e7fd"/><path d="m275 424.439c-2.761 0-5 2.239-5 5v15c0 2.762 2.239 5 5 5s5-2.238 5-5v-15c0-2.761-2.239-5-5-5zm40-24.758c-2.761 0-5 2.239-5 5v40c0 2.761 2.239 5 5 5s5-2.239 5-5v-40c0-2.761-2.239-5-5-5zm-20 10c-2.761 0-5 2.239-5 5v30c0 2.761 2.239 5 5 5s5-2.239 5-5v-30c0-2.761-2.239-5-5-5zm40 15c-2.761 0-5 2.239-5 5v15c0 2.761 2.239 5 5 5s5-2.239 5-5v-15c0-2.761-2.239-5-5-5zm40-25c-2.761 0-5 2.239-5 5v40c0 2.761 2.239 5 5 5s5-2.239 5-5v-40c0-2.761-2.239-5-5-5zm-20 10c-2.761 0-5 2.239-5 5v30c0 2.761 2.239 5 5 5s5-2.239 5-5v-30c0-2.761-2.239-5-5-5zm40 15c-2.761 0-5 2.239-5 5v15c0 2.761 2.239 5 5 5s5-2.239 5-5v-15c0-2.761-2.239-5-5-5zm-80-254.681h-40c-2.761 0-5-2.239-5-5v-40c0-2.761 2.239-5 5-5h40c2.761 0 5 2.239 5 5v40c0 2.762-2.239 5-5 5zm65-45c0-2.761-2.239-5-5-5h-40c-2.761 0-5 2.239-5 5 0 2.761 2.239 5 5 5h40c2.761 0 5-2.238 5-5zm0 20c0-2.761-2.239-5-5-5h-40c-2.761 0-5 2.239-5 5 0 2.761 2.239 5 5 5h40c2.761 0 5-2.238 5-5zm20 20c0-2.761-2.239-5-5-5h-60c-2.761 0-5 2.239-5 5 0 2.761 2.239 5 5 5h60c2.761 0 5-2.238 5-5zm10 20c0-2.761-2.239-5-5-5h-130c-2.761 0-5 2.239-5 5 0 2.761 2.239 5 5 5h130c2.761 0 5-2.238 5-5zm0 20c0-2.761-2.239-5-5-5h-130c-2.761 0-5 2.239-5 5 0 2.761 2.239 5 5 5h130c2.761 0 5-2.238 5-5z" fill="#2476ed"/><path d="m159 236.5v183.082c0 35.412-41.458 54.663-68.468 31.761-14.512-12.305-27.635-26.198-39.101-41.411-3.851-5.11-5.932-11.338-5.932-17.736v-155.696c0-16.569 13.431-30 30-30h53.501c16.569 0 30 13.432 30 30z" fill="#93dcfc"/><path d="m264.5 237v268.402c0 3.614-2.912 6.563-6.526 6.59-.658.005-1.315.008-1.974.008-63.812 0-122.171-23.347-167-61.966v-213.034c0-16.569 13.431-30 30-30h115.5c16.569 0 30 13.432 30 30z" fill="#b4e7fd"/><path d="m280 250v40c0 4.838-3.436 8.873-8 9.8v211.708c-4.963.306-9.964.471-15 .49v-275.998c0-12.407-10.094-22.5-22.5-22.5h-49.5v6.5c0 5.523-4.477 10-10 10h-40c-5.523 0-10-4.477-10-10v-6.5h-49.5c-12.406 0-22.5 10.094-22.5 22.5v175.992c-5.359-6.964-10.368-14.211-15-21.715v-50.477c-4.564-.927-8-4.962-8-9.8v-26.154c0-4.838 3.436-8.873 8-9.8v-8.093c-4.564-.927-8-4.962-8-9.8v-26.153c0-4.838 3.436-8.873 8-9.8v-4.2c0-20.678 16.822-37.5 37.5-37.5h159c20.678 0 37.5 16.822 37.5 37.5v4.2c4.564.927 8 4.962 8 9.8z" fill="#0956c6"/><path d="m175 215c0 2.761-2.239 5-5 5h-30c-2.761 0-5-2.239-5-5s2.239-5 5-5h30c2.761 0 5 2.239 5 5z" fill="#2476ed"/><path d="m79.592 420c-2.761 0-5-2.239-5-5 0-2.761 2.239-5 5-5 2.761 0 5 2.239 5 5 0 2.762-2.239 5-5 5zm154.408-190c-2.761 0-5 2.239-5 5v20c0 2.761 2.239 5 5 5s5-2.239 5-5v-20c0-2.761-2.239-5-5-5zm-15 15v10c0 2.761-2.239 5-5 5s-5-2.239-5-5v-10c0-2.761 2.239-5 5-5s5 2.239 5 5zm-20 10c0 2.761-2.239 5-5 5s-5-2.239-5-5 2.239-5 5-5 5 2.239 5 5zm-100-20c0 2.761-2.239 5-5 5h-20c-2.761 0-5-2.239-5-5s2.239-5 5-5h20c2.761 0 5 2.239 5 5zm0 20c0 2.761-2.239 5-5 5h-20c-2.761 0-5-2.239-5-5s2.239-5 5-5h20c2.761 0 5 2.239 5 5zm135 144.766h-154.408c-2.761 0-5-2.239-5-5v-104.893c0-2.761 2.239-5 5-5h154.408c2.761 0 5 2.239 5 5v104.893c0 2.761-2.239 5-5 5zm-19 40.234h-135.408c-.718 0-1.4-.152-2.017-.424-.849-.825-1.692-1.656-2.529-2.493-.291-.634-.454-1.34-.454-2.084 0-2.761 2.239-5 5-5h135.408c2.761 0 5 2.239 5 5s-2.239 5.001-5 5.001zm-40 40h-43.031c-5.64-3.13-11.15-6.467-16.519-10h59.55c2.761 0 5 2.239 5 5s-2.239 5-5 5zm64-25c0 2.761-2.239 5-5 5h-132.683c-4.223-3.207-8.344-6.542-12.356-10h145.039c2.761 0 5 2.239 5 5zm-119-35c-2.761 0-5-2.239-5-5 0-2.761 2.239-5 5-5 2.761 0 5 2.239 5 5 0 2.762-2.239 5-5 5zm-15-5c0-2.761-2.239-5-5-5-2.761 0-5 2.239-5 5 0 2.761 2.239 5 5 5 2.761 0 5-2.238 5-5z" fill="#72d1fb"/><path d="m90 332.319c0-2.761 2.239-5 5-5h70c2.761 0 5 2.239 5 5s-2.239 5-5 5h-70c-2.761 0-5-2.238-5-5zm5-15h90c2.761 0 5-2.239 5-5s-2.239-5-5-5h-90c-2.761 0-5 2.239-5 5s2.239 5 5 5zm90 30h-90c-2.761 0-5 2.239-5 5s2.239 5 5 5h90c2.761 0 5-2.239 5-5s-2.239-5-5-5zm-50 20h-40c-2.761 0-5 2.239-5 5s2.239 5 5 5h40c2.761 0 5-2.239 5-5s-2.239-5-5-5z" fill="#d5f1fe"/><path d="m501.219 132.746c-16.006 29.601-48.117 49.216-84.59 47.098-45.215-2.626-81.847-39.257-84.473-84.472-2.118-36.473 17.497-68.584 47.098-84.59 4.514-2.441 9.744 1.533 8.684 6.555-1.616 7.659-2.258 15.676-1.789 23.918 2.575 45.287 39.31 82.022 84.597 84.597 8.241.469 16.259-.173 23.918-1.789 5.022-1.061 8.996 4.169 6.555 8.683z" fill="#ea552d"/><path d="m512 90c0 15.596-3.968 30.264-10.947 43.053-12.789 6.98-27.458 10.947-43.053 10.947-49.706 0-90-40.294-90-90 0-15.596 3.968-30.264 10.947-43.053 12.789-6.979 27.457-10.946 43.053-10.946 49.706 0 90 40.294 90 89.999z" fill="#f76937"/><path d="m389.894 110.037v13.518c0 3.733-3.026 6.759-6.759 6.759s-6.759-3.026-6.759-6.759v-13.518c0-3.733 3.026-6.759 6.759-6.759s6.759 3.026 6.759 6.759zm18.25-20.277c-3.733 0-6.759 3.026-6.759 6.759v27.037c0 3.733 3.026 6.759 6.759 6.759 3.733 0 6.759-3.026 6.759-6.759v-27.037c0-3.733-3.027-6.759-6.759-6.759zm25.685-27.037c-3.733 0-6.759 3.026-6.759 6.759v54.074c0 3.733 3.026 6.759 6.759 6.759 3.733 0 6.759-3.026 6.759-6.759v-54.074c0-3.733-3.026-6.759-6.759-6.759zm27.037-27.037c-3.733 0-6.759 3.026-6.759 6.759v81.111c0 3.733 3.026 6.759 6.759 6.759s6.759-3.026 6.759-6.759v-81.111c0-3.733-3.026-6.759-6.759-6.759z" fill="#fff"/></g></svg>