<svg id="Capa_1" enable-background="new 0 0 512 512" height="512" viewBox="0 0 512 512" width="512" xmlns="http://www.w3.org/2000/svg"><g><path d="m13.079 337c-8.484-25.457-13.079-52.692-13.079-81 0-141.385 114.615-256 256-256s256 114.615 256 256c0 28.308-4.595 55.543-13.079 81z" fill="#5596fb"/><path d="m488 256c0 128.13-103.87 232-232 232s-232-103.87-232-232 103.87-232 232-232 232 103.87 232 232z" fill="#72d1fb"/><path d="m488 256c0 93.305-55.081 173.745-134.5 210.579-79.419-36.834-134.5-117.274-134.5-210.579s55.081-173.745 134.5-210.579c79.419 36.834 134.5 117.274 134.5 210.579z" fill="#93dcfc"/><path d="m153 256c0 2.761-2.239 5-5 5h-21c-2.761 0-5-2.239-5-5 0-2.761 2.239-5 5-5h21c2.761 0 5 2.239 5 5zm232-5h-21c-2.761 0-5 2.239-5 5 0 2.761 2.239 5 5 5h21c2.761 0 5-2.239 5-5 0-2.761-2.239-5-5-5zm-134-124v21c0 2.761 2.239 5 5 5 2.761 0 5-2.239 5-5v-21c0-2.761-2.239-5-5-5-2.761 0-5 2.239-5 5zm114.217 60.17-18.187 10.5c-2.391 1.381-3.211 4.439-1.83 6.83 1.381 2.391 4.439 3.211 6.83 1.83l18.187-10.5c2.391-1.381 3.211-4.439 1.83-6.83-1.38-2.391-4.438-3.211-6.83-1.83zm-178.047-40.387 10.5 18.187c1.381 2.391 4.439 3.211 6.83 1.83 2.391-1.381 3.211-4.439 1.83-6.83l-10.5-18.187c-1.381-2.391-4.439-3.211-6.83-1.83-2.391 1.38-3.211 4.438-1.83 6.83zm129-5-10.5 18.187c-1.381 2.391-.561 5.449 1.83 6.83 2.391 1.381 5.449.561 6.83-1.83l10.5-18.187c1.381-2.391.561-5.449-1.83-6.83-2.391-1.381-5.449-.562-6.83 1.83zm-174.387 54.047 18.187 10.5c2.391 1.381 5.449.561 6.83-1.83 1.381-2.391.561-5.449-1.83-6.83l-18.187-10.5c-2.391-1.381-5.449-.561-6.83 1.83-1.381 2.391-.562 5.449 1.83 6.83z" fill="#5596fb"/><path d="m184 84.072c0 7.923-4.848 15.001-12.193 17.971-55.644 22.5-96.307 74.292-102.874 136.26-.749 7.071-7.03 12.335-14.273 11.634-7.263-.703-12.365-7.433-11.666-14.696 7.037-73.099 50.848-135.451 112.712-168.332 12.828-6.817 28.294 2.636 28.294 17.163z" fill="#ea552d"/><path d="m430.598 250c-16.49 0-30.696-11.593-34.03-27.743-15.59-75.5-82.451-132.257-162.568-132.257-25.437 0-49.537 5.721-71.084 15.947-12.498 5.932-26.916-3.074-26.916-16.908 0-6.524 3.369-12.611 8.943-16.002 32.376-19.694 70.392-31.037 111.057-31.037 101.398 0 186.325 70.522 208.409 165.194 5.1 21.862-11.362 42.806-33.811 42.806z" fill="#ffa90b"/><path d="m430.598 250h-.535c-16.316 0-30.178-11.595-33.461-27.577-5.921-28.825-19.314-54.923-38.066-76.183-8.468-9.601-10.275-23.378-4.711-34.908 9.446-19.577 35.312-24.282 50.936-9.171 29.039 28.087 50.149 64.321 59.646 105.019 5.101 21.867-11.355 42.82-33.809 42.82z" fill="#ffc14f"/><path d="m313.798 330.341c95.841 0 119.695 133.625 29.614 166.347-27.276 9.908-56.713 15.312-87.412 15.312-115.53 0-213.186-76.529-245.039-181.659z" fill="#0a3575"/><path d="m183.961 330h317.077c-23.483 77.505-82.731 139.465-158.539 166.676-75.807-27.211-135.055-89.171-158.538-166.676z" fill="#0a4499"/><path d="m502 344h-492c-5.523 0-10-4.477-10-10 0-5.523 4.477-10 10-10h492c5.523 0 10 4.477 10 10 0 5.523-4.477 10-10 10z" fill="#0956c6"/><path d="m424 344h-336c-5.523 0-10-4.477-10-10 0-5.523 4.477-10 10-10h336c5.523 0 10 4.477 10 10 0 5.523-4.477 10-10 10z" fill="#0a66ea"/><path d="m264.31 355.492-35.355-35.355 265.593-243.575c4.11-3.769 10.459-3.632 14.402.311 3.958 3.958 4.079 10.338.273 14.443z" fill="#203e76"/><path d="m343.1 411.12c6.019-1.27 10.783 4.998 7.857 10.41-19.186 35.482-57.677 58.994-101.395 56.455-54.198-3.148-98.107-47.057-101.254-101.254-2.539-43.719 20.973-82.21 56.455-101.396 5.411-2.926 11.68 1.838 10.41 7.857-1.937 9.18-2.706 18.791-2.145 28.67 3.086 54.284 47.119 98.317 101.403 101.403 9.878.562 19.489-.208 28.669-2.145z" fill="#2476ed"/><path d="m363.88 370.292c0 18.694-4.756 36.277-13.122 51.606-15.329 8.366-32.912 13.122-51.606 13.122-59.58 0-107.88-48.3-107.88-107.88 0-18.694 4.756-36.277 13.122-51.606 15.329-8.366 32.912-13.122 51.606-13.122 59.58 0 107.88 48.3 107.88 107.88z" fill="#5596fb"/><path d="m336.799 370.292c0 27.782-17.031 47.186-41.417 47.186-26.019 0-47.186-21.167-47.186-47.186 0-26.018 21.167-47.186 47.186-47.186 9.454 0 18.578 2.788 26.386 8.062 2.288 1.545 2.891 4.653 1.345 6.942-1.547 2.288-4.653 2.891-6.942 1.344-6.147-4.152-13.336-6.348-20.788-6.348-20.504 0-37.186 16.681-37.186 37.186s16.682 37.186 37.186 37.186c19.745 0 29.566-15.458 31.178-32.186h-20c-2.762 0-5-2.239-5-5s2.238-5 5-5h25.239c2.761 0 4.999 2.239 4.999 5zm-131.486-13.296c-4.454 0-7.798.368-10.754 1.075l4.013-24.222h26.607c2.761 0 5-2.239 5-5s-2.239-5-5-5h-30.847c-2.446 0-4.533 1.77-4.933 4.183l-6.111 36.884c-.309 1.862.462 3.736 1.986 4.851 1.522 1.114 3.549 1.272 5.23.415.051-.026.345-.173.834-.394 3.632-1.635 6.761-2.792 13.974-2.792 5.566 0 10.745 2.227 14.584 6.27 3.835 4.04 5.789 9.338 5.499 14.918-.543 10.46-9.181 18.819-19.666 19.03-10.159.226-18.93-7.23-20.334-17.295-.129-.926-.195-1.872-.195-2.812 0-2.761-2.239-5-5-5s-5 2.239-5 5c0 1.4.098 2.811.291 4.193 2.076 14.876 14.839 25.918 29.825 25.918.204 0 .41-.002.614-.006 15.701-.316 28.637-12.839 29.451-28.51.434-8.346-2.491-16.273-8.233-22.322-5.745-6.052-13.5-9.384-21.835-9.384z" fill="#fff"/></g></svg>