<svg id="Capa_1" enable-background="new 0 0 512 512" height="512" viewBox="0 0 512 512" width="512" xmlns="http://www.w3.org/2000/svg"><g><path d="m512 256c0 141.385-114.615 256-256 256s-256-114.615-256-256 114.615-256 256-256 256 114.615 256 256z" fill="#203e76"/><path d="m460.151 256c0 112.749-91.401 204.151-204.151 204.151s-204.151-91.402-204.151-204.151 91.402-204.151 204.151-204.151 204.151 91.402 204.151 204.151z" fill="#274c91"/><path d="m190 215.285h-70c-5.523 0-10-4.477-10-10v-30c0-5.523 4.477-10 10-10h70c5.523 0 10 4.477 10 10v30c0 5.523-4.477 10-10 10zm122 91.43v30c0 5.523 4.477 10 10 10h70c5.523 0 10-4.477 10-10v-30c0-5.523-4.477-10-10-10h-70c-5.523 0-10 4.477-10 10z" fill="#07a9f0"/><path d="m47.898 165.285h-37.898c-5.523 0-10-4.477-10-10v-12.165c0-5.523 4.477-10 10-10h37.898c5.523 0 10 4.477 10 10v12.165c0 5.523-4.477 10-10 10zm42.102 59.511v-18.889c0-5.523-4.477-10-10-10h-50c-5.523 0-10 4.477-10 10v18.889c0 5.523 4.477 10 10 10h50c5.523 0 10-4.478 10-10zm342 52.408h50c5.523 0 10 4.477 10 10v18.889c0 5.523-4.477 10-10 10h-50c-5.523 0-10-4.477-10-10v-18.889c0-5.522 4.477-10 10-10zm22.102 79.511v12.165c0 5.523 4.477 10 10 10h37.898c5.523 0 10-4.477 10-10v-12.165c0-5.523-4.477-10-10-10h-37.898c-5.523 0-10 4.477-10 10z" fill="#0a66ea"/><path d="m260 76.5v360c0 16.569-13.431 30-30 30h-53.5c-16.569 0-30-13.431-30-30v-360c0-16.569 13.431-30 30-30h53.5c16.569 0 30 13.431 30 30z" fill="#b9d3fd"/><path d="m365.5 77v360c0 16.569-13.431 30-30 30h-115.5c-16.569 0-30-13.431-30-30v-360c0-16.569 13.431-30 30-30h115.5c16.569 0 30 13.431 30 30z" fill="#dce6eb"/><path d="m373 80.2v-4.2c0-20.678-16.822-37.5-37.5-37.5h-159c-20.678 0-37.5 16.822-37.5 37.5v4.2c-4.564.927-8 4.962-8 9.8v26.154c0 4.838 3.436 8.873 8 9.8v8.093c-4.564.927-8 4.962-8 9.8v26.153c0 4.838 3.436 8.873 8 9.8v256.2c0 20.678 16.822 37.5 37.5 37.5h159c20.678 0 37.5-16.822 37.5-37.5v-296.2c4.564-.927 8-4.962 8-9.8v-40c0-4.838-3.436-8.873-8-9.8zm-15 355.8c0 12.407-10.094 22.5-22.5 22.5h-159c-12.406 0-22.5-10.093-22.5-22.5v-360c0-12.407 10.094-22.5 22.5-22.5h49.5v6.5c0 5.523 4.477 10 10 10h40c5.523 0 10-4.477 10-10v-6.5h49.5c12.406 0 22.5 10.093 22.5 22.5z" fill="#2476ed"/><path d="m276 55c0 2.761-2.239 5-5 5h-30c-2.761 0-5-2.239-5-5s2.239-5 5-5h30c2.761 0 5 2.239 5 5z" fill="#0956c6"/><path d="m340 75v20c0 2.761-2.239 5-5 5s-5-2.239-5-5v-20c0-2.761 2.239-5 5-5s5 2.239 5 5zm-25 5c-2.761 0-5 2.239-5 5v10c0 2.761 2.239 5 5 5s5-2.239 5-5v-10c0-2.761-2.239-5-5-5zm-20 10c-2.761 0-5 2.239-5 5s2.239 5 5 5 5-2.239 5-5-2.239-5-5-5zm-100-20h-20c-2.761 0-5 2.239-5 5s2.239 5 5 5h20c2.761 0 5-2.239 5-5s-2.239-5-5-5zm0 20h-20c-2.761 0-5 2.239-5 5s2.239 5 5 5h20c2.761 0 5-2.239 5-5s-2.239-5-5-5zm77 320h-32c-5.523 0-10 4.477-10 10s4.477 10 10 10h32c5.523 0 10-4.477 10-10s-4.477-10-10-10z" fill="#97bffd"/><path d="m512 205.418c0 1.989-.79 3.896-2.196 5.304l-31.648 31.648c-1.465 1.464-3.385 2.196-5.304 2.196s-3.839-.732-5.304-2.196c-2.929-2.93-2.929-7.678 0-10.607l18.845-18.845h-134.562c-4.143 0-7.5-3.357-7.5-7.5s3.357-7.5 7.5-7.5h134.562l-18.845-18.844c-2.929-2.93-2.929-7.678 0-10.607 2.93-2.928 7.679-2.928 10.606 0l31.649 31.647c1.407 1.407 2.197 3.314 2.197 5.304zm-182.52-24.375h100.962c4.143 0 7.5-3.357 7.5-7.5s-3.357-7.5-7.5-7.5h-100.962c-4.143 0-7.5 3.357-7.5 7.5s3.358 7.5 7.5 7.5zm100.962 49h-100.962c-4.143 0-7.5 3.357-7.5 7.5s3.357 7.5 7.5 7.5h100.962c4.143 0 7.5-3.357 7.5-7.5s-3.357-7.5-7.5-7.5z" fill="#ffcd71"/><path d="m243.09 215.161c-3.601 6.66-10.826 11.074-19.033 10.597-10.173-.591-18.415-8.833-19.006-19.006-.477-8.206 3.937-15.432 10.597-19.033 1.016-.549 2.192.345 1.954 1.475-.364 1.723-.508 3.527-.403 5.382.579 10.189 8.845 18.455 19.034 19.034 1.854.105 3.658-.039 5.382-.403 1.13-.239 2.024.938 1.475 1.954zm-63.671-3.941c-1.276.269-2.613.376-3.986.298-7.548-.429-13.67-6.552-14.099-14.099-.078-1.374.029-2.71.298-3.986.177-.837-.695-1.499-1.447-1.093-4.934 2.668-8.203 8.02-7.85 14.098.438 7.536 6.543 13.641 14.079 14.079 6.079.353 11.431-2.916 14.098-7.85.406-.752-.256-1.624-1.093-1.447z" fill="#ffa90b"/><path d="m324.98 205.418c0 4.143-3.357 7.5-7.5 7.5h-41.649c-4.143 0-7.5-3.357-7.5-7.5s3.357-7.5 7.5-7.5h41.649c4.143 0 7.5 3.357 7.5 7.5zm-67.5-24.625h25.287c4.143 0 7.5-3.357 7.5-7.5s-3.357-7.5-7.5-7.5h-25.287c-4.143 0-7.5 3.357-7.5 7.5s3.358 7.5 7.5 7.5zm25.288 49h-25.288c-4.143 0-7.5 3.357-7.5 7.5s3.357 7.5 7.5 7.5h25.287c4.143 0 7.5-3.357 7.5-7.5s-3.357-7.5-7.499-7.5zm-57.503-44.5c-3.509 0-6.809.893-9.687 2.463-1.57 2.877-2.463 6.178-2.463 9.687 0 11.184 9.066 20.25 20.25 20.25 3.509 0 6.809-.893 9.687-2.463 1.57-2.877 2.463-6.178 2.463-9.687 0-11.184-9.066-20.25-20.25-20.25zm-57.957 5.25c-2.599 0-5.044.661-7.175 1.825-1.163 2.131-1.825 4.576-1.825 7.175 0 8.284 6.716 15 15 15 2.599 0 5.044-.661 7.175-1.825 1.163-2.131 1.825-4.576 1.825-7.175 0-8.284-6.716-15-15-15z" fill="#ffc14f"/><path d="m190.02 334.166c0 4.143-3.357 7.5-7.5 7.5h-100.962c-4.143 0-7.5-3.357-7.5-7.5s3.357-7.5 7.5-7.5h100.962c4.142 0 7.5 3.357 7.5 7.5zm-108.462-56.5h100.962c4.143 0 7.5-3.357 7.5-7.5s-3.357-7.5-7.5-7.5h-100.962c-4.143 0-7.5 3.357-7.5 7.5s3.357 7.5 7.5 7.5zm-55.951 31.875h134.562c4.143 0 7.5-3.357 7.5-7.5s-3.357-7.5-7.5-7.5h-134.562l18.845-18.844c2.929-2.93 2.929-7.678 0-10.607-2.93-2.928-7.679-2.928-10.606 0l-31.65 31.647c-1.406 1.407-2.196 3.315-2.196 5.304s.79 3.896 2.196 5.304l31.648 31.648c1.465 1.464 3.385 2.196 5.304 2.196s3.839-.732 5.304-2.196c2.929-2.93 2.929-7.678 0-10.607z" fill="#40c1fa"/><path d="m262.02 333.916c0 4.143-3.357 7.5-7.5 7.5h-25.287c-4.143 0-7.5-3.357-7.5-7.5s3.357-7.5 7.5-7.5h25.287c4.142 0 7.5 3.357 7.5 7.5zm-18.351-31.875c0-4.143-3.357-7.5-7.5-7.5h-41.649c-4.143 0-7.5 3.357-7.5 7.5s3.357 7.5 7.5 7.5h41.649c4.143 0 7.5-3.358 7.5-7.5zm10.851-39.625h-25.287c-4.143 0-7.5 3.357-7.5 7.5s3.357 7.5 7.5 7.5h25.287c4.143 0 7.5-3.357 7.5-7.5s-3.358-7.5-7.5-7.5zm49.195 33.609c-.961 1.475-2.135 2.853-3.521 4.09-7.615 6.795-19.304 6.795-26.918 0-1.386-1.237-2.559-2.615-3.521-4.09-.63-.967-2.095-.768-2.425.339-2.163 7.256-.175 15.486 5.965 20.952 7.612 6.776 19.267 6.776 26.879 0 6.14-5.466 8.128-13.695 5.965-20.951-.33-1.108-1.794-1.308-2.424-.34zm55.351 1.843c-.244-.82-1.329-.968-1.796-.251-.712 1.093-1.581 2.114-2.608 3.03-5.641 5.034-14.299 5.034-19.94 0-1.027-.916-1.896-1.937-2.608-3.03-.467-.717-1.552-.569-1.796.251-1.602 5.375-.13 11.471 4.418 15.52 5.638 5.019 14.272 5.019 19.91 0 4.549-4.049 6.022-10.145 4.42-15.52z" fill="#72d1fb"/><path d="m301.054 287.847c2.481 2.481 4.184 5.446 5.108 8.591-.924 3.145-2.627 6.11-5.108 8.591-7.908 7.908-20.73 7.908-28.638 0-2.481-2.481-4.184-5.446-5.108-8.591.924-3.145 2.627-6.11 5.108-8.591 7.908-7.908 20.729-7.908 28.638 0zm54.245 3.713c-5.858-5.858-15.355-5.858-21.213 0-1.838 1.838-3.099 4.034-3.784 6.364.685 2.33 1.946 4.526 3.784 6.364 5.858 5.858 15.355 5.858 21.213 0 1.838-1.838 3.099-4.034 3.784-6.364-.685-2.33-1.946-4.526-3.784-6.364z" fill="#93dcfc"/></g></svg>