<svg id="Capa_1" enable-background="new 0 0 512 512" height="512" viewBox="0 0 512 512" width="512" xmlns="http://www.w3.org/2000/svg"><g><path d="m511.992 258.031c-1.023 131.644-101.41 239.628-229.859 252.651-3.601.365-7.144-1.118-9.416-3.935-46.926-58.197-118.81-95.426-199.39-95.426-4.751 0-9.471.13-14.158.385-3.869.211-7.59-1.531-9.879-4.657-30.992-42.34-49.29-94.558-49.29-151.049 0-141.384 114.615-256 255.999-256 141.082 0 257.09 116.953 255.993 258.031z" fill="#ffb52d"/><path d="m496 256c0 118.741-96.259 215-215 215s-215-96.259-215-215 96.259-215 215-215 215 96.259 215 215z" fill="#ffc14f"/><path d="m327 38v360c0 16.568-13.431 30-30 30h-53.5c-16.569 0-30-13.432-30-30v-360c0-16.568 13.431-30 30-30h53.5c16.569 0 30 13.432 30 30z" fill="#0691ce"/><path d="m432.5 38.5v360c0 16.568-13.431 30-30 30h-115.5c-16.569 0-30-13.432-30-30v-360c0-16.568 13.431-30 30-30h115.5c16.569 0 30 13.432 30 30z" fill="#07a9f0"/><path d="m440 41.7v-4.2c0-20.678-16.822-37.5-37.5-37.5h-159c-20.678 0-37.5 16.822-37.5 37.5v4.2c-4.564.927-8 4.962-8 9.8v26.154c0 4.838 3.436 8.873 8 9.799v8.093c-4.564.927-8 4.962-8 9.8v26.154c0 4.838 3.436 8.873 8 9.8v256.2c0 20.678 16.822 37.5 37.5 37.5h159c20.678 0 37.5-16.822 37.5-37.5v-296.2c4.564-.927 8-4.962 8-9.8v-40c0-4.838-3.436-8.873-8-9.8zm-15 355.8c0 12.407-10.094 22.5-22.5 22.5h-159c-12.406 0-22.5-10.093-22.5-22.5v-360c0-12.407 10.094-22.5 22.5-22.5h49.5v6.5c0 5.523 4.477 10 10 10h40c5.523 0 10-4.477 10-10v-6.5h49.5c12.406 0 22.5 10.093 22.5 22.5z" fill="#274c91"/><path d="m343 16.5c0 2.761-2.239 5-5 5h-30c-2.761 0-5-2.239-5-5s2.239-5 5-5h30c2.761 0 5 2.239 5 5z" fill="#0956c6"/><path d="m407 36.5v20c0 2.761-2.239 5-5 5s-5-2.239-5-5v-20c0-2.761 2.239-5 5-5s5 2.239 5 5zm-25 5c-2.761 0-5 2.239-5 5v10c0 2.761 2.239 5 5 5s5-2.239 5-5v-10c0-2.761-2.239-5-5-5zm-20 10c-2.761 0-5 2.239-5 5s2.239 5 5 5 5-2.239 5-5-2.239-5-5-5zm-100-20h-20c-2.761 0-5 2.239-5 5s2.239 5 5 5h20c2.761 0 5-2.239 5-5s-2.239-5-5-5zm0 20h-20c-2.761 0-5 2.239-5 5s2.239 5 5 5h20c2.761 0 5-2.239 5-5s-2.239-5-5-5z" fill="#72d1fb"/><path d="m391.17 147.34c0 37.649-30.521 68.17-68.17 68.17s-68.17-30.521-68.17-68.17 30.521-68.17 68.17-68.17 68.17 30.521 68.17 68.17z" fill="#93dcfc"/><path d="m329.327 123.792v72.806c0 2.761-2.239 5-5 5h-2.653c-2.761 0-5-2.239-5-5v-72.806c0-2.761 2.239-5 5-5h2.653c2.761 0 5 2.239 5 5z" fill="#2476ed"/><path d="m341.401 201.599c0 10.163-8.239 18.401-18.401 18.401s-18.401-8.239-18.401-18.401 8.239-18.401 18.401-18.401 18.401 8.238 18.401 18.401zm34.632-107.434c-29.243-29.243-76.824-29.244-106.066 0-14.166 14.165-21.967 32.999-21.967 53.032s7.801 38.867 21.967 53.032c1.953 1.953 5.118 1.953 7.071 0 1.953-1.952 1.953-5.118 0-7.07-12.277-12.278-19.038-28.6-19.038-45.962s6.761-33.685 19.038-45.962c25.344-25.344 66.58-25.342 91.924 0 12.277 12.277 19.038 28.6 19.038 45.962s-6.761 33.685-19.038 45.962c-1.953 1.952-1.953 5.118 0 7.07.977.977 2.256 1.465 3.536 1.465 1.279 0 2.559-.488 3.536-1.465 14.165-14.165 21.966-32.999 21.966-53.032s-7.801-38.867-21.967-53.032z" fill="#40c1fa"/><path d="m170 148.5v277.197c0 35.399-40.54 55.685-68.727 34.27-13.782-10.471-26.471-22.308-37.865-35.307-4.453-5.08-6.908-11.607-6.908-18.363v-257.797c0-16.569 13.431-30 30-30h53.5c16.569 0 30 13.431 30 30z" fill="#b9d3fd"/><path d="m275.5 149v360c0 .765-5.225 2.621-7.811 2.738-3.874.174-7.771.262-11.689.262-58.714 0-112.811-19.766-156-53.006v-309.994c0-16.568 13.431-30 30-30h115.5c16.569 0 30 13.432 30 30z" fill="#dce6eb"/><path d="m141.324 425c0-2.761 2.239-5 5-5h70c2.761 0 5 2.239 5 5 0 2.762-2.239 5-5 5h-70c-2.761 0-5-2.238-5-5zm45 35h-40c-2.761 0-5 2.239-5 5 0 2.762 2.239 5 5 5h40c2.761 0 5-2.238 5-5 0-2.761-2.238-5-5-5zm50-20h-90c-2.761 0-5 2.239-5 5 0 2.762 2.239 5 5 5h90c2.761 0 5-2.238 5-5 0-2.761-2.238-5-5-5z" fill="#b9d3fd"/><path d="m250 147v20c0 2.761-2.239 5-5 5s-5-2.239-5-5v-20c0-2.761 2.239-5 5-5s5 2.239 5 5zm-25 5c-2.761 0-5 2.239-5 5v10c0 2.761 2.239 5 5 5s5-2.239 5-5v-10c0-2.761-2.239-5-5-5zm-20 10c-2.761 0-5 2.239-5 5s2.239 5 5 5 5-2.239 5-5-2.239-5-5-5zm-100-20h-20c-2.761 0-5 2.239-5 5s2.239 5 5 5h20c2.761 0 5-2.239 5-5s-2.239-5-5-5zm0 20h-20c-2.761 0-5 2.239-5 5s2.239 5 5 5h20c2.761 0 5-2.239 5-5s-2.239-5-5-5z" fill="#97bffd"/><path d="m291 162v40c0 4.838-3.436 8.873-8 9.8v296.2c0 .875-.031 1.742-.09 2.603-5.032.525-10.107.905-15.221 1.135.204-1.216.311-2.465.311-3.738v-360c0-12.407-10.094-22.5-22.5-22.5h-49.5v6.5c0 5.523-4.477 10-10 10h-40c-5.523 0-10-4.477-10-10v-6.5h-49.5c-12.406 0-22.5 10.093-22.5 22.5v277.333c-5.282-5.984-10.289-12.218-15-18.68v-154.853c-4.564-.927-8-4.962-8-9.8v-26.154c0-4.838 3.436-8.873 8-9.8v-8.093c-4.564-.926-8-4.961-8-9.799v-26.154c0-4.838 3.436-8.873 8-9.8v-4.2c0-20.678 16.822-37.5 37.5-37.5h159c20.678 0 37.5 16.822 37.5 37.5v4.2c4.564.927 8 4.962 8 9.8z" fill="#0956c6"/><path d="m186 127c0 2.761-2.239 5-5 5h-30c-2.761 0-5-2.239-5-5s2.239-5 5-5h30c2.761 0 5 2.239 5 5z" fill="#2476ed"/><path d="m238 400h-131c-5.523 0-10-4.477-10-10v-137.412c0-5.523 4.477-10 10-10h131c5.523 0 10 4.477 10 10v137.412c0 5.523-4.477 10-10 10z" fill="#ea552d"/><path d="m310 400h-95.294c-43.468 0-78.706-35.238-78.706-78.706 0-43.468 35.238-78.706 78.706-78.706h95.294c5.523 0 10 4.477 10 10v137.412c0 5.523-4.477 10-10 10z" fill="#f76937"/><path d="m512 272.469c0 1.326-.526 2.598-1.465 3.535l-22.469 22.468c-.976.977-2.256 1.465-3.535 1.465s-2.56-.488-3.535-1.465c-1.953-1.952-1.953-5.118 0-7.07l13.933-13.933h-96.314c-2.762 0-5-2.238-5-5s2.238-5 5-5h96.315l-13.933-13.934c-1.953-1.952-1.953-5.118 0-7.07 1.951-1.953 5.119-1.953 7.07 0l22.469 22.469c.938.937 1.464 2.209 1.464 3.535z" fill="#203e76"/><path d="m230.094 324.56-38.569 27.272c-2.649 1.874-6.309-.021-6.309-3.266v-54.545c0-3.245 3.66-5.139 6.309-3.266l38.569 27.273c2.254 1.594 2.254 4.938 0 6.532zm226.501-18.045h-96.315l13.933-13.933c1.953-1.952 1.953-5.118 0-7.07-1.951-1.953-5.119-1.953-7.07 0l-22.469 22.468c-.938.938-1.465 2.209-1.465 3.535s.526 2.598 1.465 3.535l22.469 22.469c.976.977 2.256 1.465 3.535 1.465s2.56-.488 3.535-1.465c1.953-1.952 1.953-5.118 0-7.07l-13.933-13.934h96.315c2.762 0 5-2.238 5-5s-2.239-5-5-5z" fill="#fff"/></g></svg>