<svg id="Capa_1" enable-background="new 0 0 512 512" height="512" viewBox="0 0 512 512" width="512" xmlns="http://www.w3.org/2000/svg"><g><path d="m512 256c0 141.385-114.615 256-256 256s-256-114.615-256-256 114.615-256 256-256 256 114.615 256 256z" fill="#0956c6"/><path d="m474.902 241.955c0 113.139-91.717 204.856-204.856 204.856s-204.857-91.717-204.857-204.856 91.717-204.857 204.856-204.857 204.857 91.717 204.857 204.857z" fill="#0a66ea"/><path d="m425.856 255.5h-60.741c-11.028 0-20 8.972-20 20s8.972 20 20 20h39.19c-3.066 18.932-14.069 57.417-53.004 67.446l-22.893-126.295-.551.1 26.124-48.169c9.665 2.546 18.865 6.705 27.259 12.376 4.426 2.991 9.752 4.079 14.999 3.063 5.245-1.016 9.78-4.013 12.77-8.44 2.991-4.427 4.079-9.753 3.063-14.998-1.015-5.245-4.013-9.78-8.439-12.771-9.443-6.379-19.585-11.437-30.197-15.103l27.363-50.455-4.395-2.384 1.953-4.603-117.522-49.87-1.953 4.603-4.86 1.176 23.89 98.714c-10.403 2.743-20.299 6.746-29.514 11.838l-89.178-109.879-7.765 6.302 88.301 108.799c-35.294 23.243-58.635 63.222-58.635 108.55 0 37.926 16.341 72.108 42.351 95.874l-21.746 40.097 8.79 4.768 20.758-38.275c22.022 17.174 49.701 27.416 79.728 27.416 6.036 0 11.911-.406 17.609-1.209l6.469 35.687 9.84-1.783-6.476-35.725c23.169-5.353 43.005-17.727 58.275-36.555 18.79-23.166 29.137-55.233 29.137-90.296 0-11.027-8.972-19.999-20-19.999zm-100.565-34.992-8.184-33.816c4.53-.706 9.17-1.073 13.894-1.073 4.287 0 8.537.301 12.726.894zm-39.21-162.022 103.306 43.838-25.727 47.436c-10.578-2.739-21.535-4.141-32.658-4.141-7.961 0-15.757.721-23.326 2.099zm21.244 130.298 7.209 29.79-20.344-25.067c4.217-1.9 8.605-3.485 13.135-4.723zm-66.203 86.716c0-32.819 17.681-61.585 44.018-77.276l31.313 38.582-53.066 97.849c-13.857-15.818-22.265-36.523-22.265-59.155zm89.88 89.88c-23.174 0-44.327-8.816-60.283-23.27l49.949-92.101 20.803 114.766c-3.316.397-6.802.605-10.469.605zm-162.751-106.084c16.289 17.157 24.583 39.64 23.354 63.308-2.307 44.452-39 79.975-83.537 80.873-.582.011-1.166.018-1.743.018-20.574.001-40.471-7.432-56.024-20.931-15.577-13.519-25.722-32.195-28.568-52.589-.546-3.914-.823-7.914-.823-11.887 0-11.028 8.972-20 20-20s20 8.972 20 20c0 2.129.148 4.269.439 6.36 3.168 22.709 22.935 39.459 45.916 39.037 23.668-.477 43.169-19.344 44.394-42.954.654-12.605-3.755-24.571-12.416-33.693-8.667-9.129-20.361-14.157-32.927-14.157-17.435 0-24.597 2.637-33.535 6.66-1.117.502-1.777.833-1.858.875-6.771 3.455-14.786 2.818-20.915-1.665-6.137-4.49-9.18-11.924-7.941-19.402l15.917-96.072c1.606-9.695 9.905-16.731 19.731-16.731h80.348c11.028 0 20 8.972 20 20s-8.972 20-20 20h-63.389l-7.869 47.493c5.87-.785 12.227-1.158 19.51-1.158 23.645.001 45.64 9.453 61.936 26.615z" fill="#274c91"/><path d="m246.886 420c0 12.638-10.245 22.882-22.882 22.882-12.638 0-22.882-10.245-22.882-22.882 0-12.638 10.245-22.882 22.882-22.882 12.638 0 22.882 10.244 22.882 22.882zm-71.548-380.315c-8.458 0-15.315 6.857-15.315 15.315s6.857 15.314 15.315 15.314 15.314-6.856 15.314-15.314-6.856-15.315-15.314-15.315zm103.544-12.567c-12.637 0-22.882 10.244-22.882 22.882s10.245 22.882 22.882 22.882c12.638 0 22.882-10.245 22.882-22.882.001-12.638-10.244-22.882-22.882-22.882zm44.607 195.11c-8.458 0-15.315 6.857-15.315 15.315s6.857 15.315 15.315 15.315 15.315-6.857 15.315-15.315-6.857-15.315-15.315-15.315zm112.511-163.728c-41.974 0-76 34.026-76 76s34.026 76 76 76 76-34.026 76-76-34.026-76-76-76zm-76 365.152c-8.458 0-15.315 6.857-15.315 15.315s6.857 15.314 15.315 15.314 15.315-6.857 15.315-15.314-6.857-15.315-15.315-15.315z" fill="#ffc14f"/><path d="m233.85 433.037c3.783 0 7.351-.918 10.494-2.543-3.804 7.359-11.484 12.389-20.339 12.389-12.638 0-22.882-10.245-22.882-22.882 0-8.855 5.03-16.535 12.389-20.339-1.625 3.143-2.543 6.711-2.543 10.494-.002 12.636 10.243 22.881 22.881 22.881zm-63.981-387.883c0-1.649.261-3.237.743-4.726-6.145 1.992-10.589 7.763-10.589 14.571 0 8.458 6.857 15.314 15.315 15.314 6.809 0 12.58-4.443 14.571-10.589-1.488.482-3.077.743-4.726.743-8.458.002-15.314-6.855-15.314-15.313zm95.977-5c0-3.783.918-7.351 2.543-10.494-7.359 3.805-12.389 11.485-12.389 20.34 0 12.638 10.245 22.882 22.882 22.882 8.855 0 16.535-5.03 20.339-12.389-3.143 1.625-6.711 2.543-10.494 2.543-12.637.001-22.881-10.244-22.881-22.882zm189.055 151.445c-41.974 0-76-34.026-76-76 0-16.16 5.044-31.141 13.642-43.457-19.673 13.736-32.543 36.544-32.543 62.358 0 41.974 34.026 76 76 76 25.814 0 48.622-12.87 62.358-32.543-12.316 8.598-27.297 13.642-43.457 13.642zm-100.37 237.522c0-1.649.261-3.237.743-4.726-6.145 1.992-10.589 7.763-10.589 14.571 0 8.458 6.857 15.314 15.315 15.314 6.809 0 12.58-4.443 14.571-10.589-1.488.482-3.077.743-4.726.743-8.457.002-15.314-6.855-15.314-15.313zm-36.511-201.424c0-1.649.261-3.237.743-4.726-6.145 1.992-10.589 7.763-10.589 14.571 0 8.458 6.857 15.315 15.315 15.315 6.809 0 12.58-4.443 14.571-10.589-1.488.482-3.077.743-4.726.743-8.457 0-15.314-6.856-15.314-15.314z" fill="#ffb52d"/><path d="m465.856 250.5c0 33.919-9.951 64.868-28.021 87.146-20.022 24.686-48.32 37.734-81.834 37.734-68.859 0-124.88-56.021-124.88-124.88s56.021-124.88 124.88-124.88c25.023 0 49.171 7.378 69.833 21.336 6.865 4.637 8.67 13.961 4.032 20.826-4.637 6.865-13.961 8.671-20.826 4.032-15.683-10.595-34.023-16.195-53.039-16.195-52.317 0-94.88 42.563-94.88 94.88s42.563 94.88 94.88 94.88c52.296 0 74.656-40.236 79.033-79.88h-49.919c-8.284 0-15-6.716-15-15s6.716-15 15-15h65.741c8.285.001 15 6.717 15 15.001zm-339.306-37.818c-10.276 0-18.423.783-25.587 2.248l9.706-58.583h67.629c8.284 0 15-6.716 15-15s-6.716-15-15-15h-80.349c-7.338 0-13.599 5.309-14.798 12.548l-15.917 96.072c-.925 5.585 1.391 11.206 5.96 14.549 4.57 3.343 10.65 3.818 15.692 1.246.007-.004.754-.384 2.078-.979 9.236-4.157 17.195-7.1 35.587-7.1 13.951 0 26.932 5.581 36.553 15.714 9.614 10.126 14.509 23.407 13.783 37.395-1.36 26.215-23.01 47.165-49.289 47.694-25.549.504-47.447-18.121-50.966-43.346-.323-2.318-.487-4.69-.487-7.05 0-8.284-6.716-15-15-15s-15 6.716-15 15c0 3.742.261 7.509.775 11.196 5.543 39.726 39.625 69.213 79.64 69.21.544 0 1.096-.006 1.643-.017 41.928-.845 76.473-34.287 78.644-76.133 1.157-22.285-6.652-43.454-21.987-59.605-15.343-16.16-36.051-25.059-58.31-25.059z" fill="#40c1fa"/><path d="m356.002 155.62c-40.183 0-74.612 25.109-88.421 60.461-2.272 5.816-7.791 9.712-14.035 9.712-10.496 0-17.825-10.534-14.029-20.32 18.104-46.675 63.492-79.853 116.485-79.853 9.565 0 19.002 1.078 28.166 3.19 6.845 1.577 11.726 7.623 11.726 14.647 0 9.67-9.004 16.777-18.426 14.6-6.982-1.614-14.174-2.437-21.466-2.437zm89.362 121.796h-.873c-6.482 0-12.11 4.303-13.993 10.506-9.437 31.083-32.154 57.459-74.496 57.459-1.541 0-3.073-.037-4.597-.11-8.514-.408-15.607 6.461-15.607 14.984 0 7.948 6.193 14.597 14.132 14.98 2.012.097 4.036.146 6.072.146 33.514 0 61.812-13.048 81.834-37.734 9.496-11.707 16.749-25.809 21.495-41.479 2.828-9.338-4.211-18.752-13.967-18.752zm-334.696-121.07h29.715c8.284 0 15-6.716 15-15s-6.716-15-15-15h-42.434c-7.338 0-13.599 5.309-14.798 12.548l-6.348 38.313c-1.514 9.139 5.535 17.452 14.798 17.452 7.338 0 13.599-5.309 14.798-12.548zm80.393 110.094h-.315c-9.356 0-16.205 8.513-14.57 17.725.671 3.782.914 7.675.709 11.625-1.36 26.215-23.01 47.165-49.289 47.694-1.754.035-3.49-.021-5.204-.163-8.679-.717-16.076 6.249-16.076 14.958 0 7.872 6.087 14.358 13.935 14.97 2.084.163 4.187.245 6.308.245.544 0 1.096-.006 1.643-.017 41.928-.845 76.473-34.287 78.644-76.133.331-6.376-.072-12.661-1.176-18.763-1.273-7.043-7.451-12.141-14.609-12.141z" fill="#72d1fb"/><path d="m450.856 230.5h-65.741c-11.028 0-20 8.972-20 20s8.972 20 20 20h44.19c-3.543 21.88-17.689 69.88-73.304 69.88-49.56 0-89.88-40.32-89.88-89.88s40.32-89.88 89.88-89.88c18.014 0 35.387 5.304 50.239 15.338 4.426 2.991 9.752 4.079 14.999 3.063 5.245-1.016 9.78-4.013 12.77-8.44 2.991-4.427 4.079-9.753 3.063-14.998-1.015-5.245-4.013-9.78-8.439-12.771-21.491-14.519-46.606-22.193-72.631-22.193-71.616 0-129.88 58.264-129.88 129.88s58.264 129.88 129.88 129.88c35.073 0 64.713-13.688 85.717-39.584 18.79-23.166 29.137-55.233 29.137-90.296 0-11.027-8.972-19.999-20-19.999zm-16.903 103.997c-19.04 23.475-45.995 35.884-77.951 35.884-66.102 0-119.88-53.778-119.88-119.88s53.778-119.88 119.88-119.88c24.022 0 47.202 7.082 67.034 20.479 2.213 1.495 3.712 3.763 4.22 6.385.507 2.622-.037 5.285-1.532 7.499-1.496 2.213-3.763 3.712-6.385 4.22s-5.285-.036-7.499-1.532c-16.512-11.155-35.82-17.052-55.837-17.052-55.074 0-99.88 44.806-99.88 99.88s44.806 99.88 99.88 99.88c25.642 0 46.269-9.033 61.307-26.848 15.546-18.417 20.922-41.425 22.695-57.483.156-1.413-.297-2.826-1.245-3.885-.949-1.059-2.303-1.664-3.725-1.664h-49.919c-5.514 0-10-4.486-10-10s4.486-10 10-10h65.741c5.514 0 10 4.486 10 10-.001 32.776-9.555 62.606-26.904 83.997zm-307.403-126.815c-7.283 0-13.641.373-19.51 1.158l7.869-47.493h63.389c11.028 0 20-8.972 20-20s-8.972-20-20-20h-80.349c-9.826 0-18.125 7.036-19.731 16.731l-15.917 96.072c-1.239 7.478 1.804 14.912 7.941 19.402 6.129 4.483 14.144 5.12 20.915 1.665.081-.042.742-.372 1.858-.875 8.938-4.023 16.1-6.66 33.535-6.66 12.565 0 24.259 5.027 32.927 14.157 8.661 9.122 13.07 21.088 12.416 33.693-1.225 23.609-20.726 42.477-44.394 42.954-22.981.422-42.747-16.328-45.916-39.037-.292-2.091-.439-4.23-.439-6.36 0-11.028-8.972-20-20-20s-20 8.972-20 20c0 3.974.277 7.973.823 11.887 2.846 20.394 12.991 39.07 28.568 52.589 15.554 13.499 35.45 20.932 56.024 20.931.577 0 1.161-.006 1.743-.018 44.537-.898 81.23-36.421 83.537-80.873 1.229-23.668-7.065-46.151-23.354-63.308-16.296-17.163-38.291-26.615-61.935-26.615zm75.303 89.403c-2.036 39.241-34.432 70.601-73.749 71.394-.514.01-1.033.016-1.544.016-37.416.002-69.524-27.899-74.688-64.902-.483-3.458-.728-6.992-.728-10.505 0-5.514 4.486-10 10-10s10 4.486 10 10c0 2.59.18 5.194.535 7.741 3.817 27.356 27.315 47.667 54.908 47.665.369 0 .741-.003 1.111-.011 28.887-.582 52.686-23.614 54.181-52.434.798-15.371-4.583-29.966-15.15-41.097-10.575-11.137-24.844-17.271-40.179-17.271-19.348 0-28.146 3.268-37.64 7.541-1.396.628-2.243 1.055-2.298 1.085-3.392 1.731-7.402 1.414-10.467-.828-3.073-2.248-4.598-5.963-3.979-9.696l15.917-96.072c.803-4.847 4.953-8.366 9.866-8.366h80.348c5.514 0 10 4.486 10 10s-4.486 10-10 10h-67.629c-2.446 0-4.533 1.77-4.933 4.183l-9.706 58.583c-.269 1.624.278 3.276 1.464 4.418s2.857 1.629 4.47 1.297c7.162-1.464 14.974-2.146 24.586-2.146 20.875 0 40.295 8.346 54.683 23.5 14.383 15.15 21.706 35.003 20.621 55.905z" fill="#b4e7fd"/><path d="m151.638 131.346h-53.689c-4.892 0-9.066 3.539-9.866 8.366l-8.006 48.322c-.4 2.413-2.487 4.183-4.933 4.183-3.088 0-5.437-2.771-4.933-5.817l7.925-48.241c1.599-9.652 9.947-17.031 19.731-17.031l53.769.219c2.761 0 5 2.239 5 5 .001 2.761-2.237 4.999-4.998 4.999zm310.526 148.931c-2.338 0-4.369 1.62-4.871 3.903-4.24 19.291-12.176 36.552-23.341 50.317-19.04 23.475-45.995 35.884-77.951 35.884-2.357 0-4.699-.068-7.023-.203-2.855-.166-5.251 2.128-5.251 4.988 0 2.646 2.06 4.845 4.701 4.997 2.506.145 5.031.218 7.573.218 35.073 0 64.713-13.688 85.717-39.584 12.13-14.956 20.742-33.622 25.322-54.408.692-3.135-1.666-6.112-4.876-6.112zm-100.337-119.471c2.873.184 5.3-2.1 5.3-4.979v-.008c0-2.625-2.03-4.824-4.65-4.992-2.148-.138-4.308-.207-6.476-.207-33.49 0-63.183 16.568-81.313 41.938-2.358 3.299.026 7.889 4.081 7.889 1.592 0 3.104-.748 4.029-2.043 16.312-22.855 43.047-37.784 73.204-37.784 1.95 0 3.893.062 5.825.186zm-186 116.61c-3.184 0-5.555 2.932-4.887 6.044.839 3.904 1.165 7.954.952 12.071-1.225 23.609-20.726 42.477-44.394 42.954-4.318.079-8.522-.448-12.525-1.506-3.153-.834-6.229 1.588-6.229 4.849v.005c0 2.294 1.563 4.278 3.782 4.858 4.504 1.178 9.219 1.803 14.06 1.803.369 0 .741-.003 1.111-.011 28.887-.582 52.686-23.614 54.181-52.434.259-4.988-.133-9.894-1.141-14.626-.495-2.328-2.529-4.007-4.91-4.007z" fill="#d5f1fe"/><path d="m460.306 143.587c.141 2.758-1.981 5.107-4.739 5.247-.087.004-.173.006-.258.006-2.646 0-4.854-2.075-4.989-4.747-.616-12.136-11.023-21.51-23.128-20.893-2.797.146-5.108-1.983-5.247-4.74-.141-2.758 1.981-5.107 4.739-5.247 17.66-.893 32.727 12.731 33.622 30.374zm25.151-5.109c-.726-14.306-6.972-27.467-17.587-37.058-10.617-9.591-24.334-14.472-38.648-13.747-2.758.14-4.88 2.489-4.739 5.247.139 2.758 2.456 4.886 5.247 4.74 11.643-.596 22.804 3.38 31.437 11.179 8.634 7.8 13.714 18.505 14.305 30.144.135 2.672 2.344 4.747 4.989 4.747.085 0 .171-.002.257-.006 2.756-.139 4.879-2.488 4.739-5.246z" fill="#fff"/></g></svg>