<svg id="Capa_1" enable-background="new 0 0 512 512" height="512" viewBox="0 0 512 512" width="512" xmlns="http://www.w3.org/2000/svg"><g><path d="m512 256c0 141.385-114.615 256-256 256s-256-114.615-256-256 114.615-256 256-256 256 114.615 256 256z" fill="#07a9f0"/><path d="m441.568 260.503c0 114.563-92.871 207.433-207.433 207.433s-207.433-92.871-207.433-207.433 92.871-207.433 207.433-207.433 207.433 92.871 207.433 207.433z" fill="#40c1fa"/><path d="m485 58.861v100c0 8.284-6.716 15-15 15h-118.586l-25.721 38.497c-2.561 3.833-8.503 2.453-9.113-2.116l-4.862-36.381h-39.718c-8.284 0-15-6.716-15-15v-100c0-8.284 6.716-15 15-15h198c8.284 0 15 6.716 15 15z" fill="#f76937"/><path d="m300 173.861h-28c-8.284 0-15-6.716-15-15v-100c0-8.284 6.716-15 15-15h28c-8.284 0-15 6.716-15 15v100c0 8.285 6.716 15 15 15z" fill="#ea552d"/><path d="m390 108.667c0 19.95-12.309 33.884-29.933 33.884-18.683 0-33.883-15.2-33.883-33.884 0-18.683 15.2-33.883 33.883-33.883 6.79 0 13.342 2.002 18.948 5.79 2.288 1.546 2.89 4.653 1.344 6.941-1.546 2.289-4.654 2.891-6.942 1.344-3.946-2.666-8.563-4.075-13.349-4.075-13.169 0-23.883 10.714-23.883 23.883 0 13.17 10.714 23.884 23.883 23.884 12.52 0 18.166-9.317 19.571-18.884h-11.919c-2.761 0-5-2.238-5-5s2.239-5 5-5h17.28c2.761 0 5 2.238 5 5zm-91.601-10.68c-2.094 0-3.863.12-5.439.349l2.161-13.043h16.88c2.761 0 5-2.238 5-5s-2.239-5-5-5h-21.12c-2.446 0-4.533 1.77-4.933 4.183l-4.184 25.253c-.308 1.86.463 3.731 1.984 4.846s3.546 1.274 5.227.423c.043-.022.22-.109.502-.237 2.38-1.07 4.288-1.772 8.921-1.772 3.375 0 6.515 1.35 8.842 3.802 2.326 2.449 3.509 5.661 3.334 9.045-.33 6.341-5.566 11.407-11.922 11.535-.083.002-.167.003-.25.003-6.069 0-11.238-4.468-12.078-10.486-.078-.559-.118-1.132-.118-1.706 0-2.762-2.239-5-5-5s-5 2.238-5 5c0 1.035.072 2.074.213 3.089 1.53 10.965 10.937 19.104 21.979 19.104.151 0 .303-.002.455-.005 11.572-.232 21.107-9.463 21.707-21.015.319-6.149-1.836-11.991-6.068-16.449-4.172-4.398-10.038-6.919-16.093-6.919zm161.601 25.874h-40c-2.761 0-5 2.238-5 5 0 2.761 2.239 5 5 5h40c2.761 0 5-2.239 5-5s-2.239-5-5-5zm0-20h-40c-2.761 0-5 2.238-5 5 0 2.761 2.239 5 5 5h40c2.761 0 5-2.239 5-5s-2.239-5-5-5zm-40-10h40c2.761 0 5-2.239 5-5 0-2.762-2.239-5-5-5h-40c-2.761 0-5 2.238-5 5s2.239 5 5 5z" fill="#fff"/><path d="m354.799 318.001c-1.28 0-2.559-.488-3.536-1.465-1.953-1.952-1.953-5.118 0-7.07 8.684-8.685 8.684-22.813 0-31.498-1.953-1.952-1.953-5.118 0-7.07 1.953-1.953 5.118-1.953 7.071 0 12.583 12.582 12.583 33.057 0 45.639-.976.976-2.255 1.464-3.535 1.464zm24.366 13.906c10.208-10.208 15.831-23.771 15.831-38.19s-5.622-27.982-15.831-38.19c-1.953-1.953-5.118-1.953-7.071 0-1.953 1.952-1.953 5.118 0 7.07 8.32 8.32 12.902 19.372 12.902 31.12s-4.582 22.8-12.902 31.12c-1.953 1.952-1.953 5.118 0 7.07.977.977 2.256 1.465 3.536 1.465s2.558-.488 3.535-1.465zm-174.629-15.371c1.953-1.952 1.953-5.118 0-7.07-8.684-8.685-8.684-22.813 0-31.498 1.953-1.952 1.953-5.118 0-7.07-1.953-1.953-5.118-1.953-7.071 0-12.583 12.582-12.583 33.057 0 45.639.977.977 2.256 1.465 3.536 1.465s2.558-.489 3.535-1.466zm-20.83 15.371c1.953-1.952 1.953-5.118 0-7.07-8.32-8.32-12.902-19.372-12.902-31.12s4.582-22.8 12.902-31.12c1.953-1.952 1.953-5.118 0-7.07-1.953-1.953-5.118-1.953-7.071 0-10.208 10.208-15.831 23.771-15.831 38.19s5.622 27.982 15.831 38.19c.977.977 2.256 1.465 3.536 1.465s2.558-.488 3.535-1.465z" fill="#fff"/><path d="m269.5 10v58.042c0 5.523-4.477 10-10 10h-120c-5.523 0-10-4.477-10-10v-58.042c0-5.523 4.477-10 10-10h120c5.523 0 10 4.477 10 10z" fill="#ffb52d"/><path d="m163.931 78.042h-24.431c-5.523 0-10-4.477-10-10v-58.042c0-5.523 4.477-10 10-10h24.431c-5.523 0-10 4.477-10 10v58.042c0 5.522 4.477 10 10 10z" fill="#ffa90b"/><path d="m149.5 18.63c0-2.761 2.239-5 5-5h70c2.761 0 5 2.239 5 5 0 2.762-2.239 5-5 5h-70c-2.761 0-5-2.238-5-5zm45 35h-40c-2.761 0-5 2.239-5 5 0 2.762 2.239 5 5 5h40c2.761 0 5-2.238 5-5 0-2.761-2.239-5-5-5zm50-20h-90c-2.761 0-5 2.239-5 5 0 2.762 2.239 5 5 5h90c2.761 0 5-2.238 5-5 0-2.761-2.239-5-5-5z" fill="#ffe7c0"/><path d="m189 107.872c-57.859 0-104.931 47.071-104.931 104.931v161.139c0 57.859 47.072 104.931 104.931 104.931s104.931-47.071 104.931-104.931v-161.139c0-57.86-47.072-104.931-104.931-104.931zm64.931 266.069c0 35.803-29.128 64.931-64.931 64.931s-64.931-29.128-64.931-64.931v-161.138c0-35.803 29.128-64.931 64.931-64.931s64.931 29.128 64.931 64.931z" fill="#c8d2dc"/><path d="m293.931 212.803v161.139c0 47.783-32.105 88.208-75.876 100.839-12.558 3.623-25.055-5.968-25.055-19.037v-.638c0-8.799 5.906-16.383 14.346-18.873 26.898-7.935 46.585-32.857 46.585-62.292v-161.138c0-29.435-19.687-54.357-46.585-62.292-8.439-2.49-14.346-10.074-14.346-18.873v-.638c0-13.069 12.497-22.661 25.055-19.037 43.771 12.631 75.876 53.056 75.876 100.84z" fill="#dce6eb"/><path d="m292.5 358.372h-30c-16.569 0-30-13.431-30-30v-70c0-16.569 13.431-30 30-30h30c16.569 0 30 13.431 30 30v70c0 16.568-13.431 30-30 30z" fill="#0a66ea"/><path d="m292.5 358.372h-5.5c-16.569 0-30-13.431-30-30v-70c0-16.569 13.431-30 30-30h5.5c16.569 0 30 13.431 30 30v70c0 16.568-13.431 30-30 30z" fill="#2476ed"/><path d="m124 287.372v130c0 11.045-8.954 20-20 20s-20-8.955-20-20v-130z" fill="#b9c3cd"/><path d="m129.5 247.5v55c0 4.142-3.358 7.5-7.5 7.5h-36c-4.142 0-7.5-3.358-7.5-7.5v-55c0-4.142 3.358-7.5 7.5-7.5h36c4.142 0 7.5 3.358 7.5 7.5z" fill="#c8d2dc"/><path d="m129.5 247.5v55c0 4.142-3.358 7.5-7.5 7.5h-22.096c-4.142 0-7.5-3.358-7.5-7.5v-55c0-4.142 3.358-7.5 7.5-7.5h22.096c4.142 0 7.5 3.358 7.5 7.5z" fill="#dce6eb"/><path d="m270 299.872v-36c0-4.142 3.358-7.5 7.5-7.5 4.142 0 7.5 3.358 7.5 7.5v36c0 4.142-3.358 7.5-7.5 7.5-4.142 0-7.5-3.358-7.5-7.5z" fill="#b9d3fd"/><path d="m292.5 220.872h-30c-20.678 0-37.5 16.822-37.5 37.5v20c-4.142 0-7.5 3.357-7.5 7.5v15c0 4.142 3.358 7.5 7.5 7.5v20c0 20.678 16.822 37.5 37.5 37.5h30c20.678 0 37.5-16.822 37.5-37.5v-70c0-20.678-16.822-37.5-37.5-37.5zm22.5 107.5c0 12.406-10.093 22.5-22.5 22.5h-30c-12.407 0-22.5-10.094-22.5-22.5v-70c0-12.406 10.093-22.5 22.5-22.5h30c12.407 0 22.5 10.094 22.5 22.5z" fill="#274c91"/><path d="m288.25 296.622c0 5.937-4.813 10.75-10.75 10.75s-10.75-4.813-10.75-10.75 4.813-10.75 10.75-10.75 10.75 4.813 10.75 10.75z" fill="#0956c6"/><path d="m96.5 335c0-4.142 3.358-7.5 7.5-7.5s7.5 3.358 7.5 7.5-3.358 7.5-7.5 7.5-7.5-3.358-7.5-7.5zm8 26c-4.142 0-7.5 3.358-7.5 7.5s3.358 7.5 7.5 7.5 7.5-3.358 7.5-7.5-3.358-7.5-7.5-7.5zm0 34c-4.142 0-7.5 3.358-7.5 7.5s3.358 7.5 7.5 7.5 7.5-3.358 7.5-7.5-3.358-7.5-7.5-7.5z" fill="#909ba6"/></g></svg>