<svg id="Capa_1" enable-background="new 0 0 512 512" height="512" viewBox="0 0 512 512" width="512" xmlns="http://www.w3.org/2000/svg"><g><path d="m512 256c0 141.385-114.615 256-256 256s-256-114.615-256-256 114.615-256 256-256 256 114.615 256 256z" fill="#203e76"/><path d="m469.5 248.5c0 122.055-98.945 221-221 221s-221-98.945-221-221 98.945-221 221-221 221 98.945 221 221z" fill="#274c91"/><path d="m249.791 165.28h-79.492c-5.523 0-10-4.477-10-10v-50.909c0-5.523 4.477-10 10-10h79.492c5.523 0 10 4.477 10 10v50.909c0 5.523-4.477 10-10 10z" fill="#ea552d"/><path d="m174.648 150.479h-79.492c-5.523 0-10-4.477-10-10v-50.909c0-5.523 4.477-10 10-10h79.492c5.523 0 10 4.477 10 10v50.909c0 5.523-4.477 10-10 10z" fill="#f29500"/><path d="m174.648 150.479h-46.702c-5.523 0-10-4.477-10-10v-50.909c0-5.523 4.477-10 10-10h46.702c5.523 0 10 4.477 10 10v50.909c0 5.523-4.477 10-10 10z" fill="#ffb52d"/><path d="m132.5 409.238h-37.344c-5.523 0-10-4.477-10-10v-277.123h47.344c5.523 0 10 4.477 10 10v267.122c0 5.524-4.477 10.001-10 10.001z" fill="#ffb52d"/><path d="m487.128 132.115v267.123c0 5.523-4.477 10-10 10h-349.182c-5.523 0-10-4.477-10-10v-277.123h359.182c5.522 0 10 4.478 10 10z" fill="#ffc14f"/><path d="m235 367c0 55.228-44.772 100-100 100s-100-44.772-100-100 44.772-100 100-100 100 44.772 100 100z" fill="#dce6eb"/><path d="m143.254 466.664c-2.722.222-5.475.336-8.254.336-55.229 0-100-44.771-100-100s44.771-100 100-100c2.779 0 5.532.113 8.254.336-30.572 19.524-51.239 56.839-51.239 99.664s20.667 80.14 51.239 99.664z" fill="#c8d2dc"/><path d="m205 368.75c0 38.66-31.34 70-70 70s-70-31.34-70-70 31.34-70 70-70 70 31.34 70 70z" fill="#b4e7fd"/><path d="m221.789 275.318-16.971 16.971c-2.929 2.929-7.677 2.929-10.606 0s-2.929-7.678 0-10.606l16.971-16.971c2.929-2.929 7.677-2.929 10.606 0 2.929 2.928 2.929 7.677 0 10.606zm-160.255-10.607c-2.929-2.929-7.677-2.929-10.606 0s-2.929 7.678 0 10.606l16.97 16.971c2.929 2.929 7.678 2.929 10.607 0s2.929-7.678 0-10.606z" fill="#07a9f0"/><path d="m352.903 61.142c-1.277-.269-2.613-.376-3.986-.298-7.548.429-13.67 6.552-14.1 14.1-.078 1.374.029 2.709.298 3.986.177.837-.695 1.499-1.447 1.092-4.934-2.667-8.203-8.02-7.85-14.099.438-7.536 6.543-13.641 14.079-14.079 6.079-.353 11.431 2.916 14.098 7.85.407.753-.255 1.624-1.092 1.448zm-11.985-27.142c5.523 0 10-4.477 10-10s-4.477-10-10-10-10 4.477-10 10 4.477 10 10 10z" fill="#93dcfc"/><path d="m377.869 307.304c2.928 2.93 2.928 7.679 0 10.606l-31.647 31.649c-1.407 1.406-3.314 2.196-5.304 2.196s-3.896-.79-5.304-2.196l-31.648-31.648c-1.464-1.465-2.196-3.385-2.196-5.304s.732-3.839 2.196-5.304c2.93-2.929 7.678-2.929 10.607 0l18.845 18.845v-134.561c0-4.143 3.357-7.5 7.5-7.5s7.5 3.357 7.5 7.5v134.562l18.844-18.845c2.929-2.929 7.677-2.929 10.607 0zm-5.076-145.568c-4.143 0-7.5 3.357-7.5 7.5v100.962c0 4.143 3.357 7.5 7.5 7.5s7.5-3.357 7.5-7.5v-100.962c0-4.142-3.358-7.5-7.5-7.5zm-64 115.962c4.143 0 7.5-3.357 7.5-7.5v-100.962c0-4.143-3.357-7.5-7.5-7.5s-7.5 3.357-7.5 7.5v100.962c0 4.143 3.357 7.5 7.5 7.5z" fill="#fff"/><path d="m348.418 115.587v41.649c0 4.143-3.357 7.5-7.5 7.5s-7.5-3.357-7.5-7.5v-41.649c0-4.143 3.357-7.5 7.5-7.5s7.5 3.357 7.5 7.5zm24.625-25.851c-4.143 0-7.5 3.357-7.5 7.5v25.287c0 4.143 3.357 7.5 7.5 7.5s7.5-3.357 7.5-7.5v-25.287c0-4.142-3.358-7.5-7.5-7.5zm-64 0c-4.143 0-7.5 3.357-7.5 7.5v25.287c0 4.143 3.357 7.5 7.5 7.5s7.5-3.357 7.5-7.5v-25.287c0-4.142-3.358-7.5-7.5-7.5zm37.749-31.917c-8.284 0-15 6.715-15 15 0 2.599.661 5.044 1.824 7.175 2.132 1.163 4.576 1.825 7.176 1.825 8.284 0 15-6.716 15-15 0-2.6-.661-5.044-1.824-7.176-2.132-1.163-4.576-1.824-7.176-1.824z" fill="#d5f1fe"/><path d="m134.902 438.75c-38.615-.053-69.902-31.373-69.902-70s31.287-69.947 69.902-70z" fill="#ff956a"/><path d="m210 368.75c0 20.033-7.802 38.867-21.968 53.032-.976.977-2.256 1.465-3.535 1.465s-2.56-.488-3.535-1.465c-1.953-1.952-1.953-5.118 0-7.07 12.276-12.277 19.038-28.6 19.038-45.962s-6.762-33.685-19.038-45.962c-12.277-12.276-28.6-19.038-45.962-19.038s-33.685 6.762-45.962 19.038c-12.276 12.277-19.038 28.6-19.038 45.962s6.762 33.685 19.038 45.962c1.953 1.952 1.953 5.118 0 7.07-1.951 1.953-5.119 1.953-7.07 0-14.166-14.165-21.968-32.999-21.968-53.032s7.802-38.867 21.968-53.032c14.165-14.166 32.999-21.968 53.032-21.968s38.867 7.802 53.032 21.968c14.166 14.165 21.968 32.999 21.968 53.032z" fill="#ea552d"/><path d="m142.5 346.25v75c0 4.142-3.358 7.5-7.5 7.5s-7.5-3.358-7.5-7.5v-75c0-4.142 3.358-7.5 7.5-7.5s7.5 3.358 7.5 7.5z" fill="#ea552d"/><path d="m229.504 283.034c-2.929 2.929-7.678 2.929-10.607 0l-15.432-15.432c-2.929-2.929-2.929-7.678 0-10.607 2.929-2.929 7.678-2.929 10.607 0l15.432 15.432c2.929 2.929 2.929 7.678 0 10.607zm-186.293 0c2.929 2.929 7.678 2.929 10.607 0l15.432-15.432c2.929-2.929 2.929-7.678 0-10.607-2.929-2.929-7.678-2.929-10.607 0l-15.432 15.432c-2.929 2.929-2.929 7.678 0 10.607zm113.115-21.409c4.16-4.888 6.674-11.218 6.674-18.125 0-15.439-12.561-28-28-28s-28 12.561-28 28c0 6.907 2.514 13.237 6.674 18.125-49.095 9.92-86.174 53.399-86.174 105.375 0 59.275 48.225 107.5 107.5 107.5s107.5-48.225 107.5-107.5c0-51.976-37.079-95.455-86.174-105.375zm-21.326-31.125c7.168 0 13 5.832 13 13s-5.832 13-13 13-13-5.832-13-13 5.832-13 13-13zm0 229c-51.005 0-92.5-41.495-92.5-92.5s41.495-92.5 92.5-92.5 92.5 41.495 92.5 92.5-41.495 92.5-92.5 92.5zm0-50.75c-11.046 0-20 8.954-20 20s8.954 20 20 20 20-8.954 20-20-8.954-20-20-20z" fill="#40c1fa"/></g></svg>