<svg id="Capa_1" enable-background="new 0 0 512 512" height="512" viewBox="0 0 512 512" width="512" xmlns="http://www.w3.org/2000/svg"><g><path d="m512 256c0 141.385-114.615 256-256 256s-256-114.615-256-256 114.615-256 256-256 256 114.615 256 256z" fill="#2476ed"/><path d="m445.695 275.433c0 115.498-93.63 209.128-209.128 209.128s-209.127-93.63-209.127-209.128 93.63-209.128 209.128-209.128 209.127 93.629 209.127 209.128z" fill="#5596fb"/><path d="m512 170.332c0 128.418-128.823 177.834-141.57 183.97l-157.472 75.808 3.514-38.839-132.272 36.529 36.529-132.272-38.839 3.514 75.808-157.472c6.136-12.747 61.259-141.57 183.97-141.57 94.072 0 170.332 76.26 170.332 170.332z" fill="#ffb52d"/><path d="m485.635 79.261c16.697 26.34 26.365 57.576 26.365 91.071 0 128.418-128.823 177.834-141.57 183.97l-157.472 75.808 3.514-38.839-88.655 24.483c9.157-22.543 21.593-43.887 33.365-64.936 70.753-126.52 184.969-224.719 324.453-271.557z" fill="#ffc14f"/><path d="m479.473 163.336c0 46.146-24.164 87.839-61.952 111.232-7.1 8.226-154.951 82.035-154.951 82.035l3.135-34.651-104.524 28.866 28.866-104.524-34.651 3.135s73.809-147.851 82.035-154.951c23.393-37.787 65.086-61.952 111.232-61.952 72.245.001 130.81 58.566 130.81 130.81z" fill="#f29500"/><path d="m446.856 76.91c20.302 23.047 32.617 53.299 32.617 86.427 0 46.146-24.164 87.839-61.952 111.232-7.1 8.226-154.951 82.035-154.951 82.035l3.135-34.651-103.477 28.577c53.164-125.809 156.349-225.325 284.628-273.62z" fill="#ffa90b"/><path d="m380.391 271.629c-85.21 23.532-163.551-54.81-140.02-140.019 13.628-49.348 58.524-83.526 109.719-83.526 62.864 0 113.826 50.962 113.826 113.826.001 51.195-34.177 96.091-83.525 109.719z" fill="#ea552d"/><path d="m431.936 82.804c19.799 20.48 31.981 48.37 31.981 79.105 0 51.195-34.178 96.091-83.526 109.719-55.742 15.394-108.545-12.809-131.812-58.011 50.007-56.459 112.588-101.526 183.357-130.813z" fill="#f76937"/><path d="m327.939 222.664c1.059 5.022-4.17 8.996-8.684 6.555-29.601-16.006-49.216-48.117-47.098-84.59 2.626-45.215 39.257-81.847 84.473-84.473 36.473-2.118 68.585 17.497 84.59 47.098 2.441 4.514-1.533 9.744-6.555 8.684-7.659-1.616-15.677-2.258-23.918-1.789-45.287 2.575-82.022 39.31-84.597 84.597-.469 8.242.173 16.26 1.789 23.918z" fill="#af3030"/><path d="m362 240c-15.596 0-30.264-3.968-43.053-10.947-6.98-12.789-10.947-27.457-10.947-43.053 0-49.706 40.294-90 90-90 15.596 0 30.264 3.967 43.053 10.947 6.979 12.789 10.947 27.457 10.947 43.053 0 49.706-40.294 90-90 90z" fill="#bc3434"/><path d="m430.235 150c0 23.666-14.549 40.194-35.381 40.194-22.163 0-40.193-18.031-40.193-40.194s18.03-40.194 40.193-40.194c8.054 0 15.826 2.375 22.477 6.867 2.288 1.546 2.891 4.654 1.345 6.942-1.547 2.288-4.653 2.889-6.942 1.345-4.991-3.372-10.827-5.154-16.879-5.154-16.648 0-30.193 13.545-30.193 30.194s13.545 30.194 30.193 30.194c16.522 0 23.644-12.651 25.094-25.194h-15.769c-2.762 0-5-2.238-5-5s2.238-5 5-5h21.056c2.761 0 4.999 2.238 4.999 5zm-110.522-11.922c-3.174 0-5.717.232-7.956.668l3.035-18.32h21.495c2.762 0 5-2.238 5-5s-2.238-5-5-5h-25.734c-2.446 0-4.533 1.77-4.933 4.183l-5.099 30.771c-.309 1.862.465 3.736 1.988 4.851s3.551 1.272 5.233.412c.048-.024.277-.14.65-.308 2.938-1.321 5.471-2.257 11.319-2.257 4.414 0 8.521 1.766 11.566 4.973 3.042 3.204 4.591 7.406 4.361 11.831-.431 8.295-7.281 14.924-15.596 15.092-.109.002-.218.003-.326.003-7.939 0-14.702-5.845-15.801-13.716-.102-.732-.153-1.484-.153-2.233 0-2.762-2.238-5-5-5s-5 2.238-5 5c0 1.208.084 2.423.249 3.613 1.79 12.82 12.789 22.337 25.703 22.336.176 0 .354-.001.529-.005 13.531-.272 24.68-11.065 25.381-24.571.373-7.191-2.146-14.022-7.096-19.235-4.877-5.141-11.735-8.088-18.815-8.088z" fill="#fff"/></g></svg>