<svg id="Capa_1" enable-background="new 0 0 512 512" height="512" viewBox="0 0 512 512" width="512" xmlns="http://www.w3.org/2000/svg"><g><path d="m512 256c0 141.385-114.615 256-256 256s-256-114.615-256-256 114.615-256 256-256 256 114.615 256 256z" fill="#ffb52d"/><path d="m458.535 232.149c0 116.532-94.468 211-211 211s-211-94.468-211-211 94.468-211 211-211 211 94.468 211 211z" fill="#ffc14f"/><path d="m450 55v343.106c0 5.523-4.477 10-10 10h-330c-5.523 0-10-4.477-10-10v-343.106c0-5.523 4.477-10 10-10h330c5.523 0 10 4.477 10 10z" fill="#0956c6"/><path d="m150 408.106h-40c-5.523 0-10-4.477-10-10v-343.106c0-5.523 4.477-10 10-10h40c-5.523 0-10 4.477-10 10v343.106c0 5.523 4.477 10 10 10z" fill="#274c91"/><path d="m427.835 475h-297.835v-394.215c0-3.195 2.59-5.785 5.785-5.785h277.277c3.868 0 7.038 3.068 7.163 6.934l12.607 387.904c.092 2.823-2.172 5.162-4.997 5.162z" fill="#b9d3fd"/><path d="m454.43 445h-284.43l-39.401-364.462c-.32-2.957 1.997-5.538 4.971-5.538h279.942c2.553 0 4.696 1.924 4.971 4.462l38.919 360c.319 2.957-1.998 5.538-4.972 5.538z" fill="#dce6eb"/><path d="m320 0h-90c-13.785 0-25 11.215-25 25s11.215 25 25 25h90c13.785 0 25-11.215 25-25s-11.215-25-25-25zm0 40h-90c-8.271 0-15-6.729-15-15s6.729-15 15-15h90c8.271 0 15 6.729 15 15s-6.729 15-15 15z" fill="#203e76"/><path d="m340 65v20c0 5.523-4.477 10-10 10h-110c-5.523 0-10-4.477-10-10v-20c0-5.523 4.477-10 10-10h110c5.523 0 10 4.477 10 10z" fill="#2476ed"/><path d="m247.535 45v30c0 5.523-4.477 10-10 10h-32.535c-5.523 0-10-4.477-10-10v-30c0-5.523 4.477-10 10-10h32.535c5.523 0 10 4.477 10 10z" fill="#07a9f0"/><path d="m355 45v30c0 5.523-4.477 10-10 10h-112.509c-5.523 0-10-4.477-10-10v-30c0-5.523 4.477-10 10-10h112.509c5.523 0 10 4.477 10 10z" fill="#40c1fa"/><path d="m330 60c0 2.761-2.239 5-5 5h-100c-2.761 0-5-2.239-5-5s2.239-5 5-5h100c2.761 0 5 2.239 5 5z" fill="#2476ed"/><path d="m252.535 58.488v3.023c0 2.761-2.239 5-5 5h-9.535c-2.761 0-5-2.239-5-5v-3.023c0-2.761 2.239-5 5-5h9.535c2.761 0 5 2.239 5 5zm59.465-5h-9.535c-2.761 0-5 2.239-5 5v3.023c0 2.761 2.239 5 5 5h9.535c2.761 0 5-2.239 5-5v-3.023c0-2.761-2.239-5-5-5z" fill="#0a66ea"/><path d="m390 200.17h-210c-5.523 0-10-4.477-10-10v-58.042c0-5.523 4.477-10 10-10h210c5.523 0 10 4.477 10 10v58.042c0 5.523-4.477 10-10 10zm10 89v-58.042c0-5.523-4.477-10-10-10h-210c-5.523 0-10 4.477-10 10v58.042c0 5.523 4.477 10 10 10h210c5.523 0 10-4.477 10-10z" fill="#b9d3fd"/><path d="m285 165.758h-90c-2.761 0-5-2.239-5-5 0-2.761 2.239-5 5-5h90c2.761 0 5 2.239 5 5 0 2.761-2.239 5-5 5zm-15-25c0-2.761-2.239-5-5-5h-70c-2.761 0-5 2.239-5 5 0 2.761 2.239 5 5 5h70c2.761 0 5-2.239 5-5zm-30 40c0-2.761-2.239-5-5-5h-40c-2.761 0-5 2.239-5 5 0 2.761 2.239 5 5 5h40c2.761 0 5-2.239 5-5zm120-51.758c-16.569 0-30 13.431-30 30s13.431 30 30 30 30-13.431 30-30-13.431-30-30-30zm-70 130.758c0-2.761-2.239-5-5-5h-90c-2.761 0-5 2.239-5 5 0 2.761 2.239 5 5 5h90c2.761 0 5-2.239 5-5zm-20-20c0-2.761-2.239-5-5-5h-70c-2.761 0-5 2.239-5 5 0 2.761 2.239 5 5 5h70c2.761 0 5-2.239 5-5zm-30 40c0-2.761-2.239-5-5-5h-40c-2.761 0-5 2.239-5 5 0 2.761 2.239 5 5 5h40c2.761 0 5-2.239 5-5zm120-51.758c-16.569 0-30 13.431-30 30s13.431 30 30 30 30-13.431 30-30-13.431-30-30-30z" fill="#91aee2"/><path d="m330.068 149.308c-1.953-1.952-1.953-5.118 0-7.07 1.951-1.953 5.119-1.953 7.07 0l22.021 22.021 41.631-47.578c1.818-2.077 4.977-2.288 7.056-.47 2.078 1.818 2.288 4.978.47 7.056l-45.15 51.6c-.911 1.041-2.213 1.658-3.597 1.704-.056.002-.11.003-.166.003-1.324 0-2.597-.525-3.535-1.465zm77.779 65.902c-2.079-1.818-5.237-1.607-7.056.47l-41.631 47.578-22.021-22.021c-1.951-1.953-5.119-1.953-7.07 0-1.953 1.952-1.953 5.118 0 7.07l25.8 25.8c.938.939 2.211 1.465 3.535 1.465.056 0 .11-.001.166-.003 1.384-.046 2.686-.663 3.597-1.704l45.15-51.6c1.818-2.077 1.608-5.237-.47-7.055z" fill="#203e76"/><path d="m400 332.128v58.042c0 5.522-4.477 10-10 10h-210c-5.523 0-10-4.478-10-10v-58.042c0-5.522 4.477-10 10-10h210c5.523 0 10 4.477 10 10z" fill="#91aee2"/><path d="m240 340.758v40c0 2.762-2.239 5-5 5s-5-2.238-5-5v-40c0-2.761 2.239-5 5-5s5 2.239 5 5zm15 20c-2.761 0-5 2.239-5 5v15c0 2.762 2.239 5 5 5s5-2.238 5-5v-15c0-2.761-2.239-5-5-5zm40-24.758c-2.761 0-5 2.239-5 5v40c0 2.761 2.239 5 5 5s5-2.239 5-5v-40c0-2.761-2.239-5-5-5zm-20 10c-2.761 0-5 2.239-5 5v30c0 2.761 2.239 5 5 5s5-2.239 5-5v-30c0-2.761-2.239-5-5-5zm40 15c-2.761 0-5 2.239-5 5v15c0 2.761 2.239 5 5 5s5-2.239 5-5v-15c0-2.761-2.239-5-5-5zm40-25c-2.761 0-5 2.239-5 5v40c0 2.761 2.239 5 5 5s5-2.239 5-5v-40c0-2.761-2.239-5-5-5zm-20 10c-2.761 0-5 2.239-5 5v30c0 2.761 2.239 5 5 5s5-2.239 5-5v-30c0-2.761-2.239-5-5-5zm40 15c-2.761 0-5 2.239-5 5v15c0 2.761 2.239 5 5 5s5-2.239 5-5v-15c0-2.761-2.239-5-5-5z" fill="#6990d7"/><path d="m250.154 402.724-47.791 82.776c-2.679 4.641-7.631 7.5-12.99 7.5h-95.582c-5.359 0-10.311-2.859-12.99-7.5l-47.791-82.776c-2.68-4.641-2.68-10.359 0-15l47.79-82.776c2.68-4.641 7.631-7.5 12.99-7.5h95.582c5.359 0 10.311 2.859 12.99 7.5l47.791 82.776c2.68 4.641 2.68 10.359.001 15z" fill="#ea552d"/><path d="m250.154 402.724-32.527 56.338c-8.758 2.589-18.03 3.979-27.627 3.979-53.728 0-97.283-43.555-97.283-97.283 0-26.621 10.693-50.745 28.018-68.31h68.637c5.359 0 10.311 2.859 12.99 7.5l47.791 82.776c2.68 4.641 2.68 10.359.001 15z" fill="#f76937"/><path d="m118.531 391.165c4.949 5.213 7.469 12.044 7.096 19.235-.7 13.506-11.849 24.299-25.38 24.571-.176.004-.354.005-.53.005-12.914.001-23.913-9.516-25.702-22.336-.166-1.189-.25-2.405-.25-3.613 0-2.762 2.239-5 5-5s5 2.238 5 5c0 .747.052 1.498.154 2.23 1.099 7.874 7.861 13.719 15.8 13.719.108 0 .217-.001.326-.003 8.314-.168 15.165-6.797 15.595-15.091.229-4.427-1.319-8.629-4.361-11.833-3.044-3.206-7.151-4.972-11.565-4.972-5.85 0-8.381.936-11.318 2.257-.373.168-.601.281-.649.307-1.681.859-3.709.704-5.234-.411-1.525-1.113-2.298-2.987-1.99-4.851l5.098-30.771c.4-2.413 2.487-4.183 4.933-4.183h25.735c2.761 0 5 2.238 5 5s-2.239 5-5 5h-21.497l-3.035 18.32c2.239-.436 4.782-.668 7.956-.668 7.079.001 13.938 2.948 18.818 8.088zm86.705-1.165h-21.056c-2.761 0-5 2.238-5 5s2.239 5 5 5h15.77c-1.451 12.543-8.572 25.194-25.094 25.194-16.649 0-30.194-13.545-30.194-30.194s13.545-30.194 30.194-30.194c6.051 0 11.887 1.782 16.877 5.153 2.289 1.547 5.396.945 6.942-1.344 1.546-2.288.944-5.396-1.344-6.941-6.65-4.493-14.422-6.868-22.476-6.868-22.163 0-40.194 18.031-40.194 40.194s18.031 40.194 40.194 40.194c20.832 0 35.381-16.528 35.381-40.194 0-2.762-2.239-5-5-5z" fill="#fff"/></g></svg>