<svg id="Capa_1" enable-background="new 0 0 512 512" height="512" viewBox="0 0 512 512" width="512" xmlns="http://www.w3.org/2000/svg"><g><path d="m512 256c0 141.385-114.615 256-256 256s-256-114.615-256-256 114.615-256 256-256 256 114.615 256 256z" fill="#0956c6"/><path d="m456 299.17c0 110.457-89.543 200-200 200s-200-89.543-200-200 89.543-200 200-200 200 89.543 200 200z" fill="#0a66ea"/><path d="m121.5 317.026v113c0 2.762-2.239 5-5 5s-5-2.238-5-5v-113c0-2.762 2.239-5 5-5s5 2.238 5 5zm93.5-5c-2.761 0-5 2.238-5 5v60c0 2.762 2.239 5 5 5s5-2.238 5-5v-60c0-2.762-2.239-5-5-5zm41 0c-2.761 0-5 2.238-5 5v126c0 2.762 2.239 5 5 5s5-2.238 5-5v-126c0-2.762-2.239-5-5-5zm-179.5 0c-2.761 0-5 2.238-5 5v60c0 2.762 2.239 5 5 5s5-2.238 5-5v-60c0-2.762-2.239-5-5-5zm179.5-182.026c-2.761 0-5 2.238-5 5v172c0 2.762 2.239 5 5 5s5-2.238 5-5v-172c0-2.762-2.239-5-5-5zm139.5 182.026c-2.761 0-5 2.238-5 5v113c0 2.762 2.239 5 5 5s5-2.238 5-5v-113c0-2.762-2.239-5-5-5zm40 0c-2.761 0-5 2.238-5 5v60c0 2.762 2.239 5 5 5s5-2.238 5-5v-60c0-2.762-2.239-5-5-5zm-4.5-214.25c0-2.762-2.239-5-5-5h-340c-2.761 0-5 2.238-5 5v197.224c0 2.762 2.239 5 5 5s5-2.238 5-5v-192.224h330v192.224c0 2.762 2.239 5 5 5s5-2.238 5-5zm-134 214.25c-2.761 0-5 2.238-5 5v60c0 2.762 2.239 5 5 5s5-2.238 5-5v-60c0-2.762-2.239-5-5-5z" fill="#203e76"/><path d="m228.203 379.15c-2.668 4.934-8.02 8.203-14.098 7.85-7.536-.438-13.641-6.543-14.079-14.079-.353-6.079 2.916-11.431 7.85-14.099.752-.407 1.624.255 1.447 1.092-.269 1.277-.376 2.613-.298 3.986.429 7.548 6.552 13.67 14.099 14.1 1.374.078 2.71-.029 3.986-.298.838-.176 1.5.696 1.093 1.448zm80.908-1.447c-1.276.269-2.613.376-3.986.298-7.548-.429-13.67-6.552-14.099-14.1-.078-1.374.029-2.709.298-3.986.177-.837-.695-1.499-1.447-1.092-4.934 2.667-8.203 8.02-7.85 14.099.438 7.536 6.543 13.641 14.079 14.079 6.079.353 11.431-2.916 14.098-7.85.406-.753-.256-1.625-1.093-1.448zm-220.5 0c-1.276.269-2.613.376-3.986.298-7.548-.429-13.67-6.552-14.099-14.1-.078-1.374.029-2.709.298-3.986.177-.837-.695-1.499-1.447-1.092-4.934 2.667-8.203 8.02-7.85 14.099.438 7.536 6.543 13.641 14.079 14.079 6.079.353 11.431-2.916 14.098-7.85.406-.753-.256-1.625-1.093-1.448zm359 0c-1.276.269-2.613.376-3.986.298-7.548-.429-13.67-6.552-14.099-14.1-.078-1.374.029-2.709.298-3.986.177-.837-.695-1.499-1.447-1.092-4.934 2.667-8.203 8.02-7.85 14.099.438 7.536 6.543 13.641 14.079 14.079 6.079.353 11.431-2.916 14.098-7.85.406-.753-.256-1.625-1.093-1.448z" fill="#c8d2dc"/><path d="m230 372.026c0 2.6-.661 5.044-1.825 7.176-2.131 1.163-4.576 1.824-7.175 1.824-8.284 0-15-6.715-15-15 0-2.599.661-5.044 1.825-7.175 2.131-1.163 4.576-1.825 7.175-1.825 8.284 0 15 6.716 15 15zm67-15c-2.599 0-5.044.662-7.175 1.825-1.163 2.131-1.825 4.576-1.825 7.175 0 8.285 6.716 15 15 15 2.599 0 5.044-.661 7.175-1.824 1.163-2.131 1.825-4.576 1.825-7.176 0-8.284-6.716-15-15-15zm-220.5 0c-2.599 0-5.044.662-7.175 1.825-1.163 2.131-1.825 4.576-1.825 7.175 0 8.285 6.716 15 15 15 2.599 0 5.044-.661 7.175-1.824 1.163-2.131 1.825-4.576 1.825-7.176 0-8.284-6.716-15-15-15zm359 0c-2.599 0-5.044.662-7.175 1.825-1.163 2.131-1.825 4.576-1.825 7.175 0 8.285 6.716 15 15 15 2.599 0 5.044-.661 7.176-1.824 1.163-2.131 1.824-4.576 1.824-7.176 0-8.284-6.716-15-15-15z" fill="#dce6eb"/><path d="m316.781 7.5 47.791 82.776c2.68 4.641 2.68 10.359 0 15l-47.791 82.776c-2.679 4.641-7.631 7.5-12.99 7.5h-95.582c-5.359 0-10.311-2.859-12.99-7.5l-47.791-82.776c-2.679-4.641-2.679-10.359 0-15l47.791-82.776c2.679-4.641 7.631-7.5 12.99-7.5h95.582c5.359 0 10.311 2.859 12.99 7.5z" fill="#07a9f0"/><path d="m364.572 90.276c2.68 4.641 2.68 10.359 0 15l-39.607 68.601c-62.418-.556-112.847-51.327-112.847-113.877 0-22.019 6.249-42.577 17.07-60h74.603c5.359 0 10.311 2.859 12.99 7.5z" fill="#40c1fa"/><path d="m312 443.149c0 18.308-14.841 33.149-33.149 33.149h-45.702c-18.308 0-33.149-14.841-33.149-33.149 0-18.308 14.841-33.149 33.149-33.149h45.702c18.308 0 33.149 14.841 33.149 33.149zm-168.149-33.149h-45.702c-18.308 0-33.149 14.841-33.149 33.149 0 18.308 14.841 33.149 33.149 33.149h45.702c18.308 0 33.149-14.841 33.149-33.149 0-18.308-14.841-33.149-33.149-33.149zm270 0h-45.702c-18.308 0-33.149 14.841-33.149 33.149 0 18.308 14.841 33.149 33.149 33.149h45.702c18.308 0 33.149-14.841 33.149-33.149 0-18.308-14.841-33.149-33.149-33.149z" fill="#ffb52d"/><path d="m221 443.149c0 18.308 14.841 33.149 33.149 33.149h-21c-18.308 0-33.149-14.841-33.149-33.149s14.841-33.149 33.149-33.149h21c-18.308 0-33.149 14.841-33.149 33.149zm-101.851-33.149h-21c-18.308 0-33.149 14.841-33.149 33.149s14.841 33.149 33.149 33.149h21c-18.308 0-33.149-14.841-33.149-33.149s14.841-33.149 33.149-33.149zm236.851 33.149c0-18.308 14.841-33.149 33.149-33.149h-21c-18.308 0-33.149 14.841-33.149 33.149s14.841 33.149 33.149 33.149h21c-18.308 0-33.149-14.841-33.149-33.149z" fill="#f29500"/><path d="m286 433c0 2.761-2.239 5-5 5h-50c-2.761 0-5-2.239-5-5 0-2.762 2.239-5 5-5h50c2.761 0 5 2.238 5 5zm-15 15h-40c-2.761 0-5 2.239-5 5s2.239 5 5 5h40c2.761 0 5-2.239 5-5s-2.239-5-5-5zm-125-20h-50c-2.761 0-5 2.238-5 5 0 2.761 2.239 5 5 5h50c2.761 0 5-2.239 5-5 0-2.762-2.239-5-5-5zm-10 20h-40c-2.761 0-5 2.239-5 5s2.239 5 5 5h40c2.761 0 5-2.239 5-5s-2.239-5-5-5zm280-20h-50c-2.761 0-5 2.238-5 5 0 2.761 2.239 5 5 5h50c2.761 0 5-2.239 5-5 0-2.762-2.239-5-5-5zm-10 20h-40c-2.761 0-5 2.239-5 5s2.239 5 5 5h40c2.761 0 5-2.239 5-5s-2.239-5-5-5z" fill="#ffd993"/><path d="m326 253.128v58.042c0 5.522-4.477 10-10 10h-120c-5.523 0-10-4.478-10-10v-58.042c0-5.522 4.477-10 10-10h120c5.523 0 10 4.477 10 10zm-170-10h-120c-5.523 0-10 4.478-10 10v58.042c0 5.522 4.477 10 10 10h120c5.523 0 10-4.478 10-10v-58.042c0-5.523-4.477-10-10-10zm320 0h-120c-5.523 0-10 4.478-10 10v58.042c0 5.522 4.477 10 10 10h120c5.523 0 10-4.478 10-10v-58.042c0-5.523-4.477-10-10-10z" fill="#b9c3cd"/><path d="m46 253.128v58.042c0 5.522 4.477 10 10 10h-20c-5.523 0-10-4.478-10-10v-58.042c0-5.522 4.477-10 10-10h20c-5.523 0-10 4.477-10 10zm320 58.042v-58.042c0-5.522 4.477-10 10-10h-20c-5.523 0-10 4.478-10 10v58.042c0 5.522 4.477 10 10 10h20c-5.523 0-10-4.478-10-10zm-150-68.042h-20c-5.523 0-10 4.478-10 10v58.042c0 5.522 4.477 10 10 10h20c-5.523 0-10-4.478-10-10v-58.042c0-5.523 4.477-10 10-10z" fill="#a2abb8"/><path d="m306 281.758c0 2.762-2.239 5-5 5h-90c-2.761 0-5-2.238-5-5 0-2.761 2.239-5 5-5h90c2.761 0 5 2.239 5 5zm-95-15h70c2.761 0 5-2.238 5-5 0-2.761-2.239-5-5-5h-70c-2.761 0-5 2.239-5 5 0 2.762 2.239 5 5 5zm40 30h-40c-2.761 0-5 2.239-5 5 0 2.762 2.239 5 5 5h40c2.761 0 5-2.238 5-5 0-2.761-2.239-5-5-5zm-110-20h-90c-2.761 0-5 2.239-5 5 0 2.762 2.239 5 5 5h90c2.761 0 5-2.238 5-5 0-2.761-2.239-5-5-5zm-90-10h70c2.761 0 5-2.238 5-5 0-2.761-2.239-5-5-5h-70c-2.761 0-5 2.239-5 5 0 2.762 2.239 5 5 5zm40 30h-40c-2.761 0-5 2.239-5 5 0 2.762 2.239 5 5 5h40c2.761 0 5-2.238 5-5 0-2.761-2.239-5-5-5zm370-20h-90c-2.761 0-5 2.239-5 5 0 2.762 2.239 5 5 5h90c2.761 0 5-2.238 5-5 0-2.761-2.239-5-5-5zm-90-10h70c2.761 0 5-2.238 5-5 0-2.761-2.239-5-5-5h-70c-2.761 0-5 2.239-5 5 0 2.762 2.239 5 5 5zm40 30h-40c-2.761 0-5 2.239-5 5 0 2.762 2.239 5 5 5h40c2.761 0 5-2.238 5-5 0-2.761-2.239-5-5-5z" fill="#dce6eb"/><path d="m300.075 146.624h-11.12c-.043-.116-.091-.232-.143-.348l-28.241-61.933v-18.956c5.065-1.287 9.296-4.66 11.725-9.151.502-.929-.315-2.004-1.348-1.787-1.576.332-3.225.464-4.92.368-1.908-.108-3.741-.512-5.456-1.165v-16.274c0-2.525-2.047-4.571-4.571-4.571-2.525 0-4.571 2.046-4.571 4.571v8.774c-1.617-2.565-2.622-5.548-2.803-8.738-.096-1.695.036-3.345.368-4.92.218-1.033-.858-1.851-1.786-1.349-6.089 3.292-10.124 9.898-9.689 17.401.471 8.113 6.265 14.882 13.91 16.838v18.958l-28.241 61.933c-.052.115-.1.231-.143.348h-11.12c-2.762 0-5 2.238-5 5s2.238 5 5 5h88.15c2.762 0 5-2.238 5-5s-2.239-4.999-5.001-4.999zm-44.075-48.203 9.526 20.892h-19.052zm-21.98 48.203 7.894-17.312h28.172l7.894 17.312z" fill="#dce6eb"/><g fill="#fff"><path d="m274.514 47.442c0 3.208-.816 6.226-2.252 8.856-2.631 1.436-5.648 2.252-8.856 2.252-10.225 0-18.514-8.289-18.514-18.514 0-3.208.816-6.226 2.252-8.856 2.631-1.436 5.648-2.252 8.856-2.252 10.225 0 18.514 8.289 18.514 18.514z"/><path d="m212.1 117.63c-1.28 0-2.559-.488-3.536-1.465-12.583-12.583-12.583-33.057 0-45.64 1.953-1.953 5.118-1.953 7.071 0 1.953 1.952 1.953 5.118 0 7.07-8.684 8.685-8.684 22.814 0 31.499 1.953 1.952 1.953 5.118 0 7.07-.976.978-2.255 1.466-3.535 1.466zm-17.294 13.905c1.953-1.952 1.953-5.118 0-7.07-17.159-17.16-17.159-45.08 0-62.24 1.953-1.952 1.953-5.118 0-7.07-1.953-1.953-5.118-1.953-7.071 0-21.058 21.059-21.058 55.322 0 76.381.977.977 2.256 1.465 3.536 1.465 1.278-.001 2.558-.489 3.535-1.466zm108.63-15.37c12.583-12.583 12.583-33.057 0-45.64-1.953-1.953-5.118-1.953-7.071 0-1.953 1.952-1.953 5.118 0 7.07 8.684 8.685 8.684 22.814 0 31.499-1.953 1.952-1.953 5.118 0 7.07.977.977 2.256 1.465 3.536 1.465s2.558-.487 3.535-1.464zm20.83 15.37c21.058-21.059 21.058-55.322 0-76.381-1.952-1.952-5.117-1.953-7.071 0-1.953 1.952-1.953 5.118 0 7.07 17.159 17.16 17.159 45.08 0 62.24-1.953 1.952-1.953 5.118 0 7.07.977.977 2.256 1.465 3.536 1.465s2.558-.487 3.535-1.464z"/></g></g></svg>